<svg xmlns="http://www.w3.org/2000/svg" width="104.132" height="98.497" viewBox="0 0 104.132 98.497">
  <g id="Grupo_1102994" data-name="Grupo 1102994" transform="translate(-1 -14.8)">
    <path id="Trazado_913058" data-name="Trazado 913058" d="M214.186,69.977a13.637,13.637,0,1,0-26.4-.02,14.151,14.151,0,1,1,27.36-5.084A14.919,14.919,0,0,1,214.186,69.977Z" transform="translate(-147.91 -28.593)" fill="#ffdd40"/>
    <path id="Trazado_913059" data-name="Trazado 913059" d="M216.492,75.067a13.621,13.621,0,0,1-.449,3.43,14.221,14.221,0,0,1-2.716,4.41,15.272,15.272,0,0,0-3.757,7.432,14.207,14.207,0,0,0-.245,2.634v.347H196.38v-.082a15.606,15.606,0,0,0-.245-2.777c-.02-.082-.041-.184-.061-.286a14.6,14.6,0,0,0-3.573-7.126,14.082,14.082,0,0,1-2.859-4.553,14.1,14.1,0,0,1-.368-4.757,13.641,13.641,0,0,1,27.217,1.327Z" transform="translate(-149.787 -37.113)" fill="#ffe98d"/>
    <path id="Trazado_913060" data-name="Trazado 913060" d="M381.375,292.745v.449a3.768,3.768,0,0,1-.02.49,9.649,9.649,0,0,1-4.594,7.738c-.02.02-.041.041-.061.041a1.52,1.52,0,0,1-.245.143,5.762,5.762,0,0,1-.939.47,6.637,6.637,0,0,1-1.021.368,2.866,2.866,0,0,1-1.756,0,8.979,8.979,0,0,1-1.041-.368,5.379,5.379,0,0,1-.837-.429l.02-.02c-.082-.041-.163-.082-.265-.143-.02-.02-.041-.041-.061-.041a9.706,9.706,0,0,1-4.472-6.554,4.415,4.415,0,0,1-.082-.51c.2-.061.429-.123.653-.184.245-.082.47-.163.715-.265a4.8,4.8,0,0,0,.755-.286c.245-.122.51-.225.776-.347.286-.122.551-.265.817-.408a7.331,7.331,0,0,0,.776-.429c.531-.306,1.062-.653,1.633-1.021.531-.388,1.082-.817,1.633-1.286a19.548,19.548,0,0,0,1.613-1.552h.143l.286.286c.265.245.51.49.817.735A20.425,20.425,0,0,0,381.375,292.745Z" transform="translate(-290.474 -217.895)" fill="#f9ba8f"/>
    <path id="Trazado_913061" data-name="Trazado 913061" d="M390.425,356.439l-4.512,4.512-.041-.02-4.472-4.472c.082-.286.163-.592.265-.9.388-1.348.817-2.859,1.123-3.92.02.02.02.02.041.02.082.041.163.1.245.143a.063.063,0,0,0,.041.02,6.468,6.468,0,0,0,.837.429,8.975,8.975,0,0,0,1.041.368,2.865,2.865,0,0,0,1.756,0,7.52,7.52,0,0,0,1.021-.368,6.722,6.722,0,0,0,.939-.47,1.523,1.523,0,0,0,.245-.143c.02-.02.041-.041.061-.041,0,.02.02.02.02.041.306,1.082.735,2.593,1.123,3.941.1.286.184.592.265.858Z" transform="translate(-302.73 -268.032)" fill="#fd995b"/>
    <path id="Trazado_913062" data-name="Trazado 913062" d="M424.864,309.592v5.676c0,3.532-2,5.513-4.941,6.391-.388-1.348-.817-2.879-1.123-3.941a9.681,9.681,0,0,0,4.635-7.779c0-.163.02-.327.02-.49V309Z" transform="translate(-332.494 -234.13)" fill="#4045ab"/>
    <path id="Trazado_913063" data-name="Trazado 913063" d="M364.97,324.169l-.02.02a.071.071,0,0,1-.041-.02,1.523,1.523,0,0,1-.245-.143c-.02-.02-.02-.02-.041-.02-.306,1.082-.735,2.593-1.123,3.92-2.92-.9-4.9-2.879-4.9-6.391v-4.349l1.429-.265.041-.02c.02.163.061.347.082.51a9.752,9.752,0,0,0,4.472,6.554c.02.02.041.041.061.041a1.42,1.42,0,0,0,.286.163Z" transform="translate(-284.585 -240.417)" fill="#4045ab"/>
    <path id="Trazado_913064" data-name="Trazado 913064" d="M419.134,274.108v1.184l-1.409-.613a21.107,21.107,0,0,1-4.839-3.144c-.286-.245-.551-.49-.817-.735a3.773,3.773,0,0,1-.286-.286H411.6a20.918,20.918,0,0,0,1.736-2.981c.265-.572.49-1.1.694-1.633.245.123.51.265.735.408a10.121,10.121,0,0,1,1.654,1.307,9.034,9.034,0,0,1,2.716,6.493Z" transform="translate(-326.764 -199.83)" fill="#4045ab"/>
    <path id="Trazado_913065" data-name="Trazado 913065" d="M371.772,262c-.2.531-.429,1.082-.694,1.633a18.864,18.864,0,0,1-1.736,2.981,19.543,19.543,0,0,1-1.613,1.552c-.551.47-1.1.9-1.633,1.286-.572.367-1.1.715-1.633,1.021a7.337,7.337,0,0,1-.776.429c-.265.143-.551.286-.817.408a6.462,6.462,0,0,1-.776.347,4.8,4.8,0,0,1-.755.286c-.245.1-.47.184-.715.265-.225.061-.449.143-.653.184l-.041.02-1.429.265a27.933,27.933,0,0,1,.041-3.206,9.476,9.476,0,0,1,5.35-7.616,9.008,9.008,0,0,1,3.41-.837,2.345,2.345,0,0,1,.388-.02A9.869,9.869,0,0,1,371.772,262Z" transform="translate(-284.486 -195.931)" fill="#4045ab"/>
    <path id="Trazado_913066" data-name="Trazado 913066" d="M317.87,377.027v2.43l-.02.02-.041-.041-5.227-5.227-8.718,3.553a5.291,5.291,0,0,0-3.124,3.553L296.533,397.4H295.9l4.839-18.519a5.291,5.291,0,0,1,3.124-3.553l8.718-3.532,5.227,5.207Z" transform="translate(-234.687 -284.108)" fill="#ca7441"/>
    <path id="Trazado_913067" data-name="Trazado 913067" d="M320.337,388.927v17.947H299l4.206-16.089a5.29,5.29,0,0,1,3.124-3.553l8.718-3.532,5.227,5.227Z" transform="translate(-237.154 -293.578)" fill="#ffbd45"/>
    <path id="Trazado_913068" data-name="Trazado 913068" d="M425.529,397.4H424.9l-4.206-16.089a5.214,5.214,0,0,0-3.1-3.553l-8.739-3.532-.735.735-4.512,4.512v-2.43l4.512-4.512.735-.735,8.739,3.532a5.262,5.262,0,0,1,3.1,3.553Z" transform="translate(-320.397 -284.108)" fill="#ca7441"/>
    <path id="Trazado_913069" data-name="Trazado 913069" d="M424.816,406.874H403.5V388.927l1.1-1.1,3.41-3.389.735-.735,8.739,3.532a5.262,5.262,0,0,1,3.1,3.553Z" transform="translate(-320.317 -293.578)" fill="#ffbd45"/>
    <path id="Trazado_913070" data-name="Trazado 913070" d="M227.546,79.648H225.4a6.022,6.022,0,0,0-.347-.837l1.511-1.511a.456.456,0,0,0,0-.653l-2.756-2.756a.456.456,0,0,0-.653,0l-1.531,1.491c-.265-.123-.551-.245-.837-.347V72.87a.462.462,0,0,0-.47-.47H216.4a.462.462,0,0,0-.47.47v2.144c-.286.1-.572.225-.837.347L213.58,73.85a.456.456,0,0,0-.653,0l-2.756,2.756a.456.456,0,0,0,0,.653l1.511,1.511c-.123.265-.245.551-.347.837H209.17a.462.462,0,0,0-.47.47v3.9a.462.462,0,0,0,.47.47h2.144c.1.286.225.572.347.837l-1.511,1.511a.456.456,0,0,0,0,.653l2.756,2.756a.456.456,0,0,0,.653,0l1.511-1.511a6.019,6.019,0,0,0,.837.347v2.144a.462.462,0,0,0,.47.47h3.92a.462.462,0,0,0,.47-.47V89.041c.286-.1.572-.225.837-.347l1.511,1.511a.456.456,0,0,0,.653,0l2.756-2.756a.456.456,0,0,0,0-.653l-1.511-1.511a6.02,6.02,0,0,0,.347-.837h2.185a.462.462,0,0,0,.47-.47v-3.9A.484.484,0,0,0,227.546,79.648Zm-9.188,6.513a4.1,4.1,0,1,1,4.1-4.1A4.1,4.1,0,0,1,218.358,86.162Z" transform="translate(-165.292 -45.839)" fill="#335296"/>
    <path id="Trazado_913071" data-name="Trazado 913071" d="M233.242,224.8v.286a1.638,1.638,0,0,1-1.633,1.633H219.133a1.638,1.638,0,0,1-1.633-1.633V224.8a.694.694,0,0,1,.02-.2,1.614,1.614,0,0,0,1.613,1.409h12.475a1.614,1.614,0,0,0,1.613-1.409A.694.694,0,0,1,233.242,224.8Z" transform="translate(-172.295 -166.963)" fill="#727997"/>
    <path id="Trazado_913072" data-name="Trazado 913072" d="M233.242,242.2v.286a1.638,1.638,0,0,1-1.633,1.633H219.133a1.638,1.638,0,0,1-1.633-1.633V242.2a.694.694,0,0,1,.02-.2,1.615,1.615,0,0,0,1.613,1.429h12.475A1.615,1.615,0,0,0,233.222,242,.569.569,0,0,1,233.242,242.2Z" transform="translate(-172.295 -180.81)" fill="#727997"/>
    <path id="Trazado_913073" data-name="Trazado 913073" d="M233.3,219.029a1.614,1.614,0,0,1-1.613,1.409H219.213a1.431,1.431,0,1,1,0-2.838h12.475A1.615,1.615,0,0,1,233.3,219.029Z" transform="translate(-172.375 -161.392)" fill="#4045ab"/>
    <path id="Trazado_913074" data-name="Trazado 913074" d="M233.3,236.409a1.615,1.615,0,0,1-1.613,1.429H219.213a1.431,1.431,0,1,1,0-2.838h12.475A1.614,1.614,0,0,1,233.3,236.409Z" transform="translate(-172.375 -175.24)" fill="#4045ab"/>
    <path id="Trazado_913075" data-name="Trazado 913075" d="M240.381,252.3v.286a3.276,3.276,0,0,1-3.267,3.267h-4.247a3.277,3.277,0,0,1-3.267-3.267V252.3h.2a3.282,3.282,0,0,0,3.063,2.123h4.247a3.282,3.282,0,0,0,3.063-2.123Z" transform="translate(-181.924 -189.007)" fill="#727997"/>
    <path id="Trazado_913076" data-name="Trazado 913076" d="M240.972,252.3a3.283,3.283,0,0,1-3.063,2.123h-4.247A3.282,3.282,0,0,1,230.6,252.3Z" transform="translate(-182.72 -189.007)" fill="#4045ab"/>
    <g id="Grupo_1102984" data-name="Grupo 1102984" transform="translate(30.81 14.8)">
      <g id="Grupo_1102972" data-name="Grupo 1102972" transform="translate(21.153 0)">
        <g id="Grupo_1102971" data-name="Grupo 1102971">
          <path id="Trazado_913077" data-name="Trazado 913077" d="M251.7,18.577a1.1,1.1,0,0,1-1.1-1.1V15.9a1.1,1.1,0,1,1,2.205,0v1.572A1.1,1.1,0,0,1,251.7,18.577Z" transform="translate(-250.6 -14.8)" fill="#ffe98d"/>
        </g>
      </g>
      <g id="Grupo_1102975" data-name="Grupo 1102975" transform="translate(6.212 6.192)">
        <g id="Grupo_1102973" data-name="Grupo 1102973" transform="translate(0 28.81)">
          <path id="Trazado_913078" data-name="Trazado 913078" d="M178.522,189.548a1.034,1.034,0,0,1-.776-.327,1.122,1.122,0,0,1,0-1.572l1.1-1.1a1.122,1.122,0,0,1,1.572,0,1.1,1.1,0,0,1,0,1.572l-1.1,1.1A1.29,1.29,0,0,1,178.522,189.548Z" transform="translate(-177.425 -186.225)" fill="#ffe98d"/>
        </g>
        <g id="Grupo_1102974" data-name="Grupo 1102974" transform="translate(28.789)">
          <path id="Trazado_913079" data-name="Trazado 913079" d="M319.522,48.448a1.034,1.034,0,0,1-.776-.327,1.122,1.122,0,0,1,0-1.572l1.1-1.1a1.112,1.112,0,0,1,1.572,1.572l-1.1,1.1A1.111,1.111,0,0,1,319.522,48.448Z" transform="translate(-318.425 -45.125)" fill="#ffe98d"/>
        </g>
      </g>
      <g id="Grupo_1102978" data-name="Grupo 1102978" transform="translate(0 21.153)">
        <g id="Grupo_1102976" data-name="Grupo 1102976">
          <path id="Trazado_913080" data-name="Trazado 913080" d="M149.675,120.605H148.1a1.1,1.1,0,0,1,0-2.205h1.572a1.1,1.1,0,0,1,0,2.205Z" transform="translate(-147 -118.4)" fill="#ffe98d"/>
        </g>
        <g id="Grupo_1102977" data-name="Grupo 1102977" transform="translate(40.734)">
          <path id="Trazado_913081" data-name="Trazado 913081" d="M349.175,120.605H347.6a1.1,1.1,0,0,1,0-2.205h1.572a1.1,1.1,0,1,1,0,2.205Z" transform="translate(-346.5 -118.4)" fill="#ffe98d"/>
        </g>
      </g>
      <g id="Grupo_1102981" data-name="Grupo 1102981" transform="translate(6.212 6.192)">
        <g id="Grupo_1102979" data-name="Grupo 1102979">
          <path id="Trazado_913082" data-name="Trazado 913082" d="M179.625,48.448a1.034,1.034,0,0,1-.776-.327l-1.1-1.1a1.112,1.112,0,1,1,1.572-1.572l1.1,1.1a1.113,1.113,0,0,1-.8,1.9Z" transform="translate(-177.425 -45.125)" fill="#ffe98d"/>
        </g>
        <g id="Grupo_1102980" data-name="Grupo 1102980" transform="translate(28.789 28.802)">
          <path id="Trazado_913083" data-name="Trazado 913083" d="M320.625,189.518a1.034,1.034,0,0,1-.776-.327l-1.1-1.1a1.121,1.121,0,0,1,0-1.572,1.1,1.1,0,0,1,1.572,0l1.1,1.1a1.122,1.122,0,0,1,0,1.572A1.2,1.2,0,0,1,320.625,189.518Z" transform="translate(-318.425 -186.187)" fill="#ffe98d"/>
        </g>
      </g>
      <g id="Grupo_1102983" data-name="Grupo 1102983" transform="translate(21.153 0)">
        <g id="Grupo_1102982" data-name="Grupo 1102982">
          <path id="Trazado_913084" data-name="Trazado 913084" d="M251.7,18.577a1.1,1.1,0,0,1-1.1-1.1V15.9a1.1,1.1,0,1,1,2.205,0v1.572A1.1,1.1,0,0,1,251.7,18.577Z" transform="translate(-250.6 -14.8)" fill="#ffe98d"/>
        </g>
      </g>
    </g>
    <path id="Trazado_913085" data-name="Trazado 913085" d="M22.909,376.927H21.826v1.307l-4.145-4.145-8.718,3.532a5.256,5.256,0,0,0-3.1,3.553L1.613,397.3H1l4.839-18.519a5.305,5.305,0,0,1,3.1-3.553l8.739-3.532Z" transform="translate(0 -284.028)" fill="#ee4f47"/>
    <path id="Trazado_913086" data-name="Trazado 913086" d="M24.234,387.445v19.091H4l4.227-16.151a5.305,5.305,0,0,1,3.1-3.553l8.739-3.532Z" transform="translate(-2.387 -293.26)" fill="#f6ccb3"/>
    <path id="Trazado_913087" data-name="Trazado 913087" d="M130.549,397.225h-.633l-4.247-16.151a5.256,5.256,0,0,0-3.1-3.553l-8.739-3.532-.735.755-3.41,3.389v-1.307H108.6l4.492-4.472.735-.755,8.739,3.532a5.305,5.305,0,0,1,3.1,3.553Z" transform="translate(-85.63 -283.949)" fill="#ee4f47"/>
    <path id="Trazado_913088" data-name="Trazado 913088" d="M134.134,406.536H113.9V387.445l3.41-3.389.735-.755,8.739,3.532a5.305,5.305,0,0,1,3.1,3.553Z" transform="translate(-89.848 -293.26)" fill="#f6ccb3"/>
    <g id="Grupo_1102987" data-name="Grupo 1102987" transform="translate(9.412 105.823)">
      <g id="Grupo_1102985" data-name="Grupo 1102985">
        <path id="Trazado_913089" data-name="Trazado 913089" d="M44.426,461.7v6.35H42.2V461.7a1.1,1.1,0,0,1,1.1-1.1A1.129,1.129,0,0,1,44.426,461.7Z" transform="translate(-42.2 -460.6)" fill="#ee4f47"/>
      </g>
      <g id="Grupo_1102986" data-name="Grupo 1102986" transform="translate(24.869)">
        <path id="Trazado_913090" data-name="Trazado 913090" d="M166.205,461.7v6.35H164V461.7a1.1,1.1,0,0,1,1.1-1.1A1.111,1.111,0,0,1,166.205,461.7Z" transform="translate(-164 -460.6)" fill="#ee4f47"/>
      </g>
    </g>
    <g id="Grupo_1102988" data-name="Grupo 1102988" transform="translate(69.666 105.823)">
      <path id="Trazado_913091" data-name="Trazado 913091" d="M339.505,461.7v6.37H337.3V461.7a1.1,1.1,0,0,1,1.1-1.1A1.111,1.111,0,0,1,339.505,461.7Z" transform="translate(-337.3 -460.6)" fill="#ca7441"/>
    </g>
    <g id="Grupo_1102989" data-name="Grupo 1102989" transform="translate(82.08 94.246)">
      <path id="Trazado_913092" data-name="Trazado 913092" d="M400.305,403.9v19.05H398.1V403.941l1.041,1.041.041.041Z" transform="translate(-398.1 -403.9)" fill="#ca7441"/>
    </g>
    <g id="Grupo_1102990" data-name="Grupo 1102990" transform="translate(94.514 105.823)">
      <path id="Trazado_913093" data-name="Trazado 913093" d="M461.226,461.7v6.37H459V461.7a1.1,1.1,0,0,1,1.1-1.1A1.129,1.129,0,0,1,461.226,461.7Z" transform="translate(-459 -460.6)" fill="#ca7441"/>
    </g>
    <path id="Trazado_913094" data-name="Trazado 913094" d="M87.221,289.128v2.266c0,.265-.02.531-.041.817a8.354,8.354,0,0,1-4.329,6.575,7.559,7.559,0,0,1-1.94.776l-1.041.2a3.24,3.24,0,0,1-1.021-.2,7.145,7.145,0,0,1-1.96-.776,8.345,8.345,0,0,1-4.369-6.738c-.02-.225-.02-.429-.02-.633v-1.184c1.388-.613,2.532-1.184,3.451-1.695,0,0,.674-.388,4.574-2.736a28.3,28.3,0,0,0,2.92,1.736,22.809,22.809,0,0,0,3.777,1.593Z" transform="translate(-56.901 -215.667)" fill="#f9ba8f"/>
    <path id="Trazado_913095" data-name="Trazado 913095" d="M83.849,253.989v4.247a6.112,6.112,0,0,1-1.184,3.655c.02-.265.041-.531.041-.817v-2.266a27.156,27.156,0,0,1-3.818-1.613,33.466,33.466,0,0,1-2.92-1.736c-3.879,2.368-4.574,2.736-4.574,2.736-.919.51-2.062,1.082-3.451,1.695v1.184c0,.225.02.429.02.633a4.685,4.685,0,0,1-1.164-3.124v-3.246a4.734,4.734,0,0,1,1.388-3.369,4.686,4.686,0,0,1,3.369-1.388,4.05,4.05,0,0,1,.715.061,6.255,6.255,0,0,1,5.288-2.94A6.318,6.318,0,0,1,83.849,253.989Z" transform="translate(-52.365 -185.346)" fill="#4045ab"/>
    <path id="Trazado_913096" data-name="Trazado 913096" d="M95.445,354.768l-4.512,4.512-.061-.02L86.4,354.788c.51-1.715,1.164-4.022,1.531-5.288a7.411,7.411,0,0,0,1.96.776,3.362,3.362,0,0,0,1.021.2l1.041-.2a7.561,7.561,0,0,0,1.94-.776C94.281,350.766,94.955,353.053,95.445,354.768Z" transform="translate(-67.963 -266.361)" fill="#fd995b"/>
    <g id="Grupo_1102991" data-name="Grupo 1102991" transform="translate(21.847 29.766)">
      <path id="Trazado_913097" data-name="Trazado 913097" d="M104.2,118.319a1.1,1.1,0,0,1-1.1-1.1V89.2a1.1,1.1,0,0,1,1.1-1.1h5.615a1.1,1.1,0,1,1,0,2.205h-4.512v26.911A1.1,1.1,0,0,1,104.2,118.319Z" transform="translate(-103.1 -88.1)" fill="#4045ab"/>
    </g>
    <g id="Grupo_1102992" data-name="Grupo 1102992" transform="translate(76.138 29.766)">
      <path id="Trazado_913098" data-name="Trazado 913098" d="M375.718,118.319a1.1,1.1,0,0,1-1.1-1.1V90.305H370.1a1.1,1.1,0,1,1,0-2.205h5.615a1.1,1.1,0,0,1,1.1,1.1v28.014A1.1,1.1,0,0,1,375.718,118.319Z" transform="translate(-369 -88.1)" fill="#4045ab"/>
    </g>
    <g id="Grupo_1102993" data-name="Grupo 1102993" transform="translate(21.847 92.899)">
      <path id="Trazado_913099" data-name="Trazado 913099" d="M105.305,397.3v20.377H103.1V397.3h1.062l.041.041v-.02l.02-.02Z" transform="translate(-103.1 -397.3)" fill="#ee4f47"/>
      <path id="Trazado_913100" data-name="Trazado 913100" d="M108.361,397.3l-.02.02v.02l-.041-.041Z" transform="translate(-107.238 -397.3)" fill="#ee4f47"/>
    </g>
  </g>
</svg>
