<svg xmlns="http://www.w3.org/2000/svg" width="86.949" height="85.5" viewBox="0 0 86.949 85.5">
  <g id="Grupo_1103031" data-name="Grupo 1103031" transform="translate(0 -4)">
    <path id="Trazado_913152" data-name="Trazado 913152" d="M261.819,4A18.839,18.839,0,0,0,242.98,22.839v1.188l-6.42,17.651h9.318V51.822h15.941v7.246h18.839V22.839A18.839,18.839,0,0,0,261.819,4Z" transform="translate(-193.709)" fill="#4045ab"/>
    <path id="Trazado_913153" data-name="Trazado 913153" d="M312.247,111.627a8.4,8.4,0,0,1-5.927-2.449l2.058-2.058a5.478,5.478,0,0,0,7.738,0l2.058,2.058a8.4,8.4,0,0,1-5.927,2.449Z" transform="translate(-250.832 -84.44)" fill="#fff"/>
    <path id="Trazado_913154" data-name="Trazado 913154" d="M37.678,192.027v-1.188a18.839,18.839,0,1,0-37.678,0v36.229H18.839v-7.246H34.78V209.678H44.1Z" transform="translate(0 -137.568)" fill="#ffbd45"/>
    <g id="Grupo_1103030" data-name="Grupo 1103030" transform="translate(12.013 15.593)">
      <path id="Trazado_913155" data-name="Trazado 913155" d="M114.167,279.627a8.4,8.4,0,0,1-5.927-2.449l2.13-2.058a5.478,5.478,0,0,0,7.738,0l2.058,2.058A8.406,8.406,0,0,1,114.167,279.627Z" transform="translate(-100.646 -237.601)" fill="#5a5a60"/>
      <path id="Trazado_913156" data-name="Trazado 913156" d="M240,68h2.9v2.9H240Z" transform="translate(-208.539 -68)" fill="#5a5a60"/>
      <path id="Trazado_913157" data-name="Trazado 913157" d="M70.247,75.246V79l-1.869-1.884L66.32,79.173,71.7,84.535l5.376-5.362-2.058-2.058L73.146,79V75.246A4.347,4.347,0,0,1,77.493,70.9h17.39V68H77.493A7.246,7.246,0,0,0,70.247,75.246Z" transform="translate(-66.32 -68)" fill="#5a5a60"/>
      <path id="Trazado_913158" data-name="Trazado 913158" d="M280.156,326.082l-5.376-5.362-5.376,5.362,2.058,2.058,1.869-1.884v6.652a4.347,4.347,0,0,1-4.347,4.347H240v2.9h28.983a7.246,7.246,0,0,0,7.246-7.246v-6.652l1.869,1.884Z" transform="translate(-208.539 -274.941)" fill="#5a5a60"/>
      <path id="Trazado_913159" data-name="Trazado 913159" d="M208,412h2.9v2.9H208Z" transform="translate(-182.335 -349.686)" fill="#5a5a60"/>
    </g>
  </g>
</svg>
