<svg xmlns="http://www.w3.org/2000/svg" width="60.996" height="80.403" viewBox="0 0 60.996 80.403">
  <g id="Grupo_1103415" data-name="Grupo 1103415" transform="translate(-8 -1)">
    <path id="Trazado_913492" data-name="Trazado 913492" d="M69,21.794V77.245A4.159,4.159,0,0,1,64.837,81.4H12.159A4.159,4.159,0,0,1,8,77.245V5.159A4.159,4.159,0,0,1,12.159,1H48.2a4.149,4.149,0,0,1,2.939,1.22L67.776,18.855A4.149,4.149,0,0,1,69,21.794Z" fill="#f6ccb3" opacity="0.22"/>
    <circle id="Elipse_11543" data-name="Elipse 11543" cx="5.5" cy="5.5" r="5.5" transform="translate(50 27)" fill="#ffbd45" opacity="0.36"/>
    <circle id="Elipse_11544" data-name="Elipse 11544" cx="5.5" cy="5.5" r="5.5" transform="translate(50 58)" fill="#ffbd45" opacity="0.36"/>
    <circle id="Elipse_11545" data-name="Elipse 11545" cx="11" cy="11" r="11" transform="translate(15 22)" fill="#ffbd45"/>
    <circle id="Elipse_11546" data-name="Elipse 11546" cx="11" cy="11" r="11" transform="translate(15 52)" fill="#ee4f47"/>
    <path id="Trazado_913493" data-name="Trazado 913493" d="M55.755,18.515a4.149,4.149,0,0,0-2.939-1.22H44.5a4.159,4.159,0,0,1-4.159-4.159V4.819A4.149,4.149,0,0,0,39.12,1.88Z" transform="translate(12.02 0.34)" fill="#ca7441"/>
    <path id="Trazado_913494" data-name="Trazado 913494" d="M43.773,27.7a1.377,1.377,0,0,1-.98-.406l-1.386-1.386a1.386,1.386,0,1,1,1.96-1.96l.291.291,4.575-5.722A1.387,1.387,0,0,1,50.4,20.253l-5.545,6.931a1.386,1.386,0,0,1-1.005.517Z" transform="translate(12.747 6.566)" fill="#ca7441"/>
    <g id="Grupo_1103414" data-name="Grupo 1103414" transform="translate(19.09 29.569)" opacity="0.71">
      <path id="Trazado_913495" data-name="Trazado 913495" d="M18.366,24.517a.574.574,0,0,1,.812,0,1.386,1.386,0,1,0,1.96-1.96,3.427,3.427,0,0,0-4.733,0,1.386,1.386,0,1,0,1.96,1.96Z" transform="translate(-16 -21.609)" fill="#fff"/>
      <path id="Trazado_913496" data-name="Trazado 913496" d="M24.366,24.517a.574.574,0,0,1,.812,0,1.386,1.386,0,1,0,1.96-1.96,3.427,3.427,0,0,0-4.733,0,1.386,1.386,0,1,0,1.96,1.96Z" transform="translate(-13.682 -21.609)" fill="#fff"/>
      <path id="Trazado_913497" data-name="Trazado 913497" d="M18.5,26.318a1.386,1.386,0,0,0-.184,1.953,4.852,4.852,0,0,0,7.683,0A1.387,1.387,0,1,0,23.863,26.5a2.124,2.124,0,0,1-3.407,0,1.386,1.386,0,0,0-1.953-.184Z" transform="translate(-15.228 -19.913)" fill="#fff"/>
    </g>
    <path id="Trazado_913498" data-name="Trazado 913498" d="M21.139,43.406a1.386,1.386,0,0,0-1.96,0,.574.574,0,0,1-.812,0,1.386,1.386,0,1,0-1.96,1.96,3.346,3.346,0,0,0,4.733,0A1.386,1.386,0,0,0,21.139,43.406Z" transform="translate(3.09 16.223)" fill="#822942"/>
    <path id="Trazado_913499" data-name="Trazado 913499" d="M25.179,43.406a.574.574,0,0,1-.812,0,1.386,1.386,0,1,0-1.96,1.96,3.346,3.346,0,0,0,4.733,0,1.386,1.386,0,1,0-1.96-1.96Z" transform="translate(5.408 16.223)" fill="#822942"/>
    <path id="Trazado_913500" data-name="Trazado 913500" d="M22.159,47a4.956,4.956,0,0,0-3.841,1.888,1.387,1.387,0,1,0,2.138,1.769,2.124,2.124,0,0,1,3.407,0A1.387,1.387,0,0,0,26,48.888,4.956,4.956,0,0,0,22.159,47Z" transform="translate(3.862 17.768)" fill="#822942"/>
  </g>
</svg>
