<svg id="Grupo_1103029" data-name="Grupo 1103029" xmlns="http://www.w3.org/2000/svg" width="90.399" height="90.4" viewBox="0 0 90.399 90.4">
  <g id="Grupo_1103006" data-name="Grupo 1103006" transform="translate(0 0)">
    <path id="Trazado_913125" data-name="Trazado 913125" d="M117.032,0H82.489L78.755,9.275l3.734,14.243h34.543a2.94,2.94,0,0,0,2.94-2.94V2.94A2.94,2.94,0,0,0,117.032,0Z" transform="translate(-64.85 0)" fill="#eaf6ff"/>
    <path id="Trazado_913126" data-name="Trazado 913126" d="M273.265,0h-4.777a2.94,2.94,0,0,1,2.94,2.94V20.579a2.94,2.94,0,0,1-2.94,2.94h4.777a2.94,2.94,0,0,0,2.94-2.94V2.94A2.94,2.94,0,0,0,273.265,0Z" transform="translate(-221.083 0)" fill="#d8ecfe"/>
    <path id="Trazado_913127" data-name="Trazado 913127" d="M2.94,23.519h14.7V0H2.94A2.94,2.94,0,0,0,0,2.94V20.579a2.94,2.94,0,0,0,2.94,2.94Z" transform="translate(0 0)" fill="#ee4f47"/>
  </g>
  <g id="Grupo_1103007" data-name="Grupo 1103007" transform="translate(21.396 29.426)">
    <path id="Trazado_913128" data-name="Trazado 913128" d="M239.5,166.66H204.956L201.5,177.095l3.458,13.084H239.5a2.94,2.94,0,0,0,2.94-2.94V169.6A2.94,2.94,0,0,0,239.5,166.66Z" transform="translate(-187.318 -166.66)" fill="#eaf6ff"/>
    <path id="Trazado_913129" data-name="Trazado 913129" d="M394.448,166.66h-4.777a2.94,2.94,0,0,1,2.94,2.94v17.639a2.94,2.94,0,0,1-2.94,2.94h4.777a2.94,2.94,0,0,0,2.94-2.94V169.6A2.94,2.94,0,0,0,394.448,166.66Z" transform="translate(-342.267 -166.66)" fill="#d8ecfe"/>
    <path id="Trazado_913130" data-name="Trazado 913130" d="M124.124,190.178h14.7V166.66h-14.7a2.94,2.94,0,0,0-2.94,2.94v17.639A2.94,2.94,0,0,0,124.124,190.178Z" transform="translate(-121.184 -166.66)" fill="#4045ab"/>
  </g>
  <path id="Trazado_913131" data-name="Trazado 913131" d="M115.752,333.164H81.209L77.2,344.877l4.008,11.805h34.543a2.94,2.94,0,0,0,2.94-2.94V336.1A2.94,2.94,0,0,0,115.752,333.164Z" transform="translate(-63.57 -274.34)" fill="#eaf6ff"/>
  <path id="Trazado_913132" data-name="Trazado 913132" d="M273.265,333.164h-4.777a2.94,2.94,0,0,1,2.94,2.94v17.639a2.94,2.94,0,0,1-2.94,2.94h4.777a2.94,2.94,0,0,0,2.94-2.94l1.384-3.292-1.384-3.016V336.1A2.94,2.94,0,0,0,273.265,333.164Z" transform="translate(-221.083 -274.34)" fill="#d8ecfe"/>
  <path id="Trazado_913133" data-name="Trazado 913133" d="M2.94,356.682h14.7V333.164H2.94A2.94,2.94,0,0,0,0,336.1v17.639a2.94,2.94,0,0,0,2.94,2.94Z" transform="translate(0 -274.34)" fill="#ffbd45"/>
  <g id="Grupo_1103009" data-name="Grupo 1103009" transform="translate(5.687 4.51)">
    <g id="Grupo_1103008" data-name="Grupo 1103008">
      <path id="Trazado_913134" data-name="Trazado 913134" d="M36.05,39.949a1.324,1.324,0,0,1-1.324-1.324V28.189H33.536a1.324,1.324,0,1,1,0-2.648H36.05a1.324,1.324,0,0,1,1.324,1.324V38.625a1.324,1.324,0,0,1-1.324,1.324Z" transform="translate(-32.212 -25.541)" fill="#eaf6ff"/>
    </g>
  </g>
  <g id="Grupo_1103013" data-name="Grupo 1103013" transform="translate(22.194 4.555)">
    <g id="Grupo_1103010" data-name="Grupo 1103010" transform="translate(0 5.88)">
      <path id="Trazado_913135" data-name="Trazado 913135" d="M152.751,61.75H127.027a1.324,1.324,0,0,1,0-2.648h25.723a1.324,1.324,0,0,1,0,2.648Z" transform="translate(-125.703 -59.102)" fill="#62dbfb"/>
    </g>
    <g id="Grupo_1103011" data-name="Grupo 1103011">
      <path id="Trazado_913136" data-name="Trazado 913136" d="M152.751,28.449H127.027a1.324,1.324,0,1,1,0-2.648h25.723a1.324,1.324,0,0,1,0,2.648Z" transform="translate(-125.703 -25.801)" fill="#62dbfb"/>
    </g>
    <g id="Grupo_1103012" data-name="Grupo 1103012" transform="translate(0 11.759)">
      <path id="Trazado_913137" data-name="Trazado 913137" d="M147.239,95.05H127.027a1.324,1.324,0,1,1,0-2.648h20.211a1.324,1.324,0,0,1,0,2.648Z" transform="translate(-125.703 -92.402)" fill="#62dbfb"/>
    </g>
  </g>
  <g id="Grupo_1103015" data-name="Grupo 1103015" transform="translate(25.736 34.017)">
    <g id="Grupo_1103014" data-name="Grupo 1103014">
      <path id="Trazado_913138" data-name="Trazado 913138" d="M153.4,207h-5.855a1.324,1.324,0,0,1-1.064-2.113c.018-.024.507-.691,4.061-5.768.775-1.157,1.047-1.615,1.047-2.19a1.616,1.616,0,0,0-3.2-.314,1.324,1.324,0,0,1-2.6-.51,4.264,4.264,0,0,1,8.448.825,6.37,6.37,0,0,1-1.5,3.676l-.015.022c-1.169,1.671-2.01,2.869-2.613,3.725H153.4a1.324,1.324,0,1,1,0,2.648Z" transform="translate(-145.761 -192.666)" fill="#eaf6ff"/>
    </g>
  </g>
  <g id="Grupo_1103019" data-name="Grupo 1103019" transform="translate(43.591 33.981)">
    <g id="Grupo_1103016" data-name="Grupo 1103016" transform="translate(0 5.88)">
      <path id="Trazado_913139" data-name="Trazado 913139" d="M269,228.409h-20.79a1.324,1.324,0,1,1,0-2.648H269a1.324,1.324,0,0,1,0,2.648Z" transform="translate(-246.887 -225.761)" fill="#62dbfb"/>
    </g>
    <g id="Grupo_1103017" data-name="Grupo 1103017" transform="translate(0)">
      <path id="Trazado_913140" data-name="Trazado 913140" d="M273.935,195.108H248.211a1.324,1.324,0,0,1,0-2.648h25.723a1.324,1.324,0,1,1,0,2.648Z" transform="translate(-246.887 -192.46)" fill="#62dbfb"/>
    </g>
    <g id="Grupo_1103018" data-name="Grupo 1103018" transform="translate(0 11.759)">
      <path id="Trazado_913141" data-name="Trazado 913141" d="M265.473,261.71H248.211a1.324,1.324,0,1,1,0-2.648h17.262a1.324,1.324,0,1,1,0,2.648Z" transform="translate(-246.887 -259.062)" fill="#62dbfb"/>
    </g>
  </g>
  <g id="Grupo_1103021" data-name="Grupo 1103021" transform="translate(4.555 63.334)">
    <g id="Grupo_1103020" data-name="Grupo 1103020">
      <path id="Trazado_913142" data-name="Trazado 913142" d="M30.065,373.113a4.26,4.26,0,0,1-4.264-4.264,1.324,1.324,0,1,1,2.648,0,1.668,1.668,0,0,0,.016.227,1.616,1.616,0,1,0,1.6-1.842,1.324,1.324,0,0,1,0-2.648,1.616,1.616,0,1,0-1.585-1.93,1.324,1.324,0,1,1-2.6-.51,4.264,4.264,0,1,1,7.27,3.765,4.262,4.262,0,0,1-3.086,7.2Z" transform="translate(-25.801 -358.706)" fill="#eaf6ff"/>
    </g>
  </g>
  <g id="Grupo_1103025" data-name="Grupo 1103025" transform="translate(22.194 63.379)">
    <g id="Grupo_1103022" data-name="Grupo 1103022" transform="translate(0 5.88)">
      <path id="Trazado_913143" data-name="Trazado 913143" d="M152.751,394.914H127.027a1.324,1.324,0,0,1,0-2.648h25.723a1.324,1.324,0,0,1,0,2.648Z" transform="translate(-125.703 -392.266)" fill="#62dbfb"/>
    </g>
    <g id="Grupo_1103023" data-name="Grupo 1103023">
      <path id="Trazado_913144" data-name="Trazado 913144" d="M152.751,361.613H127.027a1.324,1.324,0,0,1,0-2.648h25.723a1.324,1.324,0,0,1,0,2.648Z" transform="translate(-125.703 -358.965)" fill="#62dbfb"/>
    </g>
    <g id="Grupo_1103024" data-name="Grupo 1103024" transform="translate(0 11.759)">
      <path id="Trazado_913145" data-name="Trazado 913145" d="M147.239,428.214H127.027a1.324,1.324,0,1,1,0-2.648h20.211a1.324,1.324,0,1,1,0,2.648Z" transform="translate(-125.703 -425.566)" fill="#62dbfb"/>
    </g>
  </g>
  <g id="Grupo_1103028" data-name="Grupo 1103028" transform="translate(55.122 41.185)">
    <g id="Grupo_1103026" data-name="Grupo 1103026" transform="translate(0 0.259)">
      <path id="Trazado_913146" data-name="Trazado 913146" d="M344.074,255.11a3.528,3.528,0,0,0-3.656,3.526v-2.208a3.583,3.583,0,0,0-3.4-3.61,3.528,3.528,0,0,0-3.656,3.526v-1.679a3.583,3.583,0,0,0-3.4-3.61,3.528,3.528,0,0,0-3.656,3.526v-6.117l-1.268-1.616v-9.719l-2.56-2.4h-1.024a3.527,3.527,0,0,0-2.2,3.268v21.239l-3.822,1.911a5.85,5.85,0,0,0-3.234,5.232v9.28a5.879,5.879,0,0,0,1.722,4.158l3.247,3.247a2.119,2.119,0,0,0,1.5.621h26.692a2.119,2.119,0,0,0,2.119-2.119V258.721A3.583,3.583,0,0,0,344.074,255.11Z" transform="translate(-312.196 -234.73)" fill="#fed2a4"/>
      <path id="Trazado_913147" data-name="Trazado 913147" d="M480.474,350.225a3.5,3.5,0,0,0-1.823.1,3.661,3.661,0,0,1,.573,1.967v24.316a2.119,2.119,0,0,1-2.119,2.119h4.042a2.119,2.119,0,0,0,2.119-2.119V353.763A3.593,3.593,0,0,0,480.474,350.225Z" transform="translate(-447.988 -329.769)" fill="#ffbd86"/>
    </g>
    <g id="Grupo_1103027" data-name="Grupo 1103027" transform="translate(2.941)">
      <path id="Trazado_913148" data-name="Trazado 913148" d="M332.579,377.12a1.324,1.324,0,0,0,.388-.936v-8.83a1.766,1.766,0,0,1-.976,1.579l-1.672.836v5.866l-1.078,1.078a1.324,1.324,0,1,0,1.873,1.873Z" transform="translate(-328.852 -343.678)" fill="#ffbd86"/>
      <path id="Trazado_913149" data-name="Trazado 913149" d="M364.637,233.521a3.527,3.527,0,0,1,2.2,3.269v21.97a1.324,1.324,0,1,0,2.648,0V236.79a3.525,3.525,0,0,0-4.852-3.269Z" transform="translate(-358.319 -233.262)" fill="#ffbd86"/>
      <path id="Trazado_913150" data-name="Trazado 913150" d="M406,327.172a3.518,3.518,0,0,0-1.463.261,3.629,3.629,0,0,1,2.214,3.349v5.3a1.324,1.324,0,1,0,2.648,0v-5.3A3.583,3.583,0,0,0,406,327.172Z" transform="translate(-391.176 -310.59)" fill="#ffbd86"/>
      <path id="Trazado_913151" data-name="Trazado 913151" d="M445.964,337.162a3.519,3.519,0,0,0-1.463.261,3.629,3.629,0,0,1,2.214,3.349v3.541a1.324,1.324,0,1,0,2.648,0v-3.541a3.583,3.583,0,0,0-3.4-3.61Z" transform="translate(-424.082 -318.816)" fill="#ffbd86"/>
    </g>
  </g>
</svg>
