<svg xmlns="http://www.w3.org/2000/svg" xmlns:xlink="http://www.w3.org/1999/xlink" width="610" height="565" viewBox="0 0 610 565">
  <defs>
    <clipPath id="clip-path">
      <rect id="Rectángulo_404178" data-name="Rectángulo 404178" width="596.442" height="420.17" fill="none"/>
    </clipPath>
    <clipPath id="clip-path-2">
      <rect id="Rectángulo_404171" data-name="Rectángulo 404171" width="596.442" height="348.792" fill="none"/>
    </clipPath>
    <clipPath id="clip-path-3">
      <rect id="Rectángulo_404170" data-name="Rectángulo 404170" width="239.376" height="272.978" fill="#4045ab"/>
    </clipPath>
    <clipPath id="clip-path-4">
      <path id="Trazado_912928" data-name="Trazado 912928" d="M430.676,208.547c-19.623,24.495,23.309,114.324,30.1,133.617,4.277,12.148,20.751,8.42,37.924,4.693,14.337-3.111,29.161-6.224,37.78-.1,40.809,35.237,99.044,57.646,145.87,15.2,48.178-43.67,30.391-162.233-18.6-208.44-11.895-11.219-31.343-15.963-54.191-15.963-62.5,0-150.45,35.49-178.888,70.99" transform="translate(-425.582 -137.557)" fill="none"/>
    </clipPath>
    <clipPath id="clip-path-5">
      <rect id="Rectángulo_404172" data-name="Rectángulo 404172" width="152.679" height="152.289" fill="#fff"/>
    </clipPath>
    <clipPath id="clip-path-6">
      <path id="Trazado_912908" data-name="Trazado 912908" d="M599.679,304.443s4.054-12.36,6.27-16.682c8.631-16.838,17.868-19.1,31.231-18.771,5.187.129,14.095,41.406,14.095,41.406s20.961-40.754,29.354-41.406c14.746-1.146,36.245-.612,44.174,23.213L740,339.393,693.286,341.3l13.105,79.634s-87.718.834-97.823-12.168l7.306-65.11Z" transform="translate(-599.679 -268.656)" fill="#fff"/>
    </clipPath>
    <clipPath id="clip-path-7">
      <rect id="Rectángulo_404173" data-name="Rectángulo 404173" width="13.024" height="9.285" fill="none"/>
    </clipPath>
    <clipPath id="clip-path-9">
      <rect id="Rectángulo_404174" data-name="Rectángulo 404174" width="288.443" height="218.026" fill="#ffbd45"/>
    </clipPath>
    <clipPath id="clip-path-10">
      <path id="Trazado_912989" data-name="Trazado 912989" d="M108.981,0C95.4.024,82.354,3.016,70.632,9.623,37.664,28.2,19.683,92.548,7.495,116.645c-9.314,18.412-12.3,53.925,5,81.255,34.24,54.088,113.106,57.933,163.941,22.085,56.045-39.521,89.114-111.431,44.665-162C191.635,24.46,148.251.05,109.278,0Z" transform="translate(0)" fill="none"/>
    </clipPath>
    <clipPath id="clip-path-11">
      <rect id="Rectángulo_404176" data-name="Rectángulo 404176" width="14.05" height="5.492" fill="none"/>
    </clipPath>
    <clipPath id="clip-path-12">
      <rect id="Rectángulo_404177" data-name="Rectángulo 404177" width="596.442" height="391.814" fill="none"/>
    </clipPath>
  </defs>
  <g id="Grupo_1103346" data-name="Grupo 1103346" transform="translate(-495.051 -656)">
    <path id="Trazado_914086" data-name="Trazado 914086" d="M10,0H600a10,10,0,0,1,10,10V555a10,10,0,0,1-10,10H10A10,10,0,0,1,0,555V10A10,10,0,0,1,10,0Z" transform="translate(495.051 656)" fill="#ffebc7" opacity="0.3"/>
    <g id="Grupo_1102814" data-name="Grupo 1102814" transform="translate(503.558 740.867)">
      <g id="Enmascarar_grupo_1102813" data-name="Enmascarar grupo 1102813" transform="translate(0 0)" clip-path="url(#clip-path)">
        <g id="Grupo_1102790" data-name="Grupo 1102790" transform="translate(0 71.378)">
          <g id="Grupo_1102789" data-name="Grupo 1102789" clip-path="url(#clip-path-2)">
            <g id="Grupo_1102788" data-name="Grupo 1102788" transform="translate(328.751 61.471)" opacity="0.1">
              <g id="Grupo_1102787" data-name="Grupo 1102787">
                <g id="Grupo_1102786" data-name="Grupo 1102786" clip-path="url(#clip-path-3)">
                  <path id="Trazado_912873" data-name="Trazado 912873" d="M688,214.332c-46.779-51.464-126.477-59.719-167.359-.193-20.659,30.078-21.914,73.321-14.763,97.012,22.249,73.7,129.169,188.429,207.583,105.524,50.719-53.624,26.112-145.6-25.461-202.342" transform="translate(-501.926 -172.555)" fill="#4045ab"/>
                </g>
              </g>
            </g>
          </g>
        </g>
        <g id="Grupo_1102800" data-name="Grupo 1102800" transform="translate(311.283 171.991)">
          <g id="Grupo_1102799" data-name="Grupo 1102799" clip-path="url(#clip-path-4)">
            <path id="Trazado_912874" data-name="Trazado 912874" d="M677.318,159.682s17.942-.9,23.938,11.578c5.089,10.595.293,16.172,2.424,21.875s8.961,7.158,6.026,15.237,7.931,7.73,6.878,16.355-6.762,9.052-.139,13.694,11.877,18.725,3.9,23.879c-11.433,7.387-39.442-15.593-59.388-9.469S620.413,251,622.7,243.11s15.009-10.189,11.268-17.045-5.893-15.656.279-22.148,3.662-6.067,3.766-14.3c.064-5.064,4.059-11.135,5.93-16.623,2.246-6.586,3.031-9.3,11.346-12.967,13.293-5.867,22.031-.344,22.031-.344" transform="translate(-478.475 -142.866)" fill="#442017"/>
            <path id="Trazado_912875" data-name="Trazado 912875" d="M699.711,158.822s1.365-15.532,18.794-9.373,15.979,27.192-3.374,27.117-15.42-17.744-15.42-17.744" transform="translate(-499.117 -140.363)" fill="#442017"/>
            <path id="Trazado_912876" data-name="Trazado 912876" d="M723.6,178.837a.883.883,0,0,0,.274,0,.635.635,0,0,0,.582-.772,26.411,26.411,0,0,0-25.419-18.45.673.673,0,0,0-.744.657.787.787,0,0,0,.807.688c19.166.39,23.66,16.631,23.842,17.322a.8.8,0,0,0,.657.552" transform="translate(-498.825 -143.482)" fill="#fcf9ed"/>
            <path id="Trazado_912877" data-name="Trazado 912877" d="M697.689,178.361s1.4,13.625,4.649,16.925,7.635-2.368,7.635-2.368-3.767-21.183-12.284-14.556" transform="translate(-498.662 -148.171)" fill="#442017"/>
            <path id="Trazado_912878" data-name="Trazado 912878" d="M675.657,173.882s5.2,12.034,14.934,11.37,5.035-9.577,5.035-9.577-15.8-10.428-19.969-1.793" transform="translate(-492.745 -146.394)" fill="#442017"/>
            <path id="Trazado_912879" data-name="Trazado 912879" d="M672.511,172.789s-7.3,12.841-15.877,8.7,6.84-15.2,12.773-13.455,3.1,4.759,3.1,4.759" transform="translate(-486.954 -145.691)" fill="#442017"/>
            <path id="Trazado_912880" data-name="Trazado 912880" d="M700.73,193.23s1.218,2.618-.606,10.791-3.169,10.032-3.169,10.032,6.538-5.636,7.55-17.272c1.493-17.152-3.775-3.551-3.775-3.551" transform="translate(-498.465 -151.135)" fill="#442017"/>
            <path id="Trazado_912881" data-name="Trazado 912881" d="M599.679,304.565l5.148-13.709a33.533,33.533,0,0,1,31.392-21.744H692.9a33.532,33.532,0,0,1,32.764,26.394l10.08,46.27-37.7,26.732,8.2,52.11S615,417.3,608.567,408.89l7.306-62.184Z" transform="translate(-472.34 -172.889)" fill="#c1725c"/>
            <path id="Trazado_912882" data-name="Trazado 912882" d="M571.369,311.458,551.69,333.845l-39.839-39.069L494.269,306.24s21.388,47.794,31.672,59.787,28.8,24.889,44.529,9.78l20.078-24.512Z" transform="translate(-444.03 -179.781)" fill="#b76856"/>
            <path id="Trazado_912883" data-name="Trazado 912883" d="M578.365,358.631a.666.666,0,0,0,.339-.092.674.674,0,0,0,.241-.921l-6.6-11.265a.673.673,0,1,0-1.162.679l6.6,11.266a.672.672,0,0,0,.581.333" transform="translate(-464.663 -193.544)" fill="#7d351d"/>
            <path id="Trazado_912884" data-name="Trazado 912884" d="M599.679,304.443s4.054-12.36,6.269-16.682c8.632-16.839,17.868-19.1,31.231-18.771,5.188.129,14.1,41.406,14.1,41.406s20.961-40.753,29.353-41.406c14.746-1.146,36.246-.613,44.175,23.213L740,339.394,693.285,341.3l13.105,79.635s-87.718.833-97.824-12.168l7.306-65.11Z" transform="translate(-472.34 -172.767)" fill="#4045ab"/>
            <path id="Trazado_912885" data-name="Trazado 912885" d="M699.632,199.1l-2.914-.731L691.873,204a2.733,2.733,0,0,1-4.787-2.09l1.531-13.558a2.779,2.779,0,0,0-4.514-2.47l-3.741,3.038-3.432-.867a9.494,9.494,0,0,1-7.16-8.761l-.1-2.071a9.493,9.493,0,0,1-11.884,5.089l-.1-.035-9.359,23.021a19.541,19.541,0,0,0,7.386,24l-1.081,11.187a16.255,16.255,0,0,0,14.827,17.471l.374.036c9,.87,5.229.735,6.074-8.006l9.542.132,5.134-33.562,4.386,1.1a9.49,9.49,0,0,0,11.476-6.87l.051-.2a9.481,9.481,0,0,0-6.87-11.476" transform="translate(-485.002 -148.208)" fill="#c1725c"/>
            <path id="Trazado_912886" data-name="Trazado 912886" d="M655.663,201.928a1.832,1.832,0,1,0,2.39-1,1.831,1.831,0,0,0-2.39,1" transform="translate(-487.338 -154.54)" fill="#111"/>
            <path id="Trazado_912887" data-name="Trazado 912887" d="M675.36,206.8a2,2,0,1,0,2.257-1.714,2,2,0,0,0-2.257,1.714" transform="translate(-492.66 -155.69)" fill="#111"/>
            <path id="Trazado_912888" data-name="Trazado 912888" d="M662.938,237.594a.38.38,0,0,0,.254.033,3.245,3.245,0,0,1,3.381,1.4.382.382,0,0,0,.652-.4,4.076,4.076,0,0,0-4.2-1.749.382.382,0,0,0-.089.712" transform="translate(-489.273 -164.214)" fill="#7d351d"/>
            <path id="Trazado_912889" data-name="Trazado 912889" d="M686.295,197.91a5.835,5.835,0,0,1-2.317-.7c-.785-.357-1.581-.7-2.284-.966s-1.524-.554-2.345-.816a5.807,5.807,0,0,1-2.186-1.031c-.505-.488-.47-1.314.592-1.939a6.678,6.678,0,0,1,5.465,0,6.481,6.481,0,0,1,3.994,3.644c.34,1.164-.208,1.793-.919,1.813" transform="translate(-493.065 -152.147)" fill="#442017"/>
            <path id="Trazado_912890" data-name="Trazado 912890" d="M655.1,190.675a3.537,3.537,0,0,0,1.659.2c.595-.018,1.192-.019,1.711,0s1.116.066,1.708.128a3.53,3.53,0,0,0,1.667-.075c.455-.2.663-.808.167-1.586a4.322,4.322,0,0,0-3.449-1.678,4.238,4.238,0,0,0-3.536,1.415c-.539.739-.368,1.363.075,1.6" transform="translate(-487.113 -151.014)" fill="#381812"/>
            <path id="Trazado_912891" data-name="Trazado 912891" d="M678.96,210.884a2.855,2.855,0,0,0-3.5-.5" transform="translate(-492.693 -157.009)" fill="#c1725c"/>
            <path id="Trazado_912892" data-name="Trazado 912892" d="M675.054,210.819a.7.7,0,0,1-.2-1.3,3.535,3.535,0,0,1,4.367.638.705.705,0,0,1-1.043.95,2.12,2.12,0,0,0-2.632-.359.7.7,0,0,1-.494.075" transform="translate(-492.433 -156.751)" fill="#7d351d"/>
            <path id="Trazado_912893" data-name="Trazado 912893" d="M658.2,205.45a1.608,1.608,0,0,0-2.094-.141" transform="translate(-487.494 -155.665)" fill="#c1725c"/>
            <path id="Trazado_912894" data-name="Trazado 912894" d="M655.7,205.738a.705.705,0,0,1-.257-1.268,2.291,2.291,0,0,1,3,.229.7.7,0,0,1-1.007.987.883.883,0,0,0-1.189-.059.707.707,0,0,1-.552.111" transform="translate(-487.235 -155.405)" fill="#7d351d"/>
            <path id="Trazado_912895" data-name="Trazado 912895" d="M673.574,219.714a1.637,1.637,0,0,0-2-.23,11.19,11.19,0,0,1-6.791,1.484,1.162,1.162,0,0,0-1.169,1.461c.388,1.657,2.341,6.7,6.7,5.693,5.31-1.23,4.623-7.012,3.261-8.409" transform="translate(-489.502 -159.497)" fill="#fff"/>
            <path id="Trazado_912896" data-name="Trazado 912896" d="M665.934,199.863l-2.263,7.155-1.867-.278a1.5,1.5,0,0,0-1.921.9l-.468,1.3a2.066,2.066,0,0,0,1.22,2.638l3.218,1.2" transform="translate(-488.35 -154.291)" fill="#c1725c"/>
            <path id="Trazado_912897" data-name="Trazado 912897" d="M663.448,213.213a.83.83,0,0,1-.1-.029l-3.219-1.2a2.783,2.783,0,0,1-1.635-3.538l.468-1.3a2.208,2.208,0,0,1,2.824-1.327l1.135.159L665,199.391a.706.706,0,0,1,1.346.426l-2.445,7.728-2.462-.366a.964.964,0,0,0-.744-.006.792.792,0,0,0-.41.451l-.468,1.3a1.369,1.369,0,0,0,.8,1.739l3.219,1.2a.705.705,0,0,1-.393,1.35" transform="translate(-488.092 -154.032)" fill="#7d351d"/>
            <path id="Trazado_912898" data-name="Trazado 912898" d="M715.051,221.983a.712.712,0,0,1-.353-.192l-2.6-2.613a.705.705,0,0,1,.086-1.068l3.993-2.9a.705.705,0,0,1,.829,1.141l-3.327,2.414L715.7,220.8a.706.706,0,0,1-.649,1.187" transform="translate(-502.478 -158.377)" fill="#7d351d"/>
            <path id="Trazado_912899" data-name="Trazado 912899" d="M658.6,247.5s16.588,4.9,21.3-.8h0s-1.927,10.8-22.249,10.568Z" transform="translate(-487.912 -166.191)" fill="#7d351d"/>
            <path id="Trazado_912900" data-name="Trazado 912900" d="M712.5,235.238a4.271,4.271,0,1,1,.259.047c-.086-.012-.173-.029-.259-.047" transform="translate(-501.738 -161.533)" fill="#467b6c"/>
            <path id="Trazado_912901" data-name="Trazado 912901" d="M689.043,218.988c-.25,1.17-2.035,1.779-3.985,1.361s-3.329-1.7-3.079-2.874,2.035-1.779,3.985-1.36,3.329,1.7,3.078,2.873" transform="translate(-494.435 -158.62)" fill="#7d351d"/>
            <g id="Grupo_1102795" data-name="Grupo 1102795" transform="translate(119.186 95.89)" opacity="0.2">
              <g id="Grupo_1102794" data-name="Grupo 1102794" style="isolation: isolate">
                <g id="Grupo_1102793" data-name="Grupo 1102793" clip-path="url(#clip-path-5)">
                  <g id="Grupo_1102792" data-name="Grupo 1102792" transform="translate(8.153 0)">
                    <g id="Grupo_1102791" data-name="Grupo 1102791" clip-path="url(#clip-path-6)">
                      <path id="Trazado_912902" data-name="Trazado 912902" d="M736.691,285.558H593.052a4.52,4.52,0,0,1,0-9.04H736.691a4.52,4.52,0,0,1,0,9.04" transform="translate(-596.685 -270.767)" fill="#fff"/>
                      <path id="Trazado_912903" data-name="Trazado 912903" d="M736.691,321.218H593.052a4.52,4.52,0,0,1,0-9.04H736.691a4.52,4.52,0,0,1,0,9.04" transform="translate(-596.685 -280.345)" fill="#fff"/>
                      <path id="Trazado_912904" data-name="Trazado 912904" d="M736.691,356.879H593.052a4.52,4.52,0,0,1,0-9.04H736.691a4.52,4.52,0,0,1,0,9.04" transform="translate(-596.685 -289.922)" fill="#fff"/>
                      <path id="Trazado_912905" data-name="Trazado 912905" d="M736.691,392.538H593.052a4.52,4.52,0,0,1,0-9.04H736.691a4.52,4.52,0,0,1,0,9.04" transform="translate(-596.685 -299.499)" fill="#fff"/>
                      <path id="Trazado_912906" data-name="Trazado 912906" d="M736.691,428.2H593.052a4.52,4.52,0,0,1,0-9.04H736.691a4.52,4.52,0,0,1,0,9.04" transform="translate(-596.685 -309.076)" fill="#fff"/>
                      <path id="Trazado_912907" data-name="Trazado 912907" d="M736.691,463.858H593.052a4.52,4.52,0,1,1,0-9.04H736.691a4.52,4.52,0,1,1,0,9.04" transform="translate(-596.685 -318.653)" fill="#fff"/>
                    </g>
                  </g>
                </g>
              </g>
            </g>
            <path id="Trazado_912909" data-name="Trazado 912909" d="M622.583,365.683a.6.6,0,0,1-.554-.361l-3.639-8.291a25.758,25.758,0,0,1-.5-19.6l4.354-11.481a.605.605,0,0,1,1.132.429l-4.354,11.481a24.551,24.551,0,0,0,.478,18.679l3.64,8.291a.607.607,0,0,1-.311.8.621.621,0,0,1-.244.05" transform="translate(-476.775 -188.05)" fill="#322380"/>
            <path id="Trazado_912910" data-name="Trazado 912910" d="M603.229,355.8c-1.88.05-3.5.662-3.7,2.894-.816,3.947,2.646,5.476,5.91,5.8-3.167.614-1.46,5.767,2.495,7.248l21.033,9.122a10.707,10.707,0,0,0,4.881.665L705.4,409.758a25.657,25.657,0,0,0,34.567-26.889l-5.046-25.46-42.14,1.239,2.3,11.895-50.506-15.971a38.688,38.688,0,0,0-3.289-4.768s-12.037-12.251-16.859-15.591a5.546,5.546,0,0,0-1.66-.876,2.034,2.034,0,0,0-1.795.283,2.7,2.7,0,0,0-.724,2.252,21.277,21.277,0,0,0,2.045,7.294c-2.1-.7-4.348-1.463-6.792-2.329-5.284-1.456-13.7-4.927-15.2,2.1-.313,2.482,1.394,3.561,3.4,4.051-2.951-.14-5.9.5-5.848,4.182-.427,3.327,2.406,4.264,5.382,4.639m3.513.3c.488.042.936.089,1.322.157-.39-.031-.839-.09-1.322-.157" transform="translate(-471.836 -190.114)" fill="#c1725c"/>
            <path id="Trazado_912911" data-name="Trazado 912911" d="M726.189,367a.644.644,0,0,0,.128-.012.673.673,0,0,0,.533-.788l-2.2-11.406-5.487.044h-.018a1.949,1.949,0,0,1-1.954-1.865l-1.451-30.9a.665.665,0,0,0-.7-.641.674.674,0,0,0-.641.7l1.451,30.9a3.27,3.27,0,0,0,3.327,3.149l4.367-.035,1.989,10.306a.672.672,0,0,0,.66.546" transform="translate(-503.149 -186.94)" fill="#322380"/>
            <g id="Grupo_1102798" data-name="Grupo 1102798" transform="translate(148.873 148.691)" opacity="0.5">
              <g id="Grupo_1102797" data-name="Grupo 1102797">
                <g id="Grupo_1102796" data-name="Grupo 1102796" clip-path="url(#clip-path-7)">
                  <path id="Trazado_912912" data-name="Trazado 912912" d="M630.7,345.205l11.445,4.926s-10.877-8.583-13.025-9.285Z" transform="translate(-629.12 -340.846)" fill="#af4e4a"/>
                </g>
              </g>
            </g>
            <path id="Trazado_912913" data-name="Trazado 912913" d="M612.228,354.529a.673.673,0,0,0,.218-1.311c-.718-.246-7.049-2.4-8.31-2.473a.662.662,0,0,0-.709.636.675.675,0,0,0,.637.709,75.629,75.629,0,0,1,7.946,2.4.673.673,0,0,0,.219.037" transform="translate(-473.346 -194.811)" fill="#7d351d"/>
            <path id="Trazado_912914" data-name="Trazado 912914" d="M735.572,386.52a.673.673,0,0,0,.214-1.311l-14.2-4.76a.673.673,0,1,0-.428,1.276l14.2,4.76a.656.656,0,0,0,.214.035" transform="translate(-504.842 -202.781)" fill="#7d351d"/>
            <path id="Trazado_912915" data-name="Trazado 912915" d="M610.557,366.451a.673.673,0,0,0,.207-1.314l-6.431-2.079a.673.673,0,1,0-.414,1.281l6.431,2.079a.657.657,0,0,0,.207.033" transform="translate(-473.353 -198.111)" fill="#7d351d"/>
            <path id="Trazado_912916" data-name="Trazado 912916" d="M611.489,377.446a.673.673,0,0,0,.192-1.318l-3.49-1.044a.673.673,0,1,0-.385,1.29l3.49,1.043a.674.674,0,0,0,.192.029" transform="translate(-474.394 -201.342)" fill="#7d351d"/>
            <path id="Trazado_912917" data-name="Trazado 912917" d="M504.6,280.685l11.3,12.223-7.642,4.8-6.194-5.431Z" transform="translate(-446.123 -175.997)" fill="#b76856"/>
            <path id="Trazado_912918" data-name="Trazado 912918" d="M500.017,296.06H468.65a1.907,1.907,0,0,1-1.906-1.907V237.682a1.907,1.907,0,0,1,1.907-1.907h31.366a1.907,1.907,0,0,1,1.907,1.907v56.471a1.907,1.907,0,0,1-1.907,1.907" transform="translate(-436.637 -163.936)" fill="#2b2b39"/>
            <path id="Trazado_912919" data-name="Trazado 912919" d="M500.527,241.294v51.3a1.56,1.56,0,0,1-1.351,1.707H471.111a1.56,1.56,0,0,1-1.351-1.707v-51.3a1.562,1.562,0,0,1,1.351-1.708h28.065a1.561,1.561,0,0,1,1.351,1.708" transform="translate(-437.447 -164.959)" fill="#5f5f75"/>
            <path id="Trazado_912920" data-name="Trazado 912920" d="M477.351,292.628h0a4.228,4.228,0,0,1-4.276,4.155l-13.24-.191a4.216,4.216,0,0,1,.122-8.43l13.239.191a4.227,4.227,0,0,1,4.155,4.276" transform="translate(-433.666 -178.005)" fill="#b76856"/>
            <path id="Trazado_912921" data-name="Trazado 912921" d="M477.327,281h0a4.228,4.228,0,0,1-4.276,4.155l-14.291-.206a4.216,4.216,0,0,1,.121-8.43l14.291.206A4.227,4.227,0,0,1,477.327,281" transform="translate(-433.377 -174.878)" fill="#b76856"/>
            <path id="Trazado_912922" data-name="Trazado 912922" d="M509.507,293.956h0a4.229,4.229,0,0,1-5.962-.064l-10-10.213a4.229,4.229,0,0,1,.063-5.962h0a4.228,4.228,0,0,1,5.961.064l10,10.213a4.229,4.229,0,0,1-.064,5.962" transform="translate(-443.514 -174.878)" fill="#b76856"/>
            <path id="Trazado_912923" data-name="Trazado 912923" d="M474.988,303.966h0a4.229,4.229,0,0,1-4.277,4.154l-8.6-.124a4.216,4.216,0,1,1,.121-8.431l8.6.124a4.228,4.228,0,0,1,4.155,4.276" transform="translate(-434.278 -181.068)" fill="#b76856"/>
            <path id="Trazado_912924" data-name="Trazado 912924" d="M476.32,314.96h0a4.229,4.229,0,0,1-4.276,4.155l-4.234-.061a4.216,4.216,0,0,1,.121-8.43l4.234.061a4.227,4.227,0,0,1,4.155,4.276" transform="translate(-435.807 -184.037)" fill="#b76856"/>
            <path id="Trazado_912925" data-name="Trazado 912925" d="M460.249,288.244c0-.018,0-.035,0-.054a.753.753,0,0,1,.757-.749l13.465.062a.738.738,0,0,1,.749.757.752.752,0,0,1-.756.749L461,288.947a.752.752,0,0,1-.748-.7" transform="translate(-434.893 -177.812)" fill="#7d351d"/>
            <path id="Trazado_912926" data-name="Trazado 912926" d="M460.321,300.282c0-.019,0-.038,0-.059a.752.752,0,0,1,.761-.745l12.367.133a.753.753,0,0,1-.016,1.507l-12.367-.133a.754.754,0,0,1-.744-.7" transform="translate(-434.912 -181.045)" fill="#7d351d"/>
            <path id="Trazado_912927" data-name="Trazado 912927" d="M463.153,311.311c0-.012,0-.025,0-.037a.755.755,0,0,1,.741-.767l9.717-.165a.754.754,0,0,1,.025,1.508l-9.717.165a.754.754,0,0,1-.764-.7" transform="translate(-435.672 -183.962)" fill="#7d351d"/>
          </g>
        </g>
        <g id="Grupo_1102805" data-name="Grupo 1102805" transform="translate(0 71.378)">
          <g id="Grupo_1102804" data-name="Grupo 1102804" clip-path="url(#clip-path-2)">
            <path id="Trazado_912929" data-name="Trazado 912929" d="M557.029,220.763c2.572,2.474,4.676,1.578,4.676-1.99V207.266a6.508,6.508,0,0,1,6.489-6.489H603.68a6.508,6.508,0,0,0,6.489-6.488V148.807a6.508,6.508,0,0,0-6.489-6.488H480.132a6.507,6.507,0,0,0-6.488,6.488v45.482a6.507,6.507,0,0,0,6.488,6.488h49.63a18.6,18.6,0,0,1,11.165,4.5Z" transform="translate(-107.726 -142.32)" fill="#ca7441"/>
            <path id="Trazado_912930" data-name="Trazado 912930" d="M488.65,161.791H596.969a2.342,2.342,0,0,0,0-4.683H488.65a2.342,2.342,0,1,0,0,4.683" transform="translate(-108.629 -143.374)" fill="#fff"/>
            <path id="Trazado_912931" data-name="Trazado 912931" d="M488.65,174.366H596.969a2.342,2.342,0,0,0,0-4.683H488.65a2.342,2.342,0,1,0,0,4.683" transform="translate(-108.629 -144.27)" fill="#fff"/>
            <path id="Trazado_912932" data-name="Trazado 912932" d="M488.65,186.942h76.5a2.342,2.342,0,1,0,0-4.683h-76.5a2.342,2.342,0,1,0,0,4.683" transform="translate(-108.629 -145.167)" fill="#fff"/>
            <g id="Grupo_1102803" data-name="Grupo 1102803" transform="translate(0 25.347)" opacity="0.2">
              <g id="Grupo_1102802" data-name="Grupo 1102802">
                <g id="Grupo_1102801" data-name="Grupo 1102801" clip-path="url(#clip-path-9)">
                  <path id="Trazado_912933" data-name="Trazado 912933" d="M210.517,229.292c-60.654,35.847-154.754,32-195.607-22.085-20.643-27.331-17.08-62.843-5.967-81.256C43.518,68.665,181.814-10.9,263.809,67.29c53.035,50.571,13.578,122.481-53.292,162" transform="translate(0 -34.654)" fill="#ffbd45"/>
                </g>
              </g>
            </g>
          </g>
        </g>
        <g id="Grupo_1102810" data-name="Grupo 1102810" transform="translate(-9.778 71.378)">
          <g id="Grupo_1102809" data-name="Grupo 1102809" clip-path="url(#clip-path-10)">
            <path id="Trazado_912934" data-name="Trazado 912934" d="M203.2,180.326l19.223,21.868c20.02,51.213-5.4,56.8-18.345,40.988L184.47,219.239Z" transform="translate(-45.923 -29.616)" fill="#e69773"/>
            <path id="Trazado_912935" data-name="Trazado 912935" d="M228.055,226.034a.649.649,0,0,1-.331-.09.658.658,0,0,1-.236-.9l6.442-11a.658.658,0,0,1,1.135.664l-6.442,11a.658.658,0,0,1-.568.325" transform="translate(-57.452 -42.689)" fill="#af4e4a"/>
            <path id="Trazado_912939" data-name="Trazado 912939" d="M117.853,81.588A11.153,11.153,0,1,1,106.7,70.435a11.153,11.153,0,0,1,11.153,11.153" transform="translate(-25.661 -18.917)" fill="#12263f"/>
            <path id="Trazado_912940" data-name="Trazado 912940" d="M109.306,64.567A11.153,11.153,0,1,1,98.153,53.414a11.153,11.153,0,0,1,11.153,11.153" transform="translate(-23.366 -14.345)" fill="#12263f"/>
            <path id="Trazado_912941" data-name="Trazado 912941" d="M108.614,41.682A11.153,11.153,0,1,1,97.461,30.529a11.153,11.153,0,0,1,11.153,11.153" transform="translate(-23.18 -8.199)" fill="#12263f"/>
            <path id="Trazado_912942" data-name="Trazado 912942" d="M119.862,25.1a11.153,11.153,0,1,1-11.153-11.153A11.153,11.153,0,0,1,119.862,25.1" transform="translate(-26.201 -3.745)" fill="#12263f"/>
            <path id="Trazado_912943" data-name="Trazado 912943" d="M140.223,16.122A11.153,11.153,0,1,1,129.07,4.969a11.153,11.153,0,0,1,11.153,11.153" transform="translate(-31.669 -1.335)" fill="#12263f"/>
            <path id="Trazado_912944" data-name="Trazado 912944" d="M159.9,15.43A11.153,11.153,0,1,1,148.744,4.277,11.153,11.153,0,0,1,159.9,15.43" transform="translate(-36.953 -1.149)" fill="#12263f"/>
            <path id="Trazado_912945" data-name="Trazado 912945" d="M179.878,24.06a11.153,11.153,0,1,1-11.153-11.153A11.154,11.154,0,0,1,179.878,24.06" transform="translate(-42.319 -3.466)" fill="#12263f"/>
            <path id="Trazado_912946" data-name="Trazado 912946" d="M190.393,37.728A11.153,11.153,0,1,1,179.24,26.575a11.153,11.153,0,0,1,11.153,11.153" transform="translate(-45.143 -7.137)" fill="#12263f"/>
            <path id="Trazado_912947" data-name="Trazado 912947" d="M173.411,181.4,142,151.9a29.252,29.252,0,0,0-21.879-10.827l-48.3-1.419c-.49,0-.972.032-1.453.07l-.053-.074-9.051.173c-13.314.253-25.586,8.09-30.613,20.422a33.434,33.434,0,0,0-1.617,5.1l-8.376,37.838a4.345,4.345,0,0,0,4.1,5.282l24.335.779L43.62,279.365H152.686l-2.495-66.441L173.61,188.2a4.8,4.8,0,0,0-.2-6.8" transform="translate(-5.52 -37.506)" fill="#ee4f47"/>
            <path id="Trazado_912948" data-name="Trazado 912948" d="M150.618,53.867c-3.46-.383-6.644-6.314-6.644-6.314s-21.482-.9-22.252-3.849l-1.949,17.6-5.224-.579-4.585-.508a8.718,8.718,0,0,0-2.142.037,8.82,8.82,0,0,0-7.566,7.734l-.094.853a8.818,8.818,0,0,0,7.771,9.708l2.332.258L104.7,107.722a15.59,15.59,0,0,0,12.361,18.256l1.494.287A15.589,15.589,0,0,0,136.807,113.9l2.1-10.892a14.241,14.241,0,0,0,15.49-12.605l3.782-34.147c.088-.79.091-3.242.051-4.01-1.164.372-2.42,2.192-3.713,2.049Z" transform="translate(-26.886 -11.738)" fill="#e69773"/>
            <path id="Trazado_912949" data-name="Trazado 912949" d="M110.091,80.745a.657.657,0,0,1-.225-1.241l2.529-1.277-2.363-3.3a.657.657,0,0,1,1.069-.765l2.81,3.921a.658.658,0,0,1-.238.97l-3.215,1.623a.654.654,0,0,1-.368.067" transform="translate(-29.41 -19.844)" fill="#af4e4a"/>
            <path id="Trazado_912950" data-name="Trazado 912950" d="M155.755,85.457l-2.449-.271a.658.658,0,1,1,.145-1.307l2.449.271a2.339,2.339,0,0,0,2.591-2.473l-.561-8.765a.657.657,0,0,1,1.312-.083l.561,8.765a3.654,3.654,0,0,1-4.048,3.864" transform="translate(-41.016 -19.394)" fill="#af4e4a"/>
            <path id="Trazado_912951" data-name="Trazado 912951" d="M169.851,80.566a1.791,1.791,0,1,1-1.91-1.664,1.791,1.791,0,0,1,1.91,1.664" transform="translate(-44.656 -21.19)" fill="#111"/>
            <path id="Trazado_912952" data-name="Trazado 912952" d="M150.723,111.326a.374.374,0,0,1-.246-.048,3.174,3.174,0,0,0-3.569.255.373.373,0,0,1-.483-.569,3.984,3.984,0,0,1,4.435-.325.373.373,0,0,1-.138.688" transform="translate(-39.29 -29.569)" fill="#af4e4a"/>
            <path id="Trazado_912953" data-name="Trazado 912953" d="M135.994,66.792a7.553,7.553,0,0,0,3.139.083c1.113-.118,2.232-.208,3.208-.253s2.1-.059,3.22-.044a7.527,7.527,0,0,0,3.113-.373c.822-.394,1.117-1.425.066-2.629-.989-1.173-3.49-2.383-6.726-2.241-3.231.157-5.569,1.591-6.409,2.848-.9,1.295-.478,2.293.388,2.608" transform="translate(-36.285 -16.47)" fill="#2b2b39"/>
            <path id="Trazado_912954" data-name="Trazado 912954" d="M174.544,71.557a4.591,4.591,0,0,1-2.124-.432c-.725-.266-1.459-.512-2.107-.7s-1.4-.377-2.154-.542a4.567,4.567,0,0,1-2.02-.776c-.478-.431-.484-1.266.445-2.021a5.608,5.608,0,0,1,4.933-.652,5.5,5.5,0,0,1,3.773,3.189c.361,1.131-.105,1.829-.745,1.933" transform="translate(-44.535 -17.769)" fill="#2b2b39"/>
            <path id="Trazado_912955" data-name="Trazado 912955" d="M148.458,78.824a1.96,1.96,0,1,1-1.565-2.287,1.96,1.96,0,0,1,1.565,2.287" transform="translate(-38.828 -20.546)" fill="#111"/>
            <path id="Trazado_912956" data-name="Trazado 912956" d="M144.194,81.549a2.792,2.792,0,0,1,3.4.62" transform="translate(-38.726 -21.813)" fill="#e69773"/>
            <path id="Trazado_912957" data-name="Trazado 912957" d="M147.281,82.582a.656.656,0,0,1-.415-.211,2.1,2.1,0,0,0-2.594-.486.657.657,0,0,1-.641-1.148,3.426,3.426,0,0,1,4.21.75.658.658,0,0,1-.56,1.1" transform="translate(-38.485 -21.572)" fill="#af4e4a"/>
            <path id="Trazado_912958" data-name="Trazado 912958" d="M166.515,83.912a3.881,3.881,0,0,1,3.025.366" transform="translate(-44.721 -22.494)" fill="#e69773"/>
            <path id="Trazado_912959" data-name="Trazado 912959" d="M169.227,84.691a.646.646,0,0,1-.287-.1,3.228,3.228,0,0,0-2.467-.289.658.658,0,0,1-.4-1.254,4.537,4.537,0,0,1,3.586.443.657.657,0,0,1-.433,1.2" transform="translate(-44.48 -22.253)" fill="#af4e4a"/>
            <path id="Trazado_912960" data-name="Trazado 912960" d="M140.569,89.549a1.6,1.6,0,0,1,1.927.4,10.943,10.943,0,0,0,5.843,3.475,1.135,1.135,0,0,1,.633,1.717c-.872,1.417-3.019,3.513-6.75,1.23-4.547-2.781-3.347-5.95-1.652-6.825" transform="translate(-37.345 -24.005)" fill="#fff"/>
            <path id="Trazado_912961" data-name="Trazado 912961" d="M145.944,122.088s-16.036-.737-19.252-7.621c0,0,.623,14.373,17.551,16.454Z" transform="translate(-34.026 -30.743)" fill="#af4e4a"/>
            <path id="Trazado_912962" data-name="Trazado 912962" d="M130.214,84.185c-.116,1.04,1.2,2.039,2.933,2.232s3.236-.5,3.351-1.535-1.2-2.039-2.933-2.232-3.235.5-3.351,1.535" transform="translate(-34.97 -22.189)" fill="#af4e4a"/>
            <path id="Trazado_912963" data-name="Trazado 912963" d="M137.988,81.614a9.745,9.745,0,1,1,9.838-9.653,9.755,9.755,0,0,1-9.838,9.653m.171-18.05a8.306,8.306,0,1,0,8.228,8.384,8.316,8.316,0,0,0-8.228-8.384" transform="translate(-34.467 -16.685)" fill="#fdfeff"/>
            <path id="Trazado_912964" data-name="Trazado 912964" d="M168.434,85.824a9.745,9.745,0,1,1,9.838-9.653,9.756,9.756,0,0,1-9.838,9.653m.171-18.05a8.306,8.306,0,1,0,8.229,8.384,8.316,8.316,0,0,0-8.229-8.384" transform="translate(-42.644 -17.815)" fill="#fdfeff"/>
            <path id="Trazado_912965" data-name="Trazado 912965" d="M157.521,78.324a2.406,2.406,0,0,0-3.3-.582l-.758-1.222a3.8,3.8,0,0,1,5.229.964Z" transform="translate(-41.215 -20.379)" fill="#fdfeff"/>
            <path id="Trazado_912966" data-name="Trazado 912966" d="M126.526,68.755a1.083,1.083,0,0,1-.8-.279c-.1-.077-1.738-1.223-8.89-1.853a.864.864,0,0,1-.87-.916.992.992,0,0,1,1.115-.74c8.23.723,9.942,2.16,10.2,2.441a.748.748,0,0,1-.192,1.17,1.144,1.144,0,0,1-.568.178" transform="translate(-31.143 -17.446)" fill="#fdfeff"/>
            <path id="Trazado_912967" data-name="Trazado 912967" d="M176.8,40.346a11.153,11.153,0,1,1-11.153-11.153A11.153,11.153,0,0,1,176.8,40.346" transform="translate(-41.492 -7.84)" fill="#12263f"/>
            <path id="Trazado_912968" data-name="Trazado 912968" d="M156.1,31.37a11.153,11.153,0,1,1-11.153-11.153A11.154,11.154,0,0,1,156.1,31.37" transform="translate(-35.932 -5.43)" fill="#12263f"/>
            <path id="Trazado_912969" data-name="Trazado 912969" d="M135.11,35.9a11.153,11.153,0,1,1-11.153-11.153A11.153,11.153,0,0,1,135.11,35.9" transform="translate(-30.296 -6.646)" fill="#12263f"/>
            <path id="Trazado_912970" data-name="Trazado 912970" d="M124.035,58.066a8.513,8.513,0,1,1-8.513-8.513,8.513,8.513,0,0,1,8.513,8.513" transform="translate(-28.74 -13.308)" fill="#12263f"/>
            <path id="Trazado_912971" data-name="Trazado 912971" d="M117.889,48.3a8.513,8.513,0,1,1-8.513-8.513,8.513,8.513,0,0,1,8.513,8.513" transform="translate(-27.089 -10.685)" fill="#12263f"/>
            <path id="Trazado_912972" data-name="Trazado 912972" d="M143.076,144.713l-3.682-9.461c-.139-1.836-1.973-2.7-3.13-1.476l-13.5,14.12a.307.307,0,0,1-.415.025l-20.016-16.365a1.54,1.54,0,0,0-2.291.4l-5.6,11.479a3.358,3.358,0,0,0,.449,3.634l11.759,13.967a3.249,3.249,0,0,0,4.43.309l11.1-10.247a.584.584,0,0,1,.832.042l7.015,7.937a1.651,1.651,0,0,0,2.926-.17L142.489,148a3.2,3.2,0,0,0,.587-3.283" transform="translate(-25.273 -35.241)" fill="#750021"/>
            <path id="Trazado_912973" data-name="Trazado 912973" d="M171.452,74.911a12.587,12.587,0,0,1,5.156-1.493.783.783,0,0,1,.78.859.894.894,0,0,1-.418.669.909.909,0,0,1-.516.143,11.509,11.509,0,0,0-4.587,1.456.89.89,0,0,1-.415.1Z" transform="translate(-46.047 -19.718)" fill="#fdfeff"/>
            <path id="Trazado_912974" data-name="Trazado 912974" d="M135.18,171.562a2.268,2.268,0,1,1-2.267-2.267,2.268,2.268,0,0,1,2.267,2.267" transform="translate(-35.087 -45.468)" fill="#750021"/>
            <path id="Trazado_912975" data-name="Trazado 912975" d="M135.18,185.963a2.268,2.268,0,1,1-2.267-2.267,2.268,2.268,0,0,1,2.267,2.267" transform="translate(-35.087 -49.335)" fill="#750021"/>
            <path id="Trazado_912976" data-name="Trazado 912976" d="M135.18,200.363a2.268,2.268,0,1,1-2.267-2.267,2.267,2.267,0,0,1,2.267,2.267" transform="translate(-35.087 -53.203)" fill="#750021"/>
            <path id="Trazado_912977" data-name="Trazado 912977" d="M123.637,278.518,66.819,246.335l2.242-11.618L27.9,233.506l-2.145,10.825c-3.885,27.146,30.983,40.309,30.983,40.309l55.62,18.689" transform="translate(-6.835 -62.713)" fill="#e69773"/>
            <path id="Trazado_912978" data-name="Trazado 912978" d="M82.035,234.212a.615.615,0,0,1-.125-.012.657.657,0,0,1-.521-.769l2.15-11.142,5.361.043h.016a1.9,1.9,0,0,0,1.909-1.822l1.417-30.185a.649.649,0,0,1,.688-.626.658.658,0,0,1,.626.688l-1.417,30.185a3.194,3.194,0,0,1-3.25,3.076l-4.266-.034L82.68,233.679a.657.657,0,0,1-.644.533" transform="translate(-21.856 -50.947)" fill="#750021"/>
            <path id="Trazado_912979" data-name="Trazado 912979" d="M62.574,256.035a.658.658,0,0,1-.208-1.281l13.87-4.65a.658.658,0,0,1,.418,1.247L62.783,256a.646.646,0,0,1-.208.034" transform="translate(-16.629 -67.162)" fill="#af4e4a"/>
            <path id="Trazado_912980" data-name="Trazado 912980" d="M141.315,317.874a9.819,9.819,0,0,0,3.231,3.152l18.447,10.055c3.3,2.022,7.984.352,6.643-2.283,2.077,2.173,5.133,3.812,7.525,1,1.5-1.4,1.032-2.915.007-4.3,1.949,1.939,4.223,3.457,6.386,1.273,2.689-2.031,1.489-4.529-.276-6.582,1.486,1.175,3.227,1.8,4.844.175,4.228-5.043-3.024-9.169-7.055-12.167-2-1.278-3.82-2.469-5.511-3.594a19.484,19.484,0,0,0,6.423-2.634,2.479,2.479,0,0,0,1.219-1.793,1.865,1.865,0,0,0-.808-1.456,5.087,5.087,0,0,0-1.569-.706c-5.132-1.6-20.768-3.392-20.768-3.392a35.27,35.27,0,0,0-5.3.311" transform="translate(-37.953 -79.124)" fill="#e69773"/>
            <path id="Trazado_912981" data-name="Trazado 912981" d="M186.154,332.412c.266.241.553.538.858.867-.32-.312-.616-.6-.858-.867" transform="translate(-49.996 -89.276)" fill="#e69773"/>
            <g id="Grupo_1102808" data-name="Grupo 1102808" transform="translate(127.593 219.983)" opacity="0.3">
              <g id="Grupo_1102807" data-name="Grupo 1102807">
                <g id="Grupo_1102806" data-name="Grupo 1102806" clip-path="url(#clip-path-11)">
                  <path id="Trazado_912982" data-name="Trazado 912982" d="M184.454,306.25l-10.01-5.492s12.333,3.02,14.05,4.176Z" transform="translate(-174.444 -300.758)" fill="#af4e4a"/>
                </g>
              </g>
            </g>
            <path id="Trazado_912983" data-name="Trazado 912983" d="M190.414,324.468a.616.616,0,0,1,.823-.9,70.328,70.328,0,0,1,6.471,4.61.607.607,0,0,1-.059.87.619.619,0,0,1-.872-.061,68.928,68.928,0,0,0-6.215-4.386.622.622,0,0,1-.148-.137" transform="translate(-51.104 -86.875)" fill="#af4e4a"/>
            <path id="Trazado_912984" data-name="Trazado 912984" d="M183.188,332.77a.617.617,0,0,1,.832-.89l5.127,3.475a.617.617,0,0,1-.692,1.021l-5.127-3.475a.615.615,0,0,1-.14-.131" transform="translate(-49.164 -89.105)" fill="#af4e4a"/>
            <path id="Trazado_912985" data-name="Trazado 912985" d="M175.6,338.86a.617.617,0,0,1,.844-.882l2.721,1.933a.617.617,0,0,1-.715,1.006l-2.721-1.933a.645.645,0,0,1-.129-.124" transform="translate(-47.127 -90.74)" fill="#af4e4a"/>
            <path id="Trazado_912986" data-name="Trazado 912986" d="M130.939,313.972s3.824-15.906,12.927-25.346a9.43,9.43,0,0,1,6.738,2.33,64.6,64.6,0,0,0-13.58,26.568,8.711,8.711,0,0,1-6.086-3.551" transform="translate(-35.166 -77.512)" fill="#2b2b39"/>
            <path id="Trazado_912987" data-name="Trazado 912987" d="M149.368,301.724a8.959,8.959,0,1,0-12.061,3.883,8.96,8.96,0,0,0,12.061-3.883" transform="translate(-35.568 -77.53)" fill="#2b2b39"/>
            <path id="Trazado_912988" data-name="Trazado 912988" d="M145.263,292.821a6.448,6.448,0,1,0,2.795,8.68,6.456,6.456,0,0,0-2.795-8.68" transform="translate(-36.491 -78.453)" fill="#fff"/>
          </g>
        </g>
        <g id="Grupo_1102812" data-name="Grupo 1102812" transform="translate(0 28.355)">
          <g id="Grupo_1102811" data-name="Grupo 1102811" clip-path="url(#clip-path-12)">
            <path id="Trazado_912990" data-name="Trazado 912990" d="M239.924,78.607c-2.014,1.939-3.663,1.236-3.663-1.559V68.033a5.1,5.1,0,0,0-5.083-5.083H219.643a5.1,5.1,0,0,1-5.083-5.083V22.235a5.1,5.1,0,0,1,5.083-5.083h54.093a5.1,5.1,0,0,1,5.083,5.083V57.867a5.1,5.1,0,0,1-5.083,5.083h-12.45a14.57,14.57,0,0,0-8.746,3.523Z" transform="translate(-66.425 20.084)" fill="#ca7441"/>
            <path id="Trazado_912991" data-name="Trazado 912991" d="M271.153,35.533H228.991a1.835,1.835,0,0,1,0-3.67h42.162a1.835,1.835,0,0,1,0,3.67" transform="translate(-69.808 16.133)" fill="#fff"/>
            <path id="Trazado_912992" data-name="Trazado 912992" d="M271.153,48.042H228.991a1.834,1.834,0,0,1,0-3.669h42.162a1.834,1.834,0,1,1,0,3.669" transform="translate(-69.808 12.773)" fill="#fff"/>
            <path id="Trazado_912993" data-name="Trazado 912993" d="M274.333,60.551h-33.5a1.835,1.835,0,0,1,0-3.67h33.5a1.835,1.835,0,0,1,0,3.67" transform="translate(-72.988 9.414)" fill="#fff"/>
            <path id="Trazado_912994" data-name="Trazado 912994" d="M254.05,233.27h-76.4a6.074,6.074,0,0,0-5.855,4.459l-17.6,63.8H103a1.167,1.167,0,0,0-.97,1.814l4.042,6.063H239.314l20.593-68.253a6.118,6.118,0,0,0-5.857-7.886" transform="translate(-27.349 -19.627)" fill="#5f5f75"/>
            <path id="Trazado_912995" data-name="Trazado 912995" d="M266.716,309.624h-87.3l19.774-71.68a6.074,6.074,0,0,1,5.855-4.459h76.4a6.119,6.119,0,0,1,5.857,7.886Z" transform="translate(-48.186 -19.685)" fill="#2b2b39"/>
            <path id="Trazado_912996" data-name="Trazado 912996" d="M246.87,285.634a9.8,9.8,0,1,1,9.8,9.8,9.816,9.816,0,0,1-9.8-9.8m1.5,0a8.308,8.308,0,1,0,8.309-8.309,8.317,8.317,0,0,0-8.309,8.309" transform="translate(-66.302 -31.058)" fill="#f6eee3"/>
            <path id="Trazado_912997" data-name="Trazado 912997" d="M229.8,383.623a1.041,1.041,0,0,1-.394-.078l-4.76-1.935a1.042,1.042,0,0,1-.573-1.36l1.5-3.68a12.46,12.46,0,0,1-2.281-2.012l-3.61,1.522a1.045,1.045,0,0,1-1.367-.557l-2-4.735a1.044,1.044,0,0,1,.557-1.368l3.368-1.42a12.454,12.454,0,0,1-.093-2.684l-3.309-1.347a1.043,1.043,0,0,1-.574-1.36l1.936-4.76a1.044,1.044,0,0,1,1.36-.574l3.133,1.275a12.452,12.452,0,0,1,2.343-2.348l-1.42-3.365a1.044,1.044,0,0,1,.556-1.368l4.735-2a1.043,1.043,0,0,1,1.368.557l1.521,3.61a12.425,12.425,0,0,1,1.793,0l1.574-3.871a1.044,1.044,0,0,1,1.36-.573l4.76,1.935a1.043,1.043,0,0,1,.573,1.36l-1.5,3.694a12.473,12.473,0,0,1,2.347,2.344l3.366-1.42a1.045,1.045,0,0,1,1.368.556l2,4.735a1.046,1.046,0,0,1-.557,1.368l-3.608,1.521a12.536,12.536,0,0,1-.053,2.425l3.694,1.5a1.044,1.044,0,0,1,.574,1.36l-1.935,4.76a1.045,1.045,0,0,1-1.36.573l-3.871-1.575a12.643,12.643,0,0,1-1.251,1.284l1.522,3.608a1.044,1.044,0,0,1-.557,1.367l-4.735,2a1.044,1.044,0,0,1-1.368-.556l-1.42-3.367a12.413,12.413,0,0,1-2.044.126l-1.7,4.178a1.045,1.045,0,0,1-.967.651m-3.4-3.553,2.826,1.149,1.585-3.9a1.038,1.038,0,0,1,1.053-.647,10.394,10.394,0,0,0,3.061-.2,1.042,1.042,0,0,1,1.183.614l1.339,3.174,2.811-1.186-1.417-3.359a1.044,1.044,0,0,1,.32-1.23,10.441,10.441,0,0,0,1.984-2.036,1.043,1.043,0,0,1,1.233-.347L246,373.582l1.149-2.826-3.493-1.421a1.044,1.044,0,0,1-.632-1.164,10.438,10.438,0,0,0,.083-3.4,1.045,1.045,0,0,1,.628-1.1l3.36-1.417-1.186-2.812-3.174,1.339a1.045,1.045,0,0,1-1.276-.385,10.412,10.412,0,0,0-2.966-2.962,1.043,1.043,0,0,1-.392-1.265l1.421-3.493-2.826-1.149-1.476,3.63a1.049,1.049,0,0,1-1.11.641,10.384,10.384,0,0,0-2.842,0,1.046,1.046,0,0,1-1.1-.629l-1.417-3.36-2.812,1.186,1.339,3.174a1.044,1.044,0,0,1-.385,1.276,10.409,10.409,0,0,0-2.962,2.966,1.045,1.045,0,0,1-1.265.393l-2.932-1.193-1.151,2.826,3.069,1.249a1.043,1.043,0,0,1,.641,1.109,10.421,10.421,0,0,0,.133,3.63,1.044,1.044,0,0,1-.615,1.183l-3.174,1.339,1.186,2.811,3.361-1.417a1.044,1.044,0,0,1,1.229.321,10.446,10.446,0,0,0,2.973,2.6,1.044,1.044,0,0,1,.44,1.294Zm6.315-8.117a5.753,5.753,0,1,1,2.228-.453,5.762,5.762,0,0,1-2.228.453m-.012-9.42a3.666,3.666,0,1,0,1.429,7.044h0a3.666,3.666,0,0,0-1.43-7.044" transform="translate(62.353 -14.563)" fill="#ca7441"/>
            <g id="Grupo_1102828" data-name="Grupo 1102828" transform="translate(280.163 6.616)">
              <path id="Trazado_912998" data-name="Trazado 912998" d="M488.54,381.9a14.9,14.9,0,1,1,14.9-14.9,14.912,14.912,0,0,1-14.9,14.9m0-27.7A12.808,12.808,0,1,0,501.348,367a12.823,12.823,0,0,0-12.808-12.807" transform="translate(-473.644 -352.106)" fill="#ca7441"/>
              <path id="Trazado_912999" data-name="Trazado 912999" d="M487.083,376.9h-.057a1.045,1.045,0,0,1-.757-.389l-2.7-3.368a1.044,1.044,0,1,1,1.628-1.307l1.973,2.46,11.073-11.074a1.044,1.044,0,0,1,1.476,1.476l-11.9,11.9a1.044,1.044,0,0,1-.738.306" transform="translate(-476.247 -355.008)" fill="#ca7441"/>
            </g>
            <g id="Grupo_1102827" data-name="Grupo 1102827" transform="translate(274.121 208.988)">
              <path id="Trazado_913000" data-name="Trazado 913000" d="M396.484,275.29l-10.639-6.548H360.392a4.338,4.338,0,0,1-4.333-4.334V245.944a4.337,4.337,0,0,1,4.333-4.333h30.215a4.338,4.338,0,0,1,4.334,4.333v18.738l3.082,9.394a1.044,1.044,0,0,1-1.539,1.214M360.392,243.7a2.248,2.248,0,0,0-2.246,2.245v18.465a2.248,2.248,0,0,0,2.246,2.246h25.749a1.047,1.047,0,0,1,.547.155l8.462,5.209-2.245-6.844a1.05,1.05,0,0,1-.052-.326V245.944a2.249,2.249,0,0,0-2.246-2.245Z" transform="translate(-356.059 -241.611)" fill="#ca7441"/>
              <path id="Trazado_913001" data-name="Trazado 913001" d="M390.75,259.568a2.488,2.488,0,1,0,2.488-2.488,2.488,2.488,0,0,0-2.488,2.488" transform="translate(-365.376 -245.765)" fill="#ca7441"/>
              <path id="Trazado_913002" data-name="Trazado 913002" d="M378.453,259.568a2.488,2.488,0,1,0,2.488-2.488,2.487,2.487,0,0,0-2.488,2.488" transform="translate(-362.073 -245.765)" fill="#ca7441"/>
              <path id="Trazado_913003" data-name="Trazado 913003" d="M366.156,259.568a2.488,2.488,0,1,0,2.488-2.488,2.487,2.487,0,0,0-2.488,2.488" transform="translate(-358.771 -245.765)" fill="#ca7441"/>
            </g>
          </g>
        </g>
      </g>
    </g>
    <g id="Grupo_1102815" data-name="Grupo 1102815" transform="translate(940.672 732.066)">
      <path id="Trazado_913004" data-name="Trazado 913004" d="M-321.945-10722.529v-209.5H-444.156" transform="translate(453.781 10938.844)" fill="none" stroke="#ffbd45" stroke-width="3"/>
      <path id="Polígono_6" data-name="Polígono 6" d="M6.844,0l6.844,11.733H0Z" transform="translate(0 13.689) rotate(-90)" fill="#ffbd45"/>
    </g>
    <g id="Grupo_1102817" data-name="Grupo 1102817" transform="translate(669.942 732.066)">
      <path id="Trazado_913004-2" data-name="Trazado 913004" d="M-200.538-10932.034H-444.156" transform="translate(453.781 10938.845)" fill="none" stroke="#ffbd45" stroke-width="3"/>
      <path id="Polígono_6-2" data-name="Polígono 6" d="M6.844,0l6.844,11.733H0Z" transform="translate(0 13.689) rotate(-90)" fill="#ffbd45"/>
    </g>
    <g id="Grupo_1102816" data-name="Grupo 1102816" transform="translate(522.185 738.878)">
      <path id="Trazado_913004-3" data-name="Trazado 913004" d="M-444.156-10817.226v-114.808h122.211" transform="translate(451 10932.033)" fill="none" stroke="#ffbd45" stroke-width="3"/>
      <path id="Polígono_6-3" data-name="Polígono 6" d="M6.844,0l6.844,11.733H0Z" transform="translate(13.689 125.189) rotate(180)" fill="#ffbd45"/>
    </g>
    <g id="Grupo_1102818" data-name="Grupo 1102818" transform="translate(637.865 896.701)">
      <path id="Trazado_913005" data-name="Trazado 913005" d="M-756.746-10784.622l32.283,25.826" transform="translate(756.746 10784.622)" fill="none" stroke="#ffbd45" stroke-width="3"/>
      <path id="Polígono_7" data-name="Polígono 7" d="M6.844,0l6.844,11.733H0Z" transform="translate(44.869 27.804) rotate(132)" fill="#ffbd45"/>
    </g>
    <g id="Grupo_1102820" data-name="Grupo 1102820" transform="translate(724.951 1079.886) rotate(-40)">
      <path id="Trazado_913005-2" data-name="Trazado 913005" d="M0,0,19.558,16.226" transform="matrix(1, 0.017, -0.017, 1, 0.283, 0)" fill="none" stroke="#ffbd45" stroke-width="3"/>
      <path id="Polígono_7-2" data-name="Polígono 7" d="M6.844,0l6.844,11.733H0Z" transform="matrix(-0.629, 0.777, -0.777, -0.629, 32.295, 17.793)" fill="#ffbd45"/>
    </g>
    <g id="Grupo_1102824" data-name="Grupo 1102824" transform="translate(1053.369 962.453) rotate(-40)">
      <path id="Trazado_913005-3" data-name="Trazado 913005" d="M0,0,10.287,8.719" transform="matrix(1, 0.017, -0.017, 1, 0.152, 0)" fill="none" stroke="#ffbd45" stroke-width="3"/>
      <path id="Polígono_7-3" data-name="Polígono 7" d="M6.844,0l6.844,11.733H0Z" transform="matrix(-0.629, 0.777, -0.777, -0.629, 23.026, 10.127)" fill="#ffbd45"/>
    </g>
    <g id="Grupo_1102829" data-name="Grupo 1102829" transform="matrix(0.695, 0.719, -0.719, 0.695, 799.168, 704.869)">
      <path id="Trazado_913005-4" data-name="Trazado 913005" d="M0,0,10.287,8.719" transform="translate(0.456 0.001) rotate(3)" fill="none" stroke="#ffbd45" stroke-width="3"/>
      <path id="Polígono_7-4" data-name="Polígono 7" d="M6.844,0l6.844,11.733H0Z" transform="translate(22.585 11.628) rotate(133)" fill="#ffbd45"/>
    </g>
    <g id="Grupo_1102825" data-name="Grupo 1102825" transform="translate(527.074 880.795) rotate(-40)">
      <path id="Trazado_913005-5" data-name="Trazado 913005" d="M0,0,10.287,8.719" transform="matrix(1, 0.017, -0.017, 1, 0.152, 0)" fill="none" stroke="#ffbd45" stroke-width="3"/>
      <path id="Polígono_7-5" data-name="Polígono 7" d="M6.844,0l6.844,11.733H0Z" transform="matrix(-0.629, 0.777, -0.777, -0.629, 23.026, 10.127)" fill="#ffbd45"/>
    </g>
    <g id="Grupo_1102821" data-name="Grupo 1102821" transform="translate(830.551 1080.621) rotate(-40)">
      <path id="Trazado_913005-6" data-name="Trazado 913005" d="M0,0,19.558,16.226" transform="matrix(1, 0.017, -0.017, 1, 0.283, 0)" fill="none" stroke="#ffbd45" stroke-width="3"/>
      <path id="Polígono_7-6" data-name="Polígono 7" d="M6.844,0l6.844,11.733H0Z" transform="matrix(-0.629, 0.777, -0.777, -0.629, 32.295, 17.793)" fill="#ffbd45"/>
    </g>
    <g id="Grupo_1102819" data-name="Grupo 1102819" transform="translate(655.41 874.213)">
      <path id="Trazado_913005-7" data-name="Trazado 913005" d="M-756.746-10784.622l32.283,25.826" transform="translate(756.746 10784.622)" fill="none" stroke="#ffbd45" stroke-width="3"/>
      <path id="Polígono_7-7" data-name="Polígono 7" d="M6.844,0l6.844,11.733H0Z" transform="translate(44.869 27.804) rotate(132)" fill="#ffbd45"/>
    </g>
    <g id="Grupo_1102822" data-name="Grupo 1102822" transform="translate(895 901.976)">
      <path id="Trazado_913005-8" data-name="Trazado 913005" d="M-724.463-10784.623l-32.283,25.826" transform="translate(769.332 10784.623)" fill="none" stroke="#ffbd45" stroke-width="3"/>
      <path id="Polígono_7-8" data-name="Polígono 7" d="M6.844,0l6.844,11.733H0Z" transform="translate(9.16 37.977) rotate(-132)" fill="#ffbd45"/>
    </g>
    <path id="Trazado_914087" data-name="Trazado 914087" d="M4.182-10.664l2.38,7.419,2.373-7.419h3.384V0H9.741V-2.49l.249-5.1L7.412,0h-1.7L3.127-7.6l.249,5.1V0H.806V-10.664ZM17.673.146A4.074,4.074,0,0,1,14.722-.941a3.756,3.756,0,0,1-1.128-2.831v-.205a4.867,4.867,0,0,1,.45-2.146,3.3,3.3,0,0,1,1.315-1.439,3.969,3.969,0,0,1,2.051-.509,3.43,3.43,0,0,1,2.637,1.036,4.073,4.073,0,0,1,.967,2.889v.959H16.106a1.779,1.779,0,0,0,.579,1.047,1.722,1.722,0,0,0,1.157.381,2.218,2.218,0,0,0,1.831-.82L20.8-1.245A3.153,3.153,0,0,1,19.493-.231,4.418,4.418,0,0,1,17.673.146ZM17.4-6.167q-1.084,0-1.289,1.436H18.6v-.19a1.223,1.223,0,0,0-.3-.919A1.2,1.2,0,0,0,17.4-6.167Zm6.877-1.758.081.93a2.687,2.687,0,0,1,2.263-1.077,2.261,2.261,0,0,1,1.849.74A3.522,3.522,0,0,1,29.1-5.1V0H26.624V-5a1.337,1.337,0,0,0-.242-.883,1.118,1.118,0,0,0-.879-.282,1.177,1.177,0,0,0-1.077.571V0H21.958V-7.925Zm10.342,5.7a.57.57,0,0,0-.33-.505,5.013,5.013,0,0,0-1.252-.4,5.711,5.711,0,0,1-1.523-.538,2.552,2.552,0,0,1-.916-.809,1.933,1.933,0,0,1-.315-1.091,2.19,2.19,0,0,1,.9-1.8,3.711,3.711,0,0,1,2.358-.707,4.112,4.112,0,0,1,2.52.71,2.222,2.222,0,0,1,.952,1.868H34.534q0-.952-1-.952a1,1,0,0,0-.652.216.669.669,0,0,0-.264.538.614.614,0,0,0,.322.535,3.045,3.045,0,0,0,1.029.337,8.893,8.893,0,0,1,1.241.315,2.255,2.255,0,0,1,1.787,2.2,2.075,2.075,0,0,1-.963,1.765,4.224,4.224,0,0,1-2.494.681A4.31,4.31,0,0,1,31.721-.22a3.037,3.037,0,0,1-1.245-1,2.256,2.256,0,0,1-.447-1.326h2.307a.954.954,0,0,0,.366.8,1.506,1.506,0,0,0,.9.253,1.185,1.185,0,0,0,.758-.205A.656.656,0,0,0,34.614-2.227Zm8,2.227a2.787,2.787,0,0,1-.234-.71,2.3,2.3,0,0,1-1.9.857,2.812,2.812,0,0,1-1.9-.677,2.156,2.156,0,0,1-.784-1.7,2.216,2.216,0,0,1,.952-1.948,4.851,4.851,0,0,1,2.769-.659h.762v-.417q0-1.091-.945-1.091a.77.77,0,0,0-.879.864H37.976a2.216,2.216,0,0,1,.978-1.868,4.106,4.106,0,0,1,2.494-.718,3.6,3.6,0,0,1,2.4.74,2.572,2.572,0,0,1,.9,2.029v3.508a3.593,3.593,0,0,0,.337,1.67V0ZM41.067-1.611a1.377,1.377,0,0,0,.765-.2,1.239,1.239,0,0,0,.436-.447V-3.523H41.55q-1.289,0-1.289,1.157a.707.707,0,0,0,.227.546A.822.822,0,0,0,41.067-1.611Zm7.7-6.313v8.2a2.877,2.877,0,0,1-.806,2.168,3.1,3.1,0,0,1-2.227.762,5.257,5.257,0,0,1-1.165-.125V1.208a4.722,4.722,0,0,0,.7.066A.9.9,0,0,0,46.289.256V-7.925ZM46.106-9.968a1.1,1.1,0,0,1,.381-.864,1.437,1.437,0,0,1,.989-.337,1.437,1.437,0,0,1,.989.337,1.1,1.1,0,0,1,.381.864,1.1,1.1,0,0,1-.381.864,1.437,1.437,0,0,1-.989.337,1.437,1.437,0,0,1-.989-.337A1.1,1.1,0,0,1,46.106-9.968ZM53.994.146A4.074,4.074,0,0,1,51.042-.941a3.756,3.756,0,0,1-1.128-2.831v-.205a4.867,4.867,0,0,1,.45-2.146A3.3,3.3,0,0,1,51.68-7.562a3.969,3.969,0,0,1,2.051-.509,3.43,3.43,0,0,1,2.637,1.036,4.073,4.073,0,0,1,.967,2.889v.959H52.427a1.779,1.779,0,0,0,.579,1.047,1.722,1.722,0,0,0,1.157.381,2.218,2.218,0,0,0,1.831-.82l1.128,1.333A3.153,3.153,0,0,1,55.814-.231,4.418,4.418,0,0,1,53.994.146Zm-.278-6.313q-1.084,0-1.289,1.436h2.49v-.19a1.223,1.223,0,0,0-.3-.919A1.2,1.2,0,0,0,53.716-6.167Z" transform="translate(656.14 793.045)" fill="#12263f"/>
    <path id="Trazado_914088" data-name="Trazado 914088" d="M7.522-4.248H3.376V0H.806V-10.664H7.939v1.985H3.376v2.454H7.522ZM12.729.146A4.074,4.074,0,0,1,9.778-.941,3.756,3.756,0,0,1,8.65-3.772v-.205A4.867,4.867,0,0,1,9.1-6.123a3.3,3.3,0,0,1,1.315-1.439,3.969,3.969,0,0,1,2.051-.509A3.43,3.43,0,0,1,15.1-7.035a4.073,4.073,0,0,1,.967,2.889v.959H11.162a1.779,1.779,0,0,0,.579,1.047,1.722,1.722,0,0,0,1.157.381,2.218,2.218,0,0,0,1.831-.82l1.128,1.333A3.153,3.153,0,0,1,14.55-.231,4.418,4.418,0,0,1,12.729.146Zm-.278-6.313q-1.084,0-1.289,1.436h2.49v-.19a1.223,1.223,0,0,0-.3-.919A1.2,1.2,0,0,0,12.451-6.167ZM20.9.146A4.074,4.074,0,0,1,17.944-.941a3.756,3.756,0,0,1-1.128-2.831v-.205a4.867,4.867,0,0,1,.45-2.146,3.3,3.3,0,0,1,1.315-1.439,3.969,3.969,0,0,1,2.051-.509,3.43,3.43,0,0,1,2.637,1.036,4.073,4.073,0,0,1,.967,2.889v.959H19.329a1.779,1.779,0,0,0,.579,1.047,1.722,1.722,0,0,0,1.157.381,2.218,2.218,0,0,0,1.831-.82l1.128,1.333A3.153,3.153,0,0,1,22.716-.231,4.418,4.418,0,0,1,20.9.146Zm-.278-6.313q-1.084,0-1.289,1.436h2.49v-.19a1.223,1.223,0,0,0-.3-.919A1.2,1.2,0,0,0,20.618-6.167Zm4.3,2.146a4.841,4.841,0,0,1,.813-2.966A2.676,2.676,0,0,1,28-8.071a2.276,2.276,0,0,1,1.787.835V-11.25h2.476V0H30.044l-.125-.85a2.337,2.337,0,0,1-1.934,1A2.671,2.671,0,0,1,25.745-.937,4.994,4.994,0,0,1,24.917-4.021Zm2.468.154q0,2.109,1.23,2.109a1.215,1.215,0,0,0,1.172-.688V-5.464a1.182,1.182,0,0,0-1.157-.7q-1.143,0-1.238,1.846Zm11.1.227h-4.4V-5.552h4.4ZM40.525,0V-10.664h3.831a5.424,5.424,0,0,1,3.131.754A2.51,2.51,0,0,1,48.56-7.72a2.537,2.537,0,0,1-.381,1.414,2.219,2.219,0,0,1-1.121.864,2.247,2.247,0,0,1,1.282.82,2.385,2.385,0,0,1,.447,1.465A2.824,2.824,0,0,1,47.794-.8a4.723,4.723,0,0,1-2.941.8ZM43.1-4.534v2.556H44.78A1.6,1.6,0,0,0,45.85-2.3a1.115,1.115,0,0,0,.374-.9A1.182,1.182,0,0,0,44.9-4.534Zm0-1.685h1.34a1.909,1.909,0,0,0,1.2-.308A1.09,1.09,0,0,0,46-7.412a1.144,1.144,0,0,0-.388-.97,2.082,2.082,0,0,0-1.252-.3H43.1ZM54.551,0a2.787,2.787,0,0,1-.234-.71,2.3,2.3,0,0,1-1.9.857,2.812,2.812,0,0,1-1.9-.677,2.156,2.156,0,0,1-.784-1.7,2.216,2.216,0,0,1,.952-1.948,4.851,4.851,0,0,1,2.769-.659h.762v-.417q0-1.091-.945-1.091a.77.77,0,0,0-.879.864H49.915a2.216,2.216,0,0,1,.978-1.868,4.106,4.106,0,0,1,2.494-.718,3.6,3.6,0,0,1,2.4.74,2.572,2.572,0,0,1,.9,2.029v3.508a3.593,3.593,0,0,0,.337,1.67V0ZM53.005-1.611a1.377,1.377,0,0,0,.765-.2,1.239,1.239,0,0,0,.436-.447V-3.523h-.718q-1.289,0-1.289,1.157a.707.707,0,0,0,.227.546A.822.822,0,0,0,53.005-1.611ZM61.4-1.758A1.1,1.1,0,0,0,62.2-2.04a1.034,1.034,0,0,0,.278-.787H64.8a2.74,2.74,0,0,1-.934,2.139,3.474,3.474,0,0,1-2.406.835A3.517,3.517,0,0,1,58.733-.937a4.271,4.271,0,0,1-1-3v-.1a4.827,4.827,0,0,1,.443-2.12,3.226,3.226,0,0,1,1.278-1.414,3.811,3.811,0,0,1,1.978-.494,3.43,3.43,0,0,1,2.454.857A3.039,3.039,0,0,1,64.8-4.893H62.483a1.355,1.355,0,0,0-.3-.945,1.037,1.037,0,0,0-.806-.33q-.959,0-1.121,1.223a8.631,8.631,0,0,0-.051,1.069,3.39,3.39,0,0,0,.286,1.655A.989.989,0,0,0,61.4-1.758Zm7.625-1.194-.7.7V0H65.859V-11.257h2.468v5.977l.249-.33,1.86-2.314H73.4L70.62-4.666,73.579,0H70.752Zm8.943-1.384a11.193,11.193,0,0,1,.476-3.325,8.025,8.025,0,0,1,1.315-2.607,4.669,4.669,0,0,1,1.864-1.494l.469,1.216A4.775,4.775,0,0,0,80.5-8.192a11.485,11.485,0,0,0-.568,3.754v.322A11.709,11.709,0,0,0,80.5-.293,4.755,4.755,0,0,0,82.09,2.08L81.621,3.3a4.622,4.622,0,0,1-1.864-1.5A7.9,7.9,0,0,1,78.442-.8a11.247,11.247,0,0,1-.476-3.208Zm9.185.571H85.759V0H83.188V-10.664h4.2a4.681,4.681,0,0,1,2.966.842,2.855,2.855,0,0,1,1.069,2.38A3.469,3.469,0,0,1,90.97-5.6a3.2,3.2,0,0,1-1.41,1.187l2.227,4.3V0H89.033ZM85.759-5.75h1.626a1.462,1.462,0,0,0,1.1-.385,1.484,1.484,0,0,0,.37-1.073,1.5,1.5,0,0,0-.374-1.08,1.448,1.448,0,0,0-1.1-.392H85.759ZM96.694.146A4.074,4.074,0,0,1,93.743-.941a3.756,3.756,0,0,1-1.128-2.831v-.205a4.867,4.867,0,0,1,.45-2.146A3.3,3.3,0,0,1,94.38-7.562a3.969,3.969,0,0,1,2.051-.509,3.43,3.43,0,0,1,2.637,1.036,4.073,4.073,0,0,1,.967,2.889v.959H95.127a1.779,1.779,0,0,0,.579,1.047,1.722,1.722,0,0,0,1.157.381,2.218,2.218,0,0,0,1.831-.82l1.128,1.333A3.153,3.153,0,0,1,98.514-.231,4.418,4.418,0,0,1,96.694.146Zm-.278-6.313q-1.084,0-1.289,1.436h2.49v-.19a1.223,1.223,0,0,0-.3-.919A1.2,1.2,0,0,0,96.416-6.167ZM105.491,0a2.787,2.787,0,0,1-.234-.71,2.3,2.3,0,0,1-1.9.857,2.812,2.812,0,0,1-1.9-.677,2.156,2.156,0,0,1-.784-1.7,2.216,2.216,0,0,1,.952-1.948,4.851,4.851,0,0,1,2.769-.659h.762v-.417q0-1.091-.945-1.091a.77.77,0,0,0-.879.864h-2.468a2.216,2.216,0,0,1,.978-1.868,4.106,4.106,0,0,1,2.494-.718,3.6,3.6,0,0,1,2.4.74,2.572,2.572,0,0,1,.9,2.029v3.508a3.593,3.593,0,0,0,.337,1.67V0Zm-1.545-1.611a1.377,1.377,0,0,0,.765-.2,1.239,1.239,0,0,0,.436-.447V-3.523h-.718q-1.289,0-1.289,1.157a.707.707,0,0,0,.227.546A.822.822,0,0,0,103.945-1.611Zm8.394-.146a1.1,1.1,0,0,0,.806-.282,1.034,1.034,0,0,0,.278-.787h2.314A2.74,2.74,0,0,1,114.8-.688,3.474,3.474,0,0,1,112.4.146a3.517,3.517,0,0,1-2.725-1.084,4.271,4.271,0,0,1-1-3v-.1a4.827,4.827,0,0,1,.443-2.12A3.226,3.226,0,0,1,110.4-7.577a3.811,3.811,0,0,1,1.978-.494,3.43,3.43,0,0,1,2.454.857,3.039,3.039,0,0,1,.908,2.322h-2.314a1.355,1.355,0,0,0-.3-.945,1.037,1.037,0,0,0-.806-.33q-.959,0-1.121,1.223a8.631,8.631,0,0,0-.051,1.069,3.39,3.39,0,0,0,.286,1.655A.989.989,0,0,0,112.339-1.758Zm7.793,0a1.1,1.1,0,0,0,.806-.282,1.034,1.034,0,0,0,.278-.787h2.314A2.74,2.74,0,0,1,122.6-.688a3.474,3.474,0,0,1-2.406.835,3.517,3.517,0,0,1-2.725-1.084,4.271,4.271,0,0,1-1-3v-.1a4.827,4.827,0,0,1,.443-2.12,3.226,3.226,0,0,1,1.278-1.414,3.811,3.811,0,0,1,1.978-.494,3.43,3.43,0,0,1,2.454.857,3.039,3.039,0,0,1,.908,2.322h-2.314a1.355,1.355,0,0,0-.3-.945,1.037,1.037,0,0,0-.806-.33q-.959,0-1.121,1.223a8.631,8.631,0,0,0-.051,1.069,3.39,3.39,0,0,0,.286,1.655A.989.989,0,0,0,120.132-1.758ZM127.178,0H124.7V-7.925h2.476Zm-2.622-9.968a1.1,1.1,0,0,1,.381-.864,1.437,1.437,0,0,1,.989-.337,1.437,1.437,0,0,1,.989.337,1.1,1.1,0,0,1,.381.864,1.1,1.1,0,0,1-.381.864,1.437,1.437,0,0,1-.989.337,1.437,1.437,0,0,1-.989-.337A1.1,1.1,0,0,1,124.556-9.968Zm3.831,5.933a4.677,4.677,0,0,1,.461-2.113,3.3,3.3,0,0,1,1.326-1.425,3.993,3.993,0,0,1,2.029-.5,3.644,3.644,0,0,1,2.805,1.1,4.23,4.23,0,0,1,1.025,3v.088A4.1,4.1,0,0,1,135-.941,3.654,3.654,0,0,1,132.217.146,3.7,3.7,0,0,1,129.5-.868a3.968,3.968,0,0,1-1.106-2.75Zm2.468.154a2.949,2.949,0,0,0,.344,1.611,1.147,1.147,0,0,0,1.018.513q1.318,0,1.348-2.029v-.249q0-2.131-1.362-2.131-1.238,0-1.34,1.838Zm1.685-7.368h2.607l-2.036,2.3H131.1Zm6.848,3.325.081.93a2.687,2.687,0,0,1,2.263-1.077,2.261,2.261,0,0,1,1.849.74,3.522,3.522,0,0,1,.634,2.227V0h-2.476V-5a1.337,1.337,0,0,0-.242-.883,1.118,1.118,0,0,0-.879-.282,1.177,1.177,0,0,0-1.077.571V0h-2.468V-7.925Zm10.085,3.794a10.444,10.444,0,0,1-.505,3.267,8.34,8.34,0,0,1-1.4,2.655A4.645,4.645,0,0,1,145.649,3.3l-.469-1.216a4.823,4.823,0,0,0,1.575-2.344,11.314,11.314,0,0,0,.579-3.64v-.447a11.709,11.709,0,0,0-.56-3.823,4.755,4.755,0,0,0-1.593-2.373l.469-1.216a4.73,4.73,0,0,1,1.908,1.49,8.238,8.238,0,0,1,1.392,2.615,10.355,10.355,0,0,1,.524,3.2Z" transform="translate(724.584 757.845)" fill="#12263f"/>
    <path id="Trazado_914089" data-name="Trazado 914089" d="M10.691-4.092a4.414,4.414,0,0,1-.681,2.229,4.108,4.108,0,0,1-1.747,1.5A5.947,5.947,0,0,1,5.694.166,4.746,4.746,0,0,1,1.942-1.386,6.409,6.409,0,0,1,.573-5.769v-.6a7.316,7.316,0,0,1,.618-3.109,4.686,4.686,0,0,1,1.781-2.059,4.968,4.968,0,0,1,2.689-.726A5.209,5.209,0,0,1,9.2-11.1a4.575,4.575,0,0,1,1.519,3.192H7.811A2.165,2.165,0,0,0,7.255-9.5a2.287,2.287,0,0,0-1.594-.481,1.74,1.74,0,0,0-1.594.813,5.228,5.228,0,0,0-.531,2.6v.855a5.785,5.785,0,0,0,.486,2.764,1.777,1.777,0,0,0,1.673.83A2.237,2.237,0,0,0,7.23-2.59a2.008,2.008,0,0,0,.564-1.5Zm.9-.481a5.3,5.3,0,0,1,.523-2.395,3.74,3.74,0,0,1,1.5-1.615,4.525,4.525,0,0,1,2.3-.564A4.13,4.13,0,0,1,19.092-7.9a4.794,4.794,0,0,1,1.162,3.4v.1a4.651,4.651,0,0,1-1.166,3.333A4.141,4.141,0,0,1,15.929.166a4.188,4.188,0,0,1-3.08-1.15A4.5,4.5,0,0,1,11.6-4.1Zm2.8.174a3.342,3.342,0,0,0,.39,1.826,1.3,1.3,0,0,0,1.154.581q1.494,0,1.527-2.3v-.282q0-2.416-1.544-2.416-1.4,0-1.519,2.083ZM24.13-8.981l.091,1.054a3.088,3.088,0,0,1,2.565-1.22,2.273,2.273,0,0,1,2.3,1.353,2.989,2.989,0,0,1,2.64-1.353q2.731,0,2.806,3.3V0H31.726V-5.669a1.712,1.712,0,0,0-.232-1,.989.989,0,0,0-.847-.315,1.325,1.325,0,0,0-1.237.739l.008.116V0H26.612V-5.653a1.8,1.8,0,0,0-.224-1.021.987.987,0,0,0-.855-.315A1.342,1.342,0,0,0,24.3-6.25V0h-2.8V-8.981ZM44.467-4.424a5.416,5.416,0,0,1-.942,3.341A3.021,3.021,0,0,1,40.981.166a2.589,2.589,0,0,1-2.034-.9V3.453h-2.8V-8.981h2.615l.083.83a2.589,2.589,0,0,1,2.117-1,3.045,3.045,0,0,1,2.582,1.224,5.483,5.483,0,0,1,.921,3.366ZM41.67-4.6q0-2.391-1.395-2.391a1.316,1.316,0,0,0-1.328.714v3.536a1.359,1.359,0,0,0,1.345.747q1.336,0,1.378-2.308ZM51.133-6.45l-.921-.066a1.655,1.655,0,0,0-1.693.83V0h-2.8V-8.981h2.623l.091,1.154A2.166,2.166,0,0,1,50.4-9.147a2.728,2.728,0,0,1,.78.1ZM56.487.166a4.617,4.617,0,0,1-3.345-1.233,4.257,4.257,0,0,1-1.278-3.208v-.232a5.516,5.516,0,0,1,.51-2.432,3.735,3.735,0,0,1,1.49-1.631,4.5,4.5,0,0,1,2.324-.577,3.888,3.888,0,0,1,2.988,1.175,4.616,4.616,0,0,1,1.1,3.275v1.087H54.71a2.016,2.016,0,0,0,.656,1.187,1.951,1.951,0,0,0,1.312.432,2.514,2.514,0,0,0,2.075-.93l1.278,1.511A3.573,3.573,0,0,1,58.55-.261,5.007,5.007,0,0,1,56.487.166Zm-.315-7.155q-1.229,0-1.461,1.627h2.822v-.216a1.386,1.386,0,0,0-.34-1.042A1.354,1.354,0,0,0,56.171-6.989Zm7.794-1.992.091,1.054a3.046,3.046,0,0,1,2.565-1.22,2.562,2.562,0,0,1,2.1.838,3.991,3.991,0,0,1,.718,2.523V0H66.63V-5.669a1.516,1.516,0,0,0-.274-1,1.267,1.267,0,0,0-1-.32,1.334,1.334,0,0,0-1.22.647V0h-2.8V-8.981ZM75.687-2.523a.646.646,0,0,0-.374-.573,5.682,5.682,0,0,0-1.419-.448,6.473,6.473,0,0,1-1.727-.61,2.892,2.892,0,0,1-1.038-.917,2.19,2.19,0,0,1-.357-1.237,2.482,2.482,0,0,1,1.021-2.038,4.206,4.206,0,0,1,2.673-.8,4.66,4.66,0,0,1,2.855.805A2.518,2.518,0,0,1,78.4-6.226H75.6Q75.6-7.3,74.458-7.3a1.127,1.127,0,0,0-.739.245.758.758,0,0,0-.3.61.7.7,0,0,0,.365.606,3.451,3.451,0,0,0,1.166.382,10.078,10.078,0,0,1,1.407.357,2.556,2.556,0,0,1,2.025,2.5,2.352,2.352,0,0,1-1.092,2,4.787,4.787,0,0,1-2.826.772,4.885,4.885,0,0,1-2.059-.415A3.442,3.442,0,0,1,71-1.378a2.556,2.556,0,0,1-.506-1.5H73.1a1.081,1.081,0,0,0,.415.909,1.707,1.707,0,0,0,1.021.286,1.343,1.343,0,0,0,.859-.232A.743.743,0,0,0,75.687-2.523ZM82.643,0H79.837V-8.981h2.806ZM79.671-11.3a1.249,1.249,0,0,1,.432-.979,1.629,1.629,0,0,1,1.121-.382,1.629,1.629,0,0,1,1.121.382,1.249,1.249,0,0,1,.432.979,1.249,1.249,0,0,1-.432.979,1.629,1.629,0,0,1-1.121.382,1.629,1.629,0,0,1-1.121-.382A1.249,1.249,0,0,1,79.671-11.3Zm4.341,6.724a5.3,5.3,0,0,1,.523-2.395,3.74,3.74,0,0,1,1.5-1.615,4.525,4.525,0,0,1,2.3-.564A4.13,4.13,0,0,1,91.516-7.9a4.794,4.794,0,0,1,1.162,3.4v.1a4.651,4.651,0,0,1-1.166,3.333A4.141,4.141,0,0,1,88.354.166a4.188,4.188,0,0,1-3.08-1.15A4.5,4.5,0,0,1,84.021-4.1Zm2.8.174a3.342,3.342,0,0,0,.39,1.826,1.3,1.3,0,0,0,1.154.581q1.494,0,1.527-2.3v-.282q0-2.416-1.544-2.416-1.4,0-1.519,2.083Zm1.909-8.351h2.955l-2.308,2.606H87.083ZM96.48-8.981l.091,1.054a3.046,3.046,0,0,1,2.565-1.22,2.562,2.562,0,0,1,2.1.838,3.991,3.991,0,0,1,.718,2.523V0H99.145V-5.669a1.516,1.516,0,0,0-.274-1,1.267,1.267,0,0,0-1-.32,1.334,1.334,0,0,0-1.22.647V0h-2.8V-8.981Z" transform="translate(744.253 691.4)" fill="#12263f"/>
    <path id="Trazado_914090" data-name="Trazado 914090" d="M7.419-4.519H3.376v2.542H8.152V0H.806V-10.664H8.167v1.985H3.376v2.249H7.419Zm4-3.406.081.93a2.725,2.725,0,0,1,2.263-1.077,2.006,2.006,0,0,1,2.029,1.194A2.637,2.637,0,0,1,18.12-8.071q2.41,0,2.476,2.915V0H18.12V-5a1.511,1.511,0,0,0-.205-.886.873.873,0,0,0-.747-.278,1.169,1.169,0,0,0-1.091.652l.007.1V0H13.608V-4.988a1.588,1.588,0,0,0-.2-.9.87.87,0,0,0-.754-.278,1.184,1.184,0,0,0-1.084.652V0H9.1V-7.925ZM24.609,0H22.134V-7.925h2.476ZM21.987-9.968a1.1,1.1,0,0,1,.381-.864,1.437,1.437,0,0,1,.989-.337,1.437,1.437,0,0,1,.989.337,1.1,1.1,0,0,1,.381.864,1.1,1.1,0,0,1-.381.864,1.437,1.437,0,0,1-.989.337,1.437,1.437,0,0,1-.989-.337A1.1,1.1,0,0,1,21.987-9.968Zm8.291,7.742a.57.57,0,0,0-.33-.505,5.013,5.013,0,0,0-1.252-.4,5.711,5.711,0,0,1-1.523-.538,2.552,2.552,0,0,1-.916-.809,1.933,1.933,0,0,1-.315-1.091,2.19,2.19,0,0,1,.9-1.8A3.711,3.711,0,0,1,29.2-8.071a4.112,4.112,0,0,1,2.52.71,2.222,2.222,0,0,1,.952,1.868H30.2q0-.952-1-.952a1,1,0,0,0-.652.216.669.669,0,0,0-.264.538.614.614,0,0,0,.322.535,3.045,3.045,0,0,0,1.029.337,8.893,8.893,0,0,1,1.241.315,2.255,2.255,0,0,1,1.787,2.2A2.075,2.075,0,0,1,31.7-.535,4.224,4.224,0,0,1,29.2.146,4.31,4.31,0,0,1,27.385-.22a3.037,3.037,0,0,1-1.245-1,2.256,2.256,0,0,1-.447-1.326H28a.954.954,0,0,0,.366.8,1.506,1.506,0,0,0,.9.253,1.185,1.185,0,0,0,.758-.205A.656.656,0,0,0,30.278-2.227ZM33.5-4.036a4.677,4.677,0,0,1,.461-2.113,3.3,3.3,0,0,1,1.326-1.425,3.993,3.993,0,0,1,2.029-.5,3.644,3.644,0,0,1,2.805,1.1,4.23,4.23,0,0,1,1.025,3v.088A4.1,4.1,0,0,1,40.118-.941,3.654,3.654,0,0,1,37.332.146,3.7,3.7,0,0,1,34.614-.868a3.968,3.968,0,0,1-1.106-2.75Zm2.468.154a2.949,2.949,0,0,0,.344,1.611,1.147,1.147,0,0,0,1.018.513q1.318,0,1.348-2.029v-.249q0-2.131-1.362-2.131-1.238,0-1.34,1.838Zm11.06-1.809-.813-.059a1.46,1.46,0,0,0-1.494.732V0H42.253V-7.925h2.314l.081,1.018a1.911,1.911,0,0,1,1.736-1.165,2.407,2.407,0,0,1,.688.088Z" transform="translate(586.718 1097.133)" fill="#12263f"/>
    <path id="Trazado_914091" data-name="Trazado 914091" d="M9.434-3.611a3.9,3.9,0,0,1-.6,1.967A3.625,3.625,0,0,1,7.291-.322,5.248,5.248,0,0,1,5.024.146a4.188,4.188,0,0,1-3.311-1.37A5.655,5.655,0,0,1,.505-5.09v-.527a6.455,6.455,0,0,1,.546-2.743,4.134,4.134,0,0,1,1.571-1.816A4.383,4.383,0,0,1,5-10.818,4.6,4.6,0,0,1,8.115-9.8,4.037,4.037,0,0,1,9.456-6.98H6.892a1.91,1.91,0,0,0-.491-1.4A2.018,2.018,0,0,0,5-8.8a1.536,1.536,0,0,0-1.406.718A4.613,4.613,0,0,0,3.12-5.793v.754A5.1,5.1,0,0,0,3.549-2.6a1.568,1.568,0,0,0,1.476.732,1.974,1.974,0,0,0,1.355-.417,1.772,1.772,0,0,0,.5-1.326Zm.791-.425a4.677,4.677,0,0,1,.461-2.113,3.3,3.3,0,0,1,1.326-1.425,3.993,3.993,0,0,1,2.029-.5,3.644,3.644,0,0,1,2.805,1.1,4.23,4.23,0,0,1,1.025,3v.088A4.1,4.1,0,0,1,16.842-.941,3.654,3.654,0,0,1,14.055.146,3.7,3.7,0,0,1,11.338-.868a3.968,3.968,0,0,1-1.106-2.75Zm2.468.154a2.949,2.949,0,0,0,.344,1.611,1.147,1.147,0,0,0,1.018.513q1.318,0,1.348-2.029v-.249q0-2.131-1.362-2.131-1.238,0-1.34,1.838Zm5.955-.139a4.841,4.841,0,0,1,.813-2.966,2.676,2.676,0,0,1,2.271-1.084,2.276,2.276,0,0,1,1.787.835V-11.25h2.476V0H23.774L23.65-.85a2.337,2.337,0,0,1-1.934,1A2.671,2.671,0,0,1,19.475-.937,4.994,4.994,0,0,1,18.647-4.021Zm2.468.154q0,2.109,1.23,2.109a1.215,1.215,0,0,0,1.172-.688V-5.464a1.182,1.182,0,0,0-1.157-.7q-1.143,0-1.238,1.846ZM30,0H27.524V-7.925H30ZM27.378-9.968a1.1,1.1,0,0,1,.381-.864,1.437,1.437,0,0,1,.989-.337,1.437,1.437,0,0,1,.989.337,1.1,1.1,0,0,1,.381.864,1.1,1.1,0,0,1-.381.864,1.437,1.437,0,0,1-.989.337,1.437,1.437,0,0,1-.989-.337A1.1,1.1,0,0,1,27.378-9.968ZM32.095,0V-6.211h-1.15V-7.925h1.15v-.264a3.026,3.026,0,0,1,1.04-2.424,4.156,4.156,0,0,1,2.7-.791,9.591,9.591,0,0,1,2.578.425l-.337,1.948-.41-.11a6.527,6.527,0,0,0-1.685-.212q-1.414,0-1.414,1.289v.139h1.553v1.714H34.57V0Zm7.456,0H37.068V-7.925h2.483Zm4.856-1.758a1.1,1.1,0,0,0,.806-.282,1.034,1.034,0,0,0,.278-.787h2.314a2.74,2.74,0,0,1-.934,2.139,3.474,3.474,0,0,1-2.406.835A3.517,3.517,0,0,1,41.741-.937a4.271,4.271,0,0,1-1-3v-.1a4.827,4.827,0,0,1,.443-2.12,3.226,3.226,0,0,1,1.278-1.414,3.811,3.811,0,0,1,1.978-.494,3.43,3.43,0,0,1,2.454.857,3.039,3.039,0,0,1,.908,2.322H45.491a1.355,1.355,0,0,0-.3-.945,1.037,1.037,0,0,0-.806-.33q-.959,0-1.121,1.223a8.631,8.631,0,0,0-.051,1.069A3.39,3.39,0,0,0,43.5-2.219.989.989,0,0,0,44.407-1.758ZM53.313,0a2.787,2.787,0,0,1-.234-.71,2.3,2.3,0,0,1-1.9.857,2.812,2.812,0,0,1-1.9-.677,2.156,2.156,0,0,1-.784-1.7,2.216,2.216,0,0,1,.952-1.948,4.851,4.851,0,0,1,2.769-.659h.762v-.417q0-1.091-.945-1.091a.77.77,0,0,0-.879.864H48.677a2.216,2.216,0,0,1,.978-1.868,4.106,4.106,0,0,1,2.494-.718,3.6,3.6,0,0,1,2.4.74,2.572,2.572,0,0,1,.9,2.029v3.508a3.593,3.593,0,0,0,.337,1.67V0ZM51.768-1.611a1.377,1.377,0,0,0,.765-.2,1.239,1.239,0,0,0,.436-.447V-3.523h-.718q-1.289,0-1.289,1.157a.707.707,0,0,0,.227.546A.822.822,0,0,0,51.768-1.611ZM56.5-4.021a4.841,4.841,0,0,1,.813-2.966,2.676,2.676,0,0,1,2.271-1.084,2.276,2.276,0,0,1,1.787.835V-11.25h2.476V0H61.626L61.5-.85a2.337,2.337,0,0,1-1.934,1A2.671,2.671,0,0,1,57.327-.937,4.994,4.994,0,0,1,56.5-4.021Zm2.468.154q0,2.109,1.23,2.109a1.215,1.215,0,0,0,1.172-.688V-5.464a1.182,1.182,0,0,0-1.157-.7q-1.143,0-1.238,1.846Zm5.969-.168A4.677,4.677,0,0,1,65.4-6.149a3.3,3.3,0,0,1,1.326-1.425,3.993,3.993,0,0,1,2.029-.5,3.644,3.644,0,0,1,2.805,1.1,4.23,4.23,0,0,1,1.025,3v.088A4.1,4.1,0,0,1,71.554-.941,3.654,3.654,0,0,1,68.767.146,3.7,3.7,0,0,1,66.05-.868a3.968,3.968,0,0,1-1.106-2.75Zm2.468.154a2.949,2.949,0,0,0,.344,1.611,1.147,1.147,0,0,0,1.018.513q1.318,0,1.348-2.029v-.249q0-2.131-1.362-2.131-1.238,0-1.34,1.838Zm11.06-1.809-.813-.059a1.46,1.46,0,0,0-1.494.732V0H73.689V-7.925H76l.081,1.018A1.911,1.911,0,0,1,77.82-8.071a2.407,2.407,0,0,1,.688.088Z" transform="translate(674.718 970.999)" fill="#12263f"/>
    <path id="Trazado_914092" data-name="Trazado 914092" d="M.806,0V-10.664H4.241a5.053,5.053,0,0,1,2.542.641A4.5,4.5,0,0,1,8.544-8.214,5.462,5.462,0,0,1,9.185-5.6V-5.1a5.494,5.494,0,0,1-.619,2.626A4.524,4.524,0,0,1,6.823-.663,4.942,4.942,0,0,1,4.314,0ZM3.376-8.679v6.7H4.27a2,2,0,0,0,1.7-.787A3.858,3.858,0,0,0,6.563-5.1v-.461A3.827,3.827,0,0,0,5.969-7.9a2.035,2.035,0,0,0-1.729-.784ZM14.224.146A4.074,4.074,0,0,1,11.272-.941a3.756,3.756,0,0,1-1.128-2.831v-.205a4.867,4.867,0,0,1,.45-2.146,3.3,3.3,0,0,1,1.315-1.439,3.969,3.969,0,0,1,2.051-.509A3.43,3.43,0,0,1,16.6-7.035a4.073,4.073,0,0,1,.967,2.889v.959H12.656a1.779,1.779,0,0,0,.579,1.047,1.722,1.722,0,0,0,1.157.381,2.218,2.218,0,0,0,1.831-.82l1.128,1.333A3.153,3.153,0,0,1,16.044-.231,4.418,4.418,0,0,1,14.224.146Zm-.278-6.313q-1.084,0-1.289,1.436h2.49v-.19a1.223,1.223,0,0,0-.3-.919A1.2,1.2,0,0,0,13.945-6.167Zm7.961,4.409a1.1,1.1,0,0,0,.806-.282,1.034,1.034,0,0,0,.278-.787h2.314a2.74,2.74,0,0,1-.934,2.139,3.474,3.474,0,0,1-2.406.835A3.517,3.517,0,0,1,19.241-.937a4.271,4.271,0,0,1-1-3v-.1a4.827,4.827,0,0,1,.443-2.12,3.226,3.226,0,0,1,1.278-1.414,3.811,3.811,0,0,1,1.978-.494,3.43,3.43,0,0,1,2.454.857,3.039,3.039,0,0,1,.908,2.322H22.991a1.355,1.355,0,0,0-.3-.945,1.037,1.037,0,0,0-.806-.33q-.959,0-1.121,1.223a8.631,8.631,0,0,0-.051,1.069A3.39,3.39,0,0,0,21-2.219.989.989,0,0,0,21.907-1.758Zm4.131-2.278A4.677,4.677,0,0,1,26.5-6.149a3.3,3.3,0,0,1,1.326-1.425,3.993,3.993,0,0,1,2.029-.5,3.644,3.644,0,0,1,2.805,1.1,4.23,4.23,0,0,1,1.025,3v.088A4.1,4.1,0,0,1,32.655-.941,3.654,3.654,0,0,1,29.868.146,3.7,3.7,0,0,1,27.151-.868a3.968,3.968,0,0,1-1.106-2.75Zm2.468.154a2.949,2.949,0,0,0,.344,1.611,1.147,1.147,0,0,0,1.018.513q1.318,0,1.348-2.029v-.249q0-2.131-1.362-2.131-1.238,0-1.34,1.838Zm5.955-.139a4.841,4.841,0,0,1,.813-2.966,2.676,2.676,0,0,1,2.271-1.084,2.276,2.276,0,0,1,1.787.835V-11.25h2.476V0H39.587l-.125-.85a2.337,2.337,0,0,1-1.934,1A2.671,2.671,0,0,1,35.288-.937,4.994,4.994,0,0,1,34.46-4.021Zm2.468.154q0,2.109,1.23,2.109a1.215,1.215,0,0,0,1.172-.688V-5.464a1.182,1.182,0,0,0-1.157-.7q-1.143,0-1.238,1.846ZM45.813,0H43.337V-7.925h2.476ZM43.191-9.968a1.1,1.1,0,0,1,.381-.864,1.437,1.437,0,0,1,.989-.337,1.437,1.437,0,0,1,.989.337,1.1,1.1,0,0,1,.381.864,1.1,1.1,0,0,1-.381.864,1.437,1.437,0,0,1-.989.337,1.437,1.437,0,0,1-.989-.337A1.1,1.1,0,0,1,43.191-9.968ZM47.908,0V-6.211h-1.15V-7.925h1.15v-.264a3.026,3.026,0,0,1,1.04-2.424,4.156,4.156,0,0,1,2.7-.791,9.591,9.591,0,0,1,2.578.425l-.337,1.948-.41-.11A6.527,6.527,0,0,0,51.8-9.353q-1.414,0-1.414,1.289v.139h1.553v1.714H50.383V0Zm7.456,0H52.881V-7.925h2.483ZM60.22-1.758a1.1,1.1,0,0,0,.806-.282,1.034,1.034,0,0,0,.278-.787h2.314a2.74,2.74,0,0,1-.934,2.139,3.474,3.474,0,0,1-2.406.835A3.517,3.517,0,0,1,57.554-.937a4.271,4.271,0,0,1-1-3v-.1A4.827,4.827,0,0,1,57-6.163a3.226,3.226,0,0,1,1.278-1.414,3.811,3.811,0,0,1,1.978-.494,3.43,3.43,0,0,1,2.454.857,3.039,3.039,0,0,1,.908,2.322H61.3a1.355,1.355,0,0,0-.3-.945,1.037,1.037,0,0,0-.806-.33q-.959,0-1.121,1.223a8.631,8.631,0,0,0-.051,1.069,3.39,3.39,0,0,0,.286,1.655A.989.989,0,0,0,60.22-1.758ZM69.126,0a2.787,2.787,0,0,1-.234-.71,2.3,2.3,0,0,1-1.9.857,2.812,2.812,0,0,1-1.9-.677,2.156,2.156,0,0,1-.784-1.7,2.216,2.216,0,0,1,.952-1.948,4.851,4.851,0,0,1,2.769-.659h.762v-.417q0-1.091-.945-1.091a.77.77,0,0,0-.879.864H64.49a2.216,2.216,0,0,1,.978-1.868,4.106,4.106,0,0,1,2.494-.718,3.6,3.6,0,0,1,2.4.74,2.572,2.572,0,0,1,.9,2.029v3.508a3.593,3.593,0,0,0,.337,1.67V0ZM67.581-1.611a1.377,1.377,0,0,0,.765-.2,1.239,1.239,0,0,0,.436-.447V-3.523h-.718q-1.289,0-1.289,1.157A.707.707,0,0,0,67-1.82.822.822,0,0,0,67.581-1.611Zm4.731-2.41a4.841,4.841,0,0,1,.813-2.966A2.676,2.676,0,0,1,75.4-8.071a2.276,2.276,0,0,1,1.787.835V-11.25h2.476V0H77.439l-.125-.85a2.337,2.337,0,0,1-1.934,1A2.671,2.671,0,0,1,73.14-.937,4.994,4.994,0,0,1,72.312-4.021Zm2.468.154q0,2.109,1.23,2.109a1.215,1.215,0,0,0,1.172-.688V-5.464a1.182,1.182,0,0,0-1.157-.7q-1.143,0-1.238,1.846Zm5.969-.168a4.677,4.677,0,0,1,.461-2.113,3.3,3.3,0,0,1,1.326-1.425,3.993,3.993,0,0,1,2.029-.5,3.644,3.644,0,0,1,2.805,1.1,4.23,4.23,0,0,1,1.025,3v.088A4.1,4.1,0,0,1,87.367-.941,3.654,3.654,0,0,1,84.58.146,3.7,3.7,0,0,1,81.863-.868a3.968,3.968,0,0,1-1.106-2.75Zm2.468.154a2.949,2.949,0,0,0,.344,1.611,1.147,1.147,0,0,0,1.018.513q1.318,0,1.348-2.029v-.249q0-2.131-1.362-2.131-1.238,0-1.34,1.838Zm11.06-1.809-.813-.059a1.46,1.46,0,0,0-1.494.732V0H89.5V-7.925h2.314L91.9-6.907a1.911,1.911,0,0,1,1.736-1.165,2.407,2.407,0,0,1,.688.088Z" transform="translate(849.739 970.999)" fill="#12263f"/>
    <path id="Trazado_914093" data-name="Trazado 914093" d="M9.434-3.611a3.9,3.9,0,0,1-.6,1.967A3.625,3.625,0,0,1,7.291-.322,5.248,5.248,0,0,1,5.024.146a4.188,4.188,0,0,1-3.311-1.37A5.655,5.655,0,0,1,.505-5.09v-.527a6.455,6.455,0,0,1,.546-2.743,4.134,4.134,0,0,1,1.571-1.816A4.383,4.383,0,0,1,5-10.818,4.6,4.6,0,0,1,8.115-9.8,4.037,4.037,0,0,1,9.456-6.98H6.892a1.91,1.91,0,0,0-.491-1.4A2.018,2.018,0,0,0,5-8.8a1.536,1.536,0,0,0-1.406.718A4.613,4.613,0,0,0,3.12-5.793v.754A5.1,5.1,0,0,0,3.549-2.6a1.568,1.568,0,0,0,1.476.732,1.974,1.974,0,0,0,1.355-.417,1.772,1.772,0,0,0,.5-1.326ZM15,0a2.787,2.787,0,0,1-.234-.71,2.3,2.3,0,0,1-1.9.857,2.812,2.812,0,0,1-1.9-.677,2.156,2.156,0,0,1-.784-1.7,2.216,2.216,0,0,1,.952-1.948,4.851,4.851,0,0,1,2.769-.659h.762v-.417q0-1.091-.945-1.091a.77.77,0,0,0-.879.864H10.364a2.216,2.216,0,0,1,.978-1.868,4.106,4.106,0,0,1,2.494-.718,3.6,3.6,0,0,1,2.4.74,2.572,2.572,0,0,1,.9,2.029v3.508a3.593,3.593,0,0,0,.337,1.67V0ZM13.455-1.611a1.377,1.377,0,0,0,.765-.2,1.239,1.239,0,0,0,.436-.447V-3.523h-.718q-1.289,0-1.289,1.157a.707.707,0,0,0,.227.546A.822.822,0,0,0,13.455-1.611Zm7.31-6.313.081.93a2.687,2.687,0,0,1,2.263-1.077,2.261,2.261,0,0,1,1.849.74A3.522,3.522,0,0,1,25.591-5.1V0H23.115V-5a1.337,1.337,0,0,0-.242-.883,1.118,1.118,0,0,0-.879-.282,1.177,1.177,0,0,0-1.077.571V0H18.45V-7.925ZM31.421,0a2.787,2.787,0,0,1-.234-.71,2.3,2.3,0,0,1-1.9.857,2.812,2.812,0,0,1-1.9-.677,2.156,2.156,0,0,1-.784-1.7,2.216,2.216,0,0,1,.952-1.948,4.851,4.851,0,0,1,2.769-.659h.762v-.417q0-1.091-.945-1.091a.77.77,0,0,0-.879.864H26.785a2.216,2.216,0,0,1,.978-1.868,4.106,4.106,0,0,1,2.494-.718,3.6,3.6,0,0,1,2.4.74,2.572,2.572,0,0,1,.9,2.029v3.508a3.593,3.593,0,0,0,.337,1.67V0ZM29.875-1.611a1.377,1.377,0,0,0,.765-.2,1.239,1.239,0,0,0,.436-.447V-3.523h-.718q-1.289,0-1.289,1.157a.707.707,0,0,0,.227.546A.822.822,0,0,0,29.875-1.611ZM37.522,0H35.046V-11.25h2.476Z" transform="translate(779.34 1166.555)" fill="#12263f"/>
    <path id="Trazado_914094" data-name="Trazado 914094" d="M4.182-10.664l2.38,7.419,2.373-7.419h3.384V0H9.741V-2.49l.249-5.1L7.412,0h-1.7L3.127-7.6l.249,5.1V0H.806V-10.664ZM17.673.146A4.074,4.074,0,0,1,14.722-.941a3.756,3.756,0,0,1-1.128-2.831v-.205a4.867,4.867,0,0,1,.45-2.146,3.3,3.3,0,0,1,1.315-1.439,3.969,3.969,0,0,1,2.051-.509,3.43,3.43,0,0,1,2.637,1.036,4.073,4.073,0,0,1,.967,2.889v.959H16.106a1.779,1.779,0,0,0,.579,1.047,1.722,1.722,0,0,0,1.157.381,2.218,2.218,0,0,0,1.831-.82L20.8-1.245A3.153,3.153,0,0,1,19.493-.231,4.418,4.418,0,0,1,17.673.146ZM17.4-6.167q-1.084,0-1.289,1.436H18.6v-.19a1.223,1.223,0,0,0-.3-.919A1.2,1.2,0,0,0,17.4-6.167Zm6.877-1.758.081.93a2.687,2.687,0,0,1,2.263-1.077,2.261,2.261,0,0,1,1.849.74A3.522,3.522,0,0,1,29.1-5.1V0H26.624V-5a1.337,1.337,0,0,0-.242-.883,1.118,1.118,0,0,0-.879-.282,1.177,1.177,0,0,0-1.077.571V0H21.958V-7.925Zm10.342,5.7a.57.57,0,0,0-.33-.505,5.013,5.013,0,0,0-1.252-.4,5.711,5.711,0,0,1-1.523-.538,2.552,2.552,0,0,1-.916-.809,1.933,1.933,0,0,1-.315-1.091,2.19,2.19,0,0,1,.9-1.8,3.711,3.711,0,0,1,2.358-.707,4.112,4.112,0,0,1,2.52.71,2.222,2.222,0,0,1,.952,1.868H34.534q0-.952-1-.952a1,1,0,0,0-.652.216.669.669,0,0,0-.264.538.614.614,0,0,0,.322.535,3.045,3.045,0,0,0,1.029.337,8.893,8.893,0,0,1,1.241.315,2.255,2.255,0,0,1,1.787,2.2,2.075,2.075,0,0,1-.963,1.765,4.224,4.224,0,0,1-2.494.681A4.31,4.31,0,0,1,31.721-.22a3.037,3.037,0,0,1-1.245-1,2.256,2.256,0,0,1-.447-1.326h2.307a.954.954,0,0,0,.366.8,1.506,1.506,0,0,0,.9.253,1.185,1.185,0,0,0,.758-.205A.656.656,0,0,0,34.614-2.227Zm8,2.227a2.787,2.787,0,0,1-.234-.71,2.3,2.3,0,0,1-1.9.857,2.812,2.812,0,0,1-1.9-.677,2.156,2.156,0,0,1-.784-1.7,2.216,2.216,0,0,1,.952-1.948,4.851,4.851,0,0,1,2.769-.659h.762v-.417q0-1.091-.945-1.091a.77.77,0,0,0-.879.864H37.976a2.216,2.216,0,0,1,.978-1.868,4.106,4.106,0,0,1,2.494-.718,3.6,3.6,0,0,1,2.4.74,2.572,2.572,0,0,1,.9,2.029v3.508a3.593,3.593,0,0,0,.337,1.67V0ZM41.067-1.611a1.377,1.377,0,0,0,.765-.2,1.239,1.239,0,0,0,.436-.447V-3.523H41.55q-1.289,0-1.289,1.157a.707.707,0,0,0,.227.546A.822.822,0,0,0,41.067-1.611Zm7.7-6.313v8.2a2.877,2.877,0,0,1-.806,2.168,3.1,3.1,0,0,1-2.227.762,5.257,5.257,0,0,1-1.165-.125V1.208a4.722,4.722,0,0,0,.7.066A.9.9,0,0,0,46.289.256V-7.925ZM46.106-9.968a1.1,1.1,0,0,1,.381-.864,1.437,1.437,0,0,1,.989-.337,1.437,1.437,0,0,1,.989.337,1.1,1.1,0,0,1,.381.864,1.1,1.1,0,0,1-.381.864,1.437,1.437,0,0,1-.989.337,1.437,1.437,0,0,1-.989-.337A1.1,1.1,0,0,1,46.106-9.968ZM53.994.146A4.074,4.074,0,0,1,51.042-.941a3.756,3.756,0,0,1-1.128-2.831v-.205a4.867,4.867,0,0,1,.45-2.146A3.3,3.3,0,0,1,51.68-7.562a3.969,3.969,0,0,1,2.051-.509,3.43,3.43,0,0,1,2.637,1.036,4.073,4.073,0,0,1,.967,2.889v.959H52.427a1.779,1.779,0,0,0,.579,1.047,1.722,1.722,0,0,0,1.157.381,2.218,2.218,0,0,0,1.831-.82l1.128,1.333A3.153,3.153,0,0,1,55.814-.231,4.418,4.418,0,0,1,53.994.146Zm-.278-6.313q-1.084,0-1.289,1.436h2.49v-.19a1.223,1.223,0,0,0-.3-.919A1.2,1.2,0,0,0,53.716-6.167Z" transform="translate(767.606 1036.51)" fill="#12263f"/>
    <path id="Trazado_914095" data-name="Trazado 914095" d="M4.768-3.765H3.376V0H.806V-10.664H5a4.681,4.681,0,0,1,2.966.842,2.855,2.855,0,0,1,1.069,2.38A3.469,3.469,0,0,1,8.588-5.6a3.2,3.2,0,0,1-1.41,1.187L9.4-.11V0H6.65ZM3.376-5.75H5a1.462,1.462,0,0,0,1.1-.385,1.484,1.484,0,0,0,.37-1.073A1.5,1.5,0,0,0,6.1-8.287,1.448,1.448,0,0,0,5-8.679H3.376ZM14.312.146A4.074,4.074,0,0,1,11.36-.941a3.756,3.756,0,0,1-1.128-2.831v-.205a4.867,4.867,0,0,1,.45-2.146A3.3,3.3,0,0,1,12-7.562a3.969,3.969,0,0,1,2.051-.509,3.43,3.43,0,0,1,2.637,1.036,4.073,4.073,0,0,1,.967,2.889v.959H12.744a1.779,1.779,0,0,0,.579,1.047,1.722,1.722,0,0,0,1.157.381,2.218,2.218,0,0,0,1.831-.82l1.128,1.333A3.153,3.153,0,0,1,16.132-.231,4.418,4.418,0,0,1,14.312.146Zm-.278-6.313q-1.084,0-1.289,1.436h2.49v-.19a1.223,1.223,0,0,0-.3-.919A1.2,1.2,0,0,0,14.033-6.167Zm7.961,4.409A1.1,1.1,0,0,0,22.8-2.04a1.034,1.034,0,0,0,.278-.787h2.314a2.74,2.74,0,0,1-.934,2.139,3.474,3.474,0,0,1-2.406.835A3.517,3.517,0,0,1,19.329-.937a4.271,4.271,0,0,1-1-3v-.1a4.827,4.827,0,0,1,.443-2.12,3.226,3.226,0,0,1,1.278-1.414,3.811,3.811,0,0,1,1.978-.494,3.43,3.43,0,0,1,2.454.857,3.039,3.039,0,0,1,.908,2.322H23.079a1.355,1.355,0,0,0-.3-.945,1.037,1.037,0,0,0-.806-.33q-.959,0-1.121,1.223A8.631,8.631,0,0,0,20.8-3.875a3.39,3.39,0,0,0,.286,1.655A.989.989,0,0,0,21.995-1.758Zm8.276,1.9A4.074,4.074,0,0,1,27.319-.941a3.756,3.756,0,0,1-1.128-2.831v-.205a4.867,4.867,0,0,1,.45-2.146,3.3,3.3,0,0,1,1.315-1.439,3.969,3.969,0,0,1,2.051-.509,3.43,3.43,0,0,1,2.637,1.036,4.073,4.073,0,0,1,.967,2.889v.959H28.7a1.779,1.779,0,0,0,.579,1.047,1.722,1.722,0,0,0,1.157.381,2.218,2.218,0,0,0,1.831-.82L33.4-1.245A3.153,3.153,0,0,1,32.091-.231,4.418,4.418,0,0,1,30.271.146Zm-.278-6.313q-1.084,0-1.289,1.436h2.49v-.19a1.223,1.223,0,0,0-.3-.919A1.2,1.2,0,0,0,29.993-6.167ZM41.96-3.9a4.779,4.779,0,0,1-.831,2.948,2.665,2.665,0,0,1-2.245,1.1,2.285,2.285,0,0,1-1.794-.8v3.7H34.622V-7.925h2.307L37-7.192a2.285,2.285,0,0,1,1.868-.879,2.687,2.687,0,0,1,2.278,1.08,4.838,4.838,0,0,1,.813,2.97Zm-2.468-.154q0-2.109-1.23-2.109a1.162,1.162,0,0,0-1.172.63v3.12a1.2,1.2,0,0,0,1.187.659q1.179,0,1.216-2.036ZM45.923-9.9v1.97h1.3v1.714h-1.3v3.625a.926.926,0,0,0,.161.623.864.864,0,0,0,.637.176,3.621,3.621,0,0,0,.615-.044V-.066a4.555,4.555,0,0,1-1.392.212,2.586,2.586,0,0,1-1.882-.6,2.462,2.462,0,0,1-.608-1.824V-6.211H42.444V-7.925h1.011V-9.9Zm1.743,5.859a4.677,4.677,0,0,1,.461-2.113,3.3,3.3,0,0,1,1.326-1.425,3.993,3.993,0,0,1,2.029-.5,3.644,3.644,0,0,1,2.805,1.1,4.23,4.23,0,0,1,1.025,3v.088A4.1,4.1,0,0,1,54.283-.941,3.654,3.654,0,0,1,51.5.146,3.7,3.7,0,0,1,48.779-.868a3.968,3.968,0,0,1-1.106-2.75Zm2.468.154a2.949,2.949,0,0,0,.344,1.611,1.147,1.147,0,0,0,1.018.513q1.318,0,1.348-2.029v-.249q0-2.131-1.362-2.131-1.238,0-1.34,1.838Zm11.06-1.809-.813-.059a1.46,1.46,0,0,0-1.494.732V0H56.418V-7.925h2.314l.081,1.018a1.911,1.911,0,0,1,1.736-1.165,2.407,2.407,0,0,1,.688.088Z" transform="translate(953.383 1190.999)" fill="#12263f"/>
    <path id="Trazado_914096" data-name="Trazado 914096" d="M4.182-10.664l2.38,7.419,2.373-7.419h3.384V0H9.741V-2.49l.249-5.1L7.412,0h-1.7L3.127-7.6l.249,5.1V0H.806V-10.664ZM17.673.146A4.074,4.074,0,0,1,14.722-.941a3.756,3.756,0,0,1-1.128-2.831v-.205a4.867,4.867,0,0,1,.45-2.146,3.3,3.3,0,0,1,1.315-1.439,3.969,3.969,0,0,1,2.051-.509,3.43,3.43,0,0,1,2.637,1.036,4.073,4.073,0,0,1,.967,2.889v.959H16.106a1.779,1.779,0,0,0,.579,1.047,1.722,1.722,0,0,0,1.157.381,2.218,2.218,0,0,0,1.831-.82L20.8-1.245A3.153,3.153,0,0,1,19.493-.231,4.418,4.418,0,0,1,17.673.146ZM17.4-6.167q-1.084,0-1.289,1.436H18.6v-.19a1.223,1.223,0,0,0-.3-.919A1.2,1.2,0,0,0,17.4-6.167Zm6.877-1.758.081.93a2.687,2.687,0,0,1,2.263-1.077,2.261,2.261,0,0,1,1.849.74A3.522,3.522,0,0,1,29.1-5.1V0H26.624V-5a1.337,1.337,0,0,0-.242-.883,1.118,1.118,0,0,0-.879-.282,1.177,1.177,0,0,0-1.077.571V0H21.958V-7.925Zm10.342,5.7a.57.57,0,0,0-.33-.505,5.013,5.013,0,0,0-1.252-.4,5.711,5.711,0,0,1-1.523-.538,2.552,2.552,0,0,1-.916-.809,1.933,1.933,0,0,1-.315-1.091,2.19,2.19,0,0,1,.9-1.8,3.711,3.711,0,0,1,2.358-.707,4.112,4.112,0,0,1,2.52.71,2.222,2.222,0,0,1,.952,1.868H34.534q0-.952-1-.952a1,1,0,0,0-.652.216.669.669,0,0,0-.264.538.614.614,0,0,0,.322.535,3.045,3.045,0,0,0,1.029.337,8.893,8.893,0,0,1,1.241.315,2.255,2.255,0,0,1,1.787,2.2,2.075,2.075,0,0,1-.963,1.765,4.224,4.224,0,0,1-2.494.681A4.31,4.31,0,0,1,31.721-.22a3.037,3.037,0,0,1-1.245-1,2.256,2.256,0,0,1-.447-1.326h2.307a.954.954,0,0,0,.366.8,1.506,1.506,0,0,0,.9.253,1.185,1.185,0,0,0,.758-.205A.656.656,0,0,0,34.614-2.227Zm8,2.227a2.787,2.787,0,0,1-.234-.71,2.3,2.3,0,0,1-1.9.857,2.812,2.812,0,0,1-1.9-.677,2.156,2.156,0,0,1-.784-1.7,2.216,2.216,0,0,1,.952-1.948,4.851,4.851,0,0,1,2.769-.659h.762v-.417q0-1.091-.945-1.091a.77.77,0,0,0-.879.864H37.976a2.216,2.216,0,0,1,.978-1.868,4.106,4.106,0,0,1,2.494-.718,3.6,3.6,0,0,1,2.4.74,2.572,2.572,0,0,1,.9,2.029v3.508a3.593,3.593,0,0,0,.337,1.67V0ZM41.067-1.611a1.377,1.377,0,0,0,.765-.2,1.239,1.239,0,0,0,.436-.447V-3.523H41.55q-1.289,0-1.289,1.157a.707.707,0,0,0,.227.546A.822.822,0,0,0,41.067-1.611Zm7.7-6.313v8.2a2.877,2.877,0,0,1-.806,2.168,3.1,3.1,0,0,1-2.227.762,5.257,5.257,0,0,1-1.165-.125V1.208a4.722,4.722,0,0,0,.7.066A.9.9,0,0,0,46.289.256V-7.925ZM46.106-9.968a1.1,1.1,0,0,1,.381-.864,1.437,1.437,0,0,1,.989-.337,1.437,1.437,0,0,1,.989.337,1.1,1.1,0,0,1,.381.864,1.1,1.1,0,0,1-.381.864,1.437,1.437,0,0,1-.989.337,1.437,1.437,0,0,1-.989-.337A1.1,1.1,0,0,1,46.106-9.968ZM53.994.146A4.074,4.074,0,0,1,51.042-.941a3.756,3.756,0,0,1-1.128-2.831v-.205a4.867,4.867,0,0,1,.45-2.146A3.3,3.3,0,0,1,51.68-7.562a3.969,3.969,0,0,1,2.051-.509,3.43,3.43,0,0,1,2.637,1.036,4.073,4.073,0,0,1,.967,2.889v.959H52.427a1.779,1.779,0,0,0,.579,1.047,1.722,1.722,0,0,0,1.157.381,2.218,2.218,0,0,0,1.831-.82l1.128,1.333A3.153,3.153,0,0,1,55.814-.231,4.418,4.418,0,0,1,53.994.146Zm-.278-6.313q-1.084,0-1.289,1.436h2.49v-.19a1.223,1.223,0,0,0-.3-.919A1.2,1.2,0,0,0,53.716-6.167Z" transform="translate(869.295 793.045)" fill="#12263f"/>
  </g>
</svg>
