<svg id="Grupo_1102995" data-name="Grupo 1102995" xmlns="http://www.w3.org/2000/svg" width="95.764" height="95.764" viewBox="0 0 95.764 95.764">
  <g id="Grupo_1103004" data-name="Grupo 1103004" transform="translate(0)">
    <g id="Grupo_1103002" data-name="Grupo 1103002">
      <g id="Grupo_1102995-2" data-name="Grupo 1102995" transform="translate(0 36.562)">
        <path id="Trazado_913101" data-name="Trazado 913101" d="M99.565,211.288a1.444,1.444,0,0,1-1.444-1.444v-9.021a5.349,5.349,0,0,1,5.343-5.343h17.472a5.349,5.349,0,0,1,5.343,5.343v5.325a1.444,1.444,0,1,1-2.888,0v-5.325a2.458,2.458,0,0,0-2.455-2.455H103.463a2.458,2.458,0,0,0-2.455,2.455v9.021a1.444,1.444,0,0,1-1.444,1.444Z" transform="translate(-79.769 -195.48)" fill="#ffbd45"/>
        <path id="Trazado_913102" data-name="Trazado 913102" d="M70.749,371.366H19.533a3.9,3.9,0,0,1-3.9-3.9V342.909a3.9,3.9,0,0,1,3.9-3.9H70.749a3.9,3.9,0,0,1,3.9,3.9v24.558A3.9,3.9,0,0,1,70.749,371.366Z" transform="translate(-12.71 -312.164)" fill="#b0c0d2"/>
        <path id="Trazado_913103" data-name="Trazado 913103" d="M285.2,339.01h-5.775a3.9,3.9,0,0,1,3.9,3.9v24.558a3.9,3.9,0,0,1-3.9,3.9H285.2a3.9,3.9,0,0,0,3.9-3.9V342.909a3.9,3.9,0,0,0-3.9-3.9Z" transform="translate(-227.163 -312.164)" fill="#b0c0d2"/>
        <path id="Trazado_913104" data-name="Trazado 913104" d="M60.963,284.871H3.9a3.9,3.9,0,0,1-3.9-3.9V256.414a3.9,3.9,0,0,1,3.9-3.9H60.963a3.9,3.9,0,0,1,3.9,3.9v24.558A3.9,3.9,0,0,1,60.963,284.871Z" transform="translate(0 -241.847)" fill="#4045ab"/>
        <path id="Trazado_913105" data-name="Trazado 913105" d="M300.836,252.515h-5.775a3.9,3.9,0,0,1,3.9,3.9v24.558a3.9,3.9,0,0,1-3.9,3.9h5.775a3.9,3.9,0,0,0,3.9-3.9V256.414A3.9,3.9,0,0,0,300.836,252.515Z" transform="translate(-239.873 -241.847)" fill="#4045ab"/>
        <path id="Trazado_913106" data-name="Trazado 913106" d="M155.175,401.852a4.191,4.191,0,0,1-4.191-4.191v-3.9a4.191,4.191,0,1,1,8.382,0v3.9A4.191,4.191,0,0,1,155.175,401.852Z" transform="translate(-122.744 -353.269)" fill="#ffbd45"/>
      </g>
      <g id="Grupo_1103001" data-name="Grupo 1103001" transform="translate(41.621)">
        <g id="Grupo_1102997" data-name="Grupo 1102997">
          <path id="Trazado_913107" data-name="Trazado 913107" d="M244.1,0a5.5,5.5,0,0,0-5.5,5.5V6.648a5.5,5.5,0,0,0-8.61,4.531v2.173a5.5,5.5,0,0,0-7.468,5.133v27.2a5.5,5.5,0,0,0,7.468,5.133v2.173a5.5,5.5,0,0,0,8.61,4.531v1.151a5.5,5.5,0,0,0,10.994,0V5.5A5.5,5.5,0,0,0,244.1,0Z" transform="translate(-222.525)" fill="#f6ccb3"/>
          <path id="Trazado_913108" data-name="Trazado 913108" d="M388.837,12.988a5.483,5.483,0,0,0-1.971.364V11.179a5.5,5.5,0,0,0-8.61-4.531V5.5a5.5,5.5,0,1,0-10.994,0V58.676a5.5,5.5,0,0,0,10.994,0V57.525a5.5,5.5,0,0,0,8.61-4.531V50.821a5.5,5.5,0,0,0,7.468-5.133v-27.2A5.5,5.5,0,0,0,388.837,12.988Z" transform="translate(-340.191 0)" fill="#f6ccb3"/>
          <g id="Grupo_1102996" data-name="Grupo 1102996" transform="translate(38.291 5.682)" opacity="0.16">
            <path id="Trazado_913109" data-name="Trazado 913109" d="M437.6,37.686a5.483,5.483,0,0,0-1.971.364V35.877a5.5,5.5,0,0,0-8.385-4.678,5.493,5.493,0,0,1,2.609,4.678,1.812,1.812,0,0,0,1.854,1.81h.117a5.5,5.5,0,0,1,5.5,5.5v27.2a5.5,5.5,0,0,1-5.5,5.5h-.117a1.812,1.812,0,0,0-1.854,1.81,5.493,5.493,0,0,1-2.609,4.678,5.5,5.5,0,0,0,8.385-4.678V75.519a5.5,5.5,0,0,0,7.468-5.133v-27.2A5.5,5.5,0,0,0,437.6,37.686Z" transform="translate(-427.245 -30.38)" fill="#ee4f47"/>
          </g>
        </g>
        <g id="Grupo_1103000" data-name="Grupo 1103000" transform="translate(10.526 19.155)">
          <g id="Grupo_1102998" data-name="Grupo 1102998">
            <path id="Trazado_913110" data-name="Trazado 913110" d="M413.51,111.794a7.944,7.944,0,0,1-7.935-7.935,1.444,1.444,0,1,1,2.888,0,5.054,5.054,0,0,0,5.048,5.048,1.444,1.444,0,1,1,0,2.888Z" transform="translate(-381.864 -102.415)" fill="#ee4f47"/>
            <path id="Trazado_913111" data-name="Trazado 913111" d="M280.246,111.794a1.444,1.444,0,0,1,0-2.888,5.054,5.054,0,0,0,5.048-5.048,1.444,1.444,0,0,1,2.888,0A7.945,7.945,0,0,1,280.246,111.794Z" transform="translate(-278.802 -102.414)" fill="#ee4f47"/>
          </g>
          <g id="Grupo_1102999" data-name="Grupo 1102999" transform="translate(0 16.482)">
            <path id="Trazado_913112" data-name="Trazado 913112" d="M286.738,199.916a1.444,1.444,0,0,1-1.444-1.444,5.054,5.054,0,0,0-5.048-5.048,1.444,1.444,0,0,1,0-2.888,7.944,7.944,0,0,1,7.936,7.935A1.444,1.444,0,0,1,286.738,199.916Z" transform="translate(-278.802 -190.536)" fill="#ee4f47"/>
            <path id="Trazado_913113" data-name="Trazado 913113" d="M407.018,199.916a1.444,1.444,0,0,1-1.444-1.444,7.945,7.945,0,0,1,7.936-7.935,1.444,1.444,0,1,1,0,2.888,5.054,5.054,0,0,0-5.048,5.048A1.444,1.444,0,0,1,407.018,199.916Z" transform="translate(-381.863 -190.537)" fill="#ee4f47"/>
          </g>
        </g>
      </g>
    </g>
    <g id="Grupo_1103003" data-name="Grupo 1103003" transform="translate(7.49 18.437)">
      <path id="Trazado_913114" data-name="Trazado 913114" d="M41.488,119.171a1.444,1.444,0,0,1-1.444-1.444v-2.31a1.444,1.444,0,1,1,2.888,0v2.31A1.444,1.444,0,0,1,41.488,119.171Zm0-8.278a1.444,1.444,0,0,1-1.444-1.444v-2.31a1.444,1.444,0,1,1,2.888,0v2.31A1.444,1.444,0,0,1,41.488,110.893Zm0-8.278a1.444,1.444,0,0,1-1.444-1.444v-1.155a1.444,1.444,0,0,1,1.444-1.444h1.155a1.444,1.444,0,0,1,.265,2.864A1.445,1.445,0,0,1,41.488,102.615Zm25.989-1.155h-2.31a1.444,1.444,0,1,1,0-2.888h2.31a1.444,1.444,0,0,1,0,2.888Zm-8.278,0h-2.31a1.444,1.444,0,1,1,0-2.888H59.2a1.444,1.444,0,0,1,0,2.888Zm-8.278,0h-2.31a1.444,1.444,0,1,1,0-2.888h2.31a1.444,1.444,0,1,1,0,2.888Z" transform="translate(-40.044 -98.572)" fill="#f3eae6"/>
      <path id="Trazado_913115" data-name="Trazado 913115" d="M395.514,366.212H394.3a2.083,2.083,0,1,1,2.658-2.539v1.1A1.444,1.444,0,0,1,395.514,366.212Zm-7.182,0h-2.31a1.444,1.444,0,0,1,0-2.888h2.31a1.444,1.444,0,0,1,0,2.888Zm-8.278,0h-2.31a1.444,1.444,0,0,1,0-2.888h2.31a1.444,1.444,0,0,1,0,2.888Zm15.461-7.063a1.444,1.444,0,0,1-1.444-1.444v-2.31a1.444,1.444,0,1,1,2.888,0v2.31A1.444,1.444,0,0,1,395.514,359.148Zm0-8.278a1.444,1.444,0,0,1-1.444-1.444v-2.31a1.444,1.444,0,0,1,2.888,0v2.31A1.444,1.444,0,0,1,395.514,350.87Z" transform="translate(-313.406 -299.455)" fill="#f3eae6"/>
    </g>
  </g>
  <g id="Grupo_1103005" data-name="Grupo 1103005" transform="translate(45.674 4.238)">
    <path id="Trazado_913116" data-name="Trazado 913116" d="M291.062,31.043a1.444,1.444,0,0,1-1.444-1.444,4.058,4.058,0,0,0-4.053-4.053,1.444,1.444,0,1,1,0-2.888,6.949,6.949,0,0,1,6.941,6.941A1.444,1.444,0,0,1,291.062,31.043Z" transform="translate(-276.653 -22.658)" fill="#ee4f47"/>
    <path id="Trazado_913117" data-name="Trazado 913117" d="M285.566,283.995a1.444,1.444,0,1,1,0-2.888,4.058,4.058,0,0,0,4.053-4.053,1.444,1.444,0,0,1,2.888,0A6.949,6.949,0,0,1,285.566,283.995Z" transform="translate(-276.654 -228.298)" fill="#ee4f47"/>
    <path id="Trazado_913118" data-name="Trazado 913118" d="M251.135,70.1a1.444,1.444,0,0,1-1.444-1.444,4.058,4.058,0,0,0-4.053-4.053,1.444,1.444,0,1,1,0-2.888,6.948,6.948,0,0,1,6.941,6.941A1.444,1.444,0,0,1,251.135,70.1Z" transform="translate(-244.194 -54.412)" fill="#ee4f47"/>
    <path id="Trazado_913119" data-name="Trazado 913119" d="M245.638,244.936a1.444,1.444,0,0,1,0-2.888,4.058,4.058,0,0,0,4.053-4.053,1.444,1.444,0,0,1,2.888,0A6.949,6.949,0,0,1,245.638,244.936Z" transform="translate(-244.194 -196.545)" fill="#ee4f47"/>
    <path id="Trazado_913120" data-name="Trazado 913120" d="M412.516,284a6.949,6.949,0,0,1-6.941-6.941,1.444,1.444,0,1,1,2.888,0,4.058,4.058,0,0,0,4.053,4.053,1.444,1.444,0,1,1,0,2.888Z" transform="translate(-375.391 -228.299)" fill="#ee4f47"/>
    <path id="Trazado_913121" data-name="Trazado 913121" d="M407.018,31.044a1.444,1.444,0,0,1-1.444-1.444,6.949,6.949,0,0,1,6.941-6.941,1.444,1.444,0,1,1,0,2.888,4.058,4.058,0,0,0-4.053,4.053A1.444,1.444,0,0,1,407.018,31.044Z" transform="translate(-375.39 -22.659)" fill="#ee4f47"/>
    <path id="Trazado_913122" data-name="Trazado 913122" d="M452.443,244.937A6.949,6.949,0,0,1,445.5,238a1.444,1.444,0,1,1,2.888,0,4.058,4.058,0,0,0,4.053,4.053,1.444,1.444,0,1,1,0,2.888Z" transform="translate(-407.85 -196.546)" fill="#ee4f47"/>
    <path id="Trazado_913123" data-name="Trazado 913123" d="M446.946,70.1A1.444,1.444,0,0,1,445.5,68.66a6.949,6.949,0,0,1,6.941-6.941,1.444,1.444,0,1,1,0,2.888,4.058,4.058,0,0,0-4.053,4.053A1.444,1.444,0,0,1,446.946,70.1Z" transform="translate(-407.85 -54.413)" fill="#ee4f47"/>
    <path id="Trazado_913124" data-name="Trazado 913124" d="M360.986,42.255a1.444,1.444,0,0,0-1.444,1.444V89.178a1.444,1.444,0,0,0,2.888,0V43.7a1.444,1.444,0,0,0-1.444-1.444Z" transform="translate(-337.967 -38.59)" fill="#ee4f47"/>
  </g>
</svg>
