<svg xmlns="http://www.w3.org/2000/svg" width="82.957" height="96.358" viewBox="0 0 82.957 96.358">
  <g id="Grupo_1103038" data-name="Grupo 1103038" transform="translate(-35.604)">
    <path id="Trazado_913163" data-name="Trazado 913163" d="M79.65,0A32.82,32.82,0,0,0,46.83,32.82V37.7a19.842,19.842,0,0,1-5.811,14.03L36.5,56.247a3.038,3.038,0,0,0,2.148,5.186h6.5a1.683,1.683,0,0,1,1.683,1.683v5.575A15.193,15.193,0,0,0,61.977,83.84a5.891,5.891,0,0,1,5.891,5.891V94.57a1.788,1.788,0,0,0,1.788,1.788H97.612a1.815,1.815,0,0,0,1.815-1.815V82.133a20.057,20.057,0,0,1,4.841-13.3,32.686,32.686,0,0,0,8.2-21.7V32.821A32.82,32.82,0,0,0,79.65,0Z" fill="#f6ccb3"/>
    <g id="Grupo_1103036" data-name="Grupo 1103036" transform="translate(35.604 0.001)">
      <path id="Trazado_913164" data-name="Trazado 913164" d="M40.378,56.253,44.9,51.734A19.841,19.841,0,0,0,50.708,37.7V32.826A32.821,32.821,0,0,1,81.59.064,32.818,32.818,0,0,0,46.831,32.826V37.7a19.842,19.842,0,0,1-5.811,14.03L36.5,56.253a3.038,3.038,0,0,0,2.148,5.186h3.878A3.038,3.038,0,0,1,40.378,56.253Z" transform="translate(-35.605 -0.007)" fill="#fad7a5"/>
      <path id="Trazado_913165" data-name="Trazado 913165" d="M112.91,359.564v-4.839a5.891,5.891,0,0,0-5.891-5.891,15.193,15.193,0,0,1-15.148-15.148v-5.575a1.683,1.683,0,0,0-1.683-1.683H86.31a1.683,1.683,0,0,1,1.683,1.683v5.575a15.193,15.193,0,0,0,15.148,15.148,5.891,5.891,0,0,1,5.891,5.891v4.839a1.789,1.789,0,0,0,1.788,1.788H114.7A1.788,1.788,0,0,1,112.91,359.564Z" transform="translate(-76.767 -264.996)" fill="#fad7a5"/>
    </g>
    <path id="Trazado_913166" data-name="Trazado 913166" d="M193.47,82.894H189.5a.29.29,0,0,1-.289-.289V77.076a.585.585,0,0,0-.585-.585H168.361a.61.61,0,0,0-.61.61V97.948h6.394V93.687a4.33,4.33,0,1,1,8.661,0v4.261h6.4V91.936a.382.382,0,0,1,.382-.382h3.879a4.33,4.33,0,1,0,0-8.66Z" transform="translate(-107.277 -62.095)" fill="#ffbd45"/>
    <path id="Trazado_913167" data-name="Trazado 913167" d="M337.871,1.514l-3.013,3.013L330.331,0,315.158,15.173l15.173,15.173,4.521-4.521-3.013-3.013a4.33,4.33,0,0,1,6.124-6.124l3.013,3.013,4.527-4.527-4.521-4.521L344,7.638a4.33,4.33,0,0,0-6.124-6.124Z" transform="translate(-226.942)" fill="#4045ab"/>
    <rect id="Rectángulo_404227" data-name="Rectángulo 404227" width="4.97" height="21.456" transform="translate(106.902 26.831) rotate(135)" fill="#4045ab"/>
    <path id="Trazado_913168" data-name="Trazado 913168" d="M259.767,194.766a4.33,4.33,0,1,1-8.661,0V191a.491.491,0,0,0-.49-.49H244.7v6.4h-4.261a4.343,4.343,0,0,0-4.33,4.33h0a4.343,4.343,0,0,0,4.33,4.33H244.7v6.394h20.662a.8.8,0,0,0,.8-.8V190.9a.392.392,0,0,0-.391-.391h-5.681a.322.322,0,0,0-.321.321Z" transform="translate(-162.773 -154.652)" fill="#fff"/>
    <path id="Trazado_913169" data-name="Trazado 913169" d="M184.947,168.508a4.343,4.343,0,0,1-4.33-4.33h0a4.343,4.343,0,0,1,4.33-4.33h4.261v-6.4h-5.984a.419.419,0,0,1-.419-.419v-3.843a4.33,4.33,0,1,0-8.661,0v3.743a.518.518,0,0,1-.518.518h-5.876v20.395a1.063,1.063,0,0,0,1.063,1.063h20.395v-6.394Z" transform="translate(-107.277 -117.592)" fill="#ee4f47"/>
    <g id="Grupo_1103037" data-name="Grupo 1103037" transform="translate(60.474 35.853)">
      <path id="Trazado_913170" data-name="Trazado 913170" d="M203.3,190.505h0Z" transform="translate(-193.095 -190.505)" fill="#ee4f47"/>
      <path id="Trazado_913171" data-name="Trazado 913171" d="M172.08,210.9V190.505h-4.33V210.9a1.063,1.063,0,0,0,1.063,1.063h4.33A1.063,1.063,0,0,1,172.08,210.9Z" transform="translate(-167.75 -190.505)" fill="#ee4f47"/>
    </g>
    <path id="Trazado_913172" data-name="Trazado 913172" d="M172.08,77.1a.61.61,0,0,1,.61-.61h-4.33a.61.61,0,0,0-.61.61V97.949h4.33Z" transform="translate(-107.276 -62.096)" fill="#ffbd45"/>
  </g>
</svg>
