<svg id="Grupo_1103035" data-name="Grupo 1103035" xmlns="http://www.w3.org/2000/svg" width="79.981" height="79.981" viewBox="0 0 79.981 79.981">
  <path id="Trazado_913160" data-name="Trazado 913160" d="M46.156,4V28.66a4.055,4.055,0,0,1-4,4H21L5.332,40.824V32.659H4a4.055,4.055,0,0,1-4-4V4A4.055,4.055,0,0,1,4,0H42.323A3.913,3.913,0,0,1,46.156,4Z" fill="#ee4f47"/>
  <g id="Grupo_1103032" data-name="Grupo 1103032" transform="translate(6.498 11.997)">
    <circle id="Elipse_11541" data-name="Elipse 11541" cx="4.332" cy="4.332" r="4.332" fill="#fff"/>
    <circle id="Elipse_11542" data-name="Elipse 11542" cx="4.332" cy="4.332" r="4.332" transform="translate(12.331)" fill="#fff"/>
    <circle id="Elipse_11543" data-name="Elipse 11543" cx="4.332" cy="4.332" r="4.332" transform="translate(24.661)" fill="#fff"/>
  </g>
  <path id="Trazado_913161" data-name="Trazado 913161" d="M216.533,66.932V91.426a4.055,4.055,0,0,0,4,4H241.86l15.663,8.165V95.425h1.166a4.055,4.055,0,0,0,4-4V66.932a4.055,4.055,0,0,0-4-4H220.366A3.913,3.913,0,0,0,216.533,66.932Z" transform="translate(-182.708 -53.102)" fill="#ffbd45"/>
  <g id="Grupo_1103033" data-name="Grupo 1103033" transform="translate(40.157 21.828)">
    <circle id="Elipse_11544" data-name="Elipse 11544" cx="4.332" cy="4.332" r="4.332" transform="translate(24.661)" fill="#fff"/>
    <circle id="Elipse_11545" data-name="Elipse 11545" cx="4.332" cy="4.332" r="4.332" transform="translate(12.33)" fill="#fff"/>
    <circle id="Elipse_11546" data-name="Elipse 11546" cx="4.332" cy="4.332" r="4.332" fill="#fff"/>
  </g>
  <path id="Trazado_913162" data-name="Trazado 913162" d="M121.889,255.732v24.661a4.055,4.055,0,0,1-4,4H104.726l-6,8-6-8.165h-13a4.055,4.055,0,0,1-4-4V255.732a4.055,4.055,0,0,1,4-4h38.324A3.913,3.913,0,0,1,121.889,255.732Z" transform="translate(-63.902 -212.409)" fill="#4045ab"/>
  <g id="Grupo_1103034" data-name="Grupo 1103034" transform="translate(18.329 51.322)">
    <circle id="Elipse_11547" data-name="Elipse 11547" cx="4.332" cy="4.332" r="4.332" transform="translate(24.494)" fill="#fff"/>
    <circle id="Elipse_11548" data-name="Elipse 11548" cx="4.332" cy="4.332" r="4.332" transform="translate(12.33)" fill="#fff"/>
    <circle id="Elipse_11549" data-name="Elipse 11549" cx="4.332" cy="4.332" r="4.332" fill="#fff"/>
  </g>
</svg>
