<svg xmlns="http://www.w3.org/2000/svg" xmlns:xlink="http://www.w3.org/1999/xlink" width="368.949" height="368.949" viewBox="0 0 368.949 368.949">
  <defs>
    <clipPath id="clip-path">
      <rect id="Rectángulo_404210" data-name="Rectángulo 404210" width="368.949" height="368.949" fill="none"/>
    </clipPath>
  </defs>
  <g id="Grupo_1103816" data-name="Grupo 1103816" transform="translate(-1038.051 -414.229)">
    <g id="Grupo_1103285" data-name="Grupo 1103285" transform="translate(1038.051 414.229)">
      <g id="Grupo_1103284" data-name="Grupo 1103284" clip-path="url(#clip-path)">
        <path id="Trazado_913214" data-name="Trazado 913214" d="M168.259,64.443A103.815,103.815,0,1,1,64.444,168.258,103.814,103.814,0,0,1,168.259,64.443" transform="translate(16.217 16.217)" fill="#fff" fill-rule="evenodd" opacity="0.36"/>
        <path id="Trazado_913215" data-name="Trazado 913215" d="M256.453,147.385h30.924a6.127,6.127,0,0,1,.618,2.69c0,3.551-4.4,5.62-4.4,11.33a10.885,10.885,0,1,0,21.77,0c0-6.288-4.425-6.988-4.425-11.33a6.123,6.123,0,0,1,.618-2.69h35.552a183.752,183.752,0,0,1-45.3,121.077,6.121,6.121,0,0,0,1.785,3.913c2.511,2.512,7.082.864,11.12,4.9a10.884,10.884,0,1,1-15.393,15.393c-4.447-4.445-1.812-8.069-4.883-11.138a6.112,6.112,0,0,0-3.388-1.725A183.846,183.846,0,0,1,152.64,331.86V297.571a6.122,6.122,0,0,0-3.915-1.408c-3.551,0-5.62,4.4-11.33,4.4a10.885,10.885,0,0,1,0-21.77c6.288,0,6.988,4.426,11.33,4.426a6.117,6.117,0,0,0,3.915-1.408V251.2A103.443,103.443,0,0,0,223.2,223.525a6.112,6.112,0,0,0-1.613-2.84c-2.511-2.512-7.086-.865-11.123-4.9a10.885,10.885,0,0,1,15.394-15.393c4.446,4.446,1.814,8.071,4.881,11.14A6.1,6.1,0,0,0,233.09,213a103.364,103.364,0,0,0,23.363-65.611" transform="translate(31.836 37.089)" fill="#ee4f47" fill-rule="evenodd"/>
        <path id="Trazado_913216" data-name="Trazado 913216" d="M184.475,256.349v30.609a6.117,6.117,0,0,1-3.915,1.408c-4.341,0-5.04-4.425-11.329-4.425a10.885,10.885,0,1,0,0,21.77c5.71,0,7.779-4.4,11.329-4.4a6.12,6.12,0,0,1,3.915,1.408v34.288A183.847,183.847,0,0,1,56.235,285.13a6.116,6.116,0,0,0-2.6,1.548c-3.07,3.07-.436,6.694-4.883,11.14a10.884,10.884,0,1,1-15.393-15.393c4.037-4.039,8.61-2.389,11.121-4.9a6.1,6.1,0,0,0,1.646-2.979A183.762,183.762,0,0,1,0,152.535H34.18A6.117,6.117,0,0,0,35.2,149.14c0-3.551-4.4-5.619-4.4-11.33a10.885,10.885,0,0,1,21.77,0c0,6.287-4.426,6.988-4.426,11.33a6.114,6.114,0,0,0,1.023,3.394H80.66a103.368,103.368,0,0,0,23.356,65.6,6.113,6.113,0,0,0,2.314-1.456c3.07-3.069.437-6.694,4.884-11.141a10.885,10.885,0,1,1,15.393,15.394c-4.038,4.038-8.61,2.389-11.122,4.9a6.109,6.109,0,0,0-1.6,2.809,103.436,103.436,0,0,0,70.6,27.706" transform="translate(0 31.941)" fill="#12263f" fill-rule="evenodd"/>
        <path id="Trazado_913217" data-name="Trazado 913217" d="M147.386,80.659V47.727a6.114,6.114,0,0,1,4.093-1.565c3.551,0,5.62,4.4,11.33,4.4a10.885,10.885,0,1,0,0-21.77c-6.287,0-6.989,4.425-11.33,4.425a6.119,6.119,0,0,1-4.093-1.563V0A183.855,183.855,0,0,1,275.575,51.828a6.107,6.107,0,0,0,3.618-1.756c3.07-3.07.434-6.694,4.881-11.141a10.885,10.885,0,0,1,15.394,15.394c-4.039,4.039-8.61,2.391-11.121,4.9a6.124,6.124,0,0,0-1.8,4.155A183.762,183.762,0,0,1,331.86,184.474H296.307a6.123,6.123,0,0,0-.618,2.69c0,4.342,4.425,5.042,4.425,11.33a10.884,10.884,0,1,1-21.769,0c0-5.711,4.4-7.779,4.4-11.33a6.111,6.111,0,0,0-.62-2.69H251.2a103.382,103.382,0,0,0-23.7-66.029,6.115,6.115,0,0,0-2.041,1.353c-3.07,3.07-.436,6.694-4.883,11.14a10.884,10.884,0,1,1-15.393-15.393c4.038-4.038,8.61-2.391,11.121-4.9a6.079,6.079,0,0,0,1.5-2.442,103.437,103.437,0,0,0-70.418-27.542" transform="translate(37.089 0)" fill="#ca7441" fill-rule="evenodd"/>
        <path id="Trazado_913218" data-name="Trazado 913218" d="M46.168,62.415a6.114,6.114,0,0,0-1.69-3.187c-2.511-2.512-7.084-.864-11.121-4.9A10.885,10.885,0,0,1,48.75,38.932C53.2,43.38,50.563,47,53.633,50.073a6.128,6.128,0,0,0,2.807,1.6A183.84,183.84,0,0,1,184.475,0V31.654a6.119,6.119,0,0,0,4.093,1.563c4.341,0,5.043-4.425,11.33-4.425a10.884,10.884,0,1,1,0,21.769c-5.71,0-7.779-4.4-11.33-4.4a6.114,6.114,0,0,0-4.093,1.565V80.66a103.445,103.445,0,0,0-70.451,27.571,6.1,6.1,0,0,0,1.489,2.413c2.511,2.511,7.084.864,11.121,4.9a10.884,10.884,0,0,1-15.393,15.393c-4.446-4.446-1.812-8.071-4.883-11.14a6.127,6.127,0,0,0-2.009-1.341,103.384,103.384,0,0,0-23.69,66.017H49.171a6.114,6.114,0,0,1-1.023-3.394c0-4.342,4.426-5.043,4.426-11.33a10.885,10.885,0,0,0-21.77,0c0,5.71,4.4,7.779,4.4,11.33a6.117,6.117,0,0,1-1.023,3.394H0A183.761,183.761,0,0,1,46.168,62.415" fill="#ffbd45" fill-rule="evenodd"/>
      </g>
    </g>
    <path id="Trazado_914518" data-name="Trazado 914518" d="M3.359-4.008V0H1.016V-11.375H5.453a5.134,5.134,0,0,1,2.254.469A3.454,3.454,0,0,1,9.2-9.574a3.714,3.714,0,0,1,.523,1.965A3.266,3.266,0,0,1,8.582-4.973a4.767,4.767,0,0,1-3.168.965Zm0-1.9H5.453a2.059,2.059,0,0,0,1.418-.437,1.591,1.591,0,0,0,.488-1.25,1.876,1.876,0,0,0-.492-1.352,1.839,1.839,0,0,0-1.359-.531H3.359Zm12.578-.43a6.134,6.134,0,0,0-.812-.062,1.654,1.654,0,0,0-1.68.867V0H11.188V-8.453H13.32l.063,1.008a2.092,2.092,0,0,1,1.883-1.164,2.366,2.366,0,0,1,.7.1ZM16.391-4.3a5.013,5.013,0,0,1,.484-2.242A3.546,3.546,0,0,1,18.27-8.07a4.069,4.069,0,0,1,2.113-.539,3.849,3.849,0,0,1,2.793,1.047,4.2,4.2,0,0,1,1.207,2.844l.016.578A4.418,4.418,0,0,1,23.313-1.02,3.775,3.775,0,0,1,20.4.156,3.793,3.793,0,0,1,17.48-1.016,4.5,4.5,0,0,1,16.391-4.2Zm2.258.164A3.151,3.151,0,0,0,19.1-2.3a1.5,1.5,0,0,0,1.3.637,1.5,1.5,0,0,0,1.281-.629A3.448,3.448,0,0,0,22.141-4.3a3.12,3.12,0,0,0-.461-1.828,1.5,1.5,0,0,0-1.3-.648,1.475,1.475,0,0,0-1.281.645A3.506,3.506,0,0,0,18.648-4.141Zm6.789-.148a5.094,5.094,0,0,1,.887-3.148A2.877,2.877,0,0,1,28.75-8.609a2.589,2.589,0,0,1,2.039.922V-12h2.266V0H31.016l-.109-.9A2.657,2.657,0,0,1,28.734.156,2.869,2.869,0,0,1,26.34-1.02,5.258,5.258,0,0,1,25.438-4.289Zm2.258.164a3.328,3.328,0,0,0,.414,1.82,1.349,1.349,0,0,0,1.2.633,1.511,1.511,0,0,0,1.477-.883V-5.891a1.489,1.489,0,0,0-1.461-.883Q27.7-6.773,27.7-4.125ZM39.867-.859A2.831,2.831,0,0,1,37.555.156,2.67,2.67,0,0,1,35.48-.625a3.335,3.335,0,0,1-.73-2.289V-8.453h2.258v5.461q0,1.32,1.2,1.32a1.631,1.631,0,0,0,1.578-.8V-8.453h2.266V0H39.93Zm7.406-.8a1.481,1.481,0,0,0,1.016-.344,1.2,1.2,0,0,0,.406-.914h2.117a2.9,2.9,0,0,1-.469,1.574A3.093,3.093,0,0,1,49.082-.238a3.949,3.949,0,0,1-1.77.395A3.67,3.67,0,0,1,44.453-1,4.56,4.56,0,0,1,43.406-4.18v-.148a4.508,4.508,0,0,1,1.039-3.117A3.627,3.627,0,0,1,47.3-8.609a3.555,3.555,0,0,1,2.543.9,3.2,3.2,0,0,1,.973,2.4H48.7a1.539,1.539,0,0,0-.406-1.066,1.358,1.358,0,0,0-1.031-.41,1.361,1.361,0,0,0-1.191.574,3.324,3.324,0,0,0-.4,1.863v.234a3.366,3.366,0,0,0,.4,1.875A1.378,1.378,0,0,0,47.273-1.664ZM54.8-10.531v2.078H56.25V-6.8H54.8v4.219a1.007,1.007,0,0,0,.18.672.9.9,0,0,0,.688.2,3.6,3.6,0,0,0,.664-.055V-.047a4.648,4.648,0,0,1-1.367.2,2.156,2.156,0,0,1-2.422-2.4V-6.8H51.313V-8.453h1.234v-2.078Z" transform="translate(1117.83 536.064) rotate(-49)" fill="#12263f"/>
    <path id="Trazado_914519" data-name="Trazado 914519" d="M3.359-4.008V0H1.016V-11.375H5.453a5.134,5.134,0,0,1,2.254.469A3.454,3.454,0,0,1,9.2-9.574a3.714,3.714,0,0,1,.523,1.965A3.266,3.266,0,0,1,8.582-4.973a4.767,4.767,0,0,1-3.168.965Zm0-1.9H5.453a2.059,2.059,0,0,0,1.418-.437,1.591,1.591,0,0,0,.488-1.25,1.876,1.876,0,0,0-.492-1.352,1.839,1.839,0,0,0-1.359-.531H3.359ZM13.57,0H11.3V-12H13.57Zm6.758,0A2.507,2.507,0,0,1,20.1-.758a2.732,2.732,0,0,1-2.133.914A3,3,0,0,1,15.91-.562a2.312,2.312,0,0,1-.816-1.812,2.389,2.389,0,0,1,1-2.062,4.915,4.915,0,0,1,2.879-.727h1.039v-.484a1.393,1.393,0,0,0-.3-.937,1.183,1.183,0,0,0-.949-.352,1.345,1.345,0,0,0-.895.273.929.929,0,0,0-.324.75H15.281a2.268,2.268,0,0,1,.453-1.359,3,3,0,0,1,1.281-.98,4.669,4.669,0,0,1,1.859-.355,3.689,3.689,0,0,1,2.48.785,2.747,2.747,0,0,1,.918,2.207v3.664a4.041,4.041,0,0,0,.336,1.82V0ZM18.461-1.57a1.945,1.945,0,0,0,.922-.223,1.462,1.462,0,0,0,.625-.6V-3.844h-.844q-1.7,0-1.8,1.172l-.008.133a.9.9,0,0,0,.3.7A1.153,1.153,0,0,0,18.461-1.57Zm9.063-.094a1.481,1.481,0,0,0,1.016-.344,1.2,1.2,0,0,0,.406-.914h2.117a2.9,2.9,0,0,1-.469,1.574A3.093,3.093,0,0,1,29.332-.238a3.949,3.949,0,0,1-1.77.395A3.67,3.67,0,0,1,24.7-1,4.56,4.56,0,0,1,23.656-4.18v-.148A4.508,4.508,0,0,1,24.7-7.445a3.627,3.627,0,0,1,2.852-1.164,3.555,3.555,0,0,1,2.543.9,3.2,3.2,0,0,1,.973,2.4H28.945a1.539,1.539,0,0,0-.406-1.066,1.358,1.358,0,0,0-1.031-.41,1.361,1.361,0,0,0-1.191.574,3.324,3.324,0,0,0-.4,1.863v.234a3.366,3.366,0,0,0,.4,1.875A1.378,1.378,0,0,0,27.523-1.664ZM36.242.156A4.15,4.15,0,0,1,33.215-.984a4.054,4.054,0,0,1-1.168-3.039v-.219a5.106,5.106,0,0,1,.492-2.277,3.612,3.612,0,0,1,1.395-1.547,3.914,3.914,0,0,1,2.059-.543,3.508,3.508,0,0,1,2.73,1.094,4.444,4.444,0,0,1,1,3.1v.922H34.336A2.1,2.1,0,0,0,35-2.164a2,2,0,0,0,1.395.5,2.437,2.437,0,0,0,2.039-.945l1.109,1.242A3.389,3.389,0,0,1,38.164-.246,4.511,4.511,0,0,1,36.242.156Zm-.258-6.937a1.414,1.414,0,0,0-1.09.453,2.341,2.341,0,0,0-.535,1.3H37.5v-.18a1.669,1.669,0,0,0-.406-1.16A1.459,1.459,0,0,0,35.984-6.781Zm7.133-1.672.07.945a2.971,2.971,0,0,1,2.43-1.1A2.255,2.255,0,0,1,47.859-7.32,2.9,2.9,0,0,1,50.4-8.609a2.521,2.521,0,0,1,2.047.8,3.681,3.681,0,0,1,.672,2.41V0H50.852V-5.391a1.61,1.61,0,0,0-.281-1.051,1.246,1.246,0,0,0-.992-.332,1.409,1.409,0,0,0-1.406.969L48.18,0H45.922V-5.383a1.59,1.59,0,0,0-.289-1.062,1.259,1.259,0,0,0-.984-.328,1.463,1.463,0,0,0-1.391.8V0H41V-8.453ZM58.742.156A4.15,4.15,0,0,1,55.715-.984a4.054,4.054,0,0,1-1.168-3.039v-.219a5.106,5.106,0,0,1,.492-2.277,3.612,3.612,0,0,1,1.395-1.547,3.914,3.914,0,0,1,2.059-.543,3.508,3.508,0,0,1,2.73,1.094,4.444,4.444,0,0,1,1,3.1v.922H56.836a2.1,2.1,0,0,0,.66,1.328,2,2,0,0,0,1.395.5,2.437,2.437,0,0,0,2.039-.945l1.109,1.242A3.389,3.389,0,0,1,60.664-.246,4.511,4.511,0,0,1,58.742.156Zm-.258-6.937a1.414,1.414,0,0,0-1.09.453,2.341,2.341,0,0,0-.535,1.3H60v-.18a1.669,1.669,0,0,0-.406-1.16A1.459,1.459,0,0,0,58.484-6.781Zm7.094-1.672.07.977a2.951,2.951,0,0,1,2.43-1.133,2.453,2.453,0,0,1,2,.789,3.682,3.682,0,0,1,.672,2.359V0H68.492V-5.406a1.465,1.465,0,0,0-.312-1.043,1.4,1.4,0,0,0-1.039-.324,1.553,1.553,0,0,0-1.43.813V0H63.453V-8.453Zm9.586-2.078v2.078h1.445V-6.8H75.164v4.219a1.007,1.007,0,0,0,.18.672.9.9,0,0,0,.688.2,3.6,3.6,0,0,0,.664-.055V-.047a4.648,4.648,0,0,1-1.367.2,2.156,2.156,0,0,1-2.422-2.4V-6.8H71.672V-8.453h1.234v-2.078Z" transform="translate(1336.252 655.311) rotate(138)" fill="#12263f"/>
    <path id="Trazado_914520" data-name="Trazado 914520" d="M3.359-4.008V0H1.016V-11.375H5.453a5.134,5.134,0,0,1,2.254.469A3.454,3.454,0,0,1,9.2-9.574a3.714,3.714,0,0,1,.523,1.965A3.266,3.266,0,0,1,8.582-4.973a4.767,4.767,0,0,1-3.168.965Zm0-1.9H5.453a2.059,2.059,0,0,0,1.418-.437,1.591,1.591,0,0,0,.488-1.25,1.876,1.876,0,0,0-.492-1.352,1.839,1.839,0,0,0-1.359-.531H3.359Zm12.578-.43a6.134,6.134,0,0,0-.812-.062,1.654,1.654,0,0,0-1.68.867V0H11.188V-8.453H13.32l.063,1.008a2.092,2.092,0,0,1,1.883-1.164,2.366,2.366,0,0,1,.7.1ZM19.406,0H17.141V-8.453h2.266Zm-2.4-10.641a1.112,1.112,0,0,1,.34-.836,1.277,1.277,0,0,1,.926-.328,1.28,1.28,0,0,1,.922.328,1.105,1.105,0,0,1,.344.836,1.108,1.108,0,0,1-.348.844,1.283,1.283,0,0,1-.918.328,1.283,1.283,0,0,1-.918-.328A1.108,1.108,0,0,1,17.008-10.641Zm7.773,8.977A1.481,1.481,0,0,0,25.8-2.008a1.2,1.2,0,0,0,.406-.914H28.32a2.9,2.9,0,0,1-.469,1.574A3.093,3.093,0,0,1,26.59-.238a3.949,3.949,0,0,1-1.77.395A3.67,3.67,0,0,1,21.961-1,4.56,4.56,0,0,1,20.914-4.18v-.148a4.508,4.508,0,0,1,1.039-3.117A3.627,3.627,0,0,1,24.8-8.609a3.555,3.555,0,0,1,2.543.9,3.2,3.2,0,0,1,.973,2.4H26.2A1.539,1.539,0,0,0,25.8-6.371a1.358,1.358,0,0,0-1.031-.41,1.361,1.361,0,0,0-1.191.574,3.324,3.324,0,0,0-.4,1.863v.234a3.366,3.366,0,0,0,.4,1.875A1.378,1.378,0,0,0,24.781-1.664ZM33.5.156A4.15,4.15,0,0,1,30.473-.984,4.054,4.054,0,0,1,29.3-4.023v-.219A5.106,5.106,0,0,1,29.8-6.52a3.612,3.612,0,0,1,1.395-1.547,3.914,3.914,0,0,1,2.059-.543,3.508,3.508,0,0,1,2.73,1.094,4.444,4.444,0,0,1,1,3.1v.922H31.594a2.1,2.1,0,0,0,.66,1.328,2,2,0,0,0,1.395.5,2.437,2.437,0,0,0,2.039-.945L36.8-1.367A3.389,3.389,0,0,1,35.422-.246,4.511,4.511,0,0,1,33.5.156Zm-.258-6.937a1.414,1.414,0,0,0-1.09.453,2.341,2.341,0,0,0-.535,1.3h3.141v-.18a1.669,1.669,0,0,0-.406-1.16A1.459,1.459,0,0,0,33.242-6.781Z" transform="translate(1297.896 500.593) rotate(49)" fill="#fff1f0"/>
    <path id="Trazado_914521" data-name="Trazado 914521" d="M3.359-4.008V0H1.016V-11.375H5.453a5.134,5.134,0,0,1,2.254.469A3.454,3.454,0,0,1,9.2-9.574a3.714,3.714,0,0,1,.523,1.965A3.266,3.266,0,0,1,8.582-4.973a4.767,4.767,0,0,1-3.168.965Zm0-1.9H5.453a2.059,2.059,0,0,0,1.418-.437,1.591,1.591,0,0,0,.488-1.25,1.876,1.876,0,0,0-.492-1.352,1.839,1.839,0,0,0-1.359-.531H3.359Zm12.578-.43a6.134,6.134,0,0,0-.812-.062,1.654,1.654,0,0,0-1.68.867V0H11.188V-8.453H13.32l.063,1.008a2.092,2.092,0,0,1,1.883-1.164,2.366,2.366,0,0,1,.7.1ZM16.391-4.3a5.013,5.013,0,0,1,.484-2.242A3.546,3.546,0,0,1,18.27-8.07a4.069,4.069,0,0,1,2.113-.539,3.849,3.849,0,0,1,2.793,1.047,4.2,4.2,0,0,1,1.207,2.844l.016.578A4.418,4.418,0,0,1,23.313-1.02,3.775,3.775,0,0,1,20.4.156,3.793,3.793,0,0,1,17.48-1.016,4.5,4.5,0,0,1,16.391-4.2Zm2.258.164A3.151,3.151,0,0,0,19.1-2.3a1.5,1.5,0,0,0,1.3.637,1.5,1.5,0,0,0,1.281-.629A3.448,3.448,0,0,0,22.141-4.3a3.12,3.12,0,0,0-.461-1.828,1.5,1.5,0,0,0-1.3-.648,1.475,1.475,0,0,0-1.281.645A3.506,3.506,0,0,0,18.648-4.141Zm9.258-4.312.07.945a2.971,2.971,0,0,1,2.43-1.1A2.255,2.255,0,0,1,32.648-7.32a2.9,2.9,0,0,1,2.539-1.289,2.521,2.521,0,0,1,2.047.8,3.681,3.681,0,0,1,.672,2.41V0H35.641V-5.391a1.61,1.61,0,0,0-.281-1.051,1.246,1.246,0,0,0-.992-.332,1.409,1.409,0,0,0-1.406.969L32.969,0H30.711V-5.383a1.59,1.59,0,0,0-.289-1.062,1.259,1.259,0,0,0-.984-.328,1.463,1.463,0,0,0-1.391.8V0H25.789V-8.453ZM39.289-4.3a5.013,5.013,0,0,1,.484-2.242A3.546,3.546,0,0,1,41.168-8.07a4.069,4.069,0,0,1,2.113-.539,3.849,3.849,0,0,1,2.793,1.047,4.2,4.2,0,0,1,1.207,2.844l.016.578A4.418,4.418,0,0,1,46.211-1.02,3.775,3.775,0,0,1,43.3.156a3.793,3.793,0,0,1-2.918-1.172A4.5,4.5,0,0,1,39.289-4.2Zm2.258.164A3.151,3.151,0,0,0,42-2.3a1.5,1.5,0,0,0,1.3.637,1.5,1.5,0,0,0,1.281-.629A3.448,3.448,0,0,0,45.039-4.3a3.12,3.12,0,0,0-.461-1.828,1.5,1.5,0,0,0-1.3-.648A1.475,1.475,0,0,0,42-6.137,3.506,3.506,0,0,0,41.547-4.141Zm9.844-6.391v2.078h1.445V-6.8H51.391v4.219a1.007,1.007,0,0,0,.18.672.9.9,0,0,0,.688.2,3.6,3.6,0,0,0,.664-.055V-.047a4.648,4.648,0,0,1-1.367.2,2.156,2.156,0,0,1-2.422-2.4V-6.8H47.9V-8.453h1.234v-2.078ZM56.477,0H54.211V-8.453h2.266Zm-2.4-10.641a1.112,1.112,0,0,1,.34-.836,1.277,1.277,0,0,1,.926-.328,1.28,1.28,0,0,1,.922.328,1.105,1.105,0,0,1,.344.836,1.108,1.108,0,0,1-.348.844,1.283,1.283,0,0,1-.918.328,1.283,1.283,0,0,1-.918-.328A1.108,1.108,0,0,1,54.078-10.641ZM57.984-4.3a5.013,5.013,0,0,1,.484-2.242A3.546,3.546,0,0,1,59.863-8.07a4.069,4.069,0,0,1,2.113-.539A3.849,3.849,0,0,1,64.77-7.562a4.2,4.2,0,0,1,1.207,2.844l.016.578A4.418,4.418,0,0,1,64.906-1.02,3.775,3.775,0,0,1,61.992.156a3.793,3.793,0,0,1-2.918-1.172A4.5,4.5,0,0,1,57.984-4.2Zm2.258.164A3.151,3.151,0,0,0,60.7-2.3a1.5,1.5,0,0,0,1.3.637,1.5,1.5,0,0,0,1.281-.629A3.448,3.448,0,0,0,63.734-4.3a3.12,3.12,0,0,0-.461-1.828,1.5,1.5,0,0,0-1.3-.648,1.475,1.475,0,0,0-1.281.645A3.506,3.506,0,0,0,60.242-4.141Zm9.219-4.312.07.977a2.951,2.951,0,0,1,2.43-1.133,2.453,2.453,0,0,1,2,.789,3.682,3.682,0,0,1,.672,2.359V0H72.375V-5.406a1.465,1.465,0,0,0-.312-1.043,1.4,1.4,0,0,0-1.039-.324,1.553,1.553,0,0,0-1.43.813V0H67.336V-8.453Z" transform="translate(1156.375 706.406) rotate(-130)" fill="#ffdfde"/>
    <path id="Trazado_914522" data-name="Trazado 914522" d="M4.395,5.625l2.922,8.25,2.906-8.25H13.3V17H10.949V13.891l.234-5.367L8.113,17H6.5L3.441,8.531l.234,5.359V17H1.332V5.625ZM20.1,17a2.507,2.507,0,0,1-.227-.758,2.732,2.732,0,0,1-2.133.914,3,3,0,0,1-2.059-.719,2.312,2.312,0,0,1-.816-1.812,2.389,2.389,0,0,1,1-2.062,4.915,4.915,0,0,1,2.879-.727h1.039v-.484a1.393,1.393,0,0,0-.3-.937,1.183,1.183,0,0,0-.949-.352,1.345,1.345,0,0,0-.895.273.929.929,0,0,0-.324.75H15.051A2.268,2.268,0,0,1,15.5,9.727a3,3,0,0,1,1.281-.98,4.669,4.669,0,0,1,1.859-.355,3.689,3.689,0,0,1,2.48.785,2.747,2.747,0,0,1,.918,2.207v3.664a4.041,4.041,0,0,0,.336,1.82V17ZM18.23,15.43a1.945,1.945,0,0,0,.922-.223,1.462,1.462,0,0,0,.625-.6V13.156h-.844q-1.7,0-1.8,1.172l-.008.133a.9.9,0,0,0,.3.7A1.153,1.153,0,0,0,18.23,15.43Zm10.3-4.766a6.134,6.134,0,0,0-.812-.062,1.654,1.654,0,0,0-1.68.867V17H23.777V8.547H25.91l.063,1.008a2.092,2.092,0,0,1,1.883-1.164,2.366,2.366,0,0,1,.7.1Zm4.156,2.945-.812.813V17H29.613V5h2.258v6.648l.438-.562,2.164-2.539h2.711L34.129,12.07,37.449,17H34.855Zm9.367,3.547a4.15,4.15,0,0,1-3.027-1.141,4.054,4.054,0,0,1-1.168-3.039v-.219a5.106,5.106,0,0,1,.492-2.277,3.612,3.612,0,0,1,1.395-1.547A3.914,3.914,0,0,1,41.8,8.391a3.508,3.508,0,0,1,2.73,1.094,4.444,4.444,0,0,1,1,3.1v.922H40.145a2.1,2.1,0,0,0,.66,1.328,2,2,0,0,0,1.395.5,2.437,2.437,0,0,0,2.039-.945l1.109,1.242a3.389,3.389,0,0,1-1.375,1.121A4.511,4.511,0,0,1,42.051,17.156Zm-.258-6.937a1.414,1.414,0,0,0-1.09.453,2.341,2.341,0,0,0-.535,1.3h3.141v-.18a1.669,1.669,0,0,0-.406-1.16A1.459,1.459,0,0,0,41.793,10.219Zm7.719-3.75V8.547h1.445V10.2H49.512v4.219a1.007,1.007,0,0,0,.18.672.9.9,0,0,0,.688.2,3.6,3.6,0,0,0,.664-.055v1.711a4.648,4.648,0,0,1-1.367.2,2.156,2.156,0,0,1-2.422-2.4V10.2H46.02V8.547h1.234V6.469ZM54.6,17H52.332V8.547H54.6ZM52.2,6.359a1.112,1.112,0,0,1,.34-.836,1.465,1.465,0,0,1,1.848,0,1.105,1.105,0,0,1,.344.836,1.108,1.108,0,0,1-.348.844,1.448,1.448,0,0,1-1.836,0A1.108,1.108,0,0,1,52.2,6.359Zm6.336,2.188.07.977a2.951,2.951,0,0,1,2.43-1.133,2.453,2.453,0,0,1,2,.789,3.682,3.682,0,0,1,.672,2.359V17H61.449V11.594a1.465,1.465,0,0,0-.312-1.043,1.4,1.4,0,0,0-1.039-.324,1.553,1.553,0,0,0-1.43.813V17H56.41V8.547Zm6.555,4.164a4.954,4.954,0,0,1,.926-3.133,3,3,0,0,1,2.5-1.187,2.631,2.631,0,0,1,2.164.953l.094-.8h2.047v8.172a3.613,3.613,0,0,1-.5,1.93,3.236,3.236,0,0,1-1.418,1.25,4.985,4.985,0,0,1-2.141.43,4.635,4.635,0,0,1-1.812-.371A3.217,3.217,0,0,1,65.605,19l1-1.375a2.645,2.645,0,0,0,2.047.945,1.936,1.936,0,0,0,1.4-.48,1.8,1.8,0,0,0,.5-1.363v-.453a2.612,2.612,0,0,1-2.055.883,2.992,2.992,0,0,1-2.465-1.191,4.953,4.953,0,0,1-.941-3.16Zm2.258.164a3.076,3.076,0,0,0,.461,1.8,1.467,1.467,0,0,0,1.266.652,1.568,1.568,0,0,0,1.477-.773V11a1.565,1.565,0,0,0-1.461-.773,1.476,1.476,0,0,0-1.277.664A3.467,3.467,0,0,0,67.348,12.875Zm-39.469,9.75,2.922,8.25,2.906-8.25h3.078V34H34.434V30.891l.234-5.367L31.6,34H29.988l-3.062-8.469.234,5.359V34H24.816V22.625ZM41.066,34H38.8V25.547h2.266Zm-2.4-10.641a1.112,1.112,0,0,1,.34-.836,1.465,1.465,0,0,1,1.848,0,1.193,1.193,0,0,1,0,1.68,1.448,1.448,0,0,1-1.836,0A1.108,1.108,0,0,1,38.668,23.359Zm7.477,4.711,1.422-2.523H49.98l-2.406,4.141L50.082,34H47.66l-1.508-2.656L44.652,34h-2.43l2.508-4.312-2.4-4.141h2.422Z" transform="translate(1185.051 613)" fill="#12263f"/>
    <g id="Grupo_1103286" data-name="Grupo 1103286" transform="translate(1087.375 496.203) rotate(-48)">
      <path id="Trazado_913223" data-name="Trazado 913223" d="M30.656,25.274a.487.487,0,0,0,.486-.486V2.486A.487.487,0,0,0,30.656,2H8.354a.484.484,0,0,0-.486.486V15.339c-.024.01-.049.019-.068.029l-.9-.9a.492.492,0,0,0-.69,0L3.571,17.106a.47.47,0,0,0-.141.34.481.481,0,0,0,.141.345l.9.9a7.383,7.383,0,0,0-.456,1.1H2.746a.487.487,0,0,0-.486.486v3.729a.484.484,0,0,0,.486.486H4.018a7.437,7.437,0,0,0,.456,1.1l-.9.9a.489.489,0,0,0-.141.345.481.481,0,0,0,.141.345l2.642,2.637a.489.489,0,0,0,.69,0l.9-.9a8.3,8.3,0,0,0,1.1.456v1.272a.487.487,0,0,0,.486.486h3.734a.487.487,0,0,0,.486-.486V29.377a7.257,7.257,0,0,0,1.1-.456l.9.9a.489.489,0,0,0,.69,0l2.637-2.637a.481.481,0,0,0,.141-.345.489.489,0,0,0-.141-.345l-.9-.9c.053-.107.1-.214.146-.32Zm-15.9-3.132a3.508,3.508,0,1,1-3.506-3.506A3.512,3.512,0,0,1,14.759,22.142ZM8.84,2.971h7.206V9.793a.487.487,0,0,0,.486.486h5.948a.487.487,0,0,0,.486-.486V2.971h7.206V24.3H20.144c.015-.019.024-.049.039-.073a.152.152,0,0,0,.024-.049.419.419,0,0,0,.039-.175V20.277a.487.487,0,0,0-.486-.486H18.483a7.258,7.258,0,0,0-.456-1.1l.9-.9a.484.484,0,0,0,0-.685l-2.637-2.642a.489.489,0,0,0-.69,0l-.9.9a7.528,7.528,0,0,0-1.1-.456V13.639a.484.484,0,0,0-.486-.486H9.383a.484.484,0,0,0-.486.486v1.272c-.019,0-.039.015-.058.019V2.971Z" fill="#12263f"/>
      <path id="Trazado_913224" data-name="Trazado 913224" d="M44.884,42.976a.485.485,0,0,0,.486-.486v-2.58a.486.486,0,0,0-.971,0v2.58A.485.485,0,0,0,44.884,42.976Z" transform="translate(-21.677 -19.252)" fill="#12263f"/>
      <path id="Trazado_913225" data-name="Trazado 913225" d="M47.643,42.976a.485.485,0,0,0,.486-.486v-2.58a.486.486,0,0,0-.971,0v2.58A.485.485,0,0,0,47.643,42.976Z" transform="translate(-23.096 -19.252)" fill="#12263f"/>
      <path id="Trazado_913226" data-name="Trazado 913226" d="M50.4,42.976a.485.485,0,0,0,.486-.486v-2.58a.486.486,0,0,0-.971,0v2.58A.485.485,0,0,0,50.4,42.976Z" transform="translate(-24.516 -19.252)" fill="#12263f"/>
      <path id="Trazado_913227" data-name="Trazado 913227" d="M53.162,42.976a.485.485,0,0,0,.486-.486v-2.58a.486.486,0,0,0-.971,0v2.58A.485.485,0,0,0,53.162,42.976Z" transform="translate(-25.935 -19.252)" fill="#12263f"/>
      <path id="Trazado_913228" data-name="Trazado 913228" d="M55.921,42.976a.485.485,0,0,0,.486-.486v-2.58a.486.486,0,1,0-.971,0v2.58A.485.485,0,0,0,55.921,42.976Z" transform="translate(-27.355 -19.252)" fill="#12263f"/>
    </g>
    <g id="Grupo_1103287" data-name="Grupo 1103287" transform="translate(1314.993 490.207) rotate(-39)">
      <path id="Trazado_913229" data-name="Trazado 913229" d="M25.839,4.958a14.336,14.336,0,0,1-1.784,6.9.767.767,0,0,1-1.311-.8,13,13,0,0,0,1.561-6.1,3.153,3.153,0,0,0-3.068-3.424A3.071,3.071,0,0,0,18.169,4.6a24.263,24.263,0,0,0,.483,3.2.767.767,0,0,1-1.5.314A25.219,25.219,0,0,1,16.633,4.6a4.609,4.609,0,0,1,4.6-4.6A4.685,4.685,0,0,1,25.839,4.958ZM21.367,6.165c.305,2.549.747,7.516.239,8.022L10.46,25.334a1.755,1.755,0,0,1-2.484,0L.523,17.881a1.756,1.756,0,0,1,0-2.484L11.67,4.251a16.61,16.61,0,0,1,4.273-.072c-.012.143-.043.278-.043.424a15.184,15.184,0,0,0,.252,2.176,2.109,2.109,0,1,0,2.95-.55A12.857,12.857,0,0,1,18.9,4.6c0-.068.014-.131.02-.2.267.028.53.057.779.088C21.172,4.674,21.187,4.671,21.367,6.165Zm-5.941,8.342a4.805,4.805,0,0,0-1.086-1.722l.846-.847L14.244,11l-.913.914A2.494,2.494,0,0,0,9.994,12c-.932.932-.712,2.115-.028,3.49.47.952.556,1.5.191,1.865s-.98.212-1.529-.336A4.8,4.8,0,0,1,7.456,15l-1.414.838a5.51,5.51,0,0,0,1.23,2.037l-.922.923.941.942.991-.99a2.584,2.584,0,0,0,3.48-.057c.875-.877.952-1.857.2-3.414-.52-1.116-.645-1.664-.337-1.971.27-.27.75-.347,1.375.278A4.227,4.227,0,0,1,14.05,15.3Z" fill="#fff1f0"/>
    </g>
    <g id="Grupo_1103289" data-name="Grupo 1103289" transform="translate(1117.854 671.748) rotate(90)">
      <g id="Grupo_1103288" data-name="Grupo 1103288" transform="translate(10.11 -0.001)">
        <path id="Trazado_913233" data-name="Trazado 913233" d="M34.4,10.984l-.939,1.443a.782.782,0,0,0,0,.853l.94,1.444a2.46,2.46,0,0,1-1.183,3.639l-1.608.616a.784.784,0,0,0-.5.69l-.088,1.719a2.461,2.461,0,0,1-3.1,2.25l-1.662-.447a.784.784,0,0,0-.812.264L24.37,24.794a2.46,2.46,0,0,1-3.827,0L19.46,23.455a.782.782,0,0,0-.811-.264l-1.662.447a2.461,2.461,0,0,1-3.1-2.249l-.088-1.72a.782.782,0,0,0-.5-.69l-1.608-.615a2.46,2.46,0,0,1-1.183-3.64l.938-1.442a.784.784,0,0,0,0-.854l-.939-1.443a2.46,2.46,0,0,1,1.183-3.64L13.3,6.728a.783.783,0,0,0,.5-.69l.088-1.72a2.461,2.461,0,0,1,3.1-2.249l1.662.447a.784.784,0,0,0,.812-.264L20.543.913a2.461,2.461,0,0,1,3.828,0l1.082,1.339a.784.784,0,0,0,.811.264l1.664-.448a2.461,2.461,0,0,1,3.1,2.25l.088,1.719a.784.784,0,0,0,.5.691l1.608.615A2.461,2.461,0,0,1,34.4,10.984ZM19.063,17.375A1.678,1.678,0,1,0,17.385,15.7,1.68,1.68,0,0,0,19.063,17.375Zm6.153-9.509a1.678,1.678,0,1,0,1.678,1.678A1.68,1.68,0,0,0,25.216,7.866Zm1.432,8.077L18.817,8.112A.839.839,0,0,0,17.631,9.3l7.831,7.831a.839.839,0,0,0,1.187-1.186Z" transform="translate(-10.11 0.001)" fill="#ffdfde"/>
      </g>
    </g>
    <path id="Trazado_913234" data-name="Trazado 913234" d="M19.771,52.392l2.754,3.579a.784.784,0,0,1-.1,1.06l-.947.86a.788.788,0,0,1-1.155-.1l-3.053-3.953Zm15.108-9.186h2.805a.813.813,0,0,0,0-1.626H34.875a.813.813,0,0,0,0,1.626ZM31.549,35.82l1.4-2.429a.813.813,0,0,0-1.406-.816L30.144,35a.813.813,0,0,0,1.406.816Zm3.245,2.91,2.3-1.33a.817.817,0,1,0-.817-1.416l-2.3,1.33a.817.817,0,1,0,.817,1.416Zm-3.622,3.658,2.716,4.7a1.854,1.854,0,0,1-3.1,2.024h0A21.97,21.97,0,0,0,19.97,50.669l-3.744-6.485a21.923,21.923,0,0,0,6.762-8.573h0a1.854,1.854,0,0,1,3.294-1.694L29,38.622a2.194,2.194,0,1,1,2.175,3.766ZM19.029,51.355,15.106,44.56l-3.119,1.8A3.99,3.99,0,0,0,10.531,51.8h0a3.99,3.99,0,0,0,5.435,1.456l3.119-1.8Z" transform="translate(1345 751.637) rotate(180)" fill="#12263f" fill-rule="evenodd"/>
    <g id="XMLID_1228_" transform="translate(1192.901 543.728)">
      <g id="XMLID_1749_" transform="translate(0.991 1.625)">
        <g id="XMLID_1548_" transform="translate(3.467 17.783)">
          <path id="XMLID_1681_" d="M38.239,462.083a4.929,4.929,0,0,0,4.882,4.3H79.276a4.929,4.929,0,0,0,4.882-4.3Zm25.029,2.8H59.252a.618.618,0,0,1,0-1.235h4.016a.618.618,0,0,1,0,1.235Z" transform="translate(-38.239 -426.729)" fill="#12263f"/>
          <g id="XMLID_1949_" transform="translate(10.75 0)">
            <g id="XMLID_1220_" transform="translate(13.437)">
              <path id="XMLID_1419_" d="M272.758,249.223a1.422,1.422,0,0,0-.048-1.1,1.44,1.44,0,0,0-1.911-.694l-1.107.515.346.741.37-.172a.618.618,0,0,1,.521,1.12l-.369.172.346.741c.672-.313,1.573-.561,1.852-1.327Z" transform="translate(-266.892 -236.988)" fill="#12263f"/>
              <path id="XMLID_1466_" d="M249.174,161.133c-1.647-1.762-2.723-2.26-3.117-2.26-.156,0-.208.116-.255.247-.428,1.177.231,4.8,2.192,9.576l1.069-.5a2.67,2.67,0,1,1,2.258,4.84l-1.067.5a37.881,37.881,0,0,0,3.431,5.475c1.747,2.246,2.632,2.457,2.774,2.392.013-.006.128-.067.248-.4.671-1.843-.107-7.047-2.532-12.241a30.083,30.083,0,0,0-5-7.632Z" transform="translate(-245.677 -158.873)" fill="#12263f"/>
            </g>
            <g id="XMLID_1428_" transform="translate(0 3.739)">
              <path id="XMLID_1611_" d="M159.009,279.161c-.566.305-1.158.562-1.74.834a13.582,13.582,0,0,0,2.6,5.576,22.7,22.7,0,0,1,2.594-1.1,14.776,14.776,0,0,1-2.689-5.759c-.25.156-.508.306-.768.446h0C158.444,279.467,159.062,279.133,159.009,279.161Zm2.4,4.428a.618.618,0,0,1-.3.821l-.663.309a.618.618,0,0,1-.521-1.12l.663-.309a.618.618,0,0,1,.82.3Zm-.986-1.675a.618.618,0,0,1-.3.821l-.663.309a.618.618,0,0,1-.521-1.12l.663-.309a.617.617,0,0,1,.82.3Zm-1-.888-.663.309a.618.618,0,0,1-.521-1.12l.663-.309a.618.618,0,0,1,.521,1.12Z" transform="translate(-154.14 -268.48)" fill="#12263f"/>
              <path id="XMLID_1623_" d="M132.42,294.265l-.211.1a3.077,3.077,0,1,0,2.605,5.575l.21-.1A14.817,14.817,0,0,1,132.42,294.265Z" transform="translate(-130.437 -282.217)" fill="#12263f"/>
              <path id="XMLID_1624_" d="M197.232,199.991a43.167,43.167,0,0,1-3.2-9.052l-.993,3.307a13.261,13.261,0,0,1-4.777,6.164,13.54,13.54,0,0,0,2.88,6.168,13.292,13.292,0,0,1,7.8.308l3.173,1.365a43.192,43.192,0,0,1-4.888-8.26Z" transform="translate(-181.524 -190.939)" fill="#12263f"/>
            </g>
          </g>
        </g>
        <path id="XMLID_1429_" d="M411.834,320.461a4.524,4.524,0,1,0,4.516,4.524A4.525,4.525,0,0,0,411.834,320.461Zm.34,6.69v.753h-.756v-.711a1.811,1.811,0,0,1-1.023-.385l.272-.757a1.843,1.843,0,0,0,1.042.374c.376,0,.629-.2.629-.487,0-.2-.077-.408-.649-.639-.622-.243-1.2-.569-1.2-1.3a1.256,1.256,0,0,1,1.01-1.2v-.7h.756v.655a1.873,1.873,0,0,1,.875.314l-.283.745a1.806,1.806,0,0,0-.923-.3c-.4,0-.542.211-.542.408,0,.213.1.35.724.606a1.479,1.479,0,0,1,1.123,1.365A1.271,1.271,0,0,1,412.173,327.151Z" transform="translate(-360.816 -283.837)" fill="#12263f"/>
        <path id="XMLID_1956_" d="M203.228,6.363a5.142,5.142,0,1,0,5.133,5.142A5.143,5.143,0,0,0,203.228,6.363Zm.34,7.307v.753h-.756v-.711a1.888,1.888,0,0,1-1.023-.385l.272-.757a1.847,1.847,0,0,0,1.042.374c.376,0,.629-.2.629-.487,0-.2-.077-.408-.649-.639-.622-.243-1.2-.57-1.2-1.3a1.256,1.256,0,0,1,1.01-1.2v-.7h.756v.655a1.97,1.97,0,0,1,.875.314l-.283.744a1.808,1.808,0,0,0-.923-.3c-.4,0-.542.211-.542.408,0,.212.1.35.724.606a1.479,1.479,0,0,1,1.123,1.365,1.27,1.27,0,0,1-1.059,1.26Z" transform="translate(-175.989 -6.363)" fill="#12263f"/>
        <g id="XMLID_367_" transform="translate(6.11 25.776)">
          <g id="XMLID_1498_" transform="translate(3.426 3.54)">
            <path id="XMLID_1605_" d="M194.073,344.944l-5.5-8.2a18.04,18.04,0,0,0-2.828,1.119l4.905,8.68ZM191.3,343.3a.737.737,0,1,1-.357.979A.738.738,0,0,1,191.3,343.3Z" transform="translate(-174.612 -327.535)" fill="#12263f"/>
            <path id="XMLID_1628_" d="M118.944,257.792a28.328,28.328,0,0,1,1.883,7.519,8.168,8.168,0,0,1-.313,3.695l0,.006c-.054.12-.441,1.456-2.2.827l-6.415-2.76a11.676,11.676,0,0,0-6.369-.376l5.642,8.41a.624.624,0,0,1-.252.9l-4.6,2.141a.624.624,0,0,1-.8-.256l-5.234-9.262-.427.2a4.312,4.312,0,1,1-3.648-7.815l2.5-1.164a13.5,13.5,0,0,0,3.1-2.067H93.073a6.828,6.828,0,0,1-2.79,5.518l.023,17.067h33.768V257.792Z" transform="translate(-90.283 -257.792)" fill="#12263f"/>
          </g>
          <path id="XMLID_1141_" d="M116.469,229.736a11.464,11.464,0,0,0,1.668-2.3h-12.7a6.734,6.734,0,0,1,.9,2.3Z" transform="translate(-100.24 -227.431)" fill="#12263f"/>
          <path id="XMLID_1445_" d="M63.1,311.23a6.731,6.731,0,0,1-2.19.563v15.792h2.214Z" transform="translate(-60.904 -301.459)" fill="#12263f"/>
          <path id="XMLID_1497_" d="M332.478,228.524a1.094,1.094,0,0,0-1.094-1.093h-9.058c.237.454.464.914.679,1.375.145.311.284.621.417.93h6.256a.617.617,0,0,1,.617.618v23.2h2.181V246.65a5.754,5.754,0,0,1,0-7.7Z" transform="translate(-291.844 -227.431)" fill="#12263f"/>
        </g>
        <g id="XMLID_1229_" transform="translate(0 23.816)">
          <path id="XMLID_1413_" d="M71.688,258.983c-.354,0-.516.545-.516,1.052,0,.315.06,1.043.516,1.043s.507-.741.507-1.06S72.146,258.983,71.688,258.983Z" transform="translate(-63.865 -253.344)" fill="#12263f"/>
          <path id="XMLID_1418_" d="M32.758,239.039c-.4,0-.507.661-.507,1.051-.007.314.046,1.043.507,1.043s.507-.741.507-1.06C33.264,239.687,33.2,239.039,32.758,239.039Z" transform="translate(-29.481 -235.725)" fill="#12263f"/>
          <path id="XMLID_1755_" d="M14.048,210.618a5.541,5.541,0,1,0,5.545,5.541A5.55,5.55,0,0,0,14.048,210.618Zm-3.821,4.393c0-1.164.649-1.976,1.578-1.976s1.526.727,1.526,1.9c0,1.376-.788,1.992-1.569,1.992C11.006,216.923,10.238,216.332,10.227,215.011Zm2.534,4.272h-.99l3.555-6.248h.99Zm3.547-.034c-.756,0-1.524-.589-1.534-1.9,0-1.371.792-1.985,1.578-1.985.936,0,1.517.727,1.517,1.9C17.869,218.633,17.085,219.249,16.309,219.249Z" transform="translate(-8.503 -210.618)" fill="#12263f"/>
        </g>
        <g id="XMLID_1750_" transform="translate(38.402 0.916)">
          <g id="XMLID_485_">
            <path id="XMLID_1227_" d="M406.979,42.416l-3.248,1.718,3.248,1.718Z" transform="translate(-396.049 -39.128)" fill="#12263f"/>
            <path id="XMLID_1469_" d="M356.775,24.258V14.221h-18.9l-.005,10.037h18.9Zm-12.3-5.861,4.182-2.211a.946.946,0,0,1,1.375.829v4.423a.946.946,0,0,1-1.375.829l-4.182-2.211a.947.947,0,0,1,0-1.659Z" transform="translate(-337.869 -14.221)" fill="#12263f"/>
            <path id="XMLID_1752_" d="M337.852,110.895l0,3.718h18.907v-3.718Zm2.822,2.464h-1.253a.618.618,0,0,1,0-1.235h1.253a.618.618,0,0,1,0,1.235Zm11.051,0h-5.132a1.08,1.08,0,0,1-1.774,0h-1.962a.618.618,0,0,1,0-1.235h1.962a1.08,1.08,0,0,1,1.774,0h5.132a.618.618,0,0,1,0,1.235Zm3.489,0h-.01v.01a.617.617,0,1,1-1.235,0v-.01h-.01a.618.618,0,0,1,0-1.235h.01v-.01a.617.617,0,1,1,1.235,0v.01h.01a.618.618,0,0,1,0,1.235Z" transform="translate(-337.85 -99.623)" fill="#12263f"/>
          </g>
        </g>
      </g>
      <g id="XMLID_1223_" transform="translate(0 1)">
        <path id="XMLID_2140_" d="M39.324,19.727a8.85,8.85,0,0,0,3.435.688h7.71a1.027,1.027,0,1,0-.009-2.055H48.712a.48.48,0,0,1,0-.96h2.6a1.027,1.027,0,1,0-.01-2.055h-2.07a.482.482,0,0,1-.005-.96h2.93a1.027,1.027,0,1,0-.009-2.055H49.417a.475.475,0,0,1-.475-.475.484.484,0,0,1,.475-.485H53a1.024,1.024,0,0,0,1.023-1.023A1.037,1.037,0,0,0,53,9.315L45.236,9.3A.919.919,0,0,1,44.4,8.07a19.078,19.078,0,0,0,.73-2.2A5.79,5.79,0,0,0,43.722,1a23.019,23.019,0,0,1-2.2,5.887,8.958,8.958,0,0,1-2.193,2.52v10.32Z" transform="translate(-34.739 -1)" fill="#12263f"/>
        <path id="XMLID_2144_" d="M0,71.309v10.9H3.631v-10.9Zm1.815,9.16a.844.844,0,1,1,.844-.844A.844.844,0,0,1,1.815,80.469Z" transform="translate(0 -63.111)" fill="#12263f"/>
      </g>
    </g>
  </g>
</svg>
