<svg id="Grupo_1103041" data-name="Grupo 1103041" xmlns="http://www.w3.org/2000/svg" width="78" height="78.163" viewBox="0 0 78 78.163">
  <path id="Trazado_913173" data-name="Trazado 913173" d="M50.378,25.189A25.189,25.189,0,0,0,0,25.189c0,6.366,1.191,12.64,2.336,18.731,1.1,5.908,2.244,12.106,2.244,18.06A16.178,16.178,0,0,0,20.609,78.163a15.187,15.187,0,0,0,4.58-.687A16.25,16.25,0,0,0,36.639,61.98a14.94,14.94,0,0,0-.321-3.206C35.219,53.279,39.2,46.806,43,43A25.011,25.011,0,0,0,50.378,25.189Z" fill="#fed2a4"/>
  <path id="Trazado_913174" data-name="Trazado 913174" d="M182.816,43c-3.8,3.8-7.786,10.274-6.687,15.77a14.931,14.931,0,0,1,.321,3.206A16.25,16.25,0,0,1,165,77.475V0a25.2,25.2,0,0,1,17.816,43Z" transform="translate(-139.811)" fill="#ffbd86"/>
  <path id="Trazado_913175" data-name="Trazado 913175" d="M91.692,72.5A15.982,15.982,0,0,0,79.006,60.275,16.763,16.763,0,0,0,76.029,60,16.047,16.047,0,0,0,60,76.029c0,7.374,1.878,14.976,3.252,22.9A8.045,8.045,0,0,0,76.029,104.2a8.014,8.014,0,0,0,3.206-4.946l.321-1.74a16.076,16.076,0,0,0-14.93-19.19c-.046-.779-.046-1.511-.046-2.29a11.453,11.453,0,0,1,11.45-11.45,11.725,11.725,0,0,1,2.152.183,11.564,11.564,0,0,1,9.023,8.7,11.428,11.428,0,0,1-3.068,10.671l3.252,3.252A16.287,16.287,0,0,0,91.692,72.5Z" transform="translate(-50.84 -50.84)" fill="#f6a96c"/>
  <g id="Grupo_1103039" data-name="Grupo 1103039" transform="translate(54.958 9.401)">
    <rect id="Rectángulo_404228" data-name="Rectángulo 404228" width="23" height="4" transform="translate(0.042 27.599)" fill="#ff9f00"/>
    <path id="Trazado_913176" data-name="Trazado 913176" d="M386.763,374.839l-18.472-9.16,2.048-4.1,18.472,9.16Z" transform="translate(-367.025 -315.784)" fill="#ff9f00"/>
    <path id="Trazado_913177" data-name="Trazado 913177" d="M370.339,74.839l-2.048-4.1,18.472-9.16,2.048,4.1Z" transform="translate(-367.025 -61.582)" fill="#ff9f00"/>
  </g>
  <g id="Grupo_1103040" data-name="Grupo 1103040" transform="translate(25.189 9.16)">
    <path id="Trazado_913178" data-name="Trazado 913178" d="M165,216.9a15.926,15.926,0,0,1,3.527,13.556l-.321,1.74A8.014,8.014,0,0,1,165,237.142V216.9Z" transform="translate(-165 -192.947)" fill="#ea9b58"/>
    <path id="Trazado_913179" data-name="Trazado 913179" d="M176.358,87.387l-3.252-3.252a11.427,11.427,0,0,0,3.068-10.671,11.564,11.564,0,0,0-9.022-8.7A11.735,11.735,0,0,0,165,64.58V60a16.763,16.763,0,0,1,2.977.275A15.982,15.982,0,0,1,180.663,72.5,16.287,16.287,0,0,1,176.358,87.387Z" transform="translate(-165 -60)" fill="#ea9b58"/>
  </g>
</svg>
