<svg xmlns="http://www.w3.org/2000/svg" width="99.593" height="93.423" viewBox="0 0 99.593 93.423">
  <g id="Grupo_1103042" data-name="Grupo 1103042" transform="translate(-26.008 -40.255)">
    <path id="Trazado_913180" data-name="Trazado 913180" d="M142.868,41.338a1.083,1.083,0,1,1,2.165,0v12.1a1.083,1.083,0,1,1-2.165,0Zm30.426,16.319a1.08,1.08,0,1,1,1.083,1.869L163.9,65.577a1.08,1.08,0,0,1-1.083-1.869ZM160.27,45.419,154.219,55.9a1.08,1.08,0,1,0,1.869,1.083L162.139,46.5a1.08,1.08,0,0,0-1.869-1.083ZM113.525,59.526a1.08,1.08,0,0,1,1.083-1.869l10.481,6.051a1.08,1.08,0,1,1-1.083,1.869ZM125.762,46.5l6.051,10.481a1.08,1.08,0,1,0,1.869-1.083l-6.051-10.481a1.08,1.08,0,1,0-1.869,1.083Z" transform="translate(-68.146)" fill="#e6bd5c" fill-rule="evenodd"/>
    <path id="Trazado_913181" data-name="Trazado 913181" d="M142.868,43.1a1.076,1.076,0,0,1,.156-.559,1.083,1.083,0,0,1,1.36,1.047v12.1a.806.806,0,1,1-1.516-.487Zm29.776,16.806a1.08,1.08,0,0,1,1.421,1.561L163.9,67.339a1.08,1.08,0,0,1-1.421-1.561Zm-12.365-12.74a1.08,1.08,0,0,1,1.21,1.585l-6.051,10.481-.009.016a1.08,1.08,0,0,1-1.21-1.585l6.051-10.481ZM113.141,59.8a1.077,1.077,0,0,1,.817.11l10.481,6.051a1.08,1.08,0,0,1,.393,1.476l-.009.016a1.077,1.077,0,0,1-.817-.11l-10.481-6.051a1.08,1.08,0,0,1-.393-1.476Zm12.63-12.631a1.08,1.08,0,0,1,1.21.5l6.051,10.481a.732.732,0,1,1-1.219.6l-6.051-10.481A1.08,1.08,0,0,1,125.771,47.166Z" transform="translate(-68.146 -1.763)" fill="#ffd266" fill-rule="evenodd"/>
    <path id="Trazado_913182" data-name="Trazado 913182" d="M156.72,254.583a4.872,4.872,0,0,1-1.149.658c3,3.611-.567,9.351-5.194,8.115a5.178,5.178,0,0,1-5.837,5.658c.527,3.826-3.558,7.522-7.6,5.169l-6.751-3.931.935-1.826c1.058-2.066-.813-4.068-2.7-4.142l-3.835-.15,2.112-3.2c1.581-2.4-.81-4.677-2.836-4.489l-2.778.257.44-2.755c.369-2.311-2.795-4.388-4.749-2.657L114.4,253.4l-1.085-3c-.677-1.868-3.525-3.172-5.184-.813l-3.914,5.564L94.722,243.3l12.97-22.465,14.8,5.287-6.463,6.314-.438,9.226c-.046.973.146,1.724,1.214,1.775a6.255,6.255,0,0,0,2.909-.876c1.761-.951,3.133-4.655,4.146-6.63l.337-.658,1.288-.607c3.018-1.433,6.194-2.835,9.4-.982l21.423,12.4a5.043,5.043,0,0,1,.545,8.4Z" transform="translate(-53.837 -141.484)" fill="#d9b7a9" fill-rule="evenodd"/>
    <path id="Trazado_913183" data-name="Trazado 913183" d="M158.719,255.032a4.7,4.7,0,0,1-.452.21,4.934,4.934,0,0,1,.422.591,5.109,5.109,0,0,1-6.266,4.493,5.178,5.178,0,0,1-5.837,5.658,5.151,5.151,0,0,1-7.6,5.169q-2.741-1.331-5.225-2.612l.058-.113c1.058-2.066-.813-4.068-2.7-4.142l-3.835-.15,2.112-3.2c1.581-2.4-.81-4.677-2.836-4.489l-2.778.257.44-2.755c.369-2.311-2.795-4.388-4.749-2.657l-2.386,2.113-1.085-3c-.677-1.868-3.525-3.172-5.184-.813l-2.641,3.754q-.986-.632-1.923-1.221l-8.1-10.111,12.225-21.175,13.582,4.852c4.014,2.058,5.383,3.236,13.608,8L159,246.087a5.137,5.137,0,0,1,1.857,1.786,5.422,5.422,0,0,1-1.962,3.582l-.13.1a4.873,4.873,0,0,1-1.149.658,4.687,4.687,0,0,1,1.1,2.821Z" transform="translate(-56.532 -141.484)" fill="#f6ccb3" fill-rule="evenodd"/>
    <path id="Trazado_913184" data-name="Trazado 913184" d="M302.393,346.967q-.163.086-.33.158l-11.906-6.932a1.08,1.08,0,1,1,1.083-1.869l10.1,5.88A4.681,4.681,0,0,1,302.393,346.967Zm-4.682,5.452-9.936-5.785a1.08,1.08,0,1,0-1.083,1.869l9.293,5.411a5.029,5.029,0,0,0,.112-1.653A4.871,4.871,0,0,0,297.71,352.42Zm-6.221,5.555a4.774,4.774,0,0,1-1.23-.056,5.035,5.035,0,0,1-.075,1.8l-8.106-4.72a1.08,1.08,0,1,1,1.083-1.869Z" transform="translate(-200.206 -233.42)" fill="#d9b7a9" fill-rule="evenodd"/>
    <path id="Trazado_913185" data-name="Trazado 913185" d="M193.429,237.106c-1.264,2.49-2.536,6.194-5.038,7.545-1.618.873-3.926,1.675-5.67.695a3.683,3.683,0,0,1-1.656-3.6l.479-10.082,2.8-2.743c2.581-2.543,5.769-5.971,9.3-7.079a13.712,13.712,0,0,1,7.165.01,32.419,32.419,0,0,0,16.809-.288l1.641-.492L232.4,243.83l-9.03,4.611-21.936-12.7C198.777,234.2,195.957,235.921,193.429,237.106Z" transform="translate(-121.48 -141.664)" fill="#c3a598" fill-rule="evenodd"/>
    <path id="Trazado_913186" data-name="Trazado 913186" d="M181.211,241.192l.453-9.534,2.8-2.743c2.581-2.543,5.769-5.971,9.3-7.079a13.712,13.712,0,0,1,7.165.01,32.418,32.418,0,0,0,16.809-.288l1.641-.492,11.861,20.545-8.074,4.123-21.936-12.7c-2.661-1.54-5.48.177-8.009,1.361-1.264,2.49-2.536,6.194-5.038,7.545-1.618.873-3.926,1.675-5.67.695A3.034,3.034,0,0,1,181.211,241.192Z" transform="translate(-121.6 -141.664)" fill="#f6ccb3" fill-rule="evenodd"/>
    <path id="Trazado_913187" data-name="Trazado 913187" d="M138.957,340.235a5.09,5.09,0,0,1,.519,1.038c3.464-3.068,9.014.293,8.322,4.619,3.812-.353,7.443,3.893,4.843,7.837,3.653.144,6.738,4.267,4.1,8.013l-1.995,2.836c-2.717,3.863-7.872,2.14-9.044-1.477-3.045,2.214-7.405-.013-7.949-3.507-3.567,1.339-7.773-2.106-6.752-5.973-3.786.16-7.242-4.112-4.5-8.013l3.978-5.655A5.031,5.031,0,0,1,138.957,340.235Z" transform="translate(-77.966 -233.092)" fill="#c3a598" fill-rule="evenodd"/>
    <path id="Trazado_913188" data-name="Trazado 913188" d="M139.351,343.7q.067.152.124.309a4.965,4.965,0,0,1,.533-.412,5,5,0,0,1,1.558.12,5.2,5.2,0,0,1,4.065,5.669c3.812-.353,7.443,3.893,4.843,7.837,3.653.143,6.738,4.267,4.1,8.013l-1.995,2.836a5.452,5.452,0,0,1-1.424,1.418,5,5,0,0,1-1.559-.12,5.443,5.443,0,0,1-3.9-3.533,4.555,4.555,0,0,1-2.135.848c-.01-.03-.02-.06-.03-.09-.052.038-.1.074-.157.109a5,5,0,0,1-1.558-.12,5.373,5.373,0,0,1-4.069-4.254c-3.567,1.339-7.773-2.106-6.752-5.973-3.786.16-7.242-4.112-4.5-8.013l3.978-5.655a5.453,5.453,0,0,1,1.425-1.418,5,5,0,0,1,1.556.12,5.455,5.455,0,0,1,3.845,3.377,4.639,4.639,0,0,1,2.041-1.067Z" transform="translate(-77.966 -235.83)" fill="#f6ccb3" fill-rule="evenodd"/>
    <path id="Trazado_913189" data-name="Trazado 913189" d="M153.08,352.121q.067.152.124.309a4.97,4.97,0,0,1,.533-.412,4.843,4.843,0,0,1,.768,0l-9.924,14.108a4.583,4.583,0,0,1,.151-1.346,5.036,5.036,0,0,1-1.365-.133q-.164-.039-.326-.088l8-11.369a4.64,4.64,0,0,1,2.041-1.067Zm6.338,5.056-9.749,13.861a4.622,4.622,0,0,0,1.817-.287,4.731,4.731,0,0,0,.291,1.047l9.663-13.737q-.234-.079-.476-.136a4.988,4.988,0,0,0-1.6-.117,4.545,4.545,0,0,0,.057-.63Zm5.666,5.786a5.018,5.018,0,0,1-.879,2.681,5.121,5.121,0,0,1,.971.133q.241.057.476.136l-6.1,8.67q-.065-.16-.118-.325a4.555,4.555,0,0,1-2.135.848c-.01-.03-.02-.06-.03-.09-.052.038-.1.074-.157.109a4.82,4.82,0,0,1-.592.013Z" transform="translate(-91.695 -244.25)" fill="#c3a598" fill-rule="evenodd"/>
    <path id="Trazado_913190" data-name="Trazado 913190" d="M349.051,180.642l7.66-4.422a4.523,4.523,0,0,1,6.133,1.586c.014.021.028.043.042.066l13.443,23.284a4.523,4.523,0,0,1-1.657,6.174l-7.57,4.37a1.069,1.069,0,0,1-.166.1,4.527,4.527,0,0,1-6.05-1.624,1.068,1.068,0,0,1-.084-.143l-13.4-23.215a4.523,4.523,0,0,1,1.586-6.133c.022-.015.044-.029.066-.042Z" transform="translate(-251.332 -106.053)" fill="#ee4f47" fill-rule="evenodd"/>
    <path id="Trazado_913191" data-name="Trazado 913191" d="M349.051,184.243l6.983-4.031.1.026a4.509,4.509,0,0,1,2.7,2.036c.014.021.028.043.042.066l13.443,23.284a4.523,4.523,0,0,1-1.657,6.174l-6.981,4.031-.1-.025a4.508,4.508,0,0,1-2.7-2.028,1.068,1.068,0,0,1-.084-.143l-13.4-23.215a4.523,4.523,0,0,1,1.586-6.133c.022-.015.044-.029.066-.042Z" transform="translate(-251.332 -109.654)" fill="#ee4f47" fill-rule="evenodd"/>
    <path id="Trazado_913192" data-name="Trazado 913192" d="M46.229,176.219l7.66,4.422c.023.013.045.027.066.042a4.523,4.523,0,0,1,1.586,6.133l-13.4,23.215a1.081,1.081,0,0,1-.084.143A4.527,4.527,0,0,1,36,211.8a1.09,1.09,0,0,1-.166-.1l-7.57-4.371a4.523,4.523,0,0,1-1.656-6.174l13.443-23.284c.013-.023.027-.045.042-.066a4.523,4.523,0,0,1,6.133-1.586Z" transform="translate(0 -106.052)" fill="#4045ab" fill-rule="evenodd"/>
    <path id="Trazado_913193" data-name="Trazado 913193" d="M37.033,215.878A4.5,4.5,0,0,1,36,215.466a1.088,1.088,0,0,1-.166-.1L28.269,211a4.523,4.523,0,0,1-1.656-6.174l13.443-23.284c.013-.023.027-.045.042-.066a4.5,4.5,0,0,1,1.02-1.177,4.506,4.506,0,0,1,1.107.456l7.66,4.422c.023.013.045.027.066.042a4.523,4.523,0,0,1,1.586,6.133l-13.4,23.215a1.105,1.105,0,0,1-.083.143A4.487,4.487,0,0,1,37.033,215.878Z" transform="translate(0 -109.722)" fill="#4045ab" fill-rule="evenodd"/>
  </g>
</svg>
