<svg xmlns="http://www.w3.org/2000/svg" width="103.72" height="107.852" viewBox="0 0 103.72 107.852">
  <g id="Grupo_1103820" data-name="Grupo 1103820" transform="translate(-1168.878 -6198.488)">
    <g id="Grupo_1101013" data-name="Grupo 1101013" transform="translate(48.83 2879.988)">
      <circle id="Elipse_11528" data-name="Elipse 11528" cx="51.86" cy="51.86" r="51.86" transform="translate(1120.047 3322.631)" fill="#4045ab"/>
      <g id="Layer_2" data-name="Layer 2" transform="translate(1128.68 3328.25)">
        <path id="Trazado_913508" data-name="Trazado 913508" d="M26.48,33.836H11.971A2.721,2.721,0,0,1,9.25,31.115V26.693a6.34,6.34,0,0,1,4.807-6.158l7.255-1.814A6.347,6.347,0,0,1,29.2,24.879v6.236A2.721,2.721,0,0,1,26.48,33.836ZM14.691,28.395h9.068V24.879A.909.909,0,0,0,22.631,24l-7.253,1.814a.907.907,0,0,0-.687.88Z" transform="translate(23.391 34.404)" fill="#ee4f47"/>
        <path id="Trazado_913509" data-name="Trazado 913509" d="M34.107,31.946H15.971a2.721,2.721,0,0,1,0-5.441H34.107a4.538,4.538,0,0,0,4.534-4.534,2.721,2.721,0,1,1,5.441,0,9.985,9.985,0,0,1-9.975,9.975Z" transform="translate(33.901 36.294)" fill="#ee4f47"/>
        <g id="Grupo_1103420" data-name="Grupo 1103420" transform="translate(7.25 -9.751)">
          <path id="Trazado_913510" data-name="Trazado 913510" d="M14.039,38.455H8.6A6.356,6.356,0,0,1,2.25,32.107V13.971A2.721,2.721,0,0,1,4.971,11.25h9.068A8.17,8.17,0,0,1,22.2,19.412V30.294A8.17,8.17,0,0,1,14.039,38.455ZM7.691,16.691V32.107a.909.909,0,0,0,.907.907h5.441a2.724,2.724,0,0,0,2.721-2.721V19.412a2.724,2.724,0,0,0-2.721-2.721Z" transform="translate(-2.25 25.026)" fill="#ee4f47"/>
          <path id="Trazado_913511" data-name="Trazado 913511" d="M29.853,38.455H24.412a8.17,8.17,0,0,1-8.162-8.162V19.412a8.17,8.17,0,0,1,8.162-8.162H33.48A2.721,2.721,0,0,1,36.2,13.971V32.107a6.356,6.356,0,0,1-6.348,6.348ZM24.412,16.691a2.724,2.724,0,0,0-2.721,2.721V30.294a2.724,2.724,0,0,0,2.721,2.721h5.441a.909.909,0,0,0,.907-.907V16.691Z" transform="translate(34.533 25.026)" fill="#ee4f47"/>
          <path id="Trazado_913512" data-name="Trazado 913512" d="M5.078,43.407a2.721,2.721,0,0,1-2.721-2.683L2.308,37.1a35.366,35.366,0,1,1,70.726-.96l.05,3.627A2.723,2.723,0,0,1,70.4,42.522h-.037a2.721,2.721,0,0,1-2.721-2.683l-.05-3.627a29.925,29.925,0,1,0-59.844.811L7.8,40.65a2.723,2.723,0,0,1-2.683,2.758Z" transform="translate(-2.107 -1.249)" fill="#ee4f47"/>
          <path id="Trazado_913513" data-name="Trazado 913513" d="M14.949,19.57a6.237,6.237,0,0,1-3.161-.861L4.88,14.67a2.72,2.72,0,0,1,2.745-4.7l6.911,4.042a.879.879,0,0,0,1.139-.269A23.268,23.268,0,0,1,52.8,13.239a.872.872,0,0,0,1.142.243l6.8-4.229a2.721,2.721,0,1,1,2.873,4.623l-6.8,4.226a6.3,6.3,0,0,1-8.312-1.52,17.827,17.827,0,0,0-28.448.388,6.341,6.341,0,0,1-5.108,2.6Z" transform="translate(1.119 6.633)" fill="#ee4f47"/>
        </g>
      </g>
    </g>
  </g>
</svg>
