<svg id="Grupo_1102945" data-name="Grupo 1102945" xmlns="http://www.w3.org/2000/svg" width="82.891" height="82.891" viewBox="0 0 82.891 82.891">
  <g id="Grupo_1102945-2" data-name="Grupo 1102945" transform="translate(16.578 14.496)">
    <path id="Trazado_913010" data-name="Trazado 913010" d="M221.754,164.262c-.518,1.554-1.554,2.763-2.59,2.59-.863-.173-1.209-1.727-.691-3.281s1.554-2.763,2.59-2.59C221.927,161.154,222.272,162.708,221.754,164.262Z" transform="translate(-199.477 -149.401)" fill="#ffd15c"/>
    <path id="Trazado_913011" data-name="Trazado 913011" d="M122.473,164.262c.518,1.554,1.554,2.763,2.59,2.59.863-.173,1.209-1.727.691-3.281s-1.554-2.763-2.59-2.59C122.3,161.154,121.955,162.708,122.473,164.262Z" transform="translate(-119.019 -149.401)" fill="#ffd15c"/>
    <path id="Trazado_913012" data-name="Trazado 913012" d="M104.99,117.178l4.145-3.972s-1.036-4.663-1.036-5.7-2.59-7.944-1.554-11.57c1.036-3.454,1.036-6.217,6.735-6.39s6.908,1.9,8.807,3.972c1.9,2.245,1.381,9.325,1.381,10.534s-1.209,7.6-2.936,9.843v1.9l4.663,6.908.173,7.426-4.317.518-18.65-3.8Z" transform="translate(-102.4 -89.538)" fill="#ffd15c"/>
  </g>
  <path id="Trazado_913013" data-name="Trazado 913013" d="M160.06,246.3,155.4,239.39v-1.9s-6.044,5.181-11.4-.691c0,0,3.454,8.807,16.06,11.052Z" transform="translate(-120.687 -198.463)" fill="#f7b64c"/>
  <path id="Trazado_913014" data-name="Trazado 913014" d="M280.115,331.012a29.15,29.15,0,0,1-2.59-10.361,39.93,39.93,0,0,0-1.209-8.116l-3.281,2.59s-.518,8.807-1.036,15.887Z" transform="translate(-227.964 -261.936)" fill="#344a5e"/>
  <path id="Trazado_913015" data-name="Trazado 913015" d="M128.334,305.98l-3.454-23.313h-.864a6.911,6.911,0,0,1-1.9,2.072,9.852,9.852,0,0,1-11.57.173,5.976,5.976,0,0,1-1.727-1.9h-1.9c-.863,5.526-2.072,14.333-3.454,23.14l24.867-.173Z" transform="translate(-86.716 -236.904)" fill="#e8eae9"/>
  <g id="Grupo_1102946" data-name="Grupo 1102946" transform="translate(4.145 38.164)">
    <path id="Trazado_913016" data-name="Trazado 913016" d="M217.65,280.055H224.9a47.825,47.825,0,0,1,.863-5.008c.863-3.8,1.209-13.47,1.209-13.47s-9.152-5.526-10.879-7.253a19.236,19.236,0,0,0-2.763-2.59,23.639,23.639,0,0,1,2.418,8.462C216.1,263.3,216.959,272.8,217.65,280.055Z" transform="translate(-182.94 -249.144)" fill="#ca7441"/>
    <path id="Trazado_913017" data-name="Trazado 913017" d="M27.672,265.954v.691H44.078c-.173-6.908-.345-18.478-.518-21.759a30.232,30.232,0,0,1,1.036-9.152c-2.763,1.209-3.972,3.8-7.08,4.49C34.58,240.742,25.6,244.2,25.6,244.2a51.586,51.586,0,0,1,2.418,9.325C28.708,257.665,27.672,265.954,27.672,265.954Z" transform="translate(-25.6 -235.734)" fill="#ca7441"/>
  </g>
  <path id="Trazado_913018" data-name="Trazado 913018" d="M0,310.45H10.879a63.513,63.513,0,0,0,.173-7.944A24.445,24.445,0,0,1,11.4,297.5a8.134,8.134,0,0,0-.345-3.454,7.384,7.384,0,0,0-5.871-5.7L4.145,288s-1.9,0-1.9,4.145.691,3.626-.518,8.98C1.209,303.542.518,307.168,0,310.45Z" transform="translate(0 -241.374)" fill="#a15629"/>
  <path id="Trazado_913019" data-name="Trazado 913019" d="M204.716,393.995l-2.59-11.743a7.9,7.9,0,0,0-6.735-6.217l-3.972-.518c-1.381-1.209-6.908-2.763-11.57-4.317l-11.4,2.59-6.562,1.9a8.4,8.4,0,0,0-5.7,6.044l-2.59,12.261Z" transform="translate(-128.733 -311.104)" fill="#4045ab"/>
  <g id="Grupo_1102947" data-name="Grupo 1102947" transform="translate(41.585 42.64)">
    <path id="Trazado_913020" data-name="Trazado 913020" d="M285,280.5s-1.9,10.189-1.9,13.815h-13.47c0-3.626-1.9-13.815-1.9-13.815l8.634-1.036h0Z" transform="translate(-265.974 -276.862)" fill="#ffd15c"/>
    <path id="Trazado_913021" data-name="Trazado 913021" d="M367.05,266.845c-.173,1.727-1.209,3.108-2.072,2.936s-1.554-1.727-1.381-3.454,1.209-3.108,2.072-2.936S367.222,265.118,367.05,266.845Z" transform="translate(-346.294 -263.377)" fill="#ffd15c"/>
    <path id="Trazado_913022" data-name="Trazado 913022" d="M256.9,266.845c.173,1.727,1.209,3.108,2.072,2.936,1.036-.173,1.554-1.727,1.381-3.454s-1.209-3.108-2.072-2.936C257.243,263.564,256.725,265.118,256.9,266.845Z" transform="translate(-256.865 -263.377)" fill="#ffd15c"/>
  </g>
  <path id="Trazado_913023" data-name="Trazado 913023" d="M262.47,201.727a15.656,15.656,0,0,0,8.462-.173,4.466,4.466,0,0,0,2.418-1.9,26.608,26.608,0,0,0,3.454-8.634c1.381-6.217-1.209-9.325-1.727-10.189s-7.08-5.353-14.678-1.9a6.648,6.648,0,0,0-3.8,5.008,19.22,19.22,0,0,0,.691,7.426c1.036,3.108,1.9,6.044,2.418,7.771A3.8,3.8,0,0,0,262.47,201.727Z" transform="translate(-214.981 -148.884)" fill="#415a6b"/>
  <path id="Trazado_913024" data-name="Trazado 913024" d="M266.119,346.705s.691-3.626,3.8-4.49,7.944.863,8.462.863c1.381.345,2.936,2.072,3.8,5.181L265.6,347.4Z" transform="translate(-222.601 -286.61)" fill="#e8e8e8"/>
  <path id="Trazado_913025" data-name="Trazado 913025" d="M246.4,364.491a12.873,12.873,0,0,0,2.418-1.727,6.6,6.6,0,0,1,5.008-2.59c3.108-.345,8.289.691,9.843,1.036s3.281,2.936,4.145,3.454a8.44,8.44,0,0,1,1.727,1.554,11.016,11.016,0,0,0-2.763-1.036,73.817,73.817,0,0,0-9.671-1.209c-2.245,0-7.253.173-8.634.173A4.122,4.122,0,0,0,246.4,364.491Z" transform="translate(-206.509 -301.805)" fill="#4045ab"/>
  <path id="Trazado_913026" data-name="Trazado 913026" d="M258.671,11.57a11.8,11.8,0,0,1-12.088,11.57,15.216,15.216,0,0,1-2.936-.345l-7.253,6.735,2.763-8.807a11.29,11.29,0,0,1-4.49-9.152,12.01,12.01,0,0,1,24,0Z" transform="translate(-196.675)" fill="#ffbd45"/>
  <path id="Trazado_913027" data-name="Trazado 913027" d="M386.843,92.615a11.834,11.834,0,0,1-11.743,11.57l-7.426,6.908,2.418-7.771a11.637,11.637,0,0,1-7.426-10.707,11.8,11.8,0,0,1,12.088-11.57A11.586,11.586,0,0,1,386.843,92.615Z" transform="translate(-303.953 -67.92)" fill="#ee4f47"/>
  <g id="Grupo_1102948" data-name="Grupo 1102948" transform="translate(42.481 5.871)">
    <path id="Trazado_913028" data-name="Trazado 913028" d="M397.572,128.761l-3.454-3.454a1.669,1.669,0,0,1,0-2.418h0a1.669,1.669,0,0,1,2.418,0l2.245,2.245L405,118.918a1.669,1.669,0,0,1,2.418,0h0a1.669,1.669,0,0,1,0,2.418l-7.426,7.426A1.667,1.667,0,0,1,397.572,128.761Z" transform="translate(-372.359 -105.103)" fill="#fff"/>
    <rect id="Rectángulo_404224" data-name="Rectángulo 404224" width="11.225" height="2.245" transform="translate(1.9)" fill="#fff"/>
    <rect id="Rectángulo_404225" data-name="Rectángulo 404225" width="14.851" height="2.245" transform="translate(0 4.663)" fill="#fff"/>
    <rect id="Rectángulo_404226" data-name="Rectángulo 404226" width="11.225" height="2.245" transform="translate(1.9 9.325)" fill="#fff"/>
  </g>
  <path id="Trazado_913029" data-name="Trazado 913029" d="M143.647,89.9a22.268,22.268,0,0,1-1.381,6.39h-.345S141.4,89.04,140.884,88c-.518-1.209-2.072-1.9-4.49-.863-2.418.863-6.562-.518-7.426.345-.863.691-1.209,2.59-.863,4.317.345,1.554-1.036,4.317-1.036,4.663h-.345c-1.381-4.145-3.972-14.851,7.253-15.542C141.057,80.406,143.474,87.313,143.647,89.9Z" transform="translate(-105.137 -67.8)" fill="#415a6b"/>
</svg>
