<svg xmlns="http://www.w3.org/2000/svg" width="108.189" height="75.392" viewBox="0 0 108.189 75.392">
  <g id="Grupo_1103378" data-name="Grupo 1103378" transform="translate(0 -77.605)">
    <g id="Grupo_1103354" data-name="Grupo 1103354" transform="translate(74.303 123.935)">
      <path id="Trazado_913285" data-name="Trazado 913285" d="M351.635,314.277h25.179a8.707,8.707,0,0,0,0-17.415H351.635Z" transform="translate(-351.635 -296.862)" fill="#e8e8e8"/>
    </g>
    <g id="Grupo_1103355" data-name="Grupo 1103355" transform="translate(0 77.605)">
      <circle id="Elipse_11540" data-name="Elipse 11540" cx="18.031" cy="18.031" r="18.031" transform="translate(0 0)" fill="#ee4f47"/>
    </g>
    <g id="Grupo_1103356" data-name="Grupo 1103356" transform="translate(0 77.605)">
      <path id="Trazado_913286" data-name="Trazado 913286" d="M12.021,95.636a18.038,18.038,0,0,1,12.021-17,18.031,18.031,0,1,0,0,34.008A18.038,18.038,0,0,1,12.021,95.636Z" transform="translate(0 -77.605)" fill="#ee4f47"/>
    </g>
    <g id="Grupo_1103357" data-name="Grupo 1103357" transform="translate(36.063 77.605)">
      <circle id="Elipse_11541" data-name="Elipse 11541" cx="18.031" cy="18.031" r="18.031" transform="translate(0 0)" fill="#f6ccb3"/>
    </g>
    <g id="Grupo_1103358" data-name="Grupo 1103358" transform="translate(36.063 77.605)">
      <path id="Trazado_913287" data-name="Trazado 913287" d="M182.689,95.636a18.038,18.038,0,0,1,12.021-17,18.031,18.031,0,1,0,0,34.008A18.038,18.038,0,0,1,182.689,95.636Z" transform="translate(-170.668 -77.605)" fill="#f6ccb3"/>
    </g>
    <g id="Grupo_1103359" data-name="Grupo 1103359" transform="translate(72.126 77.605)">
      <circle id="Elipse_11542" data-name="Elipse 11542" cx="18.031" cy="18.031" r="18.031" transform="translate(0 0)" fill="#ffbd45"/>
    </g>
    <g id="Grupo_1103360" data-name="Grupo 1103360" transform="translate(72.126 77.605)">
      <path id="Trazado_913288" data-name="Trazado 913288" d="M353.355,95.636a18.038,18.038,0,0,1,12.021-17,18.031,18.031,0,1,0,0,34.008A18.038,18.038,0,0,1,353.355,95.636Z" transform="translate(-341.334 -77.605)" fill="#ffbd45"/>
    </g>
    <g id="Grupo_1103365" data-name="Grupo 1103365" transform="translate(77.688 92.05)">
      <g id="Grupo_1103362" data-name="Grupo 1103362" transform="translate(8.328 2.623)">
        <g id="Grupo_1103361" data-name="Grupo 1103361">
          <path id="Trazado_913289" data-name="Trazado 913289" d="M415.352,161.177c0-2.559-1.854-2.8-4.141-2.8s-4.141.24-4.141,2.8a4.167,4.167,0,1,0,8.282,0Z" transform="translate(-407.07 -158.377)" fill="#495560"/>
        </g>
      </g>
      <g id="Grupo_1103363" data-name="Grupo 1103363" transform="translate(0 0)">
        <path id="Trazado_913290" data-name="Trazado 913290" d="M369.242,151.644a1.585,1.585,0,0,1-1.585-1.585v-2.51a1.585,1.585,0,1,1,3.17,0v2.51A1.585,1.585,0,0,1,369.242,151.644Z" transform="translate(-367.657 -145.965)" fill="#495560"/>
      </g>
      <g id="Grupo_1103364" data-name="Grupo 1103364" transform="translate(21.769 0)">
        <path id="Trazado_913291" data-name="Trazado 913291" d="M472.261,151.644a1.585,1.585,0,0,1-1.585-1.585v-2.51a1.585,1.585,0,1,1,3.17,0v2.51A1.585,1.585,0,0,1,472.261,151.644Z" transform="translate(-470.676 -145.965)" fill="#495560"/>
      </g>
    </g>
    <g id="Grupo_1103366" data-name="Grupo 1103366" transform="translate(0 123.935)">
      <path id="Trazado_913292" data-name="Trazado 913292" d="M74.3,314.277H8.707a8.707,8.707,0,1,1,0-17.415H74.3a8.707,8.707,0,1,1,0,17.415Z" transform="translate(0 -296.862)" fill="#ffbd45"/>
    </g>
    <g id="Grupo_1103367" data-name="Grupo 1103367" transform="translate(0 123.935)">
      <path id="Trazado_913293" data-name="Trazado 913293" d="M21.768,305.569a8.707,8.707,0,0,1,8.707-8.707H8.707a8.707,8.707,0,1,0,0,17.415H30.476a8.707,8.707,0,0,1-8.707-8.707Z" transform="translate(0 -296.862)" fill="#ffbd45"/>
    </g>
    <g id="Grupo_1103368" data-name="Grupo 1103368" transform="translate(69.949 133.12)">
      <path id="Trazado_913294" data-name="Trazado 913294" d="M331.705,354.764l9.642-13.051a3.413,3.413,0,0,1,5.49,0l9.642,13.051a3.413,3.413,0,0,1-2.745,5.441H334.451A3.413,3.413,0,0,1,331.705,354.764Z" transform="translate(-331.031 -340.329)" fill="#12263f"/>
    </g>
    <g id="Grupo_1103369" data-name="Grupo 1103369" transform="translate(69.949 133.12)">
      <path id="Trazado_913295" data-name="Trazado 913295" d="M342.589,354.764l6.945-9.4-2.7-3.651a3.413,3.413,0,0,0-5.49,0L331.7,354.764a3.413,3.413,0,0,0,2.745,5.441h10.884A3.413,3.413,0,0,1,342.589,354.764Z" transform="translate(-331.031 -340.329)" fill="#12263f"/>
    </g>
    <g id="Grupo_1103373" data-name="Grupo 1103373" transform="translate(5.562 92.05)">
      <g id="Grupo_1103370" data-name="Grupo 1103370" transform="translate(0 0)">
        <path id="Trazado_913296" data-name="Trazado 913296" d="M27.909,151.644a1.585,1.585,0,0,1-1.585-1.585v-2.51a1.585,1.585,0,1,1,3.17,0v2.51A1.585,1.585,0,0,1,27.909,151.644Z" transform="translate(-26.324 -145.965)" fill="#495560"/>
      </g>
      <g id="Grupo_1103371" data-name="Grupo 1103371" transform="translate(21.769 0)">
        <path id="Trazado_913297" data-name="Trazado 913297" d="M130.928,151.644a1.585,1.585,0,0,1-1.585-1.585v-2.51a1.585,1.585,0,1,1,3.17,0v2.51A1.585,1.585,0,0,1,130.928,151.644Z" transform="translate(-129.343 -145.965)" fill="#495560"/>
      </g>
      <g id="Grupo_1103372" data-name="Grupo 1103372" transform="translate(7.441 2.435)">
        <path id="Trazado_913298" data-name="Trazado 913298" d="M70.009,162.226a1.58,1.58,0,0,1-1.2-.544,2.979,2.979,0,0,0-4.5,0,1.585,1.585,0,1,1-2.389-2.083,6.148,6.148,0,0,1,9.276,0,1.585,1.585,0,0,1-1.194,2.626Z" transform="translate(-61.537 -157.488)" fill="#495560"/>
      </g>
    </g>
    <g id="Grupo_1103377" data-name="Grupo 1103377" transform="translate(41.625 92.05)">
      <g id="Grupo_1103374" data-name="Grupo 1103374" transform="translate(0 0)">
        <path id="Trazado_913299" data-name="Trazado 913299" d="M198.576,151.644a1.585,1.585,0,0,1-1.585-1.585v-2.51a1.585,1.585,0,0,1,3.17,0v2.51A1.585,1.585,0,0,1,198.576,151.644Z" transform="translate(-196.991 -145.965)" fill="#495560"/>
      </g>
      <g id="Grupo_1103375" data-name="Grupo 1103375" transform="translate(21.768 0)">
        <path id="Trazado_913300" data-name="Trazado 913300" d="M301.594,151.644a1.585,1.585,0,0,1-1.585-1.585v-2.51a1.585,1.585,0,1,1,3.17,0v2.51A1.585,1.585,0,0,1,301.594,151.644Z" transform="translate(-300.009 -145.965)" fill="#495560"/>
      </g>
      <g id="Grupo_1103376" data-name="Grupo 1103376" transform="translate(7.441 2.435)">
        <path id="Trazado_913301" data-name="Trazado 913301" d="M240.676,160.658h-6.887a1.585,1.585,0,1,1,0-3.17h6.887a1.585,1.585,0,0,1,0,3.17Z" transform="translate(-232.204 -157.488)" fill="#495560"/>
      </g>
    </g>
  </g>
</svg>
