<svg xmlns="http://www.w3.org/2000/svg" width="90.261" height="123.083" viewBox="0 0 90.261 123.083">
  <g id="Grupo_1102949" data-name="Grupo 1102949" transform="translate(-80 -16)">
    <g id="Grupo_1102954" data-name="Grupo 1102954" transform="translate(92.309 16)">
      <g id="Grupo_1102949-2" data-name="Grupo 1102949" transform="translate(28.719 4.103)">
        <path id="Trazado_913030" data-name="Trazado 913030" d="M244.1,58.668a4.1,4.1,0,0,1-4.1-4.1v-1.76A24.455,24.455,0,0,1,247.21,35.4l2.2-2.2a4.1,4.1,0,0,1,5.8,5.8l-2.2,2.2a16.3,16.3,0,0,0-4.807,11.6v1.76A4.1,4.1,0,0,1,244.1,58.668Z" transform="translate(-240 -32)" fill="#555a6e"/>
      </g>
      <g id="Grupo_1102950" data-name="Grupo 1102950" transform="translate(16.41 0)">
        <path id="Trazado_913031" data-name="Trazado 913031" d="M194.051,16h4.1a10.257,10.257,0,0,1,10.257,10.257v6.154h-6.154A10.257,10.257,0,0,1,192,22.154v-4.1A2.051,2.051,0,0,1,194.051,16Z" transform="translate(-192 -16)" fill="#5faa46"/>
      </g>
      <g id="Grupo_1102951" data-name="Grupo 1102951" transform="translate(0 20.514)">
        <path id="Trazado_913032" data-name="Trazado 913032" d="M193.646,114.885A18.716,18.716,0,0,0,175.12,96a18.424,18.424,0,0,0-14.3,6.862A18.423,18.423,0,0,0,146.529,96,18.717,18.717,0,0,0,128,114.885c.092,18.807,6.318,32.452,13.578,38.756a12.27,12.27,0,0,0,8.5,3.889q.243.012.486.012a12.246,12.246,0,0,0,6.187-1.667,8.1,8.1,0,0,1,8.14,0,12.246,12.246,0,0,0,6.187,1.667q.242,0,.486-.012a12.269,12.269,0,0,0,8.5-3.889C187.328,147.338,193.554,133.692,193.646,114.885Z" transform="translate(-128.003 -96.001)" fill="#e1322d"/>
      </g>
      <g id="Grupo_1102952" data-name="Grupo 1102952" transform="translate(0 20.514)">
        <path id="Trazado_913033" data-name="Trazado 913033" d="M160.824,124.719V102.862A18.423,18.423,0,0,0,146.529,96,18.717,18.717,0,0,0,128,114.884a74,74,0,0,0,2.215,18.067,16.41,16.41,0,0,0,30.606-8.232Z" transform="translate(-128.003 -96)" fill="#f04b37"/>
      </g>
      <g id="Grupo_1102953" data-name="Grupo 1102953" transform="translate(9.822 26.875)">
        <circle id="Elipse_11535" data-name="Elipse 11535" cx="6.323" cy="6.323" r="6.323" transform="translate(0 0)" fill="#f5826e"/>
      </g>
    </g>
    <g id="Grupo_1102955" data-name="Grupo 1102955" transform="translate(149.747 36.514)">
      <path id="Trazado_913034" data-name="Trazado 913034" d="M366.36,102.154h-2.051a2.051,2.051,0,0,1-2.051-2.051V98.051a2.051,2.051,0,0,0-4.1,0V100.1a2.051,2.051,0,0,1-2.051,2.051h-2.051a2.051,2.051,0,0,0,0,4.1H356.1a2.051,2.051,0,0,1,2.051,2.051v2.051a2.051,2.051,0,0,0,4.1,0v-2.051a2.051,2.051,0,0,1,2.051-2.051h2.051a2.051,2.051,0,0,0,0-4.1Z" transform="translate(-352 -96)" fill="#78d2f0"/>
    </g>
    <g id="Grupo_1102956" data-name="Grupo 1102956" transform="translate(88.206 16)">
      <path id="Trazado_913035" data-name="Trazado 913035" d="M126.36,22.154h-2.051a2.051,2.051,0,0,1-2.051-2.051V18.051a2.051,2.051,0,1,0-4.1,0V20.1a2.051,2.051,0,0,1-2.051,2.051h-2.051a2.051,2.051,0,0,0,0,4.1H116.1a2.051,2.051,0,0,1,2.051,2.051V30.36a2.051,2.051,0,0,0,4.1,0V28.308a2.051,2.051,0,0,1,2.051-2.051h2.051a2.051,2.051,0,1,0,0-4.1Z" transform="translate(-112 -16)" fill="#78d2f0"/>
    </g>
    <g id="Grupo_1102965" data-name="Grupo 1102965" transform="translate(80 69.336)">
      <g id="Grupo_1102957" data-name="Grupo 1102957" transform="translate(8.206)">
        <path id="Trazado_913036" data-name="Trazado 913036" d="M189.953,224H112v69.747h41.028v-8.206h24.617a16.411,16.411,0,0,0,16.411-16.411V228.1A4.1,4.1,0,0,0,189.953,224Z" transform="translate(-112 -224)" fill="#fab991"/>
      </g>
      <g id="Grupo_1102958" data-name="Grupo 1102958" transform="translate(65.644 43.079)">
        <path id="Trazado_913037" data-name="Trazado 913037" d="M342.154,398.154h4.1A6.154,6.154,0,0,0,352.411,392H336A6.154,6.154,0,0,0,342.154,398.154Z" transform="translate(-336 -392)" fill="#463c4b"/>
      </g>
      <g id="Grupo_1102959" data-name="Grupo 1102959" transform="translate(0)">
        <path id="Trazado_913038" data-name="Trazado 913038" d="M84.1,224a4.1,4.1,0,0,0-4.1,4.1V269.13a8.206,8.206,0,0,0,8.206,8.206h20.514a8.206,8.206,0,0,0,8.206-8.206V248.617a12.308,12.308,0,0,0,12.308-12.308V224Z" transform="translate(-80 -224)" fill="#463c4b"/>
      </g>
      <g id="Grupo_1102960" data-name="Grupo 1102960" transform="translate(24.617 12.308)">
        <path id="Trazado_913039" data-name="Trazado 913039" d="M188.308,272a12.308,12.308,0,0,0,0,24.617Z" transform="translate(-176 -272)" fill="#f0915a"/>
      </g>
      <g id="Grupo_1102961" data-name="Grupo 1102961" transform="translate(8.206 53.336)">
        <path id="Trazado_913040" data-name="Trazado 913040" d="M153.028,448.411H112V432a8.206,8.206,0,0,0,8.206,8.206h32.822Z" transform="translate(-112 -432)" fill="#f0915a"/>
      </g>
      <g id="Grupo_1102962" data-name="Grupo 1102962" transform="translate(71.798 16.411)">
        <path id="Trazado_913041" data-name="Trazado 913041" d="M366.154,308.514A6.154,6.154,0,0,1,360,302.36V288a12.308,12.308,0,0,1,12.308,12.308v2.051A6.154,6.154,0,0,1,366.154,308.514Z" transform="translate(-360 -288)" fill="#f0915a"/>
      </g>
      <g id="Grupo_1102963" data-name="Grupo 1102963" transform="translate(77.462 8.317)">
        <ellipse id="Elipse_11536" data-name="Elipse 11536" cx="4.743" cy="3.952" rx="4.743" ry="3.952" transform="translate(0 0)" fill="#463c4b"/>
      </g>
      <g id="Grupo_1102964" data-name="Grupo 1102964" transform="translate(56.912 8.317)">
        <ellipse id="Elipse_11537" data-name="Elipse 11537" cx="4.743" cy="3.952" rx="4.743" ry="3.952" transform="translate(0 0)" fill="#463c4b"/>
      </g>
    </g>
    <g id="Grupo_1102966" data-name="Grupo 1102966" transform="translate(104.617 63.182)">
      <path id="Trazado_913042" data-name="Trazado 913042" d="M190.36,206.154h-2.051a2.051,2.051,0,0,1-2.051-2.051v-2.051a2.051,2.051,0,0,0-4.1,0V204.1a2.051,2.051,0,0,1-2.051,2.051h-2.051a2.051,2.051,0,0,0,0,4.1H180.1a2.051,2.051,0,0,1,2.051,2.051v2.051a2.051,2.051,0,1,0,4.1,0v-2.051a2.051,2.051,0,0,1,2.051-2.051h2.051a2.051,2.051,0,0,0,0-4.1Z" transform="translate(-176 -200)" fill="#78d2f0"/>
    </g>
  </g>
</svg>
