<svg xmlns="http://www.w3.org/2000/svg" width="90.255" height="127.066" viewBox="0 0 90.255 127.066">
  <g id="Grupo_1102968" data-name="Grupo 1102968" transform="translate(-74.151 0.01)">
    <g id="Grupo_1102967" data-name="Grupo 1102967" transform="translate(74.151 -0.01)">
      <path id="Trazado_913043" data-name="Trazado 913043" d="M209.9,193.768a15.219,15.219,0,1,0-15.215-15.215A15.249,15.249,0,0,0,209.9,193.768Z" transform="translate(-164.769 -122.794)" fill="#0593fc" fill-rule="evenodd"/>
      <path id="Trazado_913044" data-name="Trazado 913044" d="M97.9,271.176V249.193a2.946,2.946,0,0,0-.429-1.568L75.416,209.861a9.332,9.332,0,0,1,16.116-9.413l14.962,25.621A3.085,3.085,0,0,0,110,227.5a33.392,33.392,0,0,1,18.55,0,3.091,3.091,0,0,0,3.512-1.434l14.962-25.621a9.332,9.332,0,0,1,16.116,9.413l-22.055,37.761a2.946,2.946,0,0,0-.429,1.568v21.983a3.13,3.13,0,0,1-3.124,3.124H101.022a3.129,3.129,0,0,1-3.122-3.122Z" transform="translate(-74.151 -147.231)" fill="#0593fc" fill-rule="evenodd"/>
      <path id="Trazado_913045" data-name="Trazado 913045" d="M208.83,1.137l2.653,8.209a1.631,1.631,0,0,0,1.576,1.147l8.624-.015a1.657,1.657,0,0,1,.978,3l-6.993,5.05a1.631,1.631,0,0,0-.6,1.856l2.68,8.194A1.655,1.655,0,0,1,215.2,30.43l-6.971-5.085a1.634,1.634,0,0,0-1.948,0l-6.971,5.085a1.655,1.655,0,0,1-2.546-1.856l2.68-8.194a1.626,1.626,0,0,0-.6-1.856l-6.993-5.05a1.653,1.653,0,0,1,.978-3l8.624.015a1.631,1.631,0,0,0,1.576-1.147l2.653-8.209a1.651,1.651,0,0,1,3.144,0Z" transform="translate(-162.127 0.01)" fill="#ffd400" fill-rule="evenodd"/>
    </g>
    <path id="Trazado_913046" data-name="Trazado 913046" d="M114.682,106.71a2.043,2.043,0,1,1,2.047-3.536l11.227,6.48a2.044,2.044,0,1,1-2.047,3.539Zm57.207-13.2a2.044,2.044,0,0,1,3.209,2.534l-8.048,10.157a2.042,2.042,0,0,1-3.209-2.526Zm9.356,9.659a2.043,2.043,0,1,1,2.047,3.536l-11.227,6.48a2.044,2.044,0,1,1-2.047-3.539Zm-58.366-7.127a2.044,2.044,0,0,1,3.209-2.534l8.048,10.165a2.042,2.042,0,0,1-3.209,2.526Z" transform="translate(-29.707 -69.733)" fill="#ffd400"/>
    <path id="Trazado_913047" data-name="Trazado 913047" d="M215.287,10.492l6.4-.015h.127l-6.4.015Zm2.047,19.781a1.9,1.9,0,0,1-.184.161,1.634,1.634,0,0,1-1.948,0L208.435,25.5l.2-.149a1.634,1.634,0,0,1,1.948,0Zm-17.8,0-.218.161a1.655,1.655,0,0,1-2.546-1.856l2.68-8.194a1.626,1.626,0,0,0-.6-1.856l-6.993-5.05a1.653,1.653,0,0,1,.978-3h2.224a1.66,1.66,0,0,0-.851,3l6.993,5.05a1.63,1.63,0,0,1,.6,1.856l-2.68,8.194A1.631,1.631,0,0,0,199.531,30.274Zm2.047-19.781a1.637,1.637,0,0,0,1.457-1.147l2.653-8.209A1.631,1.631,0,0,1,207.256-.01a1.657,1.657,0,0,1,1.181.486,1.669,1.669,0,0,0-.4.66l-2.653,8.209a1.631,1.631,0,0,1-1.576,1.147Z" transform="translate(-87.977 0)" fill="#e6bf00" fill-rule="evenodd"/>
    <path id="Trazado_913048" data-name="Trazado 913048" d="M209.9,163.32a14.877,14.877,0,0,1,1.6.084,15.219,15.219,0,0,0,0,30.269,14.91,14.91,0,0,1-1.6.084,15.219,15.219,0,0,1,0-30.438Z" transform="translate(-90.618 -122.797)" fill="#0584e3" fill-rule="evenodd"/>
    <path id="Trazado_913049" data-name="Trazado 913049" d="M97.9,271.177V249.194a2.946,2.946,0,0,0-.429-1.568L75.416,209.862a9.32,9.32,0,0,1,10.341-13.739,9.325,9.325,0,0,0-5.725,13.739l22.055,37.761a3.007,3.007,0,0,1,.422,1.568v21.983a3.135,3.135,0,0,0,3.124,3.124h-4.608a3.13,3.13,0,0,1-3.124-3.122Zm33.309-44.151a3.248,3.248,0,0,0,.859-.955l14.962-25.621a9.371,9.371,0,0,1,10.383-4.326,9.3,9.3,0,0,0-5.775,4.326L136.684,226.07a3.1,3.1,0,0,1-3.517,1.434c-.665-.176-1.31-.337-1.958-.479Z" transform="translate(0 -147.242)" fill="#0584e3" fill-rule="evenodd"/>
  </g>
</svg>
