<svg xmlns="http://www.w3.org/2000/svg" xmlns:xlink="http://www.w3.org/1999/xlink" width="820" height="505.408" viewBox="0 0 820 505.408">
  <defs>
    <clipPath id="clip-path">
      <rect id="Rectángulo_404217" data-name="Rectángulo 404217" width="750" height="482.408" fill="none"/>
    </clipPath>
    <clipPath id="clip-path-3">
      <rect id="Rectángulo_404211" data-name="Rectángulo 404211" width="76.861" height="11.586" transform="translate(659.332 466.731)" fill="none"/>
    </clipPath>
    <clipPath id="clip-path-4">
      <rect id="Rectángulo_404212" data-name="Rectángulo 404212" width="55.471" height="70.6" transform="translate(668.497 402.075)" fill="none"/>
    </clipPath>
    <clipPath id="clip-path-5">
      <rect id="Rectángulo_404215" data-name="Rectángulo 404215" width="14.382" height="19.621" transform="translate(423.677 30.196)" fill="none"/>
    </clipPath>
  </defs>
  <g id="Grupo_1103818" data-name="Grupo 1103818" transform="translate(-390.051 -3028.522)">
    <g id="Grupo_1103792" data-name="Grupo 1103792">
      <g id="Grupo_1103395" data-name="Grupo 1103395" transform="translate(390 3028.522)" opacity="0.1">
        <rect id="Rectángulo_402888" data-name="Rectángulo 402888" width="820" height="505" rx="10" transform="translate(0.051)" fill="#ee4f47"/>
      </g>
      <g id="Grupo_1103394" data-name="Grupo 1103394" transform="translate(418.5 3051.522)">
        <g id="Grupo_1103393" data-name="Grupo 1103393" clip-path="url(#clip-path)">
          <g id="Grupo_1103392" data-name="Grupo 1103392">
            <g id="Grupo_1103391" data-name="Grupo 1103391" clip-path="url(#clip-path)">
              <path id="Trazado_913316" data-name="Trazado 913316" d="M308.73,75.742V287.816H29.929V75.742a22.734,22.734,0,0,1,22.752-22.75h233.3a22.734,22.734,0,0,1,22.751,22.75" fill="#fff"/>
              <path id="Trazado_913317" data-name="Trazado 913317" d="M308.73,75.742v20.38H29.929V75.742a22.734,22.734,0,0,1,22.752-22.75h233.3a22.734,22.734,0,0,1,22.751,22.75" fill="#b0c0d2"/>
              <path id="Trazado_913318" data-name="Trazado 913318" d="M59.729,75.935a6.916,6.916,0,1,1-6.915-6.914,6.915,6.915,0,0,1,6.915,6.914" fill="#f4b30f"/>
              <path id="Trazado_913319" data-name="Trazado 913319" d="M81.857,75.935a6.915,6.915,0,1,1-6.915-6.914,6.915,6.915,0,0,1,6.915,6.914" fill="#fff7e7"/>
              <path id="Trazado_913320" data-name="Trazado 913320" d="M104.777,75.935a6.915,6.915,0,1,1-6.915-6.914,6.915,6.915,0,0,1,6.915,6.914" fill="#f4b30f"/>
              <path id="Trazado_913321" data-name="Trazado 913321" d="M193.517,101.536c-.392-8.212-2.458-16.508-7.113-23.285-8.43-12.271-25.023-17.823-39.487-14.3S120.632,79.3,115.834,93.394c-3.022,8.878-3.424,18.789-.2,27.6s10.277,16.336,19.186,19.265l48.473-8.724c8.035-7.382,10.743-19.094,10.223-29.994" fill="#511a51"/>
              <path id="Trazado_913322" data-name="Trazado 913322" d="M164.906,143.5v28.912h-33.05V133.9Z" fill="#bd7454"/>
              <path id="Trazado_913323" data-name="Trazado 913323" d="M167.484,152.667s21.282-3.292,21.308-26.927a261.213,261.213,0,0,0-1.666-31.675C185.4,77.9,173.264,71.228,155.969,71.581l-1.718.035c-18.511,1.394-30.145,11.431-28.189,28.768l2.075,16.7s-1.522,36.467,39.325,35.6" fill="#bd7454"/>
              <path id="Trazado_913324" data-name="Trazado 913324" d="M182.337,111.817a2.519,2.519,0,0,1-2.4,2.577,2.422,2.422,0,0,1-2.669-2.2,2.521,2.521,0,0,1,2.4-2.579,2.424,2.424,0,0,1,2.672,2.207" fill="#2d092d"/>
              <path id="Trazado_913325" data-name="Trazado 913325" d="M158.9,113.448a2.52,2.52,0,0,1-2.4,2.577,2.422,2.422,0,0,1-2.669-2.206,2.522,2.522,0,0,1,2.4-2.578,2.424,2.424,0,0,1,2.672,2.207" fill="#2d092d"/>
              <path id="Trazado_913326" data-name="Trazado 913326" d="M148.452,106.347a7.789,7.789,0,0,1,7.822-.366c.427.226.806-.421.379-.648a8.55,8.55,0,0,0-8.579.366c-.4.263-.028.913.378.648" fill="#2d092d"/>
              <path id="Trazado_913327" data-name="Trazado 913327" d="M174.731,105.318a7.786,7.786,0,0,1,7.822-.366c.426.226.806-.421.379-.647a8.55,8.55,0,0,0-8.58.366c-.4.263-.027.912.379.647" fill="#2d092d"/>
              <path id="Trazado_913328" data-name="Trazado 913328" d="M173.9,97.173a1.5,1.5,0,0,1-.268-2.976,20.462,20.462,0,0,1,7.258-.026,1.5,1.5,0,0,1-.519,2.955,17.542,17.542,0,0,0-6.2.022,1.48,1.48,0,0,1-.272.025" fill="#2d092d"/>
              <path id="Trazado_913329" data-name="Trazado 913329" d="M148.379,99.723a1.5,1.5,0,0,1-.268-2.976,20.486,20.486,0,0,1,7.258-.026,1.5,1.5,0,0,1-.519,2.955,17.518,17.518,0,0,0-6.2.022,1.48,1.48,0,0,1-.272.025" fill="#2d092d"/>
              <path id="Trazado_913330" data-name="Trazado 913330" d="M130.475,118.359c9.014,1.391,12.078-16.125,27.714-23.719,8.436-4.1,14.511-16.061,16.352-25.476,0,0-20.632-11.418-37.42.393S119.3,102.9,119.3,102.9Z" fill="#511a51"/>
              <path id="Trazado_913331" data-name="Trazado 913331" d="M132.8,115.059c-2.77-1.514-6.16-2.215-9-.863a8.565,8.565,0,0,0-4.476,8.24,9.706,9.706,0,0,0,5.339,7.835,10.32,10.32,0,0,0,9.265-.325Z" fill="#bd7454"/>
              <path id="Trazado_913332" data-name="Trazado 913332" d="M130.363,123.329a.5.5,0,0,1-.486-.386,4.724,4.724,0,0,0-2.591-2.888,3.974,3.974,0,0,0-3.608.074.5.5,0,0,1-.463-.886,5,5,0,0,1,4.487-.1,5.693,5.693,0,0,1,3.148,3.57.5.5,0,0,1-.373.6.493.493,0,0,1-.114.013" fill="#822c29"/>
              <path id="Trazado_913333" data-name="Trazado 913333" d="M164.7,153.653a22.962,22.962,0,0,1-15.41-5.969.5.5,0,0,1,.677-.736,21.9,21.9,0,0,0,17.21,5.559.5.5,0,1,1,.118.993,22.089,22.089,0,0,1-2.6.153" fill="#822c29"/>
              <path id="Trazado_913334" data-name="Trazado 913334" d="M167.232,111.105q.449,2.406.9,4.811.231,1.237.461,2.474a2.111,2.111,0,0,0,.7,1.528,2.179,2.179,0,0,0,1.309.284c.532-.015,1.787-.253,1.69.659-.071.666-.912,1.4-1.309,1.909l-1.552,2.01c-.292.377.235.912.53.53l1.634-2.115a9.277,9.277,0,0,0,1.319-1.852c.447-1.042-.287-1.828-1.315-1.919-.56-.049-1.5.251-1.952-.173-.307-.286-.332-1.09-.4-1.472q-.129-.688-.256-1.375-.513-2.75-1.025-5.5c-.088-.474-.811-.274-.723.2" fill="#2d092d"/>
              <path id="Trazado_913335" data-name="Trazado 913335" d="M157.2,127.885a2.254,2.254,0,0,1,1.328-1.129,2.962,2.962,0,0,1,2.027.542l6.836,3.783.658,1.46a7.282,7.282,0,0,1-4.976,3.13,6.028,6.028,0,0,1-5.4-2.109,5.157,5.157,0,0,1-.474-5.677" fill="#822c29"/>
              <path id="Trazado_913336" data-name="Trazado 913336" d="M111.333,72.477A22.819,22.819,0,0,0,89.68,76.358c-3.258,2.694-5.8,6.544-5.966,10.768s2.533,8.665,6.653,9.612a9.746,9.746,0,0,0-5.518,3.555,5.667,5.667,0,0,0-.286,6.287,5.725,5.725,0,0,0,6.034,1.957,10.263,10.263,0,0,0,5.38-3.865,5.4,5.4,0,1,0,9.745,3.206,5.18,5.18,0,0,0,3.473,5.411,7.37,7.37,0,0,0,6.607-1.184,13.094,13.094,0,0,0,4.138-5.516l5.907-17.581a22.818,22.818,0,0,0-14.514-16.531" fill="#511a51"/>
              <path id="Trazado_913337" data-name="Trazado 913337" d="M264.869,175.777c-1.228,1.535-41.128,45.732-41.128,45.732l-40.074-45.735-24.586,45.818,39.642,41.056a33.646,33.646,0,0,0,52.345-4.925l42.652-65.065Z" fill="#ee4f47"/>
              <path id="Trazado_913338" data-name="Trazado 913338" d="M269.748,170.768s-1.319-14.917,10.409-17.93,20.35-1.964,19.3,2.349c0,0,23.215-.831,26.42.734s2.38,5.121,2.38,5.121,6.886,1.361,2.45,6.7c0,0,1.106,3.792-2.12,5.619s-38.977,13.074-39.379,13.155-6.7,11.691-6.7,11.691-17.433-1.775-21.274-15.413Z" fill="#bd7454"/>
              <path id="Trazado_913339" data-name="Trazado 913339" d="M315.561,172.594a32.679,32.679,0,0,0-7.835-11.01c-.355-.327-.887.2-.531.53a32.153,32.153,0,0,1,7.718,10.859c.192.441.838.06.648-.379" fill="#822c29"/>
              <path id="Trazado_913340" data-name="Trazado 913340" d="M293.672,160.643a16.887,16.887,0,0,1-8.314,10.572c-.425.228-.047.876.379.647a17.628,17.628,0,0,0,8.658-11.02.375.375,0,0,0-.723-.2" fill="#822c29"/>
              <path id="Trazado_913341" data-name="Trazado 913341" d="M300.8,168.148a16.614,16.614,0,0,0-9.192-1.709c-.475.049-.48.8,0,.75a15.893,15.893,0,0,1,8.813,1.607c.43.217.81-.43.379-.648" fill="#822c29"/>
              <path id="Trazado_913342" data-name="Trazado 913342" d="M298.979,155.106q-6.519,1.086-12.949,2.62c-.47.112-.271.835.2.723q6.428-1.533,12.949-2.62c.475-.079.274-.8-.2-.723" fill="#822c29"/>
              <path id="Trazado_913343" data-name="Trazado 913343" d="M311.2,162.6a58.694,58.694,0,0,1,17.557-1.241c.481.039.479-.711,0-.75A59.361,59.361,0,0,0,311,161.876c-.471.107-.272.83.2.723" fill="#822c29"/>
              <path id="Trazado_913344" data-name="Trazado 913344" d="M314.794,169.9a58.656,58.656,0,0,1,16.322-2.18.375.375,0,0,0,0-.75,59.433,59.433,0,0,0-16.521,2.207.375.375,0,0,0,.2.723" fill="#822c29"/>
              <path id="Trazado_913345" data-name="Trazado 913345" d="M180.344,276.258c-.12-.329-.243-.672-.368-1.025l-2.185,6.339a7.414,7.414,0,0,1-7.326,6.278H125.333c-6.984,6.617-19.28,16.266-32.648,17.5-20.585,1.9-22.826-16.2-22.355-27.721s6.684-72.451,15.079-93.828,44.136-24.1,45.071-24.089c13.536,7.761,30.62,10.35,34.331,2.173,0,0,10.63,1.875,15.682,3.766a29.117,29.117,0,0,1,12.61,17.616c3.076,12.322-.579,63.916-13.127,91.969" fill="#ee4f47"/>
              <path id="Trazado_913346" data-name="Trazado 913346" d="M119.291,248.249c2.515-17.229,1.329-34.743,3.844-51.972.069-.472-.653-.676-.723-.2-2.515,17.229-1.329,34.744-3.844,51.973-.069.472.653.676.723.2" fill="#2d092d"/>
              <path id="Trazado_913347" data-name="Trazado 913347" d="M119,248.717l19.561-8.321s9.658-8.3,16.024-10.779,11.069-2.046,15-1.649,12.758,3.4,10.567,8.041c-1.5,3.168-4.725,1.747-9.5.733s-12.022,1.22-12.022,1.22,12.8,7.068,13.251,14.7c0,0,.337,4.606-5.982,3.663,0,0,.274,7.215-6.722,5.749,0,0-4.854-6.1-8.906-8.705l-2.333-1.044s5.793,8.652,5.149,11.355-2.178,4.958-4.835,3.95-2.835-5.747-6.005-7.693c0,0-2.836,3.794-4.011,5.391s-9.01,7.995-9.01,7.995-3.38-7.421-5.674-13.376c-2.6-6.763-4.548-11.234-4.548-11.234" fill="#bd7454"/>
              <path id="Trazado_913348" data-name="Trazado 913348" d="M164.49,241.479a13.52,13.52,0,0,0-12.65-4.747c-.475.081-.274.8.2.724a12.779,12.779,0,0,1,11.921,4.554c.3.375.831-.158.53-.531" fill="#822c29"/>
              <path id="Trazado_913349" data-name="Trazado 913349" d="M165.409,256.391a29.24,29.24,0,0,0-17.553-14.674.375.375,0,0,0-.2.723,28.488,28.488,0,0,1,17.1,14.33c.218.43.866.051.648-.379" fill="#822c29"/>
              <path id="Trazado_913350" data-name="Trazado 913350" d="M90.389,260.086c8.887-5.307,18.678-8.619,28.708-11.007l-.461-.262,11.9,28.75q.839,2.027,1.678,4.052c.182.44.908.247.723-.2l-11.9-28.751q-.839-2.025-1.678-4.052a.386.386,0,0,0-.461-.261c-10.091,2.4-19.947,5.744-28.888,11.082a.376.376,0,0,0,.379.648" fill="#2d092d"/>
              <path id="Trazado_913351" data-name="Trazado 913351" d="M176.282,284.664A173.462,173.462,0,0,0,193.4,214.639a171.812,171.812,0,0,0-.635-20.669c-.043-.476-.793-.481-.75,0a172.719,172.719,0,0,1-8.56,71.279,170.714,170.714,0,0,1-7.822,19.037c-.209.432.438.813.648.378" fill="#2d092d"/>
              <path id="Trazado_913352" data-name="Trazado 913352" d="M172.436,153.059l-1.3,9.682a3.957,3.957,0,0,1-1.717,2.76L153.6,176.116a3.96,3.96,0,0,1-4.125.176L126.2,163.386a3.959,3.959,0,0,1-2.035-3.641l.374-8.279a3.959,3.959,0,0,1,4.041-3.779l40.024.888a3.958,3.958,0,0,1,3.835,4.484" fill="#ee4f47"/>
              <path id="Trazado_913353" data-name="Trazado 913353" d="M127.091,161.773a133.6,133.6,0,0,0,21.849,2.076,133.712,133.712,0,0,0,21.918-1.13c.476-.069.273-.792-.2-.724a132.4,132.4,0,0,1-21.719,1.1,132.512,132.512,0,0,1-21.65-2.049c-.471-.089-.673.633-.2.723" fill="#2d092d"/>
              <path id="Trazado_913354" data-name="Trazado 913354" d="M437.855,223.377c-.015,1.04-.527,36.022-.527,36.022l43.672.639.771-52.71Z" fill="#f79674"/>
              <path id="Trazado_913355" data-name="Trazado 913355" d="M436.018,235.336s-26.456-4.489-26.058-33.937a325.75,325.75,0,0,1,2.653-39.434c2.446-20.106,17.687-28.2,39.229-27.445l2.142.075c23.035,2.075,37.349,14.792,34.6,36.357l-2.89,20.771s1.231,45.462-49.645,43.644" fill="#f79674"/>
              <path id="Trazado_913356" data-name="Trazado 913356" d="M418.257,184.169a3.138,3.138,0,0,0,2.942,3.255,3.017,3.017,0,0,0,3.365-2.7,3.141,3.141,0,0,0-2.939-3.257,3.019,3.019,0,0,0-3.368,2.7" fill="#3e0f3d"/>
              <path id="Trazado_913357" data-name="Trazado 913357" d="M447.423,186.629a3.14,3.14,0,0,0,2.943,3.254,3.017,3.017,0,0,0,3.366-2.7,3.145,3.145,0,0,0-2.94-3.257,3.021,3.021,0,0,0-3.369,2.7" fill="#3e0f3d"/>
              <path id="Trazado_913358" data-name="Trazado 913358" d="M461.262,176.926a10.981,10.981,0,0,0-11-.666c-.9.46-.214,1.873.688,1.41a9.38,9.38,0,0,1,9.422.547.785.785,0,0,0,.891-1.291" fill="#3e0f3d"/>
              <path id="Trazado_913359" data-name="Trazado 913359" d="M428.539,175.166a10.979,10.979,0,0,0-11-.666c-.9.46-.214,1.873.687,1.411a9.378,9.378,0,0,1,9.422.546.785.785,0,0,0,.891-1.291" fill="#3e0f3d"/>
              <path id="Trazado_913360" data-name="Trazado 913360" d="M428.129,161.888a26.606,26.606,0,0,0-9.252-.247,3.922,3.922,0,1,0,1.509,7.7q.932-.146,1.871-.205l-1.05.061a25.411,25.411,0,0,1,6.332.514,3.908,3.908,0,0,0,2.851-.937,3.92,3.92,0,0,0,.417-5.529l-.745-.671a3.894,3.894,0,0,0-1.933-.683" fill="#3e0f3d"/>
              <path id="Trazado_913361" data-name="Trazado 913361" d="M461.106,163.941a27.392,27.392,0,0,0-9.433-.092,3.922,3.922,0,1,0,1.51,7.7q1.177-.185,2.367-.256l-1.05.061a24.574,24.574,0,0,1,6.016.41,3.908,3.908,0,0,0,2.851-.937,3.92,3.92,0,0,0,.417-5.529l-.745-.671a3.9,3.9,0,0,0-1.933-.683" fill="#3e0f3d"/>
              <path id="Trazado_913362" data-name="Trazado 913362" d="M479.912,189.111c3.478-1.836,7.715-2.648,11.233-.911,3.606,1.78,5.8,6.163,5.427,10.348a12.1,12.1,0,0,1-6.8,9.665,12.865,12.865,0,0,1-11.537-.574" fill="#f79674"/>
              <path id="Trazado_913363" data-name="Trazado 913363" d="M482.733,199.88a.962.962,0,0,1-.176-.028,1.048,1.048,0,0,1-.763-1.268,7.536,7.536,0,0,1,4.228-4.675,6.63,6.63,0,0,1,5.962.218,1.046,1.046,0,0,1-1,1.838,4.551,4.551,0,0,0-4.12-.143,5.439,5.439,0,0,0-3.04,3.268,1.046,1.046,0,0,1-1.092.79" fill="#ed796a"/>
              <path id="Trazado_913364" data-name="Trazado 913364" d="M437.771,236.962q-.795-.06-1.585-.167a1.044,1.044,0,0,1-.9-1.175,1.014,1.014,0,0,1,1.174-.9,26.826,26.826,0,0,0,21.207-6.509,1.046,1.046,0,0,1,1.393,1.56,29.03,29.03,0,0,1-21.292,7.188" fill="#ed796a"/>
              <path id="Trazado_913365" data-name="Trazado 913365" d="M435.858,183.367l-1.308,6.491q-.172.855-.344,1.708c-.089.444-.119,1.473-.435,1.818-.436.475-1.633.111-2.208.142-1.525.081-2.642,1.242-2.023,2.8a11.4,11.4,0,0,0,1.642,2.4l2,2.665c.607.809,1.793-.218,1.189-1.022l-1.8-2.4q-.4-.532-.8-1.066c-.282-.376-.8-.874-.789-1.375.013-.438.393-.443.789-.451.344,0,.687.06,1.031.069a2.818,2.818,0,0,0,1.888-.49,3.063,3.063,0,0,0,.873-1.95q.311-1.534.619-3.073l1.239-6.149c.2-.987-1.367-1.1-1.564-.119" fill="#3e0f3d"/>
              <path id="Trazado_913366" data-name="Trazado 913366" d="M448.8,204.355a2.7,2.7,0,0,0-1.567-1.372,3.536,3.536,0,0,0-2.433.612l-8.238,4.4c-.05.653,2.691,5.228,5.081,5.563a7.2,7.2,0,0,0,6.49-2.427,6.162,6.162,0,0,0,.667-6.778" fill="#ef4a52"/>
              <path id="Trazado_913367" data-name="Trazado 913367" d="M496.456,181.362a37.843,37.843,0,0,1,2.806-4.765,40.537,40.537,0,0,0,6.481-20.524,21.226,21.226,0,0,0-8.086-17.257c-3.785-2.929-15.672-2.654-15.672-2.654s-7.2-12.5-12.347-16.665c-5.727-4.632-12.375-8.389-19.651-9.53s-15.237.635-20.512,5.774a22.818,22.818,0,0,1-4.209,3.824c-3,1.72-6.713,1.083-10.163.89-7.382-.415-15.3,1.783-20.043,7.451s-5.072,15.163.519,20c2.318,2.006,5.677,3.533,6.048,6.575.242,1.986-.957,3.82-1.63,5.705a11.361,11.361,0,0,0,1.625,10.494c2.148,2.826,5.988,4.188,9.622,4.073l.274-4.9s2.47-18.387,6.345-15.9c10.983,7.038,20.768,1.261,26.548-2.532,3.184-2.089,6.956-2.407,10.763-2.375,9.251.078,15.738,6.538,16.442,15.791.721,9.468-1.566,22.475-.669,27.735.228,1.335.219,5.374,4.877,5.442,0,0,1.671,1.113,3.365-3.146s3.892-8.741,13.162-5.931Z" fill="#12263f"/>
              <path id="Trazado_913368" data-name="Trazado 913368" d="M590.391,335.481s21.971,28.746,24.239,36.917,3.558,28.467-24.265,28.026l-30.5-15.339-15.935-27.128Z" fill="#f79674"/>
              <path id="Trazado_913369" data-name="Trazado 913369" d="M626.3,291.821c-4.567-1.946-9.967-7.273-13.492-13.215a21.931,21.931,0,0,1-3.333-10.069,37.259,37.259,0,0,0-5.872-18.12c-1.209-1.874-2.657-4.042-1.928-6.15,1.009-2.913,5.181-3.025,8.016-1.814a17.679,17.679,0,0,1,8.89,8.492c1.056,2.189,1.671,4.624,3.139,6.562,2.507,3.308,12.544,10.056,13.924,16.3" fill="#f79674"/>
              <path id="Trazado_913370" data-name="Trazado 913370" d="M631.117,224.961c.455-2.316.96-4.741,2.479-6.548s4.4-2.7,6.291-1.283c1.747,1.315,1.884,3.849,1.787,6.034a97.171,97.171,0,0,1-3.357,21.365q2.766-7.551,5.533-15.1a17.18,17.18,0,0,1,2.76-5.43,5.838,5.838,0,0,1,5.4-2.2c2,.427,3.542,2.753,2.694,4.61a3.638,3.638,0,0,1,4.658-.172,5.941,5.941,0,0,1,2.14,4.447,17.59,17.59,0,0,1-.664,5.035q-1.854,8-3.707,15.994a67.373,67.373,0,0,1,6.368-11.156c1.253-1.777,3.116-3.7,5.228-3.183a3.9,3.9,0,0,1,2.626,3.673,11.146,11.146,0,0,1-1.121,4.666c-4.4,10.909-8.643,38.813-22.47,49.516l-34.271-8.962c2.348-11.961,15.275-49.343,17.622-61.3" fill="#f79674"/>
              <path id="Trazado_913371" data-name="Trazado 913371" d="M635.854,282.709a17.377,17.377,0,0,0-4.752-18.585c-2.657-2.415-6.4-4.094-8.334-7.188-2-3.2-3.214-6.777-5.437-9.865-.59-.82-1.776.208-1.189,1.022,2.1,2.916,3.27,6.282,5.1,9.341,1.6,2.674,4.217,4.225,6.647,6.075a17.854,17.854,0,0,1,6.473,8.136,15.8,15.8,0,0,1,.012,10.534.785.785,0,0,0,1.477.53" fill="#ed796a"/>
              <path id="Trazado_913372" data-name="Trazado 913372" d="M644.479,250.381q5.207-11.688,10.414-23.375c.412-.924-1.068-1.446-1.477-.53Q648.21,238.164,643,249.851c-.411.924,1.069,1.447,1.477.53" fill="#ed796a"/>
              <path id="Trazado_913373" data-name="Trazado 913373" d="M613.664,284.908l34.467,9.293-16.814,97.028a32.788,32.788,0,0,1-56.543,15.1l-14.913-21.243L583.649,364.8Z" fill="#f79674"/>
              <path id="Trazado_913374" data-name="Trazado 913374" d="M611.473,289.954c-9.415,25.864-19.872,51.4-28.583,77.519-.227.679-2.735,6.467-.759,6.517,1.005.025,1.129-1.539.118-1.564,1.919.048.05,1.076.71.206a6.045,6.045,0,0,0,.428-1.571c.471-1.587,1.006-3.155,1.542-4.721,1.754-5.125,3.618-10.214,5.485-15.3,4.93-13.422,9.983-26.8,14.991-40.192,2.536-6.781,5.069-13.563,7.545-20.365a.785.785,0,0,0-1.477-.53" fill="#ed796a"/>
              <path id="Trazado_913375" data-name="Trazado 913375" d="M338.444,341.808s-17.506,31.664-18.547,40.08.669,28.681,28.123,24.153l27.916-19.658,15.828-27Z" fill="#f79674"/>
              <path id="Trazado_913376" data-name="Trazado 913376" d="M242.132,268.056c1.053-1.957,4.686-3.986,6.317-2.267-.27-2.87.158-5.2,2.7-6.559s5.382-.281,7.619,1.538c-.32-2.21.49-5.789,2.557-6.636s5.192,1.118,6.516,2.917q-5.319-11.946-9.945-24.185c-1.013-2.679-1.883-6.041.079-8.129,2.228-2.369,6.987-1.829,8.861.829,3.793,5.38,6.865,11.115,10.38,17.185,10.569,18.251,25.791,41.925,34.925,60.817L282.7,320.654s-4.547-8.214-6.659-10.286-6.564-1.281-9.01-2.946c-6.857-4.667-10.207-13.987-12.421-21.981-2.787,2-6.924.744-9.208-1.812s-3.177-6.029-4-9.358a8.473,8.473,0,0,1,.726-6.215" fill="#f79674"/>
              <path id="Trazado_913377" data-name="Trazado 913377" d="M247.644,265.7a53.5,53.5,0,0,0,2.67,10.617c1.032,2.835,2.235,6.155,5.2,7.479a6.492,6.492,0,0,0,7.735-1.891c2.134-2.7,1.309-5.875.085-8.762-1.751-4.129-3.364-8.306-4.768-12.567-.311-.945-1.855-.657-1.539.3q1.905,5.785,4.243,11.413c.782,1.869,1.919,3.889,1.781,5.983a4.955,4.955,0,0,1-2.8,4.09,5.017,5.017,0,0,1-5.19-.669,10.781,10.781,0,0,1-2.752-4.547,51.587,51.587,0,0,1-3.121-11.75c-.145-1-1.684-.7-1.539.3" fill="#ed796a"/>
              <path id="Trazado_913378" data-name="Trazado 913378" d="M263.493,276.38c1.661,1.968,4.2.906,6.083-.08,2.014-1.052,3.8-2.487,4.04-4.9.249-2.559-1.009-5.273-1.913-7.6a70.107,70.107,0,0,0-3.7-7.98c-.478-.885-1.891-.2-1.41.688a56.838,56.838,0,0,1,5.157,12.214c.575,2.176.351,4.092-1.6,5.432-1.265.87-4.159,2.76-5.471,1.206a.784.784,0,0,0-1.189,1.022" fill="#ed796a"/>
              <path id="Trazado_913379" data-name="Trazado 913379" d="M291.062,270.37c-3.819-5.334-10.646-9.306-17.154-8.483s-11.456,4.646-17.262,7.7a17.2,17.2,0,0,0-3.056,2.5c-1.206,1.659.365,3.946,2.075,5.08a15.346,15.346,0,0,0,17.767-.947c.12,7.818,1.078,14.217,13.885,16.294" fill="#f79674"/>
              <path id="Trazado_913380" data-name="Trazado 913380" d="M291.657,269.858A21.855,21.855,0,0,0,279.6,261.5c-5.088-1.259-10.11.239-14.66,2.558-2.564,1.3-5,2.839-7.523,4.224a14.093,14.093,0,0,0-4.325,3.188c-3.022,3.784,3.24,7.347,6.124,8.2a16.326,16.326,0,0,0,14.728-2.854l-1.293-.654c.065,3.735.249,7.728,2.41,10.926,2.711,4.011,7.673,5.439,12.2,6.209.995.17,1.107-1.395.118-1.564-4.145-.706-8.874-2.026-11.23-5.837-1.756-2.842-1.876-6.375-1.932-9.616a.8.8,0,0,0-1.293-.653,14.715,14.715,0,0,1-14.666,2.041c-2.422-1.007-5.957-3.571-3.042-6.039a40.529,40.529,0,0,1,6.142-3.791c4.764-2.752,10.042-5.789,15.759-5.2,5.393.56,10.2,3.961,13.354,8.239.6.815,1.785-.213,1.189-1.022" fill="#ed796a"/>
              <path id="Trazado_913381" data-name="Trazado 913381" d="M307.986,295.208l-32.725,14.261,30.9,93.5a32.788,32.788,0,0,0,58.149,6.619l11.626-23.205-26.511-16.564Z" fill="#f79674"/>
              <path id="Trazado_913382" data-name="Trazado 913382" d="M309.5,300.591c12.564,23.183,25.826,46,38.064,69.36.965,1.843,1.929,3.689,2.824,5.568a12.2,12.2,0,0,0,.749,1.647c.07.1.1.444.2.506.62.4-1.749-.11.621-.523a.785.785,0,0,0,.3,1.54c1.84-.321-.724-4.415-1.044-5.062-2.25-4.537-4.678-8.988-7.093-13.438-7.227-13.33-14.623-26.569-21.968-39.835-3.767-6.8-7.534-13.612-11.241-20.45-.478-.885-1.892-.2-1.409.687" fill="#ed796a"/>
              <path id="Trazado_913383" data-name="Trazado 913383" d="M534.362,416.581l-2.7-61.21,7.126,11.25,57.3-33.867s-16.755-31.507-24.753-44.88c-16.224-27.125-35.859-26.693-35.859-26.693l-48.849-7.115-5.309-16.006s-44.494,7.285-43.786,7.087l-.848,8.542s-11.22.433-21.572,1.657a63.026,63.026,0,0,0-11.212,1.871c-.916.227-1.761.465-2.5.719v.008A46.175,46.175,0,0,0,379.566,272.2c-7.979,9.467-43.392,73.708-43.392,73.708l55.373,15.664-6.513,65.995c-2.682,1.145-6.677,4.018-7.5,11.142-1.269,10.916,5.055,13.674,5.055,13.674,114.867,17.943,155.382.886,155.652-3.755.532-9.156-3.875-32.048-3.875-32.048" fill="#f3f9ff"/>
              <path id="Trazado_913384" data-name="Trazado 913384" d="M388.3,426.89q1.026-20.324,2.053-40.646,1.635-32.389,3.271-64.779l.75-14.861a.785.785,0,0,0-1.564-.118l-2.052,40.646q-1.637,32.39-3.271,64.779-.377,7.431-.751,14.861a.785.785,0,0,0,1.564.118" fill="#511a51"/>
              <path id="Trazado_913385" data-name="Trazado 913385" d="M454.08,246.072a881.585,881.585,0,0,0-16.861,145.155q-.668,20.6-.365,41.205c.014,1,1.578,1.129,1.564.119A881.576,881.576,0,0,1,448.45,286.765q3.118-20.37,7.194-40.575c.2-.987-1.367-1.1-1.564-.118" fill="#511a51"/>
              <path id="Trazado_913386" data-name="Trazado 913386" d="M427.448,434.968a17.235,17.235,0,0,0,3.478,22.909c.8.62,1.687-.675.892-1.291a15.639,15.639,0,0,1-3.079-20.727.785.785,0,0,0-1.291-.891" fill="#511a51"/>
              <path id="Trazado_913387" data-name="Trazado 913387" d="M530.951,312.191a60.845,60.845,0,0,1,2.832-23.9,59.531,59.531,0,0,1,4.918-11.059c1.852-3.225,4.063-6.991,8.013-7.728a.785.785,0,0,0-.3-1.54c-3.586.67-5.945,3.447-7.813,6.395a60.3,60.3,0,0,0-5.792,11.945,62.8,62.8,0,0,0-3.4,26.194c.08,1,1.619.7,1.54-.3" fill="#511a51"/>
              <path id="Trazado_913388" data-name="Trazado 913388" d="M395.208,284.511l1.668-22.094a.785.785,0,0,0-1.564-.118l-1.668,22.094a.785.785,0,0,0,1.564.118" fill="#511a51"/>
              <path id="Trazado_913389" data-name="Trazado 913389" d="M395.243,433.244c14.185,2.625,29.211,1.992,43.543,1.368a360.981,360.981,0,0,0,51.238-5.435c6.851-1.294,13.842-2.794,20.266-5.579.927-.4.239-1.812-.687-1.41a88.355,88.355,0,0,1-17.907,5.067c-7.806,1.557-15.7,2.659-23.613,3.544a396.423,396.423,0,0,1-51.529,2.578,130.283,130.283,0,0,1-21.193-1.7c-.991-.183-1.1,1.382-.118,1.564" fill="#511a51"/>
              <path id="Trazado_913390" data-name="Trazado 913390" d="M435.874,253.308a27.356,27.356,0,0,0,1.076,12.124.8.8,0,0,0,1.415.295L456.2,245.621l-1.35-.1a100.33,100.33,0,0,0,15.022,23.075.8.8,0,0,0,1.106.083,158.78,158.78,0,0,0,15.783-15.3c.675-.75-.624-1.632-1.29-.891a156.319,156.319,0,0,1-15.515,15l1.106.084a98.794,98.794,0,0,1-14.8-22.74.8.8,0,0,0-1.351-.1l-17.838,20.106,1.415.3a26.384,26.384,0,0,1-1.052-11.705c.133-1-1.431-1.116-1.564-.118" fill="#511a51"/>
              <path id="Trazado_913391" data-name="Trazado 913391" d="M530.994,339.041q1.336,38.052,2.672,76.105c.035,1,1.6,1.127,1.564.118q-1.335-38.052-2.672-76.105c-.035-1-1.6-1.127-1.564-.118" fill="#511a51"/>
              <path id="Trazado_913392" data-name="Trazado 913392" d="M498.853,194.648a18.932,18.932,0,0,1-2.052,4.235c-3.592,5.568-9.512,8.718-13.159,10.231a43.081,43.081,0,0,1-16.461,3.226,44.15,44.15,0,0,1-5.9-.394c-1.056-.145-2.113-.332-3.156-.559a39.272,39.272,0,0,1-4.235-1.133l.214-.657a39.751,39.751,0,0,0,4.739,1.237q1.4.279,2.819.456a42.749,42.749,0,0,0,21.718-2.812c3.626-1.506,9.567-4.676,13.028-10.285a18.032,18.032,0,0,0,1.789-3.765Z" fill="#7581ff"/>
              <path id="Trazado_913393" data-name="Trazado 913393" d="M498.853,194.648a18.932,18.932,0,0,1-2.052,4.235c-.124-.235-.255-.462-.393-.69a18.032,18.032,0,0,0,1.789-3.765Z" fill="#351e3b"/>
              <path id="Trazado_913394" data-name="Trazado 913394" d="M461.662,211.289c-.131.214-.256.435-.38.656-1.057-.145-2.114-.331-3.157-.559.207-.166.463-.36.719-.553q1.4.281,2.818.456" fill="#5e70ef"/>
              <path id="Trazado_913395" data-name="Trazado 913395" d="M457.538,212.732a7.771,7.771,0,0,1-5.518-.875,3.419,3.419,0,0,1-1.118-.953,2.07,2.07,0,0,1,.265-2.543,3.522,3.522,0,0,1,1.776-1.03,6.5,6.5,0,0,1,5.934,1.678,2.19,2.19,0,0,1-1.12,3.663q-.109.031-.219.06" fill="#591757"/>
              <path id="Trazado_913396" data-name="Trazado 913396" d="M489.653,179.769l-2.04.15-.95.07c-.09-1.19-.2-2.38-.35-3.56a72.989,72.989,0,0,0-1.26-7.29c-2.66-11.82-8.12-22.57-15.67-30.53-.12-.13-.24-.25-.36-.38a59.32,59.32,0,0,0-23.59-14.86q2.535.435,5.04,1.02c2.46.57,4.91,1.24,7.32,2.03,1.19.46,2.19.68,3.35,1.21a63.611,63.611,0,0,1,10.04,8.51c.96.99,1.89,2.03,2.78,3.1a61.609,61.609,0,0,1,4.76,6.55,71.586,71.586,0,0,1,8.77,20.71,75.785,75.785,0,0,1,1.66,8.54c.22,1.57.38,3.15.5,4.73" fill="#7581ff"/>
              <path id="Trazado_913397" data-name="Trazado 913397" d="M489.254,175.034a10.8,10.8,0,0,1-2.9,1.4c-.021.01-.052.01-.073.021a72.906,72.906,0,0,0-1.317-7.43c.825-.906,1.683-1.8,2.55-2.69a75.4,75.4,0,0,1,1.736,8.7" fill="#5e70ef"/>
              <path id="Trazado_913398" data-name="Trazado 913398" d="M484.02,179.544s-.681-6.979,3.745-7.319,4.766,7.83,4.766,7.83Z" fill="#ff8e01"/>
              <path id="Trazado_913399" data-name="Trazado 913399" d="M502.165,194.427c0,8.318-5.35,15.218-12.339,16.47a12.766,12.766,0,0,1-2.3.208c-8.09,0-14.643-7.467-14.643-16.678s6.553-16.677,14.643-16.677a12.859,12.859,0,0,1,2.3.208c6.989,1.253,12.339,8.153,12.339,16.469" fill="#5e70ef"/>
              <path id="Trazado_913400" data-name="Trazado 913400" d="M502.165,194.427c0,8.318-5.35,15.218-12.339,16.47-7-1.245-12.347-8.144-12.347-16.47s5.35-15.224,12.347-16.469c6.989,1.253,12.339,8.153,12.339,16.469" fill="#7581ff"/>
              <path id="Trazado_913401" data-name="Trazado 913401" d="M721.065,236.857H531.741a4.974,4.974,0,0,1-4.974-4.974V111.862a4.974,4.974,0,0,1,4.974-4.973H721.065a4.974,4.974,0,0,1,4.974,4.973V231.884a4.974,4.974,0,0,1-4.974,4.973" fill="#fff"/>
              <path id="Trazado_913402" data-name="Trazado 913402" d="M611.707,134.943h83.907a.375.375,0,0,0,0-.75H611.707a.375.375,0,0,0,0,.75" fill="#d7d5f2"/>
              <path id="Trazado_913403" data-name="Trazado 913403" d="M611.707,146.852h83.907a.375.375,0,0,0,0-.75H611.707a.375.375,0,0,0,0,.75" fill="#d7d5f2"/>
              <path id="Trazado_913404" data-name="Trazado 913404" d="M611.707,158.761h52.021a.375.375,0,0,0,0-.75H611.707a.375.375,0,0,0,0,.75" fill="#d7d5f2"/>
              <path id="Trazado_913405" data-name="Trazado 913405" d="M611.707,187.46h83.907a.375.375,0,0,0,0-.75H611.707a.375.375,0,0,0,0,.75" fill="#d7d5f2"/>
              <path id="Trazado_913406" data-name="Trazado 913406" d="M611.707,199.37h83.907a.375.375,0,0,0,0-.75H611.707a.375.375,0,0,0,0,.75" fill="#d7d5f2"/>
              <path id="Trazado_913407" data-name="Trazado 913407" d="M611.707,211.279h52.021a.375.375,0,0,0,0-.75H611.707a.375.375,0,0,0,0,.75" fill="#d7d5f2"/>
              <path id="Trazado_913408" data-name="Trazado 913408" d="M584.786,164.583H554.555a2.99,2.99,0,0,1-2.99-2.99V131.362a2.99,2.99,0,0,1,2.99-2.99h30.231a2.99,2.99,0,0,1,2.99,2.99v30.231a2.99,2.99,0,0,1-2.99,2.99" fill="#ee4f47" opacity="0.32"/>
              <path id="Trazado_913409" data-name="Trazado 913409" d="M565.968,142.709l10.521,9.749a1.912,1.912,0,0,0,2.945-.38L592.9,134.5l1.913-2.495a1.89,1.89,0,0,0-.673-2.566,1.921,1.921,0,0,0-2.566.673l-13.467,17.575-1.912,2.5,2.945-.38-10.521-9.749c-1.769-1.638-4.427,1.007-2.652,2.652" fill="#ee4f47"/>
              <path id="Trazado_913410" data-name="Trazado 913410" d="M584.786,220.606H554.555a2.989,2.989,0,0,1-2.99-2.99V187.385a2.988,2.988,0,0,1,2.99-2.99h30.231a2.99,2.99,0,0,1,2.99,2.99v30.231a2.991,2.991,0,0,1-2.99,2.99" fill="#ee4f47" opacity="0.32"/>
              <path id="Trazado_913411" data-name="Trazado 913411" d="M565.968,198.732l10.521,9.749a1.912,1.912,0,0,0,2.945-.38L592.9,190.527l1.913-2.495a1.89,1.89,0,0,0-.673-2.566,1.922,1.922,0,0,0-2.566.673l-13.467,17.575-1.912,2.495,2.945-.38L568.62,196.08c-1.769-1.638-4.427,1.007-2.652,2.652" fill="#ee4f47"/>
              <path id="Trazado_913412" data-name="Trazado 913412" d="M190.763,40.282A40.081,40.081,0,1,0,230.642,0a40.081,40.081,0,0,0-39.879,40.281" fill="#fff"/>
              <path id="Trazado_913413" data-name="Trazado 913413" d="M217.893,75.824,195.132,87.31a190.442,190.442,0,0,0,10.086-23.968c5.213,2.438,9.492,7.687,12.675,12.482" fill="#fff3ea"/>
              <path id="Trazado_913414" data-name="Trazado 913414" d="M228.986,50.266l-.495.125a1.4,1.4,0,0,1-1.3-.806,12.824,12.824,0,0,1-1.424-5.574c0-4.521,2.972-7.246,6.069-10.1a25.8,25.8,0,0,0,3.1-3.344,4.452,4.452,0,0,0,.867-2.478c0-2.416-2.043-3.593-4.273-3.593a11.855,11.855,0,0,0-6.875,2.787,1.643,1.643,0,0,1-.868.31,1.1,1.1,0,0,1-.929-.557l-2.167-3.221a1.143,1.143,0,0,1-.249-.805,1.55,1.55,0,0,1,.5-1.115,16.5,16.5,0,0,1,10.776-4.15c6.319,0,11.15,3.778,11.15,10.22,0,4.088-1.921,6.689-4.708,9.476l-1.177,1.177a26.472,26.472,0,0,0-3.035,3.159,4.152,4.152,0,0,0-.929,2.54,7.38,7.38,0,0,0,.62,2.787,3.126,3.126,0,0,1,.124.558,1.191,1.191,0,0,1-.187.619,1.682,1.682,0,0,1-.557.433Zm-4.025,9.539a5.127,5.127,0,0,1,5.141-5.141,5.141,5.141,0,0,1,0,10.282,5.127,5.127,0,0,1-5.141-5.141" fill="#ee4f47"/>
              <path id="Trazado_913415" data-name="Trazado 913415" d="M750,440.9v41.51H0v-9.13L132.5,440.9Z" fill="#7581ff"/>
              <path id="Trazado_913416" data-name="Trazado 913416" d="M404.158,472.4l46.331-24.437H206.406l-35.313,25.567s233.065-2.26,233.065-1.13" fill="#12263f"/>
              <path id="Trazado_913417" data-name="Trazado 913417" d="M153.436,332.422l17.515,141.252H404.864l-21.47-142.947s-229.958,1.13-229.958,1.7" fill="#12263f"/>
              <path id="Trazado_913418" data-name="Trazado 913418" d="M270.581,429.863a23.99,23.99,0,1,1,23.99-23.99,24.017,24.017,0,0,1-23.99,23.99m0-45.98a21.99,21.99,0,1,0,21.99,21.99,22.015,22.015,0,0,0-21.99-21.99" fill="#ffd4d4"/>
              <path id="Trazado_913419" data-name="Trazado 913419" d="M404.546,471.413l.3,2.225,45.619-23.778.035-1.907Z" fill="#492a51"/>
              <path id="Trazado_913420" data-name="Trazado 913420" d="M459.384,465.685v1.477a.973.973,0,0,0,.992.946l109.349.794a1.007,1.007,0,0,0,.911-.541l9.34-18.6a.9.9,0,0,0,.1-.372l.163-4.294Z" fill="#591757"/>
              <path id="Trazado_913421" data-name="Trazado 913421" d="M459.384,465.685,483.4,445.029l96.83.04-10.893,21.582s-110.3-.966-109.958-.966" fill="#12263f"/>
              <path id="Trazado_913422" data-name="Trazado 913422" d="M468.463,464.176l20.73-18.462h87.495l-9.756,19.327s-98.774-.865-98.469-.865" fill="#fff"/>
              <path id="Trazado_913423" data-name="Trazado 913423" d="M474.385,457.427h0a26.9,26.9,0,0,1-2.748-.08.1.1,0,0,1-.059-.082.106.106,0,0,1,.036-.1l6.3-5.326a.106.106,0,0,1,.068-.025h2.556a.105.105,0,0,1,.069.185l-6.147,5.4a.1.1,0,0,1-.07.027m-2.7-.176h0Zm.27-.09c.49.019,1.6.04,2.4.054l5.906-5.185h-2.236Z" fill="#ffd4d4"/>
              <path id="Trazado_913424" data-name="Trazado 913424" d="M488.089,379.346v43.962a2.463,2.463,0,0,0,2.463,2.463h85.426a2.463,2.463,0,0,0,2.463-2.463V379.4a2.46,2.46,0,0,0-2.454-2.463c-12.885-.032-72.631-.172-85.466-.05a2.457,2.457,0,0,0-2.432,2.463" fill="#f4b30f"/>
              <path id="Trazado_913425" data-name="Trazado 913425" d="M534,407a.312.312,0,0,1-.161-.046l-45.7-28.091a.308.308,0,1,1,.322-.524l45.533,27.988,43.413-28.9a.308.308,0,0,1,.341.513L534.17,406.951A.306.306,0,0,1,534,407" fill="#511a51"/>
              <path id="Trazado_913426" data-name="Trazado 913426" d="M488.09,424.821a.308.308,0,0,1-.18-.558l34.379-24.737a.308.308,0,0,1,.36.5L488.27,424.763a.309.309,0,0,1-.18.058" fill="#511a51"/>
              <path id="Trazado_913427" data-name="Trazado 913427" d="M577.6,425.241a.3.3,0,0,1-.2-.071l-31.445-26a.307.307,0,1,1,.392-.473L577.8,424.7a.308.308,0,0,1,.041.433.3.3,0,0,1-.237.112" fill="#511a51"/>
              <path id="Trazado_913428" data-name="Trazado 913428" d="M554.161,95.2H698.644a21.92,21.92,0,0,0,0-43.839H554.161a21.92,21.92,0,0,0,0,43.839" fill="#b0c0d2"/>
              <path id="Trazado_913429" data-name="Trazado 913429" d="M665.609,91.176a.606.606,0,0,0,.6-.605V57.229a.6.6,0,1,0-1.21,0V90.571a.605.605,0,0,0,.6.605" fill="#faf0e4"/>
              <path id="Trazado_913430" data-name="Trazado 913430" d="M683.734,68.446a11,11,0,1,1,11,11,11.011,11.011,0,0,1-11-11m1.21,0a9.79,9.79,0,1,0,9.788-9.788,9.8,9.8,0,0,0-9.788,9.788" fill="#faf0e4"/>
              <path id="Trazado_913431" data-name="Trazado 913431" d="M682.076,86.442a.607.607,0,0,0,.483-.24l6.382-8.438a.606.606,0,0,0-.967-.73l-6.381,8.438a.605.605,0,0,0,.483.97" fill="#faf0e4"/>
              <path id="Trazado_913432" data-name="Trazado 913432" d="M22.692,153.721a28.933,28.933,0,1,1,29.5,28.359,28.934,28.934,0,0,1-29.5-28.359" fill="#ffbd45"/>
              <path id="Trazado_913433" data-name="Trazado 913433" d="M37.872,146.188a2.82,2.82,0,1,1,2.875,2.764,2.82,2.82,0,0,1-2.875-2.764" fill="#3e0f3d"/>
              <path id="Trazado_913434" data-name="Trazado 913434" d="M59.445,145.764a2.82,2.82,0,1,1,2.875,2.764,2.82,2.82,0,0,1-2.875-2.764" fill="#3e0f3d"/>
              <path id="Trazado_913435" data-name="Trazado 913435" d="M35.612,155.968l32.115-.632c.148,7.556-6.92,13.822-15.789,14s-16.177-5.809-16.326-13.364" fill="#3e0f3d"/>
              <path id="Trazado_913436" data-name="Trazado 913436" d="M41.215,337.748H126.2a13.72,13.72,0,0,1,13.679,13.679v18.626A13.72,13.72,0,0,1,126.2,383.732H113.587q4.187,9.662,9.239,18.916L96.193,383.732H41.215a13.72,13.72,0,0,1-13.679-13.679V351.427a13.72,13.72,0,0,1,13.679-13.679" fill="#fff"/>
              <path id="Trazado_913437" data-name="Trazado 913437" d="M100.727,360.71a4.085,4.085,0,1,0,4.085-4.085,4.085,4.085,0,0,0-4.085,4.085" fill="#591757"/>
              <path id="Trazado_913438" data-name="Trazado 913438" d="M78.6,360.71a4.085,4.085,0,1,0,4.085-4.085A4.085,4.085,0,0,0,78.6,360.71" fill="#591757"/>
              <path id="Trazado_913439" data-name="Trazado 913439" d="M56.472,360.71a4.085,4.085,0,1,0,4.085-4.085,4.085,4.085,0,0,0-4.085,4.085" fill="#591757"/>
              <g id="Grupo_1103384" data-name="Grupo 1103384" opacity="0.31" style="mix-blend-mode: multiply;isolation: isolate">
                <g id="Grupo_1103383" data-name="Grupo 1103383">
                  <g id="Grupo_1103382" data-name="Grupo 1103382" clip-path="url(#clip-path-3)">
                    <path id="Trazado_913440" data-name="Trazado 913440" d="M736.193,472.524c0,3.2-17.206,5.793-38.43,5.793s-38.431-2.594-38.431-5.793,17.206-5.793,38.431-5.793,38.43,2.594,38.43,5.793" fill="#7581ff"/>
                  </g>
                </g>
              </g>
              <path id="Trazado_913441" data-name="Trazado 913441" d="M726.2,391.217l-2.236,10.857-1.9,9.275-.233,1.14-.907,4.416-.277,1.3-5.988,29.141-.232,1.106-4.98,24.227H667.557l-8.179-32.937-.31-1.217-1.616-6.5-.265-1.085-6.873-27.668-.31-1.24-2.457-9.883c.93,0,78.657-.93,78.657-.93" fill="#f4b30f"/>
              <path id="Trazado_913442" data-name="Trazado 913442" d="M720.924,416.9l-.277,1.3c-20.22,7.8-41.868,11.09-63.195,13.823l-.266-1.084c21.537-2.756,43.407-6.076,63.738-14.034" fill="#fff3ea"/>
              <path id="Trazado_913443" data-name="Trazado 913443" d="M714.66,447.341l-.232,1.107c-18.671-.233-37.077-4.283-55.05-8.71l-.31-1.218c18.162,4.482,36.755,8.611,55.592,8.821" fill="#fff3ea"/>
              <path id="Trazado_913444" data-name="Trazado 913444" d="M722.064,411.349l-.232,1.14a53.385,53.385,0,0,1-5.767.266c-.619,0-1.228-.011-1.826-.011a241.178,241.178,0,0,1-63.926-9.474l-.31-1.24a240.386,240.386,0,0,0,64.247,9.607,59.941,59.941,0,0,0,7.814-.288" fill="#fff3ea"/>
              <path id="Trazado_913445" data-name="Trazado 913445" d="M648.312,392.978l77.049-.942s-11.3,9.042-38.995,9.042-38.054-8.1-38.054-8.1" fill="#511a51"/>
              <g id="Grupo_1103387" data-name="Grupo 1103387" opacity="0.27" style="mix-blend-mode: multiply;isolation: isolate">
                <g id="Grupo_1103386" data-name="Grupo 1103386">
                  <g id="Grupo_1103385" data-name="Grupo 1103385" clip-path="url(#clip-path-4)">
                    <path id="Trazado_913446" data-name="Trazado 913446" d="M723.968,402.075l-1.9,9.275-.232,1.14-.908,4.416-.276,1.294-5.988,29.141-.232,1.107-4.981,24.227H668.5c22.29-20.077,39.379-45.111,55.471-70.6" fill="#ffa565"/>
                  </g>
                </g>
              </g>
              <path id="Trazado_913447" data-name="Trazado 913447" d="M731.673,276.038q-3.121,11.19-7.139,22.113c2.313-1.727,6.3.786,7.737,3.287s1.261,5.611.808,8.467a58.837,58.837,0,0,1-2.745,10.492c-.067.2-.144.4-.221.6a107.652,107.652,0,0,1-6.8,14.543c-.122.222-.232.432-.343.631-1.428,2.59-2.9,5.146-4.372,7.681-4.792,8.29-9.651,16.358-14.52,24.426-.144.255-.3.5-.454.753-5.634,9.352-11.289,18.682-16.867,28.266-.288.487-.565.985-.852,1.472-.056.089-.1.177-.155.266,1.184-17.31,2.379-34.642,4.7-51.83.034-.265.067-.52.111-.785.753-5.468,1.616-10.924,2.634-16.358a245.015,245.015,0,0,1,6.309-26.042c.066-.255.144-.509.232-.753A172.616,172.616,0,0,1,716.4,265.015c2.822-4.726,6.054-9.441,10.713-12.385a10.959,10.959,0,0,1,2.1-1.051,6.605,6.605,0,0,1,.764-.222,4.555,4.555,0,0,1,2.744.056,5.372,5.372,0,0,1,3.2,4.36,15.408,15.408,0,0,1-.531,5.623q-1.578,6.988-3.509,13.889c-.055.255-.132.509-.21.753" fill="#f9707e"/>
              <path id="Trazado_913448" data-name="Trazado 913448" d="M729.979,251.357a242.551,242.551,0,0,0-15.439,34.188c-.111.3-.222.6-.332.885-4.848,13.193-8.777,26.485-11.876,38.416-.044.2-.1.387-.144.586-.874,3.343-1.671,6.585-2.4,9.673q-.5,2.109-1,4.25c-.045.188-.089.387-.133.576-2.369,10.3-4.615,21.006-6.774,31.719-.044.2-.088.388-.121.587-1.251,6.142-2.468,12.3-3.675,18.372q-.68,3.37-1.328,6.685l-.5,2.523a.284.284,0,0,1-.277.222.12.12,0,0,1-.055-.011.27.27,0,0,1-.21-.321c.066-.31.121-.62.188-.941.531-2.723,1.084-5.479,1.638-8.257,2.424-12.218,4.9-24.713,7.515-36.921.055-.255.111-.5.166-.742,1.295-6.053,2.634-12.041,4.028-17.874,1.539-6.474,3.354-13.58,5.479-21.006.066-.254.133-.509.221-.763,2.468-8.666,5.357-17.753,8.666-26.8.044-.122.089-.233.133-.343a248.355,248.355,0,0,1,15.461-34.487,6.655,6.655,0,0,1,.764-.221" fill="#351e3b"/>
              <path id="Trazado_913449" data-name="Trazado 913449" d="M731.883,275.285c-.055.255-.133.509-.21.753-5.988,3.176-11.843,6.663-17.465,10.392-.055.034-.111.078-.166.112a.261.261,0,0,1-.155.043.286.286,0,0,1-.232-.121.2.2,0,0,0-.034-.056v-.01a.3.3,0,0,1,.111-.322c.011,0,.011-.01.022-.01.266-.177.52-.354.786-.52,5.6-3.676,11.411-7.118,17.343-10.261" fill="#351e3b"/>
              <path id="Trazado_913450" data-name="Trazado 913450" d="M705.133,314.155a.225.225,0,0,1-.122.033.264.264,0,0,1-.243-.155l-.033-.066-5.224-9.95c.066-.255.143-.509.232-.753l5.213,9.939.3.576a.281.281,0,0,1-.122.376" fill="#351e3b"/>
              <path id="Trazado_913451" data-name="Trazado 913451" d="M730.333,320.4c-.066.2-.144.4-.221.6l-27.924,4.438-.077.011h-.044a.273.273,0,0,1-.045-.543l.31-.044v-.011Z" fill="#351e3b"/>
              <path id="Trazado_913452" data-name="Trazado 913452" d="M723.317,335.537c-.122.221-.232.432-.343.631-8.068,1.45-16.225,2.722-24.316,3.763v.011c-.044,0-.077.011-.121.011H698.5a.284.284,0,0,1-.276-.244.289.289,0,0,1,.243-.309c.111-.012.211-.023.321-.045,8.168-1.051,16.391-2.335,24.526-3.818" fill="#351e3b"/>
              <path id="Trazado_913453" data-name="Trazado 913453" d="M695.46,353.666a.266.266,0,0,1-.155.055.287.287,0,0,1-.232-.121.011.011,0,0,0-.011-.011c-1.484-2.148-3.022-4.284-4.605-6.387.034-.265.067-.52.111-.785,1.594,2.114,3.154,4.272,4.66,6.43l.3.432a.279.279,0,0,1-.066.387" fill="#351e3b"/>
              <path id="Trazado_913454" data-name="Trazado 913454" d="M704.081,368.275c-.144.255-.3.5-.454.753a74.55,74.55,0,0,1-11.864,3.209h-.056a.282.282,0,0,1-.276-.221.278.278,0,0,1,.221-.321c.078-.011.155-.033.232-.044a74.061,74.061,0,0,0,12.2-3.376" fill="#351e3b"/>
              <path id="Trazado_913455" data-name="Trazado 913455" d="M747.147,350.192c-2.081,5.157-6.065,9.3-10.182,13.049q-.615.564-1.229,1.1c-.177.177-.365.332-.553.487a222.326,222.326,0,0,1-18.638,14.455h-.011c-.2.132-.376.276-.575.409l-2.59,1.826c-7.847,5.5-15.772,12.661-24.094,17.21a5.921,5.921,0,0,1,.1-.586,8.773,8.773,0,0,1,.487-1.528c.011-.011.011-.022.022-.033,1.273-2.922,4.173-5.954,5.789-8.179q4.266-5.877,9-11.41c3.364-3.94,6.884-7.748,10.558-11.378.2-.21.4-.409.6-.586q4.416-4.367,9.1-8.4a83.173,83.173,0,0,1,8.6-6.64c.2-.144.387-.266.586-.388h.011a41.394,41.394,0,0,1,6.851-3.608,7.593,7.593,0,0,1,4.792-.42,3.582,3.582,0,0,1,.6.254,2.477,2.477,0,0,1,1.173,1.439,4.465,4.465,0,0,1-.387,2.933" fill="#f9707e"/>
              <path id="Trazado_913456" data-name="Trazado 913456" d="M746.361,345.82c-7.116,5.2-14.554,10.835-21.925,16.933-.188.166-.387.332-.586.487-5.125,4.272-10.216,8.777-15.152,13.525-.144.144-.3.288-.443.432a195.307,195.307,0,0,0-18.881,20.939c-.288.366-.575.731-.852,1.107a.305.305,0,0,1-.221.111.3.3,0,0,1-.166-.055.282.282,0,0,1-.056-.388c.587-.775,1.185-1.538,1.782-2.3.011-.011.011-.022.022-.033a198.953,198.953,0,0,1,18.018-19.8l.166-.166h.011c2.247-2.18,4.527-4.294,6.829-6.364.188-.177.387-.354.587-.52,5.8-5.191,11.731-10.049,17.608-14.62.2-.155.387-.31.587-.454,4.073-3.165,8.123-6.187,12.074-9.087a3.585,3.585,0,0,1,.6.255" fill="#351e3b"/>
              <path id="Trazado_913457" data-name="Trazado 913457" d="M734.109,349.594c-.166,1.682-.31,3.376-.421,5.058-.022.188-.033.387-.044.575a.278.278,0,0,1-.277.255h-.011a.28.28,0,0,1-.265-.288.243.243,0,0,1,.011-.088c.111-1.694.243-3.42.421-5.125.2-.144.387-.265.586-.387" fill="#351e3b"/>
              <path id="Trazado_913458" data-name="Trazado 913458" d="M735.736,364.336c-.177.177-.365.332-.553.487-1.329-.188-2.634-.365-3.952-.553-2.446-.344-4.88-.687-7.382-1.03-.022,0-.055-.011-.077-.011a.282.282,0,0,1-.244-.31.288.288,0,0,1,.321-.243c.2.033.4.055.587.077,2.324.332,4.593.642,6.873.963,1.472.21,2.944.421,4.427.62" fill="#351e3b"/>
              <path id="Trazado_913459" data-name="Trazado 913459" d="M715.825,365.022c-.144,1.7-.244,3.265-.332,4.7-.011.2-.022.4-.033.586a.265.265,0,0,1-.277.266h-.011a.289.289,0,0,1-.266-.288v-.044c.089-1.428.188-2.966.321-4.637.2-.211.4-.41.6-.587" fill="#351e3b"/>
              <path id="Trazado_913460" data-name="Trazado 913460" d="M716.534,379.277c-.2.133-.376.277-.575.41q-3.9-1.113-7.7-2.491c-.066-.022-.121-.044-.188-.066a.271.271,0,0,1-.166-.354.276.276,0,0,1,.166-.166h.011a.246.246,0,0,1,.177,0c.144.055.3.11.443.155,2.579.929,5.191,1.759,7.836,2.512" fill="#351e3b"/>
              <path id="Trazado_913461" data-name="Trazado 913461" d="M685.211,392.06c-.155.974-.343,1.959-.531,2.944-.321,1.649-.686,3.3-1.085,4.98a361.634,361.634,0,0,0-18.073-56.356v-.011c-.1-.254-.21-.509-.321-.763v-.011c-1.229-2.978-2.5-5.922-3.818-8.855a39.624,39.624,0,0,1-3.31-9.3,12.488,12.488,0,0,1,1.771-9.474c-.752-1.981-1.483-3.962-2.18-5.965v-.012c-.089-.243-.177-.486-.255-.73-5.522-15.971-9.164-32.749-7.437-49.406.022-.21.044-.431.066-.653.111-.918.222-1.848.365-2.766.631-4.162,1.816-8.589,5.092-11.234a3.911,3.911,0,0,1,1.151-.686,1.7,1.7,0,0,1,.575-.111.192.192,0,0,1,.078-.011,3.23,3.23,0,0,1,2.125,1.14,29.188,29.188,0,0,1,5.655,8.92,157.988,157.988,0,0,1,8.954,25.268c.1.354.188.7.288,1.062v.011c3.74,14.3,5.954,29.086,7.924,43.784v.011c.055.4.111.808.166,1.2v.011q.115.881.232,1.76c1.306,9.9,2.557,19.8,3.42,29.738v.011c.044.443.078.886.111,1.317.166,1.937.31,3.863.443,5.8a117.4,117.4,0,0,1-1.406,28.388" fill="#f9707e"/>
              <path id="Trazado_913462" data-name="Trazado 913462" d="M685.211,392.06c-.155.974-.343,1.959-.531,2.944q-.016-20.967-2.014-41.769c-.012-.232-.034-.465-.067-.7q-1.694-17.532-4.792-34.885c-.044-.222-.078-.443-.122-.664v-.011q-2.64-14.692-6.286-29.219a1.779,1.779,0,0,0-.056-.232q-1.577-6.326-3.364-12.606c-.089-.343-.188-.675-.288-1.018v-.011q-1.809-6.342-3.807-12.651c-1.871-5.887-3.962-12.03-7.238-17.475a1.7,1.7,0,0,1,.575-.111c3.243,5.456,5.335,11.566,7.183,17.42q2.142,6.741,4.062,13.536v.011c.044.144.077.266.111.4q1.642,5.777,3.1,11.576c.089.321.166.631.233.952q5.229,20.769,8.389,41.9c.066.365.122.741.166,1.118q2.34,15.8,3.542,31.753v.011c.033.453.066.907.088,1.372v.011q1.029,14.127,1.118,28.344" fill="#351e3b"/>
              <path id="Trazado_913463" data-name="Trazado 913463" d="M668.576,275.021c0,.022-.011.033-.033.055a.259.259,0,0,1-.2.089.313.313,0,0,1-.189-.078c-.055-.055-.121-.11-.177-.166-5.821-5.423-11.864-10.735-18.007-15.815.022-.21.045-.432.067-.653,6.021,4.958,11.942,10.149,17.653,15.439v.011c.265.233.52.476.774.708v.012a.3.3,0,0,1,.067.055.259.259,0,0,1,.044.343" fill="#351e3b"/>
              <path id="Trazado_913464" data-name="Trazado 913464" d="M674.32,280.035v.011c-.686,2.535-1.494,5.047-2.413,7.5-.011.044-.033.077-.044.122a.263.263,0,0,1-.255.177.164.164,0,0,1-.1-.022.233.233,0,0,1-.111-.067.252.252,0,0,1-.055-.232.1.1,0,0,1,.011-.056c.111-.287.21-.575.321-.874.907-2.49,1.693-5.047,2.357-7.625.1.354.188.7.288,1.062" fill="#351e3b"/>
              <path id="Trazado_913465" data-name="Trazado 913465" d="M678.072,317.532a.248.248,0,0,1-.232.133.043.043,0,0,1-.034-.011.2.2,0,0,1-.11-.022,43.185,43.185,0,0,0-8.412-3.62c-.641-.221-1.272-.442-1.9-.664a96.938,96.938,0,0,1-9.718-4.1v-.011c-.088-.243-.177-.487-.254-.73a97.318,97.318,0,0,0,10.16,4.316c.631.222,1.262.443,1.9.664a46.388,46.388,0,0,1,8.212,3.487v.011c.1.044.2.11.3.166a.263.263,0,0,1,.088.376" fill="#351e3b"/>
              <path id="Trazado_913466" data-name="Trazado 913466" d="M682.411,325.035v.011l-1.893,5.434a.3.3,0,0,1-.265.188.279.279,0,0,1-.089-.011A.275.275,0,0,1,680,330.3l.3-.852,1.948-5.611c.055.4.111.808.166,1.2" fill="#351e3b"/>
              <path id="Trazado_913467" data-name="Trazado 913467" d="M683.019,353.147a.29.29,0,0,1-.233.122.251.251,0,0,1-.121-.033.038.038,0,0,1-.033-.012,149.832,149.832,0,0,0-17.111-9.6v-.011c-.1-.255-.21-.509-.321-.764a150.751,150.751,0,0,1,17.4,9.684c.111.078.233.144.344.222a.282.282,0,0,1,.077.387" fill="#351e3b"/>
              <path id="Trazado_913468" data-name="Trazado 913468" d="M686.174,357.873l-2.058,5.788a.088.088,0,0,1-.023.045v.011a.3.3,0,0,1-.232.133.207.207,0,0,1-.088-.023.286.286,0,0,1-.178-.354l.41-1.14v-.011l2.058-5.766c.045.443.078.885.111,1.317" fill="#351e3b"/>
              <path id="Trazado_913469" data-name="Trazado 913469" d="M682.132,398.756c-.3-.31-.609-.609-.919-.885a51.328,51.328,0,0,0-4.8-3.951q-12.334-9.132-23.84-19.324c-.221-.189-.453-.388-.675-.6-1.062-.941-2.125-1.893-3.176-2.856a141.3,141.3,0,0,1-16.2-16.867c-.166-.21-.332-.42-.487-.63-.531-.675-1.04-1.351-1.538-2.048-1.627-2.269-3.177-4.726-3.542-7.5a4.5,4.5,0,0,1,.443-2.944,3.125,3.125,0,0,1,1.018-1,2.475,2.475,0,0,1,.542-.265,4.339,4.339,0,0,1,1.871-.343A9.528,9.528,0,0,1,634.6,340.7c7.105,3.408,13.059,8.732,18.383,14.6.232.243.454.487.664.741.011.011.011.011.011.022,1.029,1.129,1.992,2.247,2.966,3.4A194.673,194.673,0,0,1,670.6,378.281c.188.288.365.564.553.852s.365.565.542.852q2.64,4.134,5.069,8.4c1.638,2.855,4,6.209,5.069,9.4a8.913,8.913,0,0,1,.3.974" fill="#f9707e"/>
              <path id="Trazado_913470" data-name="Trazado 913470" d="M682.818,399.874a.245.245,0,0,1-.144.044.275.275,0,0,1-.243-.133c-.4-.641-.808-1.283-1.218-1.914a228.262,228.262,0,0,0-15.472-21.4c-.188-.221-.377-.443-.554-.675q-5.2-6.325-10.846-12.252h-.011c-.1-.122-.21-.232-.321-.343q-3.37-3.552-6.917-6.95l-.7-.664a224.2,224.2,0,0,0-17.985-15.429,2.475,2.475,0,0,1,.542-.265A226.382,226.382,0,0,1,647.424,355.8c2.2,2.114,4.372,4.272,6.474,6.474.222.222.432.432.642.653a223.281,223.281,0,0,1,16.469,19.335c.177.222.343.432.5.653q5.445,7.206,10.326,14.864c.354.565.719,1.14,1.074,1.7a.283.283,0,0,1-.089.387" fill="#351e3b"/>
              <path id="Trazado_913471" data-name="Trazado 913471" d="M647.491,356.013a.268.268,0,0,1-.277.243h-.033l-.088-.011-14.576-1.97c-.166-.21-.332-.42-.487-.63l14.365,1.936.011.011.853.111a.21.21,0,0,1,.088.033.24.24,0,0,1,.078.067.245.245,0,0,1,.066.21" fill="#351e3b"/>
              <path id="Trazado_913472" data-name="Trazado 913472" d="M654.574,363.229a.29.29,0,0,1-.232.31H654.3a.285.285,0,0,1-.276-.255c0-.033-.011-.055-.011-.088-.034-.31-.067-.609-.111-.919-.255-2.324-.565-4.659-.919-6.983.233.243.454.487.664.741.011.011.011.011.011.022.344,2.291.631,4.582.886,6.873l.033.3" fill="#351e3b"/>
              <path id="Trazado_913473" data-name="Trazado 913473" d="M666.162,376.289a.285.285,0,0,1-.277.21.14.14,0,0,1-.066-.011.191.191,0,0,0-.078-.011v-.011a77.478,77.478,0,0,0-13.17-1.87c-.222-.189-.454-.388-.675-.6a75.988,75.988,0,0,1,13.292,1.793c.255.044.509.111.764.166a.28.28,0,0,1,.21.332" fill="#351e3b"/>
              <path id="Trazado_913474" data-name="Trazado 913474" d="M671.7,379.986c-.022.974-.089,1.959-.188,2.933v.044a.286.286,0,0,1-.277.244.277.277,0,0,1-.277-.244l-.055-.387a.26.26,0,0,1,.111-.244v-.066c.1-1.04.144-2.081.144-3.132.177.288.365.564.542.852" fill="#351e3b"/>
              <path id="Trazado_913475" data-name="Trazado 913475" d="M428.28,77.178l2.8,9.61-15.4,4.48-2.74-9.42a28.179,28.179,0,1,1,15.34-4.67" fill="#ffbd45"/>
              <path id="Trazado_913476" data-name="Trazado 913476" d="M426.895,50.379a3.7,3.7,0,0,0-3.126-1.825,4.518,4.518,0,0,0-2.922,1.485A11.122,11.122,0,0,0,418.6,53.12c-1.185-2.6-2.718-3.807-4.757-3.712a4.384,4.384,0,0,0-2.8,1.258A7.309,7.309,0,0,0,409,55.858c-1.991-1.457-3.889-1.628-5.386-.474a4.629,4.629,0,0,0-1.57,2.525c-1.131,4.274,1.726,8.3,4.342,11.332,1.946,2.256,4.008,4.462,6.127,6.555l.237.236c3.009,2.972,6.42,6.339,6.581,10.511l.01.249.938-.036-.01-.25c-.177-4.543-3.728-8.05-6.861-11.144l-.237-.232c-2.1-2.073-4.141-4.26-6.075-6.5-2.465-2.857-5.164-6.63-4.146-10.479a3.766,3.766,0,0,1,1.237-2.024c1.624-1.249,3.508-.188,4.8.918l.007.009a10.971,10.971,0,0,0,2.6,7.186,1.5,1.5,0,0,0,1.839.273,1.461,1.461,0,0,0,.709-1.693,6.889,6.889,0,0,0-.46-1.2,16.638,16.638,0,0,0-3.763-5c-.017-2.392.561-4.119,1.767-5.276a3.459,3.459,0,0,1,2.2-1c1.7-.067,3,1.087,4.038,3.578.053.129.106.259.157.389a12.328,12.328,0,0,0-.535,6.7,1.5,1.5,0,0,0,2.964-.444,23.739,23.739,0,0,0-1.425-6.258,10.5,10.5,0,0,1,2.4-3.6,3.64,3.64,0,0,1,2.3-1.223,2.725,2.725,0,0,1,2.3,1.384c.992,1.588.758,3.861.6,5.366a18.43,18.43,0,0,1-1.381,5.2,34.111,34.111,0,0,0-.133,25.655l.093.232.872-.348-.093-.232a33.159,33.159,0,0,1,.125-24.945,19.345,19.345,0,0,0,1.45-5.471c.168-1.632.423-4.1-.739-5.959m-8.422,10.447a11.187,11.187,0,0,1,.136-5.047,22.929,22.929,0,0,1,.977,4.9.515.515,0,0,1-.478.568.534.534,0,0,1-.635-.422m-5.491,2.868a.566.566,0,0,1-.7-.1,9.56,9.56,0,0,1-2.278-5.6,15.743,15.743,0,0,1,2.846,4.037,5.816,5.816,0,0,1,.4,1.036.536.536,0,0,1-.263.63" fill="#f6f6f6"/>
              <path id="Trazado_913477" data-name="Trazado 913477" d="M430.438,81.916l1.33,4.568c.051.177.094.356.127.529a2.645,2.645,0,0,1,.066.447,6.1,6.1,0,0,1-4.34,6.63l-5.093,1.483a6.1,6.1,0,0,1-7.221-3.264,2.617,2.617,0,0,1-.184-.413,5.283,5.283,0,0,1-.177-.515l-1.33-4.567Z" fill="#591757"/>
              <rect id="Rectángulo_404213" data-name="Rectángulo 404213" width="17.521" height="0.456" transform="translate(414.013 88.179) rotate(-16.289)" fill="#fff"/>
              <rect id="Rectángulo_404214" data-name="Rectángulo 404214" width="17.52" height="0.448" transform="matrix(0.96, -0.279, 0.279, 0.96, 414.513, 89.894)" fill="#fff"/>
              <path id="Trazado_913478" data-name="Trazado 913478" d="M431.895,87.013a2.645,2.645,0,0,1,.066.447l-16.654,4.849a2.658,2.658,0,0,1-.184-.413Z" fill="#fff"/>
              <g id="Grupo_1103390" data-name="Grupo 1103390" opacity="0.5">
                <g id="Grupo_1103389" data-name="Grupo 1103389">
                  <g id="Grupo_1103388" data-name="Grupo 1103388" clip-path="url(#clip-path-5)">
                    <path id="Trazado_913479" data-name="Trazado 913479" d="M423.834,33.467a6.4,6.4,0,0,0,1.588,2.566,5.279,5.279,0,0,0,2.508,1.687,2.356,2.356,0,0,0,2.645-1.022,2.947,2.947,0,0,0-.052-2.3,7.388,7.388,0,0,0-2.616-3.463c-2.261-1.623-4.9-.468-4.073,2.535" fill="#fff"/>
                    <path id="Trazado_913480" data-name="Trazado 913480" d="M431.02,41.723a17.637,17.637,0,0,0,2.6,6.337c.612.922,1.519,1.878,2.611,1.745a2.135,2.135,0,0,0,1.642-1.483A4.841,4.841,0,0,0,437.961,46a13.509,13.509,0,0,0-2.035-5.31c-.68-1.04-2.012-2.57-3.417-2.437-1.635.153-1.726,2.255-1.489,3.466" fill="#fff"/>
                  </g>
                </g>
              </g>
              <path id="Trazado_913481" data-name="Trazado 913481" d="M397.071,88.841a1.265,1.265,0,0,0-.89.39l-6.58,6.842a1.273,1.273,0,0,0,.034,1.8,1.274,1.274,0,0,0,1.238.3,1.253,1.253,0,0,0,.557-.339l6.58-6.842a1.27,1.27,0,0,0-.033-1.8,1.316,1.316,0,0,0-.906-.353" fill="#faf0e4"/>
              <path id="Trazado_913482" data-name="Trazado 913482" d="M450.7,24.536a1.269,1.269,0,1,0-1.829-1.76l-6.577,6.841a1.269,1.269,0,1,0,1.828,1.761Z" fill="#fff"/>
              <path id="Trazado_913483" data-name="Trazado 913483" d="M432.485,9.453a1.273,1.273,0,0,0-1.679.634l-3.922,8.665a1.269,1.269,0,0,0,1.158,1.791,1.244,1.244,0,0,0,.353-.05,1.266,1.266,0,0,0,.8-.7l3.923-8.664a1.271,1.271,0,0,0-.636-1.68" fill="#fff"/>
              <path id="Trazado_913484" data-name="Trazado 913484" d="M402.78,7.856a1.27,1.27,0,0,0-2.446.688l2.583,9.18a1.263,1.263,0,0,0,1.227.917,1.4,1.4,0,0,0,.348-.045h0a1.273,1.273,0,0,0,.868-1.562Z" fill="#fff"/>
              <path id="Trazado_913485" data-name="Trazado 913485" d="M377.827,22.377a1.27,1.27,0,0,0-1.972,1.273,1.255,1.255,0,0,0,.528.816l7.826,5.407a1.262,1.262,0,0,0,.72.225,1.3,1.3,0,0,0,.358-.051,1.269,1.269,0,0,0,.365-2.263Z" fill="#fff"/>
              <path id="Trazado_913486" data-name="Trazado 913486" d="M382.356,76.129l-8.941,3.145a1.27,1.27,0,0,0,.42,2.468,1.294,1.294,0,0,0,.357-.051l9.008-3.166a1.27,1.27,0,0,0-.844-2.4" fill="#faf0e4"/>
              <path id="Trazado_913487" data-name="Trazado 913487" d="M449.494,44.327a1.272,1.272,0,0,0,1.146,1.819,1.285,1.285,0,0,0,.355-.051L460,42.929a1.27,1.27,0,0,0,.776-1.618,1.247,1.247,0,0,0-1.621-.778l-8.94,3.145a1.258,1.258,0,0,0-.724.649" fill="#fff"/>
              <path id="Trazado_913488" data-name="Trazado 913488" d="M375.649,62.817a1.265,1.265,0,0,0,1.258-1.121,1.269,1.269,0,0,0-1.112-1.409l-9.424-1.108a1.275,1.275,0,0,0-1.407,1.112,1.268,1.268,0,0,0,1.112,1.41l9.423,1.107a1.258,1.258,0,0,0,.15.009" fill="#fff"/>
              <path id="Trazado_913489" data-name="Trazado 913489" d="M461.309,62.569a1.265,1.265,0,0,0-.849-.474l-9.423-1.107a1.27,1.27,0,1,0-.295,2.522l9.42,1.106a1.308,1.308,0,0,0,.153.009,1.264,1.264,0,0,0,.35-.049h0a1.27,1.27,0,0,0,.643-2.006" fill="#fff"/>
              <path id="Trazado_913490" data-name="Trazado 913490" d="M366.741,41.121l8.292,4.648a1.262,1.262,0,0,0,.619.163,1.289,1.289,0,0,0,.357-.051,1.269,1.269,0,0,0,.266-2.326l-8.293-4.649a1.269,1.269,0,1,0-1.241,2.215" fill="#fff"/>
              <path id="Trazado_913491" data-name="Trazado 913491" d="M453.893,77.823,445.6,73.176a1.248,1.248,0,0,0-.964-.116,1.269,1.269,0,0,0-.278,2.329l8.292,4.649a1.26,1.26,0,0,0,.619.164,1.308,1.308,0,0,0,.355-.051h0a1.269,1.269,0,0,0,.266-2.327" fill="#fff"/>
            </g>
          </g>
        </g>
      </g>
    </g>
  </g>
</svg>
