<svg xmlns="http://www.w3.org/2000/svg" width="105" height="104.983" viewBox="0 0 105 104.983">
  <g id="Grupo_1102970" data-name="Grupo 1102970" transform="translate(-2 -2)">
    <path id="Trazado_913050" data-name="Trazado 913050" d="M91.735,46.243h-5.3c-.368-1.033-.805-2.065-1.277-3.062L88.9,39.435a1.743,1.743,0,0,0,0-2.467L76.528,24.6a1.743,1.743,0,0,0-2.467,0L70.315,28.34a30.659,30.659,0,0,0-3.062-1.278v-5.3a1.755,1.755,0,0,0-1.75-1.75H48a1.755,1.755,0,0,0-1.75,1.75v5.3c-1.033.368-2.065.805-3.062,1.278L39.445,24.6a1.743,1.743,0,0,0-2.468,0L24.605,36.968a1.743,1.743,0,0,0,0,2.467L28.35,43.18a30.658,30.658,0,0,0-1.278,3.063h-5.3a1.755,1.755,0,0,0-1.75,1.75v17.5a1.755,1.755,0,0,0,1.75,1.75h5.3c.367,1.033.8,2.065,1.278,3.063L24.605,74.05a1.743,1.743,0,0,0,0,2.468L36.978,88.89a1.743,1.743,0,0,0,2.468,0l3.745-3.745a30.66,30.66,0,0,0,3.063,1.278v5.3A1.755,1.755,0,0,0,48,93.475H65.5a1.755,1.755,0,0,0,1.75-1.75v-5.3c1.033-.368,2.065-.805,3.063-1.278L74.06,88.89a1.743,1.743,0,0,0,2.467,0L88.9,76.518a1.743,1.743,0,0,0,0-2.468l-3.745-3.745a30.659,30.659,0,0,0,1.277-3.062h5.3a1.755,1.755,0,0,0,1.75-1.75v-17.5A1.755,1.755,0,0,0,91.735,46.243Z" transform="translate(13.515 13.507)" fill="#4045ab"/>
    <path id="Trazado_913057" data-name="Trazado 913057" d="M15.75,0A15.75,15.75,0,1,1,0,15.75,15.75,15.75,0,0,1,15.75,0Z" transform="translate(54.5 54.5)" fill="#fff"/>
    <circle id="Elipse_11539" data-name="Elipse 11539" cx="28" cy="28" r="28" transform="translate(16 2)" fill="#ffbd45"/>
    <g id="Grupo_1102969" data-name="Grupo 1102969" transform="translate(26.08 20.165)">
      <path id="Trazado_913051" data-name="Trazado 913051" d="M30.208,29.148a11.944,11.944,0,0,1-9.45-4.708,1.745,1.745,0,0,1,2.748-2.153,8.365,8.365,0,0,0,13.4,0,1.745,1.745,0,1,1,2.748,2.153A11.944,11.944,0,0,1,30.208,29.148Z" transform="translate(-12.288 -5.453)" fill="#fff"/>
      <path id="Trazado_913052" data-name="Trazado 913052" d="M25.595,19.923a1.755,1.755,0,0,1-1.75-1.75,2.292,2.292,0,1,0-4.585,0,1.75,1.75,0,0,1-3.5,0,5.792,5.792,0,1,1,11.585,0A1.755,1.755,0,0,1,25.595,19.923Z" transform="translate(-15.76 -12.38)" fill="#fff"/>
      <path id="Trazado_913053" data-name="Trazado 913053" d="M39.445,19.923a1.755,1.755,0,0,1-1.75-1.75,2.292,2.292,0,1,0-4.585,0,1.75,1.75,0,0,1-3.5,0,5.793,5.793,0,1,1,11.585,0A1.755,1.755,0,0,1,39.445,19.923Z" transform="translate(-5.373 -12.38)" fill="#fff"/>
    </g>
    <circle id="Elipse_11540" data-name="Elipse 11540" cx="21" cy="21" r="21" transform="translate(2 42.25)" fill="#ee4f47"/>
    <path id="Trazado_913054" data-name="Trazado 913054" d="M23.221,45.847a1.757,1.757,0,0,1-1.383-.665,5.662,5.662,0,0,0-9.1,0A1.745,1.745,0,1,1,9.991,43.03a9.135,9.135,0,0,1,14.6,0,1.74,1.74,0,0,1-1.365,2.817Z" transform="translate(5.712 28.043)" fill="#011530"/>
    <path id="Trazado_913055" data-name="Trazado 913055" d="M10.938,39.077A4.72,4.72,0,0,1,6.23,34.37a1.75,1.75,0,1,1,3.5,0,1.207,1.207,0,0,0,2.415,0,1.75,1.75,0,0,1,3.5,0,4.72,4.72,0,0,1-4.708,4.707Z" transform="translate(3.173 22.965)" fill="#011530"/>
    <path id="Trazado_913056" data-name="Trazado 913056" d="M21.1,39.077A4.72,4.72,0,0,1,16.39,34.37a1.75,1.75,0,0,1,3.5,0,1.208,1.208,0,0,0,2.415,0,1.75,1.75,0,0,1,3.5,0A4.72,4.72,0,0,1,21.1,39.077Z" transform="translate(10.792 22.965)" fill="#011530"/>
  </g>
</svg>
