<svg xmlns="http://www.w3.org/2000/svg" width="85" height="84.972" viewBox="0 0 85 84.972">
  <g id="Grupo_1103082" data-name="Grupo 1103082" transform="translate(0 -0.085)">
    <path id="Trazado_913281" data-name="Trazado 913281" d="M161.38.085l3.451,4.034-3.451,13.2L142.535.281a2.458,2.458,0,0,1,.963-.2Z" transform="translate(-118.88)" fill="#cfe6e6"/>
    <path id="Trazado_913282" data-name="Trazado 913282" d="M274.92.287,256.085,17.316V.085h17.856a2.451,2.451,0,0,1,.979.2Z" transform="translate(-213.585 0)" fill="#b9d9d9"/>
    <path id="Trazado_913283" data-name="Trazado 913283" d="M102.634,51.88l2,24.754,23.454,34.522,6.97-35.247-6.97-14.771Z" transform="translate(-85.601 -43.199)" fill="#cfe6e6"/>
    <path id="Trazado_913284" data-name="Trazado 913284" d="M281.453,51.88l-2,24.754L256,111.156V61.138Z" transform="translate(-213.514 -43.199)" fill="#b9d9d9"/>
    <path id="Trazado_913285" data-name="Trazado 913285" d="M202.548,150.425,206,176.189l-3.451,25.745-.015.018-10.638-13.776,5.195-33.922,2.513-3.829Z" transform="translate(-160.048 -125.389)" fill="#ff4d4d"/>
    <path id="Trazado_913286" data-name="Trazado 913286" d="M267.048,188.176l-10.963,13.758V150.425H259l2.539,3.81Z" transform="translate(-213.585 -125.389)" fill="#cc295f"/>
    <path id="Trazado_913287" data-name="Trazado 913287" d="M218.361,83.395l4.014,8.375L218.361,99.1h-2.946a4.526,4.526,0,0,1-2.513-.755v0a4.55,4.55,0,0,1-2.048-3.8V90.873l1.127-6Z" transform="translate(-175.861 -69.484)" fill="#ff8066"/>
    <path id="Trazado_913288" data-name="Trazado 913288" d="M263.563,90.873v3.669A4.561,4.561,0,0,1,259,99.1h-2.919V83.4l6.557,1.175Z" transform="translate(-213.585 -69.484)" fill="#ff4d4d"/>
    <path id="Trazado_913289" data-name="Trazado 913289" d="M42.486,111.156l4.028,7.328-4.028,9.772h-40A2.489,2.489,0,0,1,0,125.766V64.677a9.275,9.275,0,0,1,6.033-8.689l11-4.108,4.21,28.252Z" transform="translate(0 -43.199)" fill="#5c7099"/>
    <path id="Trazado_913290" data-name="Trazado 913290" d="M256.17,111.156v17.1h40a2.489,2.489,0,0,0,2.489-2.489V64.677a9.275,9.275,0,0,0-6.033-8.689l-11-4.108-4.21,28.252Z" transform="translate(-213.656 -43.199)" fill="#334973"/>
    <path id="Trazado_913291" data-name="Trazado 913291" d="M96.37,111.156C76.949,101.618,66.72,79.015,64.8,74.4a2.485,2.485,0,0,1-.087-1.666L70.917,51.88Z" transform="translate(-53.884 -43.199)" fill="#334973"/>
    <path id="Trazado_913292" data-name="Trazado 913292" d="M287.573,74.418c-1.923,4.614-12.151,27.218-31.573,36.756L281.453,51.9l6.207,20.851A2.484,2.484,0,0,1,287.573,74.418Z" transform="translate(-213.514 -43.217)" fill="#17294d"/>
    <g id="Grupo_1103079" data-name="Grupo 1103079" transform="translate(8.089 70.227)">
      <path id="Trazado_913293" data-name="Trazado 913293" d="M68.136,427.708H51.228a2.489,2.489,0,0,1,0-4.979H68.136a2.489,2.489,0,0,1,0,4.979Z" transform="translate(-48.739 -422.729)" fill="#334973"/>
    </g>
    <g id="Grupo_1103081" data-name="Grupo 1103081" transform="translate(54.998 70.227)">
      <g id="Grupo_1103080" data-name="Grupo 1103080">
        <path id="Trazado_913294" data-name="Trazado 913294" d="M350.79,427.708H333.882a2.489,2.489,0,0,1,0-4.979H350.79a2.489,2.489,0,1,1,0,4.979Z" transform="translate(-331.393 -422.729)" fill="#17294d"/>
      </g>
    </g>
    <path id="Trazado_913295" data-name="Trazado 913295" d="M281.525,9.7l0,0-17.96,12.706-7.478-7.478L274.92,1.305a2.484,2.484,0,0,1,1.027.812l5.571,7.573h0Z" transform="translate(-213.585 -1.018)" fill="#cfe6e6"/>
    <path id="Trazado_913296" data-name="Trazado 913296" d="M128.1,14.9,120.6,22.374,102.635,9.664l5.578-7.581a2.474,2.474,0,0,1,1.044-.818Z" transform="translate(-85.602 -0.984)" fill="#e6f2f2"/>
  </g>
</svg>
