<svg xmlns="http://www.w3.org/2000/svg" width="68.657" height="68.656" viewBox="0 0 68.657 68.656">
  <g id="Grupo_1101175" data-name="Grupo 1101175" transform="translate(-1118.394 -3322.022)">
    <circle id="Elipse_11528" data-name="Elipse 11528" cx="34.328" cy="34.328" r="34.328" transform="translate(1118.394 3322.022)" fill="#4045ab"/>
    <g id="rechazo" transform="translate(1126.779 3294.034)">
      <path id="Trazado_913937" data-name="Trazado 913937" d="M32.471,129.691V126.43a.8.8,0,1,0-1.6,0v3.261a.8.8,0,0,0,1.6,0Z" transform="translate(-27.539 -82.202)" fill="#ee4f47"/>
      <path id="Trazado_913938" data-name="Trazado 913938" d="M347.286,89.376l-5.177-1.387a.8.8,0,0,0-.982.567l-.2.739a4.021,4.021,0,0,1-1.409-3.073l.016-5.665a5.662,5.662,0,0,0-.232-1.614l-1.346-4.564a.8.8,0,0,0-1.537.454l1.346,4.563a4.062,4.062,0,0,1,.166,1.157l-.016,5.655a5.669,5.669,0,0,0,2.564,4.749l-2.145,8.011A19.352,19.352,0,0,1,332.3,95.8a7.5,7.5,0,0,1-2.361-7.87,9.068,9.068,0,0,0,.378-2.592V79.553a1.519,1.519,0,1,1,3.023.234l.047,5.429a.8.8,0,0,0,.8.794h.007a.8.8,0,0,0,.794-.808l-.047-5.422a3.86,3.86,0,0,0-.927-2.555l-2.849-9.359A1.632,1.632,0,0,1,332.256,66a1.537,1.537,0,0,1,1.881,1.085l.005.019,1.292,4.381a.8.8,0,1,0,1.537-.453l-1.289-4.372a3.139,3.139,0,1,0-6.054,1.661l2.453,8.057a3.249,3.249,0,0,0-3.368,3.177v5.789a7.467,7.467,0,0,1-.311,2.135,9.206,9.206,0,0,0,2.877,9.563,21.039,21.039,0,0,0,6.642,3.48l-.262.978a.8.8,0,0,0,.567.982l5.177,1.387q.608.155.982-.567l3.468-12.943a.8.8,0,0,0-.566-.982Zm-4.242,12.736-3.629-.972,3.053-11.395,3.629.972Z" transform="translate(-292.657 -27.526)" fill="#ee4f47"/>
      <path id="Trazado_913939" data-name="Trazado 913939" d="M449.4,368.348l-.347,1.294a.8.8,0,0,0,.567.982q.608.155.981-.567l.347-1.294a.8.8,0,1,0-1.548-.415Z" transform="translate(-400.591 -298.212)" fill="#ee4f47"/>
      <path id="Trazado_913940" data-name="Trazado 913940" d="M33.835,64.787c-.016-.02-.033-.04-.051-.059l-6.349-6.59a2.68,2.68,0,0,0,1.316-4.012,2.666,2.666,0,0,0,.714-3.8,2.664,2.664,0,0,0,.625-3.728,2.681,2.681,0,0,0-1.528-4.838H25.023l1.468-7.34q.009-1.057-1.039-.917L20.726,35.08,16,33.505q-1.048-.14-1.039.917l.8,3.976a10.269,10.269,0,0,0-.884,1.291c-.614,1.136-1.666,1.348-3.333,1.6a8.731,8.731,0,0,0-3.28.959V40.9a.8.8,0,0,0-.8-.8H.8a.8.8,0,0,0-.8.8v7.483a.8.8,0,1,0,1.6,0V41.705H6.658V56.7H1.6V51.878a.8.8,0,0,0-1.6,0V57.5a.8.8,0,0,0,.8.8H7.459a.8.8,0,0,0,.8-.8V56.64H9.584a2.036,2.036,0,0,1,1.445.6,4.809,4.809,0,0,0,2.842,1.056l-6.2,6.439c-4.608,4.81-2.257,16.756,6.77,16.756h4.834a.8.8,0,0,0,0-1.6H14.441c-6.9,0-9.385-9.216-5.588-14.07L16.089,58.3h9.276L32.6,65.811c3.786,4.837,1.283,14.074-5.587,14.074H22.767a.8.8,0,0,0,0,1.6h4.247C35.245,81.488,38.482,70.662,33.835,64.787Zm-13.362-28.1a.8.8,0,0,0,.507,0l3.668-1.223-1.26,6.3H21.528V39.244a.8.8,0,1,0-1.6,0v2.518H18.064l-1.26-6.3ZM9.584,55.038H8.261V44.351c.852-1.072,2.094-1.26,3.52-1.476,1.576-.239,3.355-.508,4.4-2.239l.445,2.095a.8.8,0,0,0,.784.635H28.521a1.07,1.07,0,0,1,1.105,1.111A1.1,1.1,0,0,1,28.513,45.5h-.584a.8.8,0,0,0-.076,1.6c.74.1,1.066.384,1.14,1.115A1.1,1.1,0,0,1,27.88,49.23h-.572a.8.8,0,0,0-.076,1.6c.737.117,1.066.384,1.14,1.115a1.1,1.1,0,0,1-1.112,1.019h-.709a.8.8,0,0,0-.076,1.6c.735.13,1.066.385,1.14,1.116A1.1,1.1,0,0,1,26.5,56.7H14.088a3.408,3.408,0,0,1-1.928-.6,3.628,3.628,0,0,0-2.576-1.063Z" transform="translate(0)" fill="#ee4f47"/>
      <path id="Trazado_913941" data-name="Trazado 913941" d="M168.507,314.082H167.6a.858.858,0,1,1,0-1.716h1.028a.694.694,0,0,1,.669.5.8.8,0,1,0,1.535-.461,2.285,2.285,0,0,0-1.975-1.628v-.96a.8.8,0,1,0-1.6,0v.973a2.461,2.461,0,0,0,.346,4.9h.912a.858.858,0,0,1,0,1.716h-.814a.694.694,0,0,1-.669-.5.8.8,0,1,0-1.535.46,2.284,2.284,0,0,0,1.761,1.6v.991a.8.8,0,1,0,1.6,0v-.973a2.461,2.461,0,0,0-.345-4.9Z" transform="translate(-147.323 -245.807)" fill="#ee4f47"/>
      <path id="Trazado_913942" data-name="Trazado 913942" d="M132.047,295.041a8.269,8.269,0,1,0-8.269,8.269A8.279,8.279,0,0,0,132.047,295.041Zm-8.269,6.667a6.666,6.666,0,1,1,6.667-6.666A6.674,6.674,0,0,1,123.777,301.708Z" transform="translate(-103.05 -225.965)" fill="#ee4f47"/>
    </g>
  </g>
</svg>
