<svg xmlns="http://www.w3.org/2000/svg" width="68.657" height="69.905" viewBox="0 0 68.657 69.905">
  <g id="Grupo_1101171" data-name="Grupo 1101171" transform="translate(-1118.394 -3320.774)">
    <circle id="Elipse_11528" data-name="Elipse 11528" cx="34.328" cy="34.328" r="34.328" transform="translate(1118.394 3322.022)" fill="#4045ab"/>
    <g id="_059---Financial-Gain" data-name="059---Financial-Gain" transform="translate(1120.459 3320.771)">
      <path id="Shape" d="M55.431,21.009H38.242V14.324h2.34a1.91,1.91,0,0,0,1.307-3.308c-1.658-1.537-4.233-4.035-6.506-6.242-1.9-1.844-3.549-3.438-4.44-4.265a1.91,1.91,0,0,0-2.606.014L17.415,11.016a1.91,1.91,0,0,0,1.3,3.308h2.34v8.853a17.181,17.181,0,1,0,10.534,27.67,2.844,2.844,0,0,0,1.88.72h.176a2.832,2.832,0,0,0-.176.955v1.91A2.865,2.865,0,0,0,36.332,57.3h19.1A2.865,2.865,0,0,0,58.3,54.432v-1.91a2.865,2.865,0,0,0-2.865-2.865h-.176a2.832,2.832,0,0,0,.176-.955v-1.91a2.849,2.849,0,0,0-.21-1.066,2.865,2.865,0,0,0,2.12-2.754v-1.91A2.859,2.859,0,0,0,56,38.648a2.833,2.833,0,0,0,.382-1.4v-1.91a2.859,2.859,0,0,0-1.337-2.415,2.833,2.833,0,0,0,.382-1.4V29.6a2.832,2.832,0,0,0-.176-.955h.176A2.865,2.865,0,0,0,58.3,25.784v-1.91a2.865,2.865,0,0,0-2.865-2.865ZM21.053,12.414l-2.328-.01L29.648,1.91c.873.81,2.589,2.473,4.406,4.235,2.279,2.214,4.864,4.719,6.528,6.269h-2.34a1.91,1.91,0,0,0-1.91,1.91v6.685a2.865,2.865,0,0,0-2.865,2.865v1.91a2.832,2.832,0,0,0,.176.955h-.176A2.865,2.865,0,0,0,30.826,28.5a17.2,17.2,0,0,0-7.863-4.889V14.324a1.91,1.91,0,0,0-1.91-1.91ZM53.521,34.378a.955.955,0,0,1,.955.955v1.91a.955.955,0,0,1-.955.955H35.265a17,17,0,0,0-.89-3.82ZM18.188,51.567A11.459,11.459,0,1,1,29.648,40.108,11.459,11.459,0,0,1,18.188,51.567ZM26.93,30.016a13.292,13.292,0,0,0-7.787-3.229v-1.91a15.2,15.2,0,0,1,9.137,3.788Zm-9.7-3.229a13.292,13.292,0,0,0-7.787,3.229L8.1,28.666a15.2,15.2,0,0,1,9.137-3.788ZM8.1,31.366a13.292,13.292,0,0,0-3.229,7.787H2.958a15.2,15.2,0,0,1,3.788-9.137Zm-3.229,9.7A13.292,13.292,0,0,0,8.1,48.849L6.746,50.2a15.2,15.2,0,0,1-3.788-9.137ZM9.452,50.2a13.292,13.292,0,0,0,7.782,3.229v1.91A15.2,15.2,0,0,1,8.1,51.55Zm9.692,3.229A13.292,13.292,0,0,0,26.93,50.2l1.35,1.35a15.2,15.2,0,0,1-9.137,3.788Zm9.137-4.579a13.292,13.292,0,0,0,3.229-7.787h1.91A15.2,15.2,0,0,1,29.631,50.2Zm5.139-9.7h-1.91a13.292,13.292,0,0,0-3.229-7.787l1.35-1.35A15.2,15.2,0,0,1,33.419,39.153ZM56.386,52.522v1.91a.955.955,0,0,1-.955.955h-19.1a.955.955,0,0,1-.955-.955v-1.91a.955.955,0,0,1,.955-.955h19.1A.955.955,0,0,1,56.386,52.522ZM36.332,49.657H33.468a.941.941,0,0,1-.764-.392,17.144,17.144,0,0,0,1.671-3.428H52.566a.955.955,0,0,1,.955.955V48.7a.955.955,0,0,1-.955.955Zm19.1-6.685a.955.955,0,0,1-.955.955H34.934a17.14,17.14,0,0,0,.443-3.82h19.1a.955.955,0,0,1,.955.955ZM53.521,29.6v1.91a.955.955,0,0,1-.955.955h-19a16.968,16.968,0,0,0-1.05-1.841V29.6a.955.955,0,0,1,.955-.955h19.1a.955.955,0,0,1,.955.955Zm2.865-3.82a.955.955,0,0,1-.955.955h-19.1a.955.955,0,0,1-.955-.955v-1.91a.955.955,0,0,1,.955-.955h19.1a.955.955,0,0,1,.955.955Z" transform="translate(0)" fill="#ee4f47"/>
      <path id="Shape-2" data-name="Shape" d="M21.639,37.73a.955.955,0,0,0,1.91,0,4.783,4.783,0,0,0-3.82-4.679v-.1a.955.955,0,1,0-1.91,0v.1a4.775,4.775,0,0,0,0,9.358v5.65a2.865,2.865,0,0,1-1.91-2.69.955.955,0,0,0-1.91,0,4.783,4.783,0,0,0,3.82,4.679v.1a.955.955,0,1,0,1.91,0v-.1a4.775,4.775,0,0,0,0-9.358V35.041A2.865,2.865,0,0,1,21.639,37.73Zm-5.73,0a2.865,2.865,0,0,1,1.91-2.689v5.378A2.865,2.865,0,0,1,15.91,37.73Zm5.73,7.64a2.865,2.865,0,0,1-1.91,2.689V42.68A2.865,2.865,0,0,1,21.639,45.369Z" transform="translate(-0.586 -1.442)" fill="#ee4f47"/>
    </g>
  </g>
</svg>
