<svg xmlns="http://www.w3.org/2000/svg" xmlns:xlink="http://www.w3.org/1999/xlink" width="228" height="415" viewBox="0 0 228 415">
  <defs>
    <clipPath id="clip-path">
      <rect id="Rect치ngulo_403013" data-name="Rect치ngulo 403013" width="228" height="415" rx="30" transform="translate(600.051 2860)" fill="#ee4f47" opacity="0.3"/>
    </clipPath>
  </defs>
  <g id="Grupo_1101008" data-name="Grupo 1101008" transform="translate(-600.051 -2860)">
    <rect id="Rect치ngulo_403010" data-name="Rect치ngulo 403010" width="228" height="415" rx="30" transform="translate(600.051 2860)" fill="#ee4f47" opacity="0.3"/>
    <g id="Enmascarar_grupo_1098704" data-name="Enmascarar grupo 1098704" clip-path="url(#clip-path)">
      <g id="Grupo_1101007" data-name="Grupo 1101007" transform="translate(92.651 2815.627)" opacity="0.3">
        <path id="Trazado_911728" data-name="Trazado 911728" d="M6.012,505.871c41.061,12.6,86.033,7.089,124.221-11.965s70.41-52.349,83.333-93.541c12.655-40.332,6.884-95.563-34.854-117.065-19.574-10.082-41.329-5.35-56.322,10.354a60.324,60.324,0,0,0-15.074,56.862c11.5,43.9,65.751,74.554,109.454,64.772,24.037-5.379,39.518-24.561,48.519-46.445,10.821-26.312,14.23-55.145,17.62-83.169,6.417-53.055,14.435-112.993,61.663-146.238,11.456-8.065,24.143-14.246,37.142-19.4,14.169-5.613,29.216-10.723,44.643-10.5,25.141.364,48.144,17.931,55.593,41.927,7.294,23.493-2.882,50.153-22.611,64.379-10.77,7.764-24.834,11.976-38.031,9.127-12.4-2.677-21.47-11.854-25.029-23.853-6.574-22.174,2.227-46.364,11.667-66.307a211.231,211.231,0,0,1,42.605-60.554c37.055-36.326,89.842-55.4,141.381-44.33,24.834,5.332,50.443,18.037,65.71,38.967a57.281,57.281,0,0,1,10.948,39.981c-1.517,15.557-7.669,30.485-13.935,44.648-11.65,26.332-26.743,50.657-44.08,73.6-16.52,21.859-34.317,43.075-47.057,67.479-23.344,44.722-25.727,102.312,8.893,142.065a93.372,93.372,0,0,0,60.646,32.048c14.928,1.6,29.983.142,44.8-1.818a309.589,309.589,0,0,0,37.23-6.815c23.839-6.187,46.044-17.431,61.382-37.2,15.285-19.7,23.594-45.037,25.8-69.7s-3.224-50.87-21.947-68.286c-7.868-7.319-17.69-12.772-28.357-14.55-11.974-1.995-24.019.981-34.686,6.468-36.706,18.881-53.2,63.085-47.732,102.537,6.119,44.18,40.537,77.549,81.621,91.588,45.8,15.652,95.136,6.088,135.749-18.863a227.789,227.789,0,0,0,54.265-47.122c.745-.878-.522-2.158-1.273-1.273-32.37,38.226-77.753,67.974-128.516,72.71-45.633,4.259-95.063-14.225-122.145-52.2-24.537-34.411-25.412-83.54-1.518-118.606,13.107-19.234,36.35-36.157,60.65-33.905,26.451,2.452,45.3,26.177,50.562,50.731,5.7,26.577-.394,56.486-12.275,80.617-11.913,24.194-31.6,41.377-56.859,50.627a202.11,202.11,0,0,1-35.39,8.963c-14.169,2.434-28.577,4.444-42.958,4.9-27.2.864-52.439-6.9-72.122-26.125-40.449-39.507-38.3-101.712-12.775-148.683,12.763-23.484,30.019-44.06,46.047-65.314,16.626-22.05,31.167-45.4,42.546-70.608,10.536-23.342,21.909-50.963,11.2-76.255-8.972-21.186-29.473-36.017-50.05-44.782C572.34,17.012,520.291,23.7,480.172,48.608c-38.5,23.906-68.349,63.764-82.562,106.661-5.793,17.485-9.046,39.972,1.444,56.407,12.075,18.926,37.579,19.31,55.642,9.254,17.974-10.005,30.1-29.684,31.365-50.166,1.258-20.421-9.334-39.948-25.725-51.764-21.132-15.231-46.38-12.444-69.746-4.21-23.981,8.452-47.84,20.131-65.312,39.063-35.295,38.245-39.239,93.208-45.451,142.242-3.487,27.508-7.62,56.517-20.516,81.448-5.926,11.454-14.075,22.035-25.182,28.867-11.548,7.1-25.283,9.467-38.681,8.623-24.941-1.575-49.626-13.413-66.9-31.4-16.3-16.97-26.194-41.171-19.051-64.5,6.459-21.1,25.779-40.555,49.069-39.622,25.3,1.013,45.161,23.614,53.348,45.914,15.927,43.387-.472,92.992-29.848,126.543-28.753,32.838-70.633,53.919-114.016,58.165a157.542,157.542,0,0,1-61.562-6c-1.111-.34-1.584,1.4-.479,1.735" transform="translate(4.307 20.001)" fill="#ee4f47"/>
        <path id="Trazado_911729" data-name="Trazado 911729" d="M390.172,38.824a100.134,100.134,0,0,1,22.111,44.17,97.683,97.683,0,0,1,2.009,14.023c.081,1.148,1.883,1.157,1.8,0a101.3,101.3,0,0,0-24.647-59.465c-.761-.877-2.031.4-1.273,1.273" transform="translate(311.998 29.809)" fill="#ee4f47"/>
        <path id="Trazado_911730" data-name="Trazado 911730" d="M315.591,69.819c1.482,14.07,3.715,29.146,13.841,39.864a31.391,31.391,0,0,0,8.554,6.45c1.03.524,1.942-1.03.909-1.555-12.075-6.133-17.51-19.461-19.807-32.087-.763-4.194-1.251-8.432-1.7-12.671-.121-1.139-1.921-1.152-1.8,0" transform="translate(252.505 55.175)" fill="#ee4f47"/>
        <path id="Trazado_911731" data-name="Trazado 911731" d="M125.422,27.963H292.938a.9.9,0,0,0,0-1.8H125.422a.9.9,0,0,0,0,1.8" transform="translate(-77.343 -14.067)" fill="#ee4f47"/>
        <path id="Trazado_911732" data-name="Trazado 911732" d="M.869,251.852H156.024a.9.9,0,0,0,0-1.8H.869a.9.9,0,0,0,0,1.8" transform="translate(-432 200.07)" fill="#ee4f47"/>
      </g>
    </g>
  </g>
</svg>
