<svg xmlns="http://www.w3.org/2000/svg" xmlns:xlink="http://www.w3.org/1999/xlink" width="369" height="488.197" viewBox="0 0 369 488.197">
  <defs>
    <clipPath id="clip-path">
      <rect id="Rectángulo_404350" data-name="Rectángulo 404350" width="368.949" height="488.197" fill="none"/>
    </clipPath>
    <clipPath id="clip-path-4">
      <rect id="Rectángulo_404333" data-name="Rectángulo 404333" width="3.717" height="3.702" fill="none"/>
    </clipPath>
    <clipPath id="clip-path-5">
      <rect id="Rectángulo_404334" data-name="Rectángulo 404334" width="47.647" height="4.86" fill="none"/>
    </clipPath>
    <clipPath id="clip-path-6">
      <rect id="Rectángulo_404335" data-name="Rectángulo 404335" width="27.626" height="28.989" fill="none"/>
    </clipPath>
    <clipPath id="clip-path-7">
      <rect id="Rectángulo_404336" data-name="Rectángulo 404336" width="4.181" height="3.817" fill="none"/>
    </clipPath>
    <clipPath id="clip-path-8">
      <rect id="Rectángulo_404337" data-name="Rectángulo 404337" width="30.24" height="40.314" fill="none"/>
    </clipPath>
    <clipPath id="clip-path-9">
      <rect id="Rectángulo_404338" data-name="Rectángulo 404338" width="61.656" height="29.992" fill="none"/>
    </clipPath>
    <clipPath id="clip-path-10">
      <rect id="Rectángulo_404339" data-name="Rectángulo 404339" width="17.927" height="38.556" fill="none"/>
    </clipPath>
    <clipPath id="clip-path-11">
      <rect id="Rectángulo_404340" data-name="Rectángulo 404340" width="13.095" height="22.074" fill="none"/>
    </clipPath>
    <clipPath id="clip-path-12">
      <rect id="Rectángulo_404341" data-name="Rectángulo 404341" width="11.196" height="30.853" fill="none"/>
    </clipPath>
    <clipPath id="clip-path-13">
      <rect id="Rectángulo_404342" data-name="Rectángulo 404342" width="16.364" height="8.931" fill="none"/>
    </clipPath>
    <clipPath id="clip-path-15">
      <rect id="Rectángulo_404344" data-name="Rectángulo 404344" width="3.448" height="3.432" fill="none"/>
    </clipPath>
    <clipPath id="clip-path-16">
      <rect id="Rectángulo_404345" data-name="Rectángulo 404345" width="44.167" height="4.848" fill="none"/>
    </clipPath>
    <clipPath id="clip-path-17">
      <rect id="Rectángulo_404346" data-name="Rectángulo 404346" width="8.327" height="16.859" fill="none"/>
    </clipPath>
    <clipPath id="clip-path-18">
      <rect id="Rectángulo_404347" data-name="Rectángulo 404347" width="42.121" height="14.613" fill="none"/>
    </clipPath>
    <clipPath id="clip-path-19">
      <rect id="Rectángulo_404348" data-name="Rectángulo 404348" width="24.865" height="44.371" fill="none"/>
    </clipPath>
  </defs>
  <g id="Grupo_1103345" data-name="Grupo 1103345" transform="translate(-1051.051 -2697.999)">
    <rect id="Rectángulo_404351" data-name="Rectángulo 404351" width="295" height="10" transform="translate(1125.051 3151)" fill="#12263f"/>
    <g id="Grupo_1103344" data-name="Grupo 1103344" transform="translate(1051.051 2697.999)">
      <g id="Grupo_1103343" data-name="Grupo 1103343" clip-path="url(#clip-path)">
        <g id="Grupo_1103293" data-name="Grupo 1103293">
          <g id="Grupo_1103292" data-name="Grupo 1103292" clip-path="url(#clip-path)">
            <path id="Trazado_913943" data-name="Trazado 913943" d="M70.806,65.1,63.544,52.3a34.3,34.3,0,1,0-8.214,9.136l-.011.015Z" transform="translate(0.037 0.034)" fill="#fafafa"/>
            <path id="Trazado_913944" data-name="Trazado 913944" d="M70.842,65.13,55.33,61.586l-.159-.037.1-.131.011-.015.148.148A35.017,35.017,0,0,1,48.387,65.8,34.34,34.34,0,0,1,39,68.478a30.755,30.755,0,0,1-5.423.274c-.932-.052-1.882-.074-2.84-.155l-2.893-.438a34.55,34.55,0,0,1-21.4-13.739A34.155,34.155,0,0,1,.651,41.191a34.914,34.914,0,0,1,.4-15.236A33.82,33.82,0,0,1,8.4,11.87l1.4-1.539c.459-.517,1.008-.943,1.506-1.419.523-.449.993-.957,1.553-1.355L14.5,6.329A14.552,14.552,0,0,1,16.2,5.2l1.737-1.056,1.819-.883a16.114,16.114,0,0,1,1.838-.817A34.948,34.948,0,0,1,36.944.09a33.806,33.806,0,0,1,14.09,4.165,34.751,34.751,0,0,1,16.256,20A36.985,36.985,0,0,1,68.777,35.4,34.069,34.069,0,0,1,67.1,45.015a34.764,34.764,0,0,1-3.436,7.369v-.1L70.842,65.13c-.361-.624-2.655-4.606-7.35-12.75l-.03-.05.032-.053a34.655,34.655,0,0,0,3.37-7.34,33.949,33.949,0,0,0,1.623-9.547,36.842,36.842,0,0,0-1.511-11.033A34.451,34.451,0,0,0,50.847,4.594,33.438,33.438,0,0,0,36.914.5,34.56,34.56,0,0,0,21.748,2.838a15.564,15.564,0,0,0-1.812.807q-.9.435-1.8.873-.857.52-1.717,1.043a14.1,14.1,0,0,0-1.681,1.112L13.118,7.887c-.554.392-1.018.9-1.534,1.338-.492.469-1.034.89-1.486,1.4l-1.384,1.52a33.376,33.376,0,0,0-7.252,13.91,34.516,34.516,0,0,0-.412,15.054,33.8,33.8,0,0,0,5.7,13.083A34.26,34.26,0,0,0,27.9,67.833l2.864.441c.948.082,1.889.107,2.813.163a30.614,30.614,0,0,0,5.375-.254,34.216,34.216,0,0,0,9.326-2.621A35.039,35.039,0,0,0,55.3,61.384l.638-.487-.491.634-.011.015-.059-.166,15.464,3.75" transform="translate(0 0)" fill="#263238"/>
            <path id="Trazado_913945" data-name="Trazado 913945" d="M21.077,27.987A3.478,3.478,0,1,1,17.6,24.51a3.478,3.478,0,0,1,3.478,3.477" transform="translate(3.689 6.403)" fill="#263238"/>
            <path id="Trazado_913946" data-name="Trazado 913946" d="M32.112,27.987a3.478,3.478,0,1,1-3.477-3.477,3.479,3.479,0,0,1,3.477,3.477" transform="translate(6.571 6.403)" fill="#263238"/>
            <path id="Trazado_913947" data-name="Trazado 913947" d="M43.023,26.248a3.478,3.478,0,1,1-4.751-1.271,3.479,3.479,0,0,1,4.751,1.271" transform="translate(9.543 6.402)" fill="#263238"/>
          </g>
        </g>
        <path id="Trazado_913948" data-name="Trazado 913948" d="M87.973,376.37l8.449-95.4-29.195.846-.921,96.671,7.86,4.663Z" transform="translate(17.321 73.396)" fill="#ffbe9d"/>
        <g id="Grupo_1103325" data-name="Grupo 1103325">
          <g id="Grupo_1103324" data-name="Grupo 1103324" clip-path="url(#clip-path)">
            <path id="Trazado_913949" data-name="Trazado 913949" d="M70.885,356.24l.019,1.415s-23.822,10.039-24,14.595L94.525,371.2l-1-15.832c-7.007,3.434-14.41,3.968-22.643.874" transform="translate(12.253 92.831)" fill="#ee4f47"/>
            <g id="Grupo_1103296" data-name="Grupo 1103296" transform="translate(98.781 453.298)" opacity="0.6">
              <g id="Grupo_1103295" data-name="Grupo 1103295">
                <g id="Grupo_1103294" data-name="Grupo 1103294" clip-path="url(#clip-path-4)">
                  <path id="Trazado_913950" data-name="Trazado 913950" d="M80.611,359.483A1.946,1.946,0,0,1,82,361.672a1.871,1.871,0,0,1-2.158,1.4,2.054,2.054,0,0,1-1.464-2.327,1.94,1.94,0,0,1,2.406-1.208" transform="translate(-78.321 -359.411)" fill="#fff"/>
                </g>
              </g>
            </g>
            <g id="Grupo_1103299" data-name="Grupo 1103299" transform="translate(59.132 460.222)" opacity="0.6">
              <g id="Grupo_1103298" data-name="Grupo 1103298">
                <g id="Grupo_1103297" data-name="Grupo 1103297" clip-path="url(#clip-path-5)">
                  <path id="Trazado_913951" data-name="Trazado 913951" d="M94.531,368.708l-.24-3.808-45.556,2.4s-2.1.969-1.828,2.457Z" transform="translate(-46.884 -364.9)" fill="#fff"/>
                </g>
              </g>
            </g>
            <path id="Trazado_913952" data-name="Trazado 913952" d="M65.8,357.338c.013.232,1.178.312,2.338,1.034,1.179.692,1.792,1.686,2,1.589.213-.049-.164-1.432-1.585-2.282s-2.813-.554-2.757-.342" transform="translate(17.189 93.286)" fill="#263238"/>
            <path id="Trazado_913953" data-name="Trazado 913953" d="M61.879,359.036c-.049.227.967.6,1.78,1.566.84.942,1.062,2,1.293,1.985.221.032.349-1.333-.681-2.515s-2.391-1.259-2.391-1.037" transform="translate(16.164 93.764)" fill="#263238"/>
            <path id="Trazado_913954" data-name="Trazado 913954" d="M60.138,364.628c.212.045.511-1.124-.115-2.384S58.3,360.5,58.2,360.7c-.127.194.594.861,1.092,1.9.521,1.03.609,2.009.841,2.027" transform="translate(15.201 94.213)" fill="#263238"/>
            <path id="Trazado_913955" data-name="Trazado 913955" d="M143.693,270.345,128.828,391.16l-19.1-2-1.049-117.8Z" transform="translate(28.389 70.621)" fill="#ffbe9d"/>
            <path id="Trazado_913956" data-name="Trazado 913956" d="M109.866,358.546s13.05,9.164,19.961,1.952l1.522,3.688,6.353,26.095a3.413,3.413,0,0,1-2.37,4.054,3.989,3.989,0,0,1-3.891-.831c-5.306-4.978-24.724-23.376-24.4-25.754l.4-6.33a3.3,3.3,0,0,1,2.425-2.873" transform="translate(27.96 93.662)" fill="#ee4f47"/>
            <g id="Grupo_1103302" data-name="Grupo 1103302" transform="translate(134.995 459.208)" opacity="0.6">
              <g id="Grupo_1103301" data-name="Grupo 1103301">
                <g id="Grupo_1103300" data-name="Grupo 1103300" clip-path="url(#clip-path-6)">
                  <path id="Trazado_913957" data-name="Trazado 913957" d="M134.661,393.034,107.141,364.1l-.066,1.384c-.221,1.493.475,2.115,1.216,3.106,2.2,2.939,8.352,9.563,23.04,23.465a3.961,3.961,0,0,0,3.33.983" transform="translate(-107.035 -364.096)" fill="#fff"/>
                </g>
              </g>
            </g>
            <g id="Grupo_1103305" data-name="Grupo 1103305" transform="translate(136.215 454.897)" opacity="0.6">
              <g id="Grupo_1103304" data-name="Grupo 1103304">
                <g id="Grupo_1103303" data-name="Grupo 1103303" clip-path="url(#clip-path-7)">
                  <path id="Trazado_913958" data-name="Trazado 913958" d="M111.338,361.036a1.89,1.89,0,0,1,.491,2.665,2.318,2.318,0,0,1-2.927.468,1.993,1.993,0,0,1-.5-2.824,2.42,2.42,0,0,1,3.105-.183" transform="translate(-108.002 -360.678)" fill="#fff"/>
                </g>
              </g>
            </g>
            <path id="Trazado_913959" data-name="Trazado 913959" d="M122.908,376.227c.2.1,1.1-1.583,3.3-2.425,2.169-.9,4.148-.37,4.2-.57.035-.078-.411-.349-1.254-.487a6.363,6.363,0,0,0-3.272.4,5.692,5.692,0,0,0-2.53,1.915c-.454.656-.532,1.136-.444,1.167" transform="translate(32.098 97.354)" fill="#263238"/>
            <path id="Trazado_913960" data-name="Trazado 913960" d="M124.789,379.48c.166.148,1.379-.873,3.274-1.289,1.887-.454,3.49-.082,3.557-.284.112-.163-1.6-.918-3.752-.411-2.159.486-3.263,1.889-3.079,1.984" transform="translate(32.593 98.567)" fill="#263238"/>
            <path id="Trazado_913961" data-name="Trazado 913961" d="M119.3,371.646c.163.161,2.018-1.415,4.9-2.3,2.872-.921,5.409-.718,5.426-.936.068-.172-2.6-.723-5.686.259-3.093.951-4.815,2.876-4.645,2.974" transform="translate(31.162 96.159)" fill="#263238"/>
            <path id="Trazado_913962" data-name="Trazado 913962" d="M119.109,364.914c.088.2,2.124-.483,4.732-.474,2.609-.023,4.646.647,4.733.448.107-.156-1.93-1.184-4.733-1.165-2.8,0-4.839,1.037-4.732,1.192" transform="translate(31.113 95.014)" fill="#263238"/>
            <path id="Trazado_913963" data-name="Trazado 913963" d="M125.236,365.508a2.557,2.557,0,0,0-.141-1.23,8.186,8.186,0,0,0-1.578-3.067,4.122,4.122,0,0,0-2.073-1.57,1.588,1.588,0,0,0-1.621.511,2.009,2.009,0,0,0-.341,1.532c.356,2.05,2.621,3.785,5.23,3.752a6.077,6.077,0,0,0,5.484-3.6,1.734,1.734,0,0,0-.145-1.582,1.555,1.555,0,0,0-1.626-.5,5.221,5.221,0,0,0-2.193,1.411,9.581,9.581,0,0,0-2.06,2.826,2.705,2.705,0,0,0-.378,1.189,15.261,15.261,0,0,1,2.839-3.66,4.93,4.93,0,0,1,1.945-1.188.825.825,0,0,1,.888.266,1.187,1.187,0,0,1,.028,1.044,5.44,5.44,0,0,1-4.794,3.074c-2.2.048-4.187-1.481-4.491-3.127a1.455,1.455,0,0,1,.187-1.08.856.856,0,0,1,.89-.293,3.761,3.761,0,0,1,1.783,1.3,12.112,12.112,0,0,1,2.167,3.989" transform="translate(31.205 93.934)" fill="#263238"/>
            <path id="Trazado_913964" data-name="Trazado 913964" d="M137.289,151.457s7.183,7.8,10.685,15.256,5.649,25.193,5.649,25.193,6.952,21.7,5.351,33.081-9.449,89.854-9.449,89.854-5.151,80.378-12.458,93.83l-25.628-2.736-4.982-152.926L89.028,151.786Z" transform="translate(23.257 39.565)" fill="#263238"/>
            <path id="Trazado_913965" data-name="Trazado 913965" d="M117.141,181.762a3.934,3.934,0,0,0,.2-1.183c.09-.764.153-1.878.177-3.255a94.114,94.114,0,0,0-.561-10.724c-.444-4.055-.845-7.721-1.165-10.651a35.838,35.838,0,0,0-.537-4.408,22.759,22.759,0,0,0,.04,4.45c.156,2.744.541,6.519.961,10.679s.7,7.926.764,10.659.009,4.426.12,4.434" transform="translate(30.088 39.586)" fill="#455a64"/>
            <path id="Trazado_913966" data-name="Trazado 913966" d="M112.566,163.8c.18.049,1.03-2.612,1.5-6.015s.388-6.194.2-6.2c-.2-.006-.426,2.742-.9,6.1s-1,6.064-.8,6.112" transform="translate(29.394 39.598)" fill="#455a64"/>
            <path id="Trazado_913967" data-name="Trazado 913967" d="M97.785,156.956c.122.044.09-.951,1.133-1.669a2.15,2.15,0,0,1,2-.188,2.07,2.07,0,0,1-.095,3.864,2.15,2.15,0,0,1-1.985-.286c-1.008-.767-.926-1.759-1.051-1.722-.04,0-.116.212-.073.614a2.375,2.375,0,0,0,.812,1.5,2.612,2.612,0,0,0,2.5.511,2.69,2.69,0,0,0,.124-5.084,2.612,2.612,0,0,0-2.525.39,2.377,2.377,0,0,0-.884,1.455c-.062.4,0,.618.043.617" transform="translate(25.522 40.315)" fill="#455a64"/>
            <path id="Trazado_913968" data-name="Trazado 913968" d="M77.293,171.245S62.27,268.632,60.615,285.264s4.513,117.717,4.513,117.717l25.019.1,10.789-99.473,18.747-86.953-17.126-64.505-19.642,1.5Z" transform="translate(15.761 39.747)" fill="#263238"/>
            <path id="Trazado_913969" data-name="Trazado 913969" d="M145.407,95.8a4.227,4.227,0,0,0-.053.782c-.011.566-.027,1.309-.045,2.237q-.008.736-.019,1.614c-.026.589-.09,1.228-.137,1.916-.116,1.373-.177,2.942-.445,4.659-.112.86-.231,1.762-.353,2.7s-.332,1.9-.5,2.908c-.324,2.014-.821,4.138-1.3,6.382-1.04,4.47-2.337,9.351-3.732,14.468s-2.651,10.023-3.626,14.523c-.44,2.261-.9,4.4-1.175,6.432-.148,1.014-.32,1.989-.43,2.932l-.269,2.723c-.213,1.73-.211,3.311-.265,4.693-.018.691-.052,1.334-.049,1.927.026.586.05,1.128.072,1.619.049.928.088,1.672.119,2.239a4.127,4.127,0,0,0,.078.777,4.15,4.15,0,0,0,.033-.783c0-.566-.008-1.309-.013-2.236q-.011-.736-.024-1.614c.013-.59.062-1.231.095-1.918.085-1.376.108-2.945.346-4.665q.146-1.3.3-2.705c.12-.938.3-1.908.459-2.915.29-2.019.769-4.148,1.221-6.4,1-4.48,2.269-9.367,3.663-14.486s2.679-10.01,3.7-14.5c.468-2.254.95-4.388,1.255-6.415.164-1.012.352-1.983.475-2.925s.217-1.85.319-2.717c.245-1.725.279-3.306.365-4.685.034-.691.082-1.333.093-1.926-.011-.588-.02-1.129-.03-1.621-.024-.93-.044-1.675-.059-2.241a4.066,4.066,0,0,0-.058-.779" transform="translate(34.744 25.025)" fill="#263238"/>
            <path id="Trazado_913970" data-name="Trazado 913970" d="M63.228,133.405,52.245,94.316,38.721,96.773s3.24,3.692,3.24,7.088,2.246,35.386,2.246,35.386,13.45,3.94,18.884-5.162" transform="translate(10.115 24.638)" fill="#ffbe9d"/>
            <path id="Trazado_913971" data-name="Trazado 913971" d="M56.335,99.039s1.507-4.078.313-7.605-5.245-6.261-4.993-8.378-1.9-7.2-3.839-6.8-3.374,2.313-1.734,5.575a42.28,42.28,0,0,1,2.591,6.633s-20.2-10.521-21.848-10.749-3.3-.457-3.728.859,3.6,3,3.6,3l5.421,7.064a30.9,30.9,0,0,0,3.77,7.6c2.332,3.152,6.92,5.263,6.92,5.263l5.89,7.088s8.931-3.052,7.634-9.546" transform="translate(6.025 19.915)" fill="#ffbe9d"/>
            <path id="Trazado_913972" data-name="Trazado 913972" d="M26.219,80.869c.033.03.179-.12.5-.271a2.411,2.411,0,0,1,1.435-.175,8.074,8.074,0,0,1,4.066,2.762,21.427,21.427,0,0,1,2.728,4.3A9.14,9.14,0,0,0,36,89.354a7.618,7.618,0,0,0-.695-2.039,16.9,16.9,0,0,0-2.665-4.494A7.665,7.665,0,0,0,28.2,80.033a2.386,2.386,0,0,0-1.594.378c-.32.233-.412.44-.387.458" transform="translate(6.848 20.903)" fill="#eb996e"/>
            <path id="Trazado_913973" data-name="Trazado 913973" d="M32.089,82.791A11.344,11.344,0,0,0,35,84.777a11.456,11.456,0,0,0,3.185,1.506,11.308,11.308,0,0,0-2.908-1.988,11.387,11.387,0,0,0-3.183-1.5" transform="translate(8.382 21.623)" fill="#eb996e"/>
            <path id="Trazado_913974" data-name="Trazado 913974" d="M41.838,86.458a4.207,4.207,0,0,0-3.4-.032A4.208,4.208,0,0,0,35.753,88.5a17.97,17.97,0,0,1,2.866-1.549,18.088,18.088,0,0,1,3.219-.494" transform="translate(9.337 22.497)" fill="#eb996e"/>
            <path id="Trazado_913975" data-name="Trazado 913975" d="M82.469,137.747c.1.583-15.3,21.37-20.3,25.267-12.254,9.56-21.268-3.367-20.365-14.315S74.546,86.327,74.546,86.327l10.305,24.286Z" transform="translate(10.905 22.551)" fill="#4045ab"/>
            <path id="Trazado_913976" data-name="Trazado 913976" d="M155.337,84.246l-28-6.579-2.645-4.462L96.6,73.653l-6.527,6.985L71.35,89.827,87.065,155.8l52.723,2.71Z" transform="translate(18.639 19.123)" fill="#fff"/>
            <path id="Trazado_913977" data-name="Trazado 913977" d="M115.507,72.517l10.481,6.508,22.02,4.784-6.972,88.4s20.3,35.409,18.065,77.611l-57.955-2.52s2.825-44.378,3.379-62.182.209-48.915.209-48.915l14.339-53.558Z" transform="translate(26.422 18.943)" fill="#4045ab"/>
            <path id="Trazado_913978" data-name="Trazado 913978" d="M96.174,78.953l1.96-6.035L90.82,80.282s-4.34,1.506-5.269,1.851c-7.28,2.713-17.2,7.7-17.2,7.7l12.407,78.574s-14.229,49.24-15.294,78.786c0,0,38.035.633,53.091,0L114.492,134.37s-13.205-15.59-15.4-31.271-2.915-24.146-2.915-24.146" transform="translate(17.1 19.048)" fill="#4045ab"/>
            <path id="Trazado_913979" data-name="Trazado 913979" d="M104.873,145.53a3.551,3.551,0,0,0,.487-.477l1.333-1.44,4.894-5.428,16.559-18.643.1-.114-.042-.149c-.841-3.032-1.725-6.215-2.632-9.483q-.592-2.123-1.168-4.191l-.266.364,10.984-.424.375-.014-.13-.349c-2.979-8.018-5.53-14.888-7.362-19.814-.908-2.389-1.637-4.3-2.16-5.679-.246-.621-.443-1.117-.6-1.5a2.485,2.485,0,0,0-.235-.508,2.552,2.552,0,0,0,.149.539c.132.395.3.9.516,1.535.487,1.387,1.167,3.321,2.014,5.732,1.781,4.944,4.265,11.839,7.165,19.885L135.1,105l-10.985.391-.363.013.1.351q.575,2.066,1.165,4.192c.912,3.267,1.8,6.449,2.646,9.479l.061-.261-16.41,18.776-4.769,5.538-1.261,1.5a3.576,3.576,0,0,0-.411.544" transform="translate(27.396 20.291)" fill="#263238"/>
            <path id="Trazado_913980" data-name="Trazado 913980" d="M86.5,78.525a3.071,3.071,0,0,0-.126.629c-.068.468-.155,1.073-.265,1.828-.218,1.657-.522,3.964-.9,6.825-.725,5.875-1.729,14.007-2.879,23.32l-.045.376.373-.066,6.088-1.048-.312-.4c-.37.825-.763,1.706-1.162,2.6-.781,1.751-1.55,3.473-2.282,5.109l-.073.166.117.136,16.879,19.569,5.052,5.768,1.382,1.537c.319.347,2.413,1.92,2.427,1.908s-2.052-1.608-2.346-1.978l-1.305-1.6-4.92-5.88L85.468,117.623l.043.3,2.287-5.107,1.159-2.6.221-.494-.532.093-6.085,1.059.328.312c1.071-9.323,2.005-17.463,2.68-23.344.306-2.868.554-5.182.732-6.843.071-.761.127-1.37.172-1.84a3.074,3.074,0,0,0,.025-.641" transform="translate(21.494 20.513)" fill="#263238"/>
            <path id="Trazado_913981" data-name="Trazado 913981" d="M109.014,159.25c1.12-1.479,3.383-2.394,4.539-.945l-.043-.023a3.561,3.561,0,0,1,1.206,3.856,3.436,3.436,0,0,1-4.564,1.857,3.315,3.315,0,0,1-1.138-4.745" transform="translate(28.328 41.163)" fill="#263238"/>
            <g id="Grupo_1103308" data-name="Grupo 1103308" transform="translate(132.269 125.507)" opacity="0.3">
              <g id="Grupo_1103307" data-name="Grupo 1103307">
                <g id="Grupo_1103306" data-name="Grupo 1103306" clip-path="url(#clip-path-8)">
                  <path id="Trazado_913982" data-name="Trazado 913982" d="M135.113,99.571c-.187.6-4.129,1.2-4.818,2.867a8.2,8.2,0,0,0,.137,5.3,15.868,15.868,0,0,1,1.005,5.282c-.218,3.225-2.762,5.742-5.142,7.931-6.65,6.117-14.773,12.756-21.423,18.873,5.892-7.516,13.577-15.3,20.09-22.283a9.31,9.31,0,0,0,2.372-3.462c.512-1.7.006-3.514-.5-5.213q-1-3.375-2-6.75c-.172-.578-.544-1.553-.633-1.872a14.282,14.282,0,0,1,2.473-.3,61.845,61.845,0,0,1,8.438-.375" transform="translate(-104.873 -99.512)"/>
                </g>
              </g>
            </g>
            <path id="Trazado_913983" data-name="Trazado 913983" d="M68.574,96.873a3.11,3.11,0,0,0,.067.672c.077.494.174,1.126.3,1.908.288,1.723.685,4.1,1.17,7,1,5.974,2.369,14.111,3.878,23.1,1.516,9.024,2.94,17.184,4.038,23.079.549,2.947,1.008,5.33,1.344,6.973.164.773.3,1.4.4,1.889a3.1,3.1,0,0,0,.175.651,3.035,3.035,0,0,0-.066-.671c-.077-.494-.175-1.128-.3-1.908-.289-1.723-.686-4.1-1.172-7-1-5.974-2.369-14.111-3.878-23.1-1.516-9.02-2.939-17.18-4.038-23.075-.549-2.947-1.008-5.33-1.344-6.973-.163-.773-.3-1.4-.4-1.889a3.038,3.038,0,0,0-.177-.652" transform="translate(17.912 25.306)" fill="#263238"/>
            <path id="Trazado_913984" data-name="Trazado 913984" d="M144.637,81.4a19.624,19.624,0,0,1,10.086,7.774c4.65,6.883,12.713,73.641,12.4,78.272S162.812,183.806,152,182.262s-39.517-21.609-39.517-21.609l9.878-19.139,20.992,9.878L140.5,118.323Z" transform="translate(29.385 21.264)" fill="#4045ab"/>
            <g id="Grupo_1103311" data-name="Grupo 1103311" transform="translate(110.27 186.406)" opacity="0.3">
              <g id="Grupo_1103310" data-name="Grupo 1103310">
                <g id="Grupo_1103309" data-name="Grupo 1103309" clip-path="url(#clip-path-9)">
                  <path id="Trazado_913985" data-name="Trazado 913985" d="M87.523,158.507c.681-3,4.405-3.967,7.46-4.356l49.786-6.354,4.316,14.006a32.62,32.62,0,0,1-2.258,9.41c-1.365,2.937-3.8,5.552-6.946,6.321-2.78.681-5.682-.137-8.426-.95L94.838,165.74a15.182,15.182,0,0,1-5.185-2.274,5.166,5.166,0,0,1-2.13-4.959" transform="translate(-87.431 -147.797)"/>
                </g>
              </g>
            </g>
            <g id="Grupo_1103314" data-name="Grupo 1103314" transform="translate(164.614 133.146)" opacity="0.3">
              <g id="Grupo_1103313" data-name="Grupo 1103313">
                <g id="Grupo_1103312" data-name="Grupo 1103312" clip-path="url(#clip-path-10)">
                  <path id="Trazado_913986" data-name="Trazado 913986" d="M137.567,111.773c.6-2.369,1.506-5.049,3.78-5.942,2.422-.951,5.239.816,6.316,3.185s.848,5.107.467,7.68c-1.322,8.942-4.472,18.87-7.393,27.429l-10.217-3.753c1.355-9.473,4.7-19.322,7.048-28.6" transform="translate(-130.519 -105.569)"/>
                </g>
              </g>
            </g>
            <path id="Trazado_913987" data-name="Trazado 913987" d="M56.045,104.026l10.049,30.268-13.047,9.474-10.512,4.224c0-.052-1.965-15.126-1.473-9.865l-2.341-31.106Z" transform="translate(10.115 27.174)" fill="#4045ab"/>
            <path id="Trazado_913988" data-name="Trazado 913988" d="M52.458,104.026a8.626,8.626,0,0,0,.241,1.343c.172.86.47,2.095.863,3.615.788,3.04,2.116,7.175,3.731,11.678s2.979,8.609,3.835,11.622c.426,1.506.767,2.727.986,3.576a8.636,8.636,0,0,0,.394,1.305,9,9,0,0,0-.241-1.342c-.172-.861-.472-2.095-.863-3.616-.788-3.04-2.116-7.175-3.731-11.68s-2.979-8.605-3.837-11.618c-.425-1.507-.766-2.728-.985-3.577a8.635,8.635,0,0,0-.394-1.305" transform="translate(13.702 27.174)" fill="#263238"/>
            <path id="Trazado_913989" data-name="Trazado 913989" d="M55.061,142.724a8.764,8.764,0,0,0,1.25-1.606,44.468,44.468,0,0,0,4.595-8.657,8.743,8.743,0,0,0,.629-1.935,11.936,11.936,0,0,0-.893,1.822c-.521,1.136-1.26,2.7-2.152,4.379s-1.771,3.167-2.42,4.235a12.079,12.079,0,0,0-1.009,1.761" transform="translate(14.382 34.097)" fill="#263238"/>
            <path id="Trazado_913990" data-name="Trazado 913990" d="M137.977,135.8a19.71,19.71,0,0,0,3.177-1.042,19.714,19.714,0,0,0,3.123-1.2,17.483,17.483,0,0,0-6.3,2.237" transform="translate(36.043 34.885)" fill="#263238"/>
            <path id="Trazado_913991" data-name="Trazado 913991" d="M135.474,105.09a2.592,2.592,0,0,0,.312-.672c.179-.441.407-1.09.665-1.9a44.136,44.136,0,0,0,2.005-13.1c0-.85-.026-1.539-.066-2.013a2.62,2.62,0,0,0-.1-.734,27.339,27.339,0,0,0-.124,2.741,57.456,57.456,0,0,1-2,13.026,27.384,27.384,0,0,0-.7,2.654" transform="translate(35.388 22.641)" fill="#263238"/>
            <g id="Grupo_1103317" data-name="Grupo 1103317" transform="translate(103.031 131.401)" opacity="0.3">
              <g id="Grupo_1103316" data-name="Grupo 1103316">
                <g id="Grupo_1103315" data-name="Grupo 1103315" clip-path="url(#clip-path-11)">
                  <path id="Trazado_913992" data-name="Trazado 913992" d="M85.37,106.676l-3.679.252a6.93,6.93,0,0,1,6.914-2.593c-.082,2.21-2.4,3.939-2.251,6.146a5.852,5.852,0,0,0,1.608,3.119c2.776,3.432,4.047,5,6.823,8.433l-.481,4.225c-2.8-4-5.63-7.725-8.43-11.726a10.688,10.688,0,0,1-2.013-3.956,3.65,3.65,0,0,1,1.508-3.9" transform="translate(-81.691 -104.185)"/>
                </g>
              </g>
            </g>
            <g id="Grupo_1103320" data-name="Grupo 1103320" transform="translate(69.14 141.844)" opacity="0.3">
              <g id="Grupo_1103319" data-name="Grupo 1103319">
                <g id="Grupo_1103318" data-name="Grupo 1103318" clip-path="url(#clip-path-12)">
                  <path id="Trazado_913993" data-name="Trazado 913993" d="M55.931,115.737l-1.111-3.272c1.872,5.618,8.224,9.928,10.313,15.469A14.583,14.583,0,0,1,62.841,142c-.723.887-1.969,1.74-2.911,1.093a1.931,1.931,0,0,1-.907-2.111c.3-.754,2.48-5.3,2.866-6.02.294-.542-.358-2.1-1.228-5.027-1.532-5.155-3.2-9.042-4.73-14.2" transform="translate(-54.819 -112.465)"/>
                </g>
              </g>
            </g>
            <path id="Trazado_913994" data-name="Trazado 913994" d="M158.541,112.32l-13.092,68.85a5.075,5.075,0,0,1-5.944,4.035l-50.291-9.681a5.074,5.074,0,0,1-4.02-5.967L99.051,99.531a5.074,5.074,0,0,1,6.064-3.972l49.527,10.855a5.075,5.075,0,0,1,3.9,5.905" transform="translate(22.23 24.932)" fill="#e0e0e0"/>
            <path id="Trazado_913995" data-name="Trazado 913995" d="M108.611,128.813a8.286,8.286,0,1,0,8.286-8.286,8.286,8.286,0,0,0-8.286,8.286" transform="translate(28.372 31.485)" fill="#fff"/>
            <path id="Trazado_913996" data-name="Trazado 913996" d="M123.488,133.918l-4.181-2.081s-1.36-7.174-3.569-9.7-5.461-5.447-5.437-6.126-1.022-5.416-1.022-5.416-1.95-1.7-2.335,1.7a25.121,25.121,0,0,0,0,5.947l-13.1-3.262c-1.36-.341-3.053-.207-2.883,1.153a4.209,4.209,0,0,0,1.942,2.908,4.4,4.4,0,0,0,1.245.73s-2.178,2.009-2.178,3.985-2.241,6.553-.2,8.762,11.388,8.839,16.316,9.689,6.132,2.309,8.42,5.233Z" transform="translate(23.75 28.779)" fill="#ffbe9d"/>
            <path id="Trazado_913997" data-name="Trazado 913997" d="M102.759,116.37c-.057.1,1.5,1.017,3.253,2.364s3.051,2.6,3.137,2.516a16.386,16.386,0,0,0-6.389-4.88" transform="translate(26.843 30.397)" fill="#eb996e"/>
            <path id="Trazado_913998" data-name="Trazado 913998" d="M92.871,117.474a11.128,11.128,0,0,0,3.14,1.284,20.152,20.152,0,0,0,3.263.9,11.128,11.128,0,0,0-3.14-1.284,20.15,20.15,0,0,0-3.263-.9" transform="translate(24.26 30.684)" fill="#eb996e"/>
            <path id="Trazado_913999" data-name="Trazado 913999" d="M148.094,139.319,119.252,127.1l-10.811,21.569,39.653,20.221Z" transform="translate(28.328 33.201)" fill="#4045ab"/>
            <path id="Trazado_914000" data-name="Trazado 914000" d="M117.451,127.626c-.042.1,7.752,3.316,17.4,7.173s17.516,6.9,17.558,6.8-7.75-3.315-17.407-7.173-17.513-6.9-17.555-6.8" transform="translate(30.681 33.339)" fill="#263238"/>
            <g id="Grupo_1103323" data-name="Grupo 1103323" transform="translate(174.239 171.194)" opacity="0.3">
              <g id="Grupo_1103322" data-name="Grupo 1103322">
                <g id="Grupo_1103321" data-name="Grupo 1103321" clip-path="url(#clip-path-13)">
                  <path id="Trazado_914001" data-name="Trazado 914001" d="M138.433,135.736a55.4,55.4,0,0,1,10.244,3.085,13.653,13.653,0,0,1,3.8,2.118,5.51,5.51,0,0,1,2.041,3.728,12.613,12.613,0,0,1-2.657-1.587c-3.27-3.283-8.919-5.2-13.707-7.017Z" transform="translate(-138.15 -135.736)"/>
                </g>
              </g>
            </g>
            <path id="Trazado_914002" data-name="Trazado 914002" d="M105.548,225.027c-.182,0-.328-13.906-.328-31.058s.146-31.061.328-31.061.328,13.9.328,31.061-.146,31.058-.328,31.058" transform="translate(27.486 42.556)" fill="#263238"/>
            <path id="Trazado_914003" data-name="Trazado 914003" d="M77.04,45.379c.773-7.024,1.932-14.267,5.809-20.176s11.173-10.124,18.01-8.339l8.571,4.189a252.252,252.252,0,0,1-7.624,57.185,12.361,12.361,0,0,1-2.213,5.17c-2.48,2.892-6.854,2.953-10.659,2.784-4.6-.206-9.99-.877-12.235-4.892-1.082-1.933-1.154-4.253-1.169-6.469a252.738,252.738,0,0,1,1.51-29.451" transform="translate(19.729 4.297)"/>
            <path id="Trazado_914004" data-name="Trazado 914004" d="M121.246,28.4l-25.96-6.623c-8.315-.9-13.87,9.332-14.415,17.68-.6,9.273-.977,20.619.107,27.541C83.157,80.919,93.82,82.714,93.82,82.714a33.648,33.648,0,0,0-.076,10.6c1.332,9.492,7.656,11.515,12.719,11.512,8.005.276,16.12-2.83,16.473-10.831l2.678-60.618a4.894,4.894,0,0,0-4.368-4.974" transform="translate(20.973 5.674)" fill="#ffbe9d"/>
            <path id="Trazado_914005" data-name="Trazado 914005" d="M85.546,45.19a1.786,1.786,0,0,0,1.717,1.8,1.707,1.707,0,0,0,1.844-1.606,1.785,1.785,0,0,0-1.715-1.8,1.708,1.708,0,0,0-1.845,1.606" transform="translate(22.347 11.385)" fill="#263238"/>
            <path id="Trazado_914006" data-name="Trazado 914006" d="M83.331,41.739c.221.233,1.575-.764,3.495-.755,1.92-.018,3.326.974,3.535.739.1-.1-.122-.525-.735-.974A4.91,4.91,0,0,0,86.8,39.87a4.713,4.713,0,0,0-2.784.892c-.592.453-.792.873-.684.977" transform="translate(21.761 10.415)" fill="#263238"/>
            <path id="Trazado_914007" data-name="Trazado 914007" d="M100.7,45.19a1.785,1.785,0,0,0,1.717,1.8,1.707,1.707,0,0,0,1.843-1.606,1.784,1.784,0,0,0-1.715-1.8A1.707,1.707,0,0,0,100.7,45.19" transform="translate(26.306 11.385)" fill="#263238"/>
            <path id="Trazado_914008" data-name="Trazado 914008" d="M98.579,42.2c.222.233,1.577-.764,3.5-.755,1.918-.018,3.326.974,3.534.739.1-.1-.12-.525-.734-.972a4.9,4.9,0,0,0-2.829-.88,4.712,4.712,0,0,0-2.782.892c-.59.453-.793.873-.685.977" transform="translate(25.744 10.535)" fill="#263238"/>
            <path id="Trazado_914009" data-name="Trazado 914009" d="M93.754,55.378a12.744,12.744,0,0,0-3.118-.57c-.491-.052-.956-.15-1.038-.484a2.511,2.511,0,0,1,.33-1.453q.7-1.778,1.461-3.731c2.024-5.312,3.492-9.68,3.278-9.761s-2.032,4.162-4.057,9.474q-.73,1.964-1.4,3.752a2.843,2.843,0,0,0-.257,1.925,1.229,1.229,0,0,0,.8.719,3.366,3.366,0,0,0,.832.117,12.511,12.511,0,0,0,3.163.011" transform="translate(23.214 10.287)" fill="#263238"/>
            <path id="Trazado_914010" data-name="Trazado 914010" d="M91.016,71.1a37.531,37.531,0,0,0,19.444-4.93s-5.52,9.778-19.444,8.445Z" transform="translate(23.776 17.286)" fill="#eb996e"/>
            <path id="Trazado_914011" data-name="Trazado 914011" d="M97.512,37.494c.188.522,2.106.28,4.359.556,2.258.231,4.074.894,4.374.428.134-.225-.183-.716-.916-1.223a7.635,7.635,0,0,0-6.653-.749c-.827.332-1.245.74-1.164.989" transform="translate(25.47 9.421)"/>
            <path id="Trazado_914012" data-name="Trazado 914012" d="M82.932,37.25c.417.436,2.06-.011,4.032-.029,1.973-.073,3.644.3,4.03-.154.168-.222-.093-.658-.824-1.073a6.615,6.615,0,0,0-3.277-.723,6.482,6.482,0,0,0-3.217.87c-.7.446-.928.9-.744,1.109" transform="translate(21.648 9.213)"/>
            <path id="Trazado_914013" data-name="Trazado 914013" d="M90.694,26.725a21.967,21.967,0,0,0,4.265,4.4l7.466,6.388a56.166,56.166,0,0,0,5.493,4.318,56.412,56.412,0,0,0,5.418,3.026c1.918.981,3.066,3.784,4.984,4.765.434.222,1.77-.029,2.231.259.134,3.106.784,12.978,1.029,16.911.386,6.2-.661,22.862-.661,22.862l5.273-.376c4.088-.927,8.115-5.991,8.691-10.142.539-3.887-.033-9.193,0-12.345.078-8.095-2.073-16.132-3.168-24.152a33.432,33.432,0,0,0-2.26-9.495c-1.927-4.2-5.513-7.422-9.315-10.057A35.3,35.3,0,0,0,105.645,16.8c-5.252-.807-10.922.184-15.11,3.453A3.311,3.311,0,0,0,89.112,22.2c-.527,1.981.453,2.81,1.582,4.523M120.678,49.99c.219.361.135,1.336,0,0" transform="translate(23.24 4.319)"/>
            <path id="Trazado_914014" data-name="Trazado 914014" d="M113.675,46.89a4.059,4.059,0,0,1,5.939-3.453c1.409.815,2.486,2.452,2.357,5.595-.346,8.382-8.69,6.307-8.695,6.067,0-.15.226-4.741.4-8.208" transform="translate(29.591 11.215)" fill="#ffbe9d"/>
            <path id="Trazado_914015" data-name="Trazado 914015" d="M115.413,51.5c.038-.024.143.11.385.233a1.457,1.457,0,0,0,1.09.067c.9-.289,1.7-1.664,1.806-3.173a4.834,4.834,0,0,0-.323-2.108,1.685,1.685,0,0,0-1.052-1.165.744.744,0,0,0-.879.364c-.122.23-.076.4-.121.411-.024.02-.173-.148-.092-.491a.94.94,0,0,1,.352-.512,1.1,1.1,0,0,1,.816-.179,2.053,2.053,0,0,1,1.472,1.361,4.968,4.968,0,0,1,.41,2.358c-.124,1.686-1.053,3.23-2.279,3.531a1.567,1.567,0,0,1-1.326-.276c-.252-.218-.288-.407-.259-.423" transform="translate(30.147 11.739)" fill="#eb996e"/>
            <path id="Trazado_914016" data-name="Trazado 914016" d="M118.343,53.366A1.646,1.646,0,1,1,116.7,51.72a1.645,1.645,0,0,1,1.646,1.646" transform="translate(30.054 13.511)" fill="#263238"/>
            <path id="Trazado_914017" data-name="Trazado 914017" d="M98.087,54.907a3.817,3.817,0,0,1-1.907,5.966,2.229,2.229,0,0,1-1.438.023,3.176,3.176,0,0,1-1.529-1.989l-.8-2a.67.67,0,0,1,.573-1.078l4.95-1.192" transform="translate(24.11 14.274)" fill="#eb996e"/>
            <path id="Trazado_914018" data-name="Trazado 914018" d="M94.924,60.736a4.415,4.415,0,0,0,2.249-.283,3.524,3.524,0,0,0,1.97-1.6,2.652,2.652,0,0,0,.3-1.531,4.5,4.5,0,0,0-.392-1.583,4.131,4.131,0,0,0-.931-1.288l-.13-.121-.165.058c-3.277,1.157-5.841,1.742-5.813,1.882s2.664-.211,6-1.331l-.3-.063a3.713,3.713,0,0,1,.791,1.11,3.193,3.193,0,0,1,.144,2.615,3.255,3.255,0,0,1-1.64,1.463c-1.23.5-2.116.564-2.094.672" transform="translate(24.037 14.192)" fill="#263238"/>
            <path id="Trazado_914019" data-name="Trazado 914019" d="M111.056,29.134a48.948,48.948,0,0,1,14.051,13.008l-3.955,7.942c-7.687-.179-8.647-.893-14.413-5.979S89.506,28.892,88.37,21.288c7.371,1.52,16.266,3.916,22.686,7.846" transform="translate(23.085 5.561)"/>
            <path id="Trazado_914020" data-name="Trazado 914020" d="M126.209,87.767a4.424,4.424,0,0,1,.31-.824c.232-.526.554-1.31.956-2.323a58.544,58.544,0,0,0,2.673-8.821,56.3,56.3,0,0,0,1.244-13.568,36.585,36.585,0,0,0-.986-7.957,13.974,13.974,0,0,0-4.21-7.241,26.88,26.88,0,0,0-7.509-4.107,54.064,54.064,0,0,1-7.345-3.513A51.861,51.861,0,0,1,100.5,30.934a57.627,57.627,0,0,1-5.967-7.1c-.636-.89-1.106-1.6-1.408-2.091a4.344,4.344,0,0,1-.44-.761,4.414,4.414,0,0,1,.55.686c.337.467.837,1.15,1.5,2.014a65.052,65.052,0,0,0,6.089,6.923,53.106,53.106,0,0,0,10.811,8.285,54.67,54.67,0,0,0,7.286,3.441,27.207,27.207,0,0,1,7.7,4.206,14.548,14.548,0,0,1,4.4,7.574,36.556,36.556,0,0,1,.97,8.1A54.879,54.879,0,0,1,130.6,75.9a52.418,52.418,0,0,1-2.889,8.816c-.44,1-.8,1.773-1.072,2.283a4.447,4.447,0,0,1-.43.767" transform="translate(24.213 5.481)" fill="#fff"/>
            <path id="Trazado_914021" data-name="Trazado 914021" d="M128.811,44.354a14.008,14.008,0,0,0-3.06-5.607,19.514,19.514,0,0,0-5.537-4.194,71.235,71.235,0,0,0-7.952-3.332,52.33,52.33,0,0,1-13.822-7.6A43.363,43.363,0,0,1,94.806,20.5a7.988,7.988,0,0,1-1.2-1.285,10.563,10.563,0,0,1,1.371,1.095c.861.723,2.116,1.758,3.742,2.934A56.869,56.869,0,0,0,112.5,30.606a65.577,65.577,0,0,1,8,3.413,19.224,19.224,0,0,1,5.6,4.423,12.165,12.165,0,0,1,2.381,4.178,7.746,7.746,0,0,1,.3,1.276c.04.3.052.454.029.457" transform="translate(24.452 5.02)" fill="#fff"/>
            <path id="Trazado_914022" data-name="Trazado 914022" d="M78.094,83.2a2.871,2.871,0,0,1-.078-.705c-.024-.536-.056-1.207-.093-2.026-.067-1.759-.143-4.306-.2-7.454-.106-6.292-.192-15,.443-24.6a64.4,64.4,0,0,1,1.944-13.44,24.561,24.561,0,0,1,5.151-9.809,17.038,17.038,0,0,1,6.01-4.44,11.5,11.5,0,0,1,1.932-.65,2.832,2.832,0,0,1,.7-.125c.018.067-.946.265-2.527,1.008a17.611,17.611,0,0,0-5.764,4.513,24.568,24.568,0,0,0-4.919,9.666,66.28,66.28,0,0,0-1.87,13.32c-.633,9.569-.621,18.265-.633,24.556,0,3.077-.005,5.6-.008,7.453-.011.821-.021,1.491-.029,2.028a2.912,2.912,0,0,1-.054.708" transform="translate(20.283 5.211)" fill="#fff"/>
          </g>
        </g>
        <g id="Grupo_1103342" data-name="Grupo 1103342">
          <g id="Grupo_1103341" data-name="Grupo 1103341" clip-path="url(#clip-path)">
            <path id="Trazado_914023" data-name="Trazado 914023" d="M218.255,272.382l19.319,103.175s11.053,6.384,16.656,3.856L250.3,274.433Z" transform="translate(57.014 71.154)" fill="#ba7e6d"/>
            <path id="Trazado_914024" data-name="Trazado 914024" d="M238.154,354.389l.028,1.312s-22.012,9.481-22.145,13.7l44.142-1.32-1.039-14.671c-6.471,3.236-13.33,3.784-20.986.975" transform="translate(56.435 92.321)" fill="#ee4f47"/>
            <g id="Grupo_1103328" data-name="Grupo 1103328" transform="translate(309.134 450.502)" opacity="0.6">
              <g id="Grupo_1103327" data-name="Grupo 1103327">
                <g id="Grupo_1103326" data-name="Grupo 1103326" clip-path="url(#clip-path-15)">
                  <path id="Trazado_914025" data-name="Trazado 914025" d="M247.217,357.257a1.8,1.8,0,0,1,1.308,2.021,1.734,1.734,0,0,1-1.991,1.313,1.9,1.9,0,0,1-1.373-2.145,1.8,1.8,0,0,1,2.222-1.138" transform="translate(-245.106 -357.193)" fill="#fff"/>
                </g>
              </g>
            </g>
            <g id="Grupo_1103331" data-name="Grupo 1103331" transform="translate(272.446 456.879)" opacity="0.6">
              <g id="Grupo_1103330" data-name="Grupo 1103330">
                <g id="Grupo_1103329" data-name="Grupo 1103329" clip-path="url(#clip-path-16)">
                  <path id="Trazado_914026" data-name="Trazado 914026" d="M260.184,365.778l-.25-3.529-42.216,2.558s-1.94.913-1.676,2.292Z" transform="translate(-216.017 -362.249)" fill="#fff"/>
                </g>
              </g>
            </g>
            <path id="Trazado_914027" data-name="Trazado 914027" d="M233.475,355.375c.014.216,1.095.281,2.176.942,1.1.633,1.672,1.55,1.869,1.459.2-.048-.163-1.327-1.486-2.105s-2.612-.493-2.559-.3" transform="translate(60.99 92.776)" fill="#263238"/>
            <path id="Trazado_914028" data-name="Trazado 914028" d="M229.849,356.977c-.043.211.9.549,1.661,1.439.786.866,1,1.848,1.215,1.831.2.028.314-1.238-.651-2.327s-2.226-1.149-2.225-.943" transform="translate(60.043 93.227)" fill="#263238"/>
            <path id="Trazado_914029" data-name="Trazado 914029" d="M228.276,362.173c.2.04.465-1.046-.124-2.21s-1.612-1.6-1.7-1.421c-.117.182.556.795,1.025,1.758.491.951.58,1.858.795,1.873" transform="translate(59.153 93.651)" fill="#263238"/>
            <path id="Trazado_914030" data-name="Trazado 914030" d="M274.735,270.775c.411,1.042,2.9,18.309,2.4,24.7S265.613,387.3,265.613,387.3l-17.085.4L238.6,272.712Z" transform="translate(62.328 70.734)" fill="#ba7e6d"/>
            <path id="Trazado_914031" data-name="Trazado 914031" d="M239.142,277.784a5.82,5.82,0,0,1,.174,1c.093.719.218,1.676.373,2.878.3,2.57.711,6.176,1.221,10.6.984,8.957,2.231,21.345,3.423,35.042s2.1,26.121,2.674,35.114c.261,4.448.474,8.071.627,10.654q.079,1.816.129,2.9a5.755,5.755,0,0,1,0,1.014,5.934,5.934,0,0,1-.132-1.005q-.095-1.082-.251-2.891c-.2-2.579-.487-6.2-.835-10.637-.695-8.982-1.676-21.39-2.865-35.089s-2.365-26.085-3.23-35.052c-.423-4.434-.768-8.047-1.014-10.622q-.155-1.811-.25-2.892a5.775,5.775,0,0,1-.043-1.013" transform="translate(62.468 72.565)" fill="#875149"/>
            <path id="Trazado_914032" data-name="Trazado 914032" d="M265.71,357.25s-11.263,8.938-17.317,2.048l-1.294,3.564-5.327,25.192a3.338,3.338,0,0,0,2.087,3.887,3.216,3.216,0,0,0,3.371-.835c4.571-4.839,21.3-22.725,21-25.014L267.836,360a3.1,3.1,0,0,0-2.126-2.748" transform="translate(63.138 93.323)" fill="#ee4f47"/>
            <path id="Trazado_914033" data-name="Trazado 914033" d="M243.873,390.686l23.683-28.108.067,1.333c.2,1.436-.4,2.041-1.033,3-1.885,2.849-7.181,9.281-19.833,22.8a3.222,3.222,0,0,1-2.884.975" transform="translate(63.706 94.715)" fill="#fff"/>
            <path id="Trazado_914034" data-name="Trazado 914034" d="M259.715,359.663a1.952,1.952,0,0,0-.407,2.572,1.877,1.877,0,0,0,2.546.426,2.057,2.057,0,0,0,.416-2.725,1.946,1.946,0,0,0-2.7-.15" transform="translate(67.656 93.861)" fill="#fff"/>
            <path id="Trazado_914035" data-name="Trazado 914035" d="M250.385,374.389c-.174.1-.965-1.516-2.878-2.309-1.889-.85-3.6-.32-3.655-.513-.03-.076.356-.339,1.086-.479a5.142,5.142,0,0,1,5.052,2.182c.4.628.472,1.091.395,1.12" transform="translate(63.7 96.919)" fill="#263238"/>
            <path id="Trazado_914036" data-name="Trazado 914036" d="M248.654,377.538c-.143.144-1.2-.829-2.852-1.215-1.641-.421-3.031-.05-3.09-.243-.1-.156,1.381-.9,3.254-.428,1.878.45,2.847,1.792,2.688,1.886" transform="translate(63.402 98.09)" fill="#263238"/>
            <path id="Trazado_914037" data-name="Trazado 914037" d="M253.989,369.939c-.14.156-1.763-1.347-4.274-2.171-2.5-.864-4.7-.647-4.718-.856-.059-.165,2.255-.718,4.938.2,2.693.89,4.2,2.731,4.055,2.826" transform="translate(63.999 95.765)" fill="#263238"/>
            <path id="Trazado_914038" data-name="Trazado 914038" d="M253.95,363.459c-.074.193-1.848-.448-4.112-.417-2.265,0-4.03.662-4.107.47-.095-.149,1.667-1.157,4.1-1.162,2.433-.026,4.209.957,4.117,1.109" transform="translate(64.191 94.656)" fill="#263238"/>
            <path id="Trazado_914039" data-name="Trazado 914039" d="M248.883,364.087A2.714,2.714,0,0,1,249,362.9a8.267,8.267,0,0,1,1.348-2.968,3.665,3.665,0,0,1,1.788-1.531,1.3,1.3,0,0,1,1.411.478,2.109,2.109,0,0,1,.306,1.476,4.559,4.559,0,0,1-4.514,3.656,5.288,5.288,0,0,1-4.788-3.423,1.84,1.84,0,0,1,.115-1.525,1.273,1.273,0,0,1,1.408-.493,4.506,4.506,0,0,1,1.915,1.342,9.229,9.229,0,0,1,1.809,2.705,2.783,2.783,0,0,1,.337,1.143,14.641,14.641,0,0,0-2.491-3.5,4.205,4.205,0,0,0-1.7-1.129.678.678,0,0,0-.768.265,1.26,1.26,0,0,0-.016,1.006,4.72,4.72,0,0,0,4.183,2.92,3.958,3.958,0,0,0,3.878-3.05,1.532,1.532,0,0,0-.172-1.038.7.7,0,0,0-.774-.275,3.315,3.315,0,0,0-1.539,1.268,12.246,12.246,0,0,0-1.853,3.861" transform="translate(63.854 93.611)" fill="#263238"/>
            <path id="Trazado_914040" data-name="Trazado 914040" d="M274.116,47.765l-59.452.618c.713,18.448,2.409,34.26-3.8,50-1.577,4-3.65,7.818-4.8,11.963s-1.268,8.82.936,12.513l12.059-3.437q-.045-1.875-.092-3.751a5.5,5.5,0,0,0,3.282,3.675,13.9,13.9,0,0,0,6.5.516,184.282,184.282,0,0,0,37.375-7.137c1.618-.487,9.289.192,9.289.192,4.416-18.978,2.918-46.128-1.3-65.15" transform="translate(53.62 12.478)" fill="#263238"/>
            <path id="Trazado_914041" data-name="Trazado 914041" d="M177.16,126.136s-.942-2.761-2.8-3.632-9.865-.12-11.56-.029-7.228-1.662-9.607.463A1.658,1.658,0,0,0,154.557,125c2.968.429,8.469,1.283,8.241,1.69-.31.557-9.563-.125-11.449.626-.339.019-13.813.406-13.813.406s-2.308,2.369-.011,3.133l.1,1.834a6.358,6.358,0,0,0,2.43.95c1.838.443-.025,1.624,2.376,2.036a21,21,0,0,0,4.881.172l.285,1.066a7.921,7.921,0,0,0,2.414.627c1.944.327,23.389-1.255,23.389-1.255l11.145,2.886,1-10.887Z" transform="translate(35.659 31.839)" fill="#ba7e6d"/>
            <path id="Trazado_914042" data-name="Trazado 914042" d="M167.07,125.027c.058.2-2.587.584-5.235,2.279a10.2,10.2,0,0,0-2.842,2.768c-.576.85-.8,1.462-.888,1.433a3.188,3.188,0,0,1,.551-1.638,8.749,8.749,0,0,1,2.872-3.028,12.067,12.067,0,0,1,3.835-1.611,4.231,4.231,0,0,1,1.706-.2" transform="translate(41.297 32.652)" fill="#875149"/>
            <path id="Trazado_914043" data-name="Trazado 914043" d="M154.359,131.7a21.146,21.146,0,0,1-4.8.583,10.834,10.834,0,0,0-3.272.4c-.749.344-.933.89-1.008.858-.077.013-.015-.689.821-1.2a8.214,8.214,0,0,1,3.423-.608,21.125,21.125,0,0,1,4.831-.026" transform="translate(37.946 34.376)" fill="#875149"/>
            <path id="Trazado_914044" data-name="Trazado 914044" d="M154.843,129.294a8.709,8.709,0,0,1-2.2.584,25.523,25.523,0,0,1-5.486.544,14.287,14.287,0,0,0-5.327.525,3.452,3.452,0,0,0-1.355.788c-.24.275-.2.507-.245.511-.025.023-.163-.247.067-.636a3.131,3.131,0,0,1,1.381-1.027,7.964,7.964,0,0,1,2.44-.633,24.808,24.808,0,0,1,3.042-.085,36.52,36.52,0,0,0,5.419-.376,9.991,9.991,0,0,1,2.268-.2" transform="translate(36.614 33.768)" fill="#875149"/>
            <path id="Trazado_914045" data-name="Trazado 914045" d="M153.47,127.516a10.245,10.245,0,0,1-2.385.322c-1.479.129-3.53.267-5.8.386-1.135.083-2.213.032-3.182.086a15.136,15.136,0,0,0-2.543.3,4.172,4.172,0,0,0-1.577.579c-.312.235-.387.462-.431.444-.029,0-.025-.276.288-.605a3.69,3.69,0,0,1,1.623-.8,12.744,12.744,0,0,1,2.611-.426c.99-.085,2.072-.047,3.2-.13,2.255-.119,4.3-.194,5.781-.222a10.514,10.514,0,0,1,2.411.071" transform="translate(35.931 33.289)" fill="#875149"/>
            <path id="Trazado_914046" data-name="Trazado 914046" d="M230.544,88.036l-9.82,13.45,2.661,5.189,12.443.259,12.595-2.772,6.939-2.916,3.925-11.926-1.9-9.143-4.943.467Z" transform="translate(57.659 20.944)" fill="#ba7e6d"/>
            <path id="Trazado_914047" data-name="Trazado 914047" d="M224.511,96.665s-.617,4.229,6.98,4.064,26.9-5.88,26.9-5.88l17.436,27.226-7.663,76.592-62.91,10.443,2.453-57.24s-4.754-2.892-5.755-12.52a40.346,40.346,0,0,1,1.535-16.544Z" transform="translate(52.694 24.777)" fill="#fff"/>
            <path id="Trazado_914048" data-name="Trazado 914048" d="M286.737,164.6s13.3,29.279,10,50.656-11.553,88.528-11.553,88.528l-61.654,3.306s-17.411-84.467-18.036-100.331-2.311-27.353-2.311-27.353Z" transform="translate(53.077 42.997)" fill="#263238"/>
            <path id="Trazado_914049" data-name="Trazado 914049" d="M242.11,205.52c.18.019-1.289,15.108-3.28,33.7s-3.753,33.649-3.934,33.629,1.288-15.1,3.28-33.7,3.753-33.646,3.934-33.627" transform="translate(61.357 53.687)" fill="#455a64"/>
            <path id="Trazado_914050" data-name="Trazado 914050" d="M238.719,155.328c-.048,0-.073-.266-.237-.7a3.039,3.039,0,0,0-1.2-1.476,2.846,2.846,0,0,0-2.671-.209,2.778,2.778,0,0,0,.279,5.2,2.841,2.841,0,0,0,2.633-.494,3.02,3.02,0,0,0,1.032-1.594c.117-.45.114-.721.161-.723a1.3,1.3,0,0,1,.052.764,3.017,3.017,0,0,1-.989,1.853,3.207,3.207,0,0,1-3.038.686,3.27,3.27,0,0,1-.33-6.162,3.209,3.209,0,0,1,3.094.357,3.02,3.02,0,0,1,1.182,1.737,1.305,1.305,0,0,1,.03.766" transform="translate(60.706 39.765)" fill="#263238"/>
            <path id="Trazado_914051" data-name="Trazado 914051" d="M240.752,85.125S226.371,88.4,224.606,89.4s-8.585,9.558-10.549,15.349-3.263,19.734-3.263,19.734-5.232,8.468-5.158,9.829.194,3.629.194,3.629-3.956,6.808-3.92,7.488l.037.681-27.756-12.36-7.569,14.413s22.384,19.461,34.507,25.981a6.835,6.835,0,0,0,8.965-2.313l-2.96,58.421,14.184,3.837-2.144-69.716-.492-9.173s-9.834-9.1-2.675-22.581c2.485-4.679,9.758-17.354,13.74-23.709S243.825,88.8,243.825,88.8l-.324-7.073Z" transform="translate(43.526 21.349)" fill="#4045ab"/>
            <path id="Trazado_914052" data-name="Trazado 914052" d="M200.131,152.115c-.09-.011.047-1.183.045-3.076a32.266,32.266,0,0,0-.824-7.313,18.99,18.99,0,0,0-2.715-6.765,10.278,10.278,0,0,0-2.193-2.073,1.845,1.845,0,0,1,.777.32,6.428,6.428,0,0,1,1.727,1.512,17.259,17.259,0,0,1,2.947,6.88,26.947,26.947,0,0,1,.675,7.449,10.672,10.672,0,0,1-.439,3.066" transform="translate(50.794 34.713)" fill="#263238"/>
            <path id="Trazado_914053" data-name="Trazado 914053" d="M204.541,148.7a3.552,3.552,0,0,1-.454-.589,11.5,11.5,0,0,1-.993-1.892,16,16,0,0,1-.953-7.746c.314-3.328,1.642-7.1,3.263-11.133s3.251-8.552,5.379-13.138a42.616,42.616,0,0,1,3.674-6.4,65.6,65.6,0,0,1,4.376-5.286c3-3.177,4.761-6.693,6.531-9.484,1.743-2.807,3.309-4.977,4.427-6.445.559-.735,1.009-1.293,1.319-1.667a3.625,3.625,0,0,1,.5-.55,3.7,3.7,0,0,1-.41.618c-.314.441-.724,1.014-1.232,1.727-1.062,1.5-2.573,3.7-4.265,6.522-1.709,2.79-3.478,6.4-6.48,9.617a66.892,66.892,0,0,0-4.318,5.264,42.806,42.806,0,0,0-3.616,6.328c-2.109,4.542-3.748,9.058-5.406,13.088s-2.99,7.726-3.349,10.988a16.334,16.334,0,0,0,.766,7.624,20.092,20.092,0,0,0,1.244,2.559" transform="translate(52.777 22.038)" fill="#263238"/>
            <path id="Trazado_914054" data-name="Trazado 914054" d="M200.4,166.038a5.123,5.123,0,0,1,.069-1.213c.077-.777.223-1.9.416-3.279.44-2.883,1.013-6.624,1.645-10.762a72,72,0,0,0,.86-10.809c-.021-2.777-.242-4.489-.145-4.5a5.138,5.138,0,0,1,.243,1.192c.067.386.121.861.168,1.415s.107,1.184.127,1.884a59.17,59.17,0,0,1-.7,10.9c-.6,4.22-1.327,8-1.807,10.747q-.348,1.918-.59,3.248a5.125,5.125,0,0,1-.284,1.182" transform="translate(52.346 35.389)" fill="#263238"/>
            <g id="Grupo_1103334" data-name="Grupo 1103334" transform="translate(245.376 167.459)" opacity="0.3">
              <g id="Grupo_1103333" data-name="Grupo 1103333">
                <g id="Grupo_1103332" data-name="Grupo 1103332" clip-path="url(#clip-path-17)">
                  <path id="Trazado_914055" data-name="Trazado 914055" d="M194.65,132.775a8.666,8.666,0,0,1,5.644,4.345,21.486,21.486,0,0,1,2.348,7.21,6.691,6.691,0,0,1-.293,4.474c-.358.633-1.288,1.148-1.759.593a1.34,1.34,0,0,1-.238-.578c-.7-2.96-1-6.01-1.814-8.94s-1.553-5.261-3.984-7.088" transform="translate(-194.553 -132.775)"/>
                </g>
              </g>
            </g>
            <path id="Trazado_914056" data-name="Trazado 914056" d="M253.78,78.492l7.231.81,3.562,3.882s20.487,4.02,23.043,7-10.071,43.382-10.071,43.382l-5.886,32.612s14.853,31.513,16.618,47.208l-54.765,18.8s-4.592-54.375-3.444-64.26,6.49-35.326,10.466-46.08,14.225-34.062,14.186-34.78-.938-8.574-.938-8.574" transform="translate(60.051 20.504)" fill="#4045ab"/>
            <g id="Grupo_1103337" data-name="Grupo 1103337" transform="translate(290.841 180.236)" opacity="0.3">
              <g id="Grupo_1103336" data-name="Grupo 1103336">
                <g id="Grupo_1103335" data-name="Grupo 1103335" clip-path="url(#clip-path-18)">
                  <path id="Trazado_914057" data-name="Trazado 914057" d="M272.419,152.62a3.988,3.988,0,0,0-1.889-1.439c-5.5-2.51-11.8-2.509-17.579-4.272-5.491-1.674-10.959-4.979-16.561-3.728-2.195.491-3.293.545-5.481,1.064l-.305,1.831c3.533,1.624,9.349-.4,12.7,1.573a33.311,33.311,0,0,1,3.138,2.55,18.3,18.3,0,0,0,4.4,2.255q4.673,1.865,9.42,3.543c3,1.058,6.246,2.068,9.3,1.179a4.81,4.81,0,0,0,2.575-1.637,2.728,2.728,0,0,0,.283-2.92" transform="translate(-230.602 -142.905)"/>
                </g>
              </g>
            </g>
            <path id="Trazado_914058" data-name="Trazado 914058" d="M276.65,85.4c-.8.37-8.808,17.705-10.424,26.3s9.7,33.738,9.7,33.738l-30.678-.4-2.16,15.241s28.7,8.634,38.138,10.413,18.833,2.727,21.324-1.144a19.888,19.888,0,0,0,2.9-7.837l-5.838-31.454L294.6,110.393s-.892-8.88-3.239-13.945S279.69,83.993,276.65,85.4" transform="translate(63.5 22.263)" fill="#4045ab"/>
            <path id="Trazado_914059" data-name="Trazado 914059" d="M262.618,82.606a4.214,4.214,0,0,1,.018.795c-.006.521-.019,1.289-.082,2.275A74.926,74.926,0,0,1,261.6,94a80.169,80.169,0,0,1-3.024,12.055c-.747,2.22-1.626,4.519-2.654,6.852a13.22,13.22,0,0,1-.859,1.773,3,3,0,0,1-1.763,1.12l-3.813,1.183-1.236.382.069-.5,4.712,3.082.235.153-.158.231-12.958,18.889c-1.617,2.318-2.926,4.192-3.867,5.541l-1.061,1.477a3,3,0,0,1-.4.493,3.012,3.012,0,0,1,.313-.55l.984-1.529c.907-1.372,2.169-3.278,3.729-5.634,3.243-4.81,7.716-11.449,12.8-19l.077.382-4.716-3.075-.5-.323.565-.175,1.236-.383,3.811-1.178a2.475,2.475,0,0,0,1.477-.9,13.7,13.7,0,0,0,.814-1.682c1.027-2.314,1.911-4.595,2.666-6.8a84.254,84.254,0,0,0,3.123-11.96c.638-3.466.946-6.306,1.123-8.27.077-.941.139-1.694.187-2.265a4.317,4.317,0,0,1,.093-.79" transform="translate(61.344 21.579)" fill="#263238"/>
            <path id="Trazado_914060" data-name="Trazado 914060" d="M273.517,85.645a9.513,9.513,0,0,0-2.322.51,10.826,10.826,0,0,0-4.82,4.178,22.441,22.441,0,0,0-2.114,3.956,35.727,35.727,0,0,0-1.7,4.88,38.429,38.429,0,0,0-1.371,11.713c.129,4.2,1.521,8.038,2.413,11.591.971,3.533,1.882,6.7,2.685,9.357s1.5,4.78,2.042,6.23c.277.721.481,1.289.651,1.657a2.706,2.706,0,0,1,.219.585,2.539,2.539,0,0,1-.32-.537c-.206-.357-.441-.912-.752-1.626-.6-1.434-1.361-3.552-2.216-6.193s-1.8-5.807-2.8-9.337c-.486-1.772-1-3.629-1.522-5.553a28.321,28.321,0,0,1-.952-6.148,38.057,38.057,0,0,1,1.433-11.877,35.107,35.107,0,0,1,1.77-4.928,22.122,22.122,0,0,1,2.215-4,10.722,10.722,0,0,1,5.068-4.156,6.122,6.122,0,0,1,1.77-.339,2.63,2.63,0,0,1,.627.033" transform="translate(68.076 22.364)" fill="#263238"/>
            <path id="Trazado_914061" data-name="Trazado 914061" d="M270.031,155.689a2.5,2.5,0,0,1-.522-.1l-1.489-.383-5.575-1.516-19.371-5.435-.221-.062.035-.228c.7-4.651,1.474-9.748,2.279-15.072.011-.073.023-.145.033-.212l.034-.228.232-.008c11.89-.407,22.655-.122,30.422.356,3.885.232,7.021.487,9.187.692l2.491.256a5.123,5.123,0,0,1,.864.129,5.213,5.213,0,0,1-.874-.016q-.933-.059-2.5-.153c-2.168-.139-5.307-.334-9.189-.516-7.764-.377-18.511-.6-30.384-.192l.266-.236c-.01.066-.021.139-.032.211-.819,5.324-1.6,10.416-2.316,15.068l-.185-.29,19.316,5.628,5.533,1.66,1.467.463a2.509,2.509,0,0,1,.5.188" transform="translate(63.44 34.547)" fill="#263238"/>
            <path id="Trazado_914062" data-name="Trazado 914062" d="M280.761,131.184c.014.161-2.725.484-6.053,1.144s-5.986,1.389-6.035,1.235a31.774,31.774,0,0,1,12.088-2.379" transform="translate(70.185 34.253)" fill="#263238"/>
            <path id="Trazado_914063" data-name="Trazado 914063" d="M240.373,177.355c-.048,0-.073-.266-.237-.7a3.039,3.039,0,0,0-1.2-1.476,2.843,2.843,0,0,0-2.671-.209,2.779,2.779,0,0,0,.279,5.2,2.845,2.845,0,0,0,2.633-.5,3.025,3.025,0,0,0,1.032-1.594c.117-.45.114-.721.161-.723a1.3,1.3,0,0,1,.052.764,3.017,3.017,0,0,1-.989,1.853,3.208,3.208,0,0,1-3.038.686,3.27,3.27,0,0,1-.33-6.162,3.209,3.209,0,0,1,3.094.357,3.019,3.019,0,0,1,1.182,1.737c.11.489.059.766.03.766" transform="translate(61.138 45.519)" fill="#263238"/>
            <g id="Grupo_1103340" data-name="Grupo 1103340" transform="translate(296.367 123.488)" opacity="0.3">
              <g id="Grupo_1103339" data-name="Grupo 1103339">
                <g id="Grupo_1103338" data-name="Grupo 1103338" clip-path="url(#clip-path-19)">
                  <path id="Trazado_914064" data-name="Trazado 914064" d="M234.983,142.282c7.625-3.682,13.059-11.156,17.264-18.5.911-1.592,1.8-3.193,2.693-4.8a6.239,6.239,0,0,0,1.015-2.835,2.14,2.14,0,0,0-1.648-2.231,3.026,3.026,0,0,0,3.273-1.487,8.846,8.846,0,0,0,1.009-3.7c.376-3.12.885-7.7,1.26-10.818-.739,2.268-2.391,6.068-3.13,8.335-.522,1.6-1,3.465-2.217,4.634-1.939,1.864-4.023,1.363-6.37,2.222,1.568.347,3.485,2.047,4.714,3.079-5.485,8.73-17.861,26.1-17.861,26.1" transform="translate(-234.983 -97.911)"/>
                </g>
              </g>
            </g>
            <path id="Trazado_914065" data-name="Trazado 914065" d="M214.256,116.485s44.1,47.058,44.855,46.976c1.578-.172-32.8,35.028-32.8,35.028l-44.736-51.024Z" transform="translate(47.433 30.429)" fill="#455a64"/>
            <path id="Trazado_914066" data-name="Trazado 914066" d="M243.369,135.73l-17.8-6.995L213.588,130.6l-5.281,7.01s.106,1.983,1.309,1.612a7.786,7.786,0,0,0,2.51-1.664l.423,5.023s1.944,2.036,3.048-.164l1.424,3.746s1.462,1.6,2.439-.131l2.067,4.323a3.325,3.325,0,0,0,2.052-1.64,3.415,3.415,0,0,0,.182-2.3s6,.749,8.483,1.38,14.507-.319,14.507-.319l5.127,1.175,2.068-13.219Z" transform="translate(54.415 33.629)" fill="#ba7e6d"/>
            <path id="Trazado_914067" data-name="Trazado 914067" d="M222.307,130.386a6.953,6.953,0,0,0-2.155.143c-.65.159-1.406.45-2.263.757s-1.785.647-2.732,1.063a15.932,15.932,0,0,0-2.545,1.379,1.41,1.41,0,0,0-.658.87c-.092.358-.141.747-.2,1.078-.222,1.348-.252,2.188-.324,2.193a5.369,5.369,0,0,1-.066-2.241,10.361,10.361,0,0,1,.141-1.141,1.883,1.883,0,0,1,.8-1.174,14.155,14.155,0,0,1,2.622-1.473c.972-.428,1.925-.755,2.79-1.039a17.91,17.91,0,0,1,2.348-.657,2.864,2.864,0,0,1,2.236.243" transform="translate(55.199 33.975)" fill="#875149"/>
            <path id="Trazado_914068" data-name="Trazado 914068" d="M222.906,133.048a5.334,5.334,0,0,1-1.907.938c-1.232.46-3,.84-4.844,1.492a3.239,3.239,0,0,0-1.164.573,4.678,4.678,0,0,0-.552,1.122,4.627,4.627,0,0,0-.445,2.11c.061.61.233,1.121.291,1.486s.059.574.023.579-.1-.184-.231-.521a8.119,8.119,0,0,1-.474-1.5,6.493,6.493,0,0,1,.976-3.639,3.421,3.421,0,0,1,1.386-.738c1.907-.673,3.678-.986,4.918-1.344a16.427,16.427,0,0,1,2.024-.563" transform="translate(55.788 34.753)" fill="#875149"/>
            <path id="Trazado_914069" data-name="Trazado 914069" d="M217.548,143.748c-.049.03-.494-.371-.971-1.255a2.868,2.868,0,0,1-.3-1.772,2.351,2.351,0,0,1,1.454-1.686,5.773,5.773,0,0,1,2.115-.37l1.686-.038a7.5,7.5,0,0,1,1.157.044c.3.062.4.246.367.262s-.145-.061-.39-.048-.637.088-1.111.135l-1.679.156a6.053,6.053,0,0,0-1.921.367,1.9,1.9,0,0,0-1.175,1.28,2.668,2.668,0,0,0,.158,1.511c.347.853.691,1.365.61,1.413" transform="translate(56.488 36.213)" fill="#875149"/>
            <path id="Trazado_914070" data-name="Trazado 914070" d="M270.561,46.17c-2.646-9.044-5.365-18.463-13.254-23.619-7.029-4.593-14.655-5.385-22.985-4.315-4.1.527-8.584,2.828-11.994,5.166-4.675,3.206-6.27,9.029-8.2,14.36-3.866,10.68-2.063,24.535,1.488,28.123l44.872,18.96c7.256-4.61,12.177-6.893,13.47-15.391.879-5.787-1.754-17.666-3.4-23.285" transform="translate(55.369 4.653)" fill="#263238"/>
            <path id="Trazado_914071" data-name="Trazado 914071" d="M256.46,29.528l-27.7-5.639c-8.81-.517-14.133,10.55-14.276,19.374-.159,9.8.034,21.779,1.534,29.017,3.014,14.556,14.341,15.9,14.341,15.9,0-.05.045.217.333,4.569l.446,9.809c4.245,11.7,16.218,9.622,30.943,2.636l-.766-70.646a5.163,5.163,0,0,0-4.86-5.016" transform="translate(56.018 6.236)" fill="#ba7e6d"/>
            <path id="Trazado_914072" data-name="Trazado 914072" d="M218.106,48.573a1.883,1.883,0,0,0,1.9,1.814,1.8,1.8,0,0,0,1.859-1.786,1.884,1.884,0,0,0-1.9-1.815,1.8,1.8,0,0,0-1.862,1.787" transform="translate(56.975 12.222)" fill="#263238"/>
            <path id="Trazado_914073" data-name="Trazado 914073" d="M216.837,45.73c.245.235,1.621-.887,3.645-.976,2.02-.119,3.554.854,3.762.6.1-.115-.156-.546-.825-.988a5.176,5.176,0,0,0-3.026-.779,4.965,4.965,0,0,0-2.887,1.083c-.6.507-.79.96-.67,1.064" transform="translate(56.635 11.383)" fill="#263238"/>
            <path id="Trazado_914074" data-name="Trazado 914074" d="M232.611,47.8a1.882,1.882,0,0,0,1.9,1.812,1.8,1.8,0,0,0,1.859-1.786,1.882,1.882,0,0,0-1.9-1.814,1.8,1.8,0,0,0-1.86,1.787" transform="translate(60.764 12.019)" fill="#263238"/>
            <path id="Trazado_914075" data-name="Trazado 914075" d="M232.48,44.567c.245.235,1.622-.887,3.645-.976,2.02-.119,3.554.854,3.762.6.1-.115-.153-.546-.825-.986a5.154,5.154,0,0,0-3.026-.781,4.961,4.961,0,0,0-2.886,1.083c-.6.506-.79.96-.671,1.064" transform="translate(60.721 11.079)" fill="#263238"/>
            <path id="Trazado_914076" data-name="Trazado 914076" d="M228.369,59.318a13.384,13.384,0,0,0-3.314-.439c-.52-.029-1.014-.11-1.117-.458a2.629,2.629,0,0,1,.274-1.548q.641-1.911,1.344-4.007c1.859-5.7,3.181-10.381,2.95-10.454S226.58,46.9,224.72,52.6q-.67,2.108-1.279,4.027a2.988,2.988,0,0,0-.173,2.041,1.3,1.3,0,0,0,.885.716,3.516,3.516,0,0,0,.883.081,13.109,13.109,0,0,0,3.332-.151" transform="translate(58.291 11.079)" fill="#263238"/>
            <path id="Trazado_914077" data-name="Trazado 914077" d="M227.065,76.132a37.343,37.343,0,0,0,19.4-6.157s-4.375,10.488-19.118,9.8Z" transform="translate(59.316 18.279)" fill="#875149"/>
            <path id="Trazado_914078" data-name="Trazado 914078" d="M232.664,59.571a2.7,2.7,0,0,0-2.3-1.116,3.506,3.506,0,0,0-3.12,1.732,2.185,2.185,0,0,0-.068,1.58c.131.261.033.135.248.309.782.627,1.3,1.608,2.28,1.793a3.391,3.391,0,0,0,3.033-1.508,2.7,2.7,0,0,0-.073-2.79" transform="translate(59.314 15.27)" fill="#875149"/>
            <path id="Trazado_914079" data-name="Trazado 914079" d="M231.512,39.414c.194.552,2.22.314,4.593.627,2.38.264,4.288.98,4.61.489.144-.235-.185-.755-.955-1.3a8.058,8.058,0,0,0-7.011-.851c-.877.343-1.32.771-1.237,1.033" transform="translate(60.475 9.91)" fill="#263238"/>
            <path id="Trazado_914080" data-name="Trazado 914080" d="M216.656,42.407c.492.357,1.9-.463,3.722-.912,1.806-.506,3.442-.487,3.689-1.039.1-.264-.246-.655-1.02-.922a5.777,5.777,0,0,0-3.206-.024,5.687,5.687,0,0,0-2.765,1.6c-.539.61-.642,1.121-.42,1.3" transform="translate(56.568 10.266)" fill="#263238"/>
            <path id="Trazado_914081" data-name="Trazado 914081" d="M225.511,23.078a32.59,32.59,0,0,0,3.8,17.24,11.949,11.949,0,0,0,3.032,3.921,5.346,5.346,0,0,0,4.683,1.087,19.857,19.857,0,0,1-4.957-11.018c2.085,4.009,4.223,8.092,7.449,11.256s7.784,5.315,12.238,4.547l-.549-2.987a10.452,10.452,0,0,0,4.016,5.3c1.937,1.162,4.667,1.2,6.29-.366-2.11-7.2,1.725-15.517-1.655-22.217-2.342-4.64-7.553-7.1-12.62-8.262a41.426,41.426,0,0,0-21.65.9" transform="translate(58.895 5.37)" fill="#263238"/>
            <path id="Trazado_914082" data-name="Trazado 914082" d="M226,22.61c-.016.107-.026.216-.042.323l.053.018L226,22.61" transform="translate(59.026 5.906)" fill="#263238"/>
            <path id="Trazado_914083" data-name="Trazado 914083" d="M229.6,23.191l-.918-.3c-2.874-1.2-4.815-2.669-8.8,1.476a26.565,26.565,0,0,0-5.215,8.762,34.083,34.083,0,0,0-2.52,9.187,39.143,39.143,0,0,0,.6,11.249c2.346-1.845,3.38-4.892,3.941-7.825s.787-5.981,2.024-8.7a22.711,22.711,0,0,0,.159,7.446,3.084,3.084,0,0,0,.952,1.768,1.3,1.3,0,0,0,1.817-.146,16.035,16.035,0,0,1-.7-8.8,45.528,45.528,0,0,1,2.641-8.533,43.975,43.975,0,0,0,1.769,14.836,3.818,3.818,0,0,0,1,1.878,3.5,3.5,0,0,0,3.079.381,7.325,7.325,0,0,1,3.169-.395A42.2,42.2,0,0,1,229.6,23.191" transform="translate(55.38 5.65)" fill="#263238"/>
            <path id="Trazado_914084" data-name="Trazado 914084" d="M239.666,103.125c2.313-3.948,5.079-7.958,5.176-12.533.082-3.868-1.792-7.585-1.675-11.452.124-4.1,2.453-7.806,3.192-11.839,1.792-9.788-5.924-19.684-3.429-29.317l12.834.675,9.323,49.786A60.354,60.354,0,0,1,258.7,119.66l-1.215-1.046q1.158-3.526,1.97-7.152a30.449,30.449,0,0,1-9.469,10.529c-4.276-1.635-8.731-3.011-13.063-5.88-1.56-4.3.429-9.038,2.742-12.986" transform="translate(61.746 9.922)" fill="#263238"/>
            <path id="Trazado_914085" data-name="Trazado 914085" d="M226.276,62.606c.048-.376,2.251-.283,4.5-1.542,2.282-1.2,3.4-3.1,3.743-2.934.153.069.079.677-.4,1.517a7.259,7.259,0,0,1-6.35,3.448c-.966-.054-1.516-.324-1.491-.489" transform="translate(59.109 15.183)" fill="#263238"/>
          </g>
        </g>
      </g>
    </g>
  </g>
</svg>
