<svg xmlns="http://www.w3.org/2000/svg" width="68.656" height="75.232" viewBox="0 0 68.656 75.232">
  <g id="Grupo_1102934" data-name="Grupo 1102934" transform="translate(-1118.394 -3315.446)">
    <circle id="Elipse_11528" data-name="Elipse 11528" cx="34.328" cy="34.328" r="34.328" transform="translate(1118.394 3322.022)" fill="#4045ab"/>
    <g id="Grupo_1103093" data-name="Grupo 1103093" transform="translate(1094.701 3315.446)">
      <path id="Trazado_913319" data-name="Trazado 913319" d="M85.141,170.367h-4.17V169.9a2.116,2.116,0,0,0-2.114-2.114H70.633a1.026,1.026,0,0,0,0,2.053h8.224a.061.061,0,0,1,.061.061v12.514a1.026,1.026,0,1,0,2.053,0V172.42h4.17a.252.252,0,0,1,.252.252v35.808a4.264,4.264,0,0,1-4.26,4.26H30.376a4.264,4.264,0,0,1-4.26-4.26V172.672a.252.252,0,0,1,.252-.252h4.307v35.1a2.628,2.628,0,0,0,2.625,2.625H78.346a2.628,2.628,0,0,0,2.625-2.625V186.791a1.026,1.026,0,0,0-2.053,0v14.77H62.313a7.494,7.494,0,0,0-5.463,2.362V190.647a1.026,1.026,0,0,0-2.053,0v13.277a7.494,7.494,0,0,0-5.463-2.362H44.67a1.026,1.026,0,1,0,0,2.053h4.664a5.471,5.471,0,0,1,5.373,4.482H33.3a.573.573,0,0,1-.572-.572v-3.909h7.564a1.026,1.026,0,1,0,0-2.053H32.728V169.9a.061.061,0,0,1,.061-.061h8.224a1.026,1.026,0,0,0,0-2.053H32.789a2.116,2.116,0,0,0-2.114,2.114v.468H26.368a2.307,2.307,0,0,0-2.3,2.3v35.808a6.319,6.319,0,0,0,6.312,6.312H81.133a6.319,6.319,0,0,0,6.312-6.312V172.672A2.307,2.307,0,0,0,85.141,170.367ZM62.313,203.614H78.918v3.91a.573.573,0,0,1-.572.572H56.94A5.471,5.471,0,0,1,62.313,203.614Z" transform="translate(0 -144.824)" fill="#ee4f47"/>
      <path id="Trazado_913320" data-name="Trazado 913320" d="M150.277,14.4a1.028,1.028,0,0,0,1.118-.926,12.623,12.623,0,1,1,22.891,8.465l-.025.037L167.693,32.2a1.026,1.026,0,0,0-.163.555v1.33a.49.49,0,0,1-.489.489h-.067l.654-11.1H168.8a3.038,3.038,0,0,0,3.034-3.034v-.125a3.034,3.034,0,0,0-6.063-.178l-.076,1.284h-3.6l-.076-1.284a3.034,3.034,0,0,0-6.063.178v.125a3.038,3.038,0,0,0,3.034,3.034h1.169l.653,11.088a.489.489,0,0,1-.419-.482v-1.33a1.027,1.027,0,0,0-.163-.555l-6.568-10.225-.025-.037a12.506,12.506,0,0,1-1.976-4.425,1.026,1.026,0,1,0-2,.46,14.549,14.549,0,0,0,2.286,5.129l6.394,9.953v1.028a2.544,2.544,0,0,0,1.516,2.324v1.736a3.316,3.316,0,0,0,3.312,3.312h1.588a3.316,3.316,0,0,0,3.312-3.312V36.41a2.545,2.545,0,0,0,1.516-2.324V33.058l6.393-9.953a14.676,14.676,0,1,0-26.625-9.822,1.026,1.026,0,0,0,.925,1.118Zm17.54,5.863a.981.981,0,0,1,1.961.058v.125a.983.983,0,0,1-.981.981h-1.048Zm-8.829,1.163a.983.983,0,0,1-.981-.981v-.125a.981.981,0,0,1,1.961-.058l.069,1.163Zm6.583,2.053-.654,11.1h-2.05l-.654-11.1Zm.443,14.665a1.261,1.261,0,0,1-1.259,1.259h-1.588a1.261,1.261,0,0,1-1.259-1.259V36.628h4.107v1.517Z" transform="translate(-108.138)" fill="#ee4f47"/>
      <path id="Trazado_913321" data-name="Trazado 913321" d="M381.037,31.6a1.023,1.023,0,0,0,.677-.255l2.239-1.966a1.026,1.026,0,0,0-1.354-1.543L380.359,29.8a1.026,1.026,0,0,0,.678,1.8Z" transform="translate(-307.235 -23.809)" fill="#ee4f47"/>
      <path id="Trazado_913322" data-name="Trazado 913322" d="M380.36,90.845l2.239,1.966a1.026,1.026,0,0,0,1.355-1.543L381.714,89.3a1.026,1.026,0,0,0-1.355,1.543Z" transform="translate(-307.236 -76.861)" fill="#ee4f47"/>
      <path id="Trazado_913323" data-name="Trazado 913323" d="M101.252,29.38l2.239,1.966a1.026,1.026,0,0,0,1.354-1.543l-2.239-1.966a1.026,1.026,0,0,0-1.354,1.543Z" transform="translate(-66.324 -23.808)" fill="#ee4f47"/>
      <path id="Trazado_913324" data-name="Trazado 913324" d="M101.93,93.068a1.023,1.023,0,0,0,.677-.255l2.239-1.966a1.026,1.026,0,0,0-1.354-1.543l-2.239,1.966a1.026,1.026,0,0,0,.678,1.8Z" transform="translate(-66.324 -76.862)" fill="#ee4f47"/>
      <path id="Trazado_913325" data-name="Trazado 913325" d="M113.066,253.68a1.026,1.026,0,0,0-1.026-1.026h-10.11a1.026,1.026,0,1,0,0,2.053h10.11A1.026,1.026,0,0,0,113.066,253.68Z" transform="translate(-66.324 -218.079)" fill="#ee4f47"/>
      <path id="Trazado_913326" data-name="Trazado 913326" d="M126.86,290.8H115.477a1.026,1.026,0,0,0,0,2.053H126.86a1.026,1.026,0,0,0,0-2.053Z" transform="translate(-78.018 -251.009)" fill="#ee4f47"/>
      <path id="Trazado_913327" data-name="Trazado 913327" d="M126.86,327.346H115.477a1.026,1.026,0,0,0,0,2.053H126.86a1.026,1.026,0,0,0,0-2.053Z" transform="translate(-78.018 -282.549)" fill="#ee4f47"/>
      <path id="Trazado_913328" data-name="Trazado 913328" d="M126.86,363.887H115.477a1.026,1.026,0,0,0,0,2.053H126.86a1.026,1.026,0,0,0,0-2.053Z" transform="translate(-78.018 -314.089)" fill="#ee4f47"/>
      <path id="Trazado_913329" data-name="Trazado 913329" d="M334.659,253.68a1.026,1.026,0,0,0-1.026-1.026h-10.11a1.026,1.026,0,0,0,0,2.053h10.11A1.026,1.026,0,0,0,334.659,253.68Z" transform="translate(-257.592 -218.079)" fill="#ee4f47"/>
      <path id="Trazado_913330" data-name="Trazado 913330" d="M312.056,290.8H300.673a1.026,1.026,0,0,0,0,2.053h11.383a1.026,1.026,0,0,0,0-2.053Z" transform="translate(-237.87 -251.009)" fill="#ee4f47"/>
      <path id="Trazado_913331" data-name="Trazado 913331" d="M312.056,327.346H300.673a1.026,1.026,0,0,0,0,2.053h11.383a1.026,1.026,0,0,0,0-2.053Z" transform="translate(-237.87 -282.549)" fill="#ee4f47"/>
      <path id="Trazado_913332" data-name="Trazado 913332" d="M312.056,363.887H300.673a1.026,1.026,0,0,0,0,2.053h11.383a1.026,1.026,0,0,0,0-2.053Z" transform="translate(-237.87 -314.089)" fill="#ee4f47"/>
    </g>
  </g>
</svg>
