<svg xmlns="http://www.w3.org/2000/svg" width="73.998" height="68.656" viewBox="0 0 73.998 68.656">
  <g id="Grupo_1102936" data-name="Grupo 1102936" transform="translate(-1113.053 -3322.022)">
    <circle id="Elipse_11528" data-name="Elipse 11528" cx="34.328" cy="34.328" r="34.328" transform="translate(1118.394 3322.022)" fill="#4045ab"/>
    <path id="Trazado_913333" data-name="Trazado 913333" d="M69.39,58.419a.88.88,0,0,1-.766.981l-5.093.629a.879.879,0,0,1-.981-.766l-.629-5.093a.88.88,0,1,1,1.747-.216l.364,2.943A29.3,29.3,0,0,0,40.057,10.76a29.326,29.326,0,0,0-18.541,6.611A.88.88,0,0,1,20.4,16.01,31.058,31.058,0,0,1,71.114,40.057,30.717,30.717,0,0,1,65.39,58.026l3.018-.373a.88.88,0,0,1,.981.766ZM60.7,44.6a4.011,4.011,0,0,0-2.835,6.844,2.331,2.331,0,0,1,0,3.3l-3.124,3.124a2.334,2.334,0,0,1-3.3,0A4.011,4.011,0,0,0,44.6,60.7a2.334,2.334,0,0,1-2.331,2.331H37.848A2.334,2.334,0,0,1,35.517,60.7a4.009,4.009,0,0,0-6.844-2.835,2.334,2.334,0,0,1-3.3,0l-3.124-3.124a2.331,2.331,0,0,1,0-3.3A4.011,4.011,0,0,0,19.418,44.6a2.334,2.334,0,0,1-2.331-2.331V40.7a1.526,1.526,0,0,1,1.525-1.525H28.817a1.525,1.525,0,0,1,1.522,1.439,9.734,9.734,0,0,0,19.436,0A1.525,1.525,0,0,1,51.3,39.177H61.5A1.526,1.526,0,0,1,63.027,40.7v1.564A2.333,2.333,0,0,1,60.7,44.6Zm.571-3.66H51.518a11.495,11.495,0,0,1-22.922,0H18.847v1.329a.571.571,0,0,0,.571.571A5.772,5.772,0,0,1,23.5,52.685a.571.571,0,0,0,0,.808l3.124,3.124a.572.572,0,0,0,.807,0,5.689,5.689,0,0,1,4.043-1.7,5.858,5.858,0,0,1,2.244.454,5.68,5.68,0,0,1,3.561,5.33.571.571,0,0,0,.571.571h4.418a.571.571,0,0,0,.571-.571,5.771,5.771,0,0,1,9.848-4.079.572.572,0,0,0,.807,0l3.124-3.124a.571.571,0,0,0,0-.807A5.772,5.772,0,0,1,60.7,42.837a.571.571,0,0,0,.571-.571V40.937ZM33.613,39.689a1.526,1.526,0,0,1,1.142-.512h10.6a1.522,1.522,0,0,1,1.514,1.707,6.866,6.866,0,0,1-13.632,0A1.527,1.527,0,0,1,33.613,39.689Zm11.512.985h0Zm-10.1.263a5.106,5.106,0,0,0,10.059,0ZM56.351,24.963V37.092a.88.88,0,1,0,1.76,0V25.843h2.747a.88.88,0,0,0,.608-1.517l-5.617-5.368a.88.88,0,0,0-1.216,0l-5.617,5.368a.88.88,0,0,0,.608,1.517H52.37V37.092a.88.88,0,1,0,1.76,0V24.963a.88.88,0,0,0-.88-.88H51.818l3.422-3.271,3.422,3.271H57.231A.88.88,0,0,0,56.351,24.963ZM41.167,29.732v7.361a.88.88,0,1,0,1.76,0v-6.48h2.747a.88.88,0,0,0,.608-1.517l-5.617-5.368a.88.88,0,0,0-1.216,0L33.832,29.1a.88.88,0,0,0,.608,1.517h2.747v6.48a.88.88,0,1,0,1.76,0V29.732a.88.88,0,0,0-.88-.88H36.635l3.422-3.27,3.422,3.271H42.048a.88.88,0,0,0-.88.88ZM19.256,35.38H22v1.712a.88.88,0,1,0,1.76,0V34.5a.88.88,0,0,0-.88-.88H21.451l3.422-3.271L28.3,33.62H26.864a.88.88,0,0,0-.88.88v2.592a.88.88,0,1,0,1.76,0V35.38h2.747a.88.88,0,0,0,.608-1.517L25.481,28.5a.88.88,0,0,0-1.216,0l-5.617,5.368a.88.88,0,0,0,.608,1.517ZM58.6,62.742A29.3,29.3,0,0,1,10.76,40.057a28.951,28.951,0,0,1,5.322-16.844l.364,2.945a.88.88,0,1,0,1.747-.216l-.629-5.093a.88.88,0,0,0-.982-.766l-5.093.629a.88.88,0,0,0,.216,1.747l3.018-.373A31.059,31.059,0,0,0,59.714,64.1.88.88,0,0,0,58.6,62.742Z" transform="translate(1104.053 3317.029)" fill="#ee4f47"/>
  </g>
</svg>
