<svg xmlns="http://www.w3.org/2000/svg" width="69.055" height="68.656" viewBox="0 0 69.055 68.656">
  <g id="Grupo_1102933" data-name="Grupo 1102933" transform="translate(-1117.996 -3322.022)">
    <circle id="Elipse_11528" data-name="Elipse 11528" cx="34.328" cy="34.328" r="34.328" transform="translate(1118.394 3322.022)" fill="#4045ab"/>
    <g id="Sharing" transform="translate(1117.996 3325.022)">
      <path id="Trazado_913315" data-name="Trazado 913315" d="M165.339,23.782a1.268,1.268,0,0,1-.746-.243c-7.563-5.5-11.086-10.385-11.086-15.388a9.427,9.427,0,0,1,1.717-5.589A5.952,5.952,0,0,1,160.057,0a7.253,7.253,0,0,1,5.281,2.373A7.253,7.253,0,0,1,170.62,0a5.952,5.952,0,0,1,4.834,2.563,9.427,9.427,0,0,1,1.717,5.589c0,5-3.523,9.893-11.086,15.388A1.268,1.268,0,0,1,165.339,23.782ZM160.057,2.54c-2.511,0-4.011,2.853-4.011,5.612,0,3.968,2.958,8.043,9.293,12.783,6.335-4.74,9.293-8.815,9.293-12.783,0-2.758-1.5-5.612-4.011-5.612a5.183,5.183,0,0,0-4.177,2.525,1.267,1.267,0,0,1-2.21,0,5.181,5.181,0,0,0-4.176-2.524Z" transform="translate(-135.784)" fill="#ee4f47"/>
      <path id="Trazado_913316" data-name="Trazado 913316" d="M21.8,258.1a6.551,6.551,0,1,1,6.551-6.551A6.559,6.559,0,0,1,21.8,258.1Zm0-10.563a4.011,4.011,0,1,0,4.011,4.011A4.016,4.016,0,0,0,21.8,247.54Z" transform="translate(-13.489 -216.716)" fill="#ee4f47"/>
      <path id="Trazado_913317" data-name="Trazado 913317" d="M388.791,258.1a6.551,6.551,0,1,1,6.551-6.551A6.559,6.559,0,0,1,388.791,258.1Zm0-10.563a4.011,4.011,0,1,0,4.011,4.011A4.016,4.016,0,0,0,388.791,247.54Z" transform="translate(-338.112 -216.716)" fill="#ee4f47"/>
      <path id="Trazado_913318" data-name="Trazado 913318" d="M56.6,261.514a8.431,8.431,0,0,0-5.919-2.43H43.638a5.778,5.778,0,0,1-5.772-5.772,8.312,8.312,0,0,0-16.623,0,5.91,5.91,0,0,1-5.889,5.772H8.312A8.321,8.321,0,0,0,0,267.4v7.159a1.27,1.27,0,0,0,1.27,1.27H15.353a1.27,1.27,0,0,0,1.27-1.27v-5.94a15.5,15.5,0,0,0,12.926-9.2,15.386,15.386,0,0,0,12.818,9.2v5.941a1.27,1.27,0,0,0,1.27,1.27h14.2a1.27,1.27,0,0,0,1.27-1.27V267.4A8.179,8.179,0,0,0,56.6,261.514Zm-41.246,4.611a1.27,1.27,0,0,0-1.27,1.27v5.889H2.54V267.4a5.778,5.778,0,0,1,5.772-5.772h7.042a8.431,8.431,0,0,0,5.92-2.43,8.179,8.179,0,0,0,2.509-5.881,5.78,5.78,0,0,1,4.5-5.629v5.629A12.887,12.887,0,0,1,15.353,266.125Zm41.215,7.159H44.908V267.4a1.27,1.27,0,0,0-1.27-1.27,12.828,12.828,0,0,1-12.814-12.814v-5.629a5.78,5.78,0,0,1,4.5,5.629,8.321,8.321,0,0,0,8.312,8.312h7.042a5.91,5.91,0,0,1,5.889,5.772Z" transform="translate(0 -216.716)" fill="#ee4f47"/>
    </g>
  </g>
</svg>
