<svg xmlns="http://www.w3.org/2000/svg" width="68.657" height="70.276" viewBox="0 0 68.657 70.276">
  <g id="Grupo_1101173" data-name="Grupo 1101173" transform="translate(-1118.394 -3320.403)">
    <circle id="Elipse_11528" data-name="Elipse 11528" cx="34.328" cy="34.328" r="34.328" transform="translate(1118.394 3322.022)" fill="#4045ab"/>
    <g id="corporativo" transform="translate(1117.789 3312.402)">
      <path id="Trazado_913925" data-name="Trazado 913925" d="M35.752,39.1a29.218,29.218,0,0,1,27.331,19.07l1.765-.648A30.877,30.877,0,0,0,55.718,44.55V26.809a.94.94,0,0,0-.693-.907L45.373,23.27V15.524a1.883,1.883,0,0,0-1.881-1.881H42L36.633,8.276a.94.94,0,0,0-1.329,0h0l-5.367,5.367H28.444a1.883,1.883,0,0,0-1.881,1.881V23.27L16.912,25.9a.94.94,0,0,0-.693.907V44.177A30.9,30.9,0,0,0,6.656,57.52l1.765.648A29.217,29.217,0,0,1,35.752,39.1Zm9.62-13.879,8.464,2.308V43.084a31.2,31.2,0,0,0-8.464-4.314ZM37.849,37.3c-.7-.048-1.393-.082-2.1-.082-.559,0-1.112.035-1.665.065V35.273h3.762ZM35.968,10.271l3.372,3.372H32.6Zm-7.524,5.253H43.492v22.7A30.761,30.761,0,0,0,39.73,37.5V34.333a.941.941,0,0,0-.94-.94H33.147a.941.941,0,0,0-.94.94v3.113a30.8,30.8,0,0,0-3.762.66Zm-10.345,12,8.464-2.308v13.41A31.2,31.2,0,0,0,18.1,42.766Z" fill="#ee4f47"/>
      <path id="Trazado_913926" data-name="Trazado 913926" d="M139.737,339.525V332a4.7,4.7,0,0,0-3.094-4.4,4.7,4.7,0,1,0-6.978,0,4.7,4.7,0,0,0-2.49,2.142,4.692,4.692,0,0,0-1.82-1.2,4.694,4.694,0,1,0-6.986,0,4.693,4.693,0,0,0-1.807,1.2,4.7,4.7,0,0,0-2.492-2.142,4.694,4.694,0,1,0-6.986,0A4.7,4.7,0,0,0,104,332v7.524a.94.94,0,0,0,.94.94h10.345a.94.94,0,0,0,.94.94h11.285a.94.94,0,0,0,.94-.94H138.8a.94.94,0,0,0,.94-.94Zm-29.156-17.869.108,0a2.809,2.809,0,0,1,1.989.938H108.5A2.806,2.806,0,0,1,110.582,321.656Zm2.814,2.821c0,.036.008.071.007.107a2.817,2.817,0,0,1-5.631-.107Zm-1.969,9.265-.843,1.265-.843-1.265.843-2.53Zm3.859,4.841h-9.4V332a2.824,2.824,0,0,1,2.821-2.821h.576l-1.468,4.4a.94.94,0,0,0,.11.819l1.881,2.821a.94.94,0,0,0,1.565,0l1.881-2.821a.94.94,0,0,0,.11-.819l-1.468-4.4h.576A2.824,2.824,0,0,1,115.285,332Zm6.582-15.988.108,0a2.808,2.808,0,0,1,1.989.938h-4.181A2.805,2.805,0,0,1,121.867,322.6Zm2.814,2.821c0,.036.008.071.007.107a2.817,2.817,0,0,1-5.631-.107Zm-1.969,9.265-.843,1.265-.843-1.265.843-2.53Zm3.859,4.841h-9.4v-6.583a2.824,2.824,0,0,1,2.821-2.821h.576l-1.468,4.4a.94.94,0,0,0,.11.819l1.881,2.821a.94.94,0,0,0,1.565,0l1.881-2.821a.94.94,0,0,0,.11-.819l-1.468-4.4h.576a2.824,2.824,0,0,1,2.821,2.821Zm6.583-17.869a2.8,2.8,0,0,1,2.088.94h-4.175A2.8,2.8,0,0,1,133.154,321.656Zm2.821,2.821a2.821,2.821,0,0,1-5.643,0ZM134,333.743l-.843,1.265-.843-1.265.843-2.53ZM128.452,332a2.824,2.824,0,0,1,2.821-2.821h.576l-1.468,4.4a.94.94,0,0,0,.11.819l1.881,2.821a.94.94,0,0,0,1.565,0l1.881-2.821a.94.94,0,0,0,.11-.819l-1.468-4.4h.576A2.824,2.824,0,0,1,137.856,332v6.583h-9.4Z" transform="translate(-85.901 -275.097)" fill="#ee4f47"/>
      <path id="Trazado_913927" data-name="Trazado 913927" d="M208,96h11.285v1.881H208Z" transform="translate(-177.675 -77.655)" fill="#ee4f47"/>
      <path id="Trazado_913928" data-name="Trazado 913928" d="M208,128h11.285v1.881H208Z" transform="translate(-177.675 -105.893)" fill="#ee4f47"/>
      <path id="Trazado_913929" data-name="Trazado 913929" d="M208,160h11.285v1.881H208Z" transform="translate(-177.675 -134.131)" fill="#ee4f47"/>
      <path id="Trazado_913930" data-name="Trazado 913930" d="M208,192h11.285v1.881H208Z" transform="translate(-177.675 -162.369)" fill="#ee4f47"/>
      <path id="Trazado_913931" data-name="Trazado 913931" d="M392.851,45.793c1.893.477,2.279.863,2.755,2.756a1.129,1.129,0,0,0,2.189,0c.476-1.893.862-2.279,2.754-2.755a1.128,1.128,0,0,0,0-2.188c-1.893-.477-2.279-.863-2.755-2.756a1.129,1.129,0,0,0-2.189,0c-.476,1.893-.862,2.279-2.754,2.755a1.128,1.128,0,0,0,0,2.188Zm3.85-2.5A3.6,3.6,0,0,0,398.11,44.7a3.6,3.6,0,0,0-1.409,1.409,3.6,3.6,0,0,0-1.409-1.409A3.6,3.6,0,0,0,396.7,43.289Z" transform="translate(-340.042 -28.234)" fill="#ee4f47"/>
      <path id="Trazado_913932" data-name="Trazado 913932" d="M32.851,77.793c1.893.477,2.279.863,2.755,2.756a1.129,1.129,0,0,0,2.189,0c.476-1.893.862-2.279,2.754-2.755a1.128,1.128,0,0,0,0-2.188c-1.893-.477-2.279-.863-2.755-2.756a1.129,1.129,0,0,0-2.189,0c-.476,1.893-.862,2.279-2.754,2.755a1.128,1.128,0,0,0,0,2.188Zm3.85-2.5A3.6,3.6,0,0,0,38.11,76.7,3.6,3.6,0,0,0,36.7,78.108,3.6,3.6,0,0,0,35.291,76.7,3.6,3.6,0,0,0,36.7,75.289Z" transform="translate(-22.363 -56.473)" fill="#ee4f47"/>
      <path id="Trazado_913933" data-name="Trazado 913933" d="M120,200h4.7v1.881H120Z" transform="translate(-100.02 -169.429)" fill="#ee4f47"/>
      <path id="Trazado_913934" data-name="Trazado 913934" d="M352,200h4.7v1.881H352Z" transform="translate(-304.746 -169.429)" fill="#ee4f47"/>
      <path id="Trazado_913935" data-name="Trazado 913935" d="M120,232h4.7v1.881H120Z" transform="translate(-100.02 -197.667)" fill="#ee4f47"/>
      <path id="Trazado_913936" data-name="Trazado 913936" d="M352,232h4.7v1.881H352Z" transform="translate(-304.746 -197.667)" fill="#ee4f47"/>
    </g>
  </g>
</svg>
