<svg xmlns="http://www.w3.org/2000/svg" width="68.657" height="68.656" viewBox="0 0 68.657 68.656">
  <g id="Grupo_1101172" data-name="Grupo 1101172" transform="translate(-1118.394 -3322.022)">
    <circle id="Elipse_11528" data-name="Elipse 11528" cx="34.328" cy="34.328" r="34.328" transform="translate(1118.394 3322.022)" fill="#4045ab"/>
    <g id="toma-de-decisiones" transform="translate(1121.615 3322.249)">
      <path id="Trazado_913920" data-name="Trazado 913920" d="M60.04,22.436l-7.265-7.265A3.839,3.839,0,1,0,47.347,20.6l.869.869a23.682,23.682,0,0,0-13.38,6.126V13.1l.717.718a3.839,3.839,0,1,0,5.428-5.43L33.717,1.123a3.857,3.857,0,0,0-5.441,0L21.022,8.378a3.714,3.714,0,0,0-.817,4.175,3.726,3.726,0,0,0,3.537,2.389,3.818,3.818,0,0,0,2.7-1.124l.717-.717v3.661a.887.887,0,0,0,1.773,0v-5.8a.887.887,0,0,0-1.514-.627l-2.23,2.231a2.055,2.055,0,0,1-1.461.605h-.032a1.961,1.961,0,0,1-1.852-1.3,1.946,1.946,0,0,1,.4-2.21l.022-.022,7.271-7.271.012-.012a2.085,2.085,0,0,1,2.9,0l.012.012,7.269,7.271a2.066,2.066,0,0,1-2.92,2.922l-2.231-2.232a.887.887,0,0,0-1.514.627V36.05a23.692,23.692,0,0,0-4.131-6.639v-8.5a.887.887,0,1,0-1.773,0V27.6A23.582,23.582,0,0,0,13.777,21.47l.869-.869a3.839,3.839,0,0,0-5.429-5.429L1.953,22.436a3.856,3.856,0,0,0,0,5.44l7.265,7.265.011.011a3.733,3.733,0,0,0,5.388-.04,3.733,3.733,0,0,0,.041-5.388l-.011-.011-.407-.407A16.1,16.1,0,0,1,27.158,45.061v11.63a3.839,3.839,0,0,0,7.677,0V45.063A16.1,16.1,0,0,1,47.754,29.305l-.407.407-.011.011a3.839,3.839,0,0,0,5.429,5.428.887.887,0,1,0-1.232-1.275,2.065,2.065,0,0,1-2.925-2.916l2.21-2.209a.887.887,0,0,0-.664-1.513A17.9,17.9,0,0,0,34.835,37.307V30.1A21.909,21.909,0,0,1,50.242,23.1a.887.887,0,0,0,.6-1.513L48.6,19.346a2.065,2.065,0,0,1,2.921-2.921L58.791,23.7l.013.012a2.082,2.082,0,0,1,0,2.9l-.013.012L54.46,30.948A.887.887,0,0,0,55.715,32.2l4.325-4.326a3.854,3.854,0,0,0,0-5.44Zm-48.2,4.8H11.8a.887.887,0,0,0-.627,1.514l2.209,2.209a1.967,1.967,0,0,1-.024,2.9,1.967,1.967,0,0,1-2.9.024L3.2,26.617,3.189,26.6a2.084,2.084,0,0,1,0-2.9L3.2,23.7l7.271-7.271a2.065,2.065,0,0,1,2.921,2.921L11.15,21.589a.887.887,0,0,0,.6,1.513A22,22,0,0,1,33.062,45.063V56.691a2.065,2.065,0,1,1-4.13,0V45.063a17.861,17.861,0,0,0-17.09-17.824Z" transform="translate(0 0)" fill="#ee4f47"/>
      <path id="Trazado_913921" data-name="Trazado 913921" d="M62.941,360.854a5.772,5.772,0,1,0,5.772,5.772A5.779,5.779,0,0,0,62.941,360.854Zm0,9.771a4,4,0,1,1,4-4A4,4,0,0,1,62.941,370.625Z" transform="translate(-49.679 -318.193)" fill="#ee4f47"/>
      <path id="Trazado_913922" data-name="Trazado 913922" d="M89.5,397.664l-1.364,1.169-.5-.5a.887.887,0,1,0-1.254,1.254l1.081,1.081a.886.886,0,0,0,1.2.046l1.987-1.7a.887.887,0,0,0-1.154-1.346Z" transform="translate(-75.205 -350.464)" fill="#ee4f47"/>
      <path id="Trazado_913923" data-name="Trazado 913923" d="M362.955,360.854a5.772,5.772,0,1,0,5.772,5.772A5.779,5.779,0,0,0,362.955,360.854Zm0,9.771a4,4,0,1,1,4-4A4,4,0,0,1,362.955,370.625Z" transform="translate(-314.224 -318.193)" fill="#ee4f47"/>
      <path id="Trazado_913924" data-name="Trazado 913924" d="M392.6,392.724a.887.887,0,0,0-1.254,0l-.522.522-.522-.522a.887.887,0,1,0-1.254,1.254l.521.521-.521.521a.887.887,0,0,0,1.254,1.254l.522-.522.522.522a.887.887,0,1,0,1.254-1.254l-.521-.521.521-.521A.887.887,0,0,0,392.6,392.724Z" transform="translate(-342.096 -346.066)" fill="#ee4f47"/>
    </g>
  </g>
</svg>
