<svg xmlns="http://www.w3.org/2000/svg" width="68.656" height="68.656" viewBox="0 0 68.656 68.656">
  <g id="Grupo_1101004" data-name="Grupo 1101004" transform="translate(-1118.394 -3322.022)">
    <circle id="Elipse_11528" data-name="Elipse 11528" cx="34.328" cy="34.328" r="34.328" transform="translate(1118.394 3322.022)" fill="#4045ab"/>
    <g id="Grupo_1103084" data-name="Grupo 1103084" transform="translate(1111.157 3312.831)">
      <g id="Grupo_1103083" data-name="Grupo 1103083" transform="translate(6.173 8.25)">
        <path id="Trazado_913297" data-name="Trazado 913297" d="M55.469,23.212a1,1,0,0,0-1.129-.849l-5.505.759a1,1,0,0,0-.849,1.129l.43,3.117-1.459,1L39.183,25.78a6.877,6.877,0,0,0-7,1.649L25.2,34.412a5.909,5.909,0,0,0-1.4,6.045l1.719,5a2.95,2.95,0,0,0,2.788,2A3.421,3.421,0,0,0,31,45.9a5.812,5.812,0,0,0,1.549-3.956l-.05-2.778c.518.388,12.5,9.6,12.569,9.662A1.4,1.4,0,0,1,43.319,51c-1.6-1.091-5.6-3.841-7.1-4.946a1,1,0,1,0-1.159,1.629l5.685,4.046a1.405,1.405,0,0,1,.24,2.048,1.424,1.424,0,0,1-1.838.24L31.5,48.76A1,1,0,1,0,30.361,50.4l4.286,2.947a1.388,1.388,0,0,1,.08,1.908,1.408,1.408,0,0,1-1.818.26c-.045-.006-7.713-5.175-7.713-5.175A1,1,0,1,0,24.086,52l5.355,3.6a1.4,1.4,0,0,1-.59,2.358,1.365,1.365,0,0,1-1.079-.15L14.125,46.911l7.224-15.077,2.638.39a.764.764,0,0,0,.15.01,1,1,0,0,0,.15-1.988l-2.038-.3c.379-.593.441-1.382-.28-1.738L16.783,25.77a1,1,0,0,0-1.329.48L5.872,46.262a1,1,0,0,0,.48,1.339l5.175,2.438a.992.992,0,0,0,1.329-.47l.38-.8L26.574,59.4a3.345,3.345,0,0,0,1.918.6,3.407,3.407,0,0,0,3.337-2.818A3.4,3.4,0,0,0,37,54.974l1.009.689a3.419,3.419,0,0,0,5.3-2.518c3.494.913,5.8-3.924,2.847-5.995l4.436-4.026.14,1.029A1,1,0,0,0,51.862,45l5.505-.759a.953.953,0,0,0,.659-.39.97.97,0,0,0,.19-.739ZM11.478,47.81,8.111,46.222l8.722-18.214L20.2,29.587c-.04.08-.367.747-.38.8Zm33.071-1.9-10.86-8.353a1.987,1.987,0,0,0-3.137,1.589c-.044,1.641.341,4.156-1.019,5.405l-.539.58a.924.924,0,0,1-.889.3.942.942,0,0,1-.7-.629l-1.709-5a3.877,3.877,0,0,1,.919-3.986l6.974-6.974a4.867,4.867,0,0,1,4.956-1.169L46.8,30.426c.65.273,1.425-.552,1.928-.839l1.539,11.14Zm8.033-3.017L50.1,24.961l3.517-.48L56.1,42.405Z" fill="#ee4f47"/>
        <path id="Trazado_913298" data-name="Trazado 913298" d="M16.052,20.019,26.72,27.761a1,1,0,0,0,1.173,0L38.98,19.719c4.373-2.905,3.975-9.561.386-13.031a9.074,9.074,0,0,0-12.056-.634c-9.576-7.2-20.324,6.225-11.258,13.965ZM21.631,6.047A6.98,6.98,0,0,1,26.6,8.1a1,1,0,0,0,1.408,0c4.809-4.785,12.721-.6,12.149,5.92a5.388,5.388,0,0,1-2.343,4.07L27.307,25.717l-10.058-7.3c-5.106-3.9-2.02-12.527,4.382-12.372Z" fill="#ee4f47"/>
        <path id="Trazado_913299" data-name="Trazado 913299" d="M32.984,10.044a3.375,3.375,0,0,1,3.195,3.622,1,1,0,0,0,1,1.089c2.181-.273.469-4.335-.634-5.241-.838-.961-4.284-2.563-4.556-.47a1,1,0,0,0,1,1Z" fill="#ee4f47"/>
      </g>
    </g>
  </g>
</svg>
