<svg id="Grupo_1103441" data-name="Grupo 1103441" xmlns="http://www.w3.org/2000/svg" width="95.094" height="95.094" viewBox="0 0 95.094 95.094">
  <path id="Trazado_913607" data-name="Trazado 913607" d="M201.114,370.675l-13.433-8.961V344.547h-5.572v17.167l-13.433,8.961,3.092,4.635,10.341-6.9v7.236h5.572v-7.236l10.341,6.9Z" transform="translate(-137.348 -280.554)" fill="#12263f"/>
  <path id="Trazado_913608" data-name="Trazado 913608" d="M259.6,361.714V344.547H257v31.1h2.6v-7.236l10.341,6.9,3.092-4.635Z" transform="translate(-209.267 -280.554)" fill="#12263f"/>
  <path id="Trazado_913609" data-name="Trazado 913609" d="M112.3,116.1H27.367V60.577H112.3Z" transform="translate(-22.284 -49.326)" fill="#f2f2fc"/>
  <rect id="Rect치ngulo_404218" data-name="Rect치ngulo 404218" width="42.278" height="55.528" transform="translate(47.733 11.251)" fill="#d8d9fb"/>
  <path id="Trazado_913610" data-name="Trazado 913610" d="M135.9,158.689l12.119-12.083v4.1h5.572V137.109H140.348v5.572h3.718l-8.812,8.786-13.642-13.642L104.688,154.75V136.216H99.116v28.045h58.691v-5.572Zm-1.3,0h-25.97L121.613,145.7Z" transform="translate(-80.707 -110.916)" fill="#ee4f47"/>
  <path id="Trazado_913611" data-name="Trazado 913611" d="M264.462,162.6l12.119-12.083v4.1h5.572V141.024H268.908V146.6h3.718l-8.812,8.786L257,148.567v7.88l6.158,6.158H257v5.572h29.367V162.6Z" transform="translate(-209.267 -114.831)" fill="#ee4f47"/>
  <path id="Trazado_913612" data-name="Trazado 913612" d="M95.094,13.447H0V0H95.094Z" fill="#12263f"/>
  <rect id="Rect치ngulo_404219" data-name="Rect치ngulo 404219" width="47.361" height="13.447" transform="translate(47.733)" fill="#12263f"/>
</svg>
