<svg xmlns="http://www.w3.org/2000/svg" width="68.656" height="68.656" viewBox="0 0 68.656 68.656">
  <g id="Grupo_1101005" data-name="Grupo 1101005" transform="translate(-1118.394 -3322.022)">
    <circle id="Elipse_11528" data-name="Elipse 11528" cx="34.328" cy="34.328" r="34.328" transform="translate(1118.394 3322.022)" fill="#4045ab"/>
    <g id="Grupo_1103086" data-name="Grupo 1103086" transform="translate(1110.773 3322.28)">
      <path id="Trazado_913300" data-name="Trazado 913300" d="M61.826,81.929a5.265,5.265,0,0,0-7.033-2.069l-11,5.732a4.376,4.376,0,0,0-3-3.469l-7.87-2.475c-.005,0-.01,0-.016-.006l-7.332-2.307c-2.79-.89-3.109-.862-5.7.5l-7.318,3.817c-1.645.855-2.751,1.5-3.113,2.655s.171,2.314,1.028,3.958l4.1,7.856c1.833,3.507,2.788,3.833,6.386,2.189l1.277-.583,13.5,1.312.96.1c.978.1,1.681.163,2.267.163,1.349,0,2.071-.34,4.075-1.4l16.639-8.678a5.282,5.282,0,0,0,2.152-7.295Zm-1.856,3.42a2.825,2.825,0,0,1-1.418,1.72L42.76,95.3l-.856.449c-2.34,1.232-2.34,1.232-4.967.967l-14.8-1.436a1.222,1.222,0,0,0-.622.1l-1.574.719a7.67,7.67,0,0,1-2.055.741A7.427,7.427,0,0,1,16.724,95l-4.1-7.854a7.435,7.435,0,0,1-.865-2.106c.085-.282,1.466-.995,1.918-1.23l6.769-3.528.562-.295a6.847,6.847,0,0,1,1.857-.826,6.838,6.838,0,0,1,1.973.486l4.712,1.483.015.006,10.5,3.3A1.946,1.946,0,0,1,38.9,88.152l-1.2-.377-.839-.263h-.006L28.4,84.851a1.214,1.214,0,1,0-.729,2.317l9.055,2.849,1.907.6a1.045,1.045,0,0,0,.574.033c.09.006.181.021.272.021a4.393,4.393,0,0,0,3.678-2.006l12.762-6.655a2.85,2.85,0,0,1,4.052,3.336Z" transform="translate(0 -36.987)" fill="#ee4f47"/>
      <g id="Grupo_1103085" data-name="Grupo 1103085" transform="translate(11.608 4.8)">
        <path id="Trazado_913301" data-name="Trazado 913301" d="M59.077,23.034l-.033-.012-.015-.005-.268-.093a7.7,7.7,0,0,1-.729-.273,7.571,7.571,0,0,1-.291-.718l-.1-.268q-.2-.521-.425-1.027l-.116-.258a7.776,7.776,0,0,1-.3-.718,7.665,7.665,0,0,1,.322-.71l.122-.252.006-.013.016-.034c1.457-3.021,1.36-3.577-1.045-5.983l-1.555-1.555c-2.373-2.373-2.929-2.466-5.95-1.01l-.3.146a7.6,7.6,0,0,1-.705.32,7.668,7.668,0,0,1-.713-.3l-.264-.118q-.506-.225-1.026-.424l-.265-.1c-.3-.114-.61-.232-.722-.3a7.8,7.8,0,0,1-.276-.733l-.086-.249-.022-.063C43.231,5.128,42.772,4.8,39.416,4.8H37.171c-3.352,0-3.813.327-4.936,3.539l-.01.028-.084.243a7.775,7.775,0,0,1-.273.729,7.544,7.544,0,0,1-.717.291l-.27.1q-.519.2-1.026.425l-.259.116a7.666,7.666,0,0,1-.717.3c-.123-.037-.421-.182-.71-.322l-.251-.122-.019-.009-.026-.013c-3.023-1.457-3.578-1.36-5.95,1.01L20.335,12.7c-2.372,2.372-2.466,2.927-1.009,5.95l.146.3a7.7,7.7,0,0,1,.319.7,7.654,7.654,0,0,1-.3.709l-.118.262q-.226.508-.426,1.03l-.1.264a7.75,7.75,0,0,1-.3.722,7.672,7.672,0,0,1-.732.275l-.312.108c-3.166,1.107-3.492,1.567-3.492,4.921V30.2c0,3.354.326,3.814,3.493,4.921.437.151.9.309,1.041.382.135.239.367,1,.8,1.955l.026.058a1.214,1.214,0,1,0,2.219-.986l-.028-.063c-.291-.655-.365-.893-.451-1.109a3.054,3.054,0,0,0-2.49-2.422l-.26-.09-.4,1.146.348-1.166a7.606,7.606,0,0,1-1.755-.729,7.611,7.611,0,0,1-.11-1.9V27.954a7.606,7.606,0,0,1,.11-1.9,7.583,7.583,0,0,1,1.754-.729l.306-.107a3.073,3.073,0,0,0,2.5-2.432l.1-.257q.176-.461.376-.909l.114-.255a3.057,3.057,0,0,0-.051-3.467l-.121-.249-.024-.049a7.574,7.574,0,0,1-.724-1.758,7.558,7.558,0,0,1,1.263-1.42l1.587-1.588a7.575,7.575,0,0,1,1.42-1.263,7.874,7.874,0,0,1,1.757.724l.044.021.017.008.229.111a3.069,3.069,0,0,0,3.481.054l.253-.113q.448-.2.907-.375l.263-.1a3.066,3.066,0,0,0,2.426-2.5l.09-.261.016-.049a7.578,7.578,0,0,1,.729-1.755,7.348,7.348,0,0,1,1.863-.117h2.283a8.033,8.033,0,0,1,1.9.111,7.593,7.593,0,0,1,.729,1.755l.106.306a3.073,3.073,0,0,0,2.431,2.5l.258.1q.459.176.905.375L46,12.49a3.062,3.062,0,0,0,3.474-.053l.295-.143a7.469,7.469,0,0,1,1.757-.724,7.559,7.559,0,0,1,1.42,1.263L54.5,14.388l.034.034a7.586,7.586,0,0,1,1.263,1.42,7.556,7.556,0,0,1-.724,1.757l-.021.045-.005.011-.114.236a3.071,3.071,0,0,0-.053,3.483l.113.253q.2.446.374.9l.1.261a3.065,3.065,0,0,0,2.5,2.426l.25.087.014,0,.049.017a7.578,7.578,0,0,1,1.755.729,7.573,7.573,0,0,1,.111,1.9V30.2a7.572,7.572,0,0,1-.111,1.9,7.8,7.8,0,0,1-1.8.747l-.015.005-.243.085a3.072,3.072,0,0,0-2.5,2.431l-.1.259q-.176.458-.375.905l-.115.257a3.062,3.062,0,0,0,.054,3.474l.115.237a1.214,1.214,0,0,0,2.228-.966c-.011-.025-.022-.051-.034-.076l-.124-.256c-.139-.287-.283-.583-.321-.706.034-.124.168-.423.3-.712l.118-.263q.225-.506.425-1.026l.1-.265a7.663,7.663,0,0,1,.3-.722,7.808,7.808,0,0,1,.733-.275l.264-.092.046-.017c3.167-1.107,3.493-1.567,3.493-4.921V27.955c0-3.354-.326-3.814-3.493-4.921Z" transform="translate(-14.018 -4.8)" fill="#ee4f47"/>
        <path id="Trazado_913302" data-name="Trazado 913302" d="M51.612,30.7a11.7,11.7,0,0,0-6.938,21.112,1.215,1.215,0,1,0,1.442-1.955,9.265,9.265,0,1,1,8.425,1.333,1.214,1.214,0,1,0,.767,2.3,11.7,11.7,0,0,0-3.7-22.795Z" transform="translate(-27.335 -18.118)" fill="#ee4f47"/>
        <path id="Trazado_913303" data-name="Trazado 913303" d="M63.308,46.3a1.214,1.214,0,0,0-1.717,0l-4.754,4.754-2.123-2.123A1.214,1.214,0,1,0,53,50.652l2.982,2.982a1.214,1.214,0,0,0,1.717,0l5.613-5.613A1.214,1.214,0,0,0,63.308,46.3Z" transform="translate(-33.878 -25.959)" fill="#ee4f47"/>
      </g>
    </g>
  </g>
</svg>
