<svg xmlns="http://www.w3.org/2000/svg" width="68.656" height="68.656" viewBox="0 0 68.656 68.656">
  <g id="Grupo_1101006" data-name="Grupo 1101006" transform="translate(-1118.394 -3322.022)">
    <path id="Trazado_913304" data-name="Trazado 913304" d="M34.328,0A34.328,34.328,0,1,1,0,34.328,34.328,34.328,0,0,1,34.328,0Z" transform="translate(1118.394 3322.022)" fill="#4045ab"/>
    <g id="Grupo_1103087" data-name="Grupo 1103087" transform="translate(1149.104 3342.08)">
      <g id="Grupo_1103088" data-name="Grupo 1103088" transform="translate(-30 -15)">
        <path id="Trazado_913305" data-name="Trazado 913305" d="M49.491,2H32.655A3.889,3.889,0,0,0,28.77,5.885v10.36a1.3,1.3,0,0,0,1.3,1.3h1.3v3.885A1.295,1.295,0,0,0,33.3,22.55l6.378-3.644a10.378,10.378,0,0,1,5.14-1.365h4.675a3.889,3.889,0,0,0,3.885-3.885V5.885A3.889,3.889,0,0,0,49.491,2Zm1.3,11.655a1.3,1.3,0,0,1-1.3,1.3H44.816a12.964,12.964,0,0,0-6.425,1.707l-4.44,2.537V16.246a1.3,1.3,0,0,0-1.3-1.3h-1.3V5.885a1.3,1.3,0,0,1,1.3-1.3H49.491a1.3,1.3,0,0,1,1.3,1.3ZM42.812,42.2a9.065,9.065,0,1,0-12.543,0,11.689,11.689,0,0,0-6.2,2.5,1.3,1.3,0,0,0,1.62,2.021,8.965,8.965,0,0,1,5.666-1.989h10.36A9.076,9.076,0,0,1,50.786,53.8v1.3a1.3,1.3,0,0,1-1.3,1.3H45.606v-5.18a1.3,1.3,0,1,0-2.59,0v5.18H22.3a1.3,1.3,0,1,0,0,2.59h27.2A3.889,3.889,0,0,0,53.376,55.1V53.8A11.669,11.669,0,0,0,42.812,42.2ZM30.065,35.671a6.475,6.475,0,1,1,6.475,6.475A6.483,6.483,0,0,1,30.065,35.671Z" transform="translate(5.606 0)" fill="#ee4f47"/>
        <path id="Trazado_913306" data-name="Trazado 913306" d="M5.885,17.541H10.56a10.378,10.378,0,0,1,5.14,1.365l6.378,3.644a1.3,1.3,0,0,0,1.938-1.124V17.541h1.3a1.3,1.3,0,0,0,1.3-1.3V5.885A3.889,3.889,0,0,0,22.721,2H5.885A3.889,3.889,0,0,0,2,5.885v7.77a3.889,3.889,0,0,0,3.885,3.885ZM4.59,5.885a1.3,1.3,0,0,1,1.3-1.3H22.721a1.3,1.3,0,0,1,1.3,1.3v9.065h-1.3a1.3,1.3,0,0,0-1.3,1.3v2.949l-4.44-2.537a12.964,12.964,0,0,0-6.425-1.707H5.885a1.3,1.3,0,0,1-1.3-1.3ZM25.543,42.259a10.36,10.36,0,1,0-13.414,0A11.665,11.665,0,0,0,2,53.8v1.3a3.889,3.889,0,0,0,3.885,3.885h25.9A3.889,3.889,0,0,0,35.671,55.1V53.8A11.665,11.665,0,0,0,25.543,42.259ZM11.065,34.376a7.77,7.77,0,1,1,7.77,7.77,7.779,7.779,0,0,1-7.77-7.77ZM33.081,55.1a1.3,1.3,0,0,1-1.3,1.3H5.885a1.3,1.3,0,0,1-1.3-1.3V53.8a9.076,9.076,0,0,1,9.065-9.065h10.36A9.076,9.076,0,0,1,33.081,53.8ZM19.755,47.7a1.3,1.3,0,1,1-1.839,0,1.363,1.363,0,0,1,1.839,0Zm0,3.885a1.3,1.3,0,0,1-1.839,1.839,1.313,1.313,0,0,1,0-1.839,1.356,1.356,0,0,1,1.839,0Z" transform="translate(0 0)" fill="#ee4f47"/>
      </g>
    </g>
  </g>
</svg>
