<svg xmlns="http://www.w3.org/2000/svg" width="68.656" height="69.152" viewBox="0 0 68.656 69.152">
  <g id="Grupo_1102926" data-name="Grupo 1102926" transform="translate(-1118.394 -3321.526)">
    <circle id="Elipse_11528" data-name="Elipse 11528" cx="34.328" cy="34.328" r="34.328" transform="translate(1118.394 3322.022)" fill="#4045ab"/>
    <path id="Trazado_913307" data-name="Trazado 913307" d="M76.571,72.593H102.2A31.6,31.6,0,0,1,98.54,60.146a26.139,26.139,0,0,1,3.315-13.717,25.755,25.755,0,0,0,2.909-9.609,18.3,18.3,0,0,0-1.8-9.969,16.2,16.2,0,0,0-7.079-7.027A22.409,22.409,0,0,0,87.437,17.5c-6.168-.537-11.221.183-15.028,2.556-3.783,2.357-6.373,6.381-7.649,12.469a12.708,12.708,0,0,0-.267,3.509c.021.615.042,1.261-.006,2.084-.061,1.039-1.628,3.106-2.888,4.769-.542.716-1.024,1.351-1.27,1.744-.895,1.432.006,2,.925,2.586a6.644,6.644,0,0,1,1.372,1.047,2.071,2.071,0,0,1,.511,1.747,3.713,3.713,0,0,1-.088.393.8.8,0,0,0-.044.384,3.219,3.219,0,0,0,.39.406,2.589,2.589,0,0,1,.671.847,1.041,1.041,0,0,1-.328,1.25c-.121.134-.16.158-.141.345a1.983,1.983,0,0,0,.253.732,3.353,3.353,0,0,1,.462,1.391c.043.4.061.824.079,1.248.063,1.479.128,2.991,1.554,3.686a9.613,9.613,0,0,0,3.03.7c1.71.208,3.4.414,4.729,1.781a9.884,9.884,0,0,1,2.486,4.824,18.731,18.731,0,0,1,.381,4.6Zm-.688,1.327a.664.664,0,0,1-.664-.664,20.3,20.3,0,0,0-.319-4.975,8.593,8.593,0,0,0-2.144-4.192c-1-1.03-2.46-1.207-3.936-1.388a10.615,10.615,0,0,1-3.455-.822c-2.133-1.039-2.215-2.953-2.295-4.826-.017-.391-.033-.781-.074-1.16a2.207,2.207,0,0,0-.307-.9,3.155,3.155,0,0,1-.409-1.235,1.617,1.617,0,0,1,.159-.932,1.966,1.966,0,0,1,.31-.418c-.068-.07-.169-.168-.272-.268a2.489,2.489,0,0,1-.747-1,1.818,1.818,0,0,1,.039-1.084.889.889,0,0,0-.117-.908,5.765,5.765,0,0,0-1.108-.824c-1.481-.939-2.931-1.858-1.339-4.4.279-.446.777-1.1,1.337-1.843,1.153-1.522,2.587-3.413,2.624-4.049.046-.779.025-1.386.006-1.965a13.809,13.809,0,0,1,.293-3.82c1.357-6.47,4.15-10.771,8.245-13.323,4.071-2.537,9.393-3.314,15.842-2.753A23.72,23.72,0,0,1,96.5,18.648a17.5,17.5,0,0,1,7.644,7.6,19.6,19.6,0,0,1,1.941,10.684,27.075,27.075,0,0,1-3.054,10.107,24.865,24.865,0,0,0-3.17,13.038c.22,4.169,1.629,8.317,3.972,12.82a.664.664,0,0,1-.558,1.022Zm6.455-49.442a8.753,8.753,0,0,1,3.45,1.262A8.715,8.715,0,0,1,98.66,35.993c-1.1,3.142-6.288,6.665-10.041,9.214-.917.623-1.746,1.186-2.43,1.689a.662.662,0,0,1-.793.008c-.686-.505-1.518-1.07-2.441-1.7-3.753-2.549-8.94-6.072-10.041-9.214a8.717,8.717,0,0,1,9.424-11.515Zm3.058,2.591a.662.662,0,0,0,.772.008A7.391,7.391,0,0,1,97.41,35.558c-.958,2.731-5.933,6.11-9.534,8.556-.782.531-1.5,1.02-2.091,1.44-.589-.42-1.309-.909-2.091-1.44-3.6-2.446-8.576-5.825-9.534-8.556a7.39,7.39,0,0,1,11.233-8.489Z" transform="translate(1062.026 3306.021)" fill="#ee4f47" stroke="#ee4f47" stroke-width="1" fill-rule="evenodd"/>
  </g>
</svg>
