<svg xmlns="http://www.w3.org/2000/svg" width="68.656" height="68.656" viewBox="0 0 68.656 68.656">
  <g id="Grupo_1102928" data-name="Grupo 1102928" transform="translate(-1118.394 -3322.022)">
    <circle id="Elipse_11528" data-name="Elipse 11528" cx="34.328" cy="34.328" r="34.328" transform="translate(1118.394 3322.022)" fill="#4045ab"/>
    <g id="Grupo_1103091" data-name="Grupo 1103091" transform="translate(1118.874 3325.858)">
      <path id="Trazado_913310" data-name="Trazado 913310" d="M5.947,21.617a.964.964,0,0,0,.682-.282L8.2,19.766l4.571,4.571L13.24,27.3a.964.964,0,0,0,.951.812.982.982,0,0,0,.153-.012.964.964,0,0,0,.8-1.1l-.52-3.269a.964.964,0,0,0-.27-.53L9.56,18.4l8.12-8.12,4.64,4.64a.964.964,0,0,0,.63.281l3.819.2h.052a.964.964,0,0,0,.051-1.926l-3.45-.185L19.043,8.92l2.292-2.292a.964.964,0,0,0,0-1.363L16.352.282a.964.964,0,1,0-1.363,1.363l4.3,4.3L5.947,19.29l-4.3-4.3A.964.964,0,1,0,.283,16.352l4.983,4.983a.964.964,0,0,0,.682.282Z" transform="translate(0 0)" fill="#ee4f47"/>
      <path id="Trazado_913311" data-name="Trazado 913311" d="M226.932,17.906a.964.964,0,0,0,1.361-.074l2.052-2.287,5.793-.921a.964.964,0,0,0,.53-.27l4.792-4.793,8.12,8.12-4.64,4.64a.965.965,0,0,0-.282.652l-.127,4.145a.964.964,0,0,0,.934.993h.03a.964.964,0,0,0,.963-.934l.116-3.763,4.37-4.37,2.292,2.292a.964.964,0,0,0,1.363,0l4.983-4.983a.964.964,0,1,0-1.363-1.363l-4.3,4.3L240.573,5.947l4.3-4.3A.964.964,0,1,0,243.511.283l-4.983,4.983a.964.964,0,0,0,0,1.363L240.1,8.2l-4.572,4.572-5.822.926a.964.964,0,0,0-.566.308l-2.28,2.542A.964.964,0,0,0,226.932,17.906Z" transform="translate(-199.31 -0.001)" fill="#ee4f47"/>
      <path id="Trazado_913312" data-name="Trazado 913312" d="M34.742,255.018l-1.638.261a.963.963,0,0,0-.53.27l-4.793,4.793-8.12-8.12,4.64-4.64a.965.965,0,0,0,.282-.652l.24-7.824a2.36,2.36,0,0,1,.243-.976.964.964,0,1,0-1.729-.852,4.274,4.274,0,0,0-.441,1.768l-.229,7.443-4.37,4.37-2.291-2.292a.964.964,0,0,0-1.363,0l-4.983,4.983a.964.964,0,1,0,1.363,1.363l4.3-4.3L28.67,263.955l-4.3,4.3a.964.964,0,1,0,1.363,1.363l4.982-4.982a.964.964,0,0,0,0-1.363l-1.569-1.569,4.572-4.572,1.329-.211a.964.964,0,1,0-.3-1.9Z" transform="translate(-8.249 -208.219)" fill="#ee4f47"/>
      <path id="Trazado_913313" data-name="Trazado 913313" d="M181.286,176.55l-4.982-4.983a.964.964,0,0,0-1.363,0l-1.569,1.569-4.571-4.571-.926-5.822a.964.964,0,0,0-.27-.53l-12.04-12.043a3.3,3.3,0,0,0-4.6-.08,3.024,3.024,0,0,0-.726,1.181l-.349-.349a3.2,3.2,0,0,0-4.525,0,3.137,3.137,0,0,0-.7,1.066,3.2,3.2,0,0,0-5.215,2.434,3.127,3.127,0,0,0-2.2.921,3.2,3.2,0,0,0,0,4.524l6.885,6.885a5.217,5.217,0,0,0-1.228.263l-1.855.644a1.827,1.827,0,0,0-.693,3.017l7.452,7.452a4.285,4.285,0,0,0,2.909,1.257l7.443.229,4.37,4.37-2.292,2.292a.964.964,0,0,0,0,1.363l4.983,4.983a.964.964,0,1,0,1.363-1.363l-4.3-4.3,13.344-13.344,4.3,4.3a.964.964,0,1,0,1.363-1.363Zm-22.038,1.429a.964.964,0,0,0-.652-.282l-7.824-.24a2.365,2.365,0,0,1-1.6-.694l-7.338-7.338,1.7-.591a3.378,3.378,0,0,1,3.477.8l2.551,2.551a.964.964,0,0,0,1.363-1.363L138.606,158.5a1.273,1.273,0,0,1,0-1.8,1.242,1.242,0,0,1,1.771.027l7.219,7.219a.964.964,0,1,0,1.363-1.363l-7.219-7.219a1.272,1.272,0,1,1,1.8-1.8l1.849,1.853,5.344,5.394a.964.964,0,1,0,1.363-1.363l-5.371-5.371a1.272,1.272,0,1,1,1.8-1.8l5.371,5.371a.964.964,0,0,0,1.363-1.363l-2.918-2.918a1.417,1.417,0,0,1-.015-1.921,1.367,1.367,0,0,1,1.879.08l11.819,11.822.926,5.822a.964.964,0,0,0,.27.53l4.793,4.793-8.12,8.12Z" transform="translate(-119.885 -131.219)" fill="#ee4f47"/>
    </g>
  </g>
</svg>
