<svg xmlns="http://www.w3.org/2000/svg" width="73.947" height="68.656" viewBox="0 0 73.947 68.656">
  <g id="Grupo_1102932" data-name="Grupo 1102932" transform="translate(-1113.104 -3322.022)">
    <circle id="Elipse_11528" data-name="Elipse 11528" cx="34.328" cy="34.328" r="34.328" transform="translate(1118.394 3322.022)" fill="#4045ab"/>
    <g id="Grupo_1103092" data-name="Grupo 1103092" transform="translate(1113.106 3276.414)">
      <path id="Trazado_913314" data-name="Trazado 913314" d="M10.04,88.851a13.55,13.55,0,0,0,1.239,1.9A6.45,6.45,0,0,1,12.613,94.7v8.939a1.72,1.72,0,0,0,1.718,1.718H29.5a1.72,1.72,0,0,0,1.719-1.718V94.7a6.511,6.511,0,0,1,1.352-3.979A13.415,13.415,0,0,0,34.4,87.581a13.417,13.417,0,0,0,1.825,3.144A6.51,6.51,0,0,1,37.576,94.7v8.937a1.72,1.72,0,0,0,1.718,1.718H54.466a1.72,1.72,0,0,0,1.719-1.718V94.7a6.449,6.449,0,0,1,1.334-3.956,13.527,13.527,0,0,0,1.239-1.9L68.488,72a2.328,2.328,0,0,0-.848-3.176,5.936,5.936,0,0,0-7.27,1.05V68.25a1.008,1.008,0,1,0-2.016,0v4.786l-.972,1.682a6.307,6.307,0,0,0-6.705,10.353A1.008,1.008,0,0,0,52.1,83.646,4.291,4.291,0,0,1,57.284,76.9a1.008,1.008,0,0,0,1.378-.368L61.282,72a3.914,3.914,0,0,1,5.348-1.431.31.31,0,0,1,.112.424C56.643,88.484,57,87.865,56.99,87.883a11.5,11.5,0,0,1-1.06,1.624,8.475,8.475,0,0,0-1.761,5.2v8.642H39.592V94.7a8.535,8.535,0,0,0-1.776-5.216,11.386,11.386,0,0,1-1.765-3.234,45.756,45.756,0,0,0,5.8-4.5c4.006-3.705,6.037-7.243,6.037-10.516V54.125a2.111,2.111,0,0,1,2.19-2.111A2.169,2.169,0,0,1,52.113,54.2V70.127a1.008,1.008,0,1,0,2.016,0V56.14a2.113,2.113,0,0,1,4.225,0v7.406a1.008,1.008,0,1,0,2.016,0V56.14a4.126,4.126,0,0,0-6.5-3.38,4.114,4.114,0,0,0-7.767-.015,4.126,4.126,0,0,0-6.475,3.395v.623a4.122,4.122,0,0,0-5.233.846,4.122,4.122,0,0,0-5.233-.846V56.14a4.126,4.126,0,0,0-6.475-3.395A4.13,4.13,0,0,0,18.648,50a4.172,4.172,0,0,0-3.724,2.761,4.126,4.126,0,0,0-6.5,3.38v3.7a1.008,1.008,0,0,0,2.016,0v-3.7a2.112,2.112,0,0,1,4.225,0V70.127a1.008,1.008,0,1,0,2.016,0V54.2a2.169,2.169,0,0,1,2.034-2.186,2.111,2.111,0,0,1,2.19,2.111V71.243c0,3.073,1.8,6.391,5.349,9.862a1.008,1.008,0,0,0,1.409-1.441c-3.1-3.033-4.742-5.945-4.742-8.42A5.507,5.507,0,0,1,33.31,68.688a1.229,1.229,0,0,0,2.179,0,5.507,5.507,0,0,1,10.384,2.555c0,5.158-7.023,10.9-11.472,13.678-.653-.411-1.86-1.2-3.26-2.275a1.008,1.008,0,1,0-1.225,1.6c1.114.852,2.114,1.537,2.832,2.007a11.39,11.39,0,0,1-1.765,3.234A8.537,8.537,0,0,0,29.207,94.7v8.64H14.629V94.7a8.474,8.474,0,0,0-1.761-5.2,11.534,11.534,0,0,1-1.06-1.624c-.013-.025.431.746-9.752-16.892a.31.31,0,0,1,.112-.424A3.914,3.914,0,0,1,7.516,72l2.62,4.531a1.008,1.008,0,0,0,1.378.368A4.291,4.291,0,0,1,16.7,83.645a1.008,1.008,0,1,0,1.425,1.425,6.307,6.307,0,0,0-6.705-10.353l-.972-1.682V64.547a1.008,1.008,0,0,0-2.016,0v5.324a5.936,5.936,0,0,0-7.27-1.05A2.328,2.328,0,0,0,.31,72ZM22.926,66.124V56.14a2.112,2.112,0,0,1,4.225,0v7.691A7.516,7.516,0,0,0,22.926,66.124Zm6.241-2.367V60.309a2.112,2.112,0,1,1,4.225,0v5.276A7.5,7.5,0,0,0,29.166,63.757Zm6.241,1.828V60.309a2.113,2.113,0,0,1,4.225,0v3.448A7.5,7.5,0,0,0,35.407,65.585Zm6.241-1.754V56.14a2.113,2.113,0,0,1,4.225,0v9.984A7.516,7.516,0,0,0,41.647,63.831Z" transform="translate(0 0)" fill="#ee4f47"/>
    </g>
  </g>
</svg>
