<svg xmlns="http://www.w3.org/2000/svg" xmlns:xlink="http://www.w3.org/1999/xlink" width="86.5" height="86.5" viewBox="0 0 86.5 86.5">
  <defs>
    <clipPath id="clip-path">
      <rect id="Rectángulo_404311" data-name="Rectángulo 404311" width="15.24" height="22.3" fill="none"/>
    </clipPath>
    <clipPath id="clip-path-2">
      <rect id="Rectángulo_404313" data-name="Rectángulo 404313" width="41.097" height="37.978" fill="none"/>
    </clipPath>
  </defs>
  <g id="Grupo_1103267" data-name="Grupo 1103267" transform="translate(-921.011 -209.776)">
    <path id="Trazado_913783" data-name="Trazado 913783" d="M43.25,86.5A43.25,43.25,0,1,1,86.5,43.25,43.3,43.3,0,0,1,43.25,86.5" transform="translate(921.011 209.776)" fill="#ee4f47"/>
    <path id="Trazado_913784" data-name="Trazado 913784" d="M55.121,24.941c-.012-.048-.024-.1-.039-.143a20.386,20.386,0,0,0-19.363-14.39h-.108A20.349,20.349,0,0,0,15.25,30.768c0,.7.036,1.385.1,2.064.066.637.158,1.264.279,1.881a20.193,20.193,0,0,0,2.218,6.013,20.506,20.506,0,0,0,2.756,3.8c.538.627,1.791,2.131,3.149,4.09,1.919,2.762,4.057,6.423,4.694,9.781a1.9,1.9,0,0,1,.057.27,1.816,1.816,0,0,0,1.765,1.618h10.7a1.816,1.816,0,0,0,1.765-1.618l0-.008,0-.021c.008-.054.018-.1.027-.141.613-3.384,2.771-7.092,4.71-9.882A50.132,50.132,0,0,1,50.9,44.213H50.9c.09-.1.176-.2.263-.305a20.346,20.346,0,0,0,3.961-18.966" transform="translate(928.674 215.007)" fill="#f1f2f2"/>
    <g id="Grupo_1103258" data-name="Grupo 1103258" transform="translate(956.353 252.987)" opacity="0.4">
      <g id="Grupo_1103257" data-name="Grupo 1103257">
        <g id="Grupo_1103256" data-name="Grupo 1103256" clip-path="url(#clip-path)">
          <path id="Trazado_913785" data-name="Trazado 913785" d="M33.948,51.059a.39.39,0,0,1-.06,0,.635.635,0,0,1-.574-.694c.266-2.754.035-9.212-.134-13.7-.4,0-.772-.012-1.113-.023s-.648-.021-.926-.021c-.337-.008-.708,0-1.1.011-.3.006-.61.014-.935.014-.168,4.485-.4,10.959-.135,13.716a.636.636,0,0,1-1.267.123c-.272-2.841-.039-9.359.131-13.877-1.893-.135-3.782-.712-4.179-2.846a5.354,5.354,0,0,1,.162-2.992,3.264,3.264,0,0,1,2.028-1.922,2.211,2.211,0,0,1,1.967.367c1.318.981,1.453,2.58,1.412,4.013-.015.575-.042,1.306-.072,2.143.278,0,.565-.006.858-.012.416-.008.805-.018,1.145-.009a4.391,4.391,0,0,1,.951.021c.349.011.693.018,1.026.02-.032-.846-.057-1.581-.074-2.162-.039-1.435.1-3.032,1.412-4.015a2.215,2.215,0,0,1,1.967-.365,3.261,3.261,0,0,1,2.028,1.922,5.354,5.354,0,0,1,.162,2.992c-.392,2.117-2.3,2.718-4.177,2.864.17,4.517.4,11.024.129,13.859a.638.638,0,0,1-.633.575M35.805,30.03a.939.939,0,0,0-.572.2c-.846.633-.935,1.8-.9,2.96.015.577.041,1.315.072,2.158,1.555-.122,2.739-.553,2.973-1.821a4.116,4.116,0,0,0-.095-2.291,1.988,1.988,0,0,0-1.195-1.166,1.049,1.049,0,0,0-.284-.042m-9.329,0a1.075,1.075,0,0,0-.284.042A1.984,1.984,0,0,0,25,31.238a4.1,4.1,0,0,0-.095,2.291c.233,1.268,1.394,1.687,2.973,1.8.032-.834.057-1.564.072-2.137.035-1.163-.051-2.327-.9-2.958a.936.936,0,0,0-.575-.2" transform="translate(-23.522 -28.759)" fill="#414042"/>
        </g>
      </g>
    </g>
    <path id="Trazado_913786" data-name="Trazado 913786" d="M34.4,48.794a4.2,4.2,0,1,1-4.2-4.2,4.2,4.2,0,0,1,4.2,4.2" transform="translate(934.08 232.187)" fill="#414042"/>
    <path id="Rectángulo_404312" data-name="Rectángulo 404312" d="M.575,0H13.94a.574.574,0,0,1,.574.574V2.546a.575.575,0,0,1-.575.575H.573A.573.573,0,0,1,0,2.548V.575A.575.575,0,0,1,.575,0Z" transform="translate(957.028 277.861)" fill="#4045ab"/>
    <path id="Trazado_913787" data-name="Trazado 913787" d="M41.131,43.028V41.252a1.1,1.1,0,0,0-1.1-1.1H23.751a1.1,1.1,0,0,0-1.1,1.1v1.776a1.1,1.1,0,0,0,.8,1.052,1.1,1.1,0,0,0-.8,1.053v1.776a1.1,1.1,0,0,0,1.1,1.1H40.034a1.1,1.1,0,0,0,1.1-1.1V45.133a1.1,1.1,0,0,0-.8-1.053,1.094,1.094,0,0,0,.8-1.052" transform="translate(932.394 229.955)" fill="#4045ab"/>
    <g id="Grupo_1103261" data-name="Grupo 1103261" transform="translate(931.346 216.99)" opacity="0.4">
      <g id="Grupo_1103260" data-name="Grupo 1103260">
        <g id="Grupo_1103259" data-name="Grupo 1103259" clip-path="url(#clip-path-2)">
          <path id="Trazado_913788" data-name="Trazado 913788" d="M33.278,32.946C23.1,41.5,14.845,46.255,9.378,39.745S7.719,21.024,17.9,12.476s22.862-10.208,28.334-3.7S43.455,24.4,33.278,32.946" transform="translate(-6.879 -4.801)" fill="#fff"/>
        </g>
      </g>
    </g>
  </g>
</svg>
