<svg xmlns="http://www.w3.org/2000/svg" xmlns:xlink="http://www.w3.org/1999/xlink" width="120.159" height="93.391" viewBox="0 0 120.159 93.391">
  <defs>
    <clipPath id="clip-path">
      <rect id="Rect치ngulo_404315" data-name="Rect치ngulo 404315" width="42.603" height="39.371" fill="none"/>
    </clipPath>
  </defs>
  <g id="Grupo_1103266" data-name="Grupo 1103266" transform="translate(-953.239 -477.185)">
    <path id="Rect치ngulo_404314" data-name="Rect치ngulo 404314" d="M18.719,0h74.14a18.718,18.718,0,0,1,18.718,18.718V74.189a18.72,18.72,0,0,1-18.72,18.72H18.718A18.718,18.718,0,0,1,0,74.191V18.719A18.719,18.719,0,0,1,18.719,0Z" transform="translate(961.822 477.185)" fill="#efefef"/>
    <path id="Trazado_913789" data-name="Trazado 913789" d="M33.021,167.219s-4.807,20.6-17.852,21.287c0,0,28.495,7.895,34.676-14.076" transform="translate(938.07 380.688)" fill="#efefef"/>
    <path id="Trazado_913790" data-name="Trazado 913790" d="M47.731,155.882a6.877,6.877,0,1,1-6.879-6.876,6.877,6.877,0,0,1,6.879,6.876" transform="translate(951.423 367.758)" fill="#414042"/>
    <path id="Trazado_913791" data-name="Trazado 913791" d="M62.544,155.882a6.876,6.876,0,1,1-6.876-6.876,6.874,6.874,0,0,1,6.876,6.876" transform="translate(961.942 367.758)" fill="#414042"/>
    <path id="Trazado_913792" data-name="Trazado 913792" d="M77.363,155.882a6.877,6.877,0,1,1-6.874-6.876,6.874,6.874,0,0,1,6.874,6.876" transform="translate(972.461 367.758)" fill="#414042"/>
    <g id="Grupo_1103264" data-name="Grupo 1103264" transform="translate(968.768 483.481)" opacity="0.4">
      <g id="Grupo_1103263" data-name="Grupo 1103263">
        <g id="Grupo_1103262" data-name="Grupo 1103262" clip-path="url(#clip-path)">
          <path id="Trazado_913793" data-name="Trazado 913793" d="M51.616,158.723c-10.547,8.861-19.107,13.793-24.776,7.043S25.122,146.36,35.674,137.5s23.7-10.585,29.37-3.834-2.876,16.19-13.428,25.058" transform="translate(-24.25 -129.542)" fill="#fff"/>
        </g>
      </g>
    </g>
  </g>
</svg>
