<svg xmlns="http://www.w3.org/2000/svg" xmlns:xlink="http://www.w3.org/1999/xlink" width="1320" height="507" viewBox="0 0 1320 507">
  <defs>
    <linearGradient id="linear-gradient" x1="0.924" x2="0.051" y2="0.898" gradientUnits="objectBoundingBox">
      <stop offset="0" stop-color="#ffbd45"/>
      <stop offset="1" stop-color="#ca7441"/>
    </linearGradient>
    <clipPath id="clip-path">
      <rect id="Rectángulo_403014" data-name="Rectángulo 403014" width="1320" height="507" rx="20" transform="translate(140.333 70)" fill="url(#linear-gradient)"/>
    </clipPath>
    <linearGradient id="linear-gradient-2" x1="0.892" x2="0.049" y2="0.806" gradientUnits="objectBoundingBox">
      <stop offset="0" stop-color="#ee4f47"/>
      <stop offset="1" stop-color="#ffbd45"/>
    </linearGradient>
    <linearGradient id="linear-gradient-3" x1="0.829" y1="0.022" x2="0.016" y2="1.053" gradientUnits="objectBoundingBox">
      <stop offset="0" stop-color="#ee4f47"/>
      <stop offset="0.637" stop-color="#feb745"/>
      <stop offset="1" stop-color="#ca7441"/>
    </linearGradient>
  </defs>
  <g id="Grupo_1102781" data-name="Grupo 1102781" transform="translate(-140.333 -70)">
    <g id="Enmascarar_grupo_1098705" data-name="Enmascarar grupo 1098705" clip-path="url(#clip-path)">
      <path id="Trazado_911733" data-name="Trazado 911733" d="M0,0V175.4a61.677,61.677,0,0,0,10.84-.2c31.27-3.31,55.3-34.62,69.35-59.94,11-19.83,14.29-43.68,31.37-59.38,40.47-37.18,105.17,7.48,152.47,2.17,23.54-2.65,44.1-13.54,61.03-29.51C332.42,21.61,337.8,9.29,344.65,0Z" transform="translate(140.333 70)" fill="url(#linear-gradient-2)"/>
      <path id="Trazado_911734" data-name="Trazado 911734" d="M547.372,0s75.481,198.785-172.251,235.973c-113.563,17.047-68.25,209.626-207.942,205.913C35.391,438.38,0,507,0,507H673.881s45.969-102.31,9.4-207.066C595.816,118,799.149,0,799.149,0H547.372Z" transform="translate(643.517 70.004)" fill="url(#linear-gradient-3)"/>
      <g id="Grupo_1100864" data-name="Grupo 1100864" transform="translate(557.615 83.349)">
        <g id="Grupo_1100865" data-name="Grupo 1100865" transform="translate(0 0.001)">
          <path id="Trazado_911238" data-name="Trazado 911238" d="M6.012,505.871c41.061,12.6,86.033,7.089,124.221-11.965s70.41-52.349,83.333-93.541c12.655-40.332,6.884-95.563-34.854-117.065-19.574-10.082-41.329-5.35-56.322,10.354a60.324,60.324,0,0,0-15.074,56.862c11.5,43.9,65.751,74.554,109.454,64.772,24.037-5.379,39.518-24.561,48.519-46.445,10.821-26.312,14.23-55.145,17.62-83.169,6.417-53.055,14.435-112.993,61.663-146.238,11.456-8.065,24.143-14.246,37.142-19.4,14.169-5.613,29.216-10.723,44.643-10.5,25.141.364,48.144,17.931,55.593,41.927,7.294,23.493-2.882,50.153-22.611,64.379-10.77,7.764-24.834,11.976-38.031,9.127-12.4-2.677-21.47-11.854-25.029-23.853-6.574-22.174,2.227-46.364,11.667-66.307a211.231,211.231,0,0,1,42.605-60.554c37.055-36.326,89.842-55.4,141.381-44.33,24.834,5.332,50.443,18.037,65.71,38.967a57.281,57.281,0,0,1,10.948,39.981c-1.517,15.557-7.669,30.485-13.935,44.648-11.65,26.332-26.743,50.657-44.08,73.6-16.52,21.859-34.317,43.075-47.057,67.479-23.344,44.722-25.727,102.312,8.893,142.065a93.372,93.372,0,0,0,60.646,32.048c14.928,1.6,29.983.142,44.8-1.818a309.589,309.589,0,0,0,37.23-6.815c23.839-6.187,46.044-17.431,61.382-37.2,15.285-19.7,23.594-45.037,25.8-69.7s-3.224-50.87-21.947-68.286c-7.868-7.319-17.69-12.772-28.357-14.55-11.974-1.995-24.019.981-34.686,6.468-36.706,18.881-53.2,63.085-47.732,102.537,6.119,44.18,40.537,77.549,81.621,91.588,45.8,15.652,95.136,6.088,135.749-18.863a227.789,227.789,0,0,0,54.265-47.122c.745-.878-.522-2.158-1.273-1.273-32.37,38.226-77.753,67.974-128.516,72.71-45.633,4.259-95.063-14.225-122.145-52.2-24.537-34.411-25.412-83.54-1.518-118.606,13.107-19.234,36.35-36.157,60.65-33.905,26.451,2.452,45.3,26.177,50.562,50.731,5.7,26.577-.394,56.486-12.275,80.617-11.913,24.194-31.6,41.377-56.859,50.627a202.11,202.11,0,0,1-35.39,8.963c-14.169,2.434-28.577,4.444-42.958,4.9-27.2.864-52.439-6.9-72.122-26.125-40.449-39.507-38.3-101.712-12.775-148.683,12.763-23.484,30.019-44.06,46.047-65.314,16.626-22.05,31.167-45.4,42.546-70.608,10.536-23.342,21.909-50.963,11.2-76.255-8.972-21.186-29.473-36.017-50.05-44.782C572.34,17.012,520.291,23.7,480.172,48.608c-38.5,23.906-68.349,63.764-82.562,106.661-5.793,17.485-9.046,39.972,1.444,56.407,12.075,18.926,37.579,19.31,55.642,9.254,17.974-10.005,30.1-29.684,31.365-50.166,1.258-20.421-9.334-39.948-25.725-51.764-21.132-15.231-46.38-12.444-69.746-4.21-23.981,8.452-47.84,20.131-65.312,39.063-35.295,38.245-39.239,93.208-45.451,142.242-3.487,27.508-7.62,56.517-20.516,81.448-5.926,11.454-14.075,22.035-25.182,28.867-11.548,7.1-25.283,9.467-38.681,8.623-24.941-1.575-49.626-13.413-66.9-31.4-16.3-16.97-26.194-41.171-19.051-64.5,6.459-21.1,25.779-40.555,49.069-39.622,25.3,1.013,45.161,23.614,53.348,45.914,15.927,43.387-.472,92.992-29.848,126.543-28.753,32.838-70.633,53.919-114.016,58.165a157.542,157.542,0,0,1-61.562-6c-1.111-.34-1.584,1.4-.479,1.735" transform="translate(4.307 20.001)" fill="#fff"/>
          <path id="Trazado_911253" data-name="Trazado 911253" d="M5.891,413.9c33.207,10.188,69.578,5.733,100.462-9.677s56.943-42.337,67.394-75.65c10.234-32.618,5.567-77.285-28.188-94.675-15.831-8.154-33.424-4.327-45.55,8.374a48.787,48.787,0,0,0-12.191,45.987c9.3,35.5,53.175,60.294,88.52,52.383,19.44-4.35,31.96-19.863,39.239-37.562,8.751-21.28,11.508-44.6,14.25-67.262,5.19-42.907,11.674-91.382,49.869-118.268a144.037,144.037,0,0,1,30.038-15.686c11.459-4.539,23.628-8.672,36.1-8.493,20.332.294,38.936,14.5,44.96,33.908,5.9,19-2.331,40.561-18.287,52.066-8.71,6.279-20.085,9.686-30.757,7.381-10.025-2.165-17.364-9.587-20.242-19.291-5.317-17.933,1.8-37.5,9.435-53.625A170.83,170.83,0,0,1,365.4,64.833c29.968-29.378,72.659-44.8,114.34-35.851C499.83,33.295,520.54,43.57,532.887,60.5a46.326,46.326,0,0,1,8.854,32.334c-1.227,12.581-6.2,24.654-11.269,36.109-9.422,21.3-21.628,40.968-35.649,59.521-13.36,17.678-27.754,34.836-38.057,54.573-18.879,36.168-20.807,82.743,7.192,114.893A75.513,75.513,0,0,0,513,383.845c12.073,1.3,24.248.115,36.233-1.47a250.379,250.379,0,0,0,30.109-5.512c19.279-5,37.237-14.1,49.642-30.088,12.361-15.935,19.081-36.423,20.869-56.368s-2.607-41.14-17.749-55.225a45.058,45.058,0,0,0-22.934-11.767c-9.684-1.613-19.425.793-28.052,5.231-29.686,15.27-43.021,51.019-38.6,82.925,4.948,35.73,32.784,62.717,66.01,74.071a115.332,115.332,0,0,0,33.376,6.086c3.511-.035,3.311-1.235.464-1.273-32.2-1.146-64.884-15.931-83.918-42.622C538.608,320,537.9,280.27,557.225,251.911c10.6-15.555,29.4-29.242,49.05-27.42,21.392,1.983,36.633,21.171,40.891,41.028,4.608,21.494-.319,45.682-9.927,65.2-9.635,19.566-25.557,33.463-45.984,40.944a163.45,163.45,0,0,1-28.621,7.249,253.828,253.828,0,0,1-34.742,3.964c-22,.7-42.41-5.58-58.327-21.128-32.712-31.951-30.976-82.258-10.332-120.245,10.322-18.993,24.277-35.633,37.24-52.822a300.12,300.12,0,0,0,34.408-57.1C539.4,112.7,548.6,90.358,539.938,69.9,532.682,52.771,516.1,40.776,499.46,33.688c-35.558-15.148-77.652-9.742-110.1,10.4-31.133,19.333-55.276,51.568-66.771,86.26-4.685,14.14-7.316,32.327,1.168,45.618,9.766,15.307,30.392,15.617,45,7.484a50.831,50.831,0,0,0,25.366-40.571c1.018-16.515-7.548-32.308-20.805-41.864-17.09-12.318-37.509-10.064-56.406-3.405-19.394,6.835-38.69,16.28-52.82,31.591-28.544,30.93-31.734,75.381-36.758,115.036-2.82,22.246-6.162,45.707-16.592,65.87-4.793,9.263-11.383,17.821-20.365,23.346-9.339,5.745-20.447,7.656-31.283,6.973-20.17-1.274-40.134-10.847-54.1-25.392-13.181-13.724-21.184-33.3-15.407-52.165,5.223-17.062,20.849-32.8,39.684-32.044,20.459.82,36.524,19.1,43.145,37.132,12.881,35.088-.381,75.206-24.139,102.34-23.254,26.557-57.124,43.606-92.209,47.041a127.41,127.41,0,0,1-49.788-4.849c-.9-.275-1.281,1.128-.387,1.4" transform="translate(-941.498 -219.842)" fill="#fff"/>
          <path id="Trazado_911239" data-name="Trazado 911239" d="M390.172,38.824a100.134,100.134,0,0,1,22.111,44.17,97.683,97.683,0,0,1,2.009,14.023c.081,1.148,1.883,1.157,1.8,0a101.3,101.3,0,0,0-24.647-59.465c-.761-.877-2.031.4-1.273,1.273" transform="translate(311.998 29.809)" fill="#fff"/>
          <path id="Trazado_911240" data-name="Trazado 911240" d="M315.591,69.819c1.482,14.07,3.715,29.146,13.841,39.864a31.391,31.391,0,0,0,8.554,6.45c1.03.524,1.942-1.03.909-1.555-12.075-6.133-17.51-19.461-19.807-32.087-.763-4.194-1.251-8.432-1.7-12.671-.121-1.139-1.921-1.152-1.8,0" transform="translate(252.505 55.175)" fill="#fff"/>
          <path id="Trazado_911241" data-name="Trazado 911241" d="M464.568,100.458q-6.47,32.75-12.941,65.5-1.823,9.232-3.647,18.464c-.223,1.132,1.51,1.617,1.735.479q6.47-32.75,12.941-65.5,1.823-9.232,3.647-18.464c.223-1.132-1.51-1.617-1.735-.479" transform="translate(358.421 79.858)" fill="#fff"/>
          <path id="Trazado_911242" data-name="Trazado 911242" d="M467.811,174.4q34.268.929,68.534,1.86,9.631.259,19.261.522a.9.9,0,0,0,0-1.8l-68.534-1.86-19.261-.522a.9.9,0,0,0,0,1.8" transform="translate(373.609 138.102)" fill="#fff"/>
          <path id="Trazado_911244" data-name="Trazado 911244" d="M125.422,27.963H292.938a.9.9,0,0,0,0-1.8H125.422a.9.9,0,0,0,0,1.8" transform="translate(-77.343 -14.067)" fill="#fff"/>
          <path id="Trazado_911246" data-name="Trazado 911246" d="M.869,251.852H156.024a.9.9,0,0,0,0-1.8H.869a.9.9,0,0,0,0,1.8" transform="translate(-432 200.07)" fill="#fff"/>
        </g>
      </g>
    </g>
    <g id="Grupo_1100878" data-name="Grupo 1100878">
      <path id="Trazado_911248" data-name="Trazado 911248" d="M96.578,35.031H0a22.23,22.23,0,0,1,22.014-12.08,30.679,30.679,0,0,1,12.922-19C41.5-.388,50.383-1.419,57.349,2.2c8.144,4.23,12.312,13.68,13.427,22.792a16.642,16.642,0,0,1,17.363-.926,17.29,17.29,0,0,1,8.439,10.965" transform="translate(251.755 139.484)" fill="#fff" opacity="0.5"/>
      <path id="Trazado_911251" data-name="Trazado 911251" d="M70.346,25.516H0a16.192,16.192,0,0,1,16.034-8.8A22.346,22.346,0,0,1,25.446,2.875C30.229-.282,36.7-1.034,41.772,1.6c5.932,3.081,8.968,9.964,9.78,16.6A12.122,12.122,0,0,1,64.2,17.53a12.594,12.594,0,0,1,6.147,7.986" transform="translate(172.755 493.999)" fill="#fff" opacity="0.5"/>
      <path id="Trazado_911249" data-name="Trazado 911249" d="M96.578,35.031H0a22.23,22.23,0,0,1,22.014-12.08,30.679,30.679,0,0,1,12.922-19C41.5-.388,50.383-1.419,57.349,2.2c8.144,4.23,12.312,13.68,13.427,22.792a16.642,16.642,0,0,1,17.363-.926,17.29,17.29,0,0,1,8.439,10.965" transform="translate(1169.755 218.484)" fill="#fff" opacity="0.5"/>
      <path id="Trazado_911250" data-name="Trazado 911250" d="M62.075,22.516H0a14.288,14.288,0,0,1,14.149-7.764A19.719,19.719,0,0,1,22.454,2.537C26.675-.249,32.383-.912,36.861,1.414c5.235,2.719,7.913,8.792,8.63,14.649a10.7,10.7,0,0,1,11.16-.595,11.113,11.113,0,0,1,5.424,7.047" transform="translate(867.044 109.999)" fill="#fff" opacity="0.5"/>
      <path id="Trazado_911252" data-name="Trazado 911252" d="M62.075,22.516H0a14.288,14.288,0,0,1,14.149-7.764A19.719,19.719,0,0,1,22.454,2.537C26.675-.249,32.383-.912,36.861,1.414c5.235,2.719,7.913,8.792,8.63,14.649a10.7,10.7,0,0,1,11.16-.595,11.113,11.113,0,0,1,5.424,7.047" transform="translate(1360.044 175.741)" fill="#fff" opacity="0.5"/>
      <path id="Trazado_911254" data-name="Trazado 911254" d="M62.075,22.516H0a14.288,14.288,0,0,1,14.149-7.764A19.719,19.719,0,0,1,22.454,2.537C26.675-.249,32.383-.912,36.861,1.414c5.235,2.719,7.913,8.792,8.63,14.649a10.7,10.7,0,0,1,11.16-.595,11.113,11.113,0,0,1,5.424,7.047" transform="translate(660.044 543.741)" fill="#fff" opacity="0.5"/>
    </g>
  </g>
</svg>
