<svg xmlns="http://www.w3.org/2000/svg" xmlns:xlink="http://www.w3.org/1999/xlink" width="400" height="206.802" viewBox="0 0 400 206.802">
  <defs>
    <clipPath id="clip-path">
      <rect id="Rectángulo_404331" data-name="Rectángulo 404331" width="203.626" height="202.605" fill="none"/>
    </clipPath>
    <clipPath id="clip-path-6">
      <rect id="Rectángulo_404323" data-name="Rectángulo 404323" width="11.208" height="17.969" fill="none"/>
    </clipPath>
    <clipPath id="clip-path-8">
      <rect id="Rectángulo_404329" data-name="Rectángulo 404329" width="16.911" height="15.071" fill="none"/>
    </clipPath>
  </defs>
  <g id="Grupo_1103291" data-name="Grupo 1103291" transform="translate(-600 -7248.032)">
    <path id="Trazado_913919" data-name="Trazado 913919" d="M353.547,172s57.549-48.238,44.537-101.3S303.517,23.959,248.77,16.837,165.836-5.508,101.158,7.143,11.469,39.581,4.013,69.074.281,126.4,8.69,152.527s24.491,44.98,71.778,45.91,63.6-7.475,90.284-.412S302.695,211.394,353.547,172" transform="translate(600 7251.553)" fill="#4045ab" opacity="0.17"/>
    <g id="Grupo_1103290" data-name="Grupo 1103290" transform="translate(682.425 7248.032)">
      <g id="Grupo_1103289" data-name="Grupo 1103289" clip-path="url(#clip-path)">
        <g id="Grupo_1103274" data-name="Grupo 1103274">
          <g id="Grupo_1103273" data-name="Grupo 1103273" clip-path="url(#clip-path)">
            <path id="Trazado_913795" data-name="Trazado 913795" d="M109.949,221.087a7.2,7.2,0,0,1,1.752-.77l.355-1.74,2.936-.064.43,1.722a7.2,7.2,0,0,1,1.785.693l1.48-.979,2.122,2.031-.913,1.52a7.193,7.193,0,0,1,.771,1.753l1.739.354.064,2.936-1.722.43a7.206,7.206,0,0,1-.693,1.784l.979,1.48L119,234.361l-1.521-.914a7.173,7.173,0,0,1-1.753.771l-.354,1.74-2.936.064-.43-1.722a7.2,7.2,0,0,1-1.784-.693l-1.48.979-2.122-2.031.913-1.521a7.189,7.189,0,0,1-.771-1.753l-1.74-.355-.064-2.936,1.722-.43a7.206,7.206,0,0,1,.693-1.784l-.979-1.48,2.031-2.122Zm1.582,3.905a3.15,3.15,0,1,0,4.454-.1,3.151,3.151,0,0,0-4.454.1" transform="translate(-56.948 -118.558)" fill="#ebebeb"/>
            <path id="Trazado_913796" data-name="Trazado 913796" d="M118.221,231.457a2.383,2.383,0,0,1,.585-.517,3.135,3.135,0,0,1,2.053-.494,3.174,3.174,0,0,1,1.4.49,3.223,3.223,0,0,1,1.135,1.268,3.229,3.229,0,0,1,.312,1.853,3.214,3.214,0,0,1-2.648,2.766,3.225,3.225,0,0,1-1.865-.231,3.231,3.231,0,0,1-1.316-1.079,3.177,3.177,0,0,1-.551-1.376,3.137,3.137,0,0,1,.4-2.073,2.382,2.382,0,0,1,.491-.607c.017.014-.189.208-.43.641a3.14,3.14,0,0,0-.34,2.018,3.079,3.079,0,0,0,1.808,2.322,3.077,3.077,0,0,0,1.768.209,3.053,3.053,0,0,0,2.5-2.615,3.08,3.08,0,0,0-.286-1.756,3.078,3.078,0,0,0-2.4-1.705,3.141,3.141,0,0,0-2,.427c-.423.26-.607.474-.622.458" transform="translate(-63.638 -125.023)" fill="#ebebeb"/>
            <path id="Trazado_913797" data-name="Trazado 913797" d="M109.871,221.022a.632.632,0,0,1-.1-.051l-.292-.167-1.146-.671.036,0-2.019,2.133.005-.057.985,1.476.018.027-.016.028a7.208,7.208,0,0,0-.682,1.773l-.008.035-.035.009-1.721.435.048-.064c.022.924.046,1.906.071,2.936l-.057-.068,1.74.351.044.009.012.043a7.156,7.156,0,0,0,.765,1.733l.025.04-.024.041-.911,1.522-.013-.1,2.124,2.028-.1-.009,1.479-.981.043-.029.046.025a7.162,7.162,0,0,0,1.763.684l.051.012.013.052.431,1.722-.088-.067,2.936-.065-.086.071c.112-.549.232-1.142.354-1.739l.011-.054.053-.015a7.088,7.088,0,0,0,1.729-.76h0l.047-.028.046.027,1.521.914-.112.015,2.031-2.121-.01.111-.978-1.48-.03-.045.026-.047a7.117,7.117,0,0,0,.686-1.762l.013-.052.051-.012,1.723-.429-.065.085q-.031-1.5-.061-2.936l.066.08-1.739-.356-.048-.01-.013-.047a7.12,7.12,0,0,0-.759-1.735l-.025-.041.024-.04.916-1.52.013.093-2.117-2.035.086.008-1.482.975-.033.021-.034-.019a7.168,7.168,0,0,0-1.768-.693l-.035-.009-.009-.035c-.154-.626-.293-1.19-.424-1.723l.053.04-2.937.051.039-.032-.365,1.737,0,.017-.017.005a7.462,7.462,0,0,0-1.34.522l-.315.167a.7.7,0,0,1-.105.054.87.87,0,0,1,.1-.067c.067-.042.169-.1.309-.18a6.919,6.919,0,0,1,1.338-.552l-.02.022.343-1.742.006-.032h.032l2.936-.077h.043l.011.042c.135.532.277,1.1.436,1.721l-.043-.043a7.25,7.25,0,0,1,1.8.694l-.067,0,1.478-.983.046-.031.04.038,2.126,2.026.043.041-.031.052-.911,1.523V223.4a7.289,7.289,0,0,1,.781,1.771l-.062-.057,1.74.352.065.013v.067q.033,1.432.067,2.936v.069l-.067.017-1.722.431.064-.064a7.292,7.292,0,0,1-.7,1.807l0-.092.98,1.48.039.059-.049.052-2.031,2.122-.049.052-.062-.038-1.521-.913h.092a7.309,7.309,0,0,1-1.773.779l.064-.069c-.122.6-.243,1.19-.355,1.74l-.014.07H115.3l-2.936.063h-.071l-.017-.069-.429-1.723.065.064a7.324,7.324,0,0,1-1.805-.7l.089,0-1.481.978-.056.037-.048-.046-2.119-2.034-.046-.044.033-.055.916-1.52v.081a7.289,7.289,0,0,1-.776-1.773l.057.052-1.739-.358-.056-.011v-.056c-.02-1.031-.039-2.012-.057-2.936v-.052l.05-.012,1.724-.425-.043.044a7.259,7.259,0,0,1,.7-1.8l0,.055-.973-1.484-.02-.031.026-.027,2.043-2.11.016-.016.02.012,1.12.691.289.181a.945.945,0,0,1,.1.066" transform="translate(-56.87 -118.494)" fill="#ebebeb"/>
            <path id="Trazado_913798" data-name="Trazado 913798" d="M120.407,151.97a10.85,10.85,0,0,1,2.647-1.164l.535-2.627,4.435-.1.649,2.6a10.866,10.866,0,0,1,2.7,1.048l2.235-1.479,3.2,3.068-1.379,2.3a10.875,10.875,0,0,1,1.164,2.648l2.627.535.1,4.434-2.6.65a10.863,10.863,0,0,1-1.047,2.7l1.478,2.235-3.067,3.2-2.3-1.38a10.857,10.857,0,0,1-2.648,1.164l-.535,2.627-4.434.1-.649-2.6a10.857,10.857,0,0,1-2.7-1.048l-2.235,1.479-3.2-3.068,1.38-2.3a10.865,10.865,0,0,1-1.164-2.647l-2.627-.535-.1-4.434,2.6-.65a10.88,10.88,0,0,1,1.047-2.7l-1.478-2.235,3.067-3.2Zm2.389,5.9a4.758,4.758,0,1,0,6.727-.147,4.758,4.758,0,0,0-6.727.147" transform="translate(-61.241 -80.345)" fill="#ebebeb"/>
            <path id="Trazado_913799" data-name="Trazado 913799" d="M132.9,167.631a3.6,3.6,0,0,1,.883-.781,4.738,4.738,0,0,1,3.1-.747,4.8,4.8,0,0,1,2.113.741,4.868,4.868,0,0,1,1.714,1.915,4.869,4.869,0,0,1,.471,2.8,4.855,4.855,0,0,1-4,4.178,4.875,4.875,0,0,1-2.816-.349,4.872,4.872,0,0,1-1.988-1.629,4.8,4.8,0,0,1-.832-2.079,4.739,4.739,0,0,1,.612-3.131,3.6,3.6,0,0,1,.742-.916c.026.022-.286.313-.65.968a4.741,4.741,0,0,0-.513,3.048,4.648,4.648,0,0,0,2.731,3.508,4.643,4.643,0,0,0,2.669.316,4.609,4.609,0,0,0,3.78-3.949,4.648,4.648,0,0,0-.432-2.652,4.649,4.649,0,0,0-3.623-2.575,4.74,4.74,0,0,0-3.023.645c-.639.392-.916.716-.939.691" transform="translate(-71.345 -90.108)" fill="#ebebeb"/>
            <path id="Trazado_913800" data-name="Trazado 913800" d="M120.29,151.872a1,1,0,0,1-.148-.077l-.441-.252-1.731-1.013.054-.007-3.049,3.222.008-.086,1.488,2.229.027.04-.023.043a10.83,10.83,0,0,0-1.03,2.677l-.012.053-.053.013-2.6.657.074-.1c.034,1.4.07,2.878.107,4.434l-.086-.1,2.628.53.067.014.019.066a10.826,10.826,0,0,0,1.155,2.617l.038.06-.037.062-1.376,2.3-.02-.15,3.208,3.063-.158-.014,2.234-1.481.065-.043.069.038a10.808,10.808,0,0,0,2.664,1.032l.077.019.02.078c.2.814.426,1.7.651,2.6l-.133-.1,4.435-.1-.13.109.534-2.627.016-.081.079-.022a10.785,10.785,0,0,0,2.612-1.148h0l.071-.043.07.042,2.3,1.38-.168.022,3.068-3.2-.015.168-1.477-2.236-.045-.068.039-.07a10.769,10.769,0,0,0,1.036-2.662l.019-.078.077-.019,2.6-.648-.1.129q-.047-2.27-.092-4.434l.1.12-2.626-.538-.073-.015-.021-.071a10.764,10.764,0,0,0-1.147-2.62l-.037-.061.037-.061,1.383-2.294.019.14-3.2-3.073.13.011-2.239,1.473-.049.033-.052-.029a10.83,10.83,0,0,0-2.669-1.046l-.053-.013-.013-.053-.641-2.6.08.061-4.435.077.059-.049c-.22,1.048-.4,1.907-.552,2.624l-.005.026-.025.007a11.267,11.267,0,0,0-2.025.789l-.476.252a1.115,1.115,0,0,1-.159.081,1.368,1.368,0,0,1,.148-.1c.1-.063.254-.157.466-.272a10.53,10.53,0,0,1,2.021-.833l-.031.033c.142-.718.311-1.58.518-2.631l.009-.048h.049l4.434-.116h.064l.016.063c.2.8.419,1.655.658,2.6l-.066-.065a10.958,10.958,0,0,1,2.721,1.049l-.1,0,2.231-1.484.07-.046.06.058,3.21,3.061.065.063-.047.078-1.376,2.3v-.122a11.022,11.022,0,0,1,1.18,2.675l-.093-.086,2.628.532.1.02,0,.1q.049,2.163.1,4.434l0,.1-.1.026-2.6.651.1-.1a11.005,11.005,0,0,1-1.058,2.729l-.005-.139,1.479,2.235.059.09-.075.078-3.066,3.2-.075.079-.093-.056-2.3-1.379h.139a11.029,11.029,0,0,1-2.678,1.177l.1-.1-.536,2.627-.022.106-.108,0-4.435.095-.107,0-.026-.1-.648-2.6.1.1a11.021,11.021,0,0,1-2.726-1.062l.134-.006-2.236,1.477-.085.056-.073-.07-3.2-3.071-.07-.067.05-.083,1.383-2.295v.122a11,11,0,0,1-1.172-2.677l.086.079-2.626-.54-.084-.017,0-.086c-.03-1.556-.059-3.038-.086-4.435V159.2l.075-.019,2.6-.642-.065.066a10.977,10.977,0,0,1,1.064-2.713l0,.083-1.47-2.241-.031-.047.038-.039,3.086-3.186.024-.025.029.018,1.693,1.043.435.274a1.328,1.328,0,0,1,.147.1" transform="translate(-61.124 -80.247)" fill="#ebebeb"/>
            <path id="Trazado_913801" data-name="Trazado 913801" d="M271.166,115.721a9.536,9.536,0,0,1,2.33-1.013l.48-2.306,3.9-.069.561,2.288a9.554,9.554,0,0,1,2.364.93l1.969-1.291,2.8,2.707-1.221,2.014a9.53,9.53,0,0,1,1.013,2.331l2.306.48.069,3.9-2.288.561a9.552,9.552,0,0,1-.93,2.364l1.291,1.97-2.707,2.8-2.013-1.221a9.563,9.563,0,0,1-2.331,1.012l-.481,2.306-3.9.069-.561-2.288a9.562,9.562,0,0,1-2.364-.93l-1.969,1.291-2.8-2.708,1.221-2.013a9.553,9.553,0,0,1-1.013-2.33l-2.306-.48-.069-3.9,2.288-.561a9.536,9.536,0,0,1,.931-2.364l-1.291-1.97,2.707-2.8Zm2.078,5.191a4.181,4.181,0,1,0,5.911-.1,4.18,4.18,0,0,0-5.911.1" transform="translate(-143.519 -60.948)" fill="#e0e0e0"/>
            <path id="Trazado_913802" data-name="Trazado 913802" d="M282.114,129.483a3.153,3.153,0,0,1,.779-.683,4.157,4.157,0,0,1,2.727-.645,4.21,4.21,0,0,1,1.854.658,4.283,4.283,0,0,1,1.5,1.689,4.292,4.292,0,0,1,.4,2.461,4.264,4.264,0,0,1-3.529,3.656,4.282,4.282,0,0,1-2.473-.317,4.278,4.278,0,0,1-1.741-1.439,4.215,4.215,0,0,1-.723-1.83,4.164,4.164,0,0,1,.548-2.748,3.146,3.146,0,0,1,.656-.8c.022.019-.253.274-.575.848a4.175,4.175,0,0,0-.462,2.677,4.086,4.086,0,0,0,2.386,3.092,4.083,4.083,0,0,0,2.344.287,4.051,4.051,0,0,0,3.336-3.455,4.093,4.093,0,0,0-.37-2.332,4.083,4.083,0,0,0-3.174-2.276,4.165,4.165,0,0,0-2.659.556c-.562.342-.807.626-.827.6" transform="translate(-152.39 -69.52)" fill="#e0e0e0"/>
            <path id="Trazado_913803" data-name="Trazado 913803" d="M271.064,115.635a.924.924,0,0,1-.13-.069l-.386-.223-1.517-.9.047-.006-2.691,2.82.007-.075,1.3,1.964.023.035-.021.038a9.533,9.533,0,0,0-.915,2.349l-.011.046-.047.011-2.287.567.065-.084c.024,1.227.05,2.529.077,3.9l-.075-.091,2.307.475.059.012.016.058a9.516,9.516,0,0,0,1.006,2.3l.032.053-.032.054-1.218,2.015-.017-.132,2.807,2.7-.139-.013,1.968-1.293.058-.038.06.033a9.484,9.484,0,0,0,2.336.917l.068.017.017.068.562,2.288-.116-.089,3.9-.07-.114.095.479-2.306.015-.071.07-.02a9.462,9.462,0,0,0,2.3-1h0l.063-.037.061.037,2.013,1.221-.148.019,2.708-2.8-.014.148-1.29-1.97-.039-.06.035-.062a9.429,9.429,0,0,0,.92-2.335l.017-.069.068-.016,2.288-.559-.087.113q-.033-2-.064-3.9l.088.106-2.306-.483-.064-.013-.018-.063a9.462,9.462,0,0,0-1-2.306l-.033-.054.033-.054,1.224-2.011.016.124-2.8-2.713.114.011-1.972,1.286-.044.028-.045-.025a9.511,9.511,0,0,0-2.342-.929l-.046-.011-.011-.046-.553-2.289.07.054-3.9.051.051-.043-.494,2.3-.005.023-.022.006a9.866,9.866,0,0,0-1.782.686l-.419.219a1,1,0,0,1-.14.071,1.116,1.116,0,0,1,.13-.088c.089-.055.224-.137.411-.237a9.256,9.256,0,0,1,1.779-.725l-.027.029.465-2.31.009-.042h.043l3.9-.086h.056l.014.055.569,2.286-.058-.058a9.638,9.638,0,0,1,2.387.931l-.089,0,1.966-1.3.061-.04.053.051,2.809,2.7.058.055-.042.068-1.217,2.015v-.107a9.68,9.68,0,0,1,1.027,2.355l-.081-.076,2.307.477.086.018v.088q.036,1.9.072,3.9l0,.091-.089.022-2.288.562.085-.085a9.666,9.666,0,0,1-.94,2.394l0-.122,1.292,1.969.052.079-.066.069-2.706,2.8-.066.069-.082-.049-2.014-1.22h.122a9.68,9.68,0,0,1-2.358,1.024l.084-.091-.48,2.306-.02.093h-.1l-3.9.067-.094,0-.022-.091-.559-2.288.085.085a9.68,9.68,0,0,1-2.391-.943l.118,0-1.971,1.289-.075.049-.064-.062-2.8-2.711-.061-.059.044-.073,1.224-2.011v.107a9.666,9.666,0,0,1-1.02-2.357l.075.07-2.305-.484-.074-.016v-.075c-.021-1.367-.041-2.67-.059-3.9v-.068l.066-.016,2.29-.555-.058.058a9.634,9.634,0,0,1,.945-2.379l0,.072-1.283-1.974-.027-.041.034-.035,2.723-2.788.022-.022.026.016,1.483.923.381.242a1.173,1.173,0,0,1,.129.088" transform="translate(-143.417 -60.863)" fill="#e0e0e0"/>
            <path id="Trazado_913804" data-name="Trazado 913804" d="M285.751,200.889a9.53,9.53,0,0,1,2.33-1.013l.48-2.306,3.9-.069.561,2.288a9.553,9.553,0,0,1,2.364.93l1.969-1.291,2.8,2.707-1.221,2.014a9.532,9.532,0,0,1,1.013,2.331l2.306.48.069,3.9-2.288.561a9.534,9.534,0,0,1-.93,2.364l1.291,1.97-2.707,2.8-2.013-1.221a9.548,9.548,0,0,1-2.331,1.012l-.48,2.306-3.9.069-.561-2.288a9.555,9.555,0,0,1-2.364-.93l-1.969,1.291-2.8-2.708,1.221-2.013a9.53,9.53,0,0,1-1.013-2.331l-2.306-.48-.068-3.9,2.288-.561a9.553,9.553,0,0,1,.93-2.364l-1.291-1.97,2.707-2.8Zm2.077,5.191a4.181,4.181,0,1,0,5.912-.1,4.181,4.181,0,0,0-5.912.1" transform="translate(-151.433 -107.158)" fill="#e0e0e0"/>
            <path id="Trazado_913805" data-name="Trazado 913805" d="M296.7,214.651a3.158,3.158,0,0,1,.779-.683,4.162,4.162,0,0,1,2.728-.645,4.21,4.21,0,0,1,1.854.658,4.282,4.282,0,0,1,1.5,1.689,4.292,4.292,0,0,1,.4,2.461,4.266,4.266,0,0,1-3.53,3.656,4.282,4.282,0,0,1-2.473-.317,4.278,4.278,0,0,1-1.741-1.439,4.209,4.209,0,0,1-.723-1.83,4.161,4.161,0,0,1,.548-2.748,3.151,3.151,0,0,1,.656-.8c.022.019-.253.274-.575.848a4.169,4.169,0,0,0-.462,2.677,4.086,4.086,0,0,0,2.386,3.092,4.082,4.082,0,0,0,2.344.287,4.051,4.051,0,0,0,3.336-3.455,4.094,4.094,0,0,0-.37-2.332,4.084,4.084,0,0,0-3.174-2.276,4.163,4.163,0,0,0-2.659.556c-.563.342-.808.626-.828.6" transform="translate(-160.302 -115.729)" fill="#e0e0e0"/>
            <path id="Trazado_913806" data-name="Trazado 913806" d="M285.647,200.8a.94.94,0,0,1-.13-.068l-.386-.223-1.517-.9.047-.006-2.691,2.82.007-.076,1.3,1.965.023.035-.021.038a9.536,9.536,0,0,0-.915,2.349l-.011.045-.047.012-2.287.568.065-.085c.024,1.227.05,2.53.077,3.9l-.075-.091,2.307.475.059.012.017.058a9.492,9.492,0,0,0,1.005,2.3l.032.054-.032.054-1.218,2.015-.017-.132,2.807,2.7-.139-.013,1.968-1.293.058-.038.06.034a9.466,9.466,0,0,0,2.336.917l.068.017.017.069.562,2.287-.116-.089,3.9-.07-.114.095.479-2.307.015-.071.069-.02a9.473,9.473,0,0,0,2.3-1l0,0,.063-.037.061.037,2.013,1.221-.148.019q1.373-1.42,2.708-2.8l-.014.148-1.29-1.971-.039-.059.035-.062a9.428,9.428,0,0,0,.92-2.335l.017-.069.068-.016,2.288-.559-.087.113q-.033-2-.064-3.9l.088.106-2.306-.482-.064-.014-.017-.062a9.472,9.472,0,0,0-1-2.306l-.033-.054.033-.053L299.968,202l.016.124-2.8-2.713.114.011-1.972,1.285-.044.029-.045-.025a9.53,9.53,0,0,0-2.342-.93l-.046-.011-.011-.046-.553-2.29.07.054-3.9.052.051-.043-.495,2.3-.005.023-.022.006a9.894,9.894,0,0,0-1.782.686l-.419.219a.934.934,0,0,1-.14.071,1.237,1.237,0,0,1,.13-.088c.089-.055.224-.138.411-.237a9.285,9.285,0,0,1,1.779-.725l-.027.03.465-2.31.009-.041h.043l3.9-.086h.056l.014.055.569,2.286-.058-.058a9.64,9.64,0,0,1,2.387.932l-.089,0,1.967-1.3.061-.041.053.051,2.81,2.7.057.055-.042.068-1.217,2.016v-.107a9.659,9.659,0,0,1,1.027,2.354l-.081-.076,2.307.477.086.018v.089q.036,1.9.072,3.9l0,.091-.089.022-2.288.563.085-.085a9.681,9.681,0,0,1-.94,2.394l0-.122,1.292,1.969.052.079-.066.068-2.706,2.8-.066.069-.082-.049-2.014-1.22h.122a9.716,9.716,0,0,1-2.358,1.024l.084-.091-.48,2.307-.019.093-.1,0-3.9.067h-.094l-.022-.091-.559-2.288.085.085a9.7,9.7,0,0,1-2.391-.943l.118,0-1.971,1.289-.075.049-.064-.062-2.8-2.711-.061-.059.044-.073,1.224-2.011v.107a9.677,9.677,0,0,1-1.02-2.357l.075.07-2.305-.485-.074-.015v-.075c-.021-1.368-.041-2.67-.059-3.9v-.068l.066-.016,2.289-.555-.058.057a9.649,9.649,0,0,1,.945-2.379l0,.073-1.283-1.974-.027-.042.034-.034,2.723-2.788.022-.022.026.016,1.483.923.381.242a1.339,1.339,0,0,1,.129.088" transform="translate(-151.33 -107.073)" fill="#e0e0e0"/>
            <path id="Trazado_913807" data-name="Trazado 913807" d="M389.123,392.733H343.588l4.148-41.956h37.113Z" transform="translate(-186.42 -190.321)" fill="#f5f5f5"/>
            <path id="Trazado_913808" data-name="Trazado 913808" d="M369.625,358.841a1.05,1.05,0,1,1-1.049-1.049,1.049,1.049,0,0,1,1.049,1.049" transform="translate(-199.408 -194.127)" fill="#e0e0e0"/>
            <path id="Trazado_913809" data-name="Trazado 913809" d="M415.111,358.841a1.05,1.05,0,1,1-1.049-1.049,1.049,1.049,0,0,1,1.049,1.049" transform="translate(-224.087 -194.127)" fill="#e0e0e0"/>
            <path id="Trazado_913810" data-name="Trazado 913810" d="M369.238,334.617V323.88a10.736,10.736,0,0,1,21.473,0v10.736" transform="translate(-200.337 -169.902)" fill="none" stroke="#e0e0e0" stroke-miterlimit="10" stroke-width="1"/>
            <path id="Trazado_913811" data-name="Trazado 913811" d="M108.228,375.722h-61.1l5.566-56.3h49.8Z" transform="translate(-25.57 -173.31)" fill="#f5f5f5"/>
            <path id="Trazado_913812" data-name="Trazado 913812" d="M82.065,330.246a1.408,1.408,0,1,1-1.408-1.408,1.408,1.408,0,0,1,1.408,1.408" transform="translate(-42.998 -178.417)" fill="#e0e0e0"/>
            <path id="Trazado_913813" data-name="Trazado 913813" d="M143.1,330.246a1.408,1.408,0,1,1-1.408-1.408,1.408,1.408,0,0,1,1.408,1.408" transform="translate(-76.113 -178.417)" fill="#e0e0e0"/>
            <path id="Trazado_913814" data-name="Trazado 913814" d="M81.546,297.741V283.334a14.406,14.406,0,1,1,28.812,0v14.406" transform="translate(-44.244 -145.912)" fill="none" stroke="#e0e0e0" stroke-miterlimit="10" stroke-width="1"/>
            <path id="Trazado_913815" data-name="Trazado 913815" d="M36.2,402.934H0l3.3-33.355H32.8Z" transform="translate(0 -200.522)" fill="#ebebeb"/>
            <path id="Trazado_913816" data-name="Trazado 913816" d="M20.7,375.989a.834.834,0,1,1-.834-.834.835.835,0,0,1,.834.834" transform="translate(-10.326 -203.547)" fill="#e0e0e0"/>
            <path id="Trazado_913817" data-name="Trazado 913817" d="M56.862,375.989a.834.834,0,1,1-.834-.834.835.835,0,0,1,.834.834" transform="translate(-29.946 -203.547)" fill="#e0e0e0"/>
            <path id="Trazado_913818" data-name="Trazado 913818" d="M20.392,356.73v-8.536a8.536,8.536,0,1,1,17.071,0v8.536" transform="translate(-11.064 -184.288)" fill="none" stroke="#e0e0e0" stroke-miterlimit="10" stroke-width="1"/>
            <path id="Trazado_913819" data-name="Trazado 913819" d="M37.077,396.335s-2.744-5.564-3.166-5.985a4.039,4.039,0,0,0-1-.613,5.2,5.2,0,0,0-.632-.274l-.045-.018h0c-1.184-.437-3.041-.888-3.041-.888a2.785,2.785,0,0,1-2.722,1.727,2.785,2.785,0,0,1-2.722-1.727s-1.857.451-3.041.888h0l-.045.018a5.215,5.215,0,0,0-.633.274,4.039,4.039,0,0,0-1,.613c-.422.422-3.165,5.985-3.165,5.985l4.014,2.007,1.22-2.777-.278,10.055H32.183l-.34-10.055,1.22,2.777Z" transform="translate(-8.605 -210.818)" fill="#e0e0e0"/>
          </g>
        </g>
        <g id="Grupo_1103276" data-name="Grupo 1103276">
          <g id="Grupo_1103275" data-name="Grupo 1103275" clip-path="url(#clip-path)">
            <path id="Trazado_913820" data-name="Trazado 913820" d="M205.579,442.516c0,.066-45.218.119-100.985.119-55.786,0-100.994-.053-100.994-.119s45.208-.119,100.994-.119c55.767,0,100.985.053,100.985.119" transform="translate(-1.953 -240.031)" fill="#263238"/>
          </g>
        </g>
        <g id="Grupo_1103278" data-name="Grupo 1103278">
          <g id="Grupo_1103277" data-name="Grupo 1103277" clip-path="url(#clip-path)">
            <path id="Trazado_913821" data-name="Trazado 913821" d="M149.781,389.938l-50.912,3.728c-13.032,1.784-46.84,8.33-58.31,20.388l168.167-.238c-7.947-11.82-42.653-22.544-58.945-23.877" transform="translate(-22.006 -211.568)" fill="#ee4f47"/>
            <path id="Trazado_913822" data-name="Trazado 913822" d="M272.691,218.381c2.8-8.6,5.564-17.256,6.842-26.2s1.012-18.278-2.133-26.753c-.477-1.284-4.542-9.9-5.906-9.77-.975.1,1.528,8.136,1.035,8.982-4.708,8.075-5.992,17.789-5.246,27.106a122.436,122.436,0,0,0,5.408,26.64" transform="translate(-144.912 -84.451)" fill="#263238"/>
            <path id="Trazado_913823" data-name="Trazado 913823" d="M157.525,125.352l-2.1.111a40.536,40.536,0,0,0-38.375,39.37c-.539,19.639-.883,41.339-.2,51.823,1.421,21.708,23.327,23.934,23.327,23.934.048,0-.159,5.809-.1,12.193l.585.31a49.927,49.927,0,0,0,50.22-1.98l1.117-83.659c.748-22.659-11.814-41.981-34.485-42.1" transform="translate(-63.196 -68.012)" fill="#ffc09d"/>
            <path id="Trazado_913824" data-name="Trazado 913824" d="M168.032,365.576s13.735.077,27.841-9.863c0,0-6.058,16.164-27.838,15.359Z" transform="translate(-91.169 -192.999)" fill="#ff9b6c"/>
            <path id="Trazado_913825" data-name="Trazado 913825" d="M132.964,249.711a3.107,3.107,0,0,0,3.157,2.971,2.972,2.972,0,0,0,3.05-2.967,3.109,3.109,0,0,0-3.154-2.974,2.975,2.975,0,0,0-3.053,2.969" transform="translate(-72.142 -133.874)" fill="#263238"/>
            <path id="Trazado_913826" data-name="Trazado 913826" d="M128.6,226.528c.406.384,2.664-1.48,6-1.649,3.332-.215,5.874,1.372,6.214.944.168-.19-.262-.9-1.37-1.62a8.528,8.528,0,0,0-5-1.256,8.187,8.187,0,0,0-4.751,1.817c-.984.843-1.294,1.592-1.094,1.764" transform="translate(-69.741 -120.957)" fill="#263238"/>
            <path id="Trazado_913827" data-name="Trazado 913827" d="M194.975,249.712a3.106,3.106,0,0,0,3.157,2.971,2.971,2.971,0,0,0,3.05-2.966,3.109,3.109,0,0,0-3.155-2.973,2.973,2.973,0,0,0-3.052,2.969" transform="translate(-105.787 -133.875)" fill="#263238"/>
            <path id="Trazado_913828" data-name="Trazado 913828" d="M200.239,225.69c.407.384,2.668-1.479,6-1.648,3.332-.216,5.873,1.371,6.214.943.167-.191-.259-.9-1.371-1.619a8.524,8.524,0,0,0-5-1.257,8.193,8.193,0,0,0-4.752,1.817c-.982.843-1.293,1.593-1.1,1.763" transform="translate(-108.613 -120.502)" fill="#263238"/>
            <path id="Trazado_913829" data-name="Trazado 913829" d="M166.856,254.329c.006-.19-2.089-.439-5.474-.691-.857-.042-1.673-.169-1.848-.743a4.352,4.352,0,0,1,.435-2.557q1.039-3.158,2.177-6.625c3.011-9.428,5.142-17.161,4.761-17.279s-3.13,7.428-6.141,16.855q-1.083,3.486-2.068,6.658a4.941,4.941,0,0,0-.265,3.369,2.14,2.14,0,0,0,1.467,1.172,5.749,5.749,0,0,0,1.459.124c3.394,0,5.493-.093,5.5-.284" transform="translate(-85.844 -122.855)" fill="#263238"/>
            <path id="Trazado_913830" data-name="Trazado 913830" d="M197.245,202c.376.891,3.687.29,7.628.562,3.947.193,7.164,1.177,7.642.338.212-.4-.382-1.228-1.7-2.041a13.3,13.3,0,0,0-11.633-.685c-1.408.653-2.1,1.4-1.932,1.827" transform="translate(-107.006 -108.053)" fill="#263238"/>
            <path id="Trazado_913831" data-name="Trazado 913831" d="M130.192,201.779c.611.741,2.889-.118,5.656-.239,2.762-.218,5.127.354,5.642-.456.225-.392-.167-1.141-1.214-1.828a8.2,8.2,0,0,0-9.1.56c-.954.81-1.251,1.6-.981,1.964" transform="translate(-70.586 -107.503)" fill="#263238"/>
            <path id="Trazado_913832" data-name="Trazado 913832" d="M279.316,251.622c.362-.18,14.692-5.207,15.006,9.67s-14.687,12.122-14.722,11.7-.284-21.367-.284-21.367" transform="translate(-151.548 -136.001)" fill="#ffc09d"/>
            <path id="Trazado_913833" data-name="Trazado 913833" d="M289.6,272.908c.064-.049.263.176.705.367a2.59,2.59,0,0,0,1.938,0c1.559-.61,2.83-3.133,2.846-5.816a8.563,8.563,0,0,0-.8-3.7,3,3,0,0,0-1.991-1.948,1.32,1.32,0,0,0-1.515.742c-.191.42-.09.715-.168.742-.041.038-.324-.243-.218-.86a1.655,1.655,0,0,1,.566-.944,1.955,1.955,0,0,1,1.425-.409,3.641,3.641,0,0,1,2.756,2.249,8.8,8.8,0,0,1,.986,4.127c-.033,3-1.508,5.838-3.645,6.5a2.78,2.78,0,0,1-2.379-.344c-.468-.358-.554-.688-.5-.717" transform="translate(-157.119 -141.654)" fill="#ff9b6c"/>
            <path id="Trazado_913834" data-name="Trazado 913834" d="M137.276,136.9c-2.424-1.3,4.707-9.186,10.591-11.943,8.894-4.167,22.52-6.834,30.795-4.6,9.963,2.693,18.272,7.532,23.367,16.507s7.1,19.481,6.935,29.8c-.049,3.149-.336,6.433-1.984,9.116-2.038,3.315-6,5.436-5.77,9.972a6.231,6.231,0,0,1-1.49,4.561c-2.687,2.93-6.05.249-7.615-2.46-3.342-5.788-3.792-12.741-4.161-19.414-.263-4.743-.515-9.588.768-14.162.7-2.489,1.838-4.846,2.4-7.371s.447-5.379-1.145-7.415a9.29,9.29,0,0,0-1.223-1.208,15.517,15.517,0,0,0-15.43-2.742c-8.342,3.067-22.6,7.669-26.369,4.872-5.426-4.025-6.745-6.677-6.745-6.677Z" transform="translate(-74.218 -64.862)" fill="#263238"/>
            <path id="Trazado_913835" data-name="Trazado 913835" d="M168.1,305.128c-.083.249.557.766,1.813,1.062a8.857,8.857,0,0,0,8.86-3.5c.715-1.074.83-1.888.6-2.013-.512-.282-2.2,1.99-5.272,3.148-3.037,1.255-5.82.745-6,1.3" transform="translate(-91.204 -163.126)" fill="#263238"/>
            <path id="Trazado_913836" data-name="Trazado 913836" d="M173.831,114.65a10.08,10.08,0,0,0-9.875-4.22c-1.572.275-3.19.93-4.708.436-1.3-.422-2.2-1.594-3.369-2.3-2.926-1.757-7.343.41-7.744,3.8a13.751,13.751,0,0,0-5.574-2.693c-2.06-.306-4.453.572-5.211,2.512-.579,1.482-.186,3.4-1.341,4.495-1.56,1.478-4.069-.032-6.217.055-2.576.1-4.5,2.791-4.481,5.369s1.509,4.932,3.31,6.778a20.548,20.548,0,0,0,17.072,5.932l15.253-10.355,10.448-3.781c1.23-.446,2.581-1,3.135-2.181a4.07,4.07,0,0,0-.7-3.847" transform="translate(-67.991 -58.567)" fill="#263238"/>
            <path id="Trazado_913837" data-name="Trazado 913837" d="M233.134,150.566c-1.2-3.324-4.539-5.36-7.82-6.673a38.889,38.889,0,0,0-12.775-2.742l-9.888,8.344a14.848,14.848,0,0,1,14.748,1.1c4.245,2.954,5.6,7.816,6.157,13.446.129,1.293-.151,6.429-.02,7.722s1.249.505,2.483.912c1.117.368,1.67-1.856,2.492-2.7a8.751,8.751,0,0,0,1.715-3.053,70.81,70.81,0,0,0,2.686-8.507c.639-2.581,1.123-5.352.222-7.854" transform="translate(-109.952 -76.584)" fill="#263238"/>
          </g>
        </g>
        <g id="Grupo_1103283" data-name="Grupo 1103283">
          <g id="Grupo_1103282" data-name="Grupo 1103282" clip-path="url(#clip-path)">
            <path id="Trazado_913838" data-name="Trazado 913838" d="M259.278,134.384l39.67,34.465a4.264,4.264,0,1,0,5.585-6.444l-39.16-33.854Z" transform="translate(-140.676 -69.747)" fill="#455a64"/>
            <path id="Trazado_913839" data-name="Trazado 913839" d="M193.232,95.782A26.008,26.008,0,1,1,219.24,69.774a26.038,26.038,0,0,1-26.009,26.008m0-48.584a22.575,22.575,0,1,0,22.576,22.576A22.6,22.6,0,0,0,193.232,47.2" transform="translate(-90.73 -23.746)" fill="#455a64"/>
            <path id="Trazado_913840" data-name="Trazado 913840" d="M197.19,51.27s.124,0,.365.006l1.074.043.792.034c.29.027.6.085.947.131l1.1.164a12.162,12.162,0,0,1,1.238.285,21.42,21.42,0,0,1,6.036,2.477,22.561,22.561,0,0,1,6.447,5.731l.733.977c.228.343.435.7.658,1.062s.463.711.643,1.1l.569,1.175.286.6.231.628.469,1.274c.145.432.239.886.362,1.334a11.6,11.6,0,0,1,.315,1.371,21.045,21.045,0,0,1,.34,2.865c.018.489.067.982.06,1.478q-.037.744-.075,1.5c-.017.251-.015.506-.048.757l-.115.756c-.083.505-.141,1.018-.246,1.526a23.936,23.936,0,0,1-.885,3.025l-.275.752c-.048.125-.089.253-.142.376l-.175.364-.706,1.466c-.26.479-.561.939-.843,1.413-.148.232-.274.48-.443.7l-.5.668a25.583,25.583,0,0,1-2.185,2.574l-1.269,1.155-.319.29c-.112.09-.23.173-.344.261l-.695.52-.7.522-.746.458-.751.457-.377.229c-.129.07-.264.129-.4.195l-1.6.772-1.68.618a22.387,22.387,0,0,1-14.317,0l-1.68-.618-1.6-.772c-.132-.065-.267-.126-.4-.195l-.377-.229-.751-.457-.746-.458-.7-.522-.695-.52-.344-.261-.319-.29-1.269-1.155a25.535,25.535,0,0,1-2.186-2.575l-.5-.669c-.168-.22-.295-.469-.443-.7-.281-.474-.582-.935-.843-1.413l-.706-1.466-.175-.364c-.053-.124-.094-.252-.142-.377l-.275-.752A23.775,23.775,0,0,1,175,78.545c-.105-.508-.163-1.021-.247-1.526l-.115-.757c-.033-.252-.031-.506-.048-.758q-.038-.756-.075-1.5c-.007-.5.042-.989.06-1.478a21.052,21.052,0,0,1,.34-2.866,11.6,11.6,0,0,1,.315-1.371c.124-.448.217-.9.363-1.334l.469-1.274.231-.628.286-.6.569-1.174c.181-.391.434-.738.644-1.1s.43-.72.658-1.063l.733-.977a22.554,22.554,0,0,1,6.447-5.731,21.429,21.429,0,0,1,6.035-2.477,12.271,12.271,0,0,1,1.238-.285l1.1-.164c.343-.047.657-.1.947-.131l.792-.034,1.074-.043c.242-.008.365-.006.365-.006s-.124.015-.365.031l-1.071.066-.789.046c-.289.03-.6.091-.943.142l-1.1.174a12.415,12.415,0,0,0-1.231.3,21.516,21.516,0,0,0-5.99,2.5,22.5,22.5,0,0,0-6.381,5.718l-.725.972c-.225.341-.43.7-.649,1.056s-.457.707-.635,1.1l-.561,1.167-.282.593-.228.623-.462,1.264c-.144.429-.234.879-.356,1.323a11.493,11.493,0,0,0-.31,1.36,20.913,20.913,0,0,0-.33,2.841c-.017.484-.064.972-.057,1.464q.038.738.077,1.487c.017.249.016.5.049.75s.077.5.116.749c.083.5.141,1.009.246,1.511a23.719,23.719,0,0,0,.881,2.995l.274.745c.047.124.088.251.141.373l.174.36.7,1.451c.258.474.557.929.836,1.4.147.23.273.475.439.693l.5.661a25.424,25.424,0,0,0,2.166,2.547l1.257,1.142.316.287.341.258.688.514.691.517.739.452.743.452.373.227c.129.068.262.128.393.192l1.583.764,1.663.611a22.166,22.166,0,0,0,14.167,0l1.662-.611,1.583-.763c.131-.064.264-.124.392-.193l.373-.226.743-.452.738-.453.691-.516.688-.515c.113-.086.23-.169.341-.258l.316-.287,1.257-1.141a25.359,25.359,0,0,0,2.165-2.547l.5-.661c.167-.218.292-.464.439-.693.279-.469.578-.924.836-1.4l.7-1.451.174-.36c.053-.122.094-.249.141-.373l.274-.745a23.713,23.713,0,0,0,.881-2.994c.1-.5.163-1.011.246-1.511q.058-.376.116-.749c.033-.249.031-.5.048-.751q.039-.749.077-1.487c.008-.492-.04-.98-.057-1.464a20.847,20.847,0,0,0-.33-2.841,11.5,11.5,0,0,0-.309-1.36c-.122-.445-.213-.894-.356-1.323l-.462-1.264-.228-.623-.282-.593-.561-1.166c-.177-.389-.428-.733-.635-1.1s-.424-.715-.649-1.056l-.725-.972a22.5,22.5,0,0,0-6.381-5.719,21.5,21.5,0,0,0-5.99-2.5,12.379,12.379,0,0,0-1.231-.295l-1.1-.174c-.341-.051-.654-.112-.943-.142l-.789-.046-1.071-.066c-.242-.016-.365-.031-.365-.031" transform="translate(-94.688 -27.817)" fill="#263238"/>
            <path id="Trazado_913841" data-name="Trazado 913841" d="M193.119,95.641s.143-.016.421-.033l1.235-.075.909-.052c.333-.035.694-.105,1.087-.163l1.267-.2a4.516,4.516,0,0,0,.691-.149l.727-.19a24.765,24.765,0,0,0,6.9-2.88,25.924,25.924,0,0,0,7.356-6.59l.836-1.12c.259-.393.5-.808.748-1.218l.377-.621a5.174,5.174,0,0,0,.355-.641l.647-1.345.326-.683.262-.719.533-1.457c.165-.494.27-1.013.41-1.526l.2-.776c.032-.13.07-.259.1-.391l.061-.4a24.045,24.045,0,0,0,.382-3.275c.019-.558.074-1.121.065-1.688q-.043-.851-.088-1.714c-.02-.287-.017-.578-.056-.865l-.133-.863c-.1-.576-.163-1.163-.284-1.742a27.236,27.236,0,0,0-1.015-3.452l-.315-.859c-.054-.143-.1-.289-.162-.43l-.2-.415-.808-1.672c-.3-.546-.643-1.07-.964-1.612-.17-.265-.314-.548-.506-.8l-.571-.762a29.266,29.266,0,0,0-2.5-2.937l-1.449-1.316-.365-.331c-.128-.1-.262-.2-.393-.3l-.793-.593-.8-.6c-.279-.179-.567-.347-.851-.522l-.857-.521-.43-.261c-.148-.079-.3-.148-.452-.222l-1.825-.88-1.917-.7a25.558,25.558,0,0,0-16.333,0l-1.917.7-1.826.881c-.15.074-.3.143-.452.222l-.43.261-.857.521-.852.522-.8.6-.793.593-.393.3-.365.331-1.449,1.316a29.262,29.262,0,0,0-2.5,2.937l-.571.763c-.192.252-.336.535-.506.8-.322.541-.666,1.066-.964,1.612l-.808,1.672-.2.415c-.06.141-.108.287-.162.43l-.316.859a27.418,27.418,0,0,0-1.015,3.453c-.121.579-.188,1.166-.284,1.742q-.067.434-.133.864c-.038.287-.036.578-.056.865q-.045.864-.088,1.714c-.008.567.046,1.13.066,1.688a24.051,24.051,0,0,0,.381,3.275l.061.4c.027.132.065.261.1.392l.2.776c.14.512.245,1.031.411,1.526l.532,1.457.263.719.326.683.646,1.344a5.179,5.179,0,0,0,.356.642l.377.621c.253.41.489.825.748,1.217l.836,1.12a25.927,25.927,0,0,0,7.357,6.589,24.769,24.769,0,0,0,6.9,2.88l.727.19a4.438,4.438,0,0,0,.691.148l1.266.2c.392.058.753.128,1.086.163l.909.052,1.235.075c.278.018.421.033.421.033s-.143,0-.421-.009l-1.237-.051-.912-.041c-.334-.031-.7-.1-1.091-.152l-1.272-.189a4.482,4.482,0,0,1-.695-.144l-.731-.186a24.67,24.67,0,0,1-6.949-2.855,25.985,25.985,0,0,1-7.423-6.6l-.844-1.125c-.262-.395-.5-.811-.757-1.224l-.381-.624a5.246,5.246,0,0,1-.36-.645l-.654-1.353-.33-.688-.266-.723-.54-1.467c-.168-.5-.275-1.02-.417-1.536l-.2-.781c-.032-.131-.071-.261-.1-.394l-.062-.4a24.252,24.252,0,0,1-.391-3.3c-.021-.563-.076-1.13-.069-1.7q.043-.858.086-1.728c.02-.29.017-.582.055-.872l.133-.871c.1-.581.162-1.172.284-1.757a27.49,27.49,0,0,1,1.019-3.483l.317-.866c.055-.145.1-.292.163-.434l.2-.419.813-1.688c.3-.551.647-1.081.971-1.627.171-.267.317-.553.51-.807l.575-.769a29.37,29.37,0,0,1,2.516-2.965l1.461-1.329.367-.334.4-.3.8-.6.8-.6.859-.527.865-.526.434-.264c.15-.08.3-.149.457-.224l1.842-.889,1.934-.711a25.772,25.772,0,0,1,16.483,0l1.934.712,1.841.889c.152.075.307.145.457.225l.434.263.865.526c.286.177.577.346.858.527l.8.6.8.6c.132.1.268.2.4.3l.367.334,1.461,1.329a29.376,29.376,0,0,1,2.516,2.964l.575.769c.193.254.339.54.51.807.324.546.671,1.075.97,1.627l.813,1.687.2.419c.061.142.108.29.163.434l.317.866a27.43,27.43,0,0,1,1.019,3.482c.122.585.188,1.176.284,1.757l.132.87c.039.29.036.583.056.872q.043.87.086,1.728c.008.571-.048,1.139-.069,1.7a24.255,24.255,0,0,1-.391,3.3l-.062.4c-.027.133-.066.263-.1.394l-.2.782c-.142.516-.25,1.038-.417,1.536l-.54,1.467-.266.723-.329.688-.655,1.353a5.124,5.124,0,0,1-.36.645l-.381.625c-.256.412-.495.828-.757,1.223l-.844,1.125a25.987,25.987,0,0,1-7.422,6.6,24.677,24.677,0,0,1-6.95,2.856l-.731.186a4.533,4.533,0,0,1-.694.144l-1.272.189c-.394.055-.757.121-1.091.152l-.912.041-1.237.051c-.279.01-.421.009-.421.009" transform="translate(-90.617 -23.604)" fill="#263238"/>
            <path id="Trazado_913842" data-name="Trazado 913842" d="M188.268,110.939a1.03,1.03,0,0,1-.211-.142l-.577-.444-.414-.326c-.147-.124-.3-.27-.463-.421a15.058,15.058,0,0,1-1.092-1.067l-.605-.651c-.208-.229-.4-.489-.611-.746-.433-.507-.826-1.1-1.253-1.718a23.173,23.173,0,0,1-3.5-9.03c-.1-.743-.21-1.447-.232-2.114-.017-.333-.051-.653-.051-.962s.005-.605.007-.889a15.041,15.041,0,0,1,.087-1.525c.021-.224.033-.433.058-.623s.059-.36.086-.52c.051-.29.093-.527.126-.717a1.031,1.031,0,0,1,.06-.247,1.018,1.018,0,0,1-.012.254c-.022.192-.049.43-.082.721l-.064.52c-.018.191-.024.4-.038.622-.02.446-.074.953-.052,1.516q0,.423.008.882c.005.306.043.624.064.954.03.661.148,1.357.252,2.092a23.812,23.812,0,0,0,3.469,8.946c.419.613.8,1.207,1.225,1.715.206.258.392.518.6.747l.589.657c.363.431.745.768,1.06,1.085.161.155.306.305.447.434l.4.34.547.477a1.05,1.05,0,0,1,.181.18" transform="translate(-97.259 -48.178)" fill="#fff"/>
            <path id="Trazado_913843" data-name="Trazado 913843" d="M253.968,111.517a4.206,4.206,0,0,1-.129.714,7.635,7.635,0,0,1-.212.825c-.1.317-.192.685-.348,1.074s-.3.823-.516,1.268c-.19.455-.445.916-.7,1.406a19.018,19.018,0,0,1-4.6,5.495c-.438.34-.847.672-1.262.938-.4.286-.8.52-1.158.73s-.7.379-1,.531a7.641,7.641,0,0,1-.775.353,4.178,4.178,0,0,1-.68.253,4.289,4.289,0,0,1,.642-.337c.211-.1.467-.222.752-.387s.625-.328.971-.557.739-.456,1.131-.747c.406-.271.806-.6,1.235-.946a19.867,19.867,0,0,0,4.553-5.433c.26-.482.519-.934.715-1.381.217-.437.386-.858.537-1.245s.269-.742.379-1.053.19-.584.249-.809a4.279,4.279,0,0,1,.219-.691" transform="translate(-131.619 -60.506)" fill="#fff"/>
            <path id="Trazado_913844" data-name="Trazado 913844" d="M268.153,90.025a12.649,12.649,0,0,1,0,5.732c-.07-.011.094-1.286.09-2.866s-.161-2.855-.091-2.866" transform="translate(-145.482 -48.845)" fill="#fff"/>
            <path id="Trazado_913845" data-name="Trazado 913845" d="M358.753,104.858c-.023-1.26-.044-2.31-.055-2.44,0,0-4.268-.319-4.657-4.531-.188-2.035-.233-6.258-.23-10.079a7.877,7.877,0,0,1,7.254-7.841l.407-.032c4.406-.093,6.947,3.6,6.919,8l.129,14.933-6.976,7.467-.517-.036Z" transform="translate(-191.967 -43.369)" fill="#ffc09d"/>
            <path id="Trazado_913846" data-name="Trazado 913846" d="M364.494,126.644a10.219,10.219,0,0,0,5.359-2.06s-1.093,3.186-5.33,3.142Z" transform="translate(-197.763 -67.595)" fill="#ff9b6c"/>
            <path id="Trazado_913847" data-name="Trazado 913847" d="M369.573,99.923c.084.085.568-.31,1.274-.334s1.236.319,1.309.228c.036-.041-.052-.2-.283-.356a1.768,1.768,0,0,0-1.052-.291,1.7,1.7,0,0,0-1.01.376c-.211.178-.279.34-.238.377" transform="translate(-200.513 -53.806)" fill="#263238"/>
            <path id="Trazado_913848" data-name="Trazado 913848" d="M369.382,104.225a.571.571,0,0,0,.6.531.546.546,0,0,0,.546-.56.571.571,0,0,0-.594-.531.547.547,0,0,0-.547.56" transform="translate(-200.415 -56.245)" fill="#263238"/>
            <path id="Trazado_913849" data-name="Trazado 913849" d="M363.789,105.149a4.348,4.348,0,0,0-1.067-.106c-.167,0-.326-.024-.363-.134a.845.845,0,0,1,.071-.5l.388-1.3a21.7,21.7,0,0,0,.836-3.382,21.69,21.69,0,0,0-1.106,3.307q-.193.683-.368,1.3a.96.96,0,0,0-.034.656.416.416,0,0,0,.291.22,1.124,1.124,0,0,0,.284.017,4.174,4.174,0,0,0,1.067-.084" transform="translate(-196.463 -54.11)" fill="#263238"/>
            <path id="Trazado_913850" data-name="Trazado 913850" d="M370.252,95.214c.069.156.634.034,1.311.065.677.016,1.234.176,1.312.024.034-.072-.072-.215-.3-.354a2.131,2.131,0,0,0-.993-.272,2.109,2.109,0,0,0-1,.2c-.238.122-.352.258-.322.333" transform="translate(-200.885 -51.368)" fill="#263238"/>
            <path id="Trazado_913851" data-name="Trazado 913851" d="M355.794,96.352c.075.127.625-.018,1.292-.043s1.222.057,1.292-.077c.031-.064-.081-.177-.314-.278a2.333,2.333,0,0,0-.989-.156,2.4,2.4,0,0,0-.98.248c-.229.121-.335.245-.3.306" transform="translate(-193.04 -51.975)" fill="#263238"/>
            <path id="Trazado_913852" data-name="Trazado 913852" d="M385.477,104.06c.069-.037,2.828-1.088,2.966,1.8a2.174,2.174,0,0,1-2.8,2.349c-.01-.083-.166-4.151-.166-4.151" transform="translate(-209.148 -56.342)" fill="#ffc09d"/>
            <path id="Trazado_913853" data-name="Trazado 913853" d="M387.651,108.162c.012-.01.052.033.139.068a.5.5,0,0,0,.376-.01,1.247,1.247,0,0,0,.523-1.145,1.679,1.679,0,0,0-.175-.714.585.585,0,0,0-.4-.368.257.257,0,0,0-.29.152c-.035.082-.014.14-.029.145s-.064-.045-.047-.166a.32.32,0,0,1,.105-.186.38.38,0,0,1,.275-.087.71.71,0,0,1,.547.423,1.712,1.712,0,0,1,.213.8,1.307,1.307,0,0,1-.675,1.283.539.539,0,0,1-.464-.054c-.093-.067-.111-.131-.1-.137" transform="translate(-210.326 -57.431)" fill="#ff9b6c"/>
            <path id="Trazado_913854" data-name="Trazado 913854" d="M367.02,113.746c-.021-.077.564-.161,1.037-.628a3.23,3.23,0,0,0,.507-.688c.114-.195.2-.316.226-.3s0,.153-.08.372a2.139,2.139,0,0,1-.493.781,1.731,1.731,0,0,1-.814.45c-.231.056-.38.039-.384.014" transform="translate(-199.134 -60.837)" fill="#263238"/>
            <path id="Trazado_913855" data-name="Trazado 913855" d="M367.02,113.746c-.021-.077.564-.161,1.037-.628a3.23,3.23,0,0,0,.507-.688c.114-.195.2-.316.226-.3s0,.153-.08.372a2.139,2.139,0,0,1-.493.781,1.731,1.731,0,0,1-.814.45C367.173,113.788,367.024,113.771,367.02,113.746Z" transform="translate(-199.134 -60.837)" fill="none" stroke="#263238" stroke-miterlimit="10" stroke-width="0.25"/>
            <path id="Trazado_913856" data-name="Trazado 913856" d="M369.365,83.377a14.147,14.147,0,0,1-1.094-3.366,3.824,3.824,0,0,0-2.1-2.7l-.025.011a3.04,3.04,0,0,0-3.056.307,3.955,3.955,0,0,0-3.008-3.056,9.786,9.786,0,0,0-5.221.446,10.74,10.74,0,0,0-3.4,2.674,14.206,14.206,0,0,0-1.463,1.8l-1.248,3.945,1.106,2.057a4.672,4.672,0,0,0,.217.419V85.9l1.014,4.344c.054-1.187-.06-5.314-.005-6.5a6.615,6.615,0,0,0,4.7-2.21,7.769,7.769,0,0,1,2.01-2.059c1.114-.56,2.449-.167,3.629.234l-.05-.044a5.286,5.286,0,0,1,1.64,1.167,16.446,16.446,0,0,0,.759,6.957c.113.336.419,1.027.75,1.152.65.247.821-.415,1.209-.769a1.717,1.717,0,0,1,1.179-.3,25.916,25.916,0,0,0,.773-3,2.633,2.633,0,0,0,1.214.073l-.379-.891a1.385,1.385,0,0,0,.521.231.47.47,0,0,0,.491-.218c.108-.223-.043-.477-.17-.689" transform="translate(-189.224 -40.365)" fill="#263238"/>
            <path id="Trazado_913857" data-name="Trazado 913857" d="M377.206,82.546a3.613,3.613,0,0,1,.425.384,3.025,3.025,0,0,1,.656,1.4,5.3,5.3,0,0,1,.115,1.07c0,.388-.024.8-.051,1.242a11.028,11.028,0,0,0-.022,1.382,4.864,4.864,0,0,0,.1.729,1.522,1.522,0,0,0,.3.705.636.636,0,0,0,.6.2.949.949,0,0,0,.533-.306,2.186,2.186,0,0,0,.4-1.075l-.088.011a3.55,3.55,0,0,0,.519.88,1.256,1.256,0,0,0,.823.441.813.813,0,0,0,.434-.079.7.7,0,0,0,.294-.293.729.729,0,0,0,.087-.374.525.525,0,0,0-.138-.327l-.044.04a2.727,2.727,0,0,0,.91.673,2.463,2.463,0,0,0,.281.107.47.47,0,0,0,.1.024.545.545,0,0,0-.1-.04c-.063-.026-.156-.062-.273-.121a2.8,2.8,0,0,1-.878-.683l-.044.04a.541.541,0,0,1,.032.626.63.63,0,0,1-.265.259.733.733,0,0,1-.393.067,1.175,1.175,0,0,1-.764-.419,3.489,3.489,0,0,1-.5-.861l-.061-.135-.027.146a2.113,2.113,0,0,1-.38,1.026.851.851,0,0,1-.478.274.537.537,0,0,1-.507-.166,1.444,1.444,0,0,1-.279-.66,4.88,4.88,0,0,1-.1-.714,11.329,11.329,0,0,1,.017-1.371c.024-.438.05-.856.042-1.249a5.3,5.3,0,0,0-.129-1.085,2.976,2.976,0,0,0-.7-1.406,1.719,1.719,0,0,0-.454-.358" transform="translate(-204.66 -44.787)" fill="#455a64"/>
            <path id="Trazado_913858" data-name="Trazado 913858" d="M348.759,83.946s.011.011.034.028l.106.076a1.364,1.364,0,0,0,.179.113,2.2,2.2,0,0,0,.257.133,3.737,3.737,0,0,0,1.806.312,4.779,4.779,0,0,0,2.538-.956,8.273,8.273,0,0,0,2.169-2.534c.3-.512.549-1.037.822-1.522a5.578,5.578,0,0,1,.934-1.289,2.874,2.874,0,0,1,1.209-.745,2.063,2.063,0,0,1,.64-.078,2.258,2.258,0,0,1,.587.109,2.436,2.436,0,0,1,1.362,1.137,2.917,2.917,0,0,1,.221.63.142.142,0,0,0,0-.044l-.021-.129a2.11,2.11,0,0,0-.163-.475,2.4,2.4,0,0,0-.476-.636,2.467,2.467,0,0,0-.9-.549,2.321,2.321,0,0,0-.606-.118,2.127,2.127,0,0,0-.666.075,2.95,2.95,0,0,0-1.251.759,5.648,5.648,0,0,0-.954,1.307c-.275.489-.522,1.012-.822,1.52a8.275,8.275,0,0,1-2.138,2.51,4.746,4.746,0,0,1-2.488.96,3.8,3.8,0,0,1-1.786-.278,5.925,5.925,0,0,1-.592-.316" transform="translate(-189.226 -41.999)" fill="#455a64"/>
            <path id="Trazado_913859" data-name="Trazado 913859" d="M355.507,100.6c.084.085.568-.31,1.274-.333s1.235.319,1.309.228c.036-.041-.052-.2-.283-.356a1.768,1.768,0,0,0-1.052-.291,1.7,1.7,0,0,0-1.01.376c-.211.178-.279.34-.238.377" transform="translate(-192.881 -54.173)" fill="#263238"/>
            <path id="Trazado_913860" data-name="Trazado 913860" d="M356.322,104.794a.571.571,0,0,0,.6.531.546.546,0,0,0,.546-.56.571.571,0,0,0-.594-.531.547.547,0,0,0-.547.561" transform="translate(-193.329 -56.553)" fill="#263238"/>
            <path id="Trazado_913861" data-name="Trazado 913861" d="M347.831,84.469a1.807,1.807,0,0,1-1.485.871,4.445,4.445,0,0,1-.632-.172c-.2.129-.142.834,0,1.026a3.768,3.768,0,0,0,.451.45,2.337,2.337,0,0,1-2.064-.042,3.624,3.624,0,0,0,2.207,2.864,1.273,1.273,0,0,0,1.164,0,1.462,1.462,0,0,0,.494-.917,15.869,15.869,0,0,0,.443-3.885Z" transform="translate(-186.701 -45.83)" fill="#263238"/>
            <path id="Trazado_913862" data-name="Trazado 913862" d="M309.959,316.573l3.482,7.868s-9.166,3.636-9.239,5.364l17.837-.327-.022-1.51-3.934-12.979Z" transform="translate(-165.051 -170.904)" fill="#455a64"/>
            <path id="Trazado_913863" data-name="Trazado 913863" d="M334.8,332.529a.739.739,0,0,1,.519.833.7.7,0,0,1-.811.528.779.779,0,0,1-.545-.885.724.724,0,0,1,.9-.455" transform="translate(-181.188 -180.405)" fill="#e0e0e0"/>
            <path id="Trazado_913864" data-name="Trazado 913864" d="M322.028,344.873l-.022-1.51-17.127.907s-.788.365-.688.93Z" transform="translate(-165.04 -186.298)" fill="#263238"/>
            <path id="Trazado_913865" data-name="Trazado 913865" d="M323.764,335.358c0,.088.441.12.874.4s.669.643.748.607c.08-.019-.059-.544-.59-.869s-1.053-.214-1.032-.134" transform="translate(-175.664 -181.907)" fill="#263238"/>
            <path id="Trazado_913866" data-name="Trazado 913866" d="M319.7,337.206c-.018.086.361.23.664.6s.4.761.482.756c.082.012.133-.505-.252-.956s-.893-.481-.894-.4" transform="translate(-173.461 -182.937)" fill="#263238"/>
            <path id="Trazado_913867" data-name="Trazado 913867" d="M316.612,340.462c.08.017.193-.426-.039-.905s-.643-.664-.679-.59.221.328.406.724.225.763.312.771" transform="translate(-171.391 -183.904)" fill="#263238"/>
            <path id="Trazado_913868" data-name="Trazado 913868" d="M322.34,330.582c.038.08.435-.049.928-.025s.88.175.924.1-.331-.385-.912-.406-.984.263-.94.332" transform="translate(-174.89 -179.183)" fill="#263238"/>
            <path id="Trazado_913869" data-name="Trazado 913869" d="M374.834,374.886l.4,15-7.785-.022-.417-14.64Z" transform="translate(-199.138 -203.401)" fill="#455a64"/>
            <path id="Trazado_913870" data-name="Trazado 913870" d="M376.205,389.072c-.065,0-.163-3.2-.219-7.144s-.048-7.147.017-7.148.163,3.2.219,7.145.048,7.146-.017,7.147" transform="translate(-203.978 -203.344)" fill="#263238"/>
            <path id="Trazado_913871" data-name="Trazado 913871" d="M367.647,394.511a1.059,1.059,0,0,1,.192-.324,5.452,5.452,0,0,1,.677-.768,5.285,5.285,0,0,1,1.237-.883,4.1,4.1,0,0,1,4.868.8,3.607,3.607,0,0,1,.589.844,1.033,1.033,0,0,1,.132.354,8.25,8.25,0,0,0-.839-1.08,4.12,4.12,0,0,0-2.943-1.146,4.73,4.73,0,0,0-2.933,1.238c-.639.553-.946.992-.979.965" transform="translate(-199.473 -212.724)" fill="#263238"/>
            <path id="Trazado_913872" data-name="Trazado 913872" d="M375.637,405.57l-7.75-.036-.057-1.773,7.815.036Z" transform="translate(-199.573 -219.068)" fill="#263238"/>
            <path id="Trazado_913873" data-name="Trazado 913873" d="M338.685,220.876,321.657,217.9l-.067,1.853c-4.111,3.339-15.066,12.882-21.683,19.419,0,0-2.455,3.3-1.482,6.336l10.212,25.619,10.144-1.843-7.072-22.558,19.767-9.355c3.844-1.441,6.161-5.978,6.979-8.8.7-2.41.333-4.608.229-7.694" transform="translate(-161.792 -118.223)" fill="#263238"/>
            <path id="Trazado_913874" data-name="Trazado 913874" d="M357.073,257.284l4.054,55.1,10.063.259s.859-15.022,1.027-26.381c.153-10.395.26-36.154.26-36.154Z" transform="translate(-193.737 -135.7)" fill="#263238"/>
            <path id="Trazado_913875" data-name="Trazado 913875" d="M371.077,224.411l5.321.975s0,7.659-.451,11.614c-.221,1.925-3.281,8.06-3.281,8.06L357.9,247.92V236.094Z" transform="translate(-194.185 -121.758)" fill="#263238"/>
            <path id="Trazado_913876" data-name="Trazado 913876" d="M353.345,247.883a1.68,1.68,0,0,1-.128.283,7.718,7.718,0,0,1-.424.78,10.961,10.961,0,0,1-2.062,2.521,18.593,18.593,0,0,1-3.978,2.709c-1.6.851-3.427,1.632-5.309,2.52l-9.676,4.492-2.943,1.338-.805.354a1.634,1.634,0,0,1-.287.11,1.631,1.631,0,0,1,.269-.15l.788-.391,2.914-1.4,9.652-4.551c1.884-.889,3.712-1.664,5.307-2.5a18.966,18.966,0,0,0,3.967-2.646,11.52,11.52,0,0,0,2.093-2.45c.413-.645.6-1.029.623-1.018" transform="translate(-177.818 -134.493)" fill="#455a64"/>
            <path id="Trazado_913877" data-name="Trazado 913877" d="M383.636,267.942A66.19,66.19,0,0,1,377.218,272a66.19,66.19,0,0,1,6.418-4.062" transform="translate(-204.667 -145.376)" fill="#455a64"/>
            <path id="Trazado_913878" data-name="Trazado 913878" d="M312.754,278.576a4.277,4.277,0,0,1,1.116-.218,12.06,12.06,0,0,1,2.745,0,11.205,11.205,0,0,1,2.674.634,4.269,4.269,0,0,1,1.027.494,9.43,9.43,0,0,1-1.077-.348,14.04,14.04,0,0,0-2.648-.563,15.567,15.567,0,0,0-2.708-.06,9.165,9.165,0,0,1-1.129.064" transform="translate(-169.691 -150.985)" fill="#455a64"/>
            <path id="Trazado_913879" data-name="Trazado 913879" d="M355.547,220.812c-.059-.01-.062-.3-.006-.649s.148-.623.207-.614.062.3.006.649-.148.623-.207.614" transform="translate(-192.884 -119.121)" fill="#455a64"/>
            <path id="Trazado_913880" data-name="Trazado 913880" d="M357.371,221.138c-.059-.011-.048-.349.023-.755s.177-.727.236-.717.048.349-.023.755-.178.727-.236.717" transform="translate(-193.878 -119.184)" fill="#455a64"/>
            <path id="Trazado_913881" data-name="Trazado 913881" d="M372.417,223.786c-.059-.009-.062-.322-.007-.7s.148-.677.207-.667.062.322.007.7-.147.677-.206.667" transform="translate(-202.037 -120.677)" fill="#455a64"/>
            <path id="Trazado_913882" data-name="Trazado 913882" d="M374.131,224.282c-.059-.008-.061-.379,0-.829s.151-.809.21-.8.061.379,0,.829-.151.809-.21.8" transform="translate(-202.967 -120.804)" fill="#455a64"/>
            <path id="Trazado_913883" data-name="Trazado 913883" d="M388.644,226.874c-.059-.006-.072-.364-.029-.8s.126-.784.186-.778.072.364.029.8-.126.783-.186.777" transform="translate(-210.837 -122.239)" fill="#455a64"/>
            <path id="Trazado_913884" data-name="Trazado 913884" d="M390.827,227.2a3.765,3.765,0,1,1,.159-.887,1.953,1.953,0,0,1-.159.887" transform="translate(-212.014 -122.303)" fill="#455a64"/>
            <path id="Trazado_913885" data-name="Trazado 913885" d="M349.436,133.7l-1.45,11.741-2.521,20.418a3.12,3.12,0,0,0,2.3,3.414l20.49,3.6a2.015,2.015,0,0,0,2.349-1.979c.051-4.429.23-14.011.851-19.982.684-6.582.655-12.746-1.769-15.884a18.591,18.591,0,0,0-4.883-4.538l-.683-2.513s-8.608.57-10.133,1.91l-.938,1.648Z" transform="translate(-187.425 -69.435)" fill="#ee4f47"/>
            <path id="Trazado_913886" data-name="Trazado 913886" d="M373.857,133.408a1.861,1.861,0,0,1-.462.048l-1.261.063c-1.064.053-2.532.146-4.15.3s-3.081.323-4.14.447l-1.255.143a1.859,1.859,0,0,1-.464.025,1.952,1.952,0,0,1,.452-.109c.294-.057.72-.129,1.247-.212,1.055-.163,2.517-.361,4.141-.512s3.1-.221,4.165-.235c.534-.007.966,0,1.265.007a1.949,1.949,0,0,1,.463.038" transform="translate(-196.477 -72.357)" fill="#263238"/>
            <g id="Grupo_1103281" data-name="Grupo 1103281" transform="translate(158.39 75.719)" opacity="0.3">
              <g id="Grupo_1103280" data-name="Grupo 1103280">
                <g id="Grupo_1103279" data-name="Grupo 1103279" clip-path="url(#clip-path-6)">
                  <path id="Trazado_913887" data-name="Trazado 913887" d="M357.468,165.53l-1.818,12.293-2.3-.391s-1.632,7-7.09,5.962l3.373-6.544,1.692-6.712Z" transform="translate(-346.26 -165.53)"/>
                </g>
              </g>
            </g>
            <path id="Trazado_913888" data-name="Trazado 913888" d="M337.843,157.464l12.64,3.7s1.928-7.226,2.853-11.487c1.014-4.664.2-7.086-2.866-9.25a5.154,5.154,0,0,0-2.331-.912,5.54,5.54,0,0,0-5.721,3.379,50.464,50.464,0,0,0-2.043,5.884c-1.209,4.137-2.533,8.685-2.533,8.685" transform="translate(-183.303 -75.673)" fill="#ff725e"/>
            <path id="Trazado_913889" data-name="Trazado 913889" d="M353.181,153.737a1.15,1.15,0,0,1-.032.22l-.125.633c-.116.551-.292,1.357-.53,2.372-.473,2.031-1.183,4.9-2.072,8.288l-.026.1-.1-.028L342.343,163l-4.684-1.375-.1-.03.03-.1c1.247-4.218,2.3-7.889,3.122-10.485.421-1.295.8-2.313,1.084-3,.141-.345.257-.609.338-.785a1.738,1.738,0,0,1,.133-.264,1.821,1.821,0,0,1-.1.279l-.3.8c-.26.7-.621,1.72-1.023,3.019-.787,2.6-1.813,6.284-3.048,10.5l-.071-.132,4.686,1.368,7.952,2.338-.122.07c.9-3.377,1.64-6.243,2.146-8.264l.583-2.358.155-.626a1.128,1.128,0,0,1,.064-.213" transform="translate(-183.148 -79.733)" fill="#263238"/>
            <path id="Trazado_913890" data-name="Trazado 913890" d="M361.465,142.86c-.03.021-.281-.362-.8-.873a6.791,6.791,0,0,0-2.351-1.515,6.715,6.715,0,0,0-2.759-.4c-.72.046-1.158.172-1.167.135a.855.855,0,0,1,.3-.119,5,5,0,0,1,.855-.17,6.166,6.166,0,0,1,2.847.351,6.24,6.24,0,0,1,2.385,1.612,5.176,5.176,0,0,1,.54.694.875.875,0,0,1,.15.287" transform="translate(-192.281 -75.892)" fill="#263238"/>
            <path id="Trazado_913891" data-name="Trazado 913891" d="M322.416,175.976l-.638,2.151-12.092-5.3-2.613,4.068s9.494,7.142,12.468,9.423a5.727,5.727,0,0,0,8.417-1.183,19.183,19.183,0,0,0,2.849-6.665Z" transform="translate(-166.608 -93.769)" fill="#ffc09d"/>
            <path id="Trazado_913892" data-name="Trazado 913892" d="M340.488,187.105c-.063.012-.207-.645-.567-1.376s-.78-1.251-.732-1.3a2.784,2.784,0,0,1,.926,1.2,2.824,2.824,0,0,1,.374,1.473" transform="translate(-184.031 -100.067)" fill="#ff9b6c"/>
            <path id="Trazado_913893" data-name="Trazado 913893" d="M302.6,165.259l-1.6-1.118c-.85-2.558-2.429-7.2-2.9-7.059-.514.153-.727.61-.58,1.6.353,2.362-.225,3.4-1.587,3.09-.468-.107-4.2-1.122-4.2-1.122s-2.445.408-.334,2.122a1.3,1.3,0,0,0,.95,1.807s-.258.859,1.94,2.036a22.336,22.336,0,0,0,3.1,1.307l2.028,1.233Z" transform="translate(-157.641 -85.226)" fill="#ffc09d"/>
            <path id="Trazado_913894" data-name="Trazado 913894" d="M295.48,170.383a5.044,5.044,0,0,1-1.733-.426c-.333-.111-.644-.216-.9-.279l.032-.182.155.033L293,169.7a1.848,1.848,0,0,1-.626-.248,1.839,1.839,0,0,1,.667.083l-.034.167-.157-.019.032-.182a6.409,6.409,0,0,1,.934.252,13.624,13.624,0,0,1,1.666.634" transform="translate(-158.632 -91.93)" fill="#ff9b6c"/>
            <path id="Trazado_913895" data-name="Trazado 913895" d="M296.925,174.4a5.612,5.612,0,0,1-2.451-.977,14.175,14.175,0,0,1,2.451.977" transform="translate(-159.771 -94.093)" fill="#ff9b6c"/>
            <path id="Trazado_913896" data-name="Trazado 913896" d="M337.457,353.848c0,.957,12.93,40.555,12.93,40.555h5.2l-12.895-40.555Z" transform="translate(-183.094 -191.987)" fill="#455a64"/>
            <rect id="Rectángulo_404324" data-name="Rectángulo 404324" width="5.185" height="42.217" transform="translate(135.85 160.2)" fill="#455a64"/>
            <rect id="Rectángulo_404325" data-name="Rectángulo 404325" width="16.507" height="3.675" transform="translate(153.192 172.994)" fill="#455a64"/>
            <rect id="Rectángulo_404326" data-name="Rectángulo 404326" width="28.704" height="3.675" transform="translate(135.793 158.527)" fill="#455a64"/>
            <rect id="Rectángulo_404327" data-name="Rectángulo 404327" width="17.084" height="3.675" transform="translate(157.768 186.441)" fill="#455a64"/>
            <path id="Trazado_913897" data-name="Trazado 913897" d="M325.666,354.723c0,.059-6.475.108-14.461.108s-14.463-.048-14.463-.108,6.474-.108,14.463-.108,14.461.048,14.461.108" transform="translate(-161.003 -192.403)" fill="#263238"/>
            <path id="Trazado_913898" data-name="Trazado 913898" d="M308.416,396.692c-.059,0-.108-8.647-.108-19.312s.049-19.314.108-19.314.108,8.645.108,19.314-.048,19.312-.108,19.312" transform="translate(-167.278 -194.275)" fill="#263238"/>
            <path id="Trazado_913899" data-name="Trazado 913899" d="M350.863,396.188c-.056.024-2.906-8.7-6.365-19.482s-6.219-19.546-6.163-19.569,2.906,8.7,6.366,19.483,6.218,19.544,6.162,19.568" transform="translate(-183.57 -193.771)" fill="#263238"/>
            <path id="Trazado_913900" data-name="Trazado 913900" d="M362.411,396.188c-.056.024-2.906-8.7-6.365-19.482s-6.219-19.546-6.163-19.569,2.906,8.7,6.366,19.483,6.218,19.544,6.162,19.568" transform="translate(-189.835 -193.771)" fill="#263238"/>
          </g>
        </g>
        <g id="Grupo_1103288" data-name="Grupo 1103288">
          <g id="Grupo_1103287" data-name="Grupo 1103287" clip-path="url(#clip-path)">
            <path id="Trazado_913901" data-name="Trazado 913901" d="M185.87,31.077a27.2,27.2,0,0,1-2.625-2.456A27.21,27.21,0,0,1,180.788,26a27.175,27.175,0,0,1,2.625,2.457,27.177,27.177,0,0,1,2.457,2.625" transform="translate(-98.089 -14.103)" fill="#263238"/>
            <path id="Trazado_913902" data-name="Trazado 913902" d="M221.312,12.3c-.066,0-.119-2.753-.119-6.149s.053-6.15.119-6.15.119,2.753.119,6.15-.053,6.149-.119,6.149" transform="translate(-120.012)" fill="#263238"/>
            <path id="Trazado_913903" data-name="Trazado 913903" d="M200.056,16.637a17.31,17.31,0,0,1-.947-2.7,17.234,17.234,0,0,1-.719-2.773,17.353,17.353,0,0,1,.946,2.7,17.256,17.256,0,0,1,.719,2.773" transform="translate(-107.636 -6.055)" fill="#263238"/>
            <path id="Trazado_913904" data-name="Trazado 913904" d="M251.728,31.077a27.207,27.207,0,0,1,2.456-2.625A27.212,27.212,0,0,1,256.81,26a27.174,27.174,0,0,1-2.457,2.625,27.172,27.172,0,0,1-2.625,2.457" transform="translate(-136.579 -14.103)" fill="#263238"/>
            <path id="Trazado_913905" data-name="Trazado 913905" d="M241.581,16.637a17.256,17.256,0,0,1,.719-2.773,17.354,17.354,0,0,1,.946-2.7,17.238,17.238,0,0,1-.719,2.773,17.364,17.364,0,0,1-.947,2.7" transform="translate(-131.07 -6.055)" fill="#263238"/>
            <path id="Trazado_913906" data-name="Trazado 913906" d="M169.75,46.04a6.355,6.355,0,0,1-1.161-.419c-.706-.287-1.675-.7-2.739-1.167s-2.023-.9-2.712-1.23a6.377,6.377,0,0,1-1.093-.573,6.339,6.339,0,0,1,1.163.419c.706.287,1.674.7,2.737,1.166s2.02.9,2.709,1.23a6.389,6.389,0,0,1,1.1.574" transform="translate(-87.92 -23.14)" fill="#263238"/>
            <path id="Trazado_913907" data-name="Trazado 913907" d="M266.732,45.444a36.673,36.673,0,0,1-3.889,1.516,36.66,36.66,0,0,1-3.97,1.292,73.211,73.211,0,0,1,7.858-2.809" transform="translate(-140.457 -24.654)" fill="#263238"/>
            <path id="Trazado_913908" data-name="Trazado 913908" d="M216.827,50.261a17.25,17.25,0,1,0-24.152,16.291c.058,2.043.122,4.35.122,4.35l15.113-.425s.022-2.444-.005-4.625a17.243,17.243,0,0,0,8.922-15.592" transform="translate(-98.929 -18.174)" fill="#4045ab"/>
            <path id="Trazado_913909" data-name="Trazado 913909" d="M212.132,91.187s0-.073.011-.213.03-.356.053-.624c.051-.548.126-1.357.249-2.4s.292-2.308.58-3.767a25.588,25.588,0,0,1,1.43-4.842,16.4,16.4,0,0,1,1.346-2.62,3.178,3.178,0,0,1,1.149-1.092,1.778,1.778,0,0,1,1.639.007,1.178,1.178,0,0,1,.565.667,1.2,1.2,0,0,1-.048.887,2.45,2.45,0,0,1-1.3,1.185,4.718,4.718,0,0,1-3.592-.153,4.782,4.782,0,0,1-2.515-2.809,3.615,3.615,0,0,1-.158-1.986,1.55,1.55,0,0,1,1.533-1.242,1.115,1.115,0,0,1,.895.583,1.564,1.564,0,0,1,.168,1.059,3.373,3.373,0,0,1-1.164,1.747,5.144,5.144,0,0,1-3.987,1.279,4.483,4.483,0,0,1-3.4-2.392,2.608,2.608,0,0,1-.175-2.085,1.321,1.321,0,0,1,.735-.784,1.292,1.292,0,0,1,1.064.068,1.718,1.718,0,0,1,.749.736,2.7,2.7,0,0,1,.291.986,4.968,4.968,0,0,1-.207,1.978,5.134,5.134,0,0,1-2.349,2.96,5.233,5.233,0,0,1-3.554.591,2.741,2.741,0,0,1-1.575-.78,1.336,1.336,0,0,1-.142-1.658,1.126,1.126,0,0,1,.764-.4,1.623,1.623,0,0,1,.827.137,2.5,2.5,0,0,1,1.089,1.154c.46.923.833,1.822,1.21,2.68,1.476,3.437,2.535,6.273,3.246,8.239.355.983.619,1.751.8,2.272l.2.594c.043.134.06.2.06.2s-.031-.066-.081-.2-.124-.336-.216-.587l-.833-2.258c-.735-1.956-1.814-4.782-3.306-8.207-.378-.851-.763-1.76-1.216-2.662a2.341,2.341,0,0,0-1.015-1.076,1.034,1.034,0,0,0-1.243,1.647,2.565,2.565,0,0,0,1.475.717,5.046,5.046,0,0,0,3.422-.578,4.941,4.941,0,0,0,2.252-2.85,4.766,4.766,0,0,0,.2-1.9,1.874,1.874,0,0,0-.928-1.559,1.085,1.085,0,0,0-.9-.06,1.11,1.11,0,0,0-.616.666,2.4,2.4,0,0,0,.169,1.917,4.275,4.275,0,0,0,3.242,2.275,4.94,4.94,0,0,0,3.82-1.227,3.182,3.182,0,0,0,1.1-1.628,1.353,1.353,0,0,0-.144-.917.9.9,0,0,0-.729-.48,1.212,1.212,0,0,0-.849.3,1.486,1.486,0,0,0-.47.786,3.419,3.419,0,0,0,.15,1.87,4.586,4.586,0,0,0,2.405,2.7,4.538,4.538,0,0,0,3.438.159,2.278,2.278,0,0,0,1.206-1.085,1.019,1.019,0,0,0-.437-1.329,1.612,1.612,0,0,0-1.477-.009,3.024,3.024,0,0,0-1.091,1.033,16.386,16.386,0,0,0-1.343,2.585,25.781,25.781,0,0,0-1.452,4.809c-.3,1.452-.478,2.719-.615,3.754s-.221,1.834-.288,2.389c-.032.267-.057.473-.074.622s-.032.211-.032.211" transform="translate(-108.618 -38.8)" fill="#263238"/>
            <path id="Trazado_913910" data-name="Trazado 913910" d="M219.3,118.221l-12.976.365a.974.974,0,0,1-.054-1.948l12.975-.365a.974.974,0,0,1,.055,1.948" transform="translate(-111.4 -63.086)" fill="#e0e0e0"/>
            <path id="Trazado_913911" data-name="Trazado 913911" d="M219.413,122.391l-12.976.365a.974.974,0,0,0,.055,1.948l1.424-.04,1.991,3.544a1.25,1.25,0,0,0,1.126.638l4.637-.13a1.251,1.251,0,0,0,1.094-.712l1.736-3.637.968-.027a.974.974,0,0,0-.055-1.948" transform="translate(-111.493 -66.405)" fill="#e0e0e0"/>
            <path id="Trazado_913912" data-name="Trazado 913912" d="M222.34,134.531c-.015.032-.345-.108-.9-.249a7.226,7.226,0,0,0-4.379.25c-.534.2-.847.381-.865.35a2.638,2.638,0,0,1,.807-.489,6.315,6.315,0,0,1,4.478-.256,2.659,2.659,0,0,1,.858.393" transform="translate(-117.301 -72.62)" fill="#455a64"/>
            <path id="Trazado_913913" data-name="Trazado 913913" d="M221.565,126.763c0,.059-2.343.172-5.236.253s-5.241.1-5.242.041,2.342-.172,5.236-.253,5.24-.1,5.242-.041" transform="translate(-114.529 -68.759)" fill="#455a64"/>
            <path id="Trazado_913914" data-name="Trazado 913914" d="M221.939,130.2a7.215,7.215,0,0,1-1.274.166c-.79.072-1.883.148-3.091.2s-2.305.067-3.1.062a7.289,7.289,0,0,1-1.284-.058,8.153,8.153,0,0,1,1.281-.091l3.091-.124,3.09-.137a8.222,8.222,0,0,1,1.284-.017" transform="translate(-115.671 -70.632)" fill="#455a64"/>
            <g id="Grupo_1103286" data-name="Grupo 1103286" transform="translate(85.893 17.234)" opacity="0.3">
              <g id="Grupo_1103285" data-name="Grupo 1103285">
                <g id="Grupo_1103284" data-name="Grupo 1103284" clip-path="url(#clip-path-8)">
                  <path id="Trazado_913915" data-name="Trazado 913915" d="M202.463,37.932a9.039,9.039,0,0,0-5.023.234c-4.842,1.772-7.866,5.115-9.5,10.378-.652,2.453.763,4.279,2.082,4.2a4.081,4.081,0,0,0,3.038-2.285c.656-1.147,1.043-2.44,1.771-3.543a6.772,6.772,0,0,1,3.7-2.739c1.144-.337,2.36-.365,3.506-.694a3.494,3.494,0,0,0,2.581-2.233,3.014,3.014,0,0,0-2.156-3.319" transform="translate(-187.774 -37.675)" fill="#fff"/>
                </g>
              </g>
            </g>
            <path id="Trazado_913916" data-name="Trazado 913916" d="M244.045,65.391a.737.737,0,0,1,.061.2c.028.135.082.333.121.593a13.469,13.469,0,0,1,.188,2.221,14.669,14.669,0,0,1-6.733,12.445,13.4,13.4,0,0,1-1.963,1.057c-.238.11-.434.173-.563.223a.712.712,0,0,1-.2.06,6.826,6.826,0,0,1,.727-.367,16.039,16.039,0,0,0,1.907-1.113,15.008,15.008,0,0,0,6.658-12.306,16.037,16.037,0,0,0-.112-2.207,6.667,6.667,0,0,1-.09-.81" transform="translate(-127.479 -35.479)" fill="#fff"/>
            <path id="Trazado_913917" data-name="Trazado 913917" d="M190.278,78.924a2.965,2.965,0,0,1-.489-.367,5.605,5.605,0,0,1-.536-.477,9.288,9.288,0,0,1-.665-.681,10.592,10.592,0,0,1-.736-.889c-.262-.323-.5-.7-.754-1.091a14.5,14.5,0,0,1-2.045-5.682c-.051-.464-.109-.9-.114-1.321a10.429,10.429,0,0,1,0-1.155,9.38,9.38,0,0,1,.078-.948,5.649,5.649,0,0,1,.109-.709,3.008,3.008,0,0,1,.143-.594c.05.008-.135.861-.161,2.257,0,.349-.006.73.028,1.139.013.41.078.843.134,1.3a15.165,15.165,0,0,0,2.015,5.6c.248.387.474.763.725,1.087a11.375,11.375,0,0,0,.7.9c.909,1.059,1.6,1.6,1.563,1.637" transform="translate(-100.333 -35.272)" fill="#fff"/>
            <path id="Trazado_913918" data-name="Trazado 913918" d="M216.229,35.894a17.132,17.132,0,0,0-7.523.923,3.969,3.969,0,0,1,1.024-.481,12.043,12.043,0,0,1,5.389-.661,3.94,3.94,0,0,1,1.11.219" transform="translate(-113.237 -19.32)" fill="#fff"/>
          </g>
        </g>
      </g>
    </g>
  </g>
</svg>
