<svg xmlns="http://www.w3.org/2000/svg" width="77.345" height="71.636" viewBox="0 0 77.345 71.636">
  <g id="Grupo_1102874" data-name="Grupo 1102874" transform="translate(-264.219 -4759.079)">
    <circle id="Elipse_11526" data-name="Elipse 11526" cx="35.818" cy="35.818" r="35.818" transform="translate(269.928 4759.079)" fill="#ee4f47"/>
    <path id="Trazado_913252" data-name="Trazado 913252" d="M11.076,16.533a1.056,1.056,0,0,1-.969-1.138l.07-.875A27.7,27.7,0,0,0,9.051,47.6a1.056,1.056,0,1,1-1.735,1.205A29.818,29.818,0,0,1,8.9,12.748l-1.329.107A1.056,1.056,0,1,1,7.4,10.749l4-.321a1.057,1.057,0,0,1,1.138,1.138l-.321,4a1.057,1.057,0,0,1-1.052.972c-.028,0-.057,0-.086,0ZM56.068,50.779l-1.329.107a29.818,29.818,0,0,0,1.58-36.06,1.056,1.056,0,1,0-1.735,1.206,27.7,27.7,0,0,1-1.127,33.082l.07-.875a1.056,1.056,0,0,0-2.106-.169l-.321,4a1.056,1.056,0,0,0,1.053,1.141c.028,0,.056,0,.085,0l4-.321a1.057,1.057,0,0,0-.169-2.106ZM16.031,9.051a27.7,27.7,0,0,1,33.082,1.127l-.875-.07a1.056,1.056,0,1,0-.169,2.106l4,.321c.028,0,.056,0,.085,0A1.056,1.056,0,0,0,53.206,11.4l-.321-4a1.056,1.056,0,0,0-2.106.169L50.886,8.9a29.818,29.818,0,0,0-36.06-1.58,1.056,1.056,0,1,0,1.205,1.735ZM47.6,54.583a27.7,27.7,0,0,1-33.082-1.126l.875.07a1.056,1.056,0,1,0,.169-2.106l-4-.321a1.056,1.056,0,0,0-1.138,1.137l.321,4a1.056,1.056,0,0,0,1.052.972c.028,0,.057,0,.086,0a1.056,1.056,0,0,0,.969-1.137l-.107-1.329a29.818,29.818,0,0,0,36.06,1.58A1.057,1.057,0,0,0,47.6,54.583ZM40.83,31.817A9.013,9.013,0,1,1,31.817,22.8,9.023,9.023,0,0,1,40.83,31.817Zm-2.113,0a6.9,6.9,0,1,0-6.9,6.9A6.907,6.907,0,0,0,38.717,31.817Zm11.765-2.938v5.877a1.056,1.056,0,0,1-1.056,1.056H46.19A14.764,14.764,0,0,1,44.8,39.155l2.288,2.288a1.056,1.056,0,0,1,0,1.494l-4.155,4.155a1.056,1.056,0,0,1-1.494,0L39.155,44.8a14.766,14.766,0,0,1-3.343,1.385v3.235a1.056,1.056,0,0,1-1.056,1.056H28.879a1.056,1.056,0,0,1-1.056-1.056V46.19A14.771,14.771,0,0,1,24.479,44.8l-2.288,2.288a1.057,1.057,0,0,1-1.494,0l-4.155-4.155a1.057,1.057,0,0,1,0-1.494l2.288-2.288a14.766,14.766,0,0,1-1.385-3.343H14.209a1.056,1.056,0,0,1-1.056-1.056V28.879a1.056,1.056,0,0,1,1.056-1.056h3.235a14.758,14.758,0,0,1,1.385-3.343l-2.288-2.288a1.056,1.056,0,0,1,0-1.494L20.7,16.542a1.056,1.056,0,0,1,1.494,0l2.288,2.288a14.764,14.764,0,0,1,3.343-1.385V14.209a1.057,1.057,0,0,1,1.056-1.056h5.877a1.057,1.057,0,0,1,1.056,1.056v3.235a14.765,14.765,0,0,1,3.343,1.385l2.288-2.288a1.056,1.056,0,0,1,.747-.309h0a1.056,1.056,0,0,1,.747.309L47.093,20.7a1.056,1.056,0,0,1,0,1.494L44.8,24.479a14.767,14.767,0,0,1,1.385,3.343h3.235a1.056,1.056,0,0,1,1.056,1.056Zm-2.113,1.056H45.362A1.057,1.057,0,0,1,44.33,29.1a12.692,12.692,0,0,0-1.745-4.212,1.057,1.057,0,0,1,.141-1.32l2.126-2.126L42.19,18.783l-2.126,2.126a1.056,1.056,0,0,1-1.319.141A12.688,12.688,0,0,0,34.533,19.3a1.057,1.057,0,0,1-.834-1.033V15.266H29.935v3.006A1.057,1.057,0,0,1,29.1,19.3,12.685,12.685,0,0,0,24.89,21.05a1.056,1.056,0,0,1-1.32-.141l-2.126-2.126-2.661,2.661,2.126,2.126a1.056,1.056,0,0,1,.141,1.32A12.688,12.688,0,0,0,19.3,29.1a1.057,1.057,0,0,1-1.033.833H15.266V33.7h3.006a1.057,1.057,0,0,1,1.033.833,12.69,12.69,0,0,0,1.745,4.212,1.056,1.056,0,0,1-.141,1.32L18.783,42.19l2.661,2.662,2.126-2.126a1.057,1.057,0,0,1,1.319-.141A12.691,12.691,0,0,0,29.1,44.33a1.057,1.057,0,0,1,.834,1.033v3.006H33.7V45.362a1.057,1.057,0,0,1,.834-1.033,12.693,12.693,0,0,0,4.212-1.745,1.056,1.056,0,0,1,1.32.141l2.126,2.126,2.661-2.662-2.126-2.126a1.056,1.056,0,0,1-.141-1.32,12.688,12.688,0,0,0,1.745-4.212,1.056,1.056,0,0,1,1.033-.834h3.006V29.935Z" transform="translate(262.218 4763.078)" fill="#4045ab"/>
  </g>
</svg>
