<svg xmlns="http://www.w3.org/2000/svg" xmlns:xlink="http://www.w3.org/1999/xlink" width="319.16" height="319.16" viewBox="0 0 319.16 319.16">
  <defs>
    <clipPath id="clip-path">
      <rect width="319.16" height="319.16" fill="none"/>
    </clipPath>
    <clipPath id="clip-path-2">
      <rect id="Rectángulo_404300" data-name="Rectángulo 404300" width="319.16" height="319.16" fill="none" stroke="#fcf0e8" stroke-width="7"/>
    </clipPath>
  </defs>
  <g id="Cuadrícula_de_repetición_1" data-name="Cuadrícula de repetición 1" clip-path="url(#clip-path)">
    <g id="Grupo_1103349" data-name="Grupo 1103349" transform="translate(-1060.411 -4764.722)">
      <g id="Grupo_1103252" data-name="Grupo 1103252" transform="translate(1060.411 4764.722)">
        <g id="Grupo_1103251" data-name="Grupo 1103251" clip-path="url(#clip-path-2)">
          <path id="Trazado_913774" data-name="Trazado 913774" d="M160.46,1A159.46,159.46,0,1,0,207.3,312.925L160.46,156.844Z" transform="translate(-0.88 -0.88)" fill="#f6ccb3" stroke="#fcf0e8" stroke-width="7"/>
          <path id="Trazado_913776" data-name="Trazado 913776" d="M1485.26,331.851a159.361,159.361,0,0,0-76.178-136.007L1325.8,329.93l46.844,154.386A159.529,159.529,0,0,0,1485.26,331.851" transform="translate(-1166.22 -172.271)" fill="#ca7441" stroke="#fcf0e8" stroke-width="7"/>
          <path id="Trazado_913778" data-name="Trazado 913778" d="M1409.082,24.452A158.713,158.713,0,0,0,1325.8,1l1.54,150.017Z" transform="translate(-1166.22 -0.88)" fill="#ffbd45" stroke="#fcf0e8" stroke-width="7"/>
        </g>
      </g>
      <path id="Trazado_914097" data-name="Trazado 914097" d="M-20.969-3.789A4.025,4.025,0,0,1-22.324-.9,4.76,4.76,0,0,1-25.547.156a4.28,4.28,0,0,1-3.441-1.473,6.038,6.038,0,0,1-1.254-4.043v-.7a6.819,6.819,0,0,1,.578-2.891,4.332,4.332,0,0,1,1.652-1.918,4.629,4.629,0,0,1,2.5-.668,4.637,4.637,0,0,1,3.172,1.055,4.326,4.326,0,0,1,1.391,2.961H-23.3a2.376,2.376,0,0,0-.613-1.6,2.271,2.271,0,0,0-1.605-.5,1.991,1.991,0,0,0-1.754.84,4.707,4.707,0,0,0-.6,2.605V-5.3a5.038,5.038,0,0,0,.559,2.7,1.954,1.954,0,0,0,1.762.852,2.314,2.314,0,0,0,1.621-.5,2.241,2.241,0,0,0,.613-1.535ZM-19.93-4.3a5.013,5.013,0,0,1,.484-2.242A3.546,3.546,0,0,1-18.051-8.07a4.069,4.069,0,0,1,2.113-.539,3.849,3.849,0,0,1,2.793,1.047,4.2,4.2,0,0,1,1.207,2.844l.016.578A4.418,4.418,0,0,1-13.008-1.02,3.775,3.775,0,0,1-15.922.156,3.793,3.793,0,0,1-18.84-1.016,4.5,4.5,0,0,1-19.93-4.2Zm2.258.164a3.151,3.151,0,0,0,.453,1.84,1.5,1.5,0,0,0,1.3.637,1.5,1.5,0,0,0,1.281-.629A3.448,3.448,0,0,0-14.18-4.3a3.12,3.12,0,0,0-.461-1.828,1.5,1.5,0,0,0-1.3-.648,1.475,1.475,0,0,0-1.281.645A3.506,3.506,0,0,0-17.672-4.141Zm11.891-2.2A6.134,6.134,0,0,0-6.594-6.4a1.654,1.654,0,0,0-1.68.867V0h-2.258V-8.453H-8.4l.063,1.008A2.092,2.092,0,0,1-6.453-8.609a2.366,2.366,0,0,1,.7.1Zm8.7,2.188A5.07,5.07,0,0,1,2.027-1.02,2.843,2.843,0,0,1-.367.156a2.633,2.633,0,0,1-2.07-.891V3.25H-4.7v-11.7H-2.6l.078.828A2.654,2.654,0,0,1-.383-8.609a2.862,2.862,0,0,1,2.43,1.156,5.207,5.207,0,0,1,.867,3.188ZM.656-4.312a3.327,3.327,0,0,0-.418-1.82A1.361,1.361,0,0,0-.977-6.773a1.478,1.478,0,0,0-1.461.813V-2.5a1.5,1.5,0,0,0,1.477.836Q.656-1.664.656-4.312Zm3.3.008a5.013,5.013,0,0,1,.484-2.242A3.546,3.546,0,0,1,5.84-8.07a4.069,4.069,0,0,1,2.113-.539,3.849,3.849,0,0,1,2.793,1.047,4.2,4.2,0,0,1,1.207,2.844l.016.578A4.418,4.418,0,0,1,10.883-1.02,3.775,3.775,0,0,1,7.969.156,3.793,3.793,0,0,1,5.051-1.016,4.5,4.5,0,0,1,3.961-4.2Zm2.258.164A3.151,3.151,0,0,0,6.672-2.3a1.5,1.5,0,0,0,1.3.637A1.5,1.5,0,0,0,9.25-2.293,3.448,3.448,0,0,0,9.711-4.3,3.12,3.12,0,0,0,9.25-6.133a1.5,1.5,0,0,0-1.3-.648,1.475,1.475,0,0,0-1.281.645A3.506,3.506,0,0,0,6.219-4.141Zm11.891-2.2A6.134,6.134,0,0,0,17.3-6.4a1.654,1.654,0,0,0-1.68.867V0H13.359V-8.453h2.133l.063,1.008a2.092,2.092,0,0,1,1.883-1.164,2.366,2.366,0,0,1,.7.1ZM23.859,0a2.507,2.507,0,0,1-.227-.758A2.732,2.732,0,0,1,21.5.156a3,3,0,0,1-2.059-.719,2.312,2.312,0,0,1-.816-1.812,2.389,2.389,0,0,1,1-2.062A4.915,4.915,0,0,1,22.5-5.164h1.039v-.484a1.393,1.393,0,0,0-.3-.937,1.183,1.183,0,0,0-.949-.352,1.345,1.345,0,0,0-.895.273.929.929,0,0,0-.324.75H18.813a2.268,2.268,0,0,1,.453-1.359,3,3,0,0,1,1.281-.98,4.669,4.669,0,0,1,1.859-.355,3.689,3.689,0,0,1,2.48.785A2.747,2.747,0,0,1,25.8-5.617v3.664a4.041,4.041,0,0,0,.336,1.82V0ZM21.992-1.57a1.945,1.945,0,0,0,.922-.223,1.462,1.462,0,0,0,.625-.6V-3.844H22.7q-1.7,0-1.8,1.172l-.008.133a.9.9,0,0,0,.3.7A1.153,1.153,0,0,0,21.992-1.57ZM29.922,0H27.656V-12h2.266Zm-43.9,18.406.656-5.781h6.375v1.883h-4.523l-.281,2.445a3.58,3.58,0,0,1,1.711-.43,3.279,3.279,0,0,1,2.547,1.008,4.026,4.026,0,0,1,.922,2.82,4.124,4.124,0,0,1-.465,1.973,3.281,3.281,0,0,1-1.332,1.352,4.158,4.158,0,0,1-2.047.48,4.416,4.416,0,0,1-1.914-.418,3.4,3.4,0,0,1-1.395-1.176,3.2,3.2,0,0,1-.543-1.727h2.234a1.669,1.669,0,0,0,.5,1.105,1.573,1.573,0,0,0,1.113.395,1.388,1.388,0,0,0,1.18-.551,2.551,2.551,0,0,0,.414-1.559A2.11,2.11,0,0,0-9.3,18.742a1.749,1.749,0,0,0-1.352-.516,1.954,1.954,0,0,0-1.3.422l-.219.2Zm9.18,0,.656-5.781H2.234v1.883H-2.289l-.281,2.445a3.58,3.58,0,0,1,1.711-.43,3.279,3.279,0,0,1,2.547,1.008,4.026,4.026,0,0,1,.922,2.82,4.124,4.124,0,0,1-.465,1.973A3.281,3.281,0,0,1,.813,23.676a4.158,4.158,0,0,1-2.047.48,4.416,4.416,0,0,1-1.914-.418,3.4,3.4,0,0,1-1.395-1.176,3.2,3.2,0,0,1-.543-1.727h2.234a1.669,1.669,0,0,0,.5,1.105,1.573,1.573,0,0,0,1.113.395,1.388,1.388,0,0,0,1.18-.551,2.551,2.551,0,0,0,.414-1.559,2.11,2.11,0,0,0-.477-1.484,1.749,1.749,0,0,0-1.352-.516,1.954,1.954,0,0,0-1.3.422l-.219.2Zm8.813-3.594a2.249,2.249,0,0,1,.68-1.7,2.465,2.465,0,0,1,1.781-.652,2.5,2.5,0,0,1,1.8.645,2.292,2.292,0,0,1,.68,1.746v.563a2.221,2.221,0,0,1-.68,1.7,2.491,2.491,0,0,1-1.781.641A2.507,2.507,0,0,1,4.7,17.105a2.275,2.275,0,0,1-.684-1.738Zm1.5.6a1.053,1.053,0,0,0,.27.754.928.928,0,0,0,.707.285.885.885,0,0,0,.7-.289,1.119,1.119,0,0,0,.258-.773v-.578a1.1,1.1,0,0,0-.258-.758.9.9,0,0,0-.711-.289.906.906,0,0,0-.7.285,1.119,1.119,0,0,0-.266.793Zm3.938,5.8a2.22,2.22,0,0,1,.688-1.7,2.5,2.5,0,0,1,1.781-.645,2.525,2.525,0,0,1,1.793.637,2.279,2.279,0,0,1,.684,1.754v.563a2.237,2.237,0,0,1-.672,1.691,2.476,2.476,0,0,1-1.789.645,2.506,2.506,0,0,1-1.8-.648,2.265,2.265,0,0,1-.68-1.719Zm1.5.609a1.044,1.044,0,0,0,.281.734.917.917,0,0,0,.7.3q.953,0,.953-1.055v-.594a1.062,1.062,0,0,0-.266-.754,1.009,1.009,0,0,0-1.406,0,1.1,1.1,0,0,0-.266.777ZM6.938,23.148l-1.1-.594,5.555-8.891,1.1.594Z" transform="translate(1140.622 4931.02)" fill="#12263f"/>
      <path id="Trazado_914098" data-name="Trazado 914098" d="M-35.277-4.008V0h-2.344V-11.375h4.438a5.134,5.134,0,0,1,2.254.469,3.454,3.454,0,0,1,1.5,1.332,3.714,3.714,0,0,1,.523,1.965,3.266,3.266,0,0,1-1.145,2.637,4.767,4.767,0,0,1-3.168.965Zm0-1.9h2.094a2.059,2.059,0,0,0,1.418-.437,1.591,1.591,0,0,0,.488-1.25,1.876,1.876,0,0,0-.492-1.352,1.839,1.839,0,0,0-1.359-.531h-2.148ZM-22.637,0a2.507,2.507,0,0,1-.227-.758A2.732,2.732,0,0,1-25,.156a3,3,0,0,1-2.059-.719,2.312,2.312,0,0,1-.816-1.812,2.389,2.389,0,0,1,1-2.062A4.915,4.915,0,0,1-24-5.164h1.039v-.484a1.393,1.393,0,0,0-.3-.937,1.183,1.183,0,0,0-.949-.352,1.345,1.345,0,0,0-.895.273.929.929,0,0,0-.324.75h-2.258a2.268,2.268,0,0,1,.453-1.359,3,3,0,0,1,1.281-.98,4.669,4.669,0,0,1,1.859-.355,3.689,3.689,0,0,1,2.48.785,2.747,2.747,0,0,1,.918,2.207v3.664a4.041,4.041,0,0,0,.336,1.82V0ZM-24.5-1.57a1.945,1.945,0,0,0,.922-.223,1.462,1.462,0,0,0,.625-.6V-3.844H-23.8q-1.7,0-1.8,1.172l-.008.133a.9.9,0,0,0,.3.7A1.153,1.153,0,0,0-24.5-1.57Zm10.3-4.766A6.134,6.134,0,0,0-15.02-6.4a1.654,1.654,0,0,0-1.68.867V0h-2.258V-8.453h2.133l.063,1.008a2.092,2.092,0,0,1,1.883-1.164,2.366,2.366,0,0,1,.7.1ZM-8.457,0a2.507,2.507,0,0,1-.227-.758,2.732,2.732,0,0,1-2.133.914,3,3,0,0,1-2.059-.719,2.312,2.312,0,0,1-.816-1.812,2.389,2.389,0,0,1,1-2.062,4.915,4.915,0,0,1,2.879-.727h1.039v-.484a1.393,1.393,0,0,0-.3-.937,1.183,1.183,0,0,0-.949-.352,1.345,1.345,0,0,0-.895.273.929.929,0,0,0-.324.75H-13.5a2.268,2.268,0,0,1,.453-1.359,3,3,0,0,1,1.281-.98A4.669,4.669,0,0,1-9.91-8.609a3.689,3.689,0,0,1,2.48.785,2.747,2.747,0,0,1,.918,2.207v3.664a4.041,4.041,0,0,0,.336,1.82V0Zm-1.867-1.57A1.945,1.945,0,0,0-9.4-1.793a1.462,1.462,0,0,0,.625-.6V-3.844h-.844q-1.7,0-1.8,1.172l-.008.133a.9.9,0,0,0,.3.7A1.153,1.153,0,0,0-10.324-1.57ZM-1.73-2.758l1.57-5.7H2.2L-.652,0H-2.809L-5.66-8.453H-3.3ZM7.082.156A4.15,4.15,0,0,1,4.055-.984,4.054,4.054,0,0,1,2.887-4.023v-.219A5.106,5.106,0,0,1,3.379-6.52,3.612,3.612,0,0,1,4.773-8.066a3.914,3.914,0,0,1,2.059-.543,3.508,3.508,0,0,1,2.73,1.094,4.444,4.444,0,0,1,1,3.1v.922H5.176a2.1,2.1,0,0,0,.66,1.328,2,2,0,0,0,1.395.5A2.437,2.437,0,0,0,9.27-2.609l1.109,1.242A3.389,3.389,0,0,1,9-.246,4.511,4.511,0,0,1,7.082.156ZM6.824-6.781a1.414,1.414,0,0,0-1.09.453,2.341,2.341,0,0,0-.535,1.3H8.34v-.18a1.669,1.669,0,0,0-.406-1.16A1.459,1.459,0,0,0,6.824-6.781Zm9.766.445a6.134,6.134,0,0,0-.812-.062,1.654,1.654,0,0,0-1.68.867V0H11.84V-8.453h2.133l.063,1.008a2.092,2.092,0,0,1,1.883-1.164,2.366,2.366,0,0,1,.7.1Zm8.7,2.188A5.119,5.119,0,0,1,24.426-.98,2.872,2.872,0,0,1,22,.156,2.639,2.639,0,0,1,19.809-.9l-.1.9H17.676V-12h2.258v4.3a2.571,2.571,0,0,1,2.055-.914,2.9,2.9,0,0,1,2.426,1.137,5.126,5.126,0,0,1,.879,3.2Zm-2.258-.164a3.363,3.363,0,0,0-.406-1.871,1.374,1.374,0,0,0-1.211-.59,1.489,1.489,0,0,0-1.484.883v3.336a1.509,1.509,0,0,0,1.5.891,1.394,1.394,0,0,0,1.438-1.078A5.562,5.562,0,0,0,23.035-4.312ZM31.582,0a2.507,2.507,0,0,1-.227-.758,2.732,2.732,0,0,1-2.133.914,3,3,0,0,1-2.059-.719,2.312,2.312,0,0,1-.816-1.812,2.389,2.389,0,0,1,1-2.062,4.915,4.915,0,0,1,2.879-.727h1.039v-.484a1.393,1.393,0,0,0-.3-.937,1.183,1.183,0,0,0-.949-.352,1.345,1.345,0,0,0-.895.273.929.929,0,0,0-.324.75H26.535a2.268,2.268,0,0,1,.453-1.359,3,3,0,0,1,1.281-.98,4.669,4.669,0,0,1,1.859-.355,3.689,3.689,0,0,1,2.48.785,2.747,2.747,0,0,1,.918,2.207v3.664a4.041,4.041,0,0,0,.336,1.82V0ZM29.715-1.57a1.945,1.945,0,0,0,.922-.223,1.462,1.462,0,0,0,.625-.6V-3.844h-.844q-1.7,0-1.8,1.172l-.008.133a.9.9,0,0,0,.3.7A1.153,1.153,0,0,0,29.715-1.57ZM37.645,0H35.379V-12h2.266Zm-49.66,17.313h1.2a1.7,1.7,0,0,0,1.273-.43,1.574,1.574,0,0,0,.414-1.141,1.392,1.392,0,0,0-.41-1.07,1.59,1.59,0,0,0-1.129-.383,1.666,1.666,0,0,0-1.086.355,1.137,1.137,0,0,0-.437.926h-2.258a2.777,2.777,0,0,1,.48-1.6,3.2,3.2,0,0,1,1.344-1.105,4.485,4.485,0,0,1,1.9-.4,4.253,4.253,0,0,1,2.828.863,2.945,2.945,0,0,1,1.023,2.379,2.394,2.394,0,0,1-.477,1.438,3.1,3.1,0,0,1-1.25,1.008A2.826,2.826,0,0,1-7.16,19.188a2.8,2.8,0,0,1,.473,1.625,2.994,2.994,0,0,1-1.105,2.43,4.445,4.445,0,0,1-2.926.914,4.214,4.214,0,0,1-2.785-.9,2.934,2.934,0,0,1-1.082-2.375h2.258a1.308,1.308,0,0,0,.48,1.047,1.771,1.771,0,0,0,1.184.406A1.779,1.779,0,0,0-9.4,21.91a1.47,1.47,0,0,0,.457-1.129q0-1.7-1.875-1.7h-1.2Zm14.3-1.664a2.646,2.646,0,0,1-.414,1.469A2.98,2.98,0,0,1,.727,18.141a3.3,3.3,0,0,1,1.313,1.1,2.816,2.816,0,0,1,.484,1.645,2.981,2.981,0,0,1-1.031,2.395,4.183,4.183,0,0,1-2.8.879,4.2,4.2,0,0,1-2.812-.883,2.974,2.974,0,0,1-1.039-2.391,2.834,2.834,0,0,1,.484-1.648,3.239,3.239,0,0,1,1.3-1.094,2.95,2.95,0,0,1-1.137-1.023,2.664,2.664,0,0,1-.41-1.469,2.948,2.948,0,0,1,.969-2.316,3.814,3.814,0,0,1,2.633-.863,3.839,3.839,0,0,1,2.629.855A2.937,2.937,0,0,1,2.281,15.648ZM.258,20.719a1.638,1.638,0,0,0-.43-1.187,1.532,1.532,0,0,0-1.156-.445,1.529,1.529,0,0,0-1.148.441,1.635,1.635,0,0,0-.43,1.191,1.634,1.634,0,0,0,.422,1.172,1.537,1.537,0,0,0,1.172.445,1.533,1.533,0,0,0,1.152-.43A1.631,1.631,0,0,0,.258,20.719ZM.023,15.758a1.563,1.563,0,0,0-.352-1.066,1.247,1.247,0,0,0-.992-.4,1.256,1.256,0,0,0-.984.391,1.553,1.553,0,0,0-.352,1.078A1.633,1.633,0,0,0-2.3,16.852a1.23,1.23,0,0,0,.992.414,1.219,1.219,0,0,0,.988-.414A1.645,1.645,0,0,0,.023,15.758Zm3.992-.945a2.249,2.249,0,0,1,.68-1.7,2.465,2.465,0,0,1,1.781-.652,2.5,2.5,0,0,1,1.8.645,2.292,2.292,0,0,1,.68,1.746v.563a2.221,2.221,0,0,1-.68,1.7,2.491,2.491,0,0,1-1.781.641A2.507,2.507,0,0,1,4.7,17.105a2.275,2.275,0,0,1-.684-1.738Zm1.5.6a1.053,1.053,0,0,0,.27.754.928.928,0,0,0,.707.285.885.885,0,0,0,.7-.289,1.119,1.119,0,0,0,.258-.773v-.578a1.1,1.1,0,0,0-.258-.758.9.9,0,0,0-.711-.289.906.906,0,0,0-.7.285,1.119,1.119,0,0,0-.266.793Zm3.938,5.8a2.22,2.22,0,0,1,.688-1.7,2.5,2.5,0,0,1,1.781-.645,2.525,2.525,0,0,1,1.793.637,2.279,2.279,0,0,1,.684,1.754v.563a2.237,2.237,0,0,1-.672,1.691,2.476,2.476,0,0,1-1.789.645,2.506,2.506,0,0,1-1.8-.648,2.265,2.265,0,0,1-.68-1.719Zm1.5.609a1.044,1.044,0,0,0,.281.734.917.917,0,0,0,.7.3q.953,0,.953-1.055v-.594a1.062,1.062,0,0,0-.266-.754,1.009,1.009,0,0,0-1.406,0,1.1,1.1,0,0,0-.266.777ZM6.938,23.148l-1.1-.594,5.555-8.891,1.1.594Z" transform="translate(1307.622 4931.02)" fill="#fff"/>
      <path id="Trazado_914099" data-name="Trazado 914099" d="M-18.168-2.82l2.578-8.555h2.609L-16.941,0h-2.445l-3.945-11.375h2.6Zm10,2.977A4.15,4.15,0,0,1-11.2-.984a4.054,4.054,0,0,1-1.168-3.039v-.219a5.106,5.106,0,0,1,.492-2.277,3.612,3.612,0,0,1,1.395-1.547,3.914,3.914,0,0,1,2.059-.543,3.508,3.508,0,0,1,2.73,1.094,4.444,4.444,0,0,1,1,3.1v.922h-5.383a2.1,2.1,0,0,0,.66,1.328,2,2,0,0,0,1.395.5A2.437,2.437,0,0,0-5.98-2.609l1.109,1.242A3.389,3.389,0,0,1-6.246-.246,4.511,4.511,0,0,1-8.168.156Zm-.258-6.937a1.414,1.414,0,0,0-1.09.453,2.341,2.341,0,0,0-.535,1.3H-6.91v-.18a1.669,1.669,0,0,0-.406-1.16A1.459,1.459,0,0,0-8.426-6.781Zm9.766.445A6.134,6.134,0,0,0,.527-6.4a1.654,1.654,0,0,0-1.68.867V0H-3.41V-8.453h2.133l.063,1.008A2.092,2.092,0,0,1,.668-8.609a2.366,2.366,0,0,1,.7.1Zm8.7,2.188A5.119,5.119,0,0,1,9.176-.98,2.872,2.872,0,0,1,6.754.156,2.639,2.639,0,0,1,4.559-.9l-.1.9H2.426V-12H4.684v4.3a2.571,2.571,0,0,1,2.055-.914A2.9,2.9,0,0,1,9.164-7.473a5.126,5.126,0,0,1,.879,3.2ZM7.785-4.312a3.363,3.363,0,0,0-.406-1.871,1.374,1.374,0,0,0-1.211-.59,1.489,1.489,0,0,0-1.484.883v3.336a1.509,1.509,0,0,0,1.5.891A1.394,1.394,0,0,0,7.621-2.742,5.562,5.562,0,0,0,7.785-4.312ZM16.332,0a2.507,2.507,0,0,1-.227-.758,2.732,2.732,0,0,1-2.133.914,3,3,0,0,1-2.059-.719A2.312,2.312,0,0,1,11.1-2.375a2.389,2.389,0,0,1,1-2.062,4.915,4.915,0,0,1,2.879-.727h1.039v-.484a1.393,1.393,0,0,0-.3-.937,1.183,1.183,0,0,0-.949-.352,1.345,1.345,0,0,0-.895.273.929.929,0,0,0-.324.75H11.285a2.268,2.268,0,0,1,.453-1.359,3,3,0,0,1,1.281-.98,4.669,4.669,0,0,1,1.859-.355,3.689,3.689,0,0,1,2.48.785,2.747,2.747,0,0,1,.918,2.207v3.664a4.041,4.041,0,0,0,.336,1.82V0ZM14.465-1.57a1.945,1.945,0,0,0,.922-.223,1.462,1.462,0,0,0,.625-.6V-3.844h-.844q-1.7,0-1.8,1.172l-.008.133a.9.9,0,0,0,.3.7A1.153,1.153,0,0,0,14.465-1.57ZM22.395,0H20.129V-12h2.266ZM-1.988,13.891-6.387,24H-8.77l4.406-9.547H-10.02V12.625h8.031Zm1.414.922a2.249,2.249,0,0,1,.68-1.7,2.465,2.465,0,0,1,1.781-.652,2.5,2.5,0,0,1,1.8.645,2.292,2.292,0,0,1,.68,1.746v.563a2.221,2.221,0,0,1-.68,1.7A2.491,2.491,0,0,1,1.9,17.75a2.507,2.507,0,0,1-1.793-.645,2.275,2.275,0,0,1-.684-1.738Zm1.5.6a1.053,1.053,0,0,0,.27.754.928.928,0,0,0,.707.285.885.885,0,0,0,.7-.289,1.119,1.119,0,0,0,.258-.773v-.578a1.1,1.1,0,0,0-.258-.758.9.9,0,0,0-.711-.289.906.906,0,0,0-.7.285,1.119,1.119,0,0,0-.266.793Zm3.938,5.8a2.22,2.22,0,0,1,.688-1.7,2.5,2.5,0,0,1,1.781-.645,2.525,2.525,0,0,1,1.793.637,2.279,2.279,0,0,1,.684,1.754v.563a2.237,2.237,0,0,1-.672,1.691,2.476,2.476,0,0,1-1.789.645,2.506,2.506,0,0,1-1.8-.648,2.265,2.265,0,0,1-.68-1.719Zm1.5.609a1.044,1.044,0,0,0,.281.734.917.917,0,0,0,.7.3q.953,0,.953-1.055v-.594a1.062,1.062,0,0,0-.266-.754.915.915,0,0,0-.7-.285.915.915,0,0,0-.7.285,1.1,1.1,0,0,0-.266.777ZM2.348,23.148l-1.1-.594L6.8,13.664l1.1.594Z" transform="translate(1252.622 4810.02)" fill="#12263f"/>
    </g>
  </g>
</svg>
