<svg xmlns="http://www.w3.org/2000/svg" width="80.449" height="73.492" viewBox="0 0 80.449 73.492">
  <g id="Grupo_1102875" data-name="Grupo 1102875" transform="translate(-254.115 -4757.223)">
    <circle id="Elipse_11526" data-name="Elipse 11526" cx="35.818" cy="35.818" r="35.818" transform="translate(262.928 4759.079)" fill="#ee4f47"/>
    <path id="Trazado_913253" data-name="Trazado 913253" d="M81.586,79.856a1.159,1.159,0,0,0,1.152-1.282,19.383,19.383,0,0,0-13.83-16.515,10.369,10.369,0,1,0-10.866,0,19.4,19.4,0,0,0-10.636,7.773,19.35,19.35,0,0,0-10.638-7.773,10.369,10.369,0,1,0-10.866,0,19.383,19.383,0,0,0-13.83,16.515,1.159,1.159,0,0,0,1.152,1.282ZM58.839,64.236l2.971,2.3L60.2,68.449,57.983,64.5Q58.406,64.357,58.839,64.236Zm4.632-.635h.008q.8,0,1.574.072L63.475,64.9,61.9,63.673q.778-.071,1.574-.072Zm1.7,11.493-1.7,1.876-1.7-1.876,1.344-6.517.353-.418.353.418Zm-.032-8.556,2.971-2.3q.433.121.856.264l-2.216,3.948ZM55.424,53.232a8.051,8.051,0,1,1,8.055,8.051h-.008A8.06,8.06,0,0,1,55.424,53.232ZM46.092,72.1a19.276,19.276,0,0,0-1.739,5.441H33.947l1.2-1.326a1.158,1.158,0,0,0,.276-1.011l-.737-3.574a1.146,1.146,0,0,0,.12.007c.036,0,.073,0,.11-.005a1.159,1.159,0,0,0,.9-.587l3.162-5.635A17.052,17.052,0,0,1,46.092,72.1ZM26.7,64.236l2.971,2.3-1.612,1.911L25.843,64.5Q26.267,64.357,26.7,64.236Zm4.632-.635h.007c.528,0,1.052.027,1.571.074L31.336,64.9l-1.578-1.222Q30.536,63.6,31.332,63.6Zm5.492.906-2.212,3.942L33,66.538l2.967-2.3C36.256,64.321,36.541,64.411,36.824,64.507ZM33.033,75.094l-1.7,1.876-1.7-1.876,1.344-6.517.353-.418.353.418ZM23.285,53.232a8.051,8.051,0,1,1,8.054,8.051h-.007A8.06,8.06,0,0,1,23.285,53.232Zm.4,12.165,3.167,5.644a1.159,1.159,0,0,0,.9.587q.055.005.11.005a1.187,1.187,0,0,0,.12-.007L27.25,75.2a1.158,1.158,0,0,0,.276,1.011l1.2,1.326H14.564A16.993,16.993,0,0,1,23.689,65.4ZM46.7,77.538A16.994,16.994,0,0,1,55.828,65.4L59,71.042a1.159,1.159,0,0,0,.9.587q.055.005.11.005a1.187,1.187,0,0,0,.12-.007L59.389,75.2a1.158,1.158,0,0,0,.276,1.011l1.2,1.326Zm19.383,0,1.2-1.326a1.158,1.158,0,0,0,.276-1.011l-.737-3.574a1.146,1.146,0,0,0,.12.007c.036,0,.073,0,.11-.005a1.159,1.159,0,0,0,.9-.587L71.122,65.4a16.993,16.993,0,0,1,9.126,12.141H66.086ZM65.324,34.37h0a1.524,1.524,0,0,0,1.561,0c2.351-1.381,10.029-6.322,10.13-11.927A6.115,6.115,0,0,0,73.361,16.5,7.1,7.1,0,0,0,66.1,17.889,7.1,7.1,0,0,0,58.848,16.5a6.115,6.115,0,0,0-3.655,5.94C55.3,28.048,62.973,32.989,65.324,34.37ZM59.746,18.64a3.828,3.828,0,0,1,1.49-.295,5.831,5.831,0,0,1,4.042,1.922,1.159,1.159,0,0,0,1.653,0c1.7-1.725,3.816-2.349,5.532-1.627A3.8,3.8,0,0,1,74.7,22.4c-.061,3.389-4.58,7.3-8.593,9.736C62.091,29.7,57.573,25.79,57.511,22.4a3.8,3.8,0,0,1,2.235-3.761ZM66.1,39.89a15.816,15.816,0,0,0,7.638-1.943,7.174,7.174,0,0,1-2.225,3.917,1.159,1.159,0,0,0,.811,1.987h.019a8.738,8.738,0,0,0,7.108-3.729,10.5,10.5,0,0,0,1.059-9.342A15.947,15.947,0,1,0,66.1,39.89Zm0-29.572A13.642,13.642,0,0,1,79.731,23.945a13.475,13.475,0,0,1-1.5,6.217,1.159,1.159,0,0,0-.064.908c1.022,2.954.8,5.7-.614,7.722a6.347,6.347,0,0,1-2.386,2.057,8.437,8.437,0,0,0,.892-5.185,1.159,1.159,0,0,0-1.839-.773A13.627,13.627,0,1,1,66.1,10.318ZM16.38,40.122a8.738,8.738,0,0,0,7.108,3.729h.019a1.159,1.159,0,0,0,.811-1.987,7.173,7.173,0,0,1-2.225-3.917,15.948,15.948,0,1,0-8.307-14,16.011,16.011,0,0,0,1.536,6.835A10.5,10.5,0,0,0,16.38,40.122Zm13.35-29.8a13.627,13.627,0,1,1-8.118,24.573,1.159,1.159,0,0,0-1.839.773,8.436,8.436,0,0,0,.892,5.185,6.347,6.347,0,0,1-2.386-2.056c-1.418-2.026-1.636-4.769-.614-7.722a1.158,1.158,0,0,0-.064-.908,13.477,13.477,0,0,1-1.5-6.217A13.642,13.642,0,0,1,29.73,10.318ZM29.815,34.3A10.376,10.376,0,1,0,19.438,23.921,10.388,10.388,0,0,0,29.815,34.3Zm0-18.435a8.058,8.058,0,1,1-8.059,8.058A8.068,8.068,0,0,1,29.815,15.862Zm0,11.865a2.854,2.854,0,0,0,2.472-1.435,1.159,1.159,0,0,1,2.012,1.15,5.163,5.163,0,0,1-8.968,0,1.159,1.159,0,0,1,2.012-1.15,2.854,2.854,0,0,0,2.472,1.436Zm1.035-6.5a3.1,3.1,0,0,1,5.378,0,1.159,1.159,0,1,1-2.012,1.15.778.778,0,0,0-1.353,0,1.159,1.159,0,0,1-2.012-1.15Zm-7.016,1.581a1.159,1.159,0,0,1-.431-1.581,3.1,3.1,0,0,1,5.378,0,1.159,1.159,0,1,1-2.012,1.15.779.779,0,0,0-1.353,0A1.159,1.159,0,0,1,23.833,22.813Z" transform="translate(242.049 4749.223)" fill="#4045ab"/>
  </g>
</svg>
