<svg xmlns="http://www.w3.org/2000/svg" width="76.814" height="89.513" viewBox="0 0 76.814 89.513">
  <g id="Grupo_1103064" data-name="Grupo 1103064" transform="translate(-36.318 0)">
    <g id="Grupo_1103062" data-name="Grupo 1103062" transform="translate(40.062 27.633)">
      <path id="Trazado_913254" data-name="Trazado 913254" d="M127.057,188.047a10.839,10.839,0,0,1-10.856,10.8H68.417a10.687,10.687,0,0,1-3.656-20.728V160.605a2.544,2.544,0,0,1,2.544-2.544h50.178a2.544,2.544,0,0,1,2.544,2.544v17.518a10.693,10.693,0,0,1,7.029,9.924Z" transform="translate(-57.731 -158.061)" fill="#685e68"/>
      <path id="Trazado_913255" data-name="Trazado 913255" d="M85.705,198.851H68.417a10.687,10.687,0,0,1-3.656-20.728V160.605a2.544,2.544,0,0,1,2.544-2.544H82.049v20.062a10.687,10.687,0,0,0,3.656,20.728Z" transform="translate(-57.731 -158.061)" fill="#554e56"/>
      <path id="Trazado_913256" data-name="Trazado 913256" d="M158.819,435.183H110.781A1.659,1.659,0,0,1,109.4,432.6a30.395,30.395,0,0,1,50.795,0A1.659,1.659,0,0,1,158.819,435.183Z" transform="translate(-100.139 -373.304)" fill="#ee4f47"/>
      <path id="Trazado_913257" data-name="Trazado 913257" d="M141.99,419.768a30.434,30.434,0,0,0-19.731,15.419H110.78a1.659,1.659,0,0,1-1.378-2.578,30.441,30.441,0,0,1,32.587-12.841Z" transform="translate(-100.139 -373.308)" fill="#ee4f47"/>
      <path id="Trazado_913258" data-name="Trazado 913258" d="M142.963,179.184a9.882,9.882,0,0,1-7.352,9.553,23.248,23.248,0,0,1-15.385,18.931v2.03a7.652,7.652,0,0,1-7.782,7.649,7.732,7.732,0,0,1-7.519-7.775v-1.905A23.243,23.243,0,0,1,89.54,188.737a9.877,9.877,0,0,1-7.352-9.553,6.412,6.412,0,0,1,6.412-6.412h.746s15.266,1.459,26.387-6.566a1.929,1.929,0,0,1,2.439.139,25.811,25.811,0,0,0,17.633,6.427h.747a6.413,6.413,0,0,1,6.412,6.411Z" transform="translate(-77.912 -164.478)" fill="#ffdfcf"/>
      <path id="Trazado_913259" data-name="Trazado 913259" d="M120.5,237.578c-.092.034-.184.067-.276.1v2.03a7.652,7.652,0,0,1-7.782,7.649,7.732,7.732,0,0,1-7.519-7.775v-1.905A23.243,23.243,0,0,1,89.54,218.746a9.882,9.882,0,0,1-7.352-9.553,6.412,6.412,0,0,1,6.412-6.412h.746a47.392,47.392,0,0,0,11.118-.576v13.33A22.144,22.144,0,0,0,120.5,237.578Z" transform="translate(-77.912 -194.487)" fill="#ffcebf"/>
      <g id="Grupo_1103060" data-name="Grupo 1103060" transform="translate(7.995 12.94)">
        <path id="Trazado_913260" data-name="Trazado 913260" d="M385.711,238.508a1.351,1.351,0,0,1-1.349-1.3,6.865,6.865,0,0,1,1.92-4.736,1.351,1.351,0,0,1,1.91,1.91,4.106,4.106,0,0,0-1.131,2.729,1.351,1.351,0,0,1-1.3,1.4Z" transform="translate(-335.251 -232.074)" fill="#ffcebf"/>
        <path id="Trazado_913261" data-name="Trazado 913261" d="M106.336,238.508h-.049a1.351,1.351,0,0,1-1.3-1.388,4.162,4.162,0,0,0-1.13-2.74,1.351,1.351,0,1,1,1.91-1.91,6.865,6.865,0,0,1,1.92,4.736A1.351,1.351,0,0,1,106.336,238.508Z" transform="translate(-103.459 -232.073)" fill="#ffa78f"/>
      </g>
      <path id="Trazado_913262" data-name="Trazado 913262" d="M228.94,333.313a7.525,7.525,0,0,1-5.338-2.207,1.351,1.351,0,0,1,1.91-1.91,4.852,4.852,0,0,0,6.854,0,1.351,1.351,0,0,1,1.91,1.91A7.525,7.525,0,0,1,228.94,333.313Z" transform="translate(-194.277 -298.949)" fill="#fd4755" stroke="#fe646f" stroke-miterlimit="10" stroke-width="1"/>
      <g id="Grupo_1103061" data-name="Grupo 1103061" transform="translate(17.851 16.004)">
        <path id="Trazado_913263" data-name="Trazado 913263" d="M291.112,254.225a1.347,1.347,0,0,1-.955-.4,5.232,5.232,0,0,0-7.39,0,1.351,1.351,0,1,1-1.91-1.91,7.936,7.936,0,0,1,11.211,0,1.351,1.351,0,0,1-.955,2.306Z" transform="translate(-259.371 -249.601)" fill="#ffa78f"/>
        <path id="Trazado_913264" data-name="Trazado 913264" d="M170.486,254.225a1.347,1.347,0,0,1-.955-.4,5.232,5.232,0,0,0-7.39,0,1.351,1.351,0,0,1-1.91-1.91,7.936,7.936,0,0,1,11.211,0,1.351,1.351,0,0,1-.955,2.306Z" transform="translate(-159.834 -249.601)" fill="#ffa78f"/>
      </g>
    </g>
    <path id="Trazado_913265" data-name="Trazado 913265" d="M225.034,8.943h-2.522V1.7a1.7,1.7,0,0,0-1.7-1.7h-2.821a1.7,1.7,0,0,0-1.7,1.7V8.943H213.77a2.119,2.119,0,0,0-1.835,3.178l5.632,9.754a2.119,2.119,0,0,0,3.669,0l5.632-9.754A2.119,2.119,0,0,0,225.034,8.943Z" transform="translate(-144.677 0)" fill="#4045ab"/>
    <g id="Grupo_1103063" data-name="Grupo 1103063" transform="translate(36.318 0)">
      <path id="Trazado_913266" data-name="Trazado 913266" d="M57.008,7.369,54.891,8.2A25.2,25.2,0,0,0,47.6,2.612,24.641,24.641,0,0,0,38.4.006a1.921,1.921,0,0,0-2.084,1.911v2.6a1.928,1.928,0,0,0,1.737,1.927,18.324,18.324,0,0,1,10.288,4.345l-1.475.582a2.417,2.417,0,0,0-.615,4.142l8.535,6.777a2.417,2.417,0,0,0,3.894-1.538l1.6-10.78a2.417,2.417,0,0,0-3.279-2.6Z" transform="translate(-36.318 0)" fill="#ffbd45"/>
      <path id="Trazado_913267" data-name="Trazado 913267" d="M341.736,7.369l2.116.836a25.2,25.2,0,0,1,7.289-5.593,24.639,24.639,0,0,1,9.2-2.605,1.921,1.921,0,0,1,2.084,1.911v2.6a1.928,1.928,0,0,1-1.737,1.927A18.324,18.324,0,0,0,350.4,10.79l1.475.582a2.417,2.417,0,0,1,.615,4.142l-8.535,6.777a2.417,2.417,0,0,1-3.894-1.538l-1.6-10.78a2.417,2.417,0,0,1,3.279-2.6Z" transform="translate(-285.612 0)" fill="#ffbd45"/>
    </g>
  </g>
</svg>
