<svg xmlns="http://www.w3.org/2000/svg" width="384" height="59.688" viewBox="0 0 384 59.688">
  <g id="Grupo_1103350" data-name="Grupo 1103350" transform="translate(-180 -8277.805)">
    <path id="Unión_7" data-name="Unión 7" d="M8669.877,11668.958l-1.515-25.957h-3.311a11,11,0,0,1-11-11v-9a11,11,0,0,1,11-11h362a11,11,0,0,1,11,11v9a11,11,0,0,1-11,11h-320.7l-27.37,25.957a5.157,5.157,0,0,1-9.1,0Z" transform="translate(-8474.052 -3334.196)" fill="#ffbd45"/>
    <path id="Trazado_911295" data-name="Trazado 911295" d="M-8453.8-10064.8l21.8-22.4h181.6" transform="translate(8653.999 18392.805)" fill="none" stroke="#ca7441" stroke-linecap="round" stroke-width="1"/>
    <path id="Trazado_911296" data-name="Trazado 911296" d="M-8242.2-10087.2h13.2" transform="translate(8653.999 18392.805)" fill="none" stroke="#ca7441" stroke-linecap="round" stroke-width="1"/>
    <path id="Trazado_911297" data-name="Trazado 911297" d="M-8207.8-10087.2h52.8s11-1.8,10.6-9,0-4.6,0-4.6" transform="translate(8704.8 18392.805)" fill="none" stroke="#ca7441" stroke-linecap="round" stroke-width="1"/>
  </g>
</svg>
