<svg xmlns="http://www.w3.org/2000/svg" width="77.523" height="71.636" viewBox="0 0 77.523 71.636">
  <g id="Grupo_1102871" data-name="Grupo 1102871" transform="translate(-257.041 -4759.079)">
    <circle id="Elipse_11526" data-name="Elipse 11526" cx="35.818" cy="35.818" r="35.818" transform="translate(262.928 4759.079)" fill="#ee4f47"/>
    <g id="Grupo_1103059" data-name="Grupo 1103059" transform="translate(256.041 4765.762)">
      <path id="Trazado_913240" data-name="Trazado 913240" d="M23.97,20a11.96,11.96,0,0,0-6.462,1.887l1.078,1.685a10,10,0,1,1-3.078,3.1L13.817,25.6A12,12,0,1,0,23.97,20Z" fill="#4045ab"/>
      <path id="Trazado_913241" data-name="Trazado 913241" d="M23.97,40A8,8,0,1,0,20.3,24.889l.918,1.777A5.935,5.935,0,0,1,23.97,26a6,6,0,1,1-6,6,5.93,5.93,0,0,1,.666-2.75l-1.776-.919A8,8,0,0,0,23.97,40Z" fill="#4045ab"/>
      <path id="Trazado_913242" data-name="Trazado 913242" d="M23.97,36a4,4,0,0,0,0-8v2a2,2,0,1,1-2,2h-2a4,4,0,0,0,4,4Z" fill="#4045ab"/>
      <path id="Trazado_913243" data-name="Trazado 913243" d="M35.541,19.662A17.322,17.322,0,0,0,22.112,15.39,17.025,17.025,0,0,0,12.6,19.627l-1.119-1.073v-3.8a1,1,0,0,0-.293-.707L6.95,9.808a1,1,0,0,0-1.707.707v3.243H2a1,1,0,0,0-.707,1.707l4.243,4.243A1,1,0,0,0,6.243,20H10.1l1.085,1.041a16.319,16.319,0,0,0,2.063,23.683,4.942,4.942,0,0,1,1.792,3.9v6.85A7.645,7.645,0,0,0,22.781,63h2.526a7.645,7.645,0,0,0,7.737-7.531V48.62a5.1,5.1,0,0,1,1.885-3.971,16.353,16.353,0,0,0,.612-24.987Zm-31.127-3.9H6.243a1,1,0,0,0,1-1V12.929l2.243,2.243V18H6.657Zm12.63,39.712V55h14v.469A5.322,5.322,0,0,1,30.816,57H17.272a5.322,5.322,0,0,1-.228-1.531ZM25.307,61H22.781a5.812,5.812,0,0,1-4.411-2H29.718a5.812,5.812,0,0,1-4.411,2Zm8.358-17.9a7.1,7.1,0,0,0-2.622,5.521V53h-14V48.62a6.931,6.931,0,0,0-2.539-5.454,14.332,14.332,0,0,1-1.876-20.743L23.274,32.634l1.385-1.443L14.048,21.011a15.036,15.036,0,0,1,8.279-3.633A15.334,15.334,0,0,1,34.205,21.15a14.354,14.354,0,0,1-.54,21.949Z" fill="#4045ab"/>
      <path id="Trazado_913244" data-name="Trazado 913244" d="M61,1H33a2,2,0,0,0-2,2V15h2V3H61V43H38v2H61a2,2,0,0,0,2-2V3a2,2,0,0,0-2-2Z" fill="#4045ab"/>
      <path id="Trazado_913245" data-name="Trazado 913245" d="M37,8h2v2H37Z" fill="#4045ab"/>
      <path id="Trazado_913246" data-name="Trazado 913246" d="M41,8H58v2H41Z" fill="#4045ab"/>
      <path id="Trazado_913247" data-name="Trazado 913247" d="M37,15h2v2H37Z" fill="#4045ab"/>
      <path id="Trazado_913248" data-name="Trazado 913248" d="M41,15H58v2H41Z" fill="#4045ab"/>
      <path id="Trazado_913249" data-name="Trazado 913249" d="M41,22H58v2H41Z" fill="#4045ab"/>
      <path id="Trazado_913250" data-name="Trazado 913250" d="M43,29H58v2H43Z" fill="#4045ab"/>
      <path id="Trazado_913251" data-name="Trazado 913251" d="M43,36H58v2H43Z" fill="#4045ab"/>
    </g>
  </g>
</svg>
