<svg xmlns="http://www.w3.org/2000/svg" width="103.72" height="111.266" viewBox="0 0 103.72 111.266">
  <g id="Grupo_1101013" data-name="Grupo 1101013" transform="translate(-1120.047 -3315.085)">
    <circle id="Elipse_11528" data-name="Elipse 11528" cx="51.86" cy="51.86" r="51.86" transform="translate(1120.047 3322.631)" fill="#4045ab"/>
    <g id="servicio-al-cliente" transform="translate(1127.237 3315.085)">
      <g id="Grupo_1103799" data-name="Grupo 1103799" transform="translate(0.573 14.303)">
        <g id="Grupo_1103798" data-name="Grupo 1103798" transform="translate(0)">
          <path id="Trazado_914507" data-name="Trazado 914507" d="M72.445,142.935,69.133,133a10.013,10.013,0,0,0-7.708-6.684l-9.559-1.739v-.741a14.4,14.4,0,0,0,4.264-3.786h2.888a4.3,4.3,0,0,0,4.291-4.291V98.594a18.594,18.594,0,1,0-37.189,0v10.012a5.731,5.731,0,0,0,4.561,5.6,14.33,14.33,0,0,0,6.881,9.626v.741L28,126.316A10.011,10.011,0,0,0,20.3,133l-.572,1.718-4.872-4.872a1.433,1.433,0,0,1,0-2.024l5.65-5.648-10.6-10.6-6.385,6.385a10.012,10.012,0,0,0,0,14.159l19.331,19.331a10.008,10.008,0,0,0,14.115.043l6.967-6.384-2.173-2.168Zm-12-27.176a1.432,1.432,0,0,1-1.43,1.43h-1.2a14.207,14.207,0,0,0,.933-2.979,5.666,5.666,0,0,0,1.7-.677Zm-1.43-4.689v-4.926a2.836,2.836,0,0,1,0,4.926Zm-28.607,0a2.836,2.836,0,0,1,0-4.926Zm0-9.615v1.633a5.674,5.674,0,0,0-1.43.592V98.594a15.734,15.734,0,0,1,31.467,0v5.086a5.621,5.621,0,0,0-1.43-.592v-1.633h-1.43a15.737,15.737,0,0,1-11.2-4.639l-1.675-1.675L43.04,96.817a15.737,15.737,0,0,1-11.2,4.639Zm2.861,10.012v-7.206a18.544,18.544,0,0,0,11.443-5.083,18.536,18.536,0,0,0,11.443,5.083v7.206a11.357,11.357,0,0,1-1.548,5.721h-9.9v2.861h7.544a11.425,11.425,0,0,1-18.986-8.582Zm15.734,13.644v.067l-4.291,4.291-4.291-4.291v-.067a14.292,14.292,0,0,0,8.582,0Zm-26,8.792a7.154,7.154,0,0,1,5.505-4.776l10-1.817,6.2,6.2,6.2-6.2,10,1.817a7.152,7.152,0,0,1,5.505,4.776l2.058,6.169H38.892L33.32,134.5l-6.191,5.6a1.461,1.461,0,0,1-2.022,0l-3.124-3.124ZM9.9,115.614l6.56,6.56L14.9,123.727l-6.56-6.56Zm25.081,33.81a7.153,7.153,0,0,1-10.114,0L5.532,130.092a7.153,7.153,0,0,1,0-10.114l.787-.787,6.56,6.56-.051.051a4.3,4.3,0,0,0,0,6.069l10.257,10.257a4.269,4.269,0,0,0,3.035,1.257,4.211,4.211,0,0,0,2.982-1.207l.107-.1,6.59,6.59Zm2.932-2.689-6.575-6.575,1.889-1.708,6.564,6.564Z" transform="translate(-0.58 -80)" fill="#ee4f47"/>
        </g>
      </g>
      <g id="Grupo_1103801" data-name="Grupo 1103801" transform="translate(60.442)">
        <g id="Grupo_1103800" data-name="Grupo 1103800">
          <path id="Trazado_914508" data-name="Trazado 914508" d="M359.744,0H339.719a4.3,4.3,0,0,0-4.291,4.291V15.734a4.3,4.3,0,0,0,4.291,4.291h3.82l-1.479,8.626,13.8-8.626h3.88a4.3,4.3,0,0,0,4.291-4.291V4.291A4.3,4.3,0,0,0,359.744,0Zm1.43,15.734a1.433,1.433,0,0,1-1.43,1.43h-4.7l-9.084,5.677.974-5.677h-7.213a1.433,1.433,0,0,1-1.43-1.43V4.291a1.433,1.433,0,0,1,1.43-1.43h20.025a1.433,1.433,0,0,1,1.43,1.43Z" transform="translate(-335.428)" fill="#ee4f47"/>
        </g>
      </g>
      <g id="Grupo_1103803" data-name="Grupo 1103803" transform="translate(66.163 5.721)">
        <g id="Grupo_1103802" data-name="Grupo 1103802">
          <rect id="Rectángulo_404382" data-name="Rectángulo 404382" width="17.164" height="2.861" fill="#ee4f47"/>
        </g>
      </g>
      <g id="Grupo_1103805" data-name="Grupo 1103805" transform="translate(66.163 11.443)">
        <g id="Grupo_1103804" data-name="Grupo 1103804">
          <rect id="Rectángulo_404383" data-name="Rectángulo 404383" width="11.443" height="2.861" fill="#ee4f47"/>
        </g>
      </g>
      <g id="Grupo_1103807" data-name="Grupo 1103807" transform="translate(80.467 11.443)">
        <g id="Grupo_1103806" data-name="Grupo 1103806">
          <rect id="Rectángulo_404384" data-name="Rectángulo 404384" width="2.861" height="2.861" fill="#ee4f47"/>
        </g>
      </g>
      <g id="Grupo_1103809" data-name="Grupo 1103809" transform="translate(0.572 4.291)">
        <g id="Grupo_1103808" data-name="Grupo 1103808" transform="translate(0)">
          <path id="Trazado_914509" data-name="Trazado 914509" d="M44.708,24A40.024,40.024,0,0,0,5.736,54.96l-2.71-4.518L.572,51.913,5.6,60.291l8.378-5.028L12.505,52.81,8.629,55.136a37.2,37.2,0,0,1,47.1-26.616l.847-2.732A40.024,40.024,0,0,0,44.708,24Z" transform="translate(-0.572 -24)" fill="#ee4f47"/>
        </g>
      </g>
      <g id="Grupo_1103811" data-name="Grupo 1103811" transform="translate(73.602 26.643)">
        <g id="Grupo_1103810" data-name="Grupo 1103810">
          <path id="Trazado_914510" data-name="Trazado 914510" d="M423.787,154.044l-8.378-5.028-5.026,8.379,2.453,1.472,2.5-4.172a37.221,37.221,0,0,1-6.3,35.434l2.221,1.8a40.055,40.055,0,0,0,6.854-37.956l4.2,2.522Z" transform="translate(-409.036 -149.016)" fill="#ee4f47"/>
        </g>
      </g>
    </g>
  </g>
</svg>
