<svg id="Grupo_1103078" data-name="Grupo 1103078" xmlns="http://www.w3.org/2000/svg" width="86.769" height="94" viewBox="0 0 86.769 94">
  <g id="Grupo_1103065" data-name="Grupo 1103065">
    <path id="Trazado_913268" data-name="Trazado 913268" d="M59,51.385H69.846V47.769h4.586a7.217,7.217,0,0,1,9.875-2.641V18.846H71.052a25.3,25.3,0,0,1-15.185-5.062L48.154,8,40.44,13.785a25.3,25.3,0,0,1-15.185,5.062H12V55.718A47,47,0,0,0,41.545,99.355L48.154,102l6.609-2.643c1.461-.584,2.862-1.26,4.237-1.976Z" transform="translate(-12 -8)" fill="#4045ab"/>
  </g>
  <g id="Grupo_1103066" data-name="Grupo 1103066" transform="translate(0 10.846)">
    <path id="Trazado_913269" data-name="Trazado 913269" d="M19.231,50.871V14H12V50.871A47,47,0,0,0,41.545,94.509l6.609,2.645,3.615-1.446-2.994-1.2A47,47,0,0,1,19.231,50.872Z" transform="translate(-12 -14)" fill="#4045ab"/>
  </g>
  <g id="Grupo_1103067" data-name="Grupo 1103067" transform="translate(50.615 47)">
    <path id="Trazado_913270" data-name="Trazado 913270" d="M40,34H76.154V81H40Z" transform="translate(-40 -34)" fill="#f0f0f0"/>
  </g>
  <g id="Grupo_1103068" data-name="Grupo 1103068" transform="translate(50.615 47)">
    <path id="Trazado_913271" data-name="Trazado 913271" d="M40,34h3.615V81H40Z" transform="translate(-40 -34)" fill="#d2d2d2"/>
  </g>
  <g id="Grupo_1103069" data-name="Grupo 1103069" transform="translate(61.462 39.769)">
    <path id="Trazado_913272" data-name="Trazado 913272" d="M56.846,33.615a3.615,3.615,0,0,0-7.231,0H46v3.615H60.462V33.615Z" transform="translate(-46 -30)" fill="#505050"/>
  </g>
  <g id="Grupo_1103070" data-name="Grupo 1103070" transform="translate(14.462 21.692)">
    <path id="Trazado_913273" data-name="Trazado 913273" d="M41.692,20A21.692,21.692,0,1,0,52.538,60.458V41.692H63.385A21.693,21.693,0,0,0,41.692,20Z" transform="translate(-20 -20)" fill="#e8e8e8"/>
  </g>
  <g id="Grupo_1103071" data-name="Grupo 1103071" transform="translate(22.596 32.538)">
    <path id="Trazado_913274" data-name="Trazado 913274" d="M51.615,31.423,35.346,47.692,24.5,36.846l5.423-5.423,5.423,5.423L46.192,26Z" transform="translate(-24.5 -26)" fill="#ffbd45"/>
  </g>
  <g id="Grupo_1103072" data-name="Grupo 1103072" transform="translate(57.846 54.231)">
    <path id="Trazado_913275" data-name="Trazado 913275" d="M44,38h7.231v7.231H44Z" transform="translate(-44 -38)" fill="#fa6450"/>
  </g>
  <g id="Grupo_1103073" data-name="Grupo 1103073" transform="translate(68.692 57.846)">
    <path id="Trazado_913276" data-name="Trazado 913276" d="M50,40H60.846v3.615H50Z" transform="translate(-50 -40)" fill="#505050"/>
  </g>
  <g id="Grupo_1103074" data-name="Grupo 1103074" transform="translate(57.846 65.077)">
    <path id="Trazado_913277" data-name="Trazado 913277" d="M44,44h7.231v7.231H44Z" transform="translate(-44 -44)" fill="#fa6450"/>
  </g>
  <g id="Grupo_1103075" data-name="Grupo 1103075" transform="translate(68.692 68.692)">
    <path id="Trazado_913278" data-name="Trazado 913278" d="M50,46H60.846v3.615H50Z" transform="translate(-50 -46)" fill="#505050"/>
  </g>
  <g id="Grupo_1103076" data-name="Grupo 1103076" transform="translate(57.846 75.923)">
    <path id="Trazado_913279" data-name="Trazado 913279" d="M44,50h7.231v7.231H44Z" transform="translate(-44 -50)" fill="#fa6450"/>
  </g>
  <g id="Grupo_1103077" data-name="Grupo 1103077" transform="translate(68.692 79.538)">
    <path id="Trazado_913280" data-name="Trazado 913280" d="M50,52H60.846v3.615H50Z" transform="translate(-50 -52)" fill="#505050"/>
  </g>
</svg>
