<svg xmlns="http://www.w3.org/2000/svg" width="85" height="84.998" viewBox="0 0 85 84.998">
  <g id="Grupo_1103047" data-name="Grupo 1103047" transform="translate(-14.994 -15)">
    <g id="Grupo_1103043" data-name="Grupo 1103043" transform="translate(14.994 34.993)">
      <path id="Trazado_913194" data-name="Trazado 913194" d="M19.461,192.907H45.928q1.665-9.333,11.256-7.157,6.4,1.112,6.263-1.792c.023-3,.534-4.09,1.308-4.67,1.713-1.317-.194-3.017-2.155-4.08,1.649-.129,3.767-1.455,3.311-2.519-.732-2.5-.387-3.5.742-4.085q3.288-1.61,1.34-4.1a23.493,23.493,0,0,1-3.588-5,8.3,8.3,0,0,1-.93-4.854c.078-.806.12-1.621.12-2.45a24.3,24.3,0,1,0-42.844,15.7,8.257,8.257,0,0,1,1.994,4.638c.622,5.66-.783,12.227-4.025,19.2a.82.82,0,0,0,.742,1.165Z" transform="translate(-14.994 -127.902)" fill="#f6dccd" fill-rule="evenodd"/>
      <path id="Trazado_913195" data-name="Trazado 913195" d="M19.461,192.907h4.914a.82.82,0,0,1-.742-1.165c3.242-6.968,4.647-13.535,4.025-19.2a8.257,8.257,0,0,0-1.994-4.638,24.3,24.3,0,0,1,16.087-39.883A24,24,0,0,0,39.3,127.9a24.3,24.3,0,0,0-18.546,40.007,8.257,8.257,0,0,1,1.994,4.638c.622,5.66-.783,12.227-4.025,19.2a.82.82,0,0,0,.742,1.165Zm37.018-7.3c.235.046.47.092.7.147a10.483,10.483,0,0,0,5.034.018l-.12-.018A12.085,12.085,0,0,0,56.48,185.6Z" transform="translate(-14.994 -127.902)" fill="#f1cbbc" fill-rule="evenodd"/>
    </g>
    <g id="Grupo_1103045" data-name="Grupo 1103045" transform="translate(62.184 15)">
      <path id="Trazado_913196" data-name="Trazado 913196" d="M319.3,39.38V19.057A4.066,4.066,0,0,0,315.239,15h-29.7a4.066,4.066,0,0,0-4.057,4.057V39.38a4.06,4.06,0,0,0,4.057,4.051h3.431v6.062a.885.885,0,0,0,1.524.613l6.412-6.675h18.328A4.06,4.06,0,0,0,319.3,39.38Z" transform="translate(-281.486 -15)" fill="#ee4f47" fill-rule="evenodd"/>
      <path id="Trazado_913197" data-name="Trazado 913197" d="M324.072,49.794l6.113-6.363h1.771l-6.412,6.675a.886.886,0,0,1-1.471-.312Zm24.441-6.363a4.06,4.06,0,0,0,4.057-4.051V19.057A4.066,4.066,0,0,0,348.513,15h1.771a4.066,4.066,0,0,1,4.057,4.057V39.38a4.06,4.06,0,0,1-4.057,4.051Z" transform="translate(-316.531 -15)" fill="#ee4f47" fill-rule="evenodd"/>
      <g id="Grupo_1103044" data-name="Grupo 1103044" transform="translate(6.489 6.434)">
        <path id="Trazado_913198" data-name="Trazado 913198" d="M319.548,54.166a1.417,1.417,0,0,1,0-2.833H341.19a1.417,1.417,0,0,1,0,2.833Z" transform="translate(-318.131 -51.333)" fill="#eceff1" fill-rule="evenodd"/>
        <path id="Trazado_913199" data-name="Trazado 913199" d="M319.548,90.527a1.417,1.417,0,0,1,0-2.833H341.19a1.417,1.417,0,0,1,0,2.833Z" transform="translate(-318.131 -81.255)" fill="#eceff1" fill-rule="evenodd"/>
        <path id="Trazado_913200" data-name="Trazado 913200" d="M319.548,126.853a1.417,1.417,0,0,1,0-2.833h10.443a1.417,1.417,0,0,1,0,2.833Z" transform="translate(-318.131 -111.149)" fill="#eceff1" fill-rule="evenodd"/>
      </g>
    </g>
    <path id="Trazado_913201" data-name="Trazado 913201" d="M349.256,337.06a1.417,1.417,0,0,1,0,2.833h-4.11a1.417,1.417,0,1,1,0-2.833Zm-5.069-9.406a1.417,1.417,0,0,1,2,2l-2.906,2.906a1.417,1.417,0,0,1-2-2Zm2,19.641a1.417,1.417,0,0,1-2,2l-2.906-2.906a1.417,1.417,0,0,1,2-2Z" transform="translate(-268.166 -256.948)" fill="#ffe177" fill-rule="evenodd"/>
    <g id="Grupo_1103046" data-name="Grupo 1103046" transform="translate(27.684 46.293)">
      <path id="Trazado_913202" data-name="Trazado 913202" d="M97.862,214.129a11.206,11.206,0,1,0-11.206-11.206A11.224,11.224,0,0,0,97.862,214.129Z" transform="translate(-86.656 -191.716)" fill="#4045ab" fill-rule="evenodd"/>
      <path id="Trazado_913203" data-name="Trazado 913203" d="M144.943,214.094a11.207,11.207,0,0,0,0-22.343q.438-.035.885-.035a11.206,11.206,0,1,1,0,22.413Q145.381,214.129,144.943,214.094Z" transform="translate(-134.622 -191.716)" fill="#4045ab" fill-rule="evenodd"/>
      <path id="Trazado_913204" data-name="Trazado 913204" d="M112.628,234.022a1.417,1.417,0,0,1,2-2l2.119,2.118,6.464-5.864a1.417,1.417,0,0,1,1.9,2.1l-7.463,6.77a1.417,1.417,0,0,1-1.954-.048Z" transform="translate(-107.688 -221.497)" fill="#eceff1" fill-rule="evenodd"/>
    </g>
  </g>
</svg>
