<svg xmlns="http://www.w3.org/2000/svg" width="58.089" height="47.83" viewBox="0 0 58.089 47.83">
  <g id="Grupo_1103048" data-name="Grupo 1103048" transform="translate(-3.001 -648.083)">
    <path id="Trazado_913205" data-name="Trazado 913205" d="M36.5,653.009a6.979,6.979,0,0,1,2.757,2.633,7.26,7.26,0,0,1,.307,5.778,1,1,0,1,0,1.917.572,9.176,9.176,0,0,0-.48-7.328c-1.564-2.791-5.063-4.539-9.165-5.152-3.3-1.462-7.747-1.923-13.491-.811C6.529,650.988,4.1,661.524,3.53,665.966a97.269,97.269,0,0,0,0,20.258,8.158,8.158,0,0,0,4.767,6.4,18.9,18.9,0,0,0,7.158,1.793l12.969,1.492a1,1,0,0,0,.822-1.7l-.985-.985a2.327,2.327,0,0,1-.579-2.33l2.131-6.924A2.327,2.327,0,0,1,32.63,682.4a16.776,16.776,0,0,0,2.77.553,2.792,2.792,0,0,0,1.073-.1,3.139,3.139,0,0,0,1.643-1.473,3.881,3.881,0,0,0,.325-2.99l.61-.982a1,1,0,0,0-.143-1.235l-.22-.219.36-.18a1,1,0,0,0,.471-1.291l-.4-.923a4.812,4.812,0,0,0,.962-.451,2.029,2.029,0,0,0,1-2.564,6.864,6.864,0,0,0-2.042-2.44,7.289,7.289,0,0,1-.844-.825.952.952,0,0,1-.258-.484,10.275,10.275,0,0,1,.6-2.453,12.279,12.279,0,0,0,.146-7.386,12.746,12.746,0,0,0-2.193-3.953Zm-.06,3.689a11.8,11.8,0,0,1-2.636,5.791,6.35,6.35,0,0,1-4.378,2.539c-4.8-.025-7.175,3.2-8.906,4.5-1.245.935-2.3,1.114-3.346.251-1.236-1.019-2.05-1.338-2.65-1.178a1.278,1.278,0,0,0-.778.8,4.982,4.982,0,0,0,.013,2.5c.209.888.651,1.784,1.695,1.925,1.953.263,2.664,1.674,2.649,3.958-.012,1.934-.552,4.61-.581,7.431a11.757,11.757,0,0,0,2.271,7.683l6.306.725a4.325,4.325,0,0,1-.325-3.324l2.13-6.924a4.328,4.328,0,0,1,5.241-2.91h.005a17.172,17.172,0,0,0,2.146.465,4.844,4.844,0,0,0,.545.026,1.16,1.16,0,0,0,.529-.542,1.823,1.823,0,0,0,.066-1.679,1,1,0,0,1,.045-.972l.456-.735-.64-.64a1,1,0,0,1,.26-1.6l.755-.377-.482-1.118a1,1,0,0,1,.766-1.385,4.945,4.945,0,0,0,1.151-.342,1.861,1.861,0,0,0,.367-.212c.044-.034.12-.051.1-.111a2.629,2.629,0,0,0-.68-.9c-.4-.389-.851-.754-1.247-1.125a3.707,3.707,0,0,1-1.333-2.228,11.9,11.9,0,0,1,.667-3.173,10.27,10.27,0,0,0,.184-6.2q-.162-.468-.363-.917Zm-2-2.973c-2.927-3.028-8.044-4.545-15.715-3.06-10.6,2.052-12.693,11.572-13.208,15.557a95.035,95.035,0,0,0,0,19.768,6.23,6.23,0,0,0,3.695,4.853,16.62,16.62,0,0,0,6.335,1.574q.045,0,.09.006l1.549.178c-2.412-4.276-1.564-9.38-1.195-13.095a12.378,12.378,0,0,0,.072-2.533c-.074-.62-.261-1.079-.879-1.162a4.081,4.081,0,0,1-3.374-3.449,7.161,7.161,0,0,1,.1-3.752,3.3,3.3,0,0,1,2.1-1.939c.973-.261,2.431-.087,4.438,1.566.166.137.326.047.511-.061a7.99,7.99,0,0,0,1.14-.894c1.92-1.689,4.639-4.278,9.34-4.254a4.363,4.363,0,0,0,2.844-1.836A9.328,9.328,0,0,0,34.436,653.725Z" fill="#ee4f47" fill-rule="evenodd"/>
    <path id="Trazado_913206" data-name="Trazado 913206" d="M55.863,689.127a17.866,17.866,0,0,0,0-25.254,1,1,0,0,0-1.414,1.414,15.866,15.866,0,0,1,0,22.426,1,1,0,0,0,1.414,1.414Zm-4.392-4.391a11.652,11.652,0,0,0,0-16.472,1,1,0,0,0-1.414,1.415,9.65,9.65,0,0,1,0,13.642,1,1,0,0,0,1.414,1.415Zm-3.764-3.765a6.325,6.325,0,0,0,0-8.942,1,1,0,0,0-1.414,1.414,4.326,4.326,0,0,1,0,6.114,1,1,0,0,0,1.414,1.414Z" fill="#ee4f47" fill-rule="evenodd"/>
  </g>
</svg>
