<svg xmlns="http://www.w3.org/2000/svg" width="47.926" height="47.926" viewBox="0 0 47.926 47.926">
  <g id="Grupo_1103052" data-name="Grupo 1103052" transform="translate(-0.003 0)">
    <g id="Grupo_1103049" data-name="Grupo 1103049" transform="translate(0.003 0)">
      <path id="Trazado_913207" data-name="Trazado 913207" d="M.705,169.519a.7.7,0,0,0,.7-.7v-5.4a1.171,1.171,0,0,1,1.17-1.17H8.3a.7.7,0,0,0,0-1.4H2.577A2.577,2.577,0,0,0,0,163.419v5.4a.7.7,0,0,0,.7.7Z" transform="translate(-0.003 -145.789)" fill="#ee4f47"/>
      <path id="Trazado_913208" data-name="Trazado 913208" d="M34.049,278.279a.7.7,0,0,0-.7.7v14.728a1.171,1.171,0,0,1-1.17,1.17H2.577a1.171,1.171,0,0,1-1.17-1.17v-19a.7.7,0,1,0-1.4,0v19a2.577,2.577,0,0,0,2.574,2.574h29.6a2.577,2.577,0,0,0,2.574-2.574V278.981A.7.7,0,0,0,34.049,278.279Z" transform="translate(-0.003 -248.357)" fill="#ee4f47"/>
      <path id="Trazado_913209" data-name="Trazado 913209" d="M135.907,17.009a.7.7,0,0,0,.7-.7V12.489a1.64,1.64,0,0,0-1.638-1.638H129.43a1.64,1.64,0,0,0-1.638,1.638v1.2h-2.226a3.676,3.676,0,0,1-1.951-.559l-4.642-2.9,2.407-3.57h0l1.492-2.213a1.638,1.638,0,0,0-.442-2.274L119.625.281a1.638,1.638,0,0,0-2.274.442L111.29,9.711h-4.354a5.591,5.591,0,0,0-4.858,2.833l-3.6,6.362a2.679,2.679,0,0,0,2.331,4h.659a3.022,3.022,0,0,0,.211,1.061L98.893,28.1a2.592,2.592,0,0,0-.406,1.022l-.623,3.8a1.635,1.635,0,0,0,2.468,1.664l3.288-2a2.557,2.557,0,0,0,.8-.759l2.65-3.93v.281a2.44,2.44,0,0,0,2.437,2.437h.775a2.43,2.43,0,0,0,1.735-.728,2.43,2.43,0,0,0,1.735.728h.775a2.44,2.44,0,0,0,2.437-2.437v-.352a7.369,7.369,0,0,0,2.085.3h5.784a7.406,7.406,0,0,0,2.127-.312l.834-.25V29.5a1.64,1.64,0,0,0,1.638,1.638h5.541a1.64,1.64,0,0,0,1.638-1.638v-9.5a.7.7,0,1,0-1.4,0v9.5a.234.234,0,0,1-.234.234H129.43a.234.234,0,0,1-.234-.234V12.489a.234.234,0,0,1,.234-.234h5.541a.234.234,0,0,1,.234.234v3.818a.7.7,0,0,0,.7.7Zm-29.419,2.334L116.63,4.3l3.194,2.154-8.689,12.885ZM118.515,1.508a.234.234,0,0,1,.325-.063l2.806,1.892a.234.234,0,0,1,.063.325l-1.1,1.631L117.415,3.14ZM99.707,20.867A1.263,1.263,0,0,1,99.7,19.6l3.6-6.362a4.185,4.185,0,0,1,3.636-2.12h3.407l-5.548,8.228h-.581a2.751,2.751,0,0,0-2.682,2.157h-.723A1.263,1.263,0,0,1,99.707,20.867Zm5.1,7.853-3.194-2.154.935-1.387a3.028,3.028,0,0,0,1.957.716h2.207Zm-1.56,2.314a1.161,1.161,0,0,1-.362.345l-3.288,2a.234.234,0,0,1-.353-.238l.623-3.8a1.18,1.18,0,0,1,.184-.465l.775-1.15,3.194,2.154Zm7.026-1.83H109.5a1.035,1.035,0,0,1-1.033-1.033V25.9h2.842V28.17A1.035,1.035,0,0,1,110.278,29.2Zm4.246,0h-.775a1.035,1.035,0,0,1-1.033-1.033V26.019l2.842,1.251v.9a1.035,1.035,0,0,1-1.033,1.033Zm12.03-2.741a6,6,0,0,1-1.724.253h-5.784a5.974,5.974,0,0,1-2.421-.509l-3.363-1.481a2.75,2.75,0,0,0-1.114-.234H104.51a1.64,1.64,0,0,1-1.638-1.638v-.764a1.344,1.344,0,0,1,1.342-1.342h10.253a2.757,2.757,0,0,0,1.855-.716l1.826-1.656a.7.7,0,0,0-.943-1.04l-1.826,1.656a1.355,1.355,0,0,1-.912.352h-1.638l5.359-7.947,4.683,2.927a5.08,5.08,0,0,0,2.695.773h2.226v11Z" transform="translate(-88.683 0)" fill="#ee4f47"/>
      <path id="Trazado_913210" data-name="Trazado 913210" d="M42.285,358.41h1.786a.7.7,0,0,0,0-1.4H42.285a.7.7,0,1,0,0,1.4Z" transform="translate(-37.691 -323.588)" fill="#ee4f47"/>
      <path id="Trazado_913211" data-name="Trazado 913211" d="M67.627,396.946H42.285a.7.7,0,1,0,0,1.4H67.627a.7.7,0,1,0,0-1.4Z" transform="translate(-37.691 -359.79)" fill="#ee4f47"/>
      <path id="Trazado_913212" data-name="Trazado 913212" d="M67.627,436.887H42.285a.7.7,0,1,0,0,1.4H67.627a.7.7,0,1,0,0-1.4Z" transform="translate(-37.691 -395.992)" fill="#ee4f47"/>
    </g>
  </g>
</svg>
