<svg xmlns="http://www.w3.org/2000/svg" xmlns:xlink="http://www.w3.org/1999/xlink" width="299.22" height="249.293" viewBox="0 0 299.22 249.293">
  <defs>
    <clipPath id="clip-path">
      <rect id="Rectángulo_404256" data-name="Rectángulo 404256" width="239.468" height="200.82" fill="none"/>
    </clipPath>
    <clipPath id="clip-path-2">
      <path id="Trazado_913505" data-name="Trazado 913505" d="M176.15,146.619a21.594,21.594,0,0,0-9.474,4.067,19.1,19.1,0,0,0-2.891,2.923,17.025,17.025,0,0,1-2,2.337,8.548,8.548,0,0,0-2.085,1.667l.218.294a21.193,21.193,0,0,1,1.826-1.47,19.8,19.8,0,0,0-2.117,3.721,22.234,22.234,0,0,0-1.356,3.814L158,165.32c-.139.826-.289,1.651-.407,2.48l-.019,1.152c.04.55.028,1.109.036,1.661.495.173.986.356,1.495.485,6.632,1.68,13.252-.447,18.941-3.858,5.28-3.165,11.317-7.994,13.073-14.13.284-.993.1-2.117.35-3.131l.126.035.192.547.189-.359.092-.278a4.96,4.96,0,0,1,1.41.7c1.222.464,2.489.89,3.686,1.412l-.082-.176.057-.14a2.279,2.279,0,0,0,.561.133,1.443,1.443,0,0,0,.212-.046,24.752,24.752,0,0,1,9.35,5.443c1.1.994,2.107,2.1,3.257,3.043l.049-.086c-.011-.039-.025-.078-.033-.118a.846.846,0,0,1,.05-.472c-.322-1.866-1.749-3.864-2.89-5.317a19.776,19.776,0,0,0-3.214-2.9,22.288,22.288,0,0,0-9.985-3.782c-.871-.114-1.76-.08-2.626-.213-1.247-.192-2.469-.587-3.714-.808a33.668,33.668,0,0,0-5.864-.5,37.448,37.448,0,0,0-6.14.516" transform="translate(-157.571 -146.103)" fill="none"/>
    </clipPath>
    <linearGradient id="linear-gradient" x1="-0.63" y1="4.142" x2="-0.626" y2="4.142" gradientUnits="objectBoundingBox">
      <stop offset="0" stop-color="#0c2b60"/>
      <stop offset="1" stop-color="#255284"/>
    </linearGradient>
  </defs>
  <g id="Grupo_1103347" data-name="Grupo 1103347" transform="translate(-1053.605 -1022.139)">
    <g id="Grupo_1100849" data-name="Grupo 1100849" transform="translate(453.617 618.139)">
      <rect id="Rectángulo_35929" data-name="Rectángulo 35929" width="298.949" height="249.293" transform="translate(600.259 404)" fill="#f6ccb3"/>
      <rect id="Rectángulo_402739" data-name="Rectángulo 402739" width="298.949" height="81.071" transform="translate(599.988 404)" fill="#fef6ed"/>
      <g id="Rectángulo_402741" data-name="Rectángulo 402741" transform="translate(625.323 426.294)" fill="none" stroke="#fef6ed" stroke-width="3">
        <rect width="248.279" height="204.704" stroke="none"/>
        <rect x="1.5" y="1.5" width="245.279" height="201.704" fill="none"/>
      </g>
    </g>
    <g id="Grupo_1103155" data-name="Grupo 1103155" transform="translate(1085.532 1047.441)">
      <g id="Grupo_1103150" data-name="Grupo 1103150">
        <g id="Grupo_1103149" data-name="Grupo 1103149" clip-path="url(#clip-path)">
          <path id="Trazado_913486" data-name="Trazado 913486" d="M44.553,251.465a5.235,5.235,0,0,1,2.972.694,4.935,4.935,0,0,1,2.24,3.152,4.842,4.842,0,0,1-4.153,6.071,5.519,5.519,0,0,1-3.269-.867,4.962,4.962,0,0,1-1.386-6.988,5.14,5.14,0,0,1,3.6-2.062" transform="translate(-29.983 -188.113)" fill="#cbe5f4"/>
          <path id="Trazado_913487" data-name="Trazado 913487" d="M361.474,35.68a6.4,6.4,0,0,1-3.844-1.447c-1.206-1.088-1.375-2.45-1.435-3.982-.2-5.11.009-10.318,0-15.436l-.005-6.4a28.387,28.387,0,0,1,.165-4.675,3.669,3.669,0,0,1,1.087-2.066C358.756.35,360.428.337,362.16.354c-.922.572-2.278,1.324-2.537,2.472a23.537,23.537,0,0,0-.154,4.919l.017,7.8.028,10.822c.005,2.069-.086,4.193.08,6.254a3.517,3.517,0,0,0,.552,1.77,6.571,6.571,0,0,0,1.327,1.29" transform="translate(-266.404 -0.263)" fill="#cc7014"/>
          <path id="Trazado_913488" data-name="Trazado 913488" d="M260.194,41.339a7.148,7.148,0,0,1,8.153,6.109,7.417,7.417,0,0,1-1.356,5.576,7.276,7.276,0,0,1-5.1,2.846,7.423,7.423,0,0,1-4.955-1.245,7.551,7.551,0,0,1-3.023-4.954,7.449,7.449,0,0,1,1.38-5.535,7.008,7.008,0,0,1,4.9-2.8" transform="translate(-189.892 -30.879)" fill="#6fbfaf"/>
          <path id="Trazado_913489" data-name="Trazado 913489" d="M604.649,727.631a217.128,217.128,0,0,0,21.677,5.546,172.752,172.752,0,0,0,20.89,3.57l.044,8.413-66.208-.041L581.028,738c8-3.058,15.874-6.712,23.621-10.369" transform="translate(-434.666 -544.34)" fill="#ee4f47"/>
          <path id="Trazado_913490" data-name="Trazado 913490" d="M87.942,124.508a29.35,29.35,0,0,1-10.147-2.476,20.451,20.451,0,0,1,1.989-37.863,21.926,21.926,0,0,1,16.717.887,20.128,20.128,0,0,1,9.618,9.842c.631,1.451,1.007,2.969,1.527,4.458a21.594,21.594,0,0,0-9.474,4.067,19.1,19.1,0,0,0-2.891,2.923,17.029,17.029,0,0,1-2,2.337,8.548,8.548,0,0,0-2.085,1.667,12.043,12.043,0,0,0-3.545,9.374c.062,1.595.179,3.192.293,4.784" transform="translate(-49.374 -62.037)" fill="#4045ab"/>
          <path id="Trazado_913491" data-name="Trazado 913491" d="M17.126,486.779a50.557,50.557,0,0,0,3.955,4.821,33.254,33.254,0,0,0,15.6,8.723c1.468.492,2.99.782,4.5,1.138.326,12.693,2.448,26.1,5.113,38.5a51.79,51.79,0,0,0,2.261,8.845,9.127,9.127,0,0,0,2.162,3.18,13.141,13.141,0,0,0,3.3,2.281c-.111.3-.214.6-.337.888-1.443-.372-2.877-.644-4.3-1.12a43.647,43.647,0,0,1-18.338-12.41c-9.907-11.044-14.3-26.976-14.591-41.551-.089-4.465.419-8.85.673-13.3" transform="translate(-12.3 -364.159)" fill="#6fbfaf"/>
          <path id="Trazado_913492" data-name="Trazado 913492" d="M749.086,360.875c1.731-5.325,6.464-10.105,11.32-12.692,6.7-3.568,13.919-3.875,21.1-1.707a27.007,27.007,0,0,1,15.749,13.952,26.666,26.666,0,0,1,1.018,20.488c-2.324,6.407-6.382,10.675-11.938,14.406-1.491-5.092-2.806-10.223-4.365-15.3a29.849,29.849,0,0,0-2.31-6.381c-2.2-3.692-20.415-9.215-25.081-10.378a23.894,23.894,0,0,0-5.507-1.771Z" transform="translate(-560.38 -258.178)" fill="#4045ab"/>
          <path id="Trazado_913493" data-name="Trazado 913493" d="M43.864,187.12a19.8,19.8,0,0,0-2.117,3.721,22.234,22.234,0,0,0-1.356,3.814l-.274,1.35c-.139.826-.289,1.651-.407,2.48l-.019,1.152a13.986,13.986,0,0,0,0,2.9l.061.236a35.643,35.643,0,0,1,.827,4.678c1.014,2.037,1.7,4.707,2.931,6.565-.446,3.495-1.1,7.035-1.253,10.552-.35,8.129,1.287,15.885-6.072,21.58-7.017,5.431-15.331,5.978-16.742,16.556a14.8,14.8,0,0,0,2.912,11.078,27.607,27.607,0,0,1,2.021,2.363,33.255,33.255,0,0,1-15.6-8.723A50.564,50.564,0,0,1,4.825,262.6C2.332,259.646.015,256.114,0,252.1c-.02-5.349,3.985-8.385,8.69-9.912,3.592-1.166,8.21-1.582,10.947-4.431,4.425-4.6-1.1-10.14-1.117-15.181a8.085,8.085,0,0,1,1.384-4.571c4.074-6.07,11.959-3.161,16.408-7.771,2.15-2.228,2.329-4.845,2.256-7.781-.115-1.592-.231-3.19-.293-4.784A12.043,12.043,0,0,1,41.82,188.3l.218.294a21.2,21.2,0,0,1,1.826-1.47" transform="translate(0 -139.984)" fill="#0c3664"/>
          <path id="Trazado_913494" data-name="Trazado 913494" d="M158.627,187.12a19.8,19.8,0,0,0-2.117,3.721,22.236,22.236,0,0,0-1.356,3.814l-.274,1.35c-.139.826-.289,1.651-.407,2.48l-.019,1.152a13.985,13.985,0,0,0,0,2.9l-.721.008c-.119-1.469-.242-2.943-.311-4.415a12.044,12.044,0,0,1,3.374-9.544,21.2,21.2,0,0,1,1.826-1.47" transform="translate(-114.762 -139.984)" fill="#6fbfaf"/>
          <path id="Trazado_913495" data-name="Trazado 913495" d="M66.175,298.861c.142.529-1.5,4.218-1.758,5.054a16.991,16.991,0,0,0-.447,1.935,22.436,22.436,0,0,0-.383,5.093c.163,4.088,1.555,9.136-.274,13-2.923,6.176-13.458,6.208-19.146,8.315a10.064,10.064,0,0,0-6.073,5.28c-1.451,3.216-.313,6.29.843,9.382l-.078.053a18.335,18.335,0,0,1-1.805-6.578,8.867,8.867,0,0,1,1.674-5.948c5.051-7.011,16.762-5.088,20.676-9.625,3-3.479,1.232-8.92.986-13.009-.376-6.264,1.888-8.527,5.786-12.952" transform="translate(-27.706 -223.577)" fill="#264877"/>
          <path id="Trazado_913496" data-name="Trazado 913496" d="M40.188,248.347l.721-.008.061.236a35.644,35.644,0,0,1,.827,4.678c-2.284,9.508-15.385,6.283-18.9,13.66-1.759,3.692,1.306,7,2.43,10.312a6.073,6.073,0,0,1,.084,4.36c-1.991,4.5-11.823,6.306-15.972,8.76a11.168,11.168,0,0,0-4.476,4.58c-1.92,3.9-.954,8.066.389,11.958a15.242,15.242,0,0,1-3.732-9.047c-.051-5.165,3.935-7.99,8.429-9.443,3.683-1.19,8.234-1.611,11.055-4.512,4.712-4.846-.875-10.167-.947-15.428a7.63,7.63,0,0,1,1.37-4.5c4.025-5.76,11.881-2.969,16.333-7.631,2.154-2.256,2.387-5,2.327-7.971" transform="translate(-1.212 -185.782)" fill="#fefefe"/>
          <path id="Trazado_913497" data-name="Trazado 913497" d="M371.99.091c8.522-.115,17.055.026,25.578,0l8.509-.049A36.48,36.48,0,0,1,411.1.131,3.572,3.572,0,0,1,413.1,1.205a3.609,3.609,0,0,1,.968,1.876c.415,1.961.107,7.262.109,9.559l-.072,11.7a31.838,31.838,0,0,1-.166,6.171,6.1,6.1,0,0,1-1.733,3.126,8.268,8.268,0,0,1-4.81,2.032,79.969,79.969,0,0,1,.036,8.54l-.051.478a.567.567,0,0,1-.176.009c-.134-.037-9.487-8.234-10.405-9.042-1.215-.477-7.933-.139-9.716-.122-1.511,1.614-3.169,3.1-4.783,4.609a38.8,38.8,0,0,1-3.62,3.232,15.477,15.477,0,0,1-1.271,1.31l.014-9.123c-1.889.037-3.773,0-5.66-.072l-.46-.072a6.57,6.57,0,0,1-1.327-1.29,3.517,3.517,0,0,1-.552-1.77c-.166-2.061-.075-4.185-.08-6.254l-.028-10.822-.017-7.8a23.539,23.539,0,0,1,.154-4.919c.259-1.147,1.615-1.9,2.537-2.472" transform="translate(-276.233 0)" fill="#fab439"/>
          <path id="Trazado_913498" data-name="Trazado 913498" d="M478.619,140.926a10.934,10.934,0,0,1,3.458-.141c2.354,2.9,4.648,5.946,7.174,8.7l-.051.478a.567.567,0,0,1-.176.009c-.134-.037-9.487-8.234-10.405-9.041" transform="translate(-358.054 -105.271)" fill="#cc7014"/>
          <path id="Trazado_913499" data-name="Trazado 913499" d="M115.623,146.619a35.581,35.581,0,0,1,12-.011c1.246.221,2.468.616,3.714.808.866.133,1.755.1,2.626.213a22.288,22.288,0,0,1,9.985,3.782,19.777,19.777,0,0,1,3.214,2.9c1.141,1.453,2.568,3.451,2.89,5.317a19.441,19.441,0,0,1,.991,9.3,14.266,14.266,0,0,1-1.888,4.715c.625,1.616.017,5.343.053,7.247-.041.591-.1,1.185-.122,1.777-.1,1.274-.222,2.523-.428,3.785a31.317,31.317,0,0,1-1.583,5.814c-1.339,3.269-3.2,6.82-6.654,8.24a10.537,10.537,0,0,1-7.445-.116c.16,1.308.318,2.613.534,3.914-3.33-.382-8.944-4.176-11.674-6.332a43.57,43.57,0,0,0-4.372-3.423c-.075,4.736-2.108,13.357-5.621,16.774a3.4,3.4,0,0,1-1.442.865c-7.562,1.645-16.309,4.073-20.738,10.951-4.37,6.785-3.892,15.751-3.436,23.47-1.506-.356-3.027-.645-4.5-1.138a27.6,27.6,0,0,0-2.021-2.363A14.8,14.8,0,0,1,76.8,232.024c1.411-10.577,9.725-11.124,16.742-16.556,7.359-5.7,5.722-13.452,6.072-21.58.151-3.517.807-7.057,1.253-10.552-1.231-1.858-1.917-4.528-2.931-6.565a35.645,35.645,0,0,0-.827-4.678l-.061-.236a13.986,13.986,0,0,1,0-2.9l.019-1.152c.118-.829.268-1.654.407-2.48l.274-1.35a22.234,22.234,0,0,1,1.356-3.814,19.8,19.8,0,0,1,2.117-3.721,21.193,21.193,0,0,0-1.826,1.47l-.218-.294a8.547,8.547,0,0,1,2.085-1.667,17.029,17.029,0,0,0,2-2.337,19.1,19.1,0,0,1,2.891-2.923,21.594,21.594,0,0,1,9.474-4.067" transform="translate(-57.352 -109.3)" fill="#031d43"/>
          <path id="Trazado_913500" data-name="Trazado 913500" d="M294.146,161.555l.092-.278a4.959,4.959,0,0,1,1.41.7c-.077.469.543,1.451.694,1.973-1.113-.326-1.563-1.512-2.2-2.4" transform="translate(-220.05 -120.651)" fill="#0c3664"/>
          <path id="Trazado_913501" data-name="Trazado 913501" d="M245.755,197.14a3.1,3.1,0,0,1,.226-1.157c.3-.491,2.81-1.744,3.438-2.221a29.71,29.71,0,0,0,6.309-6.708c2.468-3.562,4.713-8.3,3.913-12.745,1.241.993,2.619,1.855,3.907,2.792,4.368,3.18,8.335,6.878,10.41,11.988a1.405,1.405,0,0,1-.426-.316c-.474-.561-.812-1.311-1.239-1.92a31.128,31.128,0,0,0-2.559-3.08,44.5,44.5,0,0,0-9.122-7.063,22.361,22.361,0,0,1-7.474,15.692,21.858,21.858,0,0,1-5.3,3.816c-.684.333-1.405.582-2.086.92" transform="translate(-183.849 -130.4)" fill="#f39c75"/>
          <path id="Trazado_913502" data-name="Trazado 913502" d="M300.088,164.074c1.222.464,2.489.89,3.686,1.412l-.082-.176.057-.14a2.279,2.279,0,0,0,.561.133,1.443,1.443,0,0,0,.212-.046,24.752,24.752,0,0,1,9.35,5.443c1.1.994,2.107,2.1,3.257,3.043l.049-.086c-.011-.039-.025-.078-.034-.118a.846.846,0,0,1,.05-.472,19.442,19.442,0,0,1,.992,9.3c-2.336-5.509-6.967-10.077-11.982-13.241-1.7-1.075-3.568-1.875-5.258-2.969l-.164-.107c-.151-.522-.77-1.5-.694-1.973" transform="translate(-224.49 -122.744)" fill="#264877"/>
          <path id="Trazado_913503" data-name="Trazado 913503" d="M314.5,168.739l-.082-.176.057-.14a2.278,2.278,0,0,0,.561.133,1.44,1.44,0,0,0,.212-.046,24.752,24.752,0,0,1,9.35,5.443c1.1.994,2.107,2.1,3.257,3.043l.049-.086c-.011-.039-.025-.078-.034-.118a.846.846,0,0,1,.05-.472,18.339,18.339,0,0,1,.863,3.193c-.195.07-.193.111-.4.005-.187-.1-2.725-3.424-3.29-4-3.022-3.055-6.732-5.015-10.592-6.783" transform="translate(-235.213 -125.996)" fill="#0c3664"/>
          <path id="Trazado_913504" data-name="Trazado 913504" d="M157.383,182.128c.495.173.986.356,1.495.485,6.632,1.68,13.252-.447,18.941-3.858,5.28-3.165,11.317-7.994,13.073-14.13.284-.993.1-2.117.35-3.131l.126.035.192.547c1.013,2.045,1.478,3.22.725,5.468-2.323,6.932-10.664,13.088-17.054,16.217-4.054,1.985-8.581,3.416-13.018,1.852-1.6-.565-3.179-1.929-4.479-2.328-.286.158-.183.047-.322.321l-.061-.236a13.985,13.985,0,0,1,0-2.9c.04.55.028,1.109.036,1.661" transform="translate(-117.655 -120.814)" fill="#264877"/>
        </g>
      </g>
      <g id="Grupo_1103152" data-name="Grupo 1103152" transform="translate(39.692 36.804)">
        <g id="Grupo_1103151" data-name="Grupo 1103151" clip-path="url(#clip-path-2)">
          <rect id="Rectángulo_404257" data-name="Rectángulo 404257" width="58.577" height="41.373" transform="translate(-7.646 2.409) rotate(-17.488)" fill="url(#linear-gradient)"/>
        </g>
      </g>
      <g id="Grupo_1103154" data-name="Grupo 1103154">
        <g id="Grupo_1103153" data-name="Grupo 1103153" clip-path="url(#clip-path)">
          <path id="Trazado_913506" data-name="Trazado 913506" d="M159.518,175.2a2.536,2.536,0,0,1-.257-.079l.274-1.35c9.147-.237,25.663-8.015,31.9-14.567-.445,2.435-5.218,6.206-7.166,7.556-6.066,4.2-13.883,7.779-21.293,8.4a13.057,13.057,0,0,1-3.455.043" transform="translate(-119.143 -119.1)" fill="#031d43"/>
          <path id="Trazado_913507" data-name="Trazado 913507" d="M179.188,154.6a1.329,1.329,0,0,0,.312.188c1.037.279,15.714-2.927,18-3.263a19.335,19.335,0,0,1,4.056-.146c-2.359.819-4.624,1.879-6.976,2.715-5.02,1.784-10.136,3.26-15.276,4.652-1.489.4-3.492,1.19-5.011,1.115a17.03,17.03,0,0,0,2-2.337,19.1,19.1,0,0,1,2.891-2.923" transform="translate(-130.391 -113.21)" fill="#264877"/>
          <path id="Trazado_913508" data-name="Trazado 913508" d="M161.7,166.887c1.378.113,3.855-.885,5.256-1.305a126.22,126.22,0,0,0,14.255-4.786c2.06-.9,3.988-2.031,6-3.029a43.093,43.093,0,0,0,5.272-2.667l.077.147c-.1.3-.2.592-.319.886-6.234,6.552-22.75,14.331-31.9,14.567a22.232,22.232,0,0,1,1.356-3.814" transform="translate(-119.955 -116.031)" fill="#264877"/>
          <path id="Trazado_913509" data-name="Trazado 913509" d="M157.59,173.768a48.384,48.384,0,0,0,5.311.514c6.23.037,12.042-2.776,17.253-5.943,4.421-2.687,9.018-5.82,10.476-11.074.291-1.049.184-2.137.439-3.185l.185.025c1.028,2.324,4.507,2.826,6.658,3.675a1.441,1.441,0,0,1-.212.046,2.279,2.279,0,0,1-.561-.133l-.057.14.082.176c-1.2-.521-2.464-.948-3.686-1.412a4.96,4.96,0,0,0-1.41-.7l-.092.278-.189.359-.192-.547-.126-.035c-.253,1.014-.066,2.138-.35,3.131-1.757,6.136-7.793,10.964-13.073,14.13-5.689,3.411-12.309,5.538-18.941,3.858-.509-.129-1-.312-1.495-.485-.008-.551,0-1.111-.036-1.661Z" transform="translate(-117.879 -115.267)" fill="#031d43"/>
          <path id="Trazado_913510" data-name="Trazado 913510" d="M229.116,183.844a44.494,44.494,0,0,1,9.122,7.063,31.128,31.128,0,0,1,2.559,3.079c.427.608.765,1.359,1.239,1.92a1.406,1.406,0,0,0,.426.316,10.441,10.441,0,0,1,1.235,3.823,10.763,10.763,0,0,1,.126,1.637l.337.186c.625,1.616.017,5.343.053,7.247-.041.591-.1,1.185-.122,1.777-.1,1.274-.222,2.523-.428,3.785a31.314,31.314,0,0,1-1.583,5.814c-1.339,3.269-3.2,6.82-6.654,8.24a10.537,10.537,0,0,1-7.445-.116c.16,1.308.318,2.613.534,3.914-3.33-.382-8.944-4.176-11.674-6.332a43.567,43.567,0,0,0-4.372-3.423c0-1.595-.035-3.164-.172-4.754l-.425-1.313a6.092,6.092,0,0,1-5.054-.555c-1.942-1.2-2.7-3.123-3.151-5.242-.008-.2-.015-.406-.011-.609a5.705,5.705,0,0,1,1.736-4.007,4.988,4.988,0,0,1,3.684-1.267c1.865.134,3.071,1.221,4.239,2.55a20.335,20.335,0,0,0,.946-3.3c.681-.338,1.4-.587,2.086-.92a21.859,21.859,0,0,0,5.3-3.816,22.361,22.361,0,0,0,7.474-15.692" transform="translate(-152.354 -137.533)" fill="#f3c69e"/>
          <path id="Trazado_913511" data-name="Trazado 913511" d="M275.584,303.262a2.992,2.992,0,0,0,.417,1.823l-.17.089a1.219,1.219,0,0,1,.306.112c2.085.5,2.484.18,4.385-.514a3.179,3.179,0,0,1-1.047,1.179,2.942,2.942,0,0,1-2.205.375,2.348,2.348,0,0,1-1.554-1.089,2.667,2.667,0,0,1-.131-1.975" transform="translate(-206.07 -226.87)" fill="#f39c75"/>
          <path id="Trazado_913512" data-name="Trazado 913512" d="M214.3,279.866a4.085,4.085,0,0,1,1.782.2,2.747,2.747,0,0,1,1.625,1.527,2.45,2.45,0,0,1,.085,1.908,1.661,1.661,0,0,1-1.076.89.855.855,0,0,1-.763-.1c.1-.368.608-.636.9-.892a1.226,1.226,0,0,0,.436-1.052,3.375,3.375,0,0,0-1.354-1.72,1.907,1.907,0,0,0-1.61-.1c-1.259.45-1.829,1.667-2.379,2.777a6.555,6.555,0,0,1,.368-1.775,3.107,3.107,0,0,1,1.982-1.653" transform="translate(-158.558 -209.356)" fill="#e14841"/>
          <path id="Trazado_913513" data-name="Trazado 913513" d="M295.624,271.881a.236.236,0,0,1,.154-.071c.133-.008.267-.015.4-.012a1.741,1.741,0,0,1,1.279.649,2.08,2.08,0,0,1,.47,1.573,2.03,2.03,0,0,1-.9,1.52.239.239,0,0,1-.1.049l-.013,0a1.737,1.737,0,0,1-2.035-1.33,2.708,2.708,0,0,1-.044-.5,2.492,2.492,0,0,1,.791-1.876" transform="translate(-220.564 -203.331)" fill="#031d43"/>
          <path id="Trazado_913514" data-name="Trazado 913514" d="M345.31,248.074a13.2,13.2,0,0,0-1.946-.354c-1.175-.093-2.783.221-3.84-.3-.154-.215-.255-.317-.191-.6a1.191,1.191,0,0,1,.612-.723c1.11-.533,4.057-.069,5.239.341a10.763,10.763,0,0,1,.126,1.637" transform="translate(-253.84 -183.924)" fill="#031d43"/>
          <path id="Trazado_913515" data-name="Trazado 913515" d="M343.1,266.789c.075,0,.149,0,.224,0a1.813,1.813,0,0,1,1.369.666,2.036,2.036,0,0,1,.485,1.557,2.255,2.255,0,0,1-1.039,1.689,2.355,2.355,0,0,1-.584.068,1.6,1.6,0,0,1-1.037-.6,2.456,2.456,0,0,1-.4-1.9,2.036,2.036,0,0,1,.981-1.472" transform="translate(-255.905 -199.584)" fill="#031d43"/>
          <path id="Trazado_913516" data-name="Trazado 913516" d="M325.093,270.01c.778.482.294,3.359.932,4.338.93,1.426,3.1,2.085,3.478,3.855a1.211,1.211,0,0,1-.226,1.053c-.623.866-2.2,1.173-3.2,1.316a.819.819,0,0,1-.342-.412c.179-.3.368-.273.684-.364.82-.237,1.846-.446,2.286-1.241.221-1.327-2.734-2.543-3.52-4.367a6.04,6.04,0,0,1-.1-4.178" transform="translate(-242.956 -201.994)" fill="#cc7014"/>
          <path id="Trazado_913517" data-name="Trazado 913517" d="M351.2,291.746a3.02,3.02,0,0,1,.94-.042c.5-.008.563-.134.875-.483-.1,1.274-.222,2.523-.428,3.785-.318.028-.636.055-.955.067a2.6,2.6,0,0,1-2.159-.818,2.461,2.461,0,0,1-.2-.667,1.411,1.411,0,0,1,.3-1.084,2.478,2.478,0,0,1,1.633-.757" transform="translate(-261.281 -217.861)" fill="#f39c75"/>
          <path id="Trazado_913518" data-name="Trazado 913518" d="M351.847,291.746a3.02,3.02,0,0,1,.94-.042c.5-.008.563-.134.875-.483-.1,1.274-.222,2.523-.428,3.785-.318.028-.636.055-.955.067a2.6,2.6,0,0,1-2.159-.818,4.606,4.606,0,0,0,1.714.076,1.745,1.745,0,0,0,1.053-.862,1.3,1.3,0,0,0-.159-1.218c-.238-.4-.454-.379-.88-.5" transform="translate(-261.923 -217.861)" fill="#fdb789"/>
          <path id="Trazado_913519" data-name="Trazado 913519" d="M285.255,249.067l.489.142a1.119,1.119,0,0,1,.418.683,1.267,1.267,0,0,1-.736.777,15.943,15.943,0,0,1-2.881.752A16.654,16.654,0,0,0,279.4,252.7a1.153,1.153,0,0,1-.771-.6.677.677,0,0,1,.032-.73c.82-1.257,5.172-2.142,6.593-2.3" transform="translate(-208.374 -186.327)" fill="#031d43"/>
          <path id="Trazado_913520" data-name="Trazado 913520" d="M315.732,318.985l.089-.152.254-.15c.208.247.3.29.277.629a6.838,6.838,0,0,1-2.147,4,4.885,4.885,0,0,1-3.723,1.177,6.123,6.123,0,0,1-4.083-2.328,5.412,5.412,0,0,1-1.2-2.289.693.693,0,0,1,.406-.272,7.761,7.761,0,0,0,4.113,3.667,4.39,4.39,0,0,0,3.471-.324c1.54-.865,2.1-2.355,2.541-3.955" transform="translate(-228.319 -238.406)" fill="#e7764d"/>
          <path id="Trazado_913521" data-name="Trazado 913521" d="M275.958,297.873a2.491,2.491,0,0,1,1.328-1.591,2.92,2.92,0,0,1,2.279.015,2.377,2.377,0,0,1,1.347,1.432,2.437,2.437,0,0,1-.017,1.653c-1.9.694-2.3,1.016-4.385.514a1.217,1.217,0,0,0-.306-.112l.17-.089a2.992,2.992,0,0,1-.417-1.823" transform="translate(-206.444 -221.481)" fill="#d38e77"/>
          <path id="Trazado_913522" data-name="Trazado 913522" d="M306.817,320.492a55.653,55.653,0,0,0,10.125-.612c-.446,1.6-1,3.091-2.541,3.955a4.391,4.391,0,0,1-3.471.324,7.761,7.761,0,0,1-4.113-3.667" transform="translate(-229.529 -239.302)" fill="#fefefe"/>
          <path id="Trazado_913523" data-name="Trazado 913523" d="M237.963,319.517c4.36,4.635,9.5,8.731,15.684,10.6.16,1.308.318,2.613.534,3.914-3.33-.382-8.944-4.176-11.674-6.332a43.566,43.566,0,0,0-4.372-3.423c0-1.595-.035-3.164-.172-4.754" transform="translate(-178.02 -239.03)" fill="#d38e77"/>
          <path id="Trazado_913524" data-name="Trazado 913524" d="M217.383,550.469c2.1,1.188,4.2,2.387,6.179,3.765,1.206.838,2.314,1.842,3.55,2.629,1.536,1.47,2.641,2.848,2.71,5.1a7.513,7.513,0,0,1-1.211,4.229c3.175.061,6.373.13,9.543.306l.23.492c.019.641.079,1.266.153,1.9a2.906,2.906,0,0,0-.141,1.976c.02.068.047.134.071.2l.8.235a13.625,13.625,0,0,1-.786,2.543l-.507.122c-.565.45-.713,1.877-.8,2.582l-.029.256c-1.007,3.429-2.778,10.208-2.229,13.718a13.586,13.586,0,0,0,4.6,9.177,13.222,13.222,0,0,0,6.6,3.095,5.685,5.685,0,0,1,1.828.416,197.515,197.515,0,0,1-27.546,4.035c-3.411.305-6.83.669-10.252.807l.863,4.309c-4.927-.141-9.863.035-14.792.04l-27.933-.018-11.842-.018c-1.774-.008-3.665.131-5.424-.054a17.694,17.694,0,0,1-3.868.108c1.3-3.248,2.859-6.431,4.312-9.614.122-.291.225-.593.337-.888a13.308,13.308,0,0,0,2.776.833c4.538.752,7.549-1.459,10.8-4.272l4.947-4.319a33.17,33.17,0,0,1,2.685-2.286l.088-.06c.417-.41.869-.793,1.3-1.185.635-.593,1.291-1.162,1.943-1.735,3.245-3.328,7.281-5.935,10.457-9.381a1.957,1.957,0,0,0,.442.326,3.151,3.151,0,0,0,1.421-.79c.023-.014.047-.026.069-.041,1.488-1,4.7-3.16,5.025-4.987.185-1.03-.562-1.5-1.074-2.258l-.141-.213c1.886-1.212,3.588-2.716,5.4-4.031,1.654-1.2,3.492-2.223,5.235-3.292a8.333,8.333,0,0,1,2.606-1.452c1.677-.459,3.623-2.755,4.64-4.06,1.52-2.291,3.708-4.165,5.406-6.332a19.546,19.546,0,0,0,1.551-1.91" transform="translate(-110.083 -411.805)" fill="#e14841"/>
          <path id="Trazado_913525" data-name="Trazado 913525" d="M292.862,697.793c3.577-.117,7.142-.233,10.7-.647,3.028-.353,6.022-.947,9.049-1.3.1.369.207.737.3,1.109l.294,1.318c-3.444,1.855-17.092,2.565-21.174,2.637-.657-.021-1.321,0-1.979,0l1.058-1.322.055-.065c.484-.581,1.033-1.123,1.553-1.673Z" transform="translate(-216.989 -520.564)" fill="#e14841"/>
          <path id="Trazado_913526" data-name="Trazado 913526" d="M312.913,700.252l.294,1.318c-3.444,1.855-17.092,2.565-21.174,2.637-.657-.021-1.321,0-1.979,0l1.058-1.322.055-.065a74.843,74.843,0,0,0,21.745-2.564" transform="translate(-216.989 -523.857)" fill="#fefefe"/>
          <path id="Trazado_913527" data-name="Trazado 913527" d="M176.34,703c3.126.291,6.333.091,9.475.2-.52.55-1.069,1.093-1.553,1.673l-.055.065-1.058,1.322c.657,0,1.322-.018,1.979,0a4.511,4.511,0,0,1-2.068,0c-2,1.823-3.888,3.762-5.934,5.544A73.943,73.943,0,0,1,160.5,722.678c-1.391.667-2.814,1.3-4.26,1.835-1.422.528-4.1,1.054-5.223,1.9a17.7,17.7,0,0,1-3.868.108c1.3-3.248,2.859-6.431,4.312-9.614.122-.291.225-.593.337-.888a13.3,13.3,0,0,0,2.776.833c4.538.752,7.549-1.459,10.8-4.272l4.947-4.319a33.171,33.171,0,0,1,2.685-2.286l.088-.06c.417-.41.869-.793,1.3-1.185.635-.593,1.291-1.162,1.943-1.735" transform="translate(-110.083 -525.911)" fill="#b12725"/>
          <path id="Trazado_913528" data-name="Trazado 913528" d="M251.441,709.885q3.108.115,6.212.134a29.488,29.488,0,0,1,3.6.069l-1.058,1.323c.657,0,1.322-.018,1.979,0a4.512,4.512,0,0,1-2.068,0c-3.316-.239-6.649.009-9.965-.347.417-.41.869-.793,1.3-1.185" transform="translate(-187.128 -531.064)" fill="#c28e99"/>
          <path id="Trazado_913529" data-name="Trazado 913529" d="M257.255,703c3.126.291,6.333.091,9.475.2-.52.55-1.069,1.093-1.553,1.673l-.055.065a29.524,29.524,0,0,0-3.6-.069q-3.109-.02-6.212-.134c.635-.593,1.291-1.162,1.943-1.735" transform="translate(-190.998 -525.911)" fill="#b12725"/>
          <path id="Trazado_913530" data-name="Trazado 913530" d="M289.865,600.76a8.332,8.332,0,0,1,2.606-1.452,41.825,41.825,0,0,0-.407,8.355c-.364,1.429-.276,11.947-.129,13.864a9.6,9.6,0,0,0,.456,2.1c-3.027.348-6.02.943-9.049,1.3-3.558.414-7.123.531-10.7.647l-.142.057c-3.142-.108-6.348.092-9.475-.2,3.245-3.328,7.281-5.935,10.457-9.381a1.956,1.956,0,0,0,.442.326,3.151,3.151,0,0,0,1.421-.79c.023-.014.047-.026.069-.041,1.488-1,4.7-3.16,5.025-4.987.185-1.03-.562-1.5-1.074-2.258l-.141-.213c1.886-1.212,3.588-2.716,5.4-4.031,1.654-1.2,3.492-2.223,5.235-3.292" transform="translate(-196.77 -448.341)" fill="#fab439"/>
          <path id="Trazado_913531" data-name="Trazado 913531" d="M289.865,605.074c-.291,1.457-1.586,2.885-2.3,4.183-1.1,1.992-2.083,4.023-3.244,5.985a73.8,73.8,0,0,1-11.678,14.641l-.142.057c-3.142-.108-6.348.092-9.475-.2,3.245-3.328,7.281-5.935,10.457-9.381a1.956,1.956,0,0,0,.442.326,3.151,3.151,0,0,0,1.421-.79c.023-.014.047-.026.069-.041,1.488-1,4.7-3.16,5.025-4.987.185-1.03-.562-1.5-1.074-2.258l-.141-.213c1.886-1.212,3.588-2.716,5.4-4.031,1.654-1.2,3.492-2.223,5.235-3.292" transform="translate(-196.77 -452.655)" fill="#cc7014"/>
          <path id="Trazado_913532" data-name="Trazado 913532" d="M389.545,550.469c2.1,1.188,4.2,2.387,6.179,3.765,1.206.838,2.314,1.842,3.55,2.629,1.536,1.47,2.641,2.848,2.71,5.1a7.512,7.512,0,0,1-1.211,4.229c3.175.061,6.373.13,9.543.306l.23.492c.019.641.079,1.266.153,1.9a2.906,2.906,0,0,0-.141,1.976c.02.068.047.134.071.2l.8.235a13.623,13.623,0,0,1-.786,2.543l-.507.122c-.565.45-.713,1.877-.8,2.582l-.029.256c-1.007,3.429-2.778,10.208-2.229,13.718a13.586,13.586,0,0,0,4.6,9.177,13.222,13.222,0,0,0,6.6,3.095,5.685,5.685,0,0,1,1.828.416,197.515,197.515,0,0,1-27.546,4.035c-3.411.305-6.83.669-10.252.807-.819-4.2-1.9-8.336-2.678-12.55-.457-1.965-.856-3.991-1.168-5.983l-.294-1.318c-.094-.372-.2-.74-.3-1.109a9.592,9.592,0,0,1-.456-2.1c-.147-1.917-.235-12.435.129-13.864a41.829,41.829,0,0,1,.407-8.355c1.677-.459,3.623-2.755,4.64-4.06,1.52-2.291,3.708-4.165,5.406-6.332a19.548,19.548,0,0,0,1.551-1.91" transform="translate(-282.246 -411.805)" fill="#6fbfaf"/>
          <path id="Trazado_913533" data-name="Trazado 913533" d="M508.2,632.231l.8.235a13.624,13.624,0,0,1-.786,2.543l-.507.122a11.532,11.532,0,0,0,.492-2.9" transform="translate(-379.815 -472.971)" fill="#378f82"/>
          <path id="Trazado_913534" data-name="Trazado 913534" d="M389.545,550.469c2.1,1.188,4.2,2.387,6.179,3.765,1.206.838,2.314,1.842,3.55,2.629,1.536,1.47,2.641,2.848,2.71,5.1a7.512,7.512,0,0,1-1.211,4.229,4.179,4.179,0,0,1-2.907,1.827c-.128.01-.258.01-.386.012a1.091,1.091,0,0,0-.466.649c-1.627,5.5-7.206,18.864-10.823,23.283a9.315,9.315,0,0,1-2.747,2.275,13.03,13.03,0,0,1-3.813,1.267c-.457-1.965-.856-3.991-1.168-5.983l-.294-1.318c-.094-.372-.2-.74-.3-1.109a9.592,9.592,0,0,1-.456-2.1c-.147-1.917-.235-12.435.129-13.864a41.829,41.829,0,0,1,.407-8.355c1.677-.459,3.623-2.755,4.64-4.06,1.52-2.291,3.708-4.165,5.406-6.332a19.548,19.548,0,0,0,1.551-1.91" transform="translate(-282.246 -411.805)" fill="#cc7014"/>
          <path id="Trazado_913535" data-name="Trazado 913535" d="M424.156,601.9c-1.04-.5-9.944-5.943-10.382-6.389-.2-.2-.213-.208-.208-.5l.252-.133c.855-.067,9.339,5.5,10.8,6.369a1.091,1.091,0,0,0-.466.65" transform="translate(-309.388 -445.032)" fill="#864c11"/>
          <path id="Trazado_913536" data-name="Trazado 913536" d="M378.558,587.25c1.677-.459,3.623-2.755,4.64-4.06l1.044,1.055-4.085,7.606a41.213,41.213,0,0,1-2.006,3.755,41.829,41.829,0,0,1,.407-8.355" transform="translate(-282.857 -436.284)" fill="#82c4c9"/>
          <path id="Trazado_913537" data-name="Trazado 913537" d="M537.206,346.272a20.193,20.193,0,0,0,2.218-.434,25.37,25.37,0,0,0,14.005-9.945c.644-.93,1-2.026,1.585-2.99l.108-.177a19.876,19.876,0,0,1,.124,2.025c-.106,4.045,1.785,13.493,3.888,16.859l-.014.617A23.9,23.9,0,0,1,564.629,354c4.666,1.163,22.882,6.686,25.081,10.378a29.855,29.855,0,0,1,2.31,6.381c1.558,5.077,2.873,10.208,4.365,15.3.616,1.711.979,3.6,1.43,5.367,1.427,5.585,2.579,11.239,3.607,16.91.831,4.583,1.772,9.431,1.681,14.107A11.578,11.578,0,0,1,602,427.425c-1.878,3.955-5.783,6.638-9.83,8.035a19.744,19.744,0,0,1-9.226.728c.012,1.709,0,3.422.039,5.131a172.767,172.767,0,0,1-20.891-3.57,217.124,217.124,0,0,1-21.677-5.546c-7.748,3.656-15.617,7.31-23.621,10.368.018-1.363-.009-2.73-.016-4.093l-.2.059c-.763.229-1.478.6-2.243.84a25.115,25.115,0,0,1-6.041.937,5.685,5.685,0,0,0-1.828-.416,13.222,13.222,0,0,1-6.6-3.095,13.586,13.586,0,0,1-4.6-9.177c-.548-3.51,1.222-10.29,2.229-13.718a2.92,2.92,0,0,0,2.179.437,28.447,28.447,0,0,1,14.482.869c1.75.237,12.356-3.02,14.837-3.748l.508-.212a8.34,8.34,0,0,0,2.668-.773c-1.215-1.846-8.939-12.433-10.6-13.249a1.428,1.428,0,0,0-1.2.007c-.481.315-.937.558-1.078,1.156-.016.071-.03.143-.045.214a60.357,60.357,0,0,0-.709-6.029c-.418-4.026-2.2-25.944-3.408-28.078l.584-.626c4.762-4.894,10.086-6.951,16.414-8.867,1.119-1.313,2.732-1.381,4.333-1.565a66.187,66.187,0,0,0,.748-7.173" transform="translate(-370.429 -248.913)" fill="#ee4f47"/>
          <path id="Trazado_913538" data-name="Trazado 913538" d="M687.661,464.734l.286-.123c.982,1.84,1.924,4.274,3.843,5.346a1.739,1.739,0,0,1-.166.082,1.179,1.179,0,0,1-1.017-.207c-1.543-.993-2.619-3.358-2.945-5.1" transform="translate(-514.438 -347.575)" fill="#258182"/>
          <path id="Trazado_913539" data-name="Trazado 913539" d="M642.645,465.949a11.723,11.723,0,0,0,1,2.167,1.714,1.714,0,0,0,1.16.861c1.151.1,3.616-2.674,4.525-3.5-.1,1.19-3.43,4.18-4.5,5.1-.253.217-.515.422-.784.621-.59-1.4-1.739-3.7-1.4-5.251" transform="translate(-480.716 -348.226)" fill="#258182"/>
          <path id="Trazado_913540" data-name="Trazado 913540" d="M776.063,603.052l.064-.171c2.119-.194,4.667.449,6.761.834a106.551,106.551,0,0,1,2.942,10.608c4.871.221,10.3.124,13.848,4.015a3.609,3.609,0,0,1,.826,1.229l-.083.254-.062.013.029-.118-.092.078c-1.93-2.825-3.672-3.821-6.99-4.447-4.78-.9-9.935-.679-14.785-.642a11.328,11.328,0,0,0-4.143.649l-.267-.369a13.828,13.828,0,0,1,1.317-.715,10.174,10.174,0,0,0,1.956-.016c1.261-.1,2.548-.078,3.813-.109l4.232.083c-.674-3.384-2.1-6.617-2.744-10.03a26.806,26.806,0,0,0-4.94-.9,11.559,11.559,0,0,0-1.682-.243" transform="translate(-579.111 -450.988)" fill="#031d43"/>
          <path id="Trazado_913541" data-name="Trazado 913541" d="M788.54,604.628a26.806,26.806,0,0,1,4.94.9c.64,3.413,2.07,6.645,2.744,10.03l-4.232-.083a6.077,6.077,0,0,1,2.069-.017c-.62-3.017-1.3-6.681-3.428-9.028a19.754,19.754,0,0,0-2.093-1.807" transform="translate(-589.906 -452.321)" fill="#cc7014"/>
          <path id="Trazado_913542" data-name="Trazado 913542" d="M780.5,537.928c.389-3.24,2.266-20.172,3.4-22.1.115,1.582-.21,3.2-.107,4.827a70.264,70.264,0,0,0,2.723,14.052c.359,1.3.678,2.651,1.152,3.911-2.094-.385-4.642-1.028-6.761-.834l-.064.171Z" transform="translate(-583.893 -385.889)" fill="#073d3f"/>
          <path id="Trazado_913543" data-name="Trazado 913543" d="M644.5,414.973c-.565,4.828.647,7.947,3.394,11.9a7.62,7.62,0,0,0-.807.825c-.909.822-3.374,3.592-4.525,3.5a1.713,1.713,0,0,1-1.16-.862,11.714,11.714,0,0,1-1-2.167c-1.178-4.059-.923-7.517-.232-11.626,1.119-1.313,2.732-1.381,4.332-1.565" transform="translate(-478.47 -310.441)" fill="#82c4c9"/>
          <path id="Trazado_913544" data-name="Trazado 913544" d="M703.979,410.14a23.89,23.89,0,0,1,5.507,1.771c-1.553,5.607-8.19,13.621-13.245,16.454a5.227,5.227,0,0,1-3.423.873l-.181-.031c-1.918-1.072-2.86-3.506-3.843-5.346a29.149,29.149,0,0,0,12-8.919,47.194,47.194,0,0,0,3.179-4.8" transform="translate(-515.286 -306.825)" fill="#82c4c9"/>
          <path id="Trazado_913545" data-name="Trazado 913545" d="M593.181,644.684l.508-.212c.54,6.415,1.65,12.925,4.447,18.77,1-.46,3.43-1.248,3.98-2.119a5.077,5.077,0,0,0-.12-.585c6.248-3.087,12.57-6.044,18.726-9.314,3.016-1.6,5.832-3.586,8.9-5.1l.267.369a79.606,79.606,0,0,0-13.9,10.04c-1.029.912-2.128,1.8-3.079,2.793-.1,1.182-.244,2.373-.276,3.559,8.266,2.868,17.573,4.375,26.241,5.613q2.5.358,5.021.581a22.561,22.561,0,0,1,3.241.324c.012,1.709,0,3.422.039,5.131a172.776,172.776,0,0,1-20.89-3.57A217.129,217.129,0,0,1,604.6,665.42c-7.748,3.656-15.617,7.31-23.621,10.369.018-1.363-.009-2.73-.016-4.093a48.9,48.9,0,0,1,5.4-2.674c3.8-1.849,7.56-3.768,11.38-5.565-.323-.586-.617-1.2-.923-1.791-2.41-5.122-2.868-11.451-3.646-16.981" transform="translate(-434.619 -482.129)" fill="#073d3f"/>
          <path id="Trazado_913546" data-name="Trazado 913546" d="M659.447,346.272a20.188,20.188,0,0,0,2.218-.434,25.37,25.37,0,0,0,14.005-9.945c.644-.93,1-2.026,1.585-2.99l.108-.177a19.876,19.876,0,0,1,.124,2.025c-.106,4.045,1.785,13.493,3.888,16.859l-.014.617a47.212,47.212,0,0,1-3.179,4.8,29.149,29.149,0,0,1-12,8.919l-.286.123a8.638,8.638,0,0,1-2.945.022c-.292-.239-.572-.5-.855-.751-2.747-3.951-3.959-7.07-3.394-11.9a66.172,66.172,0,0,0,.748-7.173" transform="translate(-492.67 -248.913)" fill="#e7764d"/>
          <path id="Trazado_913547" data-name="Trazado 913547" d="M686.255,603.524l.342.026a11.56,11.56,0,0,1,1.682.243,19.768,19.768,0,0,1,2.093,1.807c2.132,2.346,2.808,6.01,3.428,9.028a6.077,6.077,0,0,0-2.069.017c-1.265.031-2.552.014-3.813.109a10.173,10.173,0,0,1-1.956.016,13.827,13.827,0,0,0-1.317.715c-3.065,1.511-5.881,3.495-8.9,5.1-6.156,3.27-12.478,6.228-18.726,9.314-.41-1.719-.7-3.484-1.031-5.22a69.6,69.6,0,0,1-1.427-9.926,16.662,16.662,0,0,1-.017-2.175,123.622,123.622,0,0,1,12.523-4.1l9.175-2.762c2.085-.623,4.178-1.308,6.3-1.78a13.685,13.685,0,0,1,3.707-.411" transform="translate(-489.646 -451.485)" fill="#f39c75"/>
          <path id="Trazado_913548" data-name="Trazado 913548" d="M658.269,659.59c3.536-1.389,6.988-3.1,10.423-4.723,3.472-1.641,14.314-7.423,17.4-6.8a13.826,13.826,0,0,0-1.317.715c-3.065,1.511-5.881,3.495-8.9,5.1-6.156,3.27-12.478,6.228-18.726,9.314-.41-1.719-.7-3.484-1.031-5.22a69.6,69.6,0,0,1-1.427-9.926c1.268,3.328,1.679,8.565,3.573,11.547" transform="translate(-489.777 -484.78)" fill="#e7764d"/>
          <path id="Trazado_913549" data-name="Trazado 913549" d="M514.153,649.063c1.75.237,12.356-3.02,14.837-3.748.778,5.53,1.236,11.859,3.646,16.981.306.6.6,1.205.923,1.791-3.82,1.8-7.584,3.717-11.38,5.566a48.925,48.925,0,0,0-5.4,2.674l-.2.059c-.763.229-1.478.6-2.243.84a25.112,25.112,0,0,1-6.041.937,5.685,5.685,0,0,0-1.828-.416,13.223,13.223,0,0,1-6.6-3.095,13.586,13.586,0,0,1-4.6-9.177c-.548-3.51,1.222-10.29,2.229-13.718a2.92,2.92,0,0,0,2.179.437,28.446,28.446,0,0,1,14.482.869" transform="translate(-370.429 -482.759)" fill="#ee4f47"/>
          <path id="Trazado_913550" data-name="Trazado 913550" d="M509.783,655.078a28.447,28.447,0,0,1,14.482.869c-5.08,1.36-10.437,2.165-15.588,3.422a42.48,42.48,0,0,1,1.107-4.29" transform="translate(-380.54 -489.643)" fill="#0b2832"/>
          <path id="Trazado_913551" data-name="Trazado 913551" d="M495.57,704.957l.032-1.286.082-.025-.017-.208c.738.8,1.311,1.7,2.1,2.485a19.882,19.882,0,0,0,13.562,5.873c6.255.237,12.418-1.7,18.1-4.149a12.809,12.809,0,0,0,3.3-1.649c.076-.071.149-.145.22-.22.306.6.6,1.205.923,1.791-3.82,1.8-7.584,3.717-11.38,5.565a48.911,48.911,0,0,0-5.4,2.674l-.2.059c-.763.229-1.478.6-2.243.84a25.115,25.115,0,0,1-6.041.937,5.685,5.685,0,0,0-1.828-.416,13.222,13.222,0,0,1-6.6-3.095,13.586,13.586,0,0,1-4.6-9.177" transform="translate(-370.735 -526.241)" fill="#0f5e8d"/>
          <path id="Trazado_913552" data-name="Trazado 913552" d="M176.774,284.167c.026.049.051.1.077.147a21.726,21.726,0,0,0,3.088,4.383c.775.824,1.684,1.518,2.488,2.313a7.307,7.307,0,0,1,2.313,7.122,9.43,9.43,0,0,1-2.975,4.226c2.312.38,4.588.971,6.864,1.52,1.395.337,2.851.6,4.211,1.054a13.519,13.519,0,0,0,6.172,8.1c-1.071,2.791-2.248,4.56-4.964,5.937a26.334,26.334,0,0,0,11.588-3.295A20.516,20.516,0,0,0,220.25,313.5c4.051,4.255,7.556,8.626,9.946,14.05l-.584.626c1.21,2.134,2.99,24.052,3.408,28.078a60.29,60.29,0,0,1,.709,6.029c.015-.071.028-.143.045-.214.14-.6.6-.841,1.078-1.156a1.428,1.428,0,0,1,1.2-.007c1.66.816,9.384,11.4,10.6,13.249a8.341,8.341,0,0,1-2.668.773l-.508.212c-2.481.728-13.087,3.985-14.837,3.748a28.446,28.446,0,0,0-14.482-.869,2.92,2.92,0,0,1-2.179-.437l.029-.256c.086-.7.234-2.132.8-2.582l.507-.122a13.627,13.627,0,0,0,.786-2.543l-.8-.235c-.024-.067-.051-.132-.071-.2a2.906,2.906,0,0,1,.141-1.976c-.074-.636-.134-1.261-.153-1.9l-.23-.492c-3.17-.176-6.368-.246-9.543-.306a7.513,7.513,0,0,0,1.211-4.229c-.07-2.247-1.174-3.625-2.71-5.095-1.235-.787-2.344-1.791-3.55-2.629-1.983-1.379-4.079-2.577-6.179-3.765a19.545,19.545,0,0,1-1.551,1.91c-1.7,2.167-3.886,4.041-5.406,6.332-1.018,1.305-2.963,3.6-4.64,4.06A8.335,8.335,0,0,0,178.009,365c-1.743,1.07-3.581,2.093-5.235,3.292-1.815,1.315-3.517,2.819-5.4,4.031l.141.213c.512.763,1.258,1.228,1.074,2.258-.328,1.827-3.537,3.984-5.025,4.987-.022.015-.046.027-.069.041a3.152,3.152,0,0,1-1.421.79,1.957,1.957,0,0,1-.442-.326c-3.177,3.445-7.213,6.053-10.457,9.381-.652.573-1.309,1.142-1.943,1.735-.435.392-.886.775-1.3,1.185l-.088.06a33.166,33.166,0,0,0-2.685,2.286l-4.947,4.319c-3.249,2.813-6.26,5.024-10.8,4.272a13.3,13.3,0,0,1-2.776-.833,13.143,13.143,0,0,1-3.3-2.281,9.128,9.128,0,0,1-2.162-3.18,51.786,51.786,0,0,1-2.261-8.845c-2.665-12.4-4.786-25.809-5.113-38.5-.456-7.719-.934-16.686,3.436-23.47,4.43-6.878,13.176-9.306,20.738-10.951a3.4,3.4,0,0,0,1.442-.865c3.513-3.418,5.546-12.039,5.621-16.774a43.566,43.566,0,0,1,4.372,3.423c2.731,2.156,8.344,5.95,11.674,6.332-.216-1.3-.374-2.605-.534-3.914a10.537,10.537,0,0,0,7.445.116c3.451-1.42,5.315-4.971,6.654-8.24a31.317,31.317,0,0,0,1.583-5.814c.206-1.263.33-2.511.428-3.785.025-.592.081-1.185.122-1.777" transform="translate(-84.914 -212.585)" fill="#fab439"/>
          <path id="Trazado_913553" data-name="Trazado 913553" d="M203.827,524.425c1.715,3.516,2.8,7.311,4.247,10.939a11.4,11.4,0,0,0-3.466.1c-.331-3.672-.33-7.38-.781-11.041" transform="translate(-152.483 -392.322)" fill="#cc7014"/>
          <path id="Trazado_913554" data-name="Trazado 913554" d="M361.36,454.343c3.284,5.225,4.934,11.353,7.482,16.934l-1.724,1.149c-1.088-4.183-2.505-8.333-3.884-12.431-.628-1.867-1.414-3.737-1.874-5.651" transform="translate(-270.333 -339.893)" fill="#b12725"/>
          <path id="Trazado_913555" data-name="Trazado 913555" d="M210.395,564.5a246.078,246.078,0,0,0,28.39-1.129c-.142.466-.317,1.971-.723,2.2a1.5,1.5,0,0,1-.583.146l.545.07a.819.819,0,0,1,.128.664,1.269,1.269,0,0,1-.4.639,243.068,243.068,0,0,1-25.9,1.1l-.051-.033-.559-1.386-4.138-.033-.033-.1-.145-2.029a11.4,11.4,0,0,1,3.466-.1" transform="translate(-154.803 -421.453)" fill="#e14841"/>
          <path id="Trazado_913556" data-name="Trazado 913556" d="M206.929,567.7a11.4,11.4,0,0,1,3.466-.1l.82,2.176c-1.381-.029-2.76-.054-4.141-.044Z" transform="translate(-154.803 -424.558)" fill="#b12725"/>
          <path id="Trazado_913557" data-name="Trazado 913557" d="M224.062,573.738c8.779.022,17.482-.378,26.234-1.05l.545.07a.819.819,0,0,1,.128.664,1.27,1.27,0,0,1-.4.639,243.068,243.068,0,0,1-25.9,1.1l-.051-.032Z" transform="translate(-167.62 -428.427)" fill="#fefefe"/>
          <path id="Trazado_913558" data-name="Trazado 913558" d="M191.008,576.726l4.138.033.559,1.386.051.032q1.595,4.576,3.282,9.117a26.036,26.036,0,0,0,1.64,4.143c-1.995,1.24-13.692,8.324-15.269,8.52l.019-.161a23.216,23.216,0,0,1,6.727-4.358c-.22-1.935-.251-3.927-.375-5.874l-.724-11.415c-.04-.469-.033-.952-.048-1.423" transform="translate(-138.704 -431.448)" fill="#b12725"/>
          <path id="Trazado_913559" data-name="Trazado 913559" d="M207.636,576.726l4.138.033.559,1.386-4.649,0c-.04-.469-.033-.952-.048-1.423" transform="translate(-155.332 -431.448)" fill="#c28e99"/>
          <path id="Trazado_913560" data-name="Trazado 913560" d="M278.888,601.6a11.666,11.666,0,0,1,1.067,1.165c1.13,1.319,5.46,6.022,5.926,7.034l.141.213c.512.763,1.258,1.228,1.074,2.258-.328,1.827-3.537,3.984-5.025,4.987-.022.015-.046.027-.069.041a3.152,3.152,0,0,1-1.421.79,1.957,1.957,0,0,1-.442-.326c-2.786-3.8-5.855-7.4-8.059-11.593a1.981,1.981,0,0,1-.152-.453.86.86,0,0,1,.224-.712,1.046,1.046,0,0,1,.758-.014c1.543-.44,4.462-2.475,5.979-3.389" transform="translate(-203.423 -450.056)" fill="#fab439"/>
          <path id="Trazado_913561" data-name="Trazado 913561" d="M272.079,616.043a1.98,1.98,0,0,1-.152-.453.86.86,0,0,1,.224-.712,1.047,1.047,0,0,1,.758-.014c.485,2.659,6.91,10.13,9.092,12.308a3.153,3.153,0,0,1-1.421.79,1.957,1.957,0,0,1-.442-.326c-2.786-3.8-5.855-7.4-8.059-11.593" transform="translate(-203.423 -459.93)" fill="#b12725"/>
          <path id="Trazado_913562" data-name="Trazado 913562" d="M252.383,578.137a14.5,14.5,0,0,1-.924,2.958,67.03,67.03,0,0,0-5.495,4.117,11.674,11.674,0,0,0-1.067-1.165c-1.517.915-4.436,2.949-5.979,3.389a1.047,1.047,0,0,0-.758.014.859.859,0,0,0-.224.712,1.982,1.982,0,0,0,.152.453,64.289,64.289,0,0,1-6.682,3.877,26.044,26.044,0,0,1-1.64-4.143q-1.677-4.546-3.282-9.117a243.068,243.068,0,0,0,25.9-1.1" transform="translate(-169.433 -432.503)" fill="#e14841"/>
          <path id="Trazado_913563" data-name="Trazado 913563" d="M329.984,508.861a9.166,9.166,0,0,1,3.293-1.258l.264.114a1.594,1.594,0,0,1-.453,1.216c-1.791,2.485-4.322,4.45-6.347,6.737.749-.021,3.052-1.871,3.979-2.3a11.849,11.849,0,0,1-1.805,3.025c-.915,1.113-5.739,5.391-5.757,6.388.4.083.847-.283,1.187-.508a22.872,22.872,0,0,0,2.587-2.032,6.529,6.529,0,0,1,.684-.68c.852-.138,2.791-1.665,3.8-2.127a14.221,14.221,0,0,1,3.463-1.565,1.23,1.23,0,0,0,.586-.247,1.356,1.356,0,0,1-.161.66,11.692,11.692,0,0,1-.721,2.115,19.534,19.534,0,0,1-1.551,1.91c-1.7,2.167-3.886,4.042-5.406,6.332-1.018,1.305-2.963,3.6-4.64,4.06a8.334,8.334,0,0,0-2.606,1.453c-1.743,1.07-3.581,2.093-5.235,3.292-1.815,1.315-3.517,2.819-5.4,4.031-.466-1.011-4.8-5.714-5.926-7.034a66.992,66.992,0,0,1,5.495-4.117,14.5,14.5,0,0,0,.924-2.958,1.269,1.269,0,0,0,.4-.639.819.819,0,0,0-.128-.664l-.545-.07a1.5,1.5,0,0,0,.583-.146c.406-.231.581-1.737.723-2.2.881-2.5,1.728-12.054,3.7-13.4a.94.94,0,0,1,.824-.173,3.253,3.253,0,0,1,1.588,1.5c1.587,2.629.673,5.623-.026,8.371a33.657,33.657,0,0,1,6.718-5.678l1.724-1.149a2.334,2.334,0,0,0,.325-.53c.1.141.027.071.244.168,1.222-.515,2.323-1.293,3.526-1.853Z" transform="translate(-227.282 -379.738)" fill="#f3c69e"/>
          <path id="Trazado_913564" data-name="Trazado 913564" d="M394.585,539.452a1.357,1.357,0,0,1-.161.66,11.692,11.692,0,0,1-.721,2.116,19.547,19.547,0,0,1-1.551,1.91l-1.536-.057a9.835,9.835,0,0,0-1.924,1.355,23.805,23.805,0,0,1-5.072,3.284.852.852,0,0,1-.779.017c.066-.39,6.172-5.1,6.991-5.888a13.759,13.759,0,0,0,1.217-1.484l-.023-.12-.253.107-.237-.087A14.219,14.219,0,0,1,394,539.7a1.23,1.23,0,0,0,.586-.247" transform="translate(-286.403 -403.563)" fill="#f39c75"/>
          <path id="Trazado_913565" data-name="Trazado 913565" d="M413.7,546.04a28.912,28.912,0,0,0,3.808-3.969,11.687,11.687,0,0,1-.721,2.115,19.537,19.537,0,0,1-1.551,1.91Z" transform="translate(-309.491 -405.522)" fill="#fefefe"/>
          <path id="Trazado_913566" data-name="Trazado 913566" d="M379.235,508.861a9.166,9.166,0,0,1,3.293-1.258l.264.114a1.594,1.594,0,0,1-.453,1.216c-1.791,2.485-4.322,4.45-6.347,6.737a2.65,2.65,0,0,0-.346.361c-1.364,1.537-4.178,3.058-6,4.053A31.007,31.007,0,0,1,372.454,517a73.032,73.032,0,0,0,7.3-8.023l-.153-.248.182.185,0-.055a2.594,2.594,0,0,0-.556,0" transform="translate(-276.533 -379.738)" fill="#f39c75"/>
          <path id="Trazado_913567" data-name="Trazado 913567" d="M217.669,338.39a43.565,43.565,0,0,1,4.372,3.423c2.731,2.156,8.344,5.95,11.674,6.332.338,2.214.448,5.55,2.443,6.985.92.662,2.067.68,3.043,1.174a13,13,0,0,1,2.263,6.962c.214,3.026-.049,6.323-2.151,8.694a9.434,9.434,0,0,1-6.747,2.828,21.336,21.336,0,0,1-15.12-5.733c-3.583-3.256-6.623-8.074-6.84-13.026a3.4,3.4,0,0,0,1.442-.865c3.513-3.418,5.546-12.039,5.621-16.774" transform="translate(-157.554 -253.149)" fill="#f3c69e"/>
          <path id="Trazado_913568" data-name="Trazado 913568" d="M316.458,284.167c.026.049.051.1.077.147a21.724,21.724,0,0,0,3.088,4.383c.775.824,1.684,1.518,2.488,2.313a7.307,7.307,0,0,1,2.313,7.122,9.43,9.43,0,0,1-2.975,4.226c2.312.38,4.588.971,6.864,1.52,1.395.337,2.851.6,4.211,1.054a13.519,13.519,0,0,0,6.172,8.1c-1.071,2.791-2.248,4.56-4.964,5.937a26.334,26.334,0,0,0,11.588-3.295,20.516,20.516,0,0,0,14.613-2.173c4.051,4.255,7.556,8.626,9.946,14.05l-.584.626c1.21,2.134,2.99,24.052,3.408,28.078a60.285,60.285,0,0,1,.709,6.029c.015-.071.028-.143.045-.214.14-.6.6-.841,1.078-1.156a1.428,1.428,0,0,1,1.2-.007c1.66.816,9.384,11.4,10.6,13.249a8.341,8.341,0,0,1-2.668.773l-.508.212c-2.481.728-13.087,3.985-14.837,3.748a28.446,28.446,0,0,0-14.482-.869,2.92,2.92,0,0,1-2.179-.437l.029-.256c.086-.7.234-2.132.8-2.582l.507-.122a13.628,13.628,0,0,0,.786-2.543l-.8-.235c-.024-.067-.051-.132-.071-.2a2.906,2.906,0,0,1,.141-1.976c-.074-.636-.134-1.261-.153-1.9l-.23-.492c-3.17-.176-6.368-.246-9.543-.306a7.513,7.513,0,0,0,1.211-4.229c-.07-2.247-1.174-3.625-2.71-5.095-1.235-.787-2.344-1.791-3.55-2.629-1.983-1.379-4.078-2.577-6.179-3.765a11.693,11.693,0,0,0,.721-2.115,1.357,1.357,0,0,0,.161-.66,1.23,1.23,0,0,1-.586.247,14.217,14.217,0,0,0-3.463,1.565c-1.009.462-2.949,1.989-3.8,2.127a6.523,6.523,0,0,0-.684.68,22.872,22.872,0,0,1-2.587,2.032c-.34.225-.784.59-1.187.508.018-1,4.842-5.275,5.757-6.388a11.85,11.85,0,0,0,1.805-3.025c-.927.427-3.23,2.278-3.979,2.3,2.026-2.287,4.557-4.252,6.347-6.737a1.594,1.594,0,0,0,.453-1.216l-.264-.114a9.165,9.165,0,0,0-3.293,1.257l-.1.045c-1.2.56-2.3,1.338-3.526,1.853-.217-.1-.147-.027-.244-.168.136-1.052.271-2.1.322-3.158.314-6.557-.953-13.53-5.489-18.545-.6-.515-1.207-1.017-1.814-1.52a26.666,26.666,0,0,0-10.206-4.475c-.977-.494-2.123-.512-3.043-1.174-2-1.435-2.1-4.771-2.443-6.985-.216-1.3-.374-2.605-.534-3.914a10.537,10.537,0,0,0,7.445.116c3.451-1.42,5.315-4.971,6.654-8.24a31.321,31.321,0,0,0,1.583-5.814c.206-1.263.33-2.511.428-3.785.025-.592.081-1.185.122-1.777" transform="translate(-224.598 -212.585)" fill="#fefefe"/>
          <path id="Trazado_913569" data-name="Trazado 913569" d="M388.165,523.557c1.815-.8,3.386-1.957,5.36-2.34-1.779,3.155-5.723,6.152-8.465,8.532a6.529,6.529,0,0,0-.684.68,22.863,22.863,0,0,1-2.587,2.032c-.34.225-.784.591-1.187.508.018-1,4.842-5.275,5.757-6.388a11.85,11.85,0,0,0,1.805-3.025" transform="translate(-284.728 -389.922)" fill="#f39c75"/>
          <path id="Trazado_913570" data-name="Trazado 913570" d="M450.585,468.669c.971-.69,5.333-3.918,5.484-4.807l-.229-.1a12.726,12.726,0,0,0-4.033,1.323c-3.119,1.7-6.136,3.391-9.144,5.3a22.286,22.286,0,0,1,3.788-3.037c3-2.266,6.376-4.748,8.741-7.687a42.853,42.853,0,0,0-9.267,4.376c-1.247.766-2.448,1.709-3.758,2.356a91.054,91.054,0,0,0,6.971-6.78c.591-.645,1.691-1.569,1.651-2.487a.793.793,0,0,0-.584-.425c-2.568-.522-10.616,5.714-12.724,7.493a26.6,26.6,0,0,1-3.558,3.1c-.073.04-.147.078-.221.117-.219-.249-.2-.284-.174-.628.2-3.048,1.316-7.067-.924-9.671a4.408,4.408,0,0,0-1.01-.813c-.41,7.171-3.317,13.952-4.754,20.949a1.357,1.357,0,0,1-.161.66,11.693,11.693,0,0,1-.721,2.115c2.1,1.188,4.2,2.387,6.179,3.765,1.206.838,2.314,1.842,3.55,2.629.2-.724.607-2.879,1.153-3.295,1.506-.424,12.718-9.7,12.18-9.7a40.156,40.156,0,0,0,5.428-4.065.378.378,0,0,0-.336-.647,37.048,37.048,0,0,0-8.1,3.01c1.48-1.075,3.079-1.983,4.573-3.043" transform="translate(-318.658 -341.348)" fill="#f3c69e"/>
          <path id="Trazado_913571" data-name="Trazado 913571" d="M534.39,458.873c1.21,2.134,2.99,24.052,3.408,28.078a60.32,60.32,0,0,1,.709,6.029c.517,1.549,2.129,2.311,3.263,3.378a14.548,14.548,0,0,1,2.517,2.669,19.654,19.654,0,0,1-3.83-3.1,27.58,27.58,0,0,0-6.936-4.768c-4.3-1.933-8.317-1.512-12.611.106.254-1.609.724-3.217,1.137-4.791.757-2.885,1.571-5.769,2.564-8.582,1.957-5.542,6.008-14.557,9.779-19.014" transform="translate(-389.692 -343.282)" fill="#ee4f47"/>
          <path id="Trazado_913572" data-name="Trazado 913572" d="M316.458,284.167c.026.049.051.1.077.147a21.724,21.724,0,0,0,3.088,4.383c.775.824,1.684,1.518,2.488,2.313a7.307,7.307,0,0,1,2.313,7.122,9.43,9.43,0,0,1-2.975,4.226c-1.409,1.293-2.824,2.712-2.9,4.758a5.312,5.312,0,0,0,1.687,3.844c1.507,1.554,3.824,2.485,3.856,4.994a4.038,4.038,0,0,1-1.321,2.919,4.623,4.623,0,0,1-2.058,1.222c1.3-1.168,2.95-1.889,3.1-3.866a3.589,3.589,0,0,0-1.067-2.636c-1.832-2.043-4.743-3.24-4.571-6.522.251-4.773,6.88-6.073,6-11.518a7.709,7.709,0,0,0-1.87-3.786,15.151,15.151,0,0,0-2.361-2.158c1.374,2.179,2.33,4.311,1.749,6.94-.808,3.653-4.915,5.857-5.167,9.551-.373,5.465,6.24,7.839,2.547,14.365q-.192.339-.4.67c-.129.206-.266.4-.41.6-.6-.515-1.207-1.017-1.814-1.52a26.666,26.666,0,0,0-10.206-4.475c-.977-.494-2.123-.512-3.043-1.174-2-1.435-2.1-4.771-2.443-6.985-.216-1.3-.374-2.605-.534-3.914a10.537,10.537,0,0,0,7.445.116c3.451-1.42,5.315-4.971,6.654-8.24a31.321,31.321,0,0,0,1.583-5.814c.206-1.263.33-2.511.428-3.785.025-.592.081-1.185.122-1.777" transform="translate(-224.598 -212.585)" fill="#0c3664"/>
          <path id="Trazado_913573" data-name="Trazado 913573" d="M314.324,329.327c1.109,2.146-2.336,11.571-2.225,14.888.079,2.358,1.853,3.88,2.964,5.8A11.824,11.824,0,0,1,316.451,354a26.666,26.666,0,0,0-10.206-4.475c-.977-.494-2.123-.512-3.043-1.174-2-1.435-2.1-4.771-2.443-6.985-.216-1.3-.374-2.605-.534-3.914a10.537,10.537,0,0,0,7.445.116c3.451-1.42,5.315-4.971,6.654-8.24" transform="translate(-224.598 -246.369)" fill="#031d43"/>
          <path id="Trazado_913574" data-name="Trazado 913574" d="M508.574,583.307c4.295-1.618,8.308-2.04,12.611-.106a27.583,27.583,0,0,1,6.936,4.769,19.658,19.658,0,0,0,3.83,3.1,14.554,14.554,0,0,0-2.517-2.669c-1.134-1.067-2.746-1.829-3.263-3.378.015-.071.028-.143.045-.214.14-.6.6-.841,1.078-1.156a1.428,1.428,0,0,1,1.2-.007c1.66.816,9.384,11.4,10.6,13.249a8.34,8.34,0,0,1-2.668.773l-.508.212c-2.481.728-13.087,3.985-14.837,3.748a28.447,28.447,0,0,0-14.482-.869,2.92,2.92,0,0,1-2.179-.437l.029-.256c.086-.7.234-2.132.8-2.582l.507-.122a13.628,13.628,0,0,0,.786-2.543l-.8-.235c-.024-.067-.051-.133-.071-.2a2.906,2.906,0,0,1,.141-1.976c-.074-.636-.134-1.261-.153-1.9l-.23-.492c-.011-.036-.024-.071-.034-.107a1.635,1.635,0,0,1,.088-1.445,3.458,3.458,0,0,1,2.24-1.21c.034-.439.029-.877.029-1.317a1.64,1.64,0,0,1-.175-.523c-.081-.709.61-1.562,1-2.109" transform="translate(-377.356 -435.329)" fill="#e7764d"/>
          <path id="Trazado_913575" data-name="Trazado 913575" d="M517.551,597.123l.677-.258.873,1.211-1.579.365c.034-.439.029-.877.029-1.318" transform="translate(-387.157 -446.514)" fill="#0f5e8d"/>
          <path id="Trazado_913576" data-name="Trazado 913576" d="M509.331,615.66l1.136-.127c-.029.61-.065,1.221-.074,1.832l-.909.2c-.074-.636-.134-1.261-.153-1.9" transform="translate(-381.03 -460.479)" fill="#82c4c9"/>
          <path id="Trazado_913577" data-name="Trazado 913577" d="M591.89,588.834a8.441,8.441,0,0,1,2.133,4.674l.008.074c-1.134-1.067-2.746-1.829-3.263-3.378.015-.071.028-.143.045-.214.14-.6.6-.841,1.078-1.156" transform="translate(-441.953 -440.506)" fill="#e14841"/>
          <path id="Trazado_913578" data-name="Trazado 913578" d="M520.325,594.2c4.288-1.089,8.5-1.567,12.463.809.894.535,1.741,1.169,2.6,1.765A34.74,34.74,0,0,0,521.2,595.41Z" transform="translate(-389.254 -443.848)" fill="#031d43"/>
          <path id="Trazado_913579" data-name="Trazado 913579" d="M510.5,631.709c4.386-.831,8.716-.818,12.5,1.747l.085.06a63.982,63.982,0,0,0-13.374.736,13.625,13.625,0,0,0,.786-2.543" transform="translate(-381.32 -472.214)" fill="#031d43"/>
          <path id="Trazado_913580" data-name="Trazado 913580" d="M513.623,612.863c4.322-.839,9.148-1.832,13.061.826.363.246.705.521,1.045.8-4.627-.082-9.6-.711-14.18.208.008-.611.045-1.222.074-1.832" transform="translate(-384.185 -457.809)" fill="#031d43"/>
          <path id="Trazado_913581" data-name="Trazado 913581" d="M404.67,32.459c17.853-6.394,35.152-9.095,52.893-.7C473.1,39.121,485.317,53.4,491.052,69.524c2.327,6.543,4.339,14.38,3.432,21.35a39.7,39.7,0,0,1-3.731,11.687c-.9,1.888-1.959,3.69-2.9,5.556-7.182-2.168-14.4-1.861-21.1,1.707-4.856,2.587-9.589,7.367-11.32,12.692-2.1-3.365-3.994-12.814-3.888-16.858a19.867,19.867,0,0,0-.124-2.025l-.108.177c-.582.963-.941,2.059-1.585,2.99a25.37,25.37,0,0,1-14.005,9.945,20.184,20.184,0,0,1-2.218.434,66.189,66.189,0,0,1-.748,7.173c-1.6.184-3.214.252-4.332,1.565-6.328,1.916-11.653,3.973-16.414,8.867-2.39-5.424-5.895-9.8-9.946-14.05a20.516,20.516,0,0,1-14.613,2.173,26.334,26.334,0,0,1-11.588,3.295c2.716-1.377,3.893-3.146,4.964-5.937a13.519,13.519,0,0,1-6.172-8.1c-1.361-.453-2.816-.718-4.211-1.054-2.276-.549-4.552-1.14-6.864-1.52a9.43,9.43,0,0,0,2.975-4.226,7.307,7.307,0,0,0-2.313-7.122c-.8-.8-1.713-1.489-2.488-2.313a21.727,21.727,0,0,1-3.088-4.383c-.026-.049-.051-.1-.077-.147-.037-1.9.572-5.631-.053-7.247a14.267,14.267,0,0,0,1.888-4.715,19.441,19.441,0,0,0-.991-9.3c-.322-1.866-1.749-3.864-2.89-5.317.78-1.042,1.412-2.282,2.088-3.4,1.223-2.026,2.493-4.038,3.628-6.114,1.888.076,3.771.109,5.66.072l-.014,9.123a15.472,15.472,0,0,0,1.271-1.31,38.8,38.8,0,0,0,3.62-3.232c1.614-1.51,3.272-2.994,4.783-4.609,1.783-.016,8.5-.355,9.716.122.918.807,10.271,9,10.405,9.042a.567.567,0,0,0,.176-.009l.051-.478a79.977,79.977,0,0,0-.036-8.54,8.268,8.268,0,0,0,4.81-2.032,6.1,6.1,0,0,0,1.733-3.126,31.836,31.836,0,0,0,.166-6.171Z" transform="translate(-266.729 -19.819)" fill="#cbe5f4"/>
          <path id="Trazado_913582" data-name="Trazado 913582" d="M820.026,250.477a6.377,6.377,0,0,1,4.017,1.056,7.446,7.446,0,0,1,3.12,4.819,7.318,7.318,0,0,1-1.211,5.489,6.718,6.718,0,0,1-4.763,2.824,7.065,7.065,0,0,1-7.625-6.484,7.077,7.077,0,0,1,1.581-5.291,7,7,0,0,1,4.88-2.413" transform="translate(-608.598 -187.365)" fill="#82c4c9"/>
          <path id="Trazado_913583" data-name="Trazado 913583" d="M427.976,319.822a11.924,11.924,0,0,1,2.115-9.132,17.561,17.561,0,0,1,11.532-6.4,20.1,20.1,0,0,1,14.915,3.581,12.626,12.626,0,0,1,5.142,8.394,11.753,11.753,0,0,1-2.577,8.774,15.577,15.577,0,0,1-3.718,3.348,20.516,20.516,0,0,1-14.613,2.173,26.334,26.334,0,0,1-11.588,3.295c2.716-1.377,3.893-3.146,4.964-5.937a13.519,13.519,0,0,1-6.172-8.1" transform="translate(-320.049 -227.473)" fill="#e7764d"/>
          <path id="Trazado_913584" data-name="Trazado 913584" d="M579.334,113.252c1.427-2.345,3.164-4.146,5.911-4.827a7.772,7.772,0,0,1,5.908.768,9,9,0,0,1,3.3,3.761,8.292,8.292,0,0,1,5.935-3.157,7.719,7.719,0,0,1,5.715,1.7,9.355,9.355,0,0,1,2.954,6.673c.009.115.015.23.022.345,2.407.308,4.729,1.008,6.293,3a6.906,6.906,0,0,1,1.384,5.214,7.894,7.894,0,0,1-1.447,3.368c1.709.834,3.431,1.862,4.078,3.777a5.468,5.468,0,0,1-.421,4.146c-.15.287-.312.568-.476.848a3.24,3.24,0,0,1-2.72-.229A7.044,7.044,0,0,1,613,135.883c-2.075,3.666-3.912,4.67-7.792,6.1a28.338,28.338,0,0,0-2.739,1.06c-.316.155-.356.219-.391.547l-.125-.164c-.067-.01-.133-.02-.2-.031a3.922,3.922,0,0,1-2.524-1.574c-.971-1.542-.65-3.97-.3-5.667a18.55,18.55,0,0,1-2.28.164c-2.828.032-5.7-.576-7.771-2.611a9.81,9.81,0,0,1-6.768,3.337,10.275,10.275,0,0,1-7.359-2.214c-1.278,1.818-3.178,2.52-5.2,3.209l-.009-2.106-.133-.031a5.164,5.164,0,0,1-3.495-1.919,3,3,0,0,1-.293-2.446,7.344,7.344,0,0,1,.882-1.84,5.2,5.2,0,0,1-3.665-1.967,4.317,4.317,0,0,1,1.31-6.174,7.854,7.854,0,0,1,4.975-1.019,6.4,6.4,0,0,1-.983-4.933,4.8,4.8,0,0,1,2.352-3.04,8.169,8.169,0,0,1,6.193-.649,9.036,9.036,0,0,1,2.65,1.342" transform="translate(-420.476 -80.918)" fill="#264877"/>
          <path id="Trazado_913585" data-name="Trazado 913585" d="M596.327,155.172a1.409,1.409,0,0,1,.929.495c.053.451-.661,1.146-.929,1.551-.726,1.094-.835,2.518-1.326,3.726a1.643,1.643,0,0,1-.791-.254,1.215,1.215,0,0,1-.3-.852,8.733,8.733,0,0,1,2.417-4.665" transform="translate(-444.302 -116.084)" fill="#031d43"/>
          <path id="Trazado_913586" data-name="Trazado 913586" d="M752.864,170.536a2.092,2.092,0,0,1,1.058.608,3.379,3.379,0,0,1,.891,2.488,5.1,5.1,0,0,1-1.507,3.682,1.619,1.619,0,0,1-.427-.121,1.425,1.425,0,0,1-.213-.3c-.169-.456.831-2.257.925-2.861.182-1.166-.813-2-1.036-3.048Z" transform="translate(-562.984 -127.578)" fill="#031d43"/>
          <path id="Trazado_913587" data-name="Trazado 913587" d="M645.511,132.915a5.192,5.192,0,0,1,1.681.158,2.183,2.183,0,0,1,1.461.861c-.022.312,0,.31-.226.527a17.137,17.137,0,0,1-2.639-.211,1.954,1.954,0,0,0-1.514.806l-.095.109a1.32,1.32,0,0,0-.192,1.049c.006.033.058.307.061.347.032.406-.008.414-.273.7l-.309.011a1.261,1.261,0,0,1-.576-.742,2.663,2.663,0,0,1,.276-2.14,3.347,3.347,0,0,1,2.345-1.473" transform="translate(-480.859 -99.426)" fill="#031d43"/>
          <path id="Trazado_913588" data-name="Trazado 913588" d="M605.755,185.28c.088.134.177.268.269.4a4.406,4.406,0,0,0,2.9,2.134,5.77,5.77,0,0,0,4.172-1.464c.018-.014.249-.2.287-.219.168-.082.349.038.51.093a1.849,1.849,0,0,1,.022.226,1.559,1.559,0,0,1-.606,1.063,6.393,6.393,0,0,1-3.215,1.5,5.121,5.121,0,0,1-3.97-1.158,2.426,2.426,0,0,1-1.027-1.735c.034-.414.367-.585.654-.839" transform="translate(-452.672 -138.608)" fill="#031d43"/>
          <path id="Trazado_913589" data-name="Trazado 913589" d="M696.115,130.826c.175-.009.346-.02.521-.013a1.554,1.554,0,0,1,1.2.582,1.1,1.1,0,0,1-.026.768,6.58,6.58,0,0,0-1.826.121,1.4,1.4,0,0,0-.855.814,3.89,3.89,0,0,0,.138,2.833,4.6,4.6,0,0,0,3.111,2.47,7.987,7.987,0,0,1,1.325.349c.047.023.09.054.135.081a1.026,1.026,0,0,1-.2.729,2.035,2.035,0,0,1-1.588.023,6.314,6.314,0,0,1-3.738-2.99,4.554,4.554,0,0,1-.443-3.491,4.08,4.08,0,0,1,2.241-2.275" transform="translate(-518.952 -97.859)" fill="#031d43"/>
          <path id="Trazado_913590" data-name="Trazado 913590" d="M626.146,148.614a1.307,1.307,0,0,1,.791.5,2.957,2.957,0,0,1-.243,1.44,4.936,4.936,0,0,0,1.6,2.639,3.322,3.322,0,0,0,2.355.987,1.96,1.96,0,0,0,1.3-.865c.169-.625-.258-1.027-.3-1.616a.819.819,0,0,1,.262-.68c.332-.148.312-.168.65-.045a3.455,3.455,0,0,1,.686,1.192,2.807,2.807,0,0,1-.2,1.906,2.381,2.381,0,0,1-1.567,1.14,4.787,4.787,0,0,1-3.716-.747,4.961,4.961,0,0,1-2.212-3.136,3.651,3.651,0,0,1,.6-2.72" transform="translate(-467.929 -111.178)" fill="#031d43"/>
          <path id="Trazado_913591" data-name="Trazado 913591" d="M676.365,185.738a10.684,10.684,0,0,1,2.475-.006,6.826,6.826,0,0,1,4.5,2.608,3.109,3.109,0,0,1,.565,2.33l-.232.126c-1.184-.451-1.461-2.74-3.772-3.595a7.1,7.1,0,0,0-5.816.654,11.919,11.919,0,0,1-2.377,1.213,5.428,5.428,0,0,1-4.124-.192,3.68,3.68,0,0,1-1.8-1.917,1.038,1.038,0,0,1,.324-.685c.33-.047,1.378,1,1.735,1.227,2.912,1.841,5.591-1.165,8.531-1.763" transform="translate(-498.065 -138.893)" fill="#031d43"/>
          <path id="Trazado_913592" data-name="Trazado 913592" d="M610.9,200.236a9.423,9.423,0,0,0,6.982,2.973A26.147,26.147,0,0,0,621.8,203a17.69,17.69,0,0,0-.644,2.029,18.548,18.548,0,0,1-2.28.164c-2.828.032-5.7-.576-7.771-2.611a9.81,9.81,0,0,1-6.768,3.337,10.275,10.275,0,0,1-7.359-2.214c-1.278,1.818-3.178,2.52-5.2,3.209l-.009-2.106a5.2,5.2,0,0,0,3.586-1.231,3.078,3.078,0,0,0,.662-2.54c1.974,1.915,3.86,3.216,6.717,3.173a11.108,11.108,0,0,0,7.709-3.47c.156-.165.309-.334.462-.5" transform="translate(-442.696 -149.796)" fill="#e14841"/>
          <path id="Trazado_913593" data-name="Trazado 913593" d="M596.159,210.67a10.275,10.275,0,0,0,7.359,2.214,9.81,9.81,0,0,0,6.768-3.337c2.067,2.035,4.944,2.643,7.771,2.611a18.548,18.548,0,0,0,2.28-.164c-.349,1.7-.669,4.125.3,5.667a3.921,3.921,0,0,0,2.524,1.574c.066.012.133.021.2.031l.125.164c.036-.328.075-.392.391-.547a28.342,28.342,0,0,1,2.739-1.059c3.879-1.427,5.717-2.431,7.792-6.1a7.043,7.043,0,0,0,2.766,2.753,3.24,3.24,0,0,0,2.72.229c.341,4.685-.124,9.507-3.33,13.194-1.233,1.417-3.135,2.579-4,4.254a8.814,8.814,0,0,0-.855,3.307c-.4,4.227-1.458,5.145-5.015,7.138a19.841,19.841,0,0,0-.124-2.025l-.108.177c-.582.963-.941,2.059-1.585,2.99a25.37,25.37,0,0,1-14.005,9.945,20.175,20.175,0,0,1-2.218.434,33.729,33.729,0,0,0-.274-4.776,20.847,20.847,0,0,1-4.023.579,12.576,12.576,0,0,1-8.84-3.4,11.262,11.262,0,0,1-2.606-4.05c-2.069-5.4-2.206-15.219-2.227-21.131-.02-.984-.028-1.96.015-2.943.014-2.216.2-4.438.11-6.654l.133.031.009,2.106c2.026-.689,3.926-1.392,5.2-3.209" transform="translate(-441.88 -156.762)" fill="#e7764d"/>
          <path id="Trazado_913594" data-name="Trazado 913594" d="M620.561,283.241l.243.194c.258.807-.978,1.533-1.248,2.278a.94.94,0,0,0,.042.857,2.568,2.568,0,0,0,1.5.977c.218.065.433.136.65.206l-.068.2c-.1.013-.207.026-.311.035a2.766,2.766,0,0,1-2.018-.52,1.64,1.64,0,0,1-.477-1.155c-.043-1.3.857-2.209,1.684-3.076" transform="translate(-462.979 -211.892)" fill="#031d43"/>
          <path id="Trazado_913595" data-name="Trazado 913595" d="M733.456,269.545a1.592,1.592,0,0,1,.275-1.312,4.52,4.52,0,0,1,2.807-2.056,1.548,1.548,0,0,1,1.4.273c-1.119.219-2.951.641-3.544,1.728a.849.849,0,0,0,.014.834c.587,1.25,1.443.943.821,2.725-.044.125-.1.246-.153.368a2.178,2.178,0,0,1-1.272-.142c-.518-.627-.325-1.641-.348-2.417" transform="translate(-548.665 -199.083)" fill="#031d43"/>
          <path id="Trazado_913596" data-name="Trazado 913596" d="M733.536,279.266c.232-.1.32-.207.572-.12a.989.989,0,0,1,.636.581,1.683,1.683,0,0,1,.007,1.076,2,2,0,0,1-.619.668l-.154.134-.094.078c-.518-.628-.325-1.641-.348-2.417" transform="translate(-548.745 -208.805)" fill="#e7764d"/>
          <path id="Trazado_913597" data-name="Trazado 913597" d="M740.545,267.433a3.71,3.71,0,0,1-.373,2.94c-.354.747-1.444,2.511-2.289,2.692-.065.014-.133.015-.2.022.053-.121.109-.242.153-.368.622-1.781-.234-1.475-.821-2.725a.849.849,0,0,1-.014-.834c.592-1.087,2.425-1.508,3.544-1.728" transform="translate(-551.272 -200.066)" fill="#b12725"/>
          <path id="Trazado_913598" data-name="Trazado 913598" d="M654.224,261.066a.825.825,0,0,1,.565-.222h0a1.492,1.492,0,0,1,1.222.484,3,3,0,0,1,.523,2.257,4.6,4.6,0,0,1-1.263,3.019.806.806,0,0,1-.49.22l-.027,0a.86.86,0,0,1-.526-.124,1.316,1.316,0,0,1-.382-.34,4.947,4.947,0,0,1-.569-3.287,2.954,2.954,0,0,1,.943-2.009" transform="translate(-488.679 -195.137)" fill="#031d43"/>
          <path id="Trazado_913599" data-name="Trazado 913599" d="M590.7,240.612c1.231-.738,3.157-1.641,4.623-1.289a1.263,1.263,0,0,1,.83.541,2.1,2.1,0,0,1,.094,1.617,1.024,1.024,0,0,1-.444.59c-.659.322-1.471-.034-2.176.144a22.167,22.167,0,0,0-2.943,1.341c-.02-.984-.028-1.96.015-2.943" transform="translate(-441.88 -178.978)" fill="#031d43"/>
          <path id="Trazado_913600" data-name="Trazado 913600" d="M597.315,260.784a1.063,1.063,0,0,1,.932-.36,1.661,1.661,0,0,1,.945.393,3.036,3.036,0,0,1,.885,2.3,4.9,4.9,0,0,1-1,3.179,1.04,1.04,0,0,1-.633.392.576.576,0,0,1-.075.008,1.337,1.337,0,0,1-.963-.446c-.763-.8-.876-2.462-.787-3.534a3.087,3.087,0,0,1,.692-1.935" transform="translate(-446.313 -194.817)" fill="#031d43"/>
          <path id="Trazado_913601" data-name="Trazado 913601" d="M651.067,239.011c1.593-.029,3.549.093,4.87,1.077,1.235.92,1.406,2.126,1.577,3.547l-1.265-.692a8.767,8.767,0,0,0-3.545-1.071c-.725-.035-2.293.353-2.911.063a1.511,1.511,0,0,1-.657-.964,1.458,1.458,0,0,1,.276-1,2.06,2.06,0,0,1,1.656-.957" transform="translate(-485.609 -178.801)" fill="#031d43"/>
          <path id="Trazado_913602" data-name="Trazado 913602" d="M625.5,310.465c.11.069.037.013.16.224a9.731,9.731,0,0,1-2.241,5.39,4.113,4.113,0,0,1-2.917,1.385,5.258,5.258,0,0,1-3.623-1.734,14.694,14.694,0,0,1-2.166-3.222,43.62,43.62,0,0,0,10.787-2.044" transform="translate(-459.867 -232.258)" fill="#fefefe"/>
          <path id="Trazado_913603" data-name="Trazado 913603" d="M679.148,313.835c.009,1.579.08,3.183.027,4.759l-.108.177c-.582.963-.941,2.059-1.585,2.99a25.369,25.369,0,0,1-14.005,9.945,20.181,20.181,0,0,1-2.218.434,33.728,33.728,0,0,0-.274-4.776,27.6,27.6,0,0,0,7.4-2.624c5.666-2.695,8.6-4.828,10.764-10.9" transform="translate(-494.481 -234.779)" fill="#b12725"/>
          <path id="Trazado_913604" data-name="Trazado 913604" d="M720.646,225.9c.035-.328.075-.392.391-.547a28.341,28.341,0,0,1,2.739-1.059c3.879-1.427,5.717-2.431,7.792-6.1a7.043,7.043,0,0,0,2.766,2.753,3.24,3.24,0,0,0,2.72.229c.341,4.685-.124,9.507-3.33,13.194-1.233,1.417-3.135,2.579-4,4.254a8.813,8.813,0,0,0-.855,3.307c-.4,4.227-1.458,5.145-5.015,7.138a19.876,19.876,0,0,0-.124-2.025c.053-1.576-.017-3.18-.027-4.759a18.225,18.225,0,0,0,.442-3.419,9.214,9.214,0,0,0,5.007-3.471,6.352,6.352,0,0,0,1.109-4.88,4.455,4.455,0,0,0-1.967-2.96,3.208,3.208,0,0,0-2.487-.319c-2.4.639-4.054,3.223-5.257,5.2,0-2.175-.055-4.373.091-6.543" transform="translate(-539.04 -163.234)" fill="#031d43"/>
          <path id="Trazado_913605" data-name="Trazado 913605" d="M396.187,140.925l13.32-.1-13.32,12.532Z" transform="translate(-296.387 -105.349)" fill="#cbe5f4"/>
          <path id="Trazado_913606" data-name="Trazado 913606" d="M492.552,355.444a1.324,1.324,0,1,1-1.324-1.324,1.324,1.324,0,0,1,1.324,1.324" transform="translate(-366.496 -264.917)" fill="#fefefe"/>
          <path id="Trazado_913607" data-name="Trazado 913607" d="M475.689,355.444a1.324,1.324,0,1,1-1.325-1.324,1.325,1.325,0,0,1,1.325,1.324" transform="translate(-353.88 -264.917)" fill="#fefefe"/>
          <path id="Trazado_913608" data-name="Trazado 913608" d="M510.948,355.444a1.324,1.324,0,1,1-1.325-1.324,1.325,1.325,0,0,1,1.325,1.324" transform="translate(-380.258 -264.917)" fill="#fefefe"/>
        </g>
      </g>
    </g>
  </g>
</svg>
