<svg xmlns="http://www.w3.org/2000/svg" xmlns:xlink="http://www.w3.org/1999/xlink" width="403.385" height="468.886" viewBox="0 0 403.385 468.886">
  <defs>
    <clipPath id="clip-path">
      <rect id="Rectángulo_404378" data-name="Rectángulo 404378" width="308.385" height="191.815" fill="none"/>
    </clipPath>
    <clipPath id="clip-path-2">
      <rect id="Rectángulo_404377" data-name="Rectángulo 404377" width="378.645" height="468.886" fill="none"/>
    </clipPath>
    <clipPath id="clip-path-4">
      <rect id="Rectángulo_404371" data-name="Rectángulo 404371" width="50.617" height="20.619" fill="none"/>
    </clipPath>
    <clipPath id="clip-path-5">
      <rect id="Rectángulo_404372" data-name="Rectángulo 404372" width="22.085" height="132.807" fill="none"/>
    </clipPath>
    <clipPath id="clip-path-6">
      <rect id="Rectángulo_404373" data-name="Rectángulo 404373" width="119.413" height="28.009" fill="none"/>
    </clipPath>
    <clipPath id="clip-path-7">
      <rect id="Rectángulo_404374" data-name="Rectángulo 404374" width="12.749" height="67.992" fill="none"/>
    </clipPath>
  </defs>
  <g id="Grupo_1103820" data-name="Grupo 1103820" transform="translate(-800 -1440.445)">
    <g id="Grupo_1103750" data-name="Grupo 1103750" transform="translate(895 1683.518)">
      <g id="Grupo_1103749" data-name="Grupo 1103749" clip-path="url(#clip-path)">
        <path id="Trazado_914474" data-name="Trazado 914474" d="M308.32,95.954c0,52.878-68.961,95.744-154.029,95.744S.26,148.832.26,95.954,69.221.21,154.29.21,308.32,43.076,308.32,95.954" transform="translate(0.066 -0.046)" fill="#f5f5f5"/>
        <path id="Trazado_914475" data-name="Trazado 914475" d="M308.385,95.907s-.044-.526-.1-1.552q-.038-.772-.094-1.911a21.9,21.9,0,0,0-.22-2.64q-.19-1.5-.425-3.347c-.2-1.229-.52-2.567-.81-4.02a68.33,68.33,0,0,0-3.131-9.913A73.072,73.072,0,0,0,297.3,60.5a86.184,86.184,0,0,0-10.712-13.478C277.679,37.777,264.9,28.1,247.5,19.846A185.409,185.409,0,0,0,218.111,8.927a220.786,220.786,0,0,0-35.368-6.943A244.955,244.955,0,0,0,143.093.624c-6.835.251-13.707.941-20.606,1.79-6.884.915-13.75,2.141-20.557,3.643-6.759,1.579-13.487,3.379-20,5.56a195.235,195.235,0,0,0-18.94,7.455A171.988,171.988,0,0,0,45.641,28.36,138.48,138.48,0,0,0,30.456,39.376,101.4,101.4,0,0,0,17.921,51.917c-.883,1.114-1.883,2.2-2.677,3.341l-2.484,3.416C11.277,61,9.744,63.327,8.52,65.734A66.029,66.029,0,0,0,2.664,80.516,65.277,65.277,0,0,0,.653,95.893a65.381,65.381,0,0,0,2.005,15.383A66.114,66.114,0,0,0,8.51,126.062c1.224,2.407,2.757,4.735,4.24,7.063l2.484,3.416c.793,1.147,1.794,2.228,2.677,3.342a101.3,101.3,0,0,0,12.535,12.544A138.181,138.181,0,0,0,45.633,163.45a172.041,172.041,0,0,0,17.349,9.29A195.194,195.194,0,0,0,81.925,180.2c6.517,2.181,13.246,3.982,20.006,5.561q10.211,2.253,20.559,3.643c6.9.849,13.773,1.539,20.609,1.791a245.07,245.07,0,0,0,39.652-1.362,220.86,220.86,0,0,0,35.369-6.944,185.422,185.422,0,0,0,29.383-10.92c17.409-8.255,30.181-17.933,39.083-27.181A86.072,86.072,0,0,0,297.3,131.307a73.039,73.039,0,0,0,6.31-12.02,68.324,68.324,0,0,0,3.131-9.911c.289-1.453.607-2.79.809-4.019q.235-1.848.426-3.346a22.137,22.137,0,0,0,.219-2.64c.038-.758.069-1.4.094-1.911.053-1.026.1-1.552.1-1.552s0,.526-.03,1.552q-.024.773-.061,1.913a21.062,21.062,0,0,1-.188,2.642q-.177,1.5-.393,3.351c-.192,1.231-.5,2.571-.78,4.026a67.489,67.489,0,0,1-3.078,9.934,72.433,72.433,0,0,1-6.268,12.052A85.791,85.791,0,0,1,286.9,144.9c-8.894,9.281-21.675,19-39.118,27.292a185.536,185.536,0,0,1-29.454,10.977,221.223,221.223,0,0,1-35.48,6.99,245.566,245.566,0,0,1-39.792,1.387c-6.863-.249-13.762-.939-20.69-1.788-6.912-.916-13.807-2.144-20.643-3.65-6.788-1.583-13.545-3.389-20.09-5.576a195.909,195.909,0,0,1-19.025-7.481,172.6,172.6,0,0,1-17.425-9.324,138.714,138.714,0,0,1-15.255-11.063,101.667,101.667,0,0,1-12.592-12.6c-.888-1.119-1.894-2.2-2.689-3.356q-1.246-1.712-2.5-3.43c-1.489-2.338-3.03-4.675-4.259-7.093a66.359,66.359,0,0,1-5.879-14.85A65.6,65.6,0,0,1,0,95.893,65.559,65.559,0,0,1,2.022,80.451,66.268,66.268,0,0,1,7.9,65.607c1.23-2.417,2.771-4.753,4.261-7.09l2.5-3.43c.8-1.151,1.8-2.237,2.689-3.355A101.78,101.78,0,0,1,29.941,39.141a139,139,0,0,1,15.253-11.06,172.851,172.851,0,0,1,17.423-9.321,195.948,195.948,0,0,1,19.021-7.479c6.545-2.187,13.3-3.993,20.087-5.575,6.835-1.5,13.729-2.734,20.641-3.649,6.927-.849,13.826-1.539,20.686-1.788a245.629,245.629,0,0,1,39.79,1.385A221.324,221.324,0,0,1,218.32,8.642a185.6,185.6,0,0,1,29.455,10.976C265.219,27.911,278,37.629,286.9,46.909a85.93,85.93,0,0,1,10.688,13.522,72.457,72.457,0,0,1,6.269,12.054,67.516,67.516,0,0,1,3.079,9.935c.279,1.455.587,2.8.779,4.026l.395,3.352a21.073,21.073,0,0,1,.188,2.643q.038,1.14.061,1.913c.031,1.027.03,1.553.03,1.553" transform="translate(0 0)" fill="#263238"/>
      </g>
    </g>
    <g id="Grupo_1103751" data-name="Grupo 1103751" transform="translate(790 1406.445)">
      <g id="Grupo_1103747" data-name="Grupo 1103747" transform="translate(10 34)" clip-path="url(#clip-path-2)">
        <g id="Grupo_1103744" data-name="Grupo 1103744">
          <g id="Grupo_1103743" data-name="Grupo 1103743" clip-path="url(#clip-path-2)">
            <path id="Trazado_914418" data-name="Trazado 914418" d="M170.938,275.506s-34.792,11.629-73.013,10.42C55.378,284.58,27.7,273.611,27.7,273.611l15.526-58.153L92.3,230.368l60.46-8.711Z" transform="translate(156.496 182.872)" fill="#263238"/>
            <path id="Trazado_914419" data-name="Trazado 914419" d="M64.153,122.081l7.319-18.51,43.644-2.3,17.828,2.3,1.962,5.128L147,322.756s-42.276,8.528-63.412,5.561-45.984-12.607-45.984-12.607V193.973Z" transform="translate(162.115 85.955)" fill="#f5f5f5"/>
            <path id="Trazado_914420" data-name="Trazado 914420" d="M109.526,118.251a2.026,2.026,0,0,1-.3.386c-.25.277-.562.627-.947,1.057-.841.915-2.093,2.237-3.729,3.866a152.654,152.654,0,0,1-14.287,12.507l-.209.161-.179-.2a161.318,161.318,0,0,1-13.1-16.393c-.444-.643-.884-1.283-1.292-1.878l.523.011L65.515,131.9a7.234,7.234,0,0,1-1.455,1.475,2.745,2.745,0,0,1-2.024.551,3.287,3.287,0,0,1-1.758-.993,16.735,16.735,0,0,1-1.2-1.411c-1.488-1.862-2.873-3.6-4.141-5.184-2.483-3.137-4.5-5.689-5.942-7.512q-.99-1.281-1.586-2.054a4.938,4.938,0,0,1-.519-.743,4.885,4.885,0,0,1,.617.664l1.677,1.982c1.481,1.791,3.551,4.3,6.1,7.384,1.287,1.571,2.692,3.291,4.2,5.136.749.9,1.507,1.993,2.636,2.182s2.163-.808,2.934-1.834c3.2-4.339,6.722-9.114,10.436-14.149l.266-.362.257.373c.409.592.847,1.229,1.289,1.869a169.788,169.788,0,0,0,13,16.376l-.386-.035a171.218,171.218,0,0,0,14.4-12.3c1.668-1.588,2.954-2.871,3.836-3.744.412-.407.745-.736,1.009-1a2.028,2.028,0,0,1,.37-.322" transform="translate(182.433 98.477)" fill="#263238"/>
            <g id="Grupo_1103733" data-name="Grupo 1103733" transform="translate(242.096 215.941)" opacity="0.3">
              <g id="Grupo_1103732" data-name="Grupo 1103732" transform="translate(0)">
                <g id="Grupo_1103731" data-name="Grupo 1103731" clip-path="url(#clip-path-4)">
                  <path id="Trazado_914421" data-name="Trazado 914421" d="M46.481,131.166s5.533,6.816,7.088,5.1,9.75-14.4,10.732-14.932S75.19,138.6,79.078,137.359s17.748-15.1,17.748-15.1L97.1,116.8,76.9,135.178,62.565,116.919,50.5,132.614s-2.557,2-4.023-1.448" transform="translate(-46.482 -116.803)"/>
                </g>
              </g>
            </g>
            <path id="Trazado_914422" data-name="Trazado 914422" d="M65.135,315.338a12.189,12.189,0,0,1-.018-2.01q.069-2.135.185-5.748c.207-5.11.5-12.3.86-21.131.749-17.842,1.754-42.49,2.7-69.719s1.636-51.9,2.122-69.75c.251-8.835.457-16.027.6-21.139q.133-3.613.213-5.748a12.431,12.431,0,0,1,.157-2,12.317,12.317,0,0,1,.091,2.008q.006,2.135.018,5.75c-.052,5.116-.124,12.309-.213,21.15-.263,17.859-.823,42.529-1.764,69.774S68,268.655,67.028,286.49c-.521,8.826-.947,16.008-1.25,21.115q-.261,3.608-.416,5.737a12.177,12.177,0,0,1-.227,2" transform="translate(186.232 100.232)" fill="#263238"/>
            <g id="Grupo_1103736" data-name="Grupo 1103736" transform="translate(193.221 329.164)" opacity="0.3">
              <g id="Grupo_1103735" data-name="Grupo 1103735" transform="translate(0)">
                <g id="Grupo_1103734" data-name="Grupo 1103734" clip-path="url(#clip-path-5)">
                  <path id="Trazado_914423" data-name="Trazado 914423" d="M108.061,178.046c3.511,52.632,4.023,80.785-4.712,132.808-3.918-.749-9.273-2.172-15-3.768,7.646-50.153,12.063-78.887,19.71-129.04" transform="translate(-88.353 -178.046)"/>
                </g>
              </g>
            </g>
            <path id="Trazado_914424" data-name="Trazado 914424" d="M108.8,291.508s-.355-6.3-.458-8l-1.3-25.681-3.115-53.712L89.64,142.936c2.614-8.386,9.486-17.378,17.417-20.127.625-.216,1.265-.392,1.906-.553l17.46-4.382,13.511-2.644,21.08-12.509s-19.366,117.165-20.608,147.307S127.44,374.512,127.44,374.512A184.99,184.99,0,0,1,78.62,354.9Z" transform="translate(72.281 87.186)" fill="#ee4f47"/>
            <path id="Trazado_914425" data-name="Trazado 914425" d="M99.089,229.352a1.307,1.307,0,0,1-.1-.322c-.063-.253-.142-.569-.24-.961-.207-.9-.494-2.137-.858-3.71-.671-3.237-1.627-7.931-2.5-13.781s-1.754-12.841-2.435-20.63S91.72,173.578,91.3,164.569c-.152-3.365-.3-6.67-.444-9.9q-.105-2.418-.211-4.774-.058-1.179-.115-2.342l-.035-1.165.006-.592c0-.1.011-.2.024-.314a1,1,0,0,1,.052-.216.489.489,0,0,1,.078-.122.351.351,0,0,1,.344-.092c.231.113.161.129.224.189l-.44-.094,6.927-4.836.044.5q-3.935-1.841-7.528-3.526l-.2-.094.055-.214c1.131-4.282,2.492-8.079,3.679-11.446s2.305-6.26,3.228-8.641,1.673-4.235,2.2-5.495c.253-.6.455-1.069.61-1.431a2.584,2.584,0,0,1,.235-.479,2.6,2.6,0,0,1-.159.508c-.135.372-.312.854-.534,1.461-.492,1.326-1.185,3.189-2.06,5.544-.878,2.394-1.943,5.308-3.106,8.676s-2.477,7.184-3.57,11.433l-.146-.307q3.6,1.658,7.549,3.483l.457.211-.412.292q-3.331,2.343-6.909,4.862l-.44-.1c-.006.039.216-.161.2-.163.006-.052,0,.009.022,0a.213.213,0,0,0,.129.072l.1.039,0,0,0,.011-.007.048-.018.257,0,.558.037,1.148q.061,1.159.12,2.335.108,2.357.22,4.779c.148,3.224.3,6.528.451,9.893.422,9.005.947,17.576,1.6,25.358s1.466,14.768,2.294,20.615,1.7,10.547,2.3,13.8c.312,1.583.56,2.83.74,3.733.072.4.129.717.177.974a1.393,1.393,0,0,1,.039.336" transform="translate(112.191 92.93)" fill="#263238"/>
            <path id="Trazado_914426" data-name="Trazado 914426" d="M9.149,127.385l2.034-26.143c5.792,5.182,16.657,15.169,16.657,15.169l46.38,17L57.736,300l23.921,56.154C67.381,363.289,46.128,372.509,30.9,376.21c-7.227-35.025-8.277-34.215-18.149-88.06s-3.6-160.765-3.6-160.765" transform="translate(283.708 85.93)" fill="#ee4f47"/>
            <g id="Grupo_1103739" data-name="Grupo 1103739" transform="translate(235.813 390.273)" opacity="0.3">
              <g id="Grupo_1103738" data-name="Grupo 1103738">
                <g id="Grupo_1103737" data-name="Grupo 1103737" clip-path="url(#clip-path-6)">
                  <path id="Trazado_914427" data-name="Trazado 914427" d="M13.386,224.544s-3.165,4.115,3.8,5.38,85.877-4.566,85.877-4.566l29.02,13.751-3.768-10.383L107.8,211.1Z" transform="translate(-12.668 -211.099)"/>
                </g>
              </g>
            </g>
            <path id="Trazado_914428" data-name="Trazado 914428" d="M26.983,118.644s14.054,6.9,16.162,26.535c1.856,17.275,4.9,123.314,4.524,131.874s-7.757,32.723-21.006,33.564C5.755,311.945,0,295.811,0,295.811l5.618-54.167Z" transform="translate(330.945 100.7)" fill="#ee4f47"/>
            <path id="Trazado_914429" data-name="Trazado 914429" d="M35.088,223.662a1.225,1.225,0,0,1,.035-.32c.044-.244.1-.549.166-.923.172-.86.407-2.041.7-3.537.564-3.08,1.414-7.53,2.2-13.073,1.656-11.07,3.065-26.482,3.879-43.548.189-4.019.375-7.95.555-11.751q.128-2.851.251-5.6.072-1.37.144-2.714c.017-.447.033-.889.05-1.331l0-.649c0-.1-.007-.211-.017-.3a.92.92,0,0,0-.017-.1c0-.013,0,0,.02.033s0,.007.043.044a.252.252,0,0,0,.187.065c.074.018.192-.087.174-.074l.015-.018-.429.092q-3.616-2.546-6.907-4.866l-.394-.277.436-.2,7.552-3.478-.135.283a89.408,89.408,0,0,1-1.536-9.194c-.351-2.72-.693-5.058-1.067-6.957a42.3,42.3,0,0,0-1.07-4.326l-.361-1.106a1.707,1.707,0,0,1-.1-.386,1.686,1.686,0,0,1,.172.361c.1.244.261.6.429,1.087a35.016,35.016,0,0,1,1.2,4.315c.418,1.9.8,4.243,1.187,6.959.4,2.712.8,5.809,1.623,9.127l.05.2-.185.087-7.526,3.533.043-.479q3.3,2.3,6.931,4.831l-.429.094.063-.085a.386.386,0,0,1,.24-.118.367.367,0,0,1,.226.081.307.307,0,0,1,.065.076.331.331,0,0,1,.052.109,1.042,1.042,0,0,1,.044.224c.013.126.017.24.02.355v.677c-.015.446-.031.895-.046,1.346q-.067,1.345-.135,2.718-.116,2.745-.237,5.6c-.176,3.8-.359,7.735-.544,11.756a419.027,419.027,0,0,1-4.069,43.583c-.845,5.543-1.766,9.987-2.4,13.054-.348,1.486-.621,2.662-.821,3.514-.092.37-.168.667-.229.91a1.213,1.213,0,0,1-.1.305" transform="translate(269.654 92.894)" fill="#263238"/>
            <path id="Trazado_914430" data-name="Trazado 914430" d="M133.258,147.388l-99.341,5.069a4.577,4.577,0,0,0-4.334,4.313L22.989,274.608a4.575,4.575,0,0,0,4.807,4.823l96.391-5.04a4.575,4.575,0,0,0,4.321-4.2l9.543-117.866a4.574,4.574,0,0,0-4.792-4.938" transform="translate(198.091 125.092)" fill="#263238"/>
            <path id="Trazado_914431" data-name="Trazado 914431" d="M30.718,133.417a6.4,6.4,0,0,1-.161,1.057q-.214,1.118-.581,3.01c-.525,2.67-1.266,6.43-2.176,11.052-1.814,9.336-4.187,22.261-6.456,36.593s-3.991,27.363-5.145,36.805c-.56,4.676-1.015,8.482-1.339,11.183q-.236,1.914-.375,3.041a6.674,6.674,0,0,1-.174,1.056,6.631,6.631,0,0,1,.046-1.069q.094-1.131.255-3.054c.229-2.651.616-6.482,1.135-11.211,1.039-9.458,2.7-22.5,4.962-36.853s4.716-27.262,6.644-36.58c.963-4.661,1.779-8.423,2.378-11.017q.441-1.877.7-2.982a6.437,6.437,0,0,1,.287-1.032" transform="translate(321.48 113.239)" fill="#263238"/>
            <path id="Trazado_914432" data-name="Trazado 914432" d="M66.259,193.262s5.72.331,10.782,8.8l9.68,6.16s8.471,13.311,0,25.744-18.7,1.869-18.7,1.869-10.231,5.071-13.091,4.186-22.248-11.309-25.084-13.7c-.841-.71-7.083-7.878-7.083-7.878s-8.648-1.854-9.639-3.836-1.061-6.522,4.77-6.082c0,0-5.674-1.712-6.334-4.572s.05-6.593,10.061-5.162,29.314,6.794,31.549,6.245a1.4,1.4,0,0,0-.22-2.529c-.719-.336-23.411-9.159-27.071-10.163-3.94-1.08-4.5-9.861,3.638-7.77s34.653,8.471,34.653,8.471Z" transform="translate(267.123 156.385)" fill="#ffc09d"/>
            <path id="Trazado_914433" data-name="Trazado 914433" d="M61.344,211.206a34.141,34.141,0,0,1-4.206-1.277c-2.577-.841-6.143-1.982-10.113-3.139S39.436,204.678,36.809,204a33.86,33.86,0,0,1-4.232-1.183,4.241,4.241,0,0,1,1.178.128c.751.124,1.83.331,3.16.614,2.657.564,6.308,1.451,10.292,2.61s7.537,2.376,10.081,3.328c1.272.477,2.294.882,2.993,1.181a4.333,4.333,0,0,1,1.063.525" transform="translate(257.074 172.133)" fill="#ff9b6c"/>
            <path id="Trazado_914434" data-name="Trazado 914434" d="M67.732,205.29a6.639,6.639,0,0,1-1.486-.1c-.952-.1-2.324-.287-4.016-.538-3.385-.5-8.044-1.314-13.15-2.407s-9.691-2.263-12.984-3.191c-1.647-.462-2.975-.858-3.884-1.154a6.636,6.636,0,0,1-1.4-.518,6.565,6.565,0,0,1,1.464.277l3.932.956c3.319.813,7.907,1.908,13,3s9.73,1.969,13.089,2.586c1.577.292,2.908.54,3.979.74a6.651,6.651,0,0,1,1.449.346" transform="translate(253.945 167.522)" fill="#ff9b6c"/>
            <path id="Trazado_914435" data-name="Trazado 914435" d="M29.765,200.429a3.282,3.282,0,0,1,.018,1.043,17.723,17.723,0,0,1-.377,2.812A25.088,25.088,0,0,1,19.3,219.615a17.744,17.744,0,0,1-2.435,1.455,3.283,3.283,0,0,1-.965.394c-.055-.1,1.257-.784,3.132-2.215a28,28,0,0,0,6.24-6.7,27.97,27.97,0,0,0,3.694-8.371c.575-2.289.684-3.762.8-3.753" transform="translate(319.451 170.116)" fill="#ff9b6c"/>
            <path id="Trazado_914436" data-name="Trazado 914436" d="M10.623,226.588c-.092-.081,1.241-1.372,2.744-3.9a22.92,22.92,0,0,0,3.2-10.839,22.926,22.926,0,0,0-2.516-11.02c-1.344-2.614-2.594-3.982-2.5-4.058a4.393,4.393,0,0,1,.9.926,18.735,18.735,0,0,1,1.991,2.919,21.889,21.889,0,0,1,2.758,11.253,21.907,21.907,0,0,1-3.453,11.057,18.9,18.9,0,0,1-2.169,2.788,4.354,4.354,0,0,1-.961.869" transform="translate(341.797 167.013)" fill="#263238"/>
            <path id="Trazado_914437" data-name="Trazado 914437" d="M34.9,192.91c-.076.105-1.621-1.087-4.422-2.453a32.132,32.132,0,0,0-5.1-1.947,35.573,35.573,0,0,0-6.565-1.178,35.714,35.714,0,0,0-6.668.189,32.1,32.1,0,0,0-5.328,1.17c-2.971.934-4.677,1.884-4.737,1.767a5.615,5.615,0,0,1,1.168-.712,11.683,11.683,0,0,1,1.446-.7,20.2,20.2,0,0,1,1.98-.784,29.226,29.226,0,0,1,5.389-1.324,33.495,33.495,0,0,1,6.8-.242,33.589,33.589,0,0,1,6.685,1.248,29.164,29.164,0,0,1,5.132,2.111,19.784,19.784,0,0,1,1.843,1.07,11.812,11.812,0,0,1,1.324.91,5.623,5.623,0,0,1,1.05.878" transform="translate(339.901 158.394)" fill="#263238"/>
            <g id="Grupo_1103742" data-name="Grupo 1103742" transform="translate(305.955 204.482)" opacity="0.3">
              <g id="Grupo_1103741" data-name="Grupo 1103741" transform="translate(0)">
                <g id="Grupo_1103740" data-name="Grupo 1103740" clip-path="url(#clip-path-7)">
                  <path id="Trazado_914438" data-name="Trazado 914438" d="M36.331,110.605s8.375,19.53,7.212,21.157-5.58,2.79-5.58,2.79,7.212,3.117,7.206,5.886c-.009,5.511-7.735,38.158-7.735,38.158l1.906-39.869-6.918-4.849,7.539-3.505Z" transform="translate(-32.423 -110.605)"/>
                </g>
              </g>
            </g>
            <path id="Trazado_914439" data-name="Trazado 914439" d="M216.318,185.665s-11.895-15.524-14.847-20.985-4.923-7.513-9.54-11.266-17.347-12.721-21.958-12.169-22.788-1.6-22.788-1.6l13.709,21.54s-4.134,15.042-.917,18.4,2.769,2.585,7.365,4.082,21.9,2.505,22.15,2.995,10.068,15.853,10.068,15.853Z" transform="translate(-109.783 118.524)" fill="#ffc09d"/>
            <path id="Trazado_914440" data-name="Trazado 914440" d="M225.662,159.358l-46.539-25.79-1.388-2.784a.7.7,0,0,1,.592-1.015l2.989-.157,46.539,25.79Z" transform="translate(-177.661 110.009)" fill="#263238"/>
            <path id="Trazado_914441" data-name="Trazado 914441" d="M180.9,137.3s3.7-1.427,6.609,3.551a94.26,94.26,0,0,1,4.6,8.824,33.93,33.93,0,0,0,3.429.749l4.548,6.363-1.375,4.043s-9.336-1.712-11.1-4.422-7.034-14.711-7.28-16.7.577-2.411.577-2.411" transform="translate(-154.732 116.374)" fill="#ffc09d"/>
            <path id="Trazado_914442" data-name="Trazado 914442" d="M180.889,170.865l-1.86-3.413,3.232-3.4s6.478,2.533,8.974-.41,1.793-3.235,1.793-3.235l-8.53-2.995,5.276-1.019s6.992,2.818,8.6-1.292l-.263-2.5s-6.585-2.159-9.7-2.442-12.854.66-12.854.66l8.981-2.329a14.647,14.647,0,0,0,5.715-.183,2.626,2.626,0,0,0,.29-4.888,23.535,23.535,0,0,0-7.018-2.122c-3.152-.209-13.71,1.15-16.4,3.407s-3.106,3.348-2.344,6.138,3.755,7.621,3.755,7.621-.085,3.8,1.436,6.082c0,0-1.821,6.238,3.96,13.653" transform="translate(-123.737 119.91)" fill="#ffc09d"/>
            <path id="Trazado_914443" data-name="Trazado 914443" d="M174.087,178.432a4.192,4.192,0,0,1-.651-.751,17.341,17.341,0,0,1-1.6-2.4,17.715,17.715,0,0,1-1.762-4.3,13.777,13.777,0,0,1-.25-6.288l.041.266a11.951,11.951,0,0,1-1.542-6.265l.054.2c-.873-1.414-1.738-2.912-2.551-4.546a12.7,12.7,0,0,1-1.656-5.546,4.452,4.452,0,0,1,1.394-2.888,9.787,9.787,0,0,1,2.5-2.008A25.709,25.709,0,0,1,174.323,142a57.638,57.638,0,0,1,6.763-.921,15.685,15.685,0,0,1,3.611.054,20.818,20.818,0,0,1,3.537.956c.577.205,1.15.425,1.717.666a6.42,6.42,0,0,1,1.76.935,3.191,3.191,0,0,1,.569,4.056,3.046,3.046,0,0,1-1.771,1.327,10.125,10.125,0,0,1-1.962.344,16.749,16.749,0,0,1-3.947-.159l.229-.007-3.659.948q-2.687.7-5.321,1.377l-.187-1.058c4.028-.351,7.944-.7,11.828-.7a24.134,24.134,0,0,1,5.672.978c1.8.481,3.548,1,5.258,1.56l.311.1.033.325c.087.847.17,1.675.253,2.5l.013.124-.044.107a3.845,3.845,0,0,1-1.9,2.026,5.716,5.716,0,0,1-2.577.5,14.149,14.149,0,0,1-4.748-.987l.259.026q-2.734.513-5.278.989l.061-.83,6.358,2.276c.5.181.995.355,1.483.531l.364.131.181.067.089.031.052.02a.465.465,0,0,1,.183.137c.309.643.02.826-.039,1.115A12.1,12.1,0,0,1,191.739,164a4.38,4.38,0,0,1-2.492,1.435,8.742,8.742,0,0,1-2.594.124,17.1,17.1,0,0,1-4.324-1.046l.266-.057c-1.3,1.322-2.39,2.429-3.289,3.341l.024-.187c.566,1.107,1,1.958,1.335,2.616a3.8,3.8,0,0,1,.381.874,4.255,4.255,0,0,1-.527-.795c-.37-.638-.85-1.464-1.473-2.54l-.059-.1.083-.091,3.171-3.457.105-.116.161.057a17.049,17.049,0,0,0,4.195.906c1.516.087,3.4-.041,4.505-1.409a11.853,11.853,0,0,0,1.584-2.309,1.586,1.586,0,0,0,.1-.285c.026-.113-.057-.072.209-.185l.028-.028.017-.022c.144-.222-.192.283-.14.24l.043.024-.039-.015-.091-.031-.181-.061-.364-.126c-.49-.17-.985-.338-1.488-.512l-6.369-2.193L183,157.53l1.573-.312q2.543-.5,5.269-1.041l.124-.026.135.05a13.428,13.428,0,0,0,4.407.884,3.467,3.467,0,0,0,3.557-1.93l-.03.231c-.089-.821-.179-1.649-.27-2.5l.342.423c-1.686-.538-3.429-1.052-5.206-1.516a23.237,23.237,0,0,0-5.43-.923c-3.768.006-7.713.36-11.706.717l-.187-1.058q2.629-.685,5.319-1.381c1.253-.327,2.5-.649,3.661-.95l.107-.026.124.018a15.928,15.928,0,0,0,3.666.152,9.108,9.108,0,0,0,1.756-.305,1.956,1.956,0,0,0,1.163-.865,2.124,2.124,0,0,0-.372-2.7,5.614,5.614,0,0,0-1.461-.754c-.551-.233-1.107-.453-1.662-.653a20.663,20.663,0,0,0-3.352-.923,15.1,15.1,0,0,0-3.374-.059,56.5,56.5,0,0,0-6.646.871,24.694,24.694,0,0,0-6.016,1.769,8.874,8.874,0,0,0-2.274,1.8,3.567,3.567,0,0,0-1.18,2.315,12.189,12.189,0,0,0,1.512,5.147c.776,1.6,1.618,3.111,2.453,4.507l.055.1v.109a11.477,11.477,0,0,0,1.329,5.9l.074.12-.033.142a13.537,13.537,0,0,0,.12,6,18.24,18.24,0,0,0,1.583,4.256c1.152,2.207,2.032,3.256,1.952,3.313" transform="translate(-123.895 119.675)" fill="#ff9b6c"/>
            <path id="Trazado_914444" data-name="Trazado 914444" d="M158.907,160.991c-.072-.107,1.082-1.065,3.2-2.226a32.827,32.827,0,0,1,18.242-3.777c2.4.227,3.842.649,3.818.776-.031.346-5.931-.658-12.993.849-7.079,1.42-12.1,4.683-12.263,4.378" transform="translate(-99.294 131.446)" fill="#ff9b6c"/>
            <path id="Trazado_914445" data-name="Trazado 914445" d="M187.015,150.574c-.068.179-1.057-.19-2.666-.338a9.592,9.592,0,0,0-5.9,1.612,29.96,29.96,0,0,0-4.84,4.2c-1.174,1.192-1.939,1.912-2.056,1.812s.444-.98,1.485-2.316a20.548,20.548,0,0,1,4.833-4.611,9.136,9.136,0,0,1,6.58-1.457,4.716,4.716,0,0,1,2.566,1.094" transform="translate(-125.505 126.756)" fill="#ff9b6c"/>
            <path id="Trazado_914446" data-name="Trazado 914446" d="M184.291,146.46c.035.287-2.331.8-4.328,2.956-2.043,2.063-3.037,4.3-3.337,4.18-.266-.059.324-2.655,2.568-4.94a8.05,8.05,0,0,1,3.415-2.137c1.013-.287,1.671-.19,1.682-.059" transform="translate(-132.077 124.202)" fill="#ff9b6c"/>
            <path id="Trazado_914447" data-name="Trazado 914447" d="M204.014,116.8l-8.541,14.182-29.9,85.246-28.014-28.922-28.981,28.922s35.376,47.558,41.462,55.176c9.724,12.174,36.831,11.374,46.589-10.253,8.373-18.56,14.834-31.128,14.834-31.128l-1.6-35.944Z" transform="translate(-33.551 99.138)" fill="#ee4f47"/>
            <path id="Trazado_914448" data-name="Trazado 914448" d="M129.571,134.785a2.039,2.039,0,0,0-.02.518c.009.4.022.895.037,1.516.055,1.4.135,3.348.233,5.82.25,5.127.6,12.418,1.041,21.4.974,18.127,2.313,43.047,3.794,70.575.588,10.418,1.155,20.462,1.679,29.71l.043-.224c-8.682,18.4-16.16,34.248-21.5,45.576-2.6,5.6-4.683,10.07-6.145,13.219q-1.018,2.246-1.6,3.546a8.754,8.754,0,0,0-.507,1.248,8.674,8.674,0,0,0,.649-1.18q.638-1.278,1.74-3.481c1.522-3.121,3.683-7.558,6.386-13.1,5.422-11.29,13.012-27.09,21.817-45.428l.05-.105-.006-.118c-.508-9.247-1.061-19.292-1.634-29.711-1.59-27.521-3.028-52.436-4.076-70.558-.564-8.972-1.022-16.258-1.344-21.381-.176-2.468-.314-4.411-.414-5.811-.055-.617-.1-1.115-.133-1.51a2.085,2.085,0,0,0-.078-.512" transform="translate(44.286 114.4)" fill="#263238"/>
            <path id="Trazado_914449" data-name="Trazado 914449" d="M135.1,198.362a16.047,16.047,0,0,0,.094-4.123c-.094-2.544-.366-6.051-.891-9.9s-1.207-7.3-1.8-9.776a16,16,0,0,0-1.2-3.945c-.275.063,1.006,6.2,2.041,13.853,1.057,7.646,1.47,13.9,1.751,13.892" transform="translate(0.726 144.813)" fill="#263238"/>
            <path id="Trazado_914450" data-name="Trazado 914450" d="M77.6,45.961S66.185,88.645,65.2,118.847l-.327,10.063s25.191,20.917,46.321,22.205l17.709-43.548Z" transform="translate(129.798 39.01)" fill="#263238"/>
            <path id="Trazado_914451" data-name="Trazado 914451" d="M147.81,92.682c-4.816-20.819-6.665-45.051-23.977-58.624-12.847-10.074-27.486-12.882-43.8-12.2-8.031.336-17.1,4.043-24.095,8C46.35,35.289,42.287,46.3,37.659,56.3c-9.272,20.039-8.1,47.177-1.817,54.72l83.743,44.222c16.722-8.7,27.2-12.169,29.87-34.459a81.645,81.645,0,0,0-1.645-28.1" transform="translate(171.484 18.47)" fill="#263238"/>
            <path id="Trazado_914452" data-name="Trazado 914452" d="M127.087,44.593l-52.7-15.55C57.407,26.57,45.246,47.115,43.5,64.181c-1.947,18.963-3.574,42.187-1.88,56.459,3.407,28.7,25.121,33.187,25.121,33.187.011-.1-.152,11.516-.152,11.516l24,25.505,36.687-24.513L135.662,55.12a10.039,10.039,0,0,0-8.575-10.527" transform="translate(167.339 24.478)" fill="#ffc09d"/>
            <path id="Trazado_914453" data-name="Trazado 914453" d="M84.144,65.354a3.66,3.66,0,0,0,3.381,3.829,3.5,3.5,0,0,0,3.9-3.15A3.665,3.665,0,0,0,88.048,62.2a3.506,3.506,0,0,0-3.9,3.152" transform="translate(131.666 52.78)" fill="#263238"/>
            <path id="Trazado_914454" data-name="Trazado 914454" d="M81.111,58.9c.434.5,3.287-1.448,7.221-1.281,3.934.107,6.742,2.246,7.19,1.782.218-.205-.211-1.085-1.433-2.05a10.057,10.057,0,0,0-5.731-2.017,9.655,9.655,0,0,0-5.77,1.616c-1.248.882-1.692,1.729-1.477,1.95" transform="translate(133.208 46.958)" fill="#263238"/>
            <path id="Trazado_914455" data-name="Trazado 914455" d="M65.875,65.353a3.661,3.661,0,0,0,3.381,3.829,3.5,3.5,0,0,0,3.9-3.148,3.662,3.662,0,0,0-3.38-3.831,3.5,3.5,0,0,0-3.9,3.15" transform="translate(183.707 52.781)" fill="#263238"/>
            <path id="Trazado_914456" data-name="Trazado 914456" d="M60.168,59.147c.436.5,3.291-1.446,7.223-1.281,3.934.109,6.742,2.248,7.188,1.782.218-.205-.205-1.083-1.433-2.048a10.024,10.024,0,0,0-5.729-2.017A9.649,9.649,0,0,0,61.645,57.2c-1.244.882-1.69,1.729-1.477,1.95" transform="translate(192.868 47.171)" fill="#263238"/>
            <path id="Trazado_914457" data-name="Trazado 914457" d="M84.461,86.334c.026-.224-2.4-.743-6.347-1.405-1-.144-1.945-.381-2.087-1.072-.209-.738.255-1.8.788-2.952q1.561-3.594,3.274-7.536c4.555-10.734,7.9-19.577,7.462-19.756s-4.48,8.375-9.035,19.109q-1.647,3.971-3.15,7.585c-.425,1.128-1.13,2.4-.677,3.923a2.532,2.532,0,0,0,1.6,1.536,6.845,6.845,0,0,0,1.7.3c3.98.372,6.456.488,6.48.264" transform="translate(153.245 45.502)" fill="#263238"/>
            <path id="Trazado_914458" data-name="Trazado 914458" d="M57.454,100.432a72.6,72.6,0,0,0,38.595-8.685s-10.227,19.586-38.665,15.794Z" transform="translate(176.506 77.871)" fill="#ff9b6c"/>
            <path id="Trazado_914459" data-name="Trazado 914459" d="M81.072,77.326a5.709,5.709,0,0,0-4.642-2.771,7.421,7.421,0,0,0-6.894,3.084,4.609,4.609,0,0,0-.431,3.319c.226.575.044.29.468.7a12.975,12.975,0,0,0,5.178,3.5,5.577,5.577,0,0,0,5.968-1.934,5.693,5.693,0,0,0,.353-5.894" transform="translate(169.398 63.256)" fill="#ff9b6c"/>
            <path id="Trazado_914460" data-name="Trazado 914460" d="M82.359,73.122c-.638-.067-.837,4.206-4.631,7.072s-8.318,2.193-8.377,2.788c-.072.264.976.876,2.9,1.013a10.64,10.64,0,0,0,6.983-2.084,9.277,9.277,0,0,0,3.609-5.942c.244-1.779-.185-2.858-.479-2.847" transform="translate(167.527 62.063)" fill="#263238"/>
            <path id="Trazado_914461" data-name="Trazado 914461" d="M59.17,50.764c.283,1.1,4.247.978,8.791,1.98,4.566.911,8.144,2.618,8.848,1.721.316-.431-.233-1.5-1.632-2.675A15.67,15.67,0,0,0,61.738,48.97c-1.754.516-2.684,1.272-2.568,1.793" transform="translate(192.376 41.149)" fill="#263238"/>
            <path id="Trazado_914462" data-name="Trazado 914462" d="M80.91,53.943c.893.775,3.76-.579,7.362-1.143,3.583-.678,6.748-.37,7.317-1.4.244-.5-.366-1.313-1.823-1.958a11.234,11.234,0,0,0-6.2-.584,11.084,11.084,0,0,0-5.622,2.631c-1.144,1.094-1.431,2.065-1.03,2.45" transform="translate(133.736 41.318)" fill="#263238"/>
            <path id="Trazado_914463" data-name="Trazado 914463" d="M74.3,27.287c-.048.205-.087.414-.135.619l.1.041c.011-.22.024-.44.035-.66" transform="translate(167.243 23.16)" fill="#263238"/>
            <path id="Trazado_914464" data-name="Trazado 914464" d="M105.525,166.845a4.771,4.771,0,0,1-5.981-3.771,58.734,58.734,0,0,1-.144-17.352c.924-7.918,6.3-16.21,6.966-24.154,1.276-15.162-.061-23.659-1.754-36.389-7.136-.88-13.8-5.167-18.55-10.708-5.72-6.67-9.179-14.934-12.548-23.049A38.6,38.6,0,0,0,81.275,73.59,10.4,10.4,0,0,1,72.386,70.7a23.206,23.206,0,0,1-5.217-8.1,63.269,63.269,0,0,1-5.053-22.817A81.974,81.974,0,0,0,65.844,73.1c-2-.616-4.136-.065-6.2.235s-4.437.24-5.9-1.252a7.445,7.445,0,0,1-1.616-3.8,85.453,85.453,0,0,1-.947-29.029c-2.544,5.21-5.066,10.479-6.543,16.086s-1.858,11.634-.12,17.166a2.516,2.516,0,0,1-3.542-.022A6.012,6.012,0,0,1,39.419,68.9c-.751-4.792.1-9.673.941-14.45-2.853,5.056-3.8,10.922-5.376,16.508s-4.089,11.314-8.942,14.5a76.068,76.068,0,0,1,.712-21.891c.96-5.979,3.8-11.912,6.415-17.371,2.934-6.118,7.01-12.108,11.566-16.1C53.141,22.728,56.651,25.9,62.018,28.7l.634.266c.018-.131.026-.264.044-.4l.242-1.143a80.54,80.54,0,0,1,42.4,1.984c10.116,3.3,11.046,25.08,13.514,14.729,1.492-6.262,9.612-.545,9.712-.366,11.93,21.523,24.579,55.664,25.16,109.613Z" transform="translate(177.657 21.636)" fill="#263238"/>
            <path id="Trazado_914465" data-name="Trazado 914465" d="M78.343,74.353A31.16,31.16,0,0,1,52.165,90.167a1.156,1.156,0,0,1,0-2.311,28.8,28.8,0,0,0,24.184-14.67c.721-1.3,2.718-.137,1.995,1.167" transform="translate(205.769 61.635)" fill="#e0e0e0"/>
            <path id="Trazado_914466" data-name="Trazado 914466" d="M67.378,89.019l5.091-.8a4.561,4.561,0,1,0-1.412-9.013l-5.091.8a4.562,4.562,0,0,0,1.412,9.015" transform="translate(187.494 67.181)" fill="#ee4f47"/>
            <path id="Trazado_914467" data-name="Trazado 914467" d="M34.142,78.99A20.958,20.958,0,1,0,55.1,58.032,20.957,20.957,0,0,0,34.142,78.99" transform="translate(239.465 49.255)" fill="#ee4f47"/>
            <path id="Trazado_914468" data-name="Trazado 914468" d="M82.8,91.807s3.7-50.022-31.105-69.023l-9.418-1.022S78.208,41.946,70.7,96.5Z" transform="translate(217.581 18.47)" fill="#ee4f47"/>
          </g>
        </g>
        <g id="Grupo_1103746" data-name="Grupo 1103746">
          <g id="Grupo_1103745" data-name="Grupo 1103745" clip-path="url(#clip-path-2)">
            <path id="Trazado_914469" data-name="Trazado 914469" d="M203.335,134.069l-15.03-7.532a64.11,64.11,0,1,1,20.932-9.46l.035-.013Z" transform="translate(-59.544 0.334)" fill="#fff"/>
            <path id="Trazado_914470" data-name="Trazado 914470" d="M203.7,134.4a7.786,7.786,0,0,0,.42-1.033c.3-.791.69-1.851,1.194-3.2,1.078-2.964,2.623-7.206,4.611-12.668a.3.3,0,0,0-.181-.39.317.317,0,0,0-.211,0l-.033.011.275.542a63.724,63.724,0,0,0,20.66-23.1,65.866,65.866,0,0,0,6.539-19.434,64.483,64.483,0,0,0-.457-23.307A65.844,65.844,0,0,0,226.4,28.126,63.187,63.187,0,0,0,206.11,9.04,66.086,66.086,0,0,0,177.818.2a64.88,64.88,0,0,0-55.413,24.533A65.934,65.934,0,0,0,109.85,51.912a63.039,63.039,0,0,0,.684,28.11A65.932,65.932,0,0,0,121.62,103.5a64.692,64.692,0,0,0,17.247,15.9q2.415,1.362,4.753,2.675c1.577.837,3.228,1.461,4.792,2.18a58.172,58.172,0,0,0,9.434,3.11,63.712,63.712,0,0,0,30.9-.207l-.205-.024,11.314,5.476,2.891,1.37a7.49,7.49,0,0,0,.958.42,10.944,10.944,0,0,0-1.009-.568c-.721-.379-1.677-.884-2.893-1.527l-10.993-5.7a.3.3,0,0,0-.207-.022,63.913,63.913,0,0,1-30.523-.153,57.545,57.545,0,0,1-9.262-3.137c-1.534-.721-3.152-1.342-4.7-2.178q-2.288-1.306-4.653-2.659a63.783,63.783,0,0,1-16.838-15.7A64.862,64.862,0,0,1,111.858,79.7a61.778,61.778,0,0,1-.592-27.5A64.6,64.6,0,0,1,123.579,25.66,63.514,63.514,0,0,1,177.711,1.693a64.773,64.773,0,0,1,27.663,8.591,61.946,61.946,0,0,1,19.9,18.615,64.8,64.8,0,0,1,10.011,23.174,63.6,63.6,0,0,1,.575,22.871,65.367,65.367,0,0,1-6.291,19.164,63.907,63.907,0,0,1-20.14,23.048.306.306,0,0,0-.081.425.311.311,0,0,0,.359.116l.033-.013-.392-.39c-1.815,5.435-3.224,9.658-4.21,12.609-.458,1.4-.817,2.5-1.085,3.319a12.093,12.093,0,0,0-.351,1.18" transform="translate(-59.912 0.001)" fill="#263238"/>
            <path id="Trazado_914471" data-name="Trazado 914471" d="M128.754,39.76a7,7,0,1,0,7-7,7,7,0,0,0-7,7" transform="translate(-2.145 27.805)" fill="#263238"/>
            <path id="Trazado_914472" data-name="Trazado 914472" d="M141.51,39.76a7,7,0,1,0,7-7,7,7,0,0,0-7,7" transform="translate(-38.484 27.805)" fill="#263238"/>
            <path id="Trazado_914473" data-name="Trazado 914473" d="M153.929,39.76a7,7,0,1,0,7-7,7,7,0,0,0-7,7" transform="translate(-73.863 27.805)" fill="#263238"/>
          </g>
        </g>
      </g>
    </g>
  </g>
</svg>
