<svg xmlns="http://www.w3.org/2000/svg" xmlns:xlink="http://www.w3.org/1999/xlink" width="299.22" height="249.293" viewBox="0 0 299.22 249.293">
  <defs>
    <clipPath id="clip-path">
      <rect id="Rectángulo_404299" data-name="Rectángulo 404299" width="279.309" height="223.803" fill="none"/>
    </clipPath>
    <clipPath id="clip-path-2">
      <rect id="Rectángulo_404259" data-name="Rectángulo 404259" width="279.308" height="223.803" fill="none"/>
    </clipPath>
    <clipPath id="clip-path-3">
      <path id="Trazado_913611" data-name="Trazado 913611" d="M380.322,685.724c-5.821,9.979-2.661,31.767-2.162,39.916.319,5.205-.36,14.512-.417,17.643,9.232,5.346,20.511,4.519,31.847,4.927,1.432-1.912,1.235-4.679,1.335-7.269.166-4.324-1.829-19.459-1.5-23.617s2.994-9.813,1.164-14.3-12.973-16.466-12.973-16.466-6.182-3.912-11.431-3.913a6.311,6.311,0,0,0-5.866,3.081" transform="translate(-376.857 -682.643)" fill="#ffbd45"/>
    </clipPath>
    <clipPath id="clip-path-4">
      <path id="Trazado_913612" data-name="Trazado 913612" d="M833.815,736.985s-1.22,7.318-1.885,8.427-3.326,2.883-6.763,5.211c-1.773,1.2-8.427,5.876-9.092,6.1a1.252,1.252,0,0,1-1.109-.111l-3.216-2.439s-9.9,8.45-5.877,11.975c5.322,4.657,8.2,6.764,15.745,1.774,7.288-4.823,13.195-14.525,14.636-16.964s5.211-5.433,5.655-8.76-2.55-10.09-2.55-10.09Z" transform="translate(-804.91 -732.106)" fill="none"/>
    </clipPath>
    <linearGradient id="linear-gradient" x1="-0.922" y1="3.099" x2="-0.921" y2="3.099" gradientUnits="objectBoundingBox">
      <stop offset="0" stop-color="#e26b4c"/>
      <stop offset="0.386" stop-color="#df6849"/>
      <stop offset="0.654" stop-color="#d66142"/>
      <stop offset="0.886" stop-color="#c65537"/>
      <stop offset="1" stop-color="#bc4d2f"/>
    </linearGradient>
    <clipPath id="clip-path-6">
      <path id="Trazado_913646" data-name="Trazado 913646" d="M517.344,771.268c-3.16,4.99-.5,12.807,2.162,16.8s15.468,14.969,15.468,14.969,5.618-1.525,8.815-5.655c3.992-5.156,3.825-9.813,3.825-9.813s-16.3-18.794-19.625-19.792a13.388,13.388,0,0,0-3.811-.651c-2.367,0-4.805.941-6.833,4.144" transform="translate(-515.908 -767.124)" fill="#ffbd45"/>
    </clipPath>
    <clipPath id="clip-path-8">
      <path id="Trazado_913650" data-name="Trazado 913650" d="M503.311,524.371c-.225.563-1.126.9-1.126.9l5.29,3.264,5.853-.113-.338-1.126,2.589-10.581-9.118-4.277s-2.927,11.369-3.152,11.932" transform="translate(-502.185 -512.439)" fill="none"/>
    </clipPath>
    <linearGradient id="linear-gradient-2" x1="-2.118" y1="12.107" x2="-2.113" y2="12.107" gradientUnits="objectBoundingBox">
      <stop offset="0" stop-color="#e26b4c"/>
      <stop offset="0.765" stop-color="#bc4d2f"/>
      <stop offset="1" stop-color="#bc4d2f"/>
    </linearGradient>
    <clipPath id="clip-path-10">
      <path id="Trazado_913652" data-name="Trazado 913652" d="M531.553,314.531c-.469,8.333,6.83,12.089,12.793,12.089s7.812-5.361,8.1-12.551c.289-7.309-2.986-12.521-8.949-12.607l-.214,0c-7.622,0-11.326,5.952-11.727,13.07" transform="translate(-531.532 -301.461)" fill="none"/>
    </clipPath>
    <linearGradient id="linear-gradient-3" x1="-1.112" y1="6.184" x2="-1.109" y2="6.184" gradientUnits="objectBoundingBox">
      <stop offset="0" stop-color="#e26b4c"/>
      <stop offset="0.388" stop-color="#df6849"/>
      <stop offset="0.655" stop-color="#d66142"/>
      <stop offset="0.885" stop-color="#c65537"/>
      <stop offset="1" stop-color="#bc4d2f"/>
    </linearGradient>
    <clipPath id="clip-path-12">
      <path id="Trazado_913678" data-name="Trazado 913678" d="M1954.825,2173.839s-.18.809-1.348.539c-.613-.141-12.759-4.133-13.837-4.4a15.012,15.012,0,0,1-2.673-1.325c-.67.083-.523.738-1.045,1.194-2.258,1.957-3.986,4.627-3.47,7.7,2.884,1.568,10.9,7.156,13.3,8.693,4.762,3.055,9.842,4.86,12.444,4.987,5.526.27,8.446-3.37,10.782-5.8s4.268-7.368,4.268-7.368l-1.617-5.031-13.432-4.583Z" transform="translate(-1932.36 -2168.448)" fill="none"/>
    </clipPath>
    <linearGradient id="linear-gradient-4" x1="-3.638" y1="2.373" x2="-3.636" y2="2.373" gradientUnits="objectBoundingBox">
      <stop offset="0" stop-color="#ff7261"/>
      <stop offset="0.301" stop-color="#ff8270"/>
      <stop offset="0.639" stop-color="#ff8e7a"/>
      <stop offset="1" stop-color="#ff927e"/>
    </linearGradient>
    <clipPath id="clip-path-14">
      <path id="Trazado_913714" data-name="Trazado 913714" d="M2257.587,1791.325c-3.594,2.965-4.4,5.3-7.458,10.872-2.763,5.038-7.817,15.544-7.817,15.544s3.684,8,15.274,10.423c9.679,2.026,11.86-20.036,11.86-20.036l3.145-20.845-4.223-1.348s-7.188,2.426-10.782,5.391" transform="translate(-2242.313 -1785.934)" fill="#ee4f47"/>
    </clipPath>
    <clipPath id="clip-path-15">
      <path id="Trazado_913715" data-name="Trazado 913715" d="M2429.931,1767.071c-1.3.08-3.068.231-5.731.382a29.342,29.342,0,0,0-6.374.921c-.479.135-.947.289-1.407.464q-.4.15-.792.323c-2.561,1.124-4.982,2.955-8.138,5.974-2.27,2.17-2.885,12.047-3.174,19.608a.021.021,0,0,0,0,.01c-.081,2.118-.137,4.052-.2,5.585-.019.493-.035,1.076-.049,1.733-.017.833-.029,1.787-.038,2.827-.01,1.2-.016,2.516-.016,3.9,0,.179,0,.358,0,.539v.685c0,.987,0,2,.007,3.029v.168q0,.271,0,.542c0,.445,0,.892.005,1.34,0,.716.008,1.432.013,2.144,0,.185,0,.37,0,.554.007.923.014,1.835.021,2.728.033,4.05.074,7.664.1,9.779a59.833,59.833,0,0,0,44.374-1.006l-.11-3.835-.105-3.7,8.355-13.074s-.215-1.368-.584-3.546c-.383-2.269-.934-5.419-1.582-8.822-1.6-8.406-3.788-18.353-5.516-20.382-3.1-3.639-11.591-7.412-14.286-8.356-.187-.065-.364-.124-.533-.177s-.324-.1-.478-.137a8.129,8.129,0,0,0-2.186-.263c-.457,0-.969.023-1.584.061" transform="translate(-2404.015 -1767.01)" fill="#ee4f47"/>
    </clipPath>
    <clipPath id="clip-path-17">
      <path id="Trazado_913721" data-name="Trazado 913721" d="M2386.467,2136.193l1.348,5.84c-1.617,0-16.532,1.527-18.15,1.078s-5.481-1.8-5.481-1.8-4.672-1.8-5.391-2.156-6.829-.359-8.266-.27-2.875,0-3.414,1.258a4.146,4.146,0,0,0-.18,2.516,2.417,2.417,0,0,0-1.348,2.066,1.979,1.979,0,0,0,1.078,2.246,2.72,2.72,0,0,0,1.078,3.684c-.9,1.707.09,2.516.9,3.145a22.7,22.7,0,0,0,8.715,2.426c2.965,0,8.805-1.977,8.805-1.977a22.627,22.627,0,0,1,5.661.809c2.7.809,12.579,3.5,19.408,4.223s11.231-.629,13.028-2.156,3.055-3.594,2.785-9.435c-.278-6.02-3.863-18.419-3.863-18.419Z" transform="translate(-2345.55 -2129.275)" fill="none"/>
    </clipPath>
    <linearGradient id="linear-gradient-5" x1="-2.947" y1="1.879" x2="-2.945" y2="1.879" gradientUnits="objectBoundingBox">
      <stop offset="0" stop-color="#ff7261"/>
      <stop offset="0.083" stop-color="#ff8471"/>
      <stop offset="0.194" stop-color="#ff9680"/>
      <stop offset="0.33" stop-color="#ffa28b"/>
      <stop offset="0.517" stop-color="#ffa991"/>
      <stop offset="1" stop-color="#ffab93"/>
    </linearGradient>
    <clipPath id="clip-path-19">
      <path id="Trazado_913726" data-name="Trazado 913726" d="M2789.585,1776.114c-2.7,2.426-4.133,11.5-4.043,16.353s3.594,16.083,3.594,16.083a49.272,49.272,0,0,0,9.614-.359,50.074,50.074,0,0,0,10.894-3.437s-2-10.76-3.257-15.252-3.172-9.1-5.84-12.175c-3.5-4.043-17.588-8.963-17.588-8.963Z" transform="translate(-2782.959 -1768.364)" fill="#ee4f47"/>
    </clipPath>
    <clipPath id="clip-path-21">
      <path id="Trazado_913733" data-name="Trazado 913733" d="M2566,1598.694l-5.119,7.661,2.039,8.159a8.832,8.832,0,0,0,1.26,6.79,13.189,13.189,0,0,0,10.718-12.119l-3.1-11.052Z" transform="translate(-2560.882 -1598.134)" fill="none"/>
    </clipPath>
    <linearGradient id="linear-gradient-6" x1="-13.309" y1="4.19" x2="-13.304" y2="4.19" gradientUnits="objectBoundingBox">
      <stop offset="0" stop-color="#ff927e"/>
      <stop offset="1" stop-color="#ff7261"/>
    </linearGradient>
    <clipPath id="clip-path-23">
      <path id="Trazado_913735" data-name="Trazado 913735" d="M2380.515,1381.647c.026.23.052.458.079.685a7.449,7.449,0,0,1-2.236,3.9s-.943,1.078.135,1.617a6.426,6.426,0,0,0,3.189.552c1.311,4.884,3.708,8.074,8.671,8.074,7,0,15.5-6.489,15.5-14.825s-8.676-15.095-15.673-15.095-10.585,6.809-9.665,15.095" transform="translate(-2377.976 -1366.552)" fill="none"/>
    </clipPath>
    <linearGradient id="linear-gradient-7" x1="-4.325" y1="2.985" x2="-4.323" y2="2.985" gradientUnits="objectBoundingBox">
      <stop offset="0" stop-color="#ffab93"/>
      <stop offset="0.275" stop-color="#ffa78f"/>
      <stop offset="0.532" stop-color="#ff9b85"/>
      <stop offset="0.782" stop-color="#ff8975"/>
      <stop offset="1" stop-color="#ff7261"/>
    </linearGradient>
    <clipPath id="clip-path-25">
      <path id="Trazado_913753" data-name="Trazado 913753" d="M1583.313,843.147a5.889,5.889,0,0,0-5.889,5.889V860.87a6,6,0,0,0,6,6h26.707l11.475,10.16a.282.282,0,0,0,.467-.241l-1.059-9.919a5.889,5.889,0,0,0,5.889-5.889V849.036a5.889,5.889,0,0,0-5.889-5.889Z" transform="translate(-1577.424 -843.147)" fill="#ffbd45"/>
    </clipPath>
    <clipPath id="clip-path-27">
      <path id="Trazado_913757" data-name="Trazado 913757" d="M1263.457,2306.552a5.889,5.889,0,0,0-5.89,5.889v11.943a5.889,5.889,0,0,0,5.89,5.889l-1.059,9.919a.282.282,0,0,0,.467.241l11.476-10.16h26.707a6,6,0,0,0,6-6v-11.833a5.889,5.889,0,0,0-5.889-5.889Z" transform="translate(-1257.568 -2306.552)" fill="#ffbd45"/>
    </clipPath>
    <clipPath id="clip-path-29">
      <rect id="Rectángulo_404285" data-name="Rectángulo 404285" width="19.367" height="19.367" fill="none"/>
    </clipPath>
    <clipPath id="clip-path-30">
      <rect id="Rectángulo_404286" data-name="Rectángulo 404286" width="19.367" height="19.368" fill="none"/>
    </clipPath>
    <clipPath id="clip-path-31">
      <rect id="Rectángulo_404287" data-name="Rectángulo 404287" width="19.867" height="19.867" fill="none"/>
    </clipPath>
    <clipPath id="clip-path-33">
      <rect id="Rectángulo_404289" data-name="Rectángulo 404289" width="8.493" height="8.493" fill="none"/>
    </clipPath>
    <clipPath id="clip-path-35">
      <rect id="Rectángulo_404291" data-name="Rectángulo 404291" width="8.279" height="8.279" fill="none"/>
    </clipPath>
    <clipPath id="clip-path-36">
      <rect id="Rectángulo_404292" data-name="Rectángulo 404292" width="8.492" height="8.492" fill="none"/>
    </clipPath>
    <clipPath id="clip-path-37">
      <rect id="Rectángulo_404293" data-name="Rectángulo 404293" width="8.493" height="8.492" fill="none"/>
    </clipPath>
    <clipPath id="clip-path-38">
      <rect id="Rectángulo_404294" data-name="Rectángulo 404294" width="17.081" height="17.081" fill="none"/>
    </clipPath>
    <clipPath id="clip-path-39">
      <rect id="Rectángulo_404295" data-name="Rectángulo 404295" width="10.741" height="10.741" fill="none"/>
    </clipPath>
    <clipPath id="clip-path-40">
      <rect id="Rectángulo_404296" data-name="Rectángulo 404296" width="13.723" height="13.723" fill="none"/>
    </clipPath>
  </defs>
  <g id="Grupo_1103348" data-name="Grupo 1103348" transform="translate(-1053.605 -1591.139)">
    <g id="Grupo_1102853" data-name="Grupo 1102853" transform="translate(453.617 1187.139)">
      <rect id="Rectángulo_35929" data-name="Rectángulo 35929" width="298.949" height="249.293" transform="translate(600.259 404)" fill="#f6ccb3"/>
      <rect id="Rectángulo_402739" data-name="Rectángulo 402739" width="298.949" height="81.071" transform="translate(599.988 404)" fill="#fef6ed"/>
      <g id="Rectángulo_402741" data-name="Rectángulo 402741" transform="translate(625.323 426.294)" fill="none" stroke="#fef6ed" stroke-width="3">
        <rect width="248.279" height="204.704" stroke="none"/>
        <rect x="1.5" y="1.5" width="245.279" height="201.704" fill="none"/>
      </g>
    </g>
    <g id="Grupo_1103250" data-name="Grupo 1103250" transform="translate(1063.561 1611.197)">
      <g id="Grupo_1103249" data-name="Grupo 1103249" clip-path="url(#clip-path)">
        <g id="Grupo_1103157" data-name="Grupo 1103157" transform="translate(0 0)">
          <g id="Grupo_1103156" data-name="Grupo 1103156" clip-path="url(#clip-path-2)">
            <path id="Trazado_913609" data-name="Trazado 913609" d="M171,126.235a32.51,32.51,0,0,0-36.357-43.919,20.148,20.148,0,0,1-12.016-1.46q-1.363-.607-2.778-1.14-1.037-.39-2.081-.73a19.677,19.677,0,0,1-8.731-5.691,32.507,32.507,0,0,0-53.884,35.211.944.944,0,0,1,.027.734v0a50.128,50.128,0,0,0,90.044,43.289,23.665,23.665,0,0,1,9.951-9.147A32.383,32.383,0,0,0,171,126.235" transform="translate(-47.88 -57.347)" fill="#e8e8e8"/>
            <path id="Trazado_913610" data-name="Trazado 913610" d="M742.068,931.339a.462.462,0,0,1-.439-.32l-11.31-35.038a.462.462,0,0,1,.879-.284l11.31,35.038a.462.462,0,0,1-.44.6" transform="translate(-673.345 -825.552)" fill="#fff"/>
          </g>
        </g>
        <g id="Grupo_1103159" data-name="Grupo 1103159" transform="translate(29.389 53.236)">
          <g id="Grupo_1103158" data-name="Grupo 1103158" clip-path="url(#clip-path-3)">
            <rect id="Rectángulo_404260" data-name="Rectángulo 404260" width="38.036" height="66.053" transform="translate(-2.471 0) rotate(-0.1)" fill="#ffbd45"/>
          </g>
        </g>
        <g id="Grupo_1103161" data-name="Grupo 1103161" transform="translate(62.771 57.093)">
          <g id="Grupo_1103160" data-name="Grupo 1103160" clip-path="url(#clip-path-4)">
            <rect id="Rectángulo_404261" data-name="Rectángulo 404261" width="56.212" height="56.299" transform="translate(-21.726 12.156) rotate(-33.08)" fill="url(#linear-gradient)"/>
          </g>
        </g>
        <g id="Grupo_1103163" data-name="Grupo 1103163" transform="translate(0 0)">
          <g id="Grupo_1103162" data-name="Grupo 1103162" clip-path="url(#clip-path-2)">
            <path id="Trazado_913613" data-name="Trazado 913613" d="M1087.346,629.625l-7.409-2.229a1.784,1.784,0,0,1-1-2.414l9.746-15.094a2.36,2.36,0,0,1,2.444-1.249l6.967,1.16c.318.189.546,1.062.644,1.3a2.013,2.013,0,0,1-.182,1.759l-8.763,15.523a2.33,2.33,0,0,1-2.447,1.249" transform="translate(-994.624 -561.122)" fill="#323232"/>
            <path id="Trazado_913614" data-name="Trazado 913614" d="M1087.116,615.547l-7.409-2.229c-.825-.246-1.061-1.208-.525-2.137l9.284-15.368a2.362,2.362,0,0,1,2.446-1.249l6.906,2.078c.809.242,1.044,1.2.523,2.136l-8.775,15.52a2.332,2.332,0,0,1-2.448,1.248" transform="translate(-994.757 -548.146)" fill="#131313"/>
            <path id="Trazado_913615" data-name="Trazado 913615" d="M1098.041,623.523l-6.266-1.887c-.824-.246-1.061-1.208-.526-2.137l8.569-14.145a2.361,2.361,0,0,1,2.445-1.249l5.8,1.747c.81.242,1.045,1.2.523,2.136l-8.1,14.287a2.333,2.333,0,0,1-2.448,1.248" transform="translate(-1005.885 -556.943)" fill="#fff"/>
            <path id="Trazado_913616" data-name="Trazado 913616" d="M1236.42,716.87h0Z" transform="translate(-1139.998 -660.964)"/>
            <path id="Trazado_913617" data-name="Trazado 913617" d="M1239.557,756.184h0Z" transform="translate(-1142.889 -697.213)"/>
            <path id="Trazado_913618" data-name="Trazado 913618" d="M1233.172,744.681h0Z" transform="translate(-1137.003 -686.606)"/>
            <path id="Trazado_913619" data-name="Trazado 913619" d="M1231.848,739.486h0" transform="translate(-1135.782 -681.818)"/>
            <path id="Trazado_913620" data-name="Trazado 913620" d="M1240.841,742.874l.287.086-.184.315-.287-.086.185-.315" transform="translate(-1143.904 -684.941)"/>
            <path id="Trazado_913621" data-name="Trazado 913621" d="M1251.492,735.763h0" transform="translate(-1153.895 -678.384)"/>
            <path id="Trazado_913622" data-name="Trazado 913622" d="M1214,777.336h0" transform="translate(-1119.325 -716.716)"/>
            <path id="Trazado_913623" data-name="Trazado 913623" d="M1232.293,672.452h0Z" transform="translate(-1136.192 -620.011)"/>
            <path id="Trazado_913624" data-name="Trazado 913624" d="M1221.337,683.57h0" transform="translate(-1126.09 -630.262)"/>
            <path id="Trazado_913625" data-name="Trazado 913625" d="M1223.873,693.923h0Z" transform="translate(-1128.428 -639.808)"/>
            <path id="Trazado_913626" data-name="Trazado 913626" d="M1212.8,690.611h0Z" transform="translate(-1118.219 -636.753)"/>
            <path id="Trazado_913627" data-name="Trazado 913627" d="M1225.024,684.673h0" transform="translate(-1129.49 -631.278)"/>
            <path id="Trazado_913628" data-name="Trazado 913628" d="M1229.984,690.952h0Z" transform="translate(-1134.063 -637.068)"/>
            <path id="Trazado_913629" data-name="Trazado 913629" d="M1232.4,686.878h0Z" transform="translate(-1136.29 -633.312)"/>
            <path id="Trazado_913630" data-name="Trazado 913630" d="M1245.851,686.124h0" transform="translate(-1148.692 -632.617)"/>
            <path id="Trazado_913631" data-name="Trazado 913631" d="M1231.285,756.436l-.184.314.578.173.37-.634-.288-.086-.187.32-.29-.086" transform="translate(-1135.094 -697.231)"/>
            <path id="Trazado_913632" data-name="Trazado 913632" d="M1239.557,756.188h0" transform="translate(-1142.889 -697.217)"/>
            <path id="Trazado_913633" data-name="Trazado 913633" d="M1232.407,686.878h0" transform="translate(-1136.298 -633.312)"/>
            <path id="Trazado_913634" data-name="Trazado 913634" d="M1240.918,679.828h0Z" transform="translate(-1144.145 -626.812)"/>
            <path id="Trazado_913635" data-name="Trazado 913635" d="M1172.807,765.026h0" transform="translate(-1081.346 -705.365)"/>
            <path id="Trazado_913636" data-name="Trazado 913636" d="M1232.3,672.452h0" transform="translate(-1136.201 -620.011)"/>
            <path id="Trazado_913637" data-name="Trazado 913637" d="M1248.293,682.03h0" transform="translate(-1150.945 -628.841)"/>
            <path id="Trazado_913638" data-name="Trazado 913638" d="M1211.641,777.67l.291.087.185-.315-.291-.087-.185.315" transform="translate(-1117.152 -716.733)"/>
            <path id="Trazado_913639" data-name="Trazado 913639" d="M1217.744,778.456h0" transform="translate(-1122.779 -717.747)"/>
            <path id="Trazado_913640" data-name="Trazado 913640" d="M1226.428,704.289h0Z" transform="translate(-1130.786 -649.364)"/>
            <path id="Trazado_913641" data-name="Trazado 913641" d="M1222.729,703.178h0Z" transform="translate(-1127.374 -648.341)"/>
            <path id="Trazado_913642" data-name="Trazado 913642" d="M1231.841,739.486h0Z" transform="translate(-1135.776 -681.818)"/>
            <path id="Trazado_913643" data-name="Trazado 913643" d="M1232.715,715.758h0Z" transform="translate(-1136.581 -659.94)"/>
            <path id="Trazado_913644" data-name="Trazado 913644" d="M1233.163,744.681h0" transform="translate(-1136.994 -686.606)"/>
            <path id="Trazado_913645" data-name="Trazado 913645" d="M1138.592,750.342a7.578,7.578,0,0,0,.887-2.994c-.111-1.441-.8-3.283.886-5.095a55.154,55.154,0,0,1,4.508-4.111s1.479-2.763,2.589-2.326,1,1.331.333,2.994c-.715,1.788-2.883,3.1-2.218,6.1a5.92,5.92,0,0,1-.333,4.1c-.463,1-4.48,1.9-6.653,1.331" transform="translate(-1049.799 -678.392)" fill="#e26b4c"/>
          </g>
        </g>
        <g id="Grupo_1103165" data-name="Grupo 1103165" transform="translate(40.233 59.824)">
          <g id="Grupo_1103164" data-name="Grupo 1103164" clip-path="url(#clip-path-6)">
            <rect id="Rectángulo_404263" data-name="Rectángulo 404263" width="33.596" height="35.911" transform="translate(-1.724 0)" fill="#ffbd45"/>
          </g>
        </g>
        <g id="Grupo_1103167" data-name="Grupo 1103167" transform="translate(0 0)">
          <g id="Grupo_1103166" data-name="Grupo 1103166" clip-path="url(#clip-path-2)">
            <path id="Trazado_913647" data-name="Trazado 913647" d="M725,1011.958s5.267-1.386,8.371-4.823,4.934-7.817,4.435-10.589l-2.55-2.827a19.38,19.38,0,0,1-4.546,9.369,24.718,24.718,0,0,1-8.7,6.32Z" transform="translate(-665.698 -916.223)" fill="#fff"/>
            <path id="Trazado_913648" data-name="Trazado 913648" d="M412.231,483.72a6.838,6.838,0,1,1-6.838-6.838,6.838,6.838,0,0,1,6.838,6.838" transform="translate(-367.474 -439.693)" fill="#131313"/>
            <path id="Trazado_913649" data-name="Trazado 913649" d="M440.61,227.858c3.1,3.874-2.289,9.235-7.769,12.4s-15.8,6.7-18.285,2.4-.99-14.385,7.319-18.367c5.706-2.734,15.272-.762,18.734,3.565" transform="translate(-381.225 -205.643)" fill="#131313"/>
          </g>
        </g>
        <g id="Grupo_1103169" data-name="Grupo 1103169" transform="translate(39.163 39.962)">
          <g id="Grupo_1103168" data-name="Grupo 1103168" clip-path="url(#clip-path-8)">
            <rect id="Rectángulo_404265" data-name="Rectángulo 404265" width="17.52" height="15.145" transform="translate(-1.826 15.886) rotate(-83.444)" fill="url(#linear-gradient-2)"/>
          </g>
        </g>
        <g id="Grupo_1103171" data-name="Grupo 1103171" transform="translate(0 0)">
          <g id="Grupo_1103170" data-name="Grupo 1103170" clip-path="url(#clip-path-2)">
            <path id="Trazado_913651" data-name="Trazado 913651" d="M547.827,512.439l9.117,4.277-1.344,5.494c-3.6-.856-7.057-3.053-8.552-6.758.448-1.728.779-3.013.779-3.013" transform="translate(-504.387 -472.477)" fill="#bc4d2f"/>
          </g>
        </g>
        <g id="Grupo_1103173" data-name="Grupo 1103173" transform="translate(41.451 23.509)">
          <g id="Grupo_1103172" data-name="Grupo 1103172" clip-path="url(#clip-path-10)">
            <rect id="Rectángulo_404267" data-name="Rectángulo 404267" width="32.157" height="33.024" transform="matrix(0.82, -0.573, 0.573, 0.82, -12.261, 8.254)" fill="url(#linear-gradient-3)"/>
          </g>
        </g>
        <g id="Grupo_1103175" data-name="Grupo 1103175" transform="translate(0 0)">
          <g id="Grupo_1103174" data-name="Grupo 1103174" clip-path="url(#clip-path-2)">
            <path id="Trazado_913653" data-name="Trazado 913653" d="M775.755,473.661a6.5,6.5,0,0,0,2.151,3.6s.3.775-.248,1.02a17.027,17.027,0,0,1-3.475.075Z" transform="translate(-713.809 -436.723)" fill="#e26b4c"/>
            <path id="Trazado_913654" data-name="Trazado 913654" d="M736.776,448.323l-.678-.12a.39.39,0,0,1-.315-.451l.294-1.661a.39.39,0,0,1,.451-.315l.678.12a.39.39,0,0,1,.315.451l-.294,1.661a.39.39,0,0,1-.451.315" transform="translate(-678.397 -411.007)" fill="#131313"/>
            <path id="Trazado_913655" data-name="Trazado 913655" d="M720.522,418.807a.264.264,0,0,1-.173-.463,3.87,3.87,0,0,1,4.095-.23.264.264,0,0,1-.21.484,3.4,3.4,0,0,0-3.539.144.262.262,0,0,1-.173.065" transform="translate(-664.089 -385.099)" fill="#131313"/>
            <path id="Trazado_913656" data-name="Trazado 913656" d="M498.37,437.608c.306,2.143,1.815,3.766,3.371,3.626s2.569-1.991,2.263-4.134-1.815-3.766-3.371-3.626-2.569,1.991-2.263,4.134" transform="translate(-459.455 -399.662)" fill="#d05f3b"/>
            <path id="Trazado_913657" data-name="Trazado 913657" d="M525.82,465.511a.2.2,0,0,1-.189-.138l-.774-2.453a.2.2,0,0,1,.378-.119l.774,2.453a.2.2,0,0,1-.189.258" transform="translate(-483.918 -426.582)" fill="#982d1d"/>
            <path id="Trazado_913658" data-name="Trazado 913658" d="M530.336,516.641a1.491,1.491,0,1,0,1.8-1.092,1.491,1.491,0,0,0-1.8,1.092" transform="translate(-488.938 -475.304)" fill="#fff"/>
            <path id="Trazado_913659" data-name="Trazado 913659" d="M722.306,550.937h-.023a7.448,7.448,0,0,1-4.3-2.044.2.2,0,1,1,.3-.259,7.169,7.169,0,0,0,4.041,1.91.2.2,0,0,1-.022.395" transform="translate(-661.951 -505.784)" fill="#982d1d"/>
            <path id="Trazado_913660" data-name="Trazado 913660" d="M524.05,264.886c-4.087,0-7.4,2.577-7.4,5.756,0,.124.007.247.017.369a8.517,8.517,0,0,0-5.643-1.971c-4.063,0-8.136,3.716-8.136,6.751,0,2.06,4.461,2,4.5,4.068,0,.256.52-.338.772-.259a9.515,9.515,0,0,0,2.864.432c4.063,0,7.357-2.461,7.357-5.5,0-.068,0-.136-.007-.2a8.363,8.363,0,0,0,5.676,2.064c4.087,0,7.4-2.577,7.4-5.756s-3.313-5.756-7.4-5.756" transform="translate(-463.67 -244.229)" fill="#131313"/>
            <path id="Trazado_913661" data-name="Trazado 913661" d="M549.5,285.375l.952-5.366,7.271-.692,4.761.692,1.385,2.25-4.241,3.808Z" transform="translate(-506.651 -257.534)" fill="#131313"/>
            <path id="Trazado_913662" data-name="Trazado 913662" d="M313.5,342.194a6.492,6.492,0,1,1-6.492-6.492,6.492,6.492,0,0,1,6.492,6.492" transform="translate(-277.079 -309.522)" fill="#131313"/>
            <path id="Trazado_913663" data-name="Trazado 913663" d="M556.164,419.893s.519,4.155,2.337,4.934a3.854,3.854,0,0,1,1.385-4.414c2.424-1.991-3.549-2.943-3.722-.519" transform="translate(-512.792 -385.82)" fill="#131313"/>
            <path id="Trazado_913664" data-name="Trazado 913664" d="M472.92,660.35s4.155,4.328,16.013,4.761a12.476,12.476,0,0,0-1.558-3.2c-1.476-1.64-3.549.26-9.694-4.068-2.66-1.873-4.761,2.51-4.761,2.51" transform="translate(-436.04 -606.109)" fill="#fff"/>
            <path id="Trazado_913665" data-name="Trazado 913665" d="M328.443,421.964a6.492,6.492,0,1,1-6.492-6.492,6.492,6.492,0,0,1,6.492,6.492" transform="translate(-290.858 -383.072)" fill="#131313"/>
            <path id="Trazado_913666" data-name="Trazado 913666" d="M295.329,492.551a7.266,7.266,0,1,1-7.266-7.266,7.266,7.266,0,0,1,7.266,7.266" transform="translate(-258.899 -447.44)" fill="#131313"/>
            <path id="Trazado_913667" data-name="Trazado 913667" d="M387.517,550.833a6.838,6.838,0,1,1-6.838-6.838,6.838,6.838,0,0,1,6.838,6.838" transform="translate(-344.687 -501.572)" fill="#131313"/>
            <path id="Trazado_913668" data-name="Trazado 913668" d="M268.239,426.21a6.226,6.226,0,1,1-6.226-6.226,6.226,6.226,0,0,1,6.226,6.226" transform="translate(-235.84 -387.232)" fill="#131313"/>
            <path id="Trazado_913669" data-name="Trazado 913669" d="M404.825,328.642l2.2-1a12.324,12.324,0,0,0,.9,8.5s-3.8-1.7-3.1-7.5" transform="translate(-373.176 -302.091)" fill="#005bab"/>
            <path id="Trazado_913670" data-name="Trazado 913670" d="M943.71,1050.13c.067.238.114.467.156.7s.072.47.091.706a5.809,5.809,0,0,1,.011.709,3.541,3.541,0,0,1-.111.7,3.473,3.473,0,0,0,.012-.694,5.652,5.652,0,0,0-.107-.682c-.051-.224-.113-.446-.183-.663s-.151-.436-.24-.637l0,0a.2.2,0,0,1,.364-.16.235.235,0,0,1,.01.026" transform="translate(-869.755 -968.103)" fill="#bc4d2f"/>
            <path id="Trazado_913671" data-name="Trazado 913671" d="M531.311,898.573c-.089-.079-8.955-7.968-12.665-12.75-3.746-4.828-3.207-12.369-3.2-12.444l.395.031c-.006.074-.532,7.465,3.119,12.171,3.688,4.754,12.526,12.618,12.615,12.7Z" transform="translate(-475.22 -805.269)" fill="#841720"/>
            <path id="Trazado_913672" data-name="Trazado 913672" d="M530.847,898.133l-.029-.026c-.089-.079-8.97-7.986-12.67-12.755-3.76-4.847-3.215-12.4-3.209-12.471l0-.039.472.037,0,.039c-.006.074-.525,7.458,3.111,12.144,3.705,4.776,12.522,12.613,12.61,12.691l.029.026Zm-15.833-25.207c-.038.593-.407,7.735,3.2,12.378,3.59,4.627,12.065,12.214,12.631,12.719l.211-.238c-.565-.5-8.988-8.032-12.591-12.676-3.517-4.533-3.166-11.571-3.13-12.159Z" transform="translate(-474.753 -804.774)" fill="#841720"/>
            <path id="Trazado_913673" data-name="Trazado 913673" d="M425.072,807.087a.475.475,0,0,1-.077-.006.462.462,0,0,1-.38-.532l6.154-36.867c.048-.32,1.279-8.02,7.382-9.575,4.718-1.2,7.176.726,7.279.809a.462.462,0,0,1-.58.719c-.02-.016-2.232-1.712-6.47-.633-5.506,1.4-6.687,8.751-6.7,8.825L425.527,806.7a.462.462,0,0,1-.455.386" transform="translate(-391.496 -700.468)" fill="#fff"/>
            <path id="Trazado_913674" data-name="Trazado 913674" d="M418.04,1353.508h-5.488a2.655,2.655,0,0,1-2.633-2.661l.878-17.227a1.509,1.509,0,0,1,1.5-1.512h5.747a2.472,2.472,0,0,1,2.633,2.439v16.3a2.655,2.655,0,0,1-2.633,2.661" transform="translate(-377.951 -1228.224)" fill="#005bab"/>
            <path id="Trazado_913675" data-name="Trazado 913675" d="M473.61,1353.508H440a.939.939,0,0,1-.936-.936V1332.64a.533.533,0,0,1,.532-.532H473.61a.939.939,0,0,1,.936.936v19.528a.939.939,0,0,1-.936.936" transform="translate(-404.825 -1228.224)" fill="#005bab"/>
            <path id="Trazado_913676" data-name="Trazado 913676" d="M454.657,1472.21a6.985,6.985,0,0,1-1.024-.076l-16.94-2.612a.2.2,0,1,1,.06-.391l16.939,2.612a6.585,6.585,0,0,0,2.09-.026L472,1468.909a.2.2,0,0,1,.068.39l-16.222,2.808a7,7,0,0,1-1.192.1" transform="translate(-402.483 -1354.354)" fill="#fff"/>
            <path id="Trazado_913677" data-name="Trazado 913677" d="M1784.527,1230.958a27.1,27.1,0,0,1-30.284,26.839,17.059,17.059,0,0,0-10.6,2.118,58.7,58.7,0,0,1-6.423,3.233,59.833,59.833,0,0,1-44.374,1.006,58.592,58.592,0,0,1-26.541-20.018,22.518,22.518,0,0,0-7.6-6.55q-.9-.478-1.856-.872-.465-.193-.94-.366c-.212-.077-.425-.151-.64-.221l-.163-.054q-.333-.106-.67-.2-.83-.237-1.64-.523a.335.335,0,0,1-.046-.017q-.742-.26-1.467-.563a29.538,29.538,0,0,1-7.183-4.273q-.873-.7-1.693-1.469a30.5,30.5,0,0,1-2.365-2.474q-.416-.485-.81-.988-.623-.792-1.195-1.627l-.021-.031q-.285-.414-.555-.841a31.053,31.053,0,0,1-1.957-3.564,31.753,31.753,0,0,1-2.969-13.471c0-17.094,13.363-30.952,29.846-30.952h.051a11.147,11.147,0,0,0,8.186-3.487,58.94,58.94,0,0,1,43.166-18.621c29.354,0,53.662,21.181,57.921,48.815a18.982,18.982,0,0,0,5.2,10.279,26.987,26.987,0,0,1,7.628,18.895" transform="translate(-1505.219 -1063.056)" fill="#f3f9ff"/>
          </g>
        </g>
        <g id="Grupo_1103177" data-name="Grupo 1103177" transform="translate(150.694 169.105)">
          <g id="Grupo_1103176" data-name="Grupo 1103176" clip-path="url(#clip-path-12)">
            <rect id="Rectángulo_404269" data-name="Rectángulo 404269" width="41.308" height="23.047" transform="translate(-0.424 0)" fill="url(#linear-gradient-4)"/>
          </g>
        </g>
        <g id="Grupo_1103179" data-name="Grupo 1103179" transform="translate(0 0)">
          <g id="Grupo_1103178" data-name="Grupo 1103178" clip-path="url(#clip-path-2)">
            <path id="Trazado_913679" data-name="Trazado 913679" d="M1657.425,2002.947a2.027,2.027,0,0,1,.718-.461c.027.025.054.05.081.074.006-.061-.027-.08-.081-.074a1.949,1.949,0,0,1-.718-1.188,2.015,2.015,0,0,1,1.814-2.309l1.567.33,9.234,3.463,9.729,5.194s2.474,4.617,3.133,5.03c.279.174.647.422,1.053.669.905,1.268.6,7.267-3.811,8.51a5.42,5.42,0,0,0-.952-.44c-1.829-.508-8.492-1.319-10.8-2.638s-7.214-5.009-8.286-6.823-.1-2.432-.1-2.432c-1.649-.783-2.123-1.855-1.711-2.886a1.252,1.252,0,0,1,.7-.639,9.335,9.335,0,0,1-1.4-.907,1.645,1.645,0,0,1-.165-2.474" transform="translate(-1527.728 -1843.099)" fill="#ff927e"/>
            <path id="Trazado_913680" data-name="Trazado 913680" d="M1678.306,2045.817a.267.267,0,0,0,.117-.507l-8.106-3.933a.267.267,0,0,0-.233.48l8.106,3.933a.264.264,0,0,0,.116.027" transform="translate(-1539.705 -1882.157)" fill="#ff655b"/>
            <path id="Trazado_913681" data-name="Trazado 913681" d="M1689.028,2094.814a.267.267,0,0,0,.122-.5l-8.987-4.617a.267.267,0,0,0-.244.475l8.987,4.617a.263.263,0,0,0,.122.03" transform="translate(-1548.778 -1926.702)" fill="#ff655b"/>
            <path id="Trazado_913682" data-name="Trazado 913682" d="M1698.721,2143.076a.267.267,0,0,0,.128-.5l-5.725-3.123a.267.267,0,1,0-.256.468l5.725,3.123a.262.262,0,0,0,.128.033" transform="translate(-1560.723 -1972.578)" fill="#ff655b"/>
            <path id="Trazado_913683" data-name="Trazado 913683" d="M1694.467,1925.553l9.536,1.668c1.061.187,2.514-.587,2.4-1.7l-3.088-18.629a2.791,2.791,0,0,0-2.1-2.36l-8.476-2.421c-.458.013-1.174.7-1.407.859a1.8,1.8,0,0,0-.718,1.695l1.752,18.529a2.755,2.755,0,0,0,2.108,2.36" transform="translate(-1558.757 -1753.775)" fill="#323232"/>
            <path id="Trazado_913684" data-name="Trazado 913684" d="M1706.941,1924.887l9.536,1.668a1.427,1.427,0,0,0,1.714-1.686l-2.422-18.648a2.793,2.793,0,0,0-2.107-2.36l-8.889-1.554a1.439,1.439,0,0,0-1.711,1.687l1.767,18.532a2.758,2.758,0,0,0,2.11,2.361" transform="translate(-1570.243 -1753.932)" fill="#131313"/>
            <path id="Trazado_913685" data-name="Trazado 913685" d="M1716.828,1933.9l8.065,1.408a1.428,1.428,0,0,0,1.714-1.686l-2.256-17.176a2.793,2.793,0,0,0-2.106-2.36l-7.463-1.3a1.439,1.439,0,0,0-1.711,1.687l1.646,17.068a2.759,2.759,0,0,0,2.11,2.361" transform="translate(-1579.471 -1763.594)" fill="#fff"/>
            <path id="Trazado_913686" data-name="Trazado 913686" d="M1771.368,2031.735h0Z" transform="translate(-1633.227 -1873.289)"/>
            <path id="Trazado_913687" data-name="Trazado 913687" d="M1747.2,2066.018h0Z" transform="translate(-1610.944 -1904.901)"/>
            <path id="Trazado_913688" data-name="Trazado 913688" d="M1760.452,2058.721h0Z" transform="translate(-1623.164 -1898.172)"/>
            <path id="Trazado_913689" data-name="Trazado 913689" d="M1764.672,2054.646h0" transform="translate(-1627.055 -1894.415)"/>
            <path id="Trazado_913690" data-name="Trazado 913690" d="M1744.433,2041.439h0" transform="translate(-1608.393 -1882.236)"/>
            <path id="Trazado_913691" data-name="Trazado 913691" d="M1764.963,2098.064h0" transform="translate(-1627.322 -1934.447)"/>
            <path id="Trazado_913692" data-name="Trazado 913692" d="M1799.33,1993.3h0Z" transform="translate(-1659.009 -1837.856)"/>
            <path id="Trazado_913693" data-name="Trazado 913693" d="M1805.868,2008.908h0" transform="translate(-1665.038 -1852.244)"/>
            <path id="Trazado_913694" data-name="Trazado 913694" d="M1797.574,2017.081h0Z" transform="translate(-1657.391 -1859.78)"/>
            <path id="Trazado_913695" data-name="Trazado 913695" d="M1811.825,2019.6h0Z" transform="translate(-1670.531 -1862.098)"/>
            <path id="Trazado_913696" data-name="Trazado 913696" d="M1801.125,2008.072h0" transform="translate(-1660.665 -1851.473)"/>
            <path id="Trazado_913697" data-name="Trazado 913697" d="M1792.23,2011.321h0Z" transform="translate(-1652.464 -1854.469)"/>
            <path id="Trazado_913698" data-name="Trazado 913698" d="M1791.642,2006.4h0Z" transform="translate(-1651.921 -1849.934)"/>
            <path id="Trazado_913699" data-name="Trazado 913699" d="M1776.847,1998.992v0h0v0" transform="translate(-1638.28 -1843.101)"/>
            <path id="Trazado_913700" data-name="Trazado 913700" d="M1747.2,2066.018h0" transform="translate(-1610.944 -1904.901)"/>
            <path id="Trazado_913701" data-name="Trazado 913701" d="M1791.64,2006.4h0" transform="translate(-1651.919 -1849.932)"/>
            <path id="Trazado_913702" data-name="Trazado 913702" d="M1785.72,1995.721h0Z" transform="translate(-1646.461 -1840.086)"/>
            <path id="Trazado_913703" data-name="Trazado 913703" d="M1817.938,2107.41h0" transform="translate(-1676.166 -1943.063)"/>
            <path id="Trazado_913704" data-name="Trazado 913704" d="M1799.328,1993.3h0" transform="translate(-1659.007 -1837.853)"/>
            <path id="Trazado_913705" data-name="Trazado 913705" d="M1776.244,1994.048h0" transform="translate(-1637.725 -1838.542)"/>
            <path id="Trazado_913706" data-name="Trazado 913706" d="M1760.147,2097.216h0" transform="translate(-1622.881 -1933.664)"/>
            <path id="Trazado_913707" data-name="Trazado 913707" d="M1789.25,2025.253h0Z" transform="translate(-1649.715 -1867.313)"/>
            <path id="Trazado_913708" data-name="Trazado 913708" d="M1794.012,2026.093h0" transform="translate(-1654.106 -1868.089)"/>
            <path id="Trazado_913709" data-name="Trazado 913709" d="M1764.674,2054.649h0Z" transform="translate(-1627.056 -1894.418)"/>
            <path id="Trazado_913710" data-name="Trazado 913710" d="M1776.135,2032.577h0Z" transform="translate(-1637.623 -1874.068)"/>
            <path id="Trazado_913711" data-name="Trazado 913711" d="M1760.454,2058.724h0" transform="translate(-1623.166 -1898.174)"/>
            <path id="Trazado_913712" data-name="Trazado 913712" d="M1838.441,2036.622a2.466,2.466,0,0,1-1.357-1.605c-.378-1.248-2.748-7.913-3.717-8.682s-4.487-1.775-7.912-3.191a1.835,1.835,0,0,0-2.01,1.1c-.514,1.155,1.873,2.906,2.63,3.29a6.843,6.843,0,0,1,2.9,2.391c.071.414-1.141,5.412,2.244,8.229a7.472,7.472,0,0,0,6.8,1.675Z" transform="translate(-1681.178 -1865.347)" fill="#ff927e"/>
            <path id="Trazado_913713" data-name="Trazado 913713" d="M1892.294,2115.712a.267.267,0,0,0,.166-.476c-3.153-2.5-2.158-7.915-2.148-7.969a.267.267,0,1,0-.524-.1c-.045.235-1.063,5.792,2.341,8.488a.265.265,0,0,0,.165.058" transform="translate(-1742.25 -1942.64)" fill="#ff655b"/>
          </g>
        </g>
        <g id="Grupo_1103181" data-name="Grupo 1103181" transform="translate(174.866 139.275)">
          <g id="Grupo_1103180" data-name="Grupo 1103180" clip-path="url(#clip-path-14)">
            <rect id="Rectángulo_404271" data-name="Rectángulo 404271" width="30.324" height="44.286" transform="translate(-0.022 -0.015)" fill="#ee4f47"/>
          </g>
        </g>
        <g id="Grupo_1103183" data-name="Grupo 1103183" transform="translate(187.476 137.799)">
          <g id="Grupo_1103182" data-name="Grupo 1103182" clip-path="url(#clip-path-15)">
            <rect id="Rectángulo_404272" data-name="Rectángulo 404272" width="52.732" height="67.13" transform="translate(-0.067 0) rotate(-0.057)" fill="#ee4f47"/>
          </g>
        </g>
        <g id="Grupo_1103185" data-name="Grupo 1103185" transform="translate(0 0)">
          <g id="Grupo_1103184" data-name="Grupo 1103184" clip-path="url(#clip-path-2)">
            <path id="Trazado_913716" data-name="Trazado 913716" d="M2402.068,1962.221q-.086-4.185-.143-8.373c-.037-2.791-.067-5.583-.066-8.373,0-1.4.009-2.791.04-4.184s.116-2.786.207-4.178.209-2.783.356-4.171.311-2.775.6-4.142c-.317,1.36-.506,2.747-.687,4.131s-.319,2.775-.445,4.167-.231,2.784-.3,4.182-.1,2.793-.129,4.19c-.06,2.793-.089,5.586-.111,8.379s-.033,5.585-.035,8.379Z" transform="translate(-2214.088 -1778.384)" fill="#841720"/>
            <path id="Trazado_913717" data-name="Trazado 913717" d="M2627.758,2084.559c-1.477-.18-10.434-.182-10.815-.182h-.267v7.26l.038.063c1.333,2.2,5.261,3.9,5.428,3.971l.091.038.094-.029a15.776,15.776,0,0,0,5.59-3.663l.075-.078v-7.353Zm-.3,7.162a15.41,15.41,0,0,1-5.2,3.419c-.586-.262-3.878-1.8-5.052-3.654v-6.575c1.458,0,8.448.017,10.249.156Z" transform="translate(-2412.616 -1921.828)" fill="#841720"/>
            <path id="Trazado_913718" data-name="Trazado 913718" d="M2532.394,1915.523c.382,0,.641-.539.792-.991l.011-.044a48.546,48.546,0,0,1,2.946-10.626.267.267,0,0,0-.49-.212,49.145,49.145,0,0,0-2.98,10.734,1.881,1.881,0,0,1-.312.6c-.4-.005-2.9-.088-2.922-.089a.267.267,0,1,0-.018.533c.11,0,2.7.09,2.974.09" transform="translate(-2331.927 -1755.046)" fill="#841720"/>
            <path id="Trazado_913719" data-name="Trazado 913719" d="M2215.121,2247.675c.3.292.56.57.831.849s.584.513.859.8.534.585.792.891l.376.47q.178.242.363.483l.046-.027q-.131-.273-.271-.545l-.3-.534c-.109-.172-.212-.348-.327-.518s-.233-.337-.36-.5-.252-.327-.379-.492a2.8,2.8,0,0,0-.453-.431c-.085-.062-.174-.12-.261-.177s-.183-.107-.281-.149a1.67,1.67,0,0,0-.621-.171Z" transform="translate(-2042.376 -2072.345)" fill="#ff655b"/>
            <path id="Trazado_913720" data-name="Trazado 913720" d="M2470.452,2238.669l1.55-1.415s-5.391-4.784-7.278-5.323a9.454,9.454,0,0,0-4.013.09,2.786,2.786,0,0,0-1.3.652l-1.358,1.212.4,1.82Z" transform="translate(-2266.363 -2057.703)" fill="#ffab93"/>
          </g>
        </g>
        <g id="Grupo_1103187" data-name="Grupo 1103187" transform="translate(182.917 166.05)">
          <g id="Grupo_1103186" data-name="Grupo 1103186" clip-path="url(#clip-path-17)">
            <rect id="Rectángulo_404274" data-name="Rectángulo 404274" width="61.996" height="30.729" transform="translate(-0.234 0)" fill="url(#linear-gradient-5)"/>
          </g>
        </g>
        <g id="Grupo_1103189" data-name="Grupo 1103189" transform="translate(0 0)">
          <g id="Grupo_1103188" data-name="Grupo 1103188" clip-path="url(#clip-path-2)">
            <path id="Trazado_913722" data-name="Trazado 913722" d="M2887.474,2288.69c1.081.1,2.138.192,3.186.33a28.8,28.8,0,0,1,3.123.492,11.985,11.985,0,0,1,2.943,1.144,9.535,9.535,0,0,1,1.324.876,9.991,9.991,0,0,1,1.162,1.1l.056-.044a8.926,8.926,0,0,0-1.074-1.22,9.833,9.833,0,0,0-1.284-1.015,12.469,12.469,0,0,0-2.971-1.387c-.522-.167-1.052-.311-1.588-.434a9.684,9.684,0,0,0-1.629-.219,12.512,12.512,0,0,0-1.641.028,8.4,8.4,0,0,0-1.616.28Z" transform="translate(-2662.289 -2109.846)" fill="#ff655b"/>
            <path id="Trazado_913723" data-name="Trazado 913723" d="M2366.244,2298.866a.267.267,0,0,0,.035-.531l-6.11-.809a.267.267,0,1,0-.07.529l6.11.809.035,0" transform="translate(-2175.834 -2118.353)" fill="#ff655b"/>
            <path id="Trazado_913724" data-name="Trazado 913724" d="M2359.152,2353.2a.267.267,0,0,0,.044-.53l-5.93-.988a.267.267,0,0,0-.088.526l5.93.988a.272.272,0,0,0,.044,0" transform="translate(-2169.461 -2168.281)" fill="#ff655b"/>
            <path id="Trazado_913725" data-name="Trazado 913725" d="M2376.4,2405.046a.267.267,0,0,0,.071-.524l-3.594-.988a.267.267,0,1,0-.141.514l3.594.988a.273.273,0,0,0,.071.01" transform="translate(-2187.519 -2216.086)" fill="#ff655b"/>
          </g>
        </g>
        <g id="Grupo_1103191" data-name="Grupo 1103191" transform="translate(217.028 137.905)">
          <g id="Grupo_1103190" data-name="Grupo 1103190" clip-path="url(#clip-path-19)">
            <rect id="Rectángulo_404276" data-name="Rectángulo 404276" width="26.685" height="40.545" transform="translate(0 0)" fill="#ee4f47"/>
          </g>
        </g>
        <g id="Grupo_1103193" data-name="Grupo 1103193" transform="translate(0 0)">
          <g id="Grupo_1103192" data-name="Grupo 1103192" clip-path="url(#clip-path-2)">
            <path id="Trazado_913727" data-name="Trazado 913727" d="M2813.07,1972.258a13.108,13.108,0,0,0-.933,2.973,20.4,20.4,0,0,0-.348,3.1,31.335,31.335,0,0,0,.425,6.228c.091.515.17,1.028.312,1.54l.413,1.5.822,3c.543,2,1.093,4.005,1.683,6l.056.188.189.005c.706.02,1.407.026,2.111.024s1.406-.015,2.108-.048,1.4-.072,2.105-.13,1.4-.144,2.092-.266a.026.026,0,0,0,.022-.031.027.027,0,0,0-.028-.022c-.7.039-1.4.068-2.1.074s-1.4.011-2.1,0-1.4-.025-2.1-.051-1.4-.047-2.093-.085l.245.193c-.55-2-1.141-3.988-1.737-5.975l-.889-2.982-.442-1.492c-.146-.485-.236-1-.334-1.5a32.485,32.485,0,0,1-.553-6.163,20.214,20.214,0,0,1,.267-3.085,13.02,13.02,0,0,1,.85-2.975.027.027,0,1,0-.048-.022" transform="translate(-2592.495 -1818.438)" fill="#841720"/>
            <path id="Trazado_913728" data-name="Trazado 913728" d="M2617.409,2309.614l4.164.465a.163.163,0,0,0,.18-.144l1.34-12a.163.163,0,0,0-.143-.179l-4.164-.465a.163.163,0,0,0-.18.144l-1.34,12a.163.163,0,0,0,.143.18" transform="translate(-2413.158 -2118.137)" fill="#131313"/>
            <path id="Trazado_913729" data-name="Trazado 913729" d="M2611.879,2348.525a3.268,3.268,0,1,0,3.583-2.92,3.268,3.268,0,0,0-3.583,2.92" transform="translate(-2408.177 -2162.668)" fill="#ff5a32"/>
            <path id="Trazado_913730" data-name="Trazado 913730" d="M2620.431,2356.678a2.6,2.6,0,1,0,2.846-2.32,2.6,2.6,0,0,0-2.846,2.32" transform="translate(-2416.065 -2170.742)" fill="#fff"/>
            <path id="Trazado_913731" data-name="Trazado 913731" d="M2383.744,1285.713s2.224-6.2,2.83-8.76,1.146-6.941-2.022-8.828a6.433,6.433,0,0,0-6-.4,5.844,5.844,0,0,0-4.784-5.054,6.861,6.861,0,0,0-6.739,2.561s-1.752-4.111-7.75-3.167-6.941,7.21-6.267,9.569a8,8,0,0,0,5.256,5.054c2.089.472,25.473,9.03,25.473,9.03" transform="translate(-2169.344 -1163.509)" fill="#820900"/>
            <path id="Trazado_913732" data-name="Trazado 913732" d="M2520.649,1736.6s-5.553-4.153-6.58-4.153a12.453,12.453,0,0,0-6.44,2.543s-.49.163-.49-.21,2.957-10.032,4.73-12.459,5.467-3.034,5.467-3.034l5.854-2.087a5.172,5.172,0,0,1,3.639,1.078,28.762,28.762,0,0,1,2.453,2.969,24.88,24.88,0,0,1-7.513,15.213s-.35.63-1.12.14" transform="translate(-2311.621 -1583.271)" fill="#fff"/>
          </g>
        </g>
        <g id="Grupo_1103195" data-name="Grupo 1103195" transform="translate(199.709 124.63)">
          <g id="Grupo_1103194" data-name="Grupo 1103194" clip-path="url(#clip-path-21)">
            <rect id="Rectángulo_404278" data-name="Rectángulo 404278" width="14.969" height="23.734" transform="translate(-0.964 0.04) rotate(-2.387)" fill="url(#linear-gradient-6)"/>
          </g>
        </g>
        <g id="Grupo_1103197" data-name="Grupo 1103197" transform="translate(0 0)">
          <g id="Grupo_1103196" data-name="Grupo 1103196" clip-path="url(#clip-path-2)">
            <path id="Trazado_913734" data-name="Trazado 913734" d="M2571.8,1598.134l1.044,3.722a16.978,16.978,0,0,1-10.589,9.989l-1.372-5.489,5.119-7.661Z" transform="translate(-2361.174 -1473.504)" fill="#ff7261"/>
          </g>
        </g>
        <g id="Grupo_1103199" data-name="Grupo 1103199" transform="translate(185.445 106.57)">
          <g id="Grupo_1103198" data-name="Grupo 1103198" clip-path="url(#clip-path-23)">
            <rect id="Rectángulo_404280" data-name="Rectángulo 404280" width="41.263" height="41.152" transform="matrix(0.669, -0.743, 0.743, 0.669, -15.438, 16.537)" fill="url(#linear-gradient-7)"/>
          </g>
        </g>
        <g id="Grupo_1103201" data-name="Grupo 1103201" transform="translate(0 0)">
          <g id="Grupo_1103200" data-name="Grupo 1103200" clip-path="url(#clip-path-2)">
            <path id="Trazado_913736" data-name="Trazado 913736" d="M2461.182,1533.939l1-.1a.341.341,0,0,0,.3-.372l-.215-2.14a.341.341,0,0,0-.372-.3l-1,.1a.341.341,0,0,0-.3.372l.215,2.14a.341.341,0,0,0,.372.3" transform="translate(-2268.705 -1411.625)" fill="#131313"/>
            <path id="Trazado_913737" data-name="Trazado 913737" d="M2687.745,1525.852c-.88,2.461-2.98,3.96-4.691,3.349s-2.385-3.1-1.505-5.564,2.98-3.96,4.691-3.349,2.385,3.1,1.505,5.564" transform="translate(-2472.073 -1401.604)" fill="#ff927e"/>
            <path id="Trazado_913738" data-name="Trazado 913738" d="M2716.918,1559.511a.267.267,0,0,0,.234-.138l1.482-2.7a.267.267,0,0,0-.468-.257l-1.482,2.7a.267.267,0,0,0,.233.4" transform="translate(-2504.795 -1434.916)" fill="#ff655b"/>
            <path id="Trazado_913739" data-name="Trazado 913739" d="M2444.546,1663.039c.623.445-.628,1.643-1.617,2.112a6.6,6.6,0,0,1-3.159.668,13.159,13.159,0,0,1-.922-1.87c.721-.12,1.451-.225,2.167-.38,1.824-.4,2.9-.979,3.531-.53" transform="translate(-2248.656 -1533.198)" fill="#820900"/>
            <path id="Trazado_913740" data-name="Trazado 913740" d="M2473.613,1664.844l.015.009c.623.445-.629,1.643-1.618,2.112a6.925,6.925,0,0,1-1.621.544c.419-.926.958-1.9,3.223-2.665" transform="translate(-2277.738 -1535.012)" fill="#e2323a"/>
            <path id="Trazado_913741" data-name="Trazado 913741" d="M2418.548,1327.6l-.943,1.55s-2.224,0-2.7,1.819-.606,2.291-1.146,2.7c-.667.5-2.309-.005-2.763-.135-.943-.27-.99-.421-.741-2.224.27-1.954,1.011-5.391.067-7.615a4.4,4.4,0,0,0-4.111-2.628c-.606.2-9.5,4.38-13.41,2.291s-.2-10.378-.2-10.378l12.2.943,8.423,3.5Z" transform="translate(-2204.553 -1210.585)" fill="#820900"/>
            <path id="Trazado_913742" data-name="Trazado 913742" d="M2446.8,1500.618a.355.355,0,0,0,.228-.628,4.736,4.736,0,0,0-5.479-.292.356.356,0,1,0,.395.592,3.953,3.953,0,0,1,4.63.247.356.356,0,0,0,.227.081" transform="translate(-2251.004 -1382.035)" fill="#820900"/>
            <path id="Trazado_913743" data-name="Trazado 913743" d="M2527.714,1775.565q-.537,2.09-1.256,4.122c-.484,1.351-1.007,2.688-1.619,3.982a24.065,24.065,0,0,1-2.13,3.7,11.164,11.164,0,0,1-2.95,2.984l.283,0q-1.674-1.179-3.388-2.292c-.573-.37-1.149-.737-1.738-1.087a15.9,15.9,0,0,0-1.84-.969l-.06-.025-.065.008c-.645.081-1.265.2-1.889.342s-1.237.313-1.842.515a16.63,16.63,0,0,0-1.783.7,11.952,11.952,0,0,0-1.678.941l.053-.026a.068.068,0,0,1,.033-.005.084.084,0,0,1,.03.008.069.069,0,0,1,.036.032.312.312,0,0,1-.012-.089,1.124,1.124,0,0,1,.015-.161c.008-.047.026-.114.041-.174.065-.249.137-.5.21-.752.146-.5.3-1,.455-1.5q.467-1.5.975-2.99c.339-.992.678-1.985,1.053-2.964.187-.49.381-.977.59-1.458a13.412,13.412,0,0,1,.687-1.414,19.393,19.393,0,0,0-1.419,2.814q-.622,1.45-1.173,2.928t-1.055,2.973c-.169.5-.335,1-.5,1.5-.08.251-.159.5-.233.759-.018.067-.036.126-.053.208a1.524,1.524,0,0,0-.027.23.633.633,0,0,0,.055.295.366.366,0,0,0,.172.168.363.363,0,0,0,.256.016l.022-.006.03-.019a12.335,12.335,0,0,1,1.63-.881,16.143,16.143,0,0,1,1.741-.66c.592-.189,1.2-.347,1.8-.485s1.226-.25,1.831-.324l-.125-.017a15.553,15.553,0,0,1,1.762.941q.867.524,1.724,1.073c1.14.734,2.268,1.493,3.384,2.264l.143.1.14-.094a11.586,11.586,0,0,0,3.042-3.152,24.449,24.449,0,0,0,2.07-3.821,36.177,36.177,0,0,0,1.5-4.059,40.544,40.544,0,0,0,1.064-4.186" transform="translate(-2310.079 -1637.098)" fill="#fff"/>
            <path id="Trazado_913744" data-name="Trazado 913744" d="M2441.714,1660.774c-.506-.361-1.183-.169-2.207.122-.427.121-.912.259-1.466.379s-1.1.208-1.647.295c-.171.028-.342.055-.512.084l-.219.037.084.206a13.414,13.414,0,0,0,.934,1.895l.051.083.1,0c.086,0,.172.005.258.005a6.763,6.763,0,0,0,2.983-.69c.731-.346,1.822-1.221,1.882-1.9,0-.021,0-.041,0-.06a.545.545,0,0,0-.24-.46m-4.777,2.75a13.062,13.062,0,0,1-.776-1.556l.29-.047c.547-.088,1.114-.179,1.666-.3s1.055-.262,1.488-.385a3.308,3.308,0,0,1,1.764-.248.619.619,0,0,1,.139.074.2.2,0,0,1,.092.2c-.038.427-.871,1.223-1.681,1.606a6.867,6.867,0,0,1-1.454.507,6.329,6.329,0,0,1-1.526.147" transform="translate(-2245.72 -1531.078)" fill="#ff655b"/>
            <path id="Trazado_913745" data-name="Trazado 913745" d="M137.18,1803.884a10.171,10.171,0,0,0-10.235,10.108l-.127,20.437a10.36,10.36,0,0,0,10.3,10.424l46.125.287,19.71,17.671a.487.487,0,0,0,.809-.411l-1.723-17.143a10.172,10.172,0,0,0,10.235-10.108l.128-20.626a10.172,10.172,0,0,0-10.108-10.234Z" transform="translate(-116.928 -1663.208)" fill="#4045ab"/>
            <path id="Trazado_913746" data-name="Trazado 913746" d="M330.343,1969.065h-.005l-60.708-.378a.809.809,0,1,1,.01-1.619l60.708.378a.809.809,0,0,1,0,1.619" transform="translate(-247.862 -1813.667)" fill="#fff"/>
            <path id="Trazado_913747" data-name="Trazado 913747" d="M647.708,2122.6H647.7l-33.785-.21a.809.809,0,0,1,0-1.619h.005l33.785.21a.809.809,0,0,1,0,1.619" transform="translate(-565.3 -1955.387)" fill="#fff"/>
            <path id="Trazado_913748" data-name="Trazado 913748" d="M287.049,2120.358h-.005l-18.358-.114a.809.809,0,0,1,0-1.619h.005l18.357.114a.809.809,0,0,1,0,1.619" transform="translate(-246.991 -1953.405)" fill="#fff"/>
            <path id="Trazado_913749" data-name="Trazado 913749" d="M2342.6,263.4a10.065,10.065,0,0,1,10.065,10.065v20.224a10.252,10.252,0,0,1-10.252,10.252H2296.77l-19.612,17.364a.481.481,0,0,1-.8-.412l1.811-16.953a10.065,10.065,0,0,1-10.065-10.065V273.47A10.065,10.065,0,0,1,2278.17,263.4Z" transform="translate(-2091.228 -242.863)" fill="#4045ab"/>
            <path id="Trazado_913750" data-name="Trazado 913750" d="M2483.252,426.361h-60.075a.8.8,0,0,1,0-1.6h60.075a.8.8,0,0,1,0,1.6" transform="translate(-2233.468 -391.634)" fill="#fff"/>
            <path id="Trazado_913751" data-name="Trazado 913751" d="M2456.61,576.339h-33.433a.8.8,0,0,1,0-1.6h33.433a.8.8,0,0,1,0,1.6" transform="translate(-2233.468 -529.916)" fill="#fff"/>
            <path id="Trazado_913752" data-name="Trazado 913752" d="M2978.742,576.339h-18.166a.8.8,0,0,1,0-1.6h18.166a.8.8,0,1,1,0,1.6" transform="translate(-2728.958 -529.916)" fill="#fff"/>
          </g>
        </g>
        <g id="Grupo_1103203" data-name="Grupo 1103203" transform="translate(123.015 65.752)">
          <g id="Grupo_1103202" data-name="Grupo 1103202" clip-path="url(#clip-path-25)">
            <rect id="Rectángulo_404282" data-name="Rectángulo 404282" width="49.479" height="34.052" transform="translate(0 0)" fill="#ffbd45"/>
          </g>
        </g>
        <g id="Grupo_1103205" data-name="Grupo 1103205" transform="translate(0 0)">
          <g id="Grupo_1103204" data-name="Grupo 1103204" clip-path="url(#clip-path-2)">
            <path id="Trazado_913754" data-name="Trazado 913754" d="M1864.865,967.957a2.323,2.323,0,1,1,2.323,2.323,2.323,2.323,0,0,1-2.323-2.323" transform="translate(-1719.434 -890.329)" fill="#fff"/>
            <path id="Trazado_913755" data-name="Trazado 913755" d="M2012.441,967.957a2.323,2.323,0,1,1,2.323,2.323,2.323,2.323,0,0,1-2.323-2.323" transform="translate(-1855.502 -890.329)" fill="#fff"/>
            <path id="Trazado_913756" data-name="Trazado 913756" d="M1717.289,967.957a2.323,2.323,0,1,1,2.323,2.323,2.323,2.323,0,0,1-2.323-2.323" transform="translate(-1583.367 -890.329)" fill="#fff"/>
          </g>
        </g>
        <g id="Grupo_1103207" data-name="Grupo 1103207" transform="translate(98.071 179.875)">
          <g id="Grupo_1103206" data-name="Grupo 1103206" clip-path="url(#clip-path-27)">
            <rect id="Rectángulo_404284" data-name="Rectángulo 404284" width="49.479" height="34.052" transform="translate(0 0)" fill="#ffbd45"/>
          </g>
        </g>
        <g id="Grupo_1103248" data-name="Grupo 1103248" transform="translate(0 0)">
          <g id="Grupo_1103247" data-name="Grupo 1103247" clip-path="url(#clip-path-2)">
            <path id="Trazado_913758" data-name="Trazado 913758" d="M1549.656,2431.362a2.323,2.323,0,1,0-2.323,2.323,2.323,2.323,0,0,0,2.323-2.323" transform="translate(-1424.522 -2239.612)" fill="#fff"/>
            <path id="Trazado_913759" data-name="Trazado 913759" d="M1402.08,2431.362a2.323,2.323,0,1,0-2.323,2.323,2.323,2.323,0,0,0,2.323-2.323" transform="translate(-1288.455 -2239.612)" fill="#fff"/>
            <path id="Trazado_913760" data-name="Trazado 913760" d="M1697.232,2431.362a2.323,2.323,0,1,0-2.323,2.323,2.323,2.323,0,0,0,2.323-2.323" transform="translate(-1560.589 -2239.612)" fill="#fff"/>
            <g id="Grupo_1103210" data-name="Grupo 1103210" transform="translate(108.161 105.88)" opacity="0.75">
              <g id="Grupo_1103209" data-name="Grupo 1103209">
                <g id="Grupo_1103208" data-name="Grupo 1103208" clip-path="url(#clip-path-29)">
                  <path id="Trazado_913761" data-name="Trazado 913761" d="M1406.326,1367.379a9.684,9.684,0,1,1-9.684-9.684,9.684,9.684,0,0,1,9.684,9.684" transform="translate(-1386.958 -1357.695)" fill="#ffe3e3"/>
                </g>
              </g>
            </g>
            <g id="Grupo_1103213" data-name="Grupo 1103213" transform="translate(238.664 204.436)" opacity="0.75">
              <g id="Grupo_1103212" data-name="Grupo 1103212">
                <g id="Grupo_1103211" data-name="Grupo 1103211" clip-path="url(#clip-path-30)">
                  <path id="Trazado_913762" data-name="Trazado 913762" d="M3079.763,2631.172a9.684,9.684,0,1,1-9.684-9.684,9.684,9.684,0,0,1,9.684,9.684" transform="translate(-3060.396 -2621.488)" fill="#ffe3e3"/>
                </g>
              </g>
            </g>
            <g id="Grupo_1103216" data-name="Grupo 1103216" transform="translate(113.676 0)" opacity="0.75">
              <g id="Grupo_1103215" data-name="Grupo 1103215">
                <g id="Grupo_1103214" data-name="Grupo 1103214" clip-path="url(#clip-path-31)">
                  <path id="Trazado_913763" data-name="Trazado 913763" d="M1477.536,9.933A9.933,9.933,0,1,1,1467.6,0a9.933,9.933,0,0,1,9.933,9.933" transform="translate(-1457.669)" fill="#ffe3e3"/>
                </g>
              </g>
            </g>
            <g id="Grupo_1103219" data-name="Grupo 1103219" transform="translate(239.322 70.948)" opacity="0.75">
              <g id="Grupo_1103218" data-name="Grupo 1103218">
                <g id="Grupo_1103217" data-name="Grupo 1103217" clip-path="url(#clip-path-31)">
                  <path id="Trazado_913764" data-name="Trazado 913764" d="M3088.71,919.708a9.933,9.933,0,1,1-9.933-9.933,9.933,9.933,0,0,1,9.933,9.933" transform="translate(-3068.843 -909.775)" fill="#ffe3e3"/>
                </g>
              </g>
            </g>
            <g id="Grupo_1103222" data-name="Grupo 1103222" transform="translate(136.068 44.39)" opacity="0.5">
              <g id="Grupo_1103221" data-name="Grupo 1103221">
                <g id="Grupo_1103220" data-name="Grupo 1103220" clip-path="url(#clip-path-33)">
                  <path id="Trazado_913765" data-name="Trazado 913765" d="M1753.305,573.47a4.246,4.246,0,1,1-4.246-4.246,4.246,4.246,0,0,1,4.246,4.246" transform="translate(-1744.813 -569.224)" fill="#ffe3e3"/>
                </g>
              </g>
            </g>
            <g id="Grupo_1103225" data-name="Grupo 1103225" transform="translate(256.583 92.081)" opacity="0.5">
              <g id="Grupo_1103224" data-name="Grupo 1103224">
                <g id="Grupo_1103223" data-name="Grupo 1103223" clip-path="url(#clip-path-33)">
                  <path id="Trazado_913766" data-name="Trazado 913766" d="M3298.671,1185.011a4.246,4.246,0,1,1-4.246-4.246,4.246,4.246,0,0,1,4.246,4.246" transform="translate(-3290.179 -1180.765)" fill="#ffe3e3"/>
                </g>
              </g>
            </g>
            <g id="Grupo_1103228" data-name="Grupo 1103228" transform="translate(264.639 196.816)" opacity="0.5">
              <g id="Grupo_1103227" data-name="Grupo 1103227">
                <g id="Grupo_1103226" data-name="Grupo 1103226" clip-path="url(#clip-path-35)">
                  <path id="Trazado_913767" data-name="Trazado 913767" d="M3401.755,2527.922a4.139,4.139,0,1,1-4.139-4.139,4.139,4.139,0,0,1,4.139,4.139" transform="translate(-3393.477 -2523.783)" fill="#ffe3e3"/>
                </g>
              </g>
            </g>
            <g id="Grupo_1103231" data-name="Grupo 1103231" transform="translate(0 101.633)" opacity="0.5">
              <g id="Grupo_1103230" data-name="Grupo 1103230">
                <g id="Grupo_1103229" data-name="Grupo 1103229" clip-path="url(#clip-path-36)">
                  <path id="Trazado_913768" data-name="Trazado 913768" d="M8.492,1307.493a4.246,4.246,0,1,1-4.246-4.246,4.246,4.246,0,0,1,4.246,4.246" transform="translate(0 -1303.247)" fill="#ffe3e3"/>
                </g>
              </g>
            </g>
            <g id="Grupo_1103234" data-name="Grupo 1103234" transform="translate(194.286 4.65)" opacity="0.5">
              <g id="Grupo_1103233" data-name="Grupo 1103233">
                <g id="Grupo_1103232" data-name="Grupo 1103232" clip-path="url(#clip-path-37)">
                  <path id="Trazado_913769" data-name="Trazado 913769" d="M2499.834,63.863a4.246,4.246,0,1,1-4.246-4.246,4.246,4.246,0,0,1,4.246,4.246" transform="translate(-2491.342 -59.617)" fill="#ffe3e3"/>
                </g>
              </g>
            </g>
            <g id="Grupo_1103237" data-name="Grupo 1103237" transform="translate(13.967 120.278)" opacity="0.75">
              <g id="Grupo_1103236" data-name="Grupo 1103236">
                <g id="Grupo_1103235" data-name="Grupo 1103235" clip-path="url(#clip-path-38)">
                  <path id="Trazado_913770" data-name="Trazado 913770" d="M196.183,1550.87a8.541,8.541,0,1,1-8.541-8.541,8.541,8.541,0,0,1,8.541,8.541" transform="translate(-179.102 -1542.329)" fill="#ffe3e3"/>
                </g>
              </g>
            </g>
            <g id="Grupo_1103240" data-name="Grupo 1103240" transform="translate(111.275 161.851)" opacity="0.5">
              <g id="Grupo_1103239" data-name="Grupo 1103239">
                <g id="Grupo_1103238" data-name="Grupo 1103238" clip-path="url(#clip-path-39)">
                  <path id="Trazado_913771" data-name="Trazado 913771" d="M1437.635,2080.8a5.37,5.37,0,1,1-5.37-5.37,5.371,5.371,0,0,1,5.37,5.37" transform="translate(-1426.894 -2075.425)" fill="#ffe3e3"/>
                </g>
              </g>
            </g>
            <g id="Grupo_1103243" data-name="Grupo 1103243" transform="translate(48.874 187.468)" opacity="0.75">
              <g id="Grupo_1103242" data-name="Grupo 1103242">
                <g id="Grupo_1103241" data-name="Grupo 1103241" clip-path="url(#clip-path-40)">
                  <path id="Trazado_913772" data-name="Trazado 913772" d="M640.432,2410.778a6.861,6.861,0,1,1-6.861-6.861,6.861,6.861,0,0,1,6.861,6.861" transform="translate(-626.709 -2403.917)" fill="#ffe3e3"/>
                </g>
              </g>
            </g>
            <g id="Grupo_1103246" data-name="Grupo 1103246" transform="translate(213.231 210.11)" opacity="0.5">
              <g id="Grupo_1103245" data-name="Grupo 1103245">
                <g id="Grupo_1103244" data-name="Grupo 1103244" clip-path="url(#clip-path-39)">
                  <path id="Trazado_913773" data-name="Trazado 913773" d="M2745.007,2699.619a5.37,5.37,0,1,1-5.37-5.371,5.37,5.37,0,0,1,5.37,5.371" transform="translate(-2734.267 -2694.248)" fill="#ffe3e3"/>
                </g>
              </g>
            </g>
          </g>
        </g>
      </g>
    </g>
  </g>
</svg>
