<svg xmlns="http://www.w3.org/2000/svg" width="85" height="83.076" viewBox="0 0 85 83.076">
  <g id="Grupo_1103056" data-name="Grupo 1103056" transform="translate(0 9.521)">
    <path id="Trazado_913213" data-name="Trazado 913213" d="M81.566,40.783a40.769,40.769,0,1,1-21.9-36.157A40.714,40.714,0,0,1,81.566,40.783Z" transform="translate(-0.006 -8.008)" fill="#ee4f47"/>
    <path id="Trazado_913214" data-name="Trazado 913214" d="M79.323,54.136A40.815,40.815,0,0,1,22.586,77.289,262.047,262.047,0,0,1,2.5,26.7Q1.255,22.3.169,17.836A5.913,5.913,0,0,1,4.65,10.664q5.88-1.288,11.758-2.58l32.83-7.2L52.617.141A5.925,5.925,0,0,1,59.626,4.5c.01.04.02.082.032.122Q62,13.98,65.22,23.052A201,201,0,0,0,79.323,54.136Z" transform="translate(0 -8.007)" fill="#f2f2f2"/>
    <g id="Grupo_1103053" data-name="Grupo 1103053" transform="translate(17.478 -6.682)">
      <path id="Trazado_913215" data-name="Trazado 913215" d="M266.839,30.028,240.919,71.781S233.1,37.706,259.221,8.3a5.911,5.911,0,0,1,2.024,3.179c.01.04.02.082.032.122Q263.619,20.956,266.839,30.028Z" transform="translate(-219.098 -8.3)" fill="#d5d4e2"/>
      <path id="Trazado_913216" data-name="Trazado 913216" d="M171.566,323.421a40.815,40.815,0,0,1-56.736,23.153q-2.669-5.1-5.108-10.308a40.795,40.795,0,0,0,60.139-15.954Q170.7,321.875,171.566,323.421Z" transform="translate(-109.721 -270.61)" fill="#d5d4e2"/>
    </g>
    <g id="Grupo_1103054" data-name="Grupo 1103054" transform="translate(10.32 4.024)">
      <path id="Trazado_913217" data-name="Trazado 913217" d="M67.283,93.491a2.5,2.5,0,0,1-.722-4.887L109.5,75.621a2.5,2.5,0,1,1,1.445,4.78L68.006,93.383A2.5,2.5,0,0,1,67.283,93.491Z" transform="translate(-64.786 -75.513)" fill="#33384a"/>
      <path id="Trazado_913218" data-name="Trazado 913218" d="M106.989,176.99a2.5,2.5,0,0,1-.883-4.833l39.614-14.98a2.5,2.5,0,1,1,1.766,4.671l-39.614,14.98A2.5,2.5,0,0,1,106.989,176.99Z" transform="translate(-98.167 -144.032)" fill="#33384a"/>
      <path id="Trazado_913219" data-name="Trazado 913219" d="M153.489,296.789a2.5,2.5,0,0,1-1.059-4.759l24.551-11.485a2.5,2.5,0,0,1,2.116,4.523l-24.551,11.485A2.487,2.487,0,0,1,153.489,296.789Z" transform="translate(-137.258 -247.686)" fill="#33384a"/>
    </g>
    <path id="Trazado_913220" data-name="Trazado 913220" d="M247.522,355.112l-3.37,5.757a2,2,0,0,1-.475.553,2.051,2.051,0,0,1-3.318-1.941,2.008,2.008,0,0,1,.25-.685l3.37-5.757Z" transform="translate(-202.046 -304.806)" fill="#f4a22b"/>
    <path id="Trazado_913221" data-name="Trazado 913221" d="M243.678,392.981a2.051,2.051,0,1,1-.985-2.122A2.049,2.049,0,0,1,243.678,392.981Z" transform="translate(-202.046 -336.364)" fill="#33384a"/>
    <ellipse id="Elipse_11550" data-name="Elipse 11550" cx="32.743" cy="12.146" rx="32.743" ry="12.146" transform="translate(85 2.748) rotate(120.337)" fill="#55ace5"/>
    <path id="Trazado_913222" data-name="Trazado 913222" d="M401.52,195.153a2.492,2.492,0,0,1-1.156-1.524c-1.447-5.531,2.02-7.677,4.551-9.245a12.526,12.526,0,0,0,4.764-4.336c2.664-4.551-2.844-9.716-2.9-9.767a2.5,2.5,0,0,1,3.372-3.69,19.576,19.576,0,0,1,3.6,4.7c2.152,3.974,2.235,7.877.239,11.287a17.308,17.308,0,0,1-6.446,6.06c-2.535,1.57-2.84,1.843-2.347,3.73a2.5,2.5,0,0,1-3.68,2.79Z" transform="translate(-336.301 -147.511)" fill="#f4a22b"/>
    <path id="Trazado_913223" data-name="Trazado 913223" d="M244.1,82.008c-5.79-3.389-3.077-18.786,6.057-34.392s21.23-25.512,27.02-22.124c-2.224-1.3-11.432,10.294-20.566,25.9S241.88,80.706,244.1,82.008Z" transform="translate(-202.659 -28.877)" fill="#2176c4"/>
    <path id="Trazado_913224" data-name="Trazado 913224" d="M342.832,111.654a2.5,2.5,0,0,1-3.42.895l-20.406-11.943a2.5,2.5,0,0,1,2.525-4.314l20.406,11.943A2.5,2.5,0,0,1,342.832,111.654Z" transform="translate(-267.149 -88.67)" fill="#f4a22b"/>
    <path id="Trazado_913225" data-name="Trazado 913225" d="M377.134,131.729a2.5,2.5,0,0,1-3.42.895l-13.907-8.139a2.5,2.5,0,1,1,2.525-4.314l13.907,8.139A2.5,2.5,0,0,1,377.134,131.729Z" transform="translate(-301.451 -108.744)" fill="#ffcc4e"/>
    <g id="Grupo_1103055" data-name="Grupo 1103055" transform="translate(57.149 7.89)">
      <ellipse id="Elipse_11551" data-name="Elipse 11551" cx="6.873" cy="2.25" rx="6.873" ry="2.25" transform="translate(0 26.336) rotate(-59.663)" fill="#72baed"/>
      <ellipse id="Elipse_11552" data-name="Elipse 11552" cx="3.437" cy="2.25" rx="3.437" ry="2.25" transform="translate(11.649 5.932) rotate(-59.663)" fill="#72baed"/>
    </g>
  </g>
</svg>
