<svg xmlns="http://www.w3.org/2000/svg" width="74.703" height="71.636" viewBox="0 0 74.703 71.636">
  <g id="Grupo_1102869" data-name="Grupo 1102869" transform="translate(-259.86 -4759.079)">
    <circle id="Elipse_11526" data-name="Elipse 11526" cx="35.818" cy="35.818" r="35.818" transform="translate(262.928 4759.079)" fill="#ee4f47"/>
    <g id="Grupo_1103058" data-name="Grupo 1103058" transform="translate(259.157 4757.831)">
      <g id="Grupo_1103057" data-name="Grupo 1103057" transform="translate(-0.297 1.939)">
        <path id="Trazado_913226" data-name="Trazado 913226" d="M27.78,22.15l3.29,8.22a1,1,0,0,0,1.86,0l3.29-8.22a11,11,0,1,0-8.44,0ZM32,3a9,9,0,0,1,3.1,17.44,1,1,0,0,0-.58.56L32,27.31,29.48,21a1,1,0,0,0-.58-.56A9,9,0,0,1,32,3Z" fill="#4045ab"/>
        <path id="Trazado_913227" data-name="Trazado 913227" d="M25,43a7,7,0,1,0,7-7,7,7,0,0,0-7,7Zm12,0a5,5,0,0,1-10,0,5.38,5.38,0,0,1,.09-.9,11.51,11.51,0,0,1,9.82,0A5.38,5.38,0,0,1,37,43Zm-5-4a13.64,13.64,0,0,0-3.52.46,5,5,0,0,1,7,0A13.64,13.64,0,0,0,32,39Z" fill="#4045ab"/>
        <path id="Trazado_913228" data-name="Trazado 913228" d="M14,33a7,7,0,1,0,7,7A7,7,0,0,0,14,33Zm0,2a5,5,0,0,1,3.52,1.46,13.7,13.7,0,0,0-7,0A5,5,0,0,1,14,35Zm0,10a5,5,0,0,1-5-5,5.38,5.38,0,0,1,.09-.9A11.15,11.15,0,0,1,14,38a11.15,11.15,0,0,1,4.91,1.1A5.38,5.38,0,0,1,19,40,5,5,0,0,1,14,45Z" fill="#4045ab"/>
        <path id="Trazado_913229" data-name="Trazado 913229" d="M50,47a7,7,0,1,0-7-7,7,7,0,0,0,7,7Zm0-12a5,5,0,0,1,3.52,1.46,13.7,13.7,0,0,0-7,0A5,5,0,0,1,50,35Zm-4.91,4.1a11.51,11.51,0,0,1,9.82,0A5.38,5.38,0,0,1,55,40a5,5,0,0,1-10,0,5.38,5.38,0,0,1,.09-.9Z" fill="#4045ab"/>
        <path id="Trazado_913230" data-name="Trazado 913230" d="M52,48H48a10.92,10.92,0,0,0-7.78,3.22,12.39,12.39,0,0,0-1,1.12A11,11,0,0,0,34,51H30a10.92,10.92,0,0,0-5.27,1.35A10.93,10.93,0,0,0,16,48H12A11,11,0,0,0,1,59a1,1,0,0,0,1,1H19.19A11,11,0,0,0,19,62a1,1,0,0,0,1,1H44a1,1,0,0,0,1-1,11,11,0,0,0-.19-2H62a1,1,0,0,0,1-1A11,11,0,0,0,52,48ZM3.05,58a9,9,0,0,1,9-8h.13l-1,1.45a1,1,0,0,0-.13.82L12.67,58Zm11-2.64-.91-3.19L14,50.8l.91,1.37ZM19.76,58H15.33L17,52.27a1,1,0,0,0-.13-.82l-1-1.45H16a9,9,0,0,1,7.07,3.46A11.19,11.19,0,0,0,19.76,58Zm1.3,3A9,9,0,0,1,30,53h.13l-1,1.45a1,1,0,0,0-.13.82L30.67,61ZM32,58.36l-.91-3.19L32,53.8l.91,1.37ZM33.33,61,35,55.27a1,1,0,0,0-.13-.82l-1-1.45H34a9,9,0,0,1,8.94,8Zm10.91-3a11.17,11.17,0,0,0-3.32-4.54,6.82,6.82,0,0,1,.72-.82A8.94,8.94,0,0,1,48,50h.13l-1,1.45a1,1,0,0,0-.13.82L48.67,58ZM50,55.36l-.91-3.19L50,50.8l.91,1.37ZM51.33,58,53,52.27a1,1,0,0,0-.13-.82l-1-1.45H52a9,9,0,0,1,8.94,8Z" fill="#4045ab"/>
        <path id="Trazado_913231" data-name="Trazado 913231" d="M62,15H46a1,1,0,0,0-1,1V26a1,1,0,0,0,1,1h3.82L49,29.73a1.022,1.022,0,0,0,1.65,1.03L55,27h7a1,1,0,0,0,1-1V16A1,1,0,0,0,62,15ZM61,25H54.67a1,1,0,0,0-.65.24l-2.14,1.83.22-.8A1,1,0,0,0,51.14,25H47V17H61Z" fill="#4045ab"/>
        <path id="Trazado_913232" data-name="Trazado 913232" d="M49,20h2v2H49Z" fill="#4045ab"/>
        <path id="Trazado_913233" data-name="Trazado 913233" d="M53,20h2v2H53Z" fill="#4045ab"/>
        <path id="Trazado_913234" data-name="Trazado 913234" d="M57,20h2v2H57Z" fill="#4045ab"/>
        <path id="Trazado_913235" data-name="Trazado 913235" d="M2,27H9l4.39,3.76A1.008,1.008,0,0,0,15,29.73L14.18,27H18a1,1,0,0,0,1-1V16a1,1,0,0,0-1-1H2a1,1,0,0,0-1,1V26A1,1,0,0,0,2,27ZM3,17H17v8H12.86a1,1,0,0,0-.96,1.27l.22.8L10,25.24A1,1,0,0,0,9.33,25H3Z" fill="#4045ab"/>
        <path id="Trazado_913236" data-name="Trazado 913236" d="M13,20h2v2H13Z" fill="#4045ab"/>
        <path id="Trazado_913237" data-name="Trazado 913237" d="M9,20h2v2H9Z" fill="#4045ab"/>
        <path id="Trazado_913238" data-name="Trazado 913238" d="M5,20H7v2H5Z" fill="#4045ab"/>
        <path id="Trazado_913239" data-name="Trazado 913239" d="M30.51,17h.15a1,1,0,0,0,.68-.42l5.48-8L35.18,7.43,30.3,14.55l-1.68-1.33-1.24,1.56,2.51,2a1,1,0,0,0,.62.22Z" fill="#4045ab"/>
      </g>
    </g>
  </g>
</svg>
