<svg xmlns="http://www.w3.org/2000/svg" xmlns:xlink="http://www.w3.org/1999/xlink" width="69.986" height="77.919" viewBox="0 0 69.986 77.919">
  <defs>
    <clipPath id="clip-path">
      <rect id="Rectángulo_404380" data-name="Rectángulo 404380" width="69.986" height="77.919" transform="translate(0 0)" fill="none"/>
    </clipPath>
  </defs>
  <g id="Grupo_1103755" data-name="Grupo 1103755" transform="translate(0 0)">
    <g id="Grupo_1103754" data-name="Grupo 1103754" clip-path="url(#clip-path)">
      <path id="Trazado_914488" data-name="Trazado 914488" d="M60.982,0H9A9,9,0,0,0,0,9V54.952a9,9,0,0,0,9,9h4.1V75.665a2.251,2.251,0,0,0,3.3,1.992l26.023-13.7H60.982a9,9,0,0,0,9-9V9a9,9,0,0,0-9-9" fill="#ee4f47"/>
      <path id="Trazado_914489" data-name="Trazado 914489" d="M9,0A9,9,0,0,0,0,9V54.952a9,9,0,0,0,9,9h4.1V75.665a2.251,2.251,0,0,0,3.3,1.992l17.19-9.051a79.023,79.023,0,0,1-12.9-32.493A79.094,79.094,0,0,1,23.678,0Z" fill="#f63a31"/>
      <path id="Trazado_914490" data-name="Trazado 914490" d="M60.465,60.959H9.523a6.2,6.2,0,0,1-6.191-6.19V9.187A6.2,6.2,0,0,1,9.523,3H60.465a6.2,6.2,0,0,1,6.189,6.19V54.769a6.2,6.2,0,0,1-6.189,6.19M9.523,4.122A5.071,5.071,0,0,0,4.457,9.187V54.769a5.071,5.071,0,0,0,5.066,5.065H60.465a5.069,5.069,0,0,0,5.063-5.065V9.187a5.069,5.069,0,0,0-5.063-5.065Z" fill="#fff"/>
      <path id="Trazado_914491" data-name="Trazado 914491" d="M28.412,59.834H9.522a5.07,5.07,0,0,1-5.064-5.065V9.187A5.07,5.07,0,0,1,9.522,4.122H22.471c.1-.376.206-.75.311-1.125H9.522a6.2,6.2,0,0,0-6.19,6.19V54.769a6.2,6.2,0,0,0,6.19,6.19h19.45c-.2-.37-.369-.752-.56-1.125" fill="#f4f3f2"/>
      <path id="Trazado_914492" data-name="Trazado 914492" d="M25.792,49.222h-.1a3.4,3.4,0,0,1-2.438-1.134l-9.3-10.423a3.4,3.4,0,1,1,5.069-4.521l6.9,7.739L51.087,15.728a3.4,3.4,0,0,1,4.8,4.8l-27.7,27.7a3.4,3.4,0,0,1-2.4.995" fill="#fff"/>
      <path id="Trazado_914493" data-name="Trazado 914493" d="M23.258,48.087a3.292,3.292,0,0,0,.4.361A76.892,76.892,0,0,1,20.69,36.114c-.066-.437-.121-.875-.18-1.312l-1.479-1.658a3.4,3.4,0,0,0-5.069,4.521Z" fill="#f4f3f2"/>
    </g>
  </g>
</svg>
