<svg id="Grupo_1103753" data-name="Grupo 1103753" xmlns="http://www.w3.org/2000/svg" xmlns:xlink="http://www.w3.org/1999/xlink" width="205.864" height="71.99" viewBox="0 0 205.864 71.99">
  <defs>
    <clipPath id="clip-path">
      <rect id="Rectángulo_404379" data-name="Rectángulo 404379" width="205.864" height="71.99" transform="translate(0 0)" fill="none"/>
    </clipPath>
  </defs>
  <g id="Grupo_1103752" data-name="Grupo 1103752" clip-path="url(#clip-path)">
    <path id="Trazado_914476" data-name="Trazado 914476" d="M180.445,0H25.419a25.419,25.419,0,0,0,0,50.838H79.91l19.831,19.83a4.512,4.512,0,0,0,6.382,0l19.831-19.83h54.491a25.419,25.419,0,0,0,0-50.838" fill="#4045ab"/>
    <path id="Trazado_914477" data-name="Trazado 914477" d="M36.269,0H25.419a25.419,25.419,0,0,0,0,50.838H42.484A63.715,63.715,0,0,1,33.913,9.5,46,46,0,0,1,36.269,0" fill="#1b22a9"/>
    <path id="Trazado_914478" data-name="Trazado 914478" d="M31.667,34.795l-6.309,3.317a1,1,0,0,1-1.451-1.054l1.2-7.025a1,1,0,0,0-.287-.886l-5.1-4.974a1,1,0,0,1,.554-1.706l7.053-1.025a1,1,0,0,0,.753-.547L31.236,14.5a1,1,0,0,1,1.793,0L36.184,20.9a1,1,0,0,0,.752.547l7.054,1.025a1,1,0,0,1,.554,1.706l-5.1,4.974a1,1,0,0,0-.287.886l1.2,7.025a1,1,0,0,1-1.45,1.054L32.6,34.795a1,1,0,0,0-.931,0" fill="#ffd527"/>
    <path id="Trazado_914479" data-name="Trazado 914479" d="M31.478,34.894A13.173,13.173,0,0,1,30.012,30.7a14.505,14.505,0,0,1,4.7-12.8l-1.678-3.4a1,1,0,0,0-1.793,0l-3.155,6.391a1,1,0,0,1-.753.547l-7.053,1.025a1,1,0,0,0-.554,1.706l5.1,4.975a1,1,0,0,1,.287.885l-1.2,7.025a1,1,0,0,0,1.451,1.054Z" fill="#f4ba14"/>
    <path id="Trazado_914480" data-name="Trazado 914480" d="M66.841,34.795l-6.309,3.317a1,1,0,0,1-1.451-1.054l1.2-7.025A1,1,0,0,0,60,29.147l-5.1-4.974a1,1,0,0,1,.554-1.706L62.5,21.442a1,1,0,0,0,.753-.547L66.41,14.5a1,1,0,0,1,1.793,0L71.358,20.9a1,1,0,0,0,.752.547l7.054,1.025a1,1,0,0,1,.554,1.706l-5.1,4.974a1,1,0,0,0-.287.886l1.2,7.025a1,1,0,0,1-1.45,1.054l-6.309-3.317a1,1,0,0,0-.931,0" fill="#ffd527"/>
    <path id="Trazado_914481" data-name="Trazado 914481" d="M66.652,34.894A13.173,13.173,0,0,1,65.186,30.7a14.505,14.505,0,0,1,4.695-12.8L68.2,14.5a1,1,0,0,0-1.793,0l-3.155,6.391a1,1,0,0,1-.753.547l-7.053,1.025a1,1,0,0,0-.554,1.706L60,29.147a1,1,0,0,1,.287.885l-1.2,7.025a1,1,0,0,0,1.451,1.054Z" fill="#f4ba14"/>
    <path id="Trazado_914482" data-name="Trazado 914482" d="M102.015,34.795l-6.309,3.317a1,1,0,0,1-1.451-1.054l1.205-7.025a1,1,0,0,0-.287-.886l-5.1-4.974a1,1,0,0,1,.554-1.706l7.053-1.025a1,1,0,0,0,.753-.547l3.155-6.392a1,1,0,0,1,1.793,0l3.154,6.392a1,1,0,0,0,.753.547l7.054,1.025a1,1,0,0,1,.554,1.706l-5.1,4.974a1,1,0,0,0-.287.886l1.2,7.025a1,1,0,0,1-1.451,1.054l-6.308-3.317a1,1,0,0,0-.931,0" fill="#ffd527"/>
    <path id="Trazado_914483" data-name="Trazado 914483" d="M101.826,34.894A13.173,13.173,0,0,1,100.36,30.7a14.505,14.505,0,0,1,4.695-12.8l-1.678-3.4a1,1,0,0,0-1.793,0l-3.155,6.391a1,1,0,0,1-.753.547l-7.053,1.025a1,1,0,0,0-.554,1.706l5.1,4.975a1,1,0,0,1,.288.885l-1.205,7.025a1,1,0,0,0,1.451,1.054Z" fill="#f4ba14"/>
    <path id="Trazado_914484" data-name="Trazado 914484" d="M137.189,34.795l-6.309,3.317a1,1,0,0,1-1.451-1.054l1.205-7.025a1,1,0,0,0-.287-.886l-5.1-4.974a1,1,0,0,1,.554-1.706l7.053-1.025a1,1,0,0,0,.753-.547l3.155-6.392a1,1,0,0,1,1.793,0l3.154,6.392a1,1,0,0,0,.753.547l7.054,1.025a1,1,0,0,1,.554,1.706l-5.1,4.974a1,1,0,0,0-.288.886l1.205,7.025a1,1,0,0,1-1.451,1.054l-6.308-3.317a1,1,0,0,0-.931,0" fill="#ffd527"/>
    <path id="Trazado_914485" data-name="Trazado 914485" d="M137,34.894a13.173,13.173,0,0,1-1.466-4.192,14.505,14.505,0,0,1,4.7-12.8l-1.678-3.4a1,1,0,0,0-1.793,0L133.6,20.894a1,1,0,0,1-.753.547L125.8,22.466a1,1,0,0,0-.554,1.706l5.1,4.975a1,1,0,0,1,.287.885l-1.205,7.025a1,1,0,0,0,1.451,1.054Z" fill="#f4ba14"/>
    <path id="Trazado_914486" data-name="Trazado 914486" d="M172.363,34.795l-6.309,3.317a1,1,0,0,1-1.451-1.054l1.205-7.025a1,1,0,0,0-.287-.886l-5.1-4.974a1,1,0,0,1,.554-1.706l7.053-1.025a1,1,0,0,0,.753-.547l3.155-6.392a1,1,0,0,1,1.793,0l3.154,6.392a1,1,0,0,0,.753.547l7.054,1.025a1,1,0,0,1,.554,1.706l-5.1,4.974a1,1,0,0,0-.287.886l1.2,7.025a1,1,0,0,1-1.451,1.054l-6.308-3.317a1,1,0,0,0-.931,0" fill="#ffd527"/>
    <path id="Trazado_914487" data-name="Trazado 914487" d="M172.174,34.894a13.173,13.173,0,0,1-1.466-4.192,14.505,14.505,0,0,1,4.7-12.8l-1.678-3.4a1,1,0,0,0-1.793,0l-3.155,6.391a1,1,0,0,1-.753.547l-7.053,1.025a1,1,0,0,0-.554,1.706l5.1,4.975a1,1,0,0,1,.288.885L164.6,37.057a1,1,0,0,0,1.451,1.054Z" fill="#f4ba14"/>
  </g>
</svg>
