<svg xmlns="http://www.w3.org/2000/svg" xmlns:xlink="http://www.w3.org/1999/xlink" width="70.616" height="70.616" viewBox="0 0 70.616 70.616">
  <defs>
    <clipPath id="clip-path">
      <rect id="Rectángulo_404381" data-name="Rectángulo 404381" width="70.616" height="70.616" transform="translate(0 0.001)" fill="#ffbd45"/>
    </clipPath>
  </defs>
  <g id="Grupo_1103757" data-name="Grupo 1103757" transform="translate(0 -0.001)">
    <g id="Grupo_1103756" data-name="Grupo 1103756" clip-path="url(#clip-path)">
      <path id="Trazado_914494" data-name="Trazado 914494" d="M70.617,35.308A35.308,35.308,0,1,1,35.309,0,35.309,35.309,0,0,1,70.617,35.308" fill="#ffbd45"/>
      <path id="Trazado_914495" data-name="Trazado 914495" d="M22.475,36.737A55.789,55.789,0,0,1,30.827.293a35.3,35.3,0,1,0,9.2,70A55.81,55.81,0,0,1,22.475,36.737" fill="#ffa90d"/>
      <path id="Trazado_914496" data-name="Trazado 914496" d="M35.308,57.468a22,22,0,0,1-21.582-17.8,1.126,1.126,0,1,1,2.212-.426,19.731,19.731,0,0,0,38.74,0,1.126,1.126,0,1,1,2.212.426,22,22,0,0,1-21.582,17.8" fill="#272525"/>
      <path id="Trazado_914497" data-name="Trazado 914497" d="M50.529,25.026c0,2.364-1.478,4.28-3.3,4.28s-3.3-1.916-3.3-4.28,1.478-4.28,3.3-4.28,3.3,1.916,3.3,4.28" fill="#272525"/>
      <path id="Trazado_914498" data-name="Trazado 914498" d="M20.087,25.026c0,2.364,1.478,4.28,3.3,4.28s3.3-1.916,3.3-4.28-1.478-4.28-3.3-4.28-3.3,1.916-3.3,4.28" fill="#272525"/>
      <path id="Trazado_914499" data-name="Trazado 914499" d="M27.609,53.633A19.71,19.71,0,0,1,15.938,39.242a1.126,1.126,0,1,0-2.212.426,21.984,21.984,0,0,0,15.439,16.91q-.822-1.449-1.556-2.945"/>
      <path id="Trazado_914500" data-name="Trazado 914500" d="M22.091,28.96a54.514,54.514,0,0,1,.811-8.151c-1.591.307-2.815,2.069-2.815,4.216a4.451,4.451,0,0,0,2,3.935"/>
    </g>
  </g>
</svg>
