<svg xmlns="http://www.w3.org/2000/svg" width="103.72" height="104.219" viewBox="0 0 103.72 104.219">
  <g id="Grupo_1103819" data-name="Grupo 1103819" transform="translate(-748.14 -6152.347)">
    <g id="Grupo_1101012" data-name="Grupo 1101012" transform="translate(-371.907 2830.215)">
      <circle id="Elipse_11528" data-name="Elipse 11528" cx="51.86" cy="51.86" r="51.86" transform="translate(1120.047 3322.631)" fill="#4045ab"/>
    </g>
    <g id="Grupo_1103419" data-name="Grupo 1103419" transform="translate(752.08 6145.847)">
      <path id="Trazado_913506" data-name="Trazado 913506" d="M53.934,34.092a1.567,1.567,0,0,0,.555-1.2V25.052h1.569a1.569,1.569,0,0,0,0-3.137H54.489V14.072a1.578,1.578,0,0,0-1.826-1.547L33.968,15.64H27.822c-9.432.2-10.7,13.492-1.568,15.527,0,0,0,4.864,0,4.864a4.706,4.706,0,0,0,9.412,0V31.61l17,2.832a1.564,1.564,0,0,0,1.271-.35ZM23.117,23.483a4.711,4.711,0,0,1,4.706-4.706h4.706v9.412H27.823A4.711,4.711,0,0,1,23.117,23.483ZM30.96,37.6a1.57,1.57,0,0,1-1.569-1.569V31.326h3.137v4.706A1.57,1.57,0,0,1,30.96,37.6Zm20.392-6.558L35.666,28.429V18.538l15.686-2.614Z" transform="translate(9.118 3.127)" fill="#ee4f47" stroke="#ee4f47" stroke-width="1"/>
      <path id="Trazado_913507" data-name="Trazado 913507" d="M91.758,33.252a1.757,1.757,0,0,0-.531-.831L79.983,23.8V8.569A1.568,1.568,0,0,0,78.415,7H17.426a1.568,1.568,0,0,0-1.569,1.569V23.8C15.792,23.87,4.58,32.4,4.549,32.5A1.77,1.77,0,0,0,4,33.666S4,46.215,4,46.215a1.569,1.569,0,0,0,3.137,0V36.806L35.752,58.744,7.884,80.109a4.666,4.666,0,0,1-.747-2.523V54.058a1.569,1.569,0,0,0-3.137,0V77.587a7.852,7.852,0,0,0,7.843,7.843H84a7.852,7.852,0,0,0,7.843-7.843V33.666a3.4,3.4,0,0,0-.083-.414Zm-4.087.394L79.983,39.54V27.749ZM15.858,39.54,8.171,33.646l7.687-5.9ZM19,41.945V10.137H76.846V41.945L57.507,56.771l-8.63-6.625a1.57,1.57,0,0,0-1.91,0L38.33,56.768,19,41.945ZM11.843,82.292a4.642,4.642,0,0,1-1.359-.224l37.437-28.7,8.629,6.625c.127.069.257.13.389.19a1.616,1.616,0,0,0,1.526-.193L88.7,36.806V77.587a4.667,4.667,0,0,1-.747,2.522L64.922,62.445a1.568,1.568,0,1,0-1.909,2.489L85.358,82.068A4.641,4.641,0,0,1,84,82.292H11.843Z" transform="translate(0 0)" fill="#ee4f47" stroke="#ee4f47" stroke-width="1"/>
    </g>
  </g>
</svg>
