<svg xmlns="http://www.w3.org/2000/svg" width="103.72" height="107.339" viewBox="0 0 103.72 107.339">
  <g id="Grupo_1101011" data-name="Grupo 1101011" transform="translate(-1120.047 -3319.012)">
    <circle id="Elipse_11528" data-name="Elipse 11528" cx="51.86" cy="51.86" r="51.86" transform="translate(1120.047 3322.631)" fill="#4045ab"/>
    <g id="Grupo_1103418" data-name="Grupo 1103418" transform="translate(1114.495 3311.831)">
      <g id="Grupo_1103417" data-name="Grupo 1103417" transform="translate(11.956 4.182)">
        <g id="Grupo_1103416" data-name="Grupo 1103416" transform="translate(3.044 3)">
          <path id="Trazado_913501" data-name="Trazado 913501" d="M41.505,72.015a9.051,9.051,0,0,1-6.443-2.669L31.521,65.8a5.023,5.023,0,0,0-3.573-1.48H23.8a9.122,9.122,0,0,1-9.112-9.112V51.064a5.019,5.019,0,0,0-1.481-3.573l-3.54-3.54a9.122,9.122,0,0,1,0-12.887l3.541-3.54a5.023,5.023,0,0,0,1.48-3.573V19.8A9.122,9.122,0,0,1,23.8,10.69h4.149a5.019,5.019,0,0,0,3.573-1.481l3.54-3.54a9.111,9.111,0,0,1,12.886,0L51.49,9.21a5.087,5.087,0,0,0,3.572,1.48h4.149A9.122,9.122,0,0,1,68.323,19.8v4.149A5.022,5.022,0,0,0,69.8,27.524l3.542,3.539a9.125,9.125,0,0,1,0,12.888L69.8,47.492a5.018,5.018,0,0,0-1.479,3.572v4.149a9.122,9.122,0,0,1-9.112,9.112H55.062a2.03,2.03,0,1,1,0-4.06h4.149a5.058,5.058,0,0,0,5.053-5.052V51.064a9.056,9.056,0,0,1,2.668-6.443l3.542-3.541a5.061,5.061,0,0,0,0-7.145L66.932,30.4a9.06,9.06,0,0,1-2.668-6.444V19.8a5.058,5.058,0,0,0-5.053-5.052H55.062a9.176,9.176,0,0,1-6.442-2.669L45.077,8.539a5.171,5.171,0,0,0-7.145,0l-3.54,3.541a9.055,9.055,0,0,1-6.443,2.669H23.8A5.058,5.058,0,0,0,18.748,19.8v4.149a9.058,9.058,0,0,1-2.668,6.443l-3.542,3.54a5.058,5.058,0,0,0,0,7.146l3.541,3.54a9.055,9.055,0,0,1,2.669,6.443v4.149A5.058,5.058,0,0,0,23.8,60.265h4.149a9.058,9.058,0,0,1,6.443,2.668l3.54,3.542a5.171,5.171,0,0,0,7.145,0l1.869-1.869a2.03,2.03,0,1,1,2.87,2.872l-1.869,1.868a9.05,9.05,0,0,1-6.442,2.668Z" transform="translate(1.033 -3)" fill="#ee4f47"/>
          <path id="Trazado_913502" data-name="Trazado 913502" d="M35.034,52.782A21.7,21.7,0,0,1,15.758,41.111a2.03,2.03,0,1,1,3.6-1.883,17.7,17.7,0,1,0-2.008-8.195,2.03,2.03,0,0,1-4.06,0A21.748,21.748,0,1,1,35.034,52.782Z" transform="translate(7.504 3.474)" fill="#ee4f47"/>
          <path id="Trazado_913503" data-name="Trazado 913503" d="M23.543,64.779c-.109,0-.218,0-.328-.013a4.033,4.033,0,0,1-3.289-2.185l-4.3-8.252L6.439,52.8A4.064,4.064,0,0,1,3.8,46.423l15.11-20.816A2.029,2.029,0,1,1,22.2,27.992L7.094,48.8l9.2,1.514a4.022,4.022,0,0,1,2.947,2.174l4.287,8.228L36.915,42.273A2.03,2.03,0,1,1,40.2,44.656L26.826,63.107a4.05,4.05,0,0,1-3.283,1.672Z" transform="translate(-3.044 19.42)" fill="#ee4f47"/>
          <path id="Trazado_913504" data-name="Trazado 913504" d="M43.233,64.807a4.026,4.026,0,0,1-3.291-1.691L26.768,44.684a2.03,2.03,0,1,1,3.3-2.361L43.245,60.754l4.349-8.232a4.031,4.031,0,0,1,3.017-2.12l9.158-1.454L44.855,28.1a2.03,2.03,0,1,1,3.3-2.361l14.9,20.847a3.992,3.992,0,0,1,.466,3.889,4.043,4.043,0,0,1-3.106,2.481L51.188,54.42l-4.349,8.22A4.042,4.042,0,0,1,43.513,64.8c-.093.007-.186.01-.28.01Z" transform="translate(20.999 19.543)" fill="#ee4f47"/>
        </g>
        <path id="Trazado_913505" data-name="Trazado 913505" d="M23.55,37.342A2.691,2.691,0,0,1,20.942,34l1.444-5.776L19.08,24.917a2.689,2.689,0,0,1,1.9-4.59h4.41l2.014-4.7v0a2.69,2.69,0,0,1,4.943,0l2.014,4.7h4.411a2.688,2.688,0,0,1,1.9,4.592l-3.3,3.3L38.814,34a2.689,2.689,0,0,1-3.945,2.986l-4.991-2.851-4.993,2.852a2.681,2.681,0,0,1-1.334.356Zm5.647-3.6,0,0Zm1.363,0,0,0Zm-7.689-.283,0,0Zm14.012,0,0,0Zm-7.006-3.593a2.7,2.7,0,0,1,1.338.355L34.1,31.869l-.852-3.413a2.7,2.7,0,0,1,.712-2.559l1.51-1.509H33.46a2.682,2.682,0,0,1-2.475-1.637l-1.107-2.583-1.11,2.59a2.686,2.686,0,0,1-2.471,1.63H24.291L25.805,25.9a2.7,2.7,0,0,1,.709,2.548l-.854,3.418,2.884-1.647a2.674,2.674,0,0,1,1.333-.354Zm6.951-1.1-.006.006Zm.977-6.719,0,0Zm-3.09-.9,0,.008Z" transform="translate(15.704 11.328)" fill="#ee4f47"/>
      </g>
    </g>
  </g>
</svg>
