<svg xmlns="http://www.w3.org/2000/svg" xmlns:xlink="http://www.w3.org/1999/xlink" width="333.325" height="376.925" viewBox="0 0 333.325 376.925">
  <defs>
    <clipPath id="clip-path">
      <rect id="Rectángulo_404365" data-name="Rectángulo 404365" width="303" height="304.179" transform="translate(0 -34)" fill="none"/>
    </clipPath>
    <clipPath id="clip-path-3">
      <rect id="Rectángulo_404357" data-name="Rectángulo 404357" width="303" height="270.179" fill="none"/>
    </clipPath>
    <clipPath id="clip-path-6">
      <rect id="Rectángulo_404360" data-name="Rectángulo 404360" width="14.559" height="14.56" fill="none"/>
    </clipPath>
    <clipPath id="clip-path-7">
      <rect id="Rectángulo_404361" data-name="Rectángulo 404361" width="17.553" height="23.224" fill="none"/>
    </clipPath>
    <clipPath id="clip-path-8">
      <rect id="Rectángulo_404362" data-name="Rectángulo 404362" width="19.707" height="19.94" fill="none"/>
    </clipPath>
    <clipPath id="clip-path-9">
      <rect id="Rectángulo_404363" data-name="Rectángulo 404363" width="42.087" height="14.736" fill="none"/>
    </clipPath>
  </defs>
  <g id="Grupo_1103822" data-name="Grupo 1103822" transform="translate(-1020 -4766.769)">
    <g id="Grupo_1100849" data-name="Grupo 1100849" transform="translate(1020 4766.769)">
      <rect id="Rectángulo_35929" data-name="Rectángulo 35929" width="333.054" height="376.925" transform="translate(0.271 0)" fill="#f6ccb3"/>
      <rect id="Rectángulo_402739" data-name="Rectángulo 402739" width="333.054" height="81.071" transform="translate(0 0)" fill="#fef6ed"/>
      <g id="Rectángulo_402741" data-name="Rectángulo 402741" transform="translate(25.335 22.294)" fill="none" stroke="#fef6ed" stroke-width="3">
        <rect width="282.384" height="332.336" stroke="none"/>
        <rect x="1.5" y="1.5" width="279.384" height="329.336" fill="none"/>
      </g>
    </g>
    <g id="Grupo_1103723" data-name="Grupo 1103723" transform="translate(1032 4848.713)">
      <g id="Grupo_1103722" data-name="Grupo 1103722" clip-path="url(#clip-path)">
        <g id="Grupo_1103703" data-name="Grupo 1103703">
          <g id="Grupo_1103702" data-name="Grupo 1103702" clip-path="url(#clip-path)">
            <path id="Trazado_914116" data-name="Trazado 914116" d="M307.9,25.619h80.423a6.34,6.34,0,0,1,6.34,6.34v53.29a6.34,6.34,0,0,1-6.34,6.34H345.967l-20.131,20.131V91.589H307.9a4.7,4.7,0,0,1-4.7-4.7V30.32a4.7,4.7,0,0,1,4.7-4.7" transform="translate(-105.195 -51.782)" fill="#12263f"/>
            <path id="Trazado_914117" data-name="Trazado 914117" d="M331.371,55.422a4.733,4.733,0,1,1-4.732-4.731,4.733,4.733,0,0,1,4.732,4.731" transform="translate(-101.987 -47.484)" fill="#fafafa"/>
            <path id="Trazado_914118" data-name="Trazado 914118" d="M347.35,55.422a4.733,4.733,0,1,1-4.733-4.731,4.733,4.733,0,0,1,4.733,4.731" transform="translate(-99.248 -47.484)" fill="#fafafa"/>
            <path id="Trazado_914119" data-name="Trazado 914119" d="M363.328,55.422a4.733,4.733,0,1,1-4.733-4.731,4.733,4.733,0,0,1,4.733,4.731" transform="translate(-96.509 -47.484)" fill="#fafafa"/>
          </g>
        </g>
        <g id="Grupo_1103705" data-name="Grupo 1103705">
          <g id="Grupo_1103704" data-name="Grupo 1103704" clip-path="url(#clip-path-3)">
            <path id="Trazado_914120" data-name="Trazado 914120" d="M121.966,30.249l-5.749,4.8-2.8-1.245-.576-2.369s6.178-4.557,5.945-4.8a3.589,3.589,0,0,0-2.122-.975,5.673,5.673,0,0,0-4.164,1.118l-1.087.808a6.666,6.666,0,0,0-2.624,6.467c.024.136.042.212.042.212L91.788,48.434a5.5,5.5,0,1,0,3.623,4.02L112.267,38.3a3.6,3.6,0,0,0,2.424.881,6.286,6.286,0,0,0,4.572-1.854l1.422-1.392a5.719,5.719,0,0,0,1.282-5.689M89.039,55.936a2.514,2.514,0,1,1,3.319-1.273,2.514,2.514,0,0,1-3.319,1.273" transform="translate(-26.606 -8.057)" fill="#e8505b"/>
            <path id="Trazado_914121" data-name="Trazado 914121" d="M140.6,54.887l-18.36,1.538.067-.034A34.1,34.1,0,0,1,96.776,68.625a35.642,35.642,0,0,1-11.9-1.882,34.071,34.071,0,0,1-11.269-6.5A34.325,34.325,0,0,1,61.784,35.082,12.628,12.628,0,0,1,61.8,33.2q.047-.941.095-1.886a15.926,15.926,0,0,1,.236-1.881q.144-.94.288-1.884c.13-.623.309-1.237.462-1.858.171-.616.291-1.249.507-1.854l.663-1.813.333-.91c.11-.3.272-.586.406-.88A34.771,34.771,0,0,1,73.526,8.479a34.272,34.272,0,0,1,53.493,11.083,18.093,18.093,0,0,1,1.013,2.332c.282.787.577,1.558.838,2.327a36.861,36.861,0,0,1,1.029,4.607c.1.755.248,1.492.313,2.225l.1,2.167q.026.532.051,1.053c-.006.348-.03.692-.045,1.033l-.1,2-.014-.061L140.6,54.887,130.037,37.353l-.016-.026v-.036q.043-.976.087-1.993c.013-.339.036-.681.04-1.027q-.027-.518-.055-1.047l-.113-2.152c-.066-.728-.212-1.46-.318-2.209a36.874,36.874,0,0,0-1.037-4.57c-.261-.762-.556-1.526-.838-2.306a17.97,17.97,0,0,0-1.012-2.311A33.9,33.9,0,0,0,73.763,8.749a34.434,34.434,0,0,0-8.641,11.637c-.132.291-.293.57-.4.871l-.33.9-.657,1.794c-.213.6-.331,1.225-.5,1.834-.151.614-.329,1.221-.458,1.838q-.143.935-.284,1.865a15.559,15.559,0,0,0-.234,1.862q-.047.936-.095,1.867a12.545,12.545,0,0,0-.019,1.857A34,34,0,0,0,84.978,66.444,35.411,35.411,0,0,0,96.77,68.333a34.041,34.041,0,0,0,10.7-1.921,34.435,34.435,0,0,0,14.687-10.146l.027-.032.04,0L140.6,54.887" transform="translate(-19.427 0)" fill="#263238"/>
          </g>
        </g>
        <g id="Grupo_1103707" data-name="Grupo 1103707">
          <g id="Grupo_1103706" data-name="Grupo 1103706" clip-path="url(#clip-path-3)">
            <path id="Trazado_914122" data-name="Trazado 914122" d="M286.177,305.647H26.477a9.985,9.985,0,0,1-9.984-9.984V130.689a9.985,9.985,0,0,1,9.984-9.984h259.7a9.985,9.985,0,0,1,9.984,9.984V295.663a9.985,9.985,0,0,1-9.984,9.984" transform="translate(-5.188 -37.972)" fill="#455a64"/>
            <path id="Trazado_914123" data-name="Trazado 914123" d="M290.8,386.756H12.2A12.2,12.2,0,0,1,0,374.557v-3.983H303v3.983a12.2,12.2,0,0,1-12.2,12.2" transform="translate(0 -116.577)" fill="#455a64"/>
            <rect id="Rectángulo_404358" data-name="Rectángulo 404358" width="263.872" height="156.181" transform="translate(19.203 90.081)" fill="#f5f5f5"/>
            <path id="Trazado_914124" data-name="Trazado 914124" d="M180.854,370.491c-.005,0,.093-.006.291-.009l.887-.009,3.446-.019,12.786-.052,42.749-.092h.315l-.159.273-1.7,2.908-1.794,3.073-.052.09h-.1l-52.907-.1h-.046l-.024-.038-2.77-4.506-.7-1.141c-.154-.254-.223-.377-.223-.377s.095.137.263.4l.74,1.144,2.827,4.4-.069-.038,52.907-.1-.156.09,1.794-3.074,1.7-2.907.156.272-42.575-.092-12.845-.052-3.5-.019-.916-.009c-.208,0-.323-.009-.323-.009" transform="translate(-56.894 -116.494)" fill="#263238"/>
            <path id="Trazado_914125" data-name="Trazado 914125" d="M167.256,171.338a8.978,8.978,0,0,1,1.677-1.712l-.4-2.186,3.38-1.442,1.3,1.8a9.006,9.006,0,0,1,2.4-.026l1.263-1.827,3.411,1.37-.352,2.192a8.982,8.982,0,0,1,1.711,1.677l2.185-.4,1.443,3.38-1.8,1.3a9.005,9.005,0,0,1,.026,2.4l1.827,1.263-1.37,3.411-2.192-.352a8.982,8.982,0,0,1-1.677,1.711l.4,2.186-3.38,1.442-1.3-1.8a9.006,9.006,0,0,1-2.4.026l-1.263,1.827-3.411-1.37.352-2.192a8.982,8.982,0,0,1-1.711-1.677l-2.186.4-1.442-3.38,1.8-1.3a9.006,9.006,0,0,1-.026-2.4l-1.827-1.263,1.37-3.411Zm3.657,3.8a3.943,3.943,0,1,0,5.128-2.189,3.943,3.943,0,0,0-5.128,2.189" transform="translate(-51.495 -52.204)" fill="#e0e0e0" fill-rule="evenodd"/>
            <path id="Trazado_914126" data-name="Trazado 914126" d="M144.165,270.058a26.09,26.09,0,0,1,4.858-4.959l-1.156-6.333,9.8-4.18,3.772,5.215a26.074,26.074,0,0,1,6.942-.076l3.659-5.293,9.882,3.971-1.021,6.352a26.08,26.08,0,0,1,4.96,4.859l6.333-1.156,4.18,9.794-5.216,3.773a26.073,26.073,0,0,1,.076,6.942l5.293,3.659-3.97,9.882-6.352-1.021a26.081,26.081,0,0,1-4.859,4.96l1.156,6.333-9.795,4.18-3.773-5.216a26.131,26.131,0,0,1-6.942.076l-3.659,5.293-9.882-3.971,1.021-6.352a26.082,26.082,0,0,1-4.96-4.859l-6.332,1.156-4.18-9.795,5.215-3.773a26.1,26.1,0,0,1-.075-6.942l-5.293-3.659,3.97-9.881Zm10.6,11.006a11.424,11.424,0,1,0,14.859-6.341,11.423,11.423,0,0,0-14.859,6.341" transform="translate(-42.104 -80.041)" fill="#f5f5f5" fill-rule="evenodd"/>
            <path id="Trazado_914127" data-name="Trazado 914127" d="M84.995,303.477a4.775,4.775,0,0,1,.7-1.4,6.292,6.292,0,0,1,3.453-2.455,6.364,6.364,0,0,1,2.971-.132A6.471,6.471,0,0,1,95.181,301a6.475,6.475,0,0,1,1.965,3.217,6.448,6.448,0,0,1-2.863,7.128,6.48,6.48,0,0,1-3.645.963,6.474,6.474,0,0,1-3.257-1.025,6.374,6.374,0,0,1-2.054-2.152,6.3,6.3,0,0,1-.8-4.162,4.787,4.787,0,0,1,.462-1.5c.042.014-.2.528-.322,1.515A6.305,6.305,0,0,0,85.548,309a6.174,6.174,0,0,0,5.1,2.974,6.176,6.176,0,0,0,3.447-.931,6.123,6.123,0,0,0,2.707-6.738,6.179,6.179,0,0,0-1.844-3.056,6.171,6.171,0,0,0-5.74-1.382,6.3,6.3,0,0,0-3.408,2.291c-.593.8-.775,1.336-.816,1.317" transform="translate(-26.568 -94.178)" fill="#263238"/>
            <path id="Trazado_914128" data-name="Trazado 914128" d="M74.016,292.431a1.339,1.339,0,0,1-.221-.022l-.668-.093-2.635-.392.062-.036-2.165,5.479-.033-.11,2.936,2.012.053.036-.008.064a14.406,14.406,0,0,0,.054,3.81l.01.071-.058.042-2.879,2.1.042-.155c.733,1.7,1.509,3.513,2.325,5.413l-.157-.084,3.5-.646.089-.016.056.071a14.341,14.341,0,0,0,2.72,2.655l.075.056-.015.094-.559,3.515-.1-.175,5.469,2.19-.2.06c.63-.912,1.321-1.914,2.021-2.93l.06-.086.1.013a14.373,14.373,0,0,0,3.794-.045l.1-.016.062.086,2.089,2.884-.214-.059,5.418-2.315-.106.2-.641-3.5-.02-.108.087-.067a14.348,14.348,0,0,0,2.652-2.707l0,0,.066-.088.108.017,3.514.565-.2.111,2.2-5.466.064.215-2.927-2.026-.088-.061.013-.107a14.272,14.272,0,0,0-.039-3.793l-.015-.106.086-.062,2.887-2.084-.058.207q-1.181-2.775-2.307-5.42l.184.1-3.5.635-.1.018-.06-.077a14.282,14.282,0,0,0-2.709-2.663l-.076-.057.015-.093c.2-1.2.385-2.373.57-3.513l.093.164-5.462-2.208.166-.05-2.031,2.923-.045.065-.078-.01a14.384,14.384,0,0,0-3.807.031l-.072.01-.042-.058L81.4,283.935l.128.036L76.1,286.259l.047-.089.618,3.507.006.036-.028.021a15.012,15.012,0,0,0-2.106,1.973l-.463.546a1.356,1.356,0,0,1-.155.179,1.823,1.823,0,0,1,.132-.2c.094-.127.236-.319.441-.565a13.923,13.923,0,0,1,2.08-2.027l-.021.056-.663-3.5-.012-.064.06-.026,5.409-2.336.078-.034.051.069,2.1,2.879-.113-.048a14.548,14.548,0,0,1,3.873-.053l-.122.055,2.016-2.933.062-.091.1.041,5.471,2.186.112.045-.019.119c-.182,1.141-.367,2.31-.559,3.515l-.061-.15a14.6,14.6,0,0,1,2.778,2.714l-.157-.06,3.5-.644.132-.024.052.123,2.318,5.416.054.127-.112.081-2.884,2.089.071-.167a14.6,14.6,0,0,1,.045,3.888l-.075-.168,2.929,2.023.118.082-.053.133-2.2,5.468-.053.134-.143-.023L97.242,310l.173-.071,0,0a14.622,14.622,0,0,1-2.72,2.775l.066-.175c.219,1.2.437,2.4.639,3.5l.026.142-.132.056-5.42,2.31-.131.056-.083-.115L87.574,315.6l.167.071a14.691,14.691,0,0,1-3.887.039l.162-.073-2.027,2.926-.077.111-.125-.05-5.464-2.2-.12-.048.021-.128c.2-1.223.393-2.424.57-3.513l.061.15a14.581,14.581,0,0,1-2.768-2.721l.145.055-3.5.633-.112.021-.045-.1-2.3-5.424-.04-.1.084-.06,2.891-2.079-.048.113a14.552,14.552,0,0,1-.029-3.87l.045.1-2.92-2.036-.06-.042.027-.068,2.228-5.454.017-.043.045.008,2.6.449.672.122a1.856,1.856,0,0,1,.231.051" transform="translate(-21.452 -89.222)" fill="#263238"/>
            <path id="Trazado_914129" data-name="Trazado 914129" d="M52.5,176.442a35.951,35.951,0,0,1,4.47-8.465l-4.017-7.914,11.3-9.376L71.29,156.1a35.973,35.973,0,0,1,9.145-2.83l2.755-8.433L97.811,146.2l1.149,8.8a35.977,35.977,0,0,1,8.466,4.472l7.914-4.017,9.374,11.3-5.41,7.036a35.986,35.986,0,0,1,2.829,9.145l8.434,2.755-1.363,14.621-8.8,1.149a35.934,35.934,0,0,1-4.472,8.465l4.017,7.915-11.3,9.375-7.036-5.411a36.013,36.013,0,0,1-9.145,2.829l-2.755,8.434L75.095,231.7l-1.149-8.8a36,36,0,0,1-8.466-4.472l-7.914,4.017-9.375-11.3,5.411-7.036a35.958,35.958,0,0,1-2.829-9.145l-8.434-2.755L43.7,177.591ZM70.83,186.823A15.753,15.753,0,1,0,87.976,172.6,15.752,15.752,0,0,0,70.83,186.823" transform="translate(-13.319 -45.563)" fill="#e0e0e0" fill-rule="evenodd"/>
            <line id="Línea_1640" data-name="Línea 1640" x2="279.668" transform="translate(11.304 253.997)" fill="#263238"/>
            <path id="Trazado_914130" data-name="Trazado 914130" d="M296.161,370.5c0,.094-62.611.17-139.827.17-77.244,0-139.841-.076-139.841-.17s62.6-.17,139.841-.17c77.216,0,139.827.076,139.827.17" transform="translate(-5.188 -116.499)" fill="#263238"/>
          </g>
        </g>
        <g id="Grupo_1103721" data-name="Grupo 1103721">
          <g id="Grupo_1103720" data-name="Grupo 1103720" clip-path="url(#clip-path-3)">
            <path id="Trazado_914131" data-name="Trazado 914131" d="M192.858,64c-4.313,1.892-6.823,6.54-7.764,11.155s-.632,9.385-1.04,14.077-1.7,9.6-5.119,12.83c-3.191,3.013-7.892,4.239-10.611,7.685a9.667,9.667,0,0,0,5.511,15.429c-2.15,3.406-1.074,8.161,1.677,11.1s6.793,4.344,10.775,4.95c7.006,1.067,14.476-.111,20.392-4.01s10.058-10.669,10.044-17.755" transform="translate(-52.305 -20.135)" fill="#263238"/>
            <path id="Trazado_914132" data-name="Trazado 914132" d="M177.259,148.96a5.657,5.657,0,0,1-.759-1.527,9.191,9.191,0,0,1-.276-4.626,12.719,12.719,0,0,1,.989-3.072,17.015,17.015,0,0,1,1.98-3.127,57.28,57.28,0,0,1,5.93-6,62.121,62.121,0,0,0,5.765-6.1,28.493,28.493,0,0,0,3.688-5.745,20.123,20.123,0,0,0,1.5-4.352c.129-.53.166-.954.226-1.236a2.142,2.142,0,0,1,.094-.431,2.1,2.1,0,0,1-.026.439c-.038.285-.055.715-.165,1.253a18.7,18.7,0,0,1-1.409,4.428,27.757,27.757,0,0,1-3.662,5.84,59.64,59.64,0,0,1-5.775,6.152,59.744,59.744,0,0,0-5.918,5.947,17.05,17.05,0,0,0-1.971,3.054,12.714,12.714,0,0,0-1.007,2.995,9.361,9.361,0,0,0,.165,4.542,15.97,15.97,0,0,0,.633,1.568" transform="translate(-55.385 -35.467)" fill="#455a64"/>
            <path id="Trazado_914133" data-name="Trazado 914133" d="M270.365,86.592c0,6.335,2.923,12.14,5.55,14.274,3.718,3.02,9.173,4.479,12.768,5.484,5.236,1.463,9.625,6.047,10.279,11.444s-2.875,11.167-8.14,12.525c3.309,3.38,2.324,9.189-.4,13.056-5.163,7.327-15.465,10.143-24.009,7.434s-15.091-10.281-17.641-18.874" transform="translate(-78.26 -27.241)" fill="#263238"/>
            <path id="Trazado_914134" data-name="Trazado 914134" d="M291.641,157.123a5.639,5.639,0,0,0,2.013-.886,5.911,5.911,0,0,0,1.688-1.932,7.028,7.028,0,0,0,.9-3.261,7.981,7.981,0,0,0-1.06-3.951,12.788,12.788,0,0,0-3.078-3.61c-2.594-2.186-6.124-3.553-9.537-5.516a18.7,18.7,0,0,1-4.529-3.556,10.893,10.893,0,0,1-1.584-2.258,10.02,10.02,0,0,1-.886-2.492,16.909,16.909,0,0,1-.221-4.848c.115-1.515.307-2.912.44-4.189a18.661,18.661,0,0,0-.095-6.034l-.249-.917c-.079-.263-.184-.473-.248-.65a4,4,0,0,1-.2-.544,3.513,3.513,0,0,1,.26.517c.075.175.192.382.281.645s.177.578.282.92a18.015,18.015,0,0,1,.2,6.089c-.119,1.283-.3,2.681-.4,4.184a16.81,16.81,0,0,0,.247,4.761,9.842,9.842,0,0,0,2.411,4.6,18.5,18.5,0,0,0,4.453,3.485c3.376,1.944,6.93,3.326,9.566,5.569a12.983,12.983,0,0,1,3.125,3.716,8.178,8.178,0,0,1,1.052,4.093,7.154,7.154,0,0,1-.977,3.348,5.93,5.93,0,0,1-1.776,1.946,4.92,4.92,0,0,1-1.515.691,3.593,3.593,0,0,1-.574.087" transform="translate(-86.51 -35.384)" fill="#455a64"/>
            <path id="Trazado_914135" data-name="Trazado 914135" d="M304.556,131.8a3.393,3.393,0,0,0,.639-1.76,4.256,4.256,0,0,0-.489-2.136,5.351,5.351,0,0,0-1.943-2.145,9.5,9.5,0,0,0-3.368-1.137c-1.276-.221-2.668-.3-4.127-.528a22.162,22.162,0,0,1-8.866-3.507,21.8,21.8,0,0,1-6.551-6.929,22.041,22.041,0,0,1-2.69-7.32,21.051,21.051,0,0,1-.28-5.254c.048-.62.106-1.1.164-1.422a2.693,2.693,0,0,1,.1-.49c.04.005-.078.683-.128,1.919a22.542,22.542,0,0,0,3.108,12.407,21.735,21.735,0,0,0,6.472,6.807,22.132,22.132,0,0,0,8.725,3.479c1.437.232,2.833.324,4.126.56a9.642,9.642,0,0,1,3.447,1.211,5.5,5.5,0,0,1,1.986,2.265,4.32,4.32,0,0,1,.45,2.229,3.06,3.06,0,0,1-.451,1.365,3.709,3.709,0,0,1-.231.295c-.055.064-.084.1-.089.091" transform="translate(-87.085 -31.199)" fill="#455a64"/>
            <path id="Trazado_914136" data-name="Trazado 914136" d="M204.333,153.224c.9-9.465,1.679-19.446,1.679-19.446s-11.991-3.223-12.951-19.376c-.916-15.4,5.03-50.184,5.03-50.184a45.927,45.927,0,0,1,49.692,16.654l-8.594,76.753c-1,8.91-9.453,15.149-18.986,14.008-9.627-1.153-16.729-9.391-15.869-18.409" transform="translate(-60.704 -19.62)" fill="#b78876"/>
            <path id="Trazado_914137" data-name="Trazado 914137" d="M203.09,104.868a2.05,2.05,0,0,0,1.764,2.252,1.96,1.96,0,0,0,2.283-1.632,2.05,2.05,0,0,0-1.762-2.253,1.962,1.962,0,0,0-2.286,1.633" transform="translate(-63.884 -32.468)" fill="#263238"/>
            <path id="Trazado_914138" data-name="Trazado 914138" d="M198.59,101.006c.227.291,1.885-.7,4.079-.478,2.195.19,3.694,1.478,3.959,1.232.129-.108-.082-.613-.733-1.193a5.628,5.628,0,0,0-3.137-1.316,5.4,5.4,0,0,0-3.279.714c-.726.452-1,.91-.889,1.041" transform="translate(-62.466 -31.215)" fill="#263238"/>
            <path id="Trazado_914139" data-name="Trazado 914139" d="M235.816,108.659a2.05,2.05,0,0,0,1.764,2.252,1.96,1.96,0,0,0,2.283-1.632,2.051,2.051,0,0,0-1.762-2.253,1.962,1.962,0,0,0-2.286,1.633" transform="translate(-74.179 -33.661)" fill="#263238"/>
            <path id="Trazado_914140" data-name="Trazado 914140" d="M231.888,105.457c.227.291,1.886-.7,4.079-.478,2.2.19,3.7,1.478,3.96,1.232.128-.108-.079-.613-.733-1.193a5.627,5.627,0,0,0-3.136-1.316,5.4,5.4,0,0,0-3.28.714c-.724.452-1,.91-.889,1.041" transform="translate(-72.941 -32.615)" fill="#263238"/>
            <path id="Trazado_914141" data-name="Trazado 914141" d="M215.442,120.529a14.592,14.592,0,0,0-3.5-.994c-.555-.113-1.074-.277-1.131-.668a2.868,2.868,0,0,1,.537-1.624q.991-1.957,2.077-4.1c2.9-5.85,5.058-10.682,4.821-10.8s-2.779,4.534-5.679,10.384q-1.052,2.165-2.01,4.136a3.257,3.257,0,0,0-.507,2.171,1.412,1.412,0,0,0,.841.91,3.8,3.8,0,0,0,.939.226,14.342,14.342,0,0,0,3.613.361" transform="translate(-66.062 -32.194)" fill="#263238"/>
            <path id="Trazado_914142" data-name="Trazado 914142" d="M211.929,164.907a40.661,40.661,0,0,0,21.859-3.585s-6.243,10.416-22.013,7.361Z" transform="translate(-66.621 -50.749)" fill="#aa6550"/>
            <path id="Trazado_914143" data-name="Trazado 914143" d="M218.413,136.175a3.973,3.973,0,0,1,3.69-1.12,3.628,3.628,0,0,1,2.361,1.583,2.3,2.3,0,0,1-.083,2.633,2.667,2.667,0,0,1-2.949.444,8.334,8.334,0,0,1-2.64-1.95,2.437,2.437,0,0,1-.563-.711.737.737,0,0,1,.084-.816" transform="translate(-68.625 -42.46)" fill="#aa6550"/>
            <path id="Trazado_914144" data-name="Trazado 914144" d="M223.673,132.02c-.355-.056-.594,2.326-2.8,3.816s-4.716.979-4.768,1.31c-.047.146.52.518,1.589.653a5.963,5.963,0,0,0,3.966-.959,5.192,5.192,0,0,0,2.195-3.215c.189-.986-.019-1.6-.183-1.605" transform="translate(-67.983 -41.531)" fill="#263238"/>
            <path id="Trazado_914145" data-name="Trazado 914145" d="M260.96,114.1a9.53,9.53,0,0,1,5.087.831,6.652,6.652,0,0,1,3.413,3.769,6.95,6.95,0,0,1-.457,5.088,11.767,11.767,0,0,1-3.318,3.992,7.969,7.969,0,0,1-3.289,1.745,3.808,3.808,0,0,1-3.488-.9" transform="translate(-81.449 -35.877)" fill="#b78876"/>
            <path id="Trazado_914146" data-name="Trazado 914146" d="M261.777,125.635c-.2.044.437,1.145,2.034.88a3.367,3.367,0,0,0,2.087-1.489,7.6,7.6,0,0,0,1.124-2.739,4.464,4.464,0,0,0-.424-3.065,2.973,2.973,0,0,0-2.1-1.539c-1.6-.193-2.2.866-2.023.916.116.143.792-.368,1.815-.013.985.283,1.834,1.762,1.449,3.459-.363,1.731-1.193,3.267-2.163,3.574-1.017.4-1.673-.115-1.794.015" transform="translate(-82.34 -37.014)" fill="#aa6550"/>
            <path id="Trazado_914147" data-name="Trazado 914147" d="M205.482,68.238a19.482,19.482,0,0,1-13.124,11.053A47.429,47.429,0,0,1,192.43,67.5a18.647,18.647,0,0,1,5.062-10.462,11.717,11.717,0,0,1,10.848-3.191" transform="translate(-60.408 -16.837)" fill="#263238"/>
            <path id="Trazado_914148" data-name="Trazado 914148" d="M212.769,59.664A15.643,15.643,0,0,0,228.938,81a6.712,6.712,0,0,1,3.115.06,5.538,5.538,0,0,1,2.356,2.318c2.535,3.788,5.213,7.726,9.209,9.92s9.715,1.979,12.387-1.715a13.674,13.674,0,0,0,1.983-6.275C259,77.923,259.415,70,255.9,63.427A25.014,25.014,0,0,0,243.61,52.716a47.888,47.888,0,0,0-16.17-3.415c-3.212-.2-6.537-.2-9.516,1.016s-5.551,3.922-5.72,7.135" transform="translate(-66.598 -15.478)" fill="#263238"/>
            <path id="Trazado_914149" data-name="Trazado 914149" d="M258.974,88.948a3.549,3.549,0,0,1-.195-.541c-.108-.361-.292-.884-.537-1.555a28.863,28.863,0,0,0-2.7-5.389,28.121,28.121,0,0,0-5.943-6.631,38.722,38.722,0,0,0-9.518-5.359c-3.6-1.506-7.111-2.749-10.187-4.188a35.623,35.623,0,0,1-7.681-4.691,20.072,20.072,0,0,1-4.074-4.494,13.955,13.955,0,0,1-.816-1.437,3.657,3.657,0,0,1-.241-.523,3.7,3.7,0,0,1,.3.49c.175.334.471.8.866,1.4a20.924,20.924,0,0,0,4.116,4.382A36.315,36.315,0,0,0,230.021,65c3.064,1.416,6.578,2.648,10.187,4.159a38.36,38.36,0,0,1,9.583,5.429,27.785,27.785,0,0,1,5.949,6.747,27.063,27.063,0,0,1,2.625,5.472c.227.681.391,1.213.478,1.58a3.771,3.771,0,0,1,.129.561" transform="translate(-68.289 -17.032)" fill="#455a64"/>
            <path id="Trazado_914150" data-name="Trazado 914150" d="M254.029,88.26a3.105,3.105,0,0,1-.27-.451,14.364,14.364,0,0,0-.816-1.258A16.773,16.773,0,0,0,249,82.741a38.474,38.474,0,0,0-7.237-3.8c-1.419-.613-2.919-1.241-4.443-1.966s-3.073-1.539-4.609-2.459a40.451,40.451,0,0,1-7.982-6.156,30.8,30.8,0,0,1-4.984-6.551,25.374,25.374,0,0,1-2.193-5.1c-.179-.631-.311-1.123-.376-1.462a2.987,2.987,0,0,1-.093-.518,3.142,3.142,0,0,1,.16.5c.086.332.238.816.435,1.439a27.27,27.27,0,0,0,2.276,5.019,31.378,31.378,0,0,0,5,6.448,40.972,40.972,0,0,0,7.935,6.085c1.526.914,3.066,1.722,4.578,2.451s3.007,1.357,4.424,1.979a37.407,37.407,0,0,1,7.252,3.892,16.148,16.148,0,0,1,3.914,3.928,11.209,11.209,0,0,1,.768,1.3,3.088,3.088,0,0,1,.21.484" transform="translate(-68.289 -17.218)" fill="#455a64"/>
            <path id="Trazado_914151" data-name="Trazado 914151" d="M192.024,85.638a1.739,1.739,0,0,1-.154-.366c-.088-.245-.226-.605-.376-1.077a18.858,18.858,0,0,1-.687-4.139,19.843,19.843,0,0,1,4.106-12.986,18.24,18.24,0,0,1,2.757-2.846,35.239,35.239,0,0,1,2.991-2.142,31.453,31.453,0,0,0,4.948-3.679,11.013,11.013,0,0,0,2.423-3.335c.4-.9.489-1.443.524-1.433a1.783,1.783,0,0,1-.061.394,7.162,7.162,0,0,1-.341,1.091,10.594,10.594,0,0,1-2.375,3.453,30.2,30.2,0,0,1-4.945,3.77,36.171,36.171,0,0,0-2.953,2.138,18.183,18.183,0,0,0-2.7,2.8,19.5,19.5,0,0,0-3.369,6.681,19.849,19.849,0,0,0-.765,6.087,20.723,20.723,0,0,0,.574,4.113l.313,1.09a1.8,1.8,0,0,1,.09.389" transform="translate(-60.019 -16.872)" fill="#455a64"/>
            <path id="Trazado_914152" data-name="Trazado 914152" d="M245.227,137.2a15.283,15.283,0,0,1-10.183-3.735l.436-.485a14.438,14.438,0,0,0,23.093-16.019l.607-.239a15.626,15.626,0,0,1-5.442,17.924,14.955,14.955,0,0,1-8.511,2.554" transform="translate(-73.941 -36.72)" fill="#e8505b"/>
            <path id="Trazado_914153" data-name="Trazado 914153" d="M239.27,141.082a3.158,3.158,0,1,1-3.158-3.158,3.158,3.158,0,0,1,3.158,3.158" transform="translate(-73.284 -43.389)" fill="#e8505b"/>
            <path id="Trazado_914154" data-name="Trazado 914154" d="M278.665,114.255a10.576,10.576,0,1,1-10.576-10.577,10.576,10.576,0,0,1,10.576,10.577" transform="translate(-81.009 -32.616)" fill="#e8505b"/>
            <path id="Trazado_914155" data-name="Trazado 914155" d="M253.263,97.073a13.585,13.585,0,0,1,.061-2.683c.034-.868.076-1.918.123-3.132.012-1.221.052-2.61,0-4.144,0-.767-.052-1.568-.1-2.4-.029-.837-.126-1.7-.209-2.6-.068-.9-.239-1.812-.357-2.762q-.132-.705-.267-1.429c-.083-.485-.186-.971-.315-1.458A27.966,27.966,0,0,0,246.669,64.8a25.73,25.73,0,0,0-10.544-7.389,46.256,46.256,0,0,0-10.381-2.609c-3.038-.424-5.525-.552-7.242-.674a13.8,13.8,0,0,1-2.674-.219,13.412,13.412,0,0,1,2.683-.177,64.815,64.815,0,0,1,7.323.354,43.954,43.954,0,0,1,10.631,2.45,26.086,26.086,0,0,1,10.987,7.612,28.211,28.211,0,0,1,5.669,12.1c.125.5.223,1,.3,1.5s.168.983.25,1.464c.106.969.263,1.9.313,2.818.066.912.145,1.791.154,2.638.026.847.056,1.659.034,2.435,0,1.551-.088,2.95-.155,4.178-.1,1.226-.2,2.28-.3,3.139a13.526,13.526,0,0,1-.456,2.649" transform="translate(-67.896 -16.905)" fill="#e8505b"/>
            <g id="Grupo_1103710" data-name="Grupo 1103710" transform="translate(180.089 74.359)" opacity="0.4">
              <g id="Grupo_1103709" data-name="Grupo 1103709">
                <g id="Grupo_1103708" data-name="Grupo 1103708" clip-path="url(#clip-path-6)">
                  <path id="Trazado_914156" data-name="Trazado 914156" d="M277.3,115.768a7.279,7.279,0,1,1-7.28-7.28,7.28,7.28,0,0,1,7.28,7.28" transform="translate(-262.744 -108.488)"/>
                </g>
              </g>
            </g>
            <path id="Trazado_914157" data-name="Trazado 914157" d="M268.482,108.95a1.424,1.424,0,0,1,.325-.169,4.918,4.918,0,0,1,1.01-.3,5.743,5.743,0,0,1,3.775.646,5.094,5.094,0,0,1,1.939,1.86,5.629,5.629,0,0,1,.779,2.986,5.5,5.5,0,0,1-7.791,4.873,5.379,5.379,0,0,1-2.427-2.393,5.647,5.647,0,0,1-.621-3.024,5.712,5.712,0,0,1,.9-2.534,5.3,5.3,0,0,1,3.016-2.348,3.445,3.445,0,0,1,1.047-.119,1.439,1.439,0,0,1,.364.052,5.214,5.214,0,0,0-1.375.195,5.275,5.275,0,0,0-2.847,2.348,5.523,5.523,0,0,0-.821,2.43,5.378,5.378,0,0,0,.618,2.857,5.092,5.092,0,0,0,2.291,2.237A5.121,5.121,0,0,0,276,113.968a5.367,5.367,0,0,0-.709-2.836,4.878,4.878,0,0,0-1.815-1.8,5.755,5.755,0,0,0-3.636-.724,10.227,10.227,0,0,0-1.356.337" transform="translate(-83.508 -34.1)" fill="#263238"/>
            <path id="Trazado_914158" data-name="Trazado 914158" d="M273.116,127.984a5.86,5.86,0,0,1-.143-3.456,19.07,19.07,0,0,1,.143,3.456" transform="translate(-85.811 -39.175)" fill="#263238"/>
            <path id="Trazado_914159" data-name="Trazado 914159" d="M278.574,126.1a8.059,8.059,0,0,1-1.2-3.068,8.061,8.061,0,0,1,1.2,3.068" transform="translate(-87.253 -38.703)" fill="#263238"/>
            <path id="Trazado_914160" data-name="Trazado 914160" d="M282.158,122.05c-.063.069-.562-.281-1.114-.783s-.949-.965-.886-1.035.562.282,1.114.783.949.966.886,1.035" transform="translate(-88.131 -37.82)" fill="#263238"/>
            <path id="Trazado_914161" data-name="Trazado 914161" d="M282.67,116.172c-.032.088-.393.038-.808-.112s-.725-.343-.693-.43.393-.038.808.111.725.343.693.431" transform="translate(-88.451 -36.362)" fill="#263238"/>
            <path id="Trazado_914162" data-name="Trazado 914162" d="M266.327,125.768a5.635,5.635,0,0,1,1.584-3.091,22.908,22.908,0,0,1-1.584,3.091" transform="translate(-83.776 -38.591)" fill="#263238"/>
            <path id="Trazado_914163" data-name="Trazado 914163" d="M263.166,120.835c-.066-.067.349-.58.925-1.145s1.1-.97,1.163-.9-.349.58-.925,1.145-1.1.97-1.163.9" transform="translate(-82.786 -37.366)" fill="#263238"/>
            <path id="Trazado_914164" data-name="Trazado 914164" d="M265,114.393c.024.09-.271.248-.659.351s-.723.113-.747.023.271-.248.659-.351.723-.113.747-.023" transform="translate(-82.922 -35.967)" fill="#263238"/>
            <path id="Trazado_914165" data-name="Trazado 914165" d="M340.319,181.118a12.569,12.569,0,0,0-3.328-7.079,19.487,19.487,0,0,0-3.35-2.881,20.393,20.393,0,0,0-4.966-2.387c-1.654-.358-2.056-2.508-.671-3.121s5.964.264,10.368,3.5,2.177-4.966,1.419-7.969-2.665-12.392-1.922-13.332c1.09-1.378,2.812-.441,3.5,2.573.7,3.051,3.387,11.927,4.962,11.491,1.551-.428-2.517-15.668-2.517-15.668s-1.4-3.13.4-3.693c3.249-1.016,6.374,15.471,6.633,17.046.179,1.1,1.909.684,1.652-.483-.263-1.2-4.413-15.117-1.116-16.182,2.531-.818,2.7,13.541,5.169,15.993s-1.246-10.9,1.206-11.586c.912-.254,1.632-.317,2.655,7.63.549,4.271.193,10.159,1.859,18.309" transform="translate(-102.921 -44.832)" fill="#b78876"/>
            <path id="Trazado_914166" data-name="Trazado 914166" d="M323.434,224.1l14.982,21.5-7.195-55.452,21.42-8.446s27.032,103.631-9.224,105.089c0,0-25.088-.687-43.813-44.119Z" transform="translate(-94.251 -57.161)" fill="#b78876"/>
            <path id="Trazado_914167" data-name="Trazado 914167" d="M364.38,181.105c.038.056-.469.392-1.127,1.13a7.567,7.567,0,0,0-1.757,3.455l-.084.405-.3-.3a9.281,9.281,0,0,0-1.107-.97,9.466,9.466,0,0,0-4.555-1.766c-1.267-.136-2.064,0-2.075-.076a4.624,4.624,0,0,1,2.1-.247,8.808,8.808,0,0,1,5.961,2.753l-.382.107a7.147,7.147,0,0,1,1.985-3.562,3.473,3.473,0,0,1,1.337-.93" transform="translate(-111.167 -56.972)" fill="#aa6550"/>
            <path id="Trazado_914168" data-name="Trazado 914168" d="M248.893,270.238l-18.131-23-4.712,23.523a48.728,48.728,0,0,0,2.824,28.373l2.34,5.6H147.262l2.1-7.474c1.184-9.157-.4-18.717-.125-31.833L146.9,250.64l-12.7,54.092H96.868s20.495-83.956,33.332-100.568c16.185-20.944,44.462-18.181,44.462-18.181l17.326,27.155,16.919-24.485s29.075-6.18,51.774,32.9l12.146,20.819-5.64-42.857,26.286-6.068s9.494,42.108,8.869,64.653c-.557,20.139-9.128,30.7-21.007,31.744-18.672,1.633-32.443-19.606-32.443-19.606" transform="translate(-30.473 -58.469)" fill="#ffbd45"/>
            <path id="Trazado_914169" data-name="Trazado 914169" d="M207.345,184.485l.3-3.383s12.833,2.852,17.135,25.258c0,0,4.317-20.678,18.139-22.761l2.331,5.957-8.487,22.1-14.905,4.357-14.5-4.357-6.594-13.1Z" transform="translate(-63.156 -56.972)" fill="#ffbd45"/>
            <path id="Trazado_914170" data-name="Trazado 914170" d="M158.19,199.038a3.8,3.8,0,0,1,.065.581q.045.615.121,1.667c.093,1.448.245,3.542.452,6.128.413,5.171,1.123,12.306,2.241,20.142s2.442,14.887,3.495,19.966c.526,2.541.967,4.594,1.284,6.009q.221,1.03.352,1.634a3.911,3.911,0,0,1,.1.575,3.731,3.731,0,0,1-.167-.559l-.413-1.62c-.356-1.407-.834-3.453-1.389-5.989-1.115-5.071-2.472-12.121-3.6-19.967s-1.792-14.992-2.143-20.172c-.178-2.59-.293-4.688-.345-6.139q-.036-1.053-.058-1.671a3.788,3.788,0,0,1,0-.583" transform="translate(-49.761 -62.614)" fill="#263238"/>
            <path id="Trazado_914171" data-name="Trazado 914171" d="M255.91,188.769a1.518,1.518,0,0,1-.183.324l-.577.891-2.138,3.264c-1.8,2.762-4.221,6.614-6.739,10.962-.1.171-.2.343-.291.5l-.163.281-.138-.293a10.04,10.04,0,0,0-1.844-2.966,3.346,3.346,0,0,0-2.857-1.069,3.912,3.912,0,0,0-2.356,1.546,7.194,7.194,0,0,0-1.176,2.26c-.485,1.5-.767,2.772-1.125,3.594a7.466,7.466,0,0,1-.449.924,1.483,1.483,0,0,1-.2.295c-.027-.015.235-.433.532-1.265.317-.827.559-2.086,1.021-3.622a7.33,7.33,0,0,1,1.182-2.356,4.169,4.169,0,0,1,2.526-1.681,3.649,3.649,0,0,1,3.138,1.138,10.214,10.214,0,0,1,1.921,3.058l-.3-.012.291-.5c2.522-4.355,4.984-8.193,6.832-10.923.924-1.367,1.69-2.459,2.23-3.207l.63-.855a1.508,1.508,0,0,1,.239-.284" transform="translate(-74.138 -59.384)" fill="#263238"/>
            <path id="Trazado_914172" data-name="Trazado 914172" d="M239.73,206.487a1.182,1.182,0,0,1-.138.289l-.454.794-1.722,2.889-2.592,4.262c-.491.8-1.006,1.641-1.54,2.51l-.827,1.333a1.177,1.177,0,0,1-.325.327.624.624,0,0,1-.522.071,1.323,1.323,0,0,1-.653-.623c-2.411-3.622-4.2-7.121-5.611-9.583-.694-1.238-1.264-2.234-1.666-2.918a9.522,9.522,0,0,1-.6-1.079,1.114,1.114,0,0,1,.2.251c.12.172.3.424.513.758.437.664,1.04,1.644,1.762,2.868,1.461,2.436,3.289,5.917,5.684,9.514.15.234.286.433.47.489.166.061.33-.066.472-.27l.819-1.312,1.557-2.5,2.653-4.224,1.814-2.832.508-.761a1.125,1.125,0,0,1,.2-.253" transform="translate(-70.178 -64.414)" fill="#263238"/>
            <path id="Trazado_914173" data-name="Trazado 914173" d="M308.058,210.179a2.637,2.637,0,0,1-.195.448l-.618,1.253c-.548,1.082-1.315,2.659-2.234,4.622s-1.964,4.322-3.062,6.969c-1.082,2.653-2.211,5.594-3.292,8.718s-1.99,6.143-2.769,8.9c-.763,2.762-1.395,5.265-1.873,7.378s-.849,3.829-1.082,5.019q-.177.851-.284,1.367a2.607,2.607,0,0,1-.122.473,2.678,2.678,0,0,1,.055-.485c.056-.348.13-.806.222-1.38.193-1.2.524-2.923.977-5.046s1.058-4.638,1.806-7.409c.764-2.768,1.677-5.791,2.749-8.928s2.224-6.076,3.324-8.727c1.115-2.645,2.182-5,3.134-6.951s1.749-3.517,2.334-4.581q.419-.763.674-1.224a2.6,2.6,0,0,1,.255-.416" transform="translate(-92.024 -66.119)" fill="#263238"/>
            <path id="Trazado_914174" data-name="Trazado 914174" d="M236.627,327.745a3.053,3.053,0,0,1-.524-.019l-1.5-.118c-.651-.051-1.446-.124-2.367-.239s-1.972-.217-3.126-.4c-2.314-.316-5.055-.792-8.079-1.419-3.019-.648-6.319-1.46-9.738-2.468-3.416-1.024-6.623-2.147-9.507-3.254-2.875-1.128-5.432-2.227-7.542-3.227-1.064-.48-2-.965-2.835-1.376s-1.539-.78-2.112-1.093l-1.319-.72a2.926,2.926,0,0,1-.449-.271,3.114,3.114,0,0,1,.48.211l1.348.663c.582.294,1.3.65,2.136,1.04s1.783.863,2.852,1.328c2.119.97,4.679,2.043,7.554,3.152,2.883,1.088,6.085,2.2,9.492,3.221,3.41,1.005,6.7,1.824,9.706,2.488,3.013.642,5.744,1.142,8.05,1.487,1.149.195,2.2.317,3.114.446s1.709.224,2.357.3l1.491.182a3.046,3.046,0,0,1,.518.086" transform="translate(-58.994 -98.51)" fill="#263238"/>
            <path id="Trazado_914175" data-name="Trazado 914175" d="M237.749,336.587a1.413,1.413,0,0,1-.345.089l-1,.19c-.87.161-2.136.361-3.7.576-3.137.435-7.5.877-12.327,1.047s-9.213.027-12.372-.189c-1.58-.106-2.856-.217-3.736-.318l-1.012-.12a1.419,1.419,0,0,1-.351-.064,1.391,1.391,0,0,1,.357,0l1.017.056c.883.06,2.16.134,3.739.21,3.157.154,7.526.254,12.346.089s9.17-.573,12.309-.946c1.57-.185,2.84-.348,3.716-.469l1.011-.127a1.4,1.4,0,0,1,.356-.021" transform="translate(-63.829 -105.883)" fill="#263238"/>
            <path id="Trazado_914176" data-name="Trazado 914176" d="M297.088,259.918a2.785,2.785,0,0,1,.1-.494q.132-.525.347-1.4l1.3-5.129c1.1-4.33,2.563-10.329,4.361-16.91.906-3.29,1.833-6.407,2.731-9.224.914-2.812,1.788-5.329,2.6-7.414.386-1.05.78-1.982,1.115-2.805s.636-1.526.9-2.095l.6-1.31a2.768,2.768,0,0,1,.229-.447,2.822,2.822,0,0,1-.167.475q-.2.5-.537,1.335c-.241.576-.528,1.283-.841,2.114s-.7,1.765-1.065,2.818c-.779,2.093-1.627,4.613-2.524,7.426-.88,2.818-1.8,5.933-2.7,9.219-1.8,6.575-3.3,12.564-4.457,16.88-.578,2.159-1.057,3.9-1.409,5.1l-.409,1.38a2.731,2.731,0,0,1-.165.475" transform="translate(-93.459 -66.91)" fill="#263238"/>
            <path id="Trazado_914177" data-name="Trazado 914177" d="M163.907,256.3a3.224,3.224,0,0,1-.357-.413c-.218-.284-.57-.681-.957-1.241a36.051,36.051,0,0,1-2.994-4.923,47.247,47.247,0,0,1-3.142-7.947,69.762,69.762,0,0,1-2.185-10.233c-1-7.366-1.163-14.091-1.465-18.935-.136-2.424-.263-4.385-.365-5.74q-.072-.979-.114-1.559a3.22,3.22,0,0,1-.019-.546,3.266,3.266,0,0,1,.086.539c.043.355.112.879.178,1.555.143,1.352.307,3.312.474,5.736.363,4.844.565,11.565,1.561,18.9a72.023,72.023,0,0,0,2.149,10.191,48.884,48.884,0,0,0,3.057,7.929,39.8,39.8,0,0,0,2.887,4.954c.369.57.7.978.9,1.275a3.3,3.3,0,0,1,.3.455" transform="translate(-47.912 -64.414)" fill="#263238"/>
            <path id="Trazado_914178" data-name="Trazado 914178" d="M162.814,257.921c.02.1-.973.315-2.026.941s-1.735,1.374-1.812,1.308a4.755,4.755,0,0,1,3.838-2.249" transform="translate(-50.01 -81.129)" fill="#263238"/>
            <path id="Trazado_914179" data-name="Trazado 914179" d="M161.457,245.069a17.817,17.817,0,0,0-2.559.921,17.854,17.854,0,0,0-2.21,1.587,5.428,5.428,0,0,1,4.768-2.508" transform="translate(-49.29 -77.081)" fill="#263238"/>
            <path id="Trazado_914180" data-name="Trazado 914180" d="M159.089,233.318a18.478,18.478,0,0,0-2.032.685,18.433,18.433,0,0,0-1.774,1.2,3.9,3.9,0,0,1,3.806-1.889" transform="translate(-48.847 -73.377)" fill="#263238"/>
            <path id="Trazado_914181" data-name="Trazado 914181" d="M157.807,221.212c.013.1-.857.265-1.846.692s-1.715.931-1.777.853a4.751,4.751,0,0,1,3.623-1.546" transform="translate(-48.503 -69.577)" fill="#263238"/>
            <path id="Trazado_914182" data-name="Trazado 914182" d="M157.033,211.411c.013.1-.87.258-1.851.725s-1.672,1.034-1.741.96a4.423,4.423,0,0,1,3.592-1.685" transform="translate(-48.269 -66.494)" fill="#263238"/>
            <path id="Trazado_914183" data-name="Trazado 914183" d="M298.322,265.985c-.081.058-.528-.544-1.345-.865a9.182,9.182,0,0,0-1.568-.32,1.817,1.817,0,0,1,1.7.005c.931.372,1.3,1.151,1.217,1.18" transform="translate(-92.931 -83.243)" fill="#263238"/>
            <path id="Trazado_914184" data-name="Trazado 914184" d="M301.713,255.466a4.415,4.415,0,0,0-3.636-2.349c-.006-.039.254-.129.694-.115a3.332,3.332,0,0,1,2.762,1.784c.193.4.219.67.18.68" transform="translate(-93.77 -79.59)" fill="#263238"/>
            <path id="Trazado_914185" data-name="Trazado 914185" d="M304.416,244.788a4.61,4.61,0,0,0-3.822-1.515c-.012-.039.217-.16.626-.218a3.288,3.288,0,0,1,2.888,1.145c.259.323.343.568.307.588" transform="translate(-94.562 -76.454)" fill="#263238"/>
            <path id="Trazado_914186" data-name="Trazado 914186" d="M308.177,234.277c-.088.045-.445-.626-1.236-1.031a7.031,7.031,0,0,0-1.548-.439c-.008-.041.175-.126.5-.144a2.448,2.448,0,0,1,2.126,1.123c.167.276.2.475.161.491" transform="translate(-96.072 -73.191)" fill="#263238"/>
            <path id="Trazado_914187" data-name="Trazado 914187" d="M311.832,224.516a3.422,3.422,0,0,0-3.2-1.478c-.014-.038.18-.164.544-.224a2.541,2.541,0,0,1,2.472,1.143c.188.316.219.546.18.559" transform="translate(-97.092 -70.085)" fill="#263238"/>
            <path id="Trazado_914188" data-name="Trazado 914188" d="M241.47,211.43a1.354,1.354,0,0,1-.148.318l-.482.876c-.426.756-1.054,1.844-1.849,3.177s-1.753,2.914-2.853,4.648c-.551.866-1.137,1.771-1.765,2.7a30.145,30.145,0,0,1-2.073,2.789,2.9,2.9,0,0,1-.7.629.464.464,0,0,1-.3.06.949.949,0,0,1-.262-.082,2.256,2.256,0,0,1-.389-.264,9.883,9.883,0,0,1-1.2-1.252c-.718-.866-1.35-1.741-1.943-2.581-1.18-1.684-2.18-3.24-3.007-4.554s-1.473-2.391-1.912-3.141c-.2-.35-.363-.637-.495-.869a1.289,1.289,0,0,1-.151-.315,1.447,1.447,0,0,1,.209.28l.549.835,2,3.08c.852,1.3,1.872,2.835,3.06,4.5.6.831,1.232,1.7,1.943,2.548a9.579,9.579,0,0,0,1.156,1.2c.2.165.465.348.592.245a2.78,2.78,0,0,0,.6-.55,31.072,31.072,0,0,0,2.052-2.75c.629-.919,1.219-1.818,1.776-2.679,1.113-1.721,2.092-3.287,2.912-4.6.8-1.286,1.456-2.341,1.94-3.12l.537-.843a1.334,1.334,0,0,1,.207-.283" transform="translate(-69.818 -66.513)" fill="#263238"/>
            <path id="Trazado_914189" data-name="Trazado 914189" d="M229.085,224.272c-.039.005-.121-.23-.091-.626a2.75,2.75,0,0,1,1.819-2.3c.378-.121.626-.1.63-.057a3.6,3.6,0,0,0-2.358,2.986" transform="translate(-72.036 -69.603)" fill="#263238"/>
            <path id="Trazado_914190" data-name="Trazado 914190" d="M235.548,231.062a11.882,11.882,0,0,1-.038-5.406,18.648,18.648,0,0,1,.047,2.7,18.514,18.514,0,0,1-.009,2.7" transform="translate(-73.996 -70.988)" fill="#263238"/>
            <path id="Trazado_914191" data-name="Trazado 914191" d="M242.015,222.514c-.1.027-.308-.731-1.021-1.311a6.893,6.893,0,0,0-1.472-.772c0-.042.2-.087.531-.035a2.533,2.533,0,0,1,1.9,1.589c.109.313.1.521.06.529" transform="translate(-75.35 -69.326)" fill="#263238"/>
            <path id="Trazado_914192" data-name="Trazado 914192" d="M247.022,214.25a6.9,6.9,0,0,0-.845-1.414c-.613-.673-1.376-.842-1.354-.938.006-.042.211-.062.528.028a2.508,2.508,0,0,1,1.679,1.8c.069.322.035.525-.007.528" transform="translate(-77.017 -66.649)" fill="#263238"/>
            <path id="Trazado_914193" data-name="Trazado 914193" d="M224.084,216.345c-.039.009-.147-.258-.165-.717a3.579,3.579,0,0,1,1.62-3.04c.391-.242.672-.3.687-.263a4.734,4.734,0,0,0-2.143,4.02" transform="translate(-70.441 -66.791)" fill="#263238"/>
            <g id="Grupo_1103713" data-name="Grupo 1103713" transform="translate(144.013 127.46)" opacity="0.4">
              <g id="Grupo_1103712" data-name="Grupo 1103712">
                <g id="Grupo_1103711" data-name="Grupo 1103711" clip-path="url(#clip-path-7)">
                  <path id="Trazado_914194" data-name="Trazado 914194" d="M210.111,185.962c1.469,5.633,3.92,14.807,6.575,21.986a2.33,2.33,0,0,0,.506.911c.674.641,1.832.247,2.467-.432a16.579,16.579,0,0,0,1.446-2.209,2.85,2.85,0,0,1,2.1-1.438,2.477,2.477,0,0,1,1.866.937,10.3,10.3,0,0,1,1.143,1.825c.189.337.432.7.81.778a.489.489,0,0,0,.579-.681l-2.348-6.086s-1.076-4.464-4.808-3.77c-4.172.777-2.28,7.627-2.28,7.627s-8.119-19.687-8.057-19.449" transform="translate(-210.11 -185.96)"/>
                </g>
              </g>
            </g>
            <path id="Trazado_914195" data-name="Trazado 914195" d="M227.8,207.913a2.211,2.211,0,0,1-.2-.4c-.121-.266-.29-.662-.5-1.175l-1.73-4.363c-.186-.459-.381-.939-.6-1.43a4.431,4.431,0,0,0-.854-1.387,4.081,4.081,0,0,0-3.25-1.211,3.147,3.147,0,0,0-1.713.768,4.3,4.3,0,0,0-.925,1.773,5.037,5.037,0,0,0-.142,2.084,17.035,17.035,0,0,0,.386,2.181c.066.267.132.534.193.781l-.325.1c-.962-2.763-2.067-5.32-3.075-7.636s-1.937-4.391-2.664-6.153-1.261-3.207-1.583-4.219c-.171-.5-.276-.9-.352-1.171a2.013,2.013,0,0,1-.1-.415,2.044,2.044,0,0,1,.16.4c.1.262.221.653.411,1.149.358,1,.923,2.425,1.678,4.171s1.7,3.81,2.729,6.119,2.144,4.87,3.114,7.65l-.325.1-.195-.788a17.159,17.159,0,0,1-.392-2.226,5.347,5.347,0,0,1,.162-2.221,4.58,4.58,0,0,1,1.016-1.9,3.437,3.437,0,0,1,1.9-.845,4.356,4.356,0,0,1,3.487,1.328,4.679,4.679,0,0,1,.89,1.476c.215.5.4.985.583,1.448l1.63,4.4.442,1.2a2.182,2.182,0,0,1,.138.424" transform="translate(-66.177 -58.524)" fill="#263238"/>
            <g id="Grupo_1103716" data-name="Grupo 1103716" transform="translate(161.886 130.06)" opacity="0.4">
              <g id="Grupo_1103715" data-name="Grupo 1103715">
                <g id="Grupo_1103714" data-name="Grupo 1103714" clip-path="url(#clip-path-8)">
                  <path id="Trazado_914196" data-name="Trazado 914196" d="M236.253,208.915c-.142.1-.038.349.13.386a.6.6,0,0,0,.47-.168,10.341,10.341,0,0,0,1.975-2.635,3.462,3.462,0,0,1,2.619-1.8,3.4,3.4,0,0,1,2.692,2,12.808,12.808,0,0,0,1.809,3,82.32,82.32,0,0,0,9.944-19.94,11.9,11.9,0,0,0-3.14,3.871l-6.676,11.135a8.666,8.666,0,0,0-1.881-2.969,3.665,3.665,0,0,0-3.237-1.036,4.818,4.818,0,0,0-2.835,2.653,15.906,15.906,0,0,0-1.783,5.548" transform="translate(-236.187 -189.753)"/>
                </g>
              </g>
            </g>
            <path id="Trazado_914197" data-name="Trazado 914197" d="M360.574,288.29a4.228,4.228,0,0,1-.445-.749c-.269-.492-.635-1.215-1.069-2.118a77.757,77.757,0,0,1-5.272-14.721c-.239-.973-.414-1.764-.518-2.315a4.3,4.3,0,0,1-.132-.861,4.193,4.193,0,0,1,.26.831c.165.6.374,1.369.622,2.284.533,1.925,1.327,4.57,2.353,7.44s2.095,5.415,2.9,7.241l.97,2.16a4.319,4.319,0,0,1,.326.807" transform="translate(-111.09 -84.16)" fill="#263238"/>
            <path id="Trazado_914198" data-name="Trazado 914198" d="M353.511,286.74a3.6,3.6,0,0,1-.275-.75c-.159-.488-.358-1.2-.576-2.1a45.638,45.638,0,0,1-1.125-14.255c.075-.915.16-1.653.241-2.16a3.6,3.6,0,0,1,.154-.783,3.578,3.578,0,0,1-.023.8c-.04.51-.087,1.249-.132,2.161a55.056,55.056,0,0,0,1.119,14.187c.187.894.35,1.617.469,2.115a3.573,3.573,0,0,1,.147.784" transform="translate(-110.544 -83.899)" fill="#263238"/>
            <path id="Trazado_914199" data-name="Trazado 914199" d="M372.856,208.4a2.406,2.406,0,0,1,.524.2l.1.045-.109.039a92.33,92.33,0,0,1-13.082,3.346c-3.825.705-7.326,1.114-9.864,1.317-1.269.1-2.3.165-3.01.189a6.866,6.866,0,0,1-1.107.005,6.915,6.915,0,0,1,1.1-.138l3-.3c2.528-.264,6.012-.709,9.825-1.412,6.358-1.155,11.588-2.7,13.117-3.1l-.006.084a2.388,2.388,0,0,1-.485-.282" transform="translate(-108.945 -65.559)" fill="#263238"/>
            <path id="Trazado_914200" data-name="Trazado 914200" d="M376.065,203.9c-.009-.01.068-.112.28-.173a1.089,1.089,0,0,1,.878.195,1.257,1.257,0,0,1,.566,1.22,1.012,1.012,0,0,1-.5.689,1.4,1.4,0,0,1-.877.161,1.448,1.448,0,0,1-.809-.375,1.082,1.082,0,0,1-.321-.786,1.371,1.371,0,0,1,.732-1.126,1.24,1.24,0,0,1,.886-.141c.21.055.294.147.286.159a1.463,1.463,0,0,0-1.047.188,1.154,1.154,0,0,0-.543.921.9.9,0,0,0,.86.825.877.877,0,0,0,1.03-.578,1.122,1.122,0,0,0-1.116-1.219c-.186.013-.286.071-.3.042" transform="translate(-118.057 -64.027)" fill="#263238"/>
            <path id="Trazado_914201" data-name="Trazado 914201" d="M206.654,225.168a2.736,2.736,0,0,1-.375.327c-.258.2-.616.524-1.131.869a25.517,25.517,0,0,1-4.559,2.593,27.755,27.755,0,0,1-7.482,2.128,28.653,28.653,0,0,1-4.6.247,28.27,28.27,0,0,1-4.91-.608c-3.315-.748-6.306-1.971-9.118-2.725a24.6,24.6,0,0,0-4.043-.8,16.6,16.6,0,0,0-3.579.035,10.962,10.962,0,0,0-4.85,1.708,17.313,17.313,0,0,0-1.485,1.2,6.575,6.575,0,0,1,1.409-1.31A10.775,10.775,0,0,1,166.824,227a16.557,16.557,0,0,1,3.637-.077,24.46,24.46,0,0,1,4.1.775c2.84.744,5.834,1.958,9.11,2.7a28.44,28.44,0,0,0,4.847.607,28.971,28.971,0,0,0,4.548-.225,28.261,28.261,0,0,0,7.428-2.038,27.739,27.739,0,0,0,4.58-2.482c.524-.326.893-.635,1.165-.814a2.743,2.743,0,0,1,.417-.273" transform="translate(-50.498 -70.834)" fill="#fafafa"/>
            <path id="Trazado_914202" data-name="Trazado 914202" d="M252.3,263.85a1.205,1.205,0,0,1-.208-.1l-.592-.308c-.261-.133-.6-.268-.989-.444-.4-.14-.86-.337-1.4-.474a21.6,21.6,0,0,0-9.337-.339,54.11,54.11,0,0,0-6.35,1.442c-2.263.618-4.673,1.334-7.27,1.863a26.648,26.648,0,0,1-8.282.506,39.632,39.632,0,0,1-8.674-2.041c-2.894-.974-5.664-2.062-8.385-2.969a42.475,42.475,0,0,0-8-1.964,37.476,37.476,0,0,0-13.871.755,40.894,40.894,0,0,0-5.11,1.649c-.724.317-1.407.6-2.017.89s-1.169.565-1.655.836l-1.293.723-.924.57-.571.348a1.122,1.122,0,0,1-.2.11,1.184,1.184,0,0,1,.182-.138l.552-.377c.246-.162.544-.371.91-.6l1.282-.753c.483-.282,1.045-.549,1.648-.866s1.291-.594,2.016-.92a40.045,40.045,0,0,1,5.123-1.707,37.33,37.33,0,0,1,13.971-.832,42.49,42.49,0,0,1,8.067,1.958c2.733.907,5.505,1.992,8.387,2.963a39.581,39.581,0,0,0,8.6,2.032,26.488,26.488,0,0,0,8.187-.481c2.581-.517,4.989-1.221,7.258-1.829a53.437,53.437,0,0,1,6.389-1.408,21.311,21.311,0,0,1,9.409.45c.541.149,1,.357,1.4.508.389.188.724.333.982.476l.578.339a1.18,1.18,0,0,1,.191.125" transform="translate(-52.587 -81.289)" fill="#fafafa"/>
            <path id="Trazado_914203" data-name="Trazado 914203" d="M240.981,222.583a15.625,15.625,0,0,0,1.753.384,12.619,12.619,0,0,0,4.834-.387,58.34,58.34,0,0,0,6.809-2.546,22.6,22.6,0,0,1,4.149-1.237,19.722,19.722,0,0,1,4.644-.267,26.986,26.986,0,0,1,8.7,2.088,46.954,46.954,0,0,1,6.487,3.363c1.774,1.085,3.165,2.029,4.125,2.682l1.1.764a2.33,2.33,0,0,1,.369.287,2.5,2.5,0,0,1-.407-.23l-1.132-.711c-.982-.619-2.392-1.531-4.176-2.586a49.242,49.242,0,0,0-6.481-3.279,27.172,27.172,0,0,0-8.6-2.038,19.64,19.64,0,0,0-4.565.256,22.613,22.613,0,0,0-4.1,1.2,54.8,54.8,0,0,1-6.864,2.487,12.236,12.236,0,0,1-4.911.284,5.976,5.976,0,0,1-1.733-.515" transform="translate(-75.809 -68.735)" fill="#fafafa"/>
            <path id="Trazado_914204" data-name="Trazado 914204" d="M287.827,198.39a5.847,5.847,0,0,1-.975.3c-.316.088-.7.187-1.162.276s-.973.214-1.554.3a36.138,36.138,0,0,1-4.1.441,37.269,37.269,0,0,1-10.036-.853,36.333,36.333,0,0,1-3.962-1.127c-.56-.179-1.048-.387-1.483-.555s-.8-.328-1.1-.467a5.89,5.89,0,0,1-.91-.456,5.823,5.823,0,0,1,.96.334c.3.121.676.265,1.116.412s.93.341,1.489.5c1.108.362,2.45.721,3.953,1.049a40.077,40.077,0,0,0,9.956.846c1.537-.069,2.92-.2,4.074-.366.579-.066,1.1-.171,1.554-.245s.849-.151,1.168-.219a5.892,5.892,0,0,1,1-.167" transform="translate(-82.595 -61.734)" fill="#fafafa"/>
            <path id="Trazado_914205" data-name="Trazado 914205" d="M158.6,200.79a1.762,1.762,0,0,1,.3-.265c.2-.163.5-.406.9-.7.788-.6,1.945-1.452,3.418-2.441a47.862,47.862,0,0,1,12.409-6.127,29.217,29.217,0,0,1,13.753-.96,21.388,21.388,0,0,1,4.045,1.157c.467.171.807.356,1.047.461a1.741,1.741,0,0,1,.352.187c-.013.028-.517-.19-1.446-.524a23.846,23.846,0,0,0-4.041-1.044,29.942,29.942,0,0,0-13.611,1.048,50.416,50.416,0,0,0-12.376,6c-1.485.96-2.662,1.778-3.473,2.347l-.936.652a1.749,1.749,0,0,1-.34.21" transform="translate(-49.892 -59.73)" fill="#fafafa"/>
            <path id="Trazado_914206" data-name="Trazado 914206" d="M249.77,308.582a.86.86,0,0,1-.193.053l-.574.124a6.126,6.126,0,0,1-.944.143l-.607.065-.7.019a25.359,25.359,0,0,1-8.142-1.5c-1.672-.522-3.481-1.16-5.448-1.744a33.154,33.154,0,0,0-6.409-1.243,55.593,55.593,0,0,0-14.921,1.07c-5.248.945-10.209,2.136-14.819,2.685a46.342,46.342,0,0,1-12.293.079,25.594,25.594,0,0,1-7.925-2.394c-.435-.228-.824-.424-1.154-.607l-.806-.513-.491-.32a.872.872,0,0,1-.161-.119.92.92,0,0,1,.18.09l.508.292.819.483,1.162.576a26.308,26.308,0,0,0,7.9,2.275,46.941,46.941,0,0,0,12.22-.152c4.585-.563,9.536-1.762,14.8-2.709a55.167,55.167,0,0,1,15.011-1.047,33.058,33.058,0,0,1,6.459,1.285c1.975.6,3.777,1.25,5.441,1.785a26.046,26.046,0,0,0,8.068,1.595l.69,0,.6-.049a6.737,6.737,0,0,0,.943-.11l.578-.09a.877.877,0,0,1,.2-.02" transform="translate(-54.797 -95.642)" fill="#fafafa"/>
            <g id="Grupo_1103719" data-name="Grupo 1103719" transform="translate(134.585 217.662)" opacity="0.3">
              <g id="Grupo_1103718" data-name="Grupo 1103718">
                <g id="Grupo_1103717" data-name="Grupo 1103717" clip-path="url(#clip-path-9)">
                  <path id="Trazado_914207" data-name="Trazado 914207" d="M196.356,317.563c3.106,7.75,9.118,13.257,17.39,14.394s16.641-.756,24.7-2.948c-14.649-2.049-27.605-4.079-42.087-11.446" transform="translate(-196.356 -317.563)"/>
                </g>
              </g>
            </g>
            <path id="Trazado_914208" data-name="Trazado 914208" d="M251.86,345.113a.992.992,0,0,1-.2-.074l-.58-.248-2.217-.984c-1.927-.847-4.688-2.147-8.139-3.642a35.6,35.6,0,0,0-5.8-1.964,18.616,18.616,0,0,0-6.965-.324,25.013,25.013,0,0,0-3.7.84,37.453,37.453,0,0,0-3.712,1.4c-2.476,1.078-4.936,2.424-7.468,3.781a59.5,59.5,0,0,1-7.621,3.547,23.676,23.676,0,0,1-7.673,1.562,17.232,17.232,0,0,1-6.945-1.363,45.88,45.88,0,0,1-5.5-2.8c-1.636-.932-3.109-1.785-4.452-2.436a23.83,23.83,0,0,0-3.537-1.441,12.926,12.926,0,0,0-1.345-.362,7.547,7.547,0,0,0-1-.194l-.622-.1a1,1,0,0,1-.212-.046,1.041,1.041,0,0,1,.215.011l.629.066a6.936,6.936,0,0,1,1.014.162,12.373,12.373,0,0,1,1.363.334,22.979,22.979,0,0,1,3.582,1.4c1.358.638,2.845,1.479,4.487,2.4a46.576,46.576,0,0,0,5.489,2.746,17.018,17.018,0,0,0,6.834,1.311,23.463,23.463,0,0,0,7.564-1.562,59.874,59.874,0,0,0,7.575-3.533c2.531-1.356,5-2.7,7.5-3.786a37.57,37.57,0,0,1,3.749-1.409,25.293,25.293,0,0,1,3.753-.84,18.8,18.8,0,0,1,7.071.36,35.24,35.24,0,0,1,5.836,2.018c3.448,1.528,6.187,2.858,8.1,3.743l2.191,1.042.565.278a1.031,1.031,0,0,1,.188.106" transform="translate(-54.788 -106.136)" fill="#fafafa"/>
          </g>
        </g>
      </g>
    </g>
  </g>
</svg>
