<svg xmlns="http://www.w3.org/2000/svg" xmlns:xlink="http://www.w3.org/1999/xlink" width="1328" height="661" viewBox="0 0 1328 661">
  <defs>
    <linearGradient id="linear-gradient" x1="0.924" x2="0.051" y2="0.898" gradientUnits="objectBoundingBox">
      <stop offset="0" stop-color="#ffbd45"/>
      <stop offset="1" stop-color="#ca7441"/>
    </linearGradient>
    <linearGradient id="linear-gradient-3" x1="0.892" x2="0.049" y2="0.806" gradientUnits="objectBoundingBox">
      <stop offset="0" stop-color="#ee4f47"/>
      <stop offset="1" stop-color="#ffbd45"/>
    </linearGradient>
    <linearGradient id="linear-gradient-4" x1="0.829" y1="0.022" x2="0.016" y2="1.053" gradientUnits="objectBoundingBox">
      <stop offset="0" stop-color="#ee4f47"/>
      <stop offset="0.637" stop-color="#feb745"/>
      <stop offset="1" stop-color="#ca7441"/>
    </linearGradient>
    <clipPath id="clip-path">
      <rect id="Rect치ngulo_402958" data-name="Rect치ngulo 402958" width="1328" height="661" fill="url(#linear-gradient)"/>
    </clipPath>
  </defs>
  <g id="Grupo_1102787" data-name="Grupo 1102787" transform="translate(-136.051 -506)">
    <rect id="Rect치ngulo_402513" data-name="Rect치ngulo 402513" width="1328" height="660" transform="translate(136.051 506)" fill="url(#linear-gradient)"/>
    <path id="Trazado_911293" data-name="Trazado 911293" d="M0,0V175.4a61.677,61.677,0,0,0,10.84-.2c31.27-3.31,55.3-34.62,69.35-59.94,11-19.83,14.29-43.68,31.37-59.38,40.47-37.18,105.17,7.48,152.47,2.17,23.54-2.65,44.1-13.54,61.03-29.51C332.42,21.61,337.8,9.29,344.65,0Z" transform="translate(136.051 506)" fill="url(#linear-gradient-3)"/>
    <path id="Trazado_911247" data-name="Trazado 911247" d="M587.944,0S669.02,213.515,402.926,253.459c-121.98,18.311-73.309,225.164-223.355,221.176C38.014,470.874,0,544.576,0,544.576H723.83s49.376-109.893,10.1-222.414C639.979,126.742,858.384,0,858.384,0H587.944Z" transform="translate(580 506.388)" fill="url(#linear-gradient-4)"/>
    <g id="Grupo_1100878" data-name="Grupo 1100878" transform="translate(-4.282 459)">
      <path id="Trazado_911248" data-name="Trazado 911248" d="M96.578,35.031H0a22.23,22.23,0,0,1,22.014-12.08,30.679,30.679,0,0,1,12.922-19C41.5-.388,50.383-1.419,57.349,2.2c8.144,4.23,12.312,13.68,13.427,22.792a16.642,16.642,0,0,1,17.363-.926,17.29,17.29,0,0,1,8.439,10.965" transform="translate(251.755 139.484)" fill="#fff" opacity="0.5"/>
      <path id="Trazado_911251" data-name="Trazado 911251" d="M70.346,25.516H0a16.192,16.192,0,0,1,16.034-8.8A22.346,22.346,0,0,1,25.446,2.875C30.229-.282,36.7-1.034,41.772,1.6c5.932,3.081,8.968,9.964,9.78,16.6A12.122,12.122,0,0,1,64.2,17.53a12.594,12.594,0,0,1,6.147,7.986" transform="translate(152.755 446.999)" fill="#fff" opacity="0.5"/>
      <path id="Trazado_911249" data-name="Trazado 911249" d="M96.578,35.031H0a22.23,22.23,0,0,1,22.014-12.08,30.679,30.679,0,0,1,12.922-19C41.5-.388,50.383-1.419,57.349,2.2c8.144,4.23,12.312,13.68,13.427,22.792a16.642,16.642,0,0,1,17.363-.926,17.29,17.29,0,0,1,8.439,10.965" transform="translate(1169.755 218.484)" fill="#fff" opacity="0.5"/>
      <path id="Trazado_911250" data-name="Trazado 911250" d="M62.075,22.516H0a14.288,14.288,0,0,1,14.149-7.764A19.719,19.719,0,0,1,22.454,2.537C26.675-.249,32.383-.912,36.861,1.414c5.235,2.719,7.913,8.792,8.63,14.649a10.7,10.7,0,0,1,11.16-.595,11.113,11.113,0,0,1,5.424,7.047" transform="translate(867.044 109.999)" fill="#fff" opacity="0.5"/>
      <path id="Trazado_911252" data-name="Trazado 911252" d="M62.075,22.516H0a14.288,14.288,0,0,1,14.149-7.764A19.719,19.719,0,0,1,22.454,2.537C26.675-.249,32.383-.912,36.861,1.414c5.235,2.719,7.913,8.792,8.63,14.649a10.7,10.7,0,0,1,11.16-.595,11.113,11.113,0,0,1,5.424,7.047" transform="translate(1360.044 175.741)" fill="#fff" opacity="0.5"/>
      <path id="Trazado_911254" data-name="Trazado 911254" d="M62.075,22.516H0a14.288,14.288,0,0,1,14.149-7.764A19.719,19.719,0,0,1,22.454,2.537C26.675-.249,32.383-.912,36.861,1.414c5.235,2.719,7.913,8.792,8.63,14.649a10.7,10.7,0,0,1,11.16-.595,11.113,11.113,0,0,1,5.424,7.047" transform="translate(619.044 558.741)" fill="#fff" opacity="0.5"/>
    </g>
    <g id="Enmascarar_grupo_1098696" data-name="Enmascarar grupo 1098696" transform="translate(136.051 506)" clip-path="url(#clip-path)">
      <g id="Grupo_1100864" data-name="Grupo 1100864" transform="translate(-518.833 -196.591)">
        <g id="Grupo_1100865" data-name="Grupo 1100865" transform="translate(0 0)">
          <path id="Trazado_911238" data-name="Trazado 911238" d="M6.012,606.773c41.061,15.241,86.033,8.576,124.221-14.476s70.41-63.334,83.333-113.169c12.655-48.795,6.884-115.615-34.854-141.629-19.574-12.2-41.329-6.473-56.322,12.527-14.45,18.311-20.385,44.262-15.074,68.794,11.5,53.111,65.751,90.2,109.454,78.363,24.037-6.507,39.518-29.714,48.519-56.19,10.821-31.834,14.23-66.716,17.62-100.621,6.417-64.187,14.435-136.7,61.663-176.924,11.456-9.757,24.143-17.235,37.142-23.466,14.169-6.79,29.216-12.973,44.643-12.706,25.141.44,48.144,21.693,55.593,50.724,7.294,28.423-2.882,60.677-22.611,77.888-10.77,9.393-24.834,14.489-38.031,11.042-12.4-3.238-21.47-14.341-25.029-28.859-6.574-26.827,2.227-56.092,11.667-80.221,10.606-27.11,24.878-52.236,42.605-73.26C487.6,40.641,540.391,17.569,591.93,30.958c24.834,6.451,50.443,21.822,65.71,47.144,8.563,14.2,12.361,30.834,10.948,48.37-1.517,18.821-7.669,36.882-13.935,54.017-11.65,31.857-26.743,61.287-44.08,89.041-16.52,26.446-34.317,52.114-47.057,81.639-23.344,54.106-25.727,123.78,8.893,171.875,15.643,21.728,36.917,35.69,60.646,38.772,14.928,1.938,29.983.172,44.8-2.2a261.79,261.79,0,0,0,37.23-8.245c23.839-7.485,46.044-21.088,61.382-45.009,15.285-23.839,23.594-54.487,25.8-84.324s-3.224-61.544-21.947-82.614c-7.868-8.855-17.69-15.452-28.357-17.6-11.974-2.413-24.019,1.187-34.686,7.825-36.706,22.843-53.2,76.322-47.732,124.052,6.119,53.451,40.537,93.821,81.621,110.806,45.8,18.936,95.136,7.365,135.749-22.822,20.525-15.256,38.717-34.8,54.265-57.009.745-1.063-.522-2.611-1.273-1.54C907.544,529.379,862.161,565.37,811.4,571.1c-45.633,5.153-95.063-17.209-122.145-63.157-24.537-41.632-25.412-101.069-1.518-143.494,13.107-23.27,36.35-43.744,60.65-41.02,26.451,2.966,45.3,31.67,50.562,61.376,5.7,32.154-.394,68.339-12.275,97.532-11.913,29.27-31.6,50.06-56.859,61.25a174.242,174.242,0,0,1-35.39,10.844c-14.169,2.944-28.577,5.377-42.958,5.93-27.2,1.045-52.439-8.348-72.122-31.607-40.449-47.8-38.3-123.055-12.775-179.881,12.763-28.412,30.019-53.3,46.047-79.019a475.582,475.582,0,0,0,42.546-85.424c10.536-28.24,21.909-61.657,11.2-92.256C657.386,66.544,636.885,48.6,616.308,38c-43.968-22.66-96.017-14.574-136.136,15.565-38.5,28.922-68.349,77.144-82.562,129.041-5.793,21.153-9.046,48.359,1.444,68.243,12.075,22.9,37.579,23.362,55.642,11.2,17.974-12.1,30.1-35.913,31.365-60.692,1.258-24.705-9.334-48.331-25.725-62.626-21.132-18.427-46.38-15.055-69.746-5.094-23.981,10.225-47.84,24.355-65.312,47.259-35.295,46.27-39.239,112.766-45.451,172.089-3.487,33.28-7.62,68.376-20.516,98.539-5.926,13.858-14.075,26.659-25.182,34.924-11.548,8.594-25.283,11.453-38.681,10.432-24.941-1.906-49.626-16.227-66.9-37.986-16.3-20.531-26.194-49.809-19.051-78.036,6.459-25.524,25.779-49.065,49.069-47.936,25.3,1.226,45.161,28.569,53.348,55.548,15.927,52.49-.472,112.505-29.848,153.1-28.753,39.728-70.633,65.233-114.016,70.37A131.643,131.643,0,0,1,6.49,604.674c-1.111-.412-1.584,1.688-.479,2.1" transform="translate(940.422 265.171)" fill="#fff"/>
          <path id="Trazado_911253" data-name="Trazado 911253" d="M5.891,495.5c33.207,12.326,69.578,6.936,100.462-11.707s56.943-51.22,67.394-91.524c10.234-39.462,5.567-93.5-28.188-114.541-15.831-9.865-33.424-5.235-45.55,10.131-11.686,14.809-16.486,35.8-12.191,55.636,9.3,42.953,53.175,72.946,88.52,63.375,19.44-5.263,31.96-24.031,39.239-45.443,8.751-25.745,11.508-53.956,14.25-81.376,5.19-51.911,11.674-110.557,49.869-143.084a137.32,137.32,0,0,1,30.038-18.978c11.459-5.492,23.628-10.492,36.1-10.275,20.332.356,38.936,17.544,44.96,41.022,5.9,22.987-2.331,49.072-18.287,62.991-8.71,7.6-20.085,11.718-30.757,8.93-10.025-2.619-17.364-11.6-20.242-23.339-5.317-21.7,1.8-45.364,9.435-64.878,8.578-21.925,20.119-42.245,34.456-59.248,29.968-35.543,72.659-54.2,114.34-43.374,20.085,5.217,40.795,17.648,53.142,38.127a64.922,64.922,0,0,1,8.854,39.118c-1.227,15.221-6.2,29.828-11.269,43.686a385.759,385.759,0,0,1-35.649,72.011c-13.36,21.387-27.754,42.146-38.057,66.024-18.879,43.758-20.807,100.105,7.192,139,12.651,17.572,29.856,28.864,49.047,31.356,12.073,1.567,24.248.139,36.233-1.779a211.72,211.72,0,0,0,30.109-6.668c19.279-6.054,37.237-17.055,49.642-36.4,12.361-19.279,19.081-44.066,20.869-68.2s-2.607-49.773-17.749-66.813c-6.363-7.161-14.306-12.5-22.934-14.237-9.684-1.951-19.425.96-28.052,6.328C551.437,289.851,538.1,333.1,542.52,371.7c4.948,43.228,32.784,75.877,66.01,89.613a97.687,97.687,0,0,0,33.376,7.363c3.511-.042,3.311-1.494.464-1.54-32.2-1.387-64.884-19.274-83.918-51.566-19.844-33.669-20.552-81.738-1.227-116.049,10.6-18.819,29.4-35.377,49.05-33.174,21.392,2.4,36.633,25.613,40.891,49.637,4.608,26-.319,55.268-9.927,78.878-9.635,23.672-25.557,40.485-45.984,49.535a140.912,140.912,0,0,1-28.621,8.77c-11.459,2.381-23.111,4.349-34.742,4.8-22,.845-42.41-6.751-58.327-25.562-32.712-38.655-30.976-99.519-10.332-145.476,10.322-22.978,24.277-43.11,37.24-63.905a384.622,384.622,0,0,0,34.408-69.085c8.521-22.839,17.719-49.864,9.057-74.61C532.682,58.6,516.1,44.087,499.46,35.511,463.9,17.185,421.808,23.724,389.362,48.1c-31.133,23.39-55.276,62.389-66.771,104.361-4.685,17.108-7.316,39.11,1.168,55.19,9.766,18.518,30.392,18.893,45,9.055,14.536-9.789,24.346-29.044,25.366-49.084,1.018-19.98-7.548-39.087-20.805-50.648-17.09-14.9-37.509-12.176-56.406-4.12-19.394,8.269-38.69,19.7-52.82,38.22-28.544,37.421-31.734,91.2-36.758,139.174-2.82,26.914-6.162,55.3-16.592,79.692-4.793,11.207-11.383,21.56-20.365,28.244-9.339,6.95-20.447,9.263-31.283,8.437-20.17-1.541-40.134-13.123-54.1-30.721-13.181-16.6-21.184-40.283-15.407-63.111,5.223-20.642,20.849-39.68,39.684-38.768,20.459.992,36.524,23.1,43.145,44.924,12.881,42.451-.381,90.987-24.139,123.814-23.254,32.13-57.124,52.756-92.209,56.911A106.465,106.465,0,0,1,6.278,493.8c-.9-.333-1.281,1.365-.387,1.7" transform="translate(-5.383 -24.998)" fill="#fff"/>
          <path id="Trazado_911239" data-name="Trazado 911239" d="M390.172,39.152C401.1,54.365,408.73,72.907,412.283,92.59a141.555,141.555,0,0,1,2.009,16.965c.081,1.389,1.883,1.4,1.8,0a141.624,141.624,0,0,0-15.962-57.972,123.576,123.576,0,0,0-8.686-13.971c-.761-1.061-2.031.486-1.273,1.54" transform="translate(1248.114 279.609)" fill="#fff"/>
          <path id="Trazado_911240" data-name="Trazado 911240" d="M315.591,70c1.482,17.022,3.715,35.261,13.841,48.228a32.764,32.764,0,0,0,8.554,7.8c1.03.634,1.942-1.246.909-1.882-12.075-7.42-17.51-23.545-19.807-38.82-.763-5.074-1.251-10.2-1.7-15.33-.121-1.379-1.921-1.394-1.8,0" transform="translate(1188.621 316.951)" fill="#fff"/>
          <path id="Trazado_911241" data-name="Trazado 911241" d="M464.568,100.595q-6.47,39.623-12.941,79.245-1.823,11.169-3.647,22.338c-.223,1.37,1.51,1.956,1.735.579q6.47-39.623,12.941-79.245,1.823-11.169,3.647-22.338c.223-1.37-1.51-1.956-1.735-.579" transform="translate(1294.537 353.287)" fill="#fff"/>
          <path id="Trazado_911242" data-name="Trazado 911242" d="M467.811,174.781q34.268,1.124,68.534,2.25,9.631.314,19.261.632c1.159.037,1.158-2.141,0-2.178l-68.534-2.25-19.261-.632c-1.159-.037-1.157,2.141,0,2.178" transform="translate(1309.725 439.026)" fill="#fff"/>
          <path id="Trazado_911244" data-name="Trazado 911244" d="M125.422,28.341H292.938c1.159,0,1.161-2.178,0-2.178H125.422c-1.157,0-1.161,2.178,0,2.178" transform="translate(858.773 224.199)" fill="#fff"/>
          <path id="Trazado_911246" data-name="Trazado 911246" d="M.869,252.23H156.024c1.157,0,1.159-2.178,0-2.178H.869c-1.157,0-1.161,2.178,0,2.178" transform="translate(504.116 530.249)" fill="#fff"/>
        </g>
      </g>
    </g>
  </g>
</svg>
