<svg xmlns="http://www.w3.org/2000/svg" width="83.02" height="93.925" viewBox="0 0 83.02 93.925">
  <g id="Grupo_1103446" data-name="Grupo 1103446" transform="translate(-29.722)">
    <path id="Trazado_913635" data-name="Trazado 913635" d="M110.6,36.459,103.587,35.4a32.736,32.736,0,0,0-5.16-12.453l4.217-5.71a2.511,2.511,0,0,0-.244-3.267l-3.632-3.632A2.511,2.511,0,0,0,95.5,10.1l-5.71,4.217a32.737,32.737,0,0,0-12.453-5.16L76.283,2.138A2.511,2.511,0,0,0,73.8,0H68.664a2.511,2.511,0,0,0-2.483,2.138L65.126,9.155a32.741,32.741,0,0,0-12.453,5.16L46.963,10.1a2.511,2.511,0,0,0-3.267.244l-3.632,3.632a2.511,2.511,0,0,0-.244,3.267l4.217,5.71A32.736,32.736,0,0,0,38.877,35.4L31.86,36.459a2.511,2.511,0,0,0-2.138,2.483v5.137a2.511,2.511,0,0,0,2.138,2.483l7.017,1.055a32.741,32.741,0,0,0,5.16,12.453l-4.217,5.71a2.511,2.511,0,0,0,.244,3.267L43.7,72.678a2.511,2.511,0,0,0,3.267.244l5.71-4.217a32.737,32.737,0,0,0,12.453,5.16l1.055,7.017a2.511,2.511,0,0,0,2.483,2.138H73.8a2.511,2.511,0,0,0,2.483-2.138l1.055-7.017A32.736,32.736,0,0,0,89.791,68.7l5.71,4.217a2.511,2.511,0,0,0,3.267-.244l3.632-3.632a2.511,2.511,0,0,0,.244-3.267l-4.217-5.71a32.736,32.736,0,0,0,5.16-12.453l7.017-1.055a2.511,2.511,0,0,0,2.138-2.483V38.942a2.51,2.51,0,0,0-2.137-2.483Zm-14.271,8.46c0,10.215-11.238,23.45-25.1,23.45s-25.1-12.167-25.1-23.45c0-.573.021-1.141.059-1.7-.038-.563-.059-1.131-.059-1.7a25.1,25.1,0,0,1,50.2,0c0,.573-.021,1.141-.059,1.7C96.312,43.778,96.333,44.346,96.333,44.918Z" fill="#ee4f47"/>
    <path id="Trazado_913636" data-name="Trazado 913636" d="M144.269,262.373a25.1,25.1,0,0,0,25.1-25.1c0-.573-.021-1.141-.059-1.7a25.1,25.1,0,0,1-50.085,0c-.038.563-.059,1.131-.059,1.7A25.1,25.1,0,0,0,144.269,262.373Z" transform="translate(-73.037 -192.354)" fill="#fc2b3a"/>
    <path id="Trazado_913637" data-name="Trazado 913637" d="M206,297.331v-3.025a5.167,5.167,0,0,0-.967-3.009,29.818,29.818,0,0,1-5.577-17.364v-8.589h-15.89v8.589a29.817,29.817,0,0,1-5.577,17.364,5.168,5.168,0,0,0-.967,3.009v3.025Z" transform="translate(-120.275 -216.667)" fill="#ecdaec"/>
    <path id="Trazado_913638" data-name="Trazado 913638" d="M206,289.982v-3.025a5.167,5.167,0,0,0-.967-3.009,29.818,29.818,0,0,1-5.577-17.364v-8.589l-7.945-1.651-7.945,1.651v8.589a29.818,29.818,0,0,1-5.577,17.364,5.168,5.168,0,0,0-.967,3.009v3.025l14.489,1.651Z" transform="translate(-120.275 -209.318)" fill="#4a80aa"/>
    <path id="Trazado_913639" data-name="Trazado 913639" d="M161.232,441.308a3,3,0,0,0,2.821,3.246h29.128c1.2,0,2.821-.744,2.821-3.246a3.294,3.294,0,0,0-2.821-1.595H164.053A3.294,3.294,0,0,0,161.232,441.308Z" transform="translate(-107.385 -359.049)" fill="#407093"/>
    <g id="Grupo_1103445" data-name="Grupo 1103445" transform="translate(50.097 52.654)">
      <path id="Trazado_913640" data-name="Trazado 913640" d="M219.44,289.868H201.917a1.42,1.42,0,1,1,0-2.84H219.44a1.42,1.42,0,1,1,0,2.84Z" transform="translate(-189.544 -287.028)" fill="#365e7d"/>
      <path id="Trazado_913641" data-name="Trazado 913641" d="M191.052,450H161.924a3.294,3.294,0,0,1-2.821-1.595,3.294,3.294,0,0,0,2.821,5l14.564,1.651,14.564-1.651a3.294,3.294,0,0,0,2.821-5A3.293,3.293,0,0,1,191.052,450Z" transform="translate(-155.353 -418.802)" fill="#365e7d"/>
      <path id="Trazado_913642" data-name="Trazado 913642" d="M182.983,478.936l.077.077a3.331,3.331,0,0,0-3.331-3.331H144.122a3.331,3.331,0,0,0-3.331,3.331l.077-.077,21.058,1.651Z" transform="translate(-140.791 -441.074)" fill="#365e7d"/>
    </g>
    <path id="Trazado_913643" data-name="Trazado 913643" d="M140.867,493.419l-.077.077v2.384a.947.947,0,0,0,.947.947h40.376a.947.947,0,0,0,.947-.947V493.5l-.077-.077Z" transform="translate(-90.693 -402.903)" fill="#2b4d66"/>
    <path id="Trazado_913644" data-name="Trazado 913644" d="M194.137,223.149a3.279,3.279,0,0,0,2.877,3.294h16.944a3.438,3.438,0,0,0,2.877-3.294,3.342,3.342,0,0,0-2.877-1.643l-8.472-1.651-8.472,1.651A3.342,3.342,0,0,0,194.137,223.149Z" transform="translate(-134.254 -179.523)" fill="#407093"/>
    <path id="Trazado_913645" data-name="Trazado 913645" d="M180.272,169.791h22.469c1.8,0,3.255-3.108,3.255-4.906v-4.758a1.453,1.453,0,0,0-1.453-1.453H200.9a1.453,1.453,0,0,0-1.453,1.453v3.152a1.3,1.3,0,0,1-1.3,1.3h-1.878a1.3,1.3,0,0,1-1.3-1.3v-3.152a1.453,1.453,0,0,0-1.453-1.453H189.5a1.453,1.453,0,0,0-1.453,1.453v3.152a1.3,1.3,0,0,1-1.3,1.3h-1.878a1.3,1.3,0,0,1-1.3-1.3v-3.152a1.453,1.453,0,0,0-1.453-1.453H178.47a1.453,1.453,0,0,0-1.453,1.453v4.758c0,1.8,1.457,4.906,3.255,4.906Z" transform="translate(-120.274 -129.566)" fill="#4a80aa"/>
    <path id="Trazado_913646" data-name="Trazado 913646" d="M211.866,239.452H194.922a3.342,3.342,0,0,1-2.877-1.643,3.342,3.342,0,0,0,2.877,5.051h16.944a3.342,3.342,0,0,0,2.877-5.051,3.342,3.342,0,0,1-2.877,1.643Z" transform="translate(-132.162 -194.184)" fill="#365e7d"/>
    <path id="Trazado_913647" data-name="Trazado 913647" d="M202.741,195.788H180.273a3.255,3.255,0,0,1-3.255-3.255v3.409a3.255,3.255,0,0,0,3.255,3.255h22.469A3.255,3.255,0,0,0,206,195.942v-3.409A3.255,3.255,0,0,1,202.741,195.788Z" transform="translate(-120.275 -157.213)" fill="#407093"/>
  </g>
</svg>
