<svg xmlns="http://www.w3.org/2000/svg" width="62" height="62" viewBox="0 0 62 62">
  <g id="Grupo_1103435" data-name="Grupo 1103435" transform="translate(-1 -1)">
    <path id="Trazado_913575" data-name="Trazado 913575" d="M23,53v9a1,1,0,0,0,1,1H40a1,1,0,0,0,1-1V53a7.008,7.008,0,0,0-5.86-6.9,6,6,0,1,0-6.28,0A7.008,7.008,0,0,0,23,53Zm5-12a4,4,0,1,1,4,4A4,4,0,0,1,28,41Zm2,7h4a5,5,0,0,1,5,5v8H25V53A5,5,0,0,1,30,48Z" fill="#ee4f47"/>
    <path id="Trazado_913576" data-name="Trazado 913576" d="M44,53v8a1,1,0,0,0,1,1H59a1,1,0,0,0,1-1V53a6.01,6.01,0,0,0-5.04-5.92,5.25,5.25,0,1,0-5.92,0A6,6,0,0,0,44,53Zm4.75-10.25A3.25,3.25,0,1,1,52,46,3.256,3.256,0,0,1,48.75,42.75ZM46,53a4,4,0,0,1,4-4h4a4,4,0,0,1,4,4v7H46Z" fill="#ee4f47"/>
    <path id="Trazado_913577" data-name="Trazado 913577" d="M45,23V3a2.006,2.006,0,0,0-2-2H21a2.006,2.006,0,0,0-2,2V23a2.006,2.006,0,0,0,2,2h8.28l1.77,5.32A1,1,0,0,0,32,31a1.014,1.014,0,0,0,.95-.68L34.72,25H43A2.006,2.006,0,0,0,45,23ZM34,23a1.014,1.014,0,0,0-.95.68L32,26.83l-1.05-3.15A1,1,0,0,0,30,23H21V3H43V23Z" fill="#ee4f47"/>
    <path id="Trazado_913578" data-name="Trazado 913578" d="M61,8H48v2H61V28H53.71a1,1,0,0,0-.92.61L52,30.46l-.79-1.85a1,1,0,0,0-.92-.61H43v2h6.63l1.45,3.39a1,1,0,0,0,1.84,0L54.37,30H61a2.006,2.006,0,0,0,2-2V10A2.006,2.006,0,0,0,61,8Z" fill="#ee4f47"/>
    <path id="Trazado_913579" data-name="Trazado 913579" d="M4,53v8a1,1,0,0,0,1,1H19a1,1,0,0,0,1-1V53a6.01,6.01,0,0,0-5.04-5.92,5.25,5.25,0,1,0-5.92,0A6,6,0,0,0,4,53ZM8.75,42.75A3.25,3.25,0,1,1,12,46,3.256,3.256,0,0,1,8.75,42.75ZM6,53a4,4,0,0,1,4-4h4a4,4,0,0,1,4,4v7H6Z" fill="#ee4f47"/>
    <path id="Trazado_913580" data-name="Trazado 913580" d="M3,30H9.63l1.45,3.39a1,1,0,0,0,1.84,0L14.37,30H21V28H13.71a1,1,0,0,0-.92.61L12,30.46l-.79-1.85a1,1,0,0,0-.92-.61H3V10H16V8H3a2.006,2.006,0,0,0-2,2V28A2.006,2.006,0,0,0,3,30Z" fill="#ee4f47"/>
    <path id="Trazado_913581" data-name="Trazado 913581" d="M37.44,11H36.41l.53-2.11a2.265,2.265,0,0,0-4.3-1.41l-.99,2.65A1.341,1.341,0,0,1,30.4,11H30a.994.994,0,0,0-1-.99H25a1,1,0,0,0-1,1v8a1,1,0,0,0,1,1h4a.978.978,0,0,0,.96-.82l.98.65a.991.991,0,0,0,.55.17H37a2.556,2.556,0,0,0,2.54-2.28l.43-3.9a2.549,2.549,0,0,0-.64-1.99,2.576,2.576,0,0,0-1.91-.85ZM28,18.01H26v-6h2Zm9.56-.5a.561.561,0,0,1-.55.5H31.8l-1.25-.83a.991.991,0,0,0-.55-.17V13h.39a3.365,3.365,0,0,0,3.13-2.17l.99-2.65a.267.267,0,0,1,.34-.16.314.314,0,0,1,.15.37l-.84,3.36a1.015,1.015,0,0,0,.18.86.991.991,0,0,0,.79.38h2.31a.572.572,0,0,1,.42.19.538.538,0,0,1,.14.43l-.43,3.9Z" fill="#ee4f47"/>
    <path id="Trazado_913582" data-name="Trazado 913582" d="M51.12,22.5l1.71,1.3a.963.963,0,0,0,.6.2,1.006,1.006,0,0,0,.6-.2l1.71-1.3a10.7,10.7,0,0,0,2.71-3.04,3.718,3.718,0,0,0-.4-4.39,3.129,3.129,0,0,0-4.63-.09,3.129,3.129,0,0,0-4.63.09,3.733,3.733,0,0,0-.4,4.39A10.7,10.7,0,0,0,51.1,22.5Zm-.83-6.09a1.159,1.159,0,0,1,.87-.41,1.216,1.216,0,0,1,.88.41l.66.73a1.027,1.027,0,0,0,1.48,0l.66-.73a1.162,1.162,0,0,1,1.75,0,1.762,1.762,0,0,1,.17,2.02,8.779,8.779,0,0,1-2.21,2.48l-1.11.84-1.11-.84a8.645,8.645,0,0,1-2.21-2.48,1.763,1.763,0,0,1,.17-2.02Z" fill="#ee4f47"/>
    <path id="Trazado_913583" data-name="Trazado 913583" d="M6.5,14.5h2v2h-2Z" fill="#ee4f47"/>
    <path id="Trazado_913584" data-name="Trazado 913584" d="M11.5,14.5h2v2h-2Z" fill="#ee4f47"/>
    <path id="Trazado_913585" data-name="Trazado 913585" d="M10,23.5a5,5,0,0,0,5-5H13a3,3,0,0,1-6,0H5A5,5,0,0,0,10,23.5Z" fill="#ee4f47"/>
  </g>
</svg>
