<svg xmlns="http://www.w3.org/2000/svg" xmlns:xlink="http://www.w3.org/1999/xlink" width="333.325" height="376.925" viewBox="0 0 333.325 376.925">
  <defs>
    <clipPath id="clip-path">
      <rect id="Rectángulo_404355" data-name="Rectángulo 404355" width="297.829" height="294.999" fill="none"/>
    </clipPath>
    <clipPath id="clip-path-2">
      <rect id="Rectángulo_404340" data-name="Rectángulo 404340" width="297.829" height="295" fill="none"/>
    </clipPath>
    <clipPath id="clip-path-6">
      <rect id="Rectángulo_404343" data-name="Rectángulo 404343" width="12.687" height="12.687" fill="none"/>
    </clipPath>
    <clipPath id="clip-path-7">
      <rect id="Rectángulo_404344" data-name="Rectángulo 404344" width="12.687" height="12.686" fill="none"/>
    </clipPath>
  </defs>
  <g id="Grupo_1103823" data-name="Grupo 1103823" transform="translate(-1020 -5461.769)">
    <g id="Grupo_1103253" data-name="Grupo 1103253" transform="translate(1020 5461.769)">
      <rect id="Rectángulo_35929" data-name="Rectángulo 35929" width="333.054" height="376.925" transform="translate(0.271 0)" fill="#f6ccb3"/>
      <rect id="Rectángulo_402739" data-name="Rectángulo 402739" width="333.054" height="81.071" transform="translate(0 0)" fill="#fef6ed"/>
      <g id="Rectángulo_402741" data-name="Rectángulo 402741" transform="translate(25.335 22.294)" fill="none" stroke="#fef6ed" stroke-width="3">
        <rect width="282.384" height="312.336" stroke="none"/>
        <rect x="1.5" y="1.5" width="279.384" height="309.336" fill="none"/>
      </g>
    </g>
    <g id="Grupo_1103701" data-name="Grupo 1103701" transform="translate(1037.171 5499.194)">
      <g id="Grupo_1103700" data-name="Grupo 1103700" clip-path="url(#clip-path)">
        <g id="Grupo_1103681" data-name="Grupo 1103681" transform="translate(0 -0.001)">
          <g id="Grupo_1103680" data-name="Grupo 1103680" clip-path="url(#clip-path-2)">
            <path id="Trazado_913924" data-name="Trazado 913924" d="M230.768,253.052a19.018,19.018,0,0,1,4.481-2.354l.615-4.654,7.733-.708,1.45,4.464a19.015,19.015,0,0,1,4.835,1.5l3.724-2.855,5.969,4.967-2.129,4.18a19,19,0,0,1,2.355,4.483l4.654.614.709,7.733-4.464,1.451a19.051,19.051,0,0,1-1.5,4.835l2.855,3.724-4.967,5.97-4.181-2.13a18.994,18.994,0,0,1-4.482,2.355l-.614,4.654-7.733.708-1.451-4.464a19.048,19.048,0,0,1-4.835-1.5l-3.724,2.855-5.969-4.967,2.13-4.181a18.987,18.987,0,0,1-2.355-4.482l-4.654-.614-.709-7.733,4.464-1.451a19.035,19.035,0,0,1,1.5-4.835l-2.855-3.724,4.967-5.97Zm4.891,10.01a8.331,8.331,0,1,0,11.732-1.076,8.33,8.33,0,0,0-11.732,1.076" transform="translate(-70.839 -79.535)" fill="#f5f5f5"/>
            <path id="Trazado_913925" data-name="Trazado 913925" d="M207.654,185.5a12.977,12.977,0,0,1,3.056-1.606l.419-3.174,5.274-.483.989,3.044a12.989,12.989,0,0,1,3.3,1.024l2.539-1.947,4.071,3.387-1.452,2.851a12.96,12.96,0,0,1,1.606,3.057l3.174.419.483,5.273-3.045.989a12.958,12.958,0,0,1-1.023,3.3l1.946,2.54-3.387,4.071-2.851-1.453a12.919,12.919,0,0,1-3.057,1.606l-.419,3.174-5.273.483-.99-3.045a12.983,12.983,0,0,1-3.3-1.024l-2.54,1.947-4.071-3.387,1.452-2.851a12.993,12.993,0,0,1-1.606-3.057l-3.174-.419-.483-5.274,3.045-.989a12.985,12.985,0,0,1,1.023-3.3l-1.946-2.539,3.387-4.071Zm3.335,6.826a5.681,5.681,0,1,0,8-.733,5.681,5.681,0,0,0-8,.733" transform="translate(-64.609 -58.432)" fill="#f5f5f5"/>
            <path id="Trazado_913926" data-name="Trazado 913926" d="M151.156,237.221a8.544,8.544,0,0,1,2.011-1.057l.276-2.088,3.469-.318.651,2a8.554,8.554,0,0,1,2.169.673l1.67-1.281,2.678,2.228-.956,1.875a8.506,8.506,0,0,1,1.056,2.011l2.088.276.318,3.469-2,.651a8.557,8.557,0,0,1-.673,2.169l1.28,1.671-2.228,2.678-1.875-.955a8.546,8.546,0,0,1-2.011,1.056l-.276,2.088-3.469.318-.651-2a8.548,8.548,0,0,1-2.169-.673l-1.671,1.281-2.678-2.229.955-1.875a8.542,8.542,0,0,1-1.056-2.011l-2.088-.276-.318-3.47,2-.651a8.557,8.557,0,0,1,.673-2.169l-1.281-1.671,2.228-2.678Zm2.194,4.49a3.737,3.737,0,1,0,5.263-.483,3.737,3.737,0,0,0-5.263.483" transform="translate(-47.221 -75.782)" fill="#ebebeb"/>
            <path id="Trazado_913927" data-name="Trazado 913927" d="M276.743,174.42A100.033,100.033,0,0,1,99.537,238.091a99.49,99.49,0,0,1-22.573-55.868,100.95,100.95,0,0,1,2.544-31.571,99.986,99.986,0,0,1,85.621-75.615,101.252,101.252,0,0,1,31.588,1.345,100.046,100.046,0,0,1,78.858,82.656,100.711,100.711,0,0,1,1.167,15.383,1.268,1.268,0,0,0,2.534,0A102.52,102.52,0,1,0,197.256,274.93a101.99,101.99,0,0,0,29.285-10.837,103,103,0,0,0,42.02-43.984,101.869,101.869,0,0,0,9.5-29.907,105.364,105.364,0,0,0,1.215-15.782,1.268,1.268,0,0,0-2.534,0" transform="translate(-24.033 -23.292)" fill="#e0e0e0"/>
            <path id="Trazado_913928" data-name="Trazado 913928" d="M398.426,127.91l.787,1.6a.742.742,0,0,0,.559.405l1.76.256a.742.742,0,0,1,.411,1.265l-1.274,1.242a.741.741,0,0,0-.214.656l.3,1.754a.742.742,0,0,1-1.076.782l-1.575-.828a.743.743,0,0,0-.691,0l-1.575.828a.742.742,0,0,1-1.077-.782l.3-1.754a.74.74,0,0,0-.214-.656l-1.274-1.242a.742.742,0,0,1,.412-1.265l1.76-.256a.742.742,0,0,0,.558-.405l.787-1.6a.742.742,0,0,1,1.331,0" transform="translate(-127.521 -41.332)" fill="#ebebeb"/>
            <path id="Trazado_913929" data-name="Trazado 913929" d="M416.008,127.91l.787,1.6a.742.742,0,0,0,.559.405l1.76.256a.742.742,0,0,1,.411,1.265l-1.274,1.242a.741.741,0,0,0-.214.656l.3,1.754a.741.741,0,0,1-1.076.782l-1.575-.828a.742.742,0,0,0-.69,0l-1.575.828a.742.742,0,0,1-1.077-.782l.3-1.754a.741.741,0,0,0-.214-.656l-1.274-1.242a.742.742,0,0,1,.412-1.265l1.76-.256a.742.742,0,0,0,.558-.405l.787-1.6a.742.742,0,0,1,1.331,0" transform="translate(-133.221 -41.332)" fill="#ebebeb"/>
            <path id="Trazado_913930" data-name="Trazado 913930" d="M380.842,127.91l.787,1.6a.742.742,0,0,0,.559.405l1.76.256a.742.742,0,0,1,.411,1.265l-1.274,1.242a.741.741,0,0,0-.214.656l.3,1.754a.742.742,0,0,1-1.076.782l-1.575-.828a.742.742,0,0,0-.69,0l-1.575.828a.742.742,0,0,1-1.077-.782l.3-1.754a.741.741,0,0,0-.214-.656l-1.274-1.242a.742.742,0,0,1,.412-1.265l1.761-.256a.742.742,0,0,0,.558-.405l.787-1.6a.742.742,0,0,1,1.331,0" transform="translate(-121.821 -41.332)" fill="#ebebeb"/>
            <path id="Trazado_913931" data-name="Trazado 913931" d="M403.048,139.954c0-.027.411-.011,1.176-.129a8.105,8.105,0,0,0,3.142-1.174,8.217,8.217,0,0,0,3.32-4.043,8.641,8.641,0,0,0,.541-3.255q-.007-1.785-.016-3.766a8.338,8.338,0,0,0-1.034-3.9,8.239,8.239,0,0,0-3.07-3.1,8.41,8.41,0,0,0-4.543-1.082l-5.1.007-22.719.014a8.175,8.175,0,0,0-5.348,2.018,8.009,8.009,0,0,0-2.672,4.872,19.186,19.186,0,0,0-.1,2.792c.006.93-.018,1.863.013,2.764a8.1,8.1,0,0,0,5.937,7.527,8.521,8.521,0,0,0,2.375.306l2.368,0,8.64.022,12.509.056,3.4.033.885.017a1.918,1.918,0,0,1,.3.018,1.908,1.908,0,0,1-.3.018l-.885.018-3.4.032-12.509.056-8.64.022-2.368,0a8.886,8.886,0,0,1-2.458-.309,8.413,8.413,0,0,1-6.19-7.814c-.032-.926-.01-1.841-.018-2.776a19.444,19.444,0,0,1,.1-2.844,8.349,8.349,0,0,1,2.781-5.083,8.521,8.521,0,0,1,5.579-2.107l22.719.014,5.1.007a8.705,8.705,0,0,1,4.689,1.139,8.4,8.4,0,0,1,4.208,7.253q-.005,1.981-.01,3.768a8.805,8.805,0,0,1-.581,3.326,8.315,8.315,0,0,1-3.432,4.088,7.937,7.937,0,0,1-3.2,1.128,5.758,5.758,0,0,1-.885.061,1.914,1.914,0,0,1-.3,0" transform="translate(-118.743 -38.634)" fill="#ebebeb"/>
            <path id="Trazado_913932" data-name="Trazado 913932" d="M164.391,33.572l.331-4.284a16.384,16.384,0,1,1,4.26,4.039l.007.007Z" transform="translate(-52.38 -1.062)" fill="#fff"/>
            <path id="Trazado_913933" data-name="Trazado 913933" d="M164.344,33.511s.093,0,.288,0l.874-.03,3.438-.141a.063.063,0,0,0,.044-.105l-.006-.007-.082.1a16.3,16.3,0,0,0,7.456,2.646,16.847,16.847,0,0,0,5.222-.333,16.454,16.454,0,0,0,5.461-2.357,16.8,16.8,0,0,0,4.618-4.675,16.118,16.118,0,0,0,2.55-6.632,16.868,16.868,0,0,0-.641-7.531,16.15,16.15,0,0,0-4.207-6.709,16.924,16.924,0,0,0-3.245-2.466c-.6-.311-1.191-.631-1.8-.891l-.933-.354-.465-.174-.479-.126a16.812,16.812,0,0,0-7.627-.347,16.081,16.081,0,0,0-6.573,2.868,16.829,16.829,0,0,0-4.479,4.88,16.512,16.512,0,0,0-2.1,5.606q-.089.7-.174,1.381c-.047.453-.034.9-.054,1.342a14.885,14.885,0,0,0,.173,2.529,16.286,16.286,0,0,0,3.022,7.287l-.011-.041-.212,3.2c-.021.349-.037.62-.049.818a2.319,2.319,0,0,0-.009.27s.015-.1.034-.291.045-.476.078-.831c.065-.735.159-1.8.28-3.157a.063.063,0,0,0-.011-.041,16.326,16.326,0,0,1-2.924-7.243,14.715,14.715,0,0,1-.154-2.5c.022-.433.012-.877.061-1.323s.118-.9.179-1.36a16.34,16.34,0,0,1,2.09-5.513A16.619,16.619,0,0,1,168.4,6.466a15.829,15.829,0,0,1,6.463-2.8,16.541,16.541,0,0,1,7.486.35l.47.124.456.171.916.348c.6.256,1.183.57,1.769.875a16.647,16.647,0,0,1,3.184,2.42,15.867,15.867,0,0,1,4.13,6.581,16.6,16.6,0,0,1,.639,7.392,15.86,15.86,0,0,1-2.491,6.521,16.582,16.582,0,0,1-4.528,4.614,16.263,16.263,0,0,1-5.368,2.346,16.72,16.72,0,0,1-5.151.36,16.331,16.331,0,0,1-7.4-2.552.063.063,0,0,0-.088.018.065.065,0,0,0,.006.078l.006.007.044-.105-3.4.212-.889.061c-.2.015-.31.028-.31.028" transform="translate(-52.333 -1.001)" fill="#e0e0e0"/>
            <path id="Trazado_913934" data-name="Trazado 913934" d="M192.783,26.486a2.082,2.082,0,1,0,2.082-2.082,2.082,2.082,0,0,0-2.082,2.082" transform="translate(-62.498 -7.911)" fill="#e0e0e0"/>
            <path id="Trazado_913935" data-name="Trazado 913935" d="M182.414,26.486A2.083,2.083,0,1,0,184.5,24.4a2.082,2.082,0,0,0-2.082,2.082" transform="translate(-59.137 -7.911)" fill="#e0e0e0"/>
            <path id="Trazado_913936" data-name="Trazado 913936" d="M172.044,26.486a2.083,2.083,0,1,0,2.082-2.082,2.082,2.082,0,0,0-2.082,2.082" transform="translate(-55.775 -7.911)" fill="#e0e0e0"/>
            <path id="Trazado_913937" data-name="Trazado 913937" d="M8.225,242.232a2.683,2.683,0,0,1,.546-1.516,2.576,2.576,0,0,1,1.258-.951,2.081,2.081,0,0,1,2.382.846,2.1,2.1,0,0,1,.552-.727,2.117,2.117,0,0,1,1.587-.472,2.578,2.578,0,0,1,1.416.695,2.68,2.68,0,0,1,.824,1.384,3.263,3.263,0,0,1-.212,2.037,4.618,4.618,0,0,1-1.441,1.635c-.975.722-2.262,1.634-2.262,1.634s-1.234-.751-2.329-1.275a4.616,4.616,0,0,1-1.725-1.331,3.263,3.263,0,0,1-.6-1.96" transform="translate(-2.666 -77.61)" fill="#ebebeb"/>
            <path id="Trazado_913938" data-name="Trazado 913938" d="M19.3,218.854a6.555,6.555,0,0,1,1.335-3.707,6.306,6.306,0,0,1,3.078-2.328,5.088,5.088,0,0,1,5.825,2.071,5.083,5.083,0,0,1,5.234-2.933,6.3,6.3,0,0,1,3.464,1.7,6.558,6.558,0,0,1,2.017,3.386,7.98,7.98,0,0,1-.518,4.983,11.311,11.311,0,0,1-3.526,4c-2.384,1.767-5.534,4-5.534,4s-3.019-1.836-5.7-3.118a11.28,11.28,0,0,1-4.222-3.257,7.979,7.979,0,0,1-1.458-4.794" transform="translate(-6.255 -68.702)" fill="#ebebeb"/>
            <path id="Trazado_913939" data-name="Trazado 913939" d="M412.425,291.354A19.555,19.555,0,1,1,392.871,271.8a19.555,19.555,0,0,1,19.555,19.555" transform="translate(-121.026 -88.114)" fill="#e0e0e0"/>
            <path id="Trazado_913940" data-name="Trazado 913940" d="M412.425,288.159A19.555,19.555,0,1,1,392.871,268.6a19.555,19.555,0,0,1,19.555,19.555" transform="translate(-121.026 -87.078)" fill="#f5f5f5"/>
            <path id="Trazado_913941" data-name="Trazado 913941" d="M409.066,291.256a13.1,13.1,0,1,1-13.1-13.1,13.1,13.1,0,0,1,13.1,13.1" transform="translate(-124.123 -90.175)" fill="#fff"/>
            <path id="Trazado_913942" data-name="Trazado 913942" d="M405.586,294.464a6.41,6.41,0,1,1-6.409-6.409,6.409,6.409,0,0,1,6.409,6.409" transform="translate(-127.331 -93.384)" fill="#ebebeb"/>
            <path id="Trazado_913943" data-name="Trazado 913943" d="M422.164,272.174,421.633,268l4.246-4.545.306,4.5Z" transform="translate(-136.689 -85.41)" fill="#ebebeb"/>
            <path id="Trazado_913944" data-name="Trazado 913944" d="M431.767,271.275l-4.308-.351-4.318,4.154,4.32.462Z" transform="translate(-137.178 -87.83)" fill="#ebebeb"/>
            <path id="Trazado_913945" data-name="Trazado 913945" d="M419.9,269.078l-6.088,6.089-9.657,9.659-2.219,2.221a.772.772,0,0,0,1.1,1.085l6.088-6.088,9.657-9.659L421,270.163c.7-.7-.395-1.79-1.1-1.085" transform="translate(-130.231 -87.158)" fill="#e0e0e0"/>
            <path id="Trazado_913946" data-name="Trazado 913946" d="M412.82,36.629h-2.288l-4.994-6.959V25.1s-3.537-.218-3.121,5.763-.034,4.459-.034,4.459-7.511.029-8.135.682c-.454.474-.66,7.934-.738,11.981a4.38,4.38,0,0,0,3.1,4.412,3.267,3.267,0,0,0,.808.109c1.873,0,11.445-1.523,11.445-1.523h3.953Z" transform="translate(-127.572 -8.137)" fill="#f5f5f5"/>
            <path id="Trazado_913947" data-name="Trazado 913947" d="M429.222,40.3l-1.408,15.652h-3.919V40.619Z" transform="translate(-137.423 -13.065)" fill="#f5f5f5"/>
            <path id="Trazado_913948" data-name="Trazado 913948" d="M377.3,19.617l.937-.956,4.954.765L385.1,21.3s1.54-1.389-1.129-3.666-1.849-1.84-1.849-1.84,3.065-3.15,3.048-3.678c-.012-.384-3.045-3.526-4.7-5.217a2.563,2.563,0,0,0-3.116-.51,1.916,1.916,0,0,0-.376.293c-.767.783-4.051,5.406-4.051,5.406l-1.62,1.651Z" transform="translate(-120.372 -1.965)" fill="#f5f5f5"/>
            <path id="Trazado_913949" data-name="Trazado 913949" d="M374.12,26.786l-5.963-7,1.605-1.637,6.408,6.282Z" transform="translate(-119.353 -5.883)" fill="#f5f5f5"/>
          </g>
        </g>
        <g id="Grupo_1103683" data-name="Grupo 1103683" transform="translate(0 -0.001)">
          <g id="Grupo_1103682" data-name="Grupo 1103682" clip-path="url(#clip-path-2)">
            <path id="Trazado_913950" data-name="Trazado 913950" d="M327.9,214.871c-2.5,2.234-2.751,4.237-2.755,5.3,0,.311.09.7.394.765a.748.748,0,0,0,.437-.084l8.743-3.626" transform="translate(-105.409 -69.658)" fill="#263238"/>
            <path id="Trazado_913951" data-name="Trazado 913951" d="M370.559,249.381a72.664,72.664,0,0,0,4.312-11.769,25.376,25.376,0,0,0,.2-12.419c-.162-.613-1.654-4.764-2.288-4.762-.453,0,.344,3.816.079,4.184a21.514,21.514,0,0,0-3.616,12.255,56.666,56.666,0,0,0,1.312,12.512" transform="translate(-119.704 -71.461)" fill="#263238"/>
            <path id="Trazado_913952" data-name="Trazado 913952" d="M352.362,268.121l4.053-38.367c1.348-10.406-3.585-19.863-14.023-20.922l-.97-.042A18.758,18.758,0,0,0,322,225.22c-1.118,9.025-2.238,19.013-2.386,23.874-.307,10.063,9.687,12.059,9.687,12.059.022,0-.831,10.206-1.084,13.15l15.181.432,3.64-.032Z" transform="translate(-103.614 -67.681)" fill="#ffc09d"/>
            <path id="Trazado_913953" data-name="Trazado 913953" d="M333.851,284.691a24.32,24.32,0,0,0,13.263-3.31s-3.475,7.426-13.473,6.092Z" transform="translate(-108.163 -91.22)" fill="#ff9b6c"/>
            <path id="Trazado_913954" data-name="Trazado 913954" d="M327.728,246.22a1.438,1.438,0,0,0,1.323,1.508,1.374,1.374,0,0,0,1.535-1.232,1.437,1.437,0,0,0-1.321-1.509,1.376,1.376,0,0,0-1.537,1.233" transform="translate(-106.245 -79.42)" fill="#263238"/>
            <path id="Trazado_913955" data-name="Trazado 913955" d="M326.022,239.15c.17.195,1.293-.564,2.838-.493,1.545.047,2.645.891,2.821.71.086-.08-.081-.426-.56-.808a3.947,3.947,0,0,0-2.248-.8,3.787,3.787,0,0,0-2.269.627c-.491.344-.666.676-.582.764" transform="translate(-105.687 -77.078)" fill="#263238"/>
            <path id="Trazado_913956" data-name="Trazado 913956" d="M347.005,247.415a1.437,1.437,0,0,0,1.323,1.508,1.374,1.374,0,0,0,1.536-1.231,1.439,1.439,0,0,0-1.322-1.51,1.376,1.376,0,0,0-1.537,1.233" transform="translate(-112.494 -79.807)" fill="#263238"/>
            <path id="Trazado_913957" data-name="Trazado 913957" d="M348.42,240.641c.17.195,1.294-.564,2.839-.493,1.544.048,2.645.892,2.821.71.086-.08-.079-.426-.56-.807a3.945,3.945,0,0,0-2.248-.8,3.8,3.8,0,0,0-2.269.626c-.49.345-.666.677-.583.764" transform="translate(-112.948 -77.561)" fill="#263238"/>
            <path id="Trazado_913958" data-name="Trazado 913958" d="M337.605,252.369a10.225,10.225,0,0,0-2.491-.56c-.393-.057-.764-.152-.818-.424a2.017,2.017,0,0,1,.314-1.159q.618-1.409,1.3-2.955c1.8-4.21,3.128-7.678,2.958-7.75s-1.771,3.283-3.575,7.493c-.435,1.039-.852,2.028-1.248,2.976a2.287,2.287,0,0,0-.271,1.54.993.993,0,0,0,.625.6,2.7,2.7,0,0,0,.666.122,10.04,10.04,0,0,0,2.544.112" transform="translate(-108.187 -77.649)" fill="#263238"/>
            <path id="Trazado_913959" data-name="Trazado 913959" d="M347.989,233.414c.193.4,1.71.053,3.539.092,1.829,0,3.338.387,3.54-.012.089-.19-.2-.559-.833-.906a6.153,6.153,0,0,0-5.393-.061c-.637.333-.938.695-.853.887" transform="translate(-112.81 -75.19)" fill="#263238"/>
            <path id="Trazado_913960" data-name="Trazado 913960" d="M325.665,232.918c.3.369,1.579.078,3.093.148,1.514.026,2.779.4,3.095.047.139-.171-.041-.534-.582-.9a4.869,4.869,0,0,0-2.48-.72,4.8,4.8,0,0,0-2.507.562c-.555.33-.752.681-.62.86" transform="translate(-105.565 -75.047)" fill="#263238"/>
            <path id="Trazado_913961" data-name="Trazado 913961" d="M371.993,250.677c.174-.067,7-1.748,6.484,5.12s-7.3,4.933-7.3,4.736.816-9.856.816-9.856" transform="translate(-120.332 -81.192)" fill="#ffc09d"/>
            <path id="Trazado_913962" data-name="Trazado 913962" d="M374.566,259.192c.032-.02.114.093.309.2a1.2,1.2,0,0,0,.893.086,2.97,2.97,0,0,0,1.569-2.554,3.961,3.961,0,0,0-.207-1.737,1.387,1.387,0,0,0-.831-.985.61.61,0,0,0-.731.275c-.106.185-.073.325-.11.335-.021.016-.139-.126-.062-.406a.763.763,0,0,1,.3-.41.906.906,0,0,1,.674-.126,1.688,1.688,0,0,1,1.171,1.158,4.072,4.072,0,0,1,.271,1.945,3.113,3.113,0,0,1-1.967,2.835,1.282,1.282,0,0,1-1.081-.264c-.2-.186-.225-.341-.2-.352" transform="translate(-121.428 -82.296)" fill="#ff9b6c"/>
            <path id="Trazado_913963" data-name="Trazado 913963" d="M331.037,213.689c-1.059-.706,2.575-4.024,5.408-5.033,4.282-1.526,10.677-2.151,14.391-.754,4.47,1.682,8.084,4.279,10.034,8.64a27.087,27.087,0,0,1,1.875,14.035,8.22,8.22,0,0,1-1.318,4.112c-1.085,1.437-2.519,2.072-3.1,4.338a3.818,3.818,0,0,1-.888,2.036c-1.368,1.231-2.8-.153-3.4-1.471-1.283-2.814-1.183-6.037-1.058-9.127a20.152,20.152,0,0,1,.981-6.491c.432-1.116,1.062-2.151,1.431-3.289a4.138,4.138,0,0,0-.2-3.467,4.333,4.333,0,0,0-.51-.611,7.182,7.182,0,0,0-6.987-1.946c-3.978,1.043-10.749,2.533-12.363,1.077a10.609,10.609,0,0,1-2.811-3.374Z" transform="translate(-107.258 -67.147)" fill="#263238"/>
            <path id="Trazado_913964" data-name="Trazado 913964" d="M362.156,234.883c.139-.107.336-.114.468-.221,8.75-7.037,2.932-15,3.018-17.3.12-3.182,3.68-3.109,2.776-6.866-.61-2.532-2.963-4.458-10.024-7.442-2.957-1.25-10.39-2.177-17.045-1.352-5.938.737-10.176,4.557-12.649,7.559a4.97,4.97,0,0,0-1.794,1.127c-1.182,1.816-.783,2.635-.783,2.635s13.453-5.623,23.524,4.084,7.487,17.135,10.33,17.467Z" transform="translate(-105.705 -65.289)" fill="#455a64"/>
            <path id="Trazado_913965" data-name="Trazado 913965" d="M378.017,217.462a19.4,19.4,0,0,1,1.249,2.153c.168.312.289.61.406.866s.211.481.282.667a3.622,3.622,0,0,0,.247.568,3.675,3.675,0,0,0-.174-.595c-.06-.191-.14-.422-.251-.683s-.221-.566-.383-.885a17.593,17.593,0,0,0-1.223-2.194A18.2,18.2,0,0,0,374,212.87a17.664,17.664,0,0,0-2.1-1.38c-.306-.184-.6-.318-.855-.446s-.477-.226-.663-.3a3.593,3.593,0,0,0-.581-.218,3.729,3.729,0,0,0,.549.288c.18.084.4.191.644.33s.535.278.835.468a19.458,19.458,0,0,1,2.056,1.4,21.043,21.043,0,0,1,2.243,2.058" transform="translate(-119.886 -68.25)" fill="#263238"/>
            <path id="Trazado_913966" data-name="Trazado 913966" d="M329.429,212.445a.57.57,0,0,0,.124-.032l.357-.114c.312-.107.777-.246,1.377-.424s1.341-.364,2.213-.531a23.033,23.033,0,0,1,2.983-.408,23.533,23.533,0,0,1,7.764.737,24.207,24.207,0,0,1,8.557,4.187,23.322,23.322,0,0,1,3.585,3.42,24.456,24.456,0,0,1,2.6,3.814,33.854,33.854,0,0,1,2.9,7.269c.6,2.154.941,3.934,1.173,5.163.109.606.195,1.081.255,1.418.028.153.051.275.069.368a.064.064,0,1,0,.02,0c-.012-.095-.028-.217-.049-.372-.044-.327-.114-.808-.218-1.425-.209-1.234-.533-3.021-1.114-5.186a33.354,33.354,0,0,0-2.874-7.321,24.442,24.442,0,0,0-2.615-3.85,23.344,23.344,0,0,0-3.614-3.453,24.172,24.172,0,0,0-8.632-4.206,23.386,23.386,0,0,0-7.821-.7,22.668,22.668,0,0,0-2.995.439c-.873.178-1.612.39-2.213.565s-1.06.341-1.367.461l-.351.132a.643.643,0,0,0-.117.051" transform="translate(-106.798 -68.313)" fill="#263238"/>
            <path id="Trazado_913967" data-name="Trazado 913967" d="M337.829,214.821a4.577,4.577,0,0,1,1.383-3.8,1.349,1.349,0,0,0-.507.376,3.632,3.632,0,0,0-1.023,2.806,1.338,1.338,0,0,0,.146.614" transform="translate(-109.469 -68.411)" fill="#263238"/>
            <path id="Trazado_913968" data-name="Trazado 913968" d="M329.237,216.408a6.569,6.569,0,0,1,.32-3.215,3.446,3.446,0,0,0-.32,3.215" transform="translate(-106.651 -69.114)" fill="#263238"/>
            <path id="Trazado_913969" data-name="Trazado 913969" d="M323.353,206.664a5.892,5.892,0,0,1,6.757-1.028,8.274,8.274,0,0,1,4.187,5.709,3.589,3.589,0,0,1,4.349,1.687l2.892.818a12.08,12.08,0,0,1-1.738,3.321,4.08,4.08,0,0,1-3.243,1.623,2.5,2.5,0,0,1-2.4-2.4c-.91,2.01-3.316,2.918-5.521,2.986a6.326,6.326,0,0,1-4.771-1.577c-1.2-1.235-1.457-3.463-.195-4.637a4.6,4.6,0,0,1-.318-6.5" transform="translate(-104.442 -66.464)" fill="#263238"/>
            <path id="Trazado_913970" data-name="Trazado 913970" d="M337.312,263.2l.272-.17,4.037-.13a1.223,1.223,0,0,1,.641.1,1.01,1.01,0,0,1,.418.647,2.862,2.862,0,1,1-5.367-.443" transform="translate(-109.274 -85.229)" fill="#ff9b6c"/>
            <path id="Trazado_913971" data-name="Trazado 913971" d="M239.667,355.724l4.586,2.1-4.641,9.463-3.66-4.148Z" transform="translate(-76.494 -115.322)" fill="#ffc09d"/>
            <path id="Trazado_913972" data-name="Trazado 913972" d="M227.4,345.2c-.1-.169-4.322-6.879-6.711-9.394s-2.453-5.263-4.15-5.493-2.012,2.161-1.195,4.612,3.018,3.709,2.39,4.59-14.239-1.417-14.239-1.417-1.761-1.8-3.144-.289c0,0-2.194-.522-2.027,1.182.18,1.824,4.164,1.9,4.164,1.9l1.975,3.53,4.593,1.7a6.3,6.3,0,0,0,1.649,3.27,12.7,12.7,0,0,0,2.564,2.1c.189.035,4.275,2.55,6.351,3.053s4.841.943,4.841.943l3.772-7.545a5.316,5.316,0,0,0-.833-2.741" transform="translate(-64.292 -107.079)" fill="#ffc09d"/>
            <path id="Trazado_913973" data-name="Trazado 913973" d="M214.022,348.707a7.714,7.714,0,0,1-.516-3.145c.164-1.441,1.524-7.827,2.142-7.951s1.69-.494,1.977,1.236-.7,5.821-.7,5.918a9.018,9.018,0,0,1,.753,2.774" transform="translate(-69.208 -109.411)" fill="#ffc09d"/>
            <path id="Trazado_913974" data-name="Trazado 913974" d="M217.62,347.447c-.032,0-.062-.322-.2-.885a8.88,8.88,0,0,0-.319-1.006c-.074-.192-.159-.394-.256-.609l-.074-.17a.391.391,0,0,1,0-.25c.024-.124.048-.249.073-.378a36.437,36.437,0,0,0,.551-3.62,6.081,6.081,0,0,0-.087-2.09,1.14,1.14,0,0,0-.551-.774,1.734,1.734,0,0,0-1.045.029c-.072-.032-.161.154-.243.316s-.148.347-.212.528c-.128.361-.239.726-.342,1.086-.207.72-.383,1.425-.545,2.1-.318,1.344-.585,2.567-.755,3.591a6.507,6.507,0,0,0,.153,2.417,8.145,8.145,0,0,1,.2.887,2.755,2.755,0,0,1-.35-.847,6.036,6.036,0,0,1-.279-2.5c.139-1.049.378-2.275.678-3.633.153-.679.323-1.388.527-2.119.1-.366.213-.737.344-1.112.066-.187.137-.375.225-.564a1.931,1.931,0,0,1,.159-.288.783.783,0,0,1,.135-.155.519.519,0,0,1,.149-.073l.072-.015a2.052,2.052,0,0,1,1.281,0,1.5,1.5,0,0,1,.761,1.021,6.279,6.279,0,0,1,.077,2.231,30.968,30.968,0,0,1-.639,3.644c-.029.127-.058.251-.086.373-.013.085-.031.074-.013.109l.064.162c.089.219.168.432.233.632a7.325,7.325,0,0,1,.262,1.048,2.6,2.6,0,0,1,.056.916" transform="translate(-69.149 -109.318)" fill="#ff9b6c"/>
            <path id="Trazado_913975" data-name="Trazado 913975" d="M230.869,353.167a15.8,15.8,0,0,0-2.089-.531,5.76,5.76,0,0,0-2.375.216,6.058,6.058,0,0,0-2.56,1.587l-.325.338.007-.46c.018-1.216.037-2.538.057-3.921v-.02c.011-.135.023-.279.035-.424a6.266,6.266,0,0,0-.212-2.341,1.268,1.268,0,0,0-1.575-.853.865.865,0,0,0-.368.239.9.9,0,0,0-.157.408c-.074.326-.128.657-.182.973-.1.63-.187,1.223-.271,1.773-.151,1.026-.278,1.888-.379,2.573a3.8,3.8,0,0,1-.2.937,5.654,5.654,0,0,1,.046-.955c.05-.613.134-1.5.257-2.591.062-.547.134-1.145.225-1.787.047-.322.095-.652.166-1,.016-.085.043-.178.066-.268a.883.883,0,0,1,.155-.289,1.214,1.214,0,0,1,.516-.352,1.548,1.548,0,0,1,1.229.09,1.756,1.756,0,0,1,.824.965,6.5,6.5,0,0,1,.245,2.5c-.014.153-.026.305-.038.447v-.02c-.029,1.382-.057,2.7-.083,3.92l-.318-.123a6.217,6.217,0,0,1,2.746-1.642,5.756,5.756,0,0,1,2.492-.144,4.854,4.854,0,0,1,.906.224,3.533,3.533,0,0,1,.645.25,2.1,2.1,0,0,1,.508.278" transform="translate(-71.41 -112.278)" fill="#ff9b6c"/>
            <path id="Trazado_913976" data-name="Trazado 913976" d="M209.438,345.266a17.59,17.59,0,0,1-2.708-.939l-.046-.018-.034-.055a11.112,11.112,0,0,0-1.148-1.462,15.08,15.08,0,0,0-1.535-1.523,2.712,2.712,0,0,0-1.41-.639,1.458,1.458,0,0,0-1.192.508v-.2c.624.928,1.139,1.712,1.489,2.269a3.915,3.915,0,0,1,.508.91,3.9,3.9,0,0,1-.675-.793c-.4-.524-.954-1.28-1.6-2.189l-.073-.1.074-.1a1.786,1.786,0,0,1,1.493-.685,3.016,3.016,0,0,1,1.629.709,13.612,13.612,0,0,1,1.573,1.586,9.959,9.959,0,0,1,1.149,1.562l-.08-.073a17.556,17.556,0,0,1,2.589,1.23" transform="translate(-65.166 -110.305)" fill="#ff9b6c"/>
            <path id="Trazado_913977" data-name="Trazado 913977" d="M278.15,339.841l-1.144.175-3.316.654-5.863,20.391-23.233-8.388L237,358.581s36.242,24.145,41.574,19.987,9.532-26.511,9.532-26.511c.06.145-9.959-12.216-9.959-12.216" transform="translate(-76.834 -110.173)" fill="#ffc09d"/>
            <path id="Trazado_913978" data-name="Trazado 913978" d="M286.008,319.531c2.981-9.644,4.648-16.456,7.658-19.3,4.058-3.841,23.216-9.388,23.216-9.388s.532,5.24,9.734,5.609,13.734-8.079,13.734-8.079,9.908,2.507,16.588,4.424c6.581,1.889,10.789,4.062,13.569,8.412,3.594,5.625,9.231,31.582,9.231,31.582l-22.91,7.084L358.21,360.9l.906,27.131-65.359.26c0-4.766,4.257-51.326,4.257-51.326l-16.128-3.814s1.481-5.077,4.122-13.622" transform="translate(-91.385 -93.485)" fill="#ee4f47"/>
            <path id="Trazado_913979" data-name="Trazado 913979" d="M307.36,320.926a1.326,1.326,0,0,0-.049.269c-.025.2-.057.457-.1.777-.082.675-.181,1.654-.289,2.865-.214,2.422-.426,5.775-.545,9.483s-.143,7.067-.139,9.5c.009,1.2.017,2.172.022,2.878.007.322.014.581.019.783a.137.137,0,1,0,.043,0c.005-.2.013-.461.022-.783.011-.706.027-1.682.046-2.878.034-2.43.082-5.786.2-9.492s.306-7.055.482-9.478c.091-1.192.166-2.165.22-2.869.024-.321.043-.58.058-.781a1.294,1.294,0,0,0,.005-.274" transform="translate(-99.281 -104.041)" fill="#263238"/>
            <path id="Trazado_913980" data-name="Trazado 913980" d="M351.138,391.424l28.629-15.461-.489-14.022,18.072-5.493s1.659,21.028-.992,30.154-43.3,13.846-43.3,13.846Z" transform="translate(-113.836 -115.556)" fill="#ffc09d"/>
            <path id="Trazado_913981" data-name="Trazado 913981" d="M335.638,401.236l-2.779-1.66a2.528,2.528,0,0,0-1.5,0l-6.752,2.107a4.427,4.427,0,0,0-2.618,2.786l-1.3,4.9s-.86,3.348-.452,3.989a1.293,1.293,0,0,0,1.671.442s.608,1.266,1.13,1.412a2.166,2.166,0,0,0,1.683-.355,1.458,1.458,0,0,0,1.567.437,1.7,1.7,0,0,0,.335-.164c.741-.47.668-2.138.668-2.138l3.274-1.6s5.884,1.931,8.237,3.616,6.468-1.252,6.468-1.252L344.7,405.1Z" transform="translate(-103.783 -129.502)" fill="#ffc09d"/>
            <path id="Trazado_913982" data-name="Trazado 913982" d="M399.54,390.872a13.8,13.8,0,0,0-6.04-5.551,3.423,3.423,0,0,1,1.177.4,9.59,9.59,0,0,1,4.37,4.014,3.451,3.451,0,0,1,.493,1.14" transform="translate(-127.569 -124.914)" fill="#ff9b6c"/>
            <path id="Trazado_913983" data-name="Trazado 913983" d="M414.53,347.316a2.308,2.308,0,0,1-.435.172l-1.267.43-4.681,1.518-15.48,4.881-1.395.435-.213.066-.014-.224c-.194-2.987-.572-5.811-.856-8.373s-.537-4.863-.693-6.795-.237-3.493-.271-4.57c-.016-.539-.017-.956-.018-1.239a2.12,2.12,0,0,1,.018-.431,2,2,0,0,1,.051.429c.021.317.048.726.081,1.235.075,1.073.189,2.629.379,4.554s.455,4.22.768,6.779.693,5.381.891,8.39l-.227-.157,1.394-.435,15.511-4.782,4.713-1.411,1.287-.367a2.366,2.366,0,0,1,.456-.1" transform="translate(-126.177 -108.015)" fill="#263238"/>
            <path id="Trazado_913984" data-name="Trazado 913984" d="M338.11,266.852a4.363,4.363,0,0,0,1.852.22,3,3,0,0,0,1.749-.876,3.123,3.123,0,0,0,.866-2.2,1.421,1.421,0,0,0-.362-1.073c-.258-.2-.693-.1-1.083-.072l-2.084.185a10.525,10.525,0,0,1-1.93.082,10.473,10.473,0,0,1,1.9-.33l2.076-.26c.2-.021.391-.053.614-.063a1.1,1.1,0,0,1,.708.18,1.7,1.7,0,0,1,.509,1.343,3.373,3.373,0,0,1-.986,2.435,3.149,3.149,0,0,1-1.951.9,3.087,3.087,0,0,1-1.428-.2c-.316-.13-.464-.251-.453-.268" transform="translate(-109.29 -85.088)" fill="#263238"/>
            <path id="Trazado_913985" data-name="Trazado 913985" d="M333.408,411.8c0,.06-.633.091-1.6.383a7.947,7.947,0,0,0-5.35,5.281c-.306.961-.344,1.6-.4,1.592a3.928,3.928,0,0,1,.165-1.661,7.516,7.516,0,0,1,5.524-5.452,3.934,3.934,0,0,1,1.663-.143" transform="translate(-105.694 -133.489)" fill="#ff9b6c"/>
            <path id="Trazado_913986" data-name="Trazado 913986" d="M330.166,406.01a7.192,7.192,0,0,0-1.9.454,6,6,0,0,0-1.742,1.173,8.242,8.242,0,0,0-1.529,2.082,29.313,29.313,0,0,0-1.69,4.468,8.026,8.026,0,0,1-.752,1.854,18.492,18.492,0,0,1,.514-1.927,22.788,22.788,0,0,1,1.618-4.56A8.034,8.034,0,0,1,326.3,407.4a5.82,5.82,0,0,1,1.871-1.168,4.354,4.354,0,0,1,1.456-.287,1.246,1.246,0,0,1,.54.064" transform="translate(-104.566 -131.603)" fill="#ff9b6c"/>
            <path id="Trazado_913987" data-name="Trazado 913987" d="M239.232,410.74l-16.97-44.566a2.563,2.563,0,0,1,2.4-3.474H279.15a2.564,2.564,0,0,1,2.321,1.476l16.071,44.286,34.217.331c1.415,0,2.824,0,2.824,1.418s-1.147,2.18-2.563,2.18H241.626a2.562,2.562,0,0,1-2.394-1.65" transform="translate(-72 -117.583)" fill="#455a64"/>
            <path id="Trazado_913988" data-name="Trazado 913988" d="M278.156,397.748a3.575,3.575,0,1,1-3.576-3.575,3.576,3.576,0,0,1,3.576,3.575" transform="translate(-87.857 -127.786)" fill="#fff"/>
            <path id="Trazado_913989" data-name="Trazado 913989" d="M352.264,436.168c0,.1-26.53.176-59.249.176s-59.254-.078-59.254-.176,26.524-.176,59.254-.176,59.249.078,59.249.176" transform="translate(-75.783 -141.344)" fill="#263238"/>
          </g>
        </g>
        <g id="Grupo_1103685" data-name="Grupo 1103685" transform="translate(0 -0.001)">
          <g id="Grupo_1103684" data-name="Grupo 1103684" clip-path="url(#clip-path-2)">
            <path id="Trazado_913990" data-name="Trazado 913990" d="M228.33,62.156a53.681,53.681,0,1,0,59.209-47.513A53.681,53.681,0,0,0,228.33,62.156" transform="translate(-73.917 -4.641)" fill="#f5f5f5"/>
            <path id="Trazado_913991" data-name="Trazado 913991" d="M277.263,14.552a3.009,3.009,0,0,0-1.51,2.813,2.517,2.517,0,0,0-2.894.361,3.049,3.049,0,0,0-.84,2.863,3.887,3.887,0,0,0,1.825,2.43,1.647,1.647,0,0,0-1.324,1.243,2.893,2.893,0,0,0,.229,1.881,4.864,4.864,0,0,0,5.27,2.722l3.886-13.549Z" transform="translate(-88.162 -4.717)" fill="#263238"/>
            <path id="Trazado_913992" data-name="Trazado 913992" d="M289.2,66.294l.105-4.721s-9.669-.958-10.32-10.537c-.314-4.627-.186-14.2.031-22.872a17.887,17.887,0,0,1,16.892-17.412l.925-.051c10,.029,15.569,8.542,15.263,18.542l-1.31,40.172-17.141,6.378Z" transform="translate(-90.383 -3.468)" fill="#ae7461"/>
            <path id="Trazado_913993" data-name="Trazado 913993" d="M294.345,84.37A26.343,26.343,0,0,0,306.7,81.02s-.359,6.776-12.155,6.442Z" transform="translate(-95.424 -26.265)" fill="#6f4439"/>
            <path id="Trazado_913994" data-name="Trazado 913994" d="M284.819,50.65a1.371,1.371,0,0,0,1.4,1.308,1.313,1.313,0,0,0,1.343-1.313,1.372,1.372,0,0,0-1.395-1.308,1.312,1.312,0,0,0-1.344,1.313" transform="translate(-92.335 -15.994)" fill="#263238"/>
            <path id="Trazado_913995" data-name="Trazado 913995" d="M282.543,42.547c.18.169,1.174-.656,2.647-.734,1.471-.1,2.594.6,2.743.41.074-.084-.117-.4-.606-.714a3.76,3.76,0,0,0-2.209-.549,3.612,3.612,0,0,0-2.094.807c-.434.372-.569.7-.481.779" transform="translate(-91.589 -13.276)" fill="#263238"/>
            <path id="Trazado_913996" data-name="Trazado 913996" d="M303.965,49.915a1.37,1.37,0,0,0,1.4,1.308A1.311,1.311,0,0,0,306.7,49.91a1.372,1.372,0,0,0-1.4-1.308,1.311,1.311,0,0,0-1.344,1.313" transform="translate(-98.542 -15.756)" fill="#263238"/>
            <path id="Trazado_913997" data-name="Trazado 913997" d="M303.989,41.765c.18.169.874-.759,2.346-.837,1.47-.1,2.9.7,3.045.514.074-.084-.115-.4-.607-.714a3.759,3.759,0,0,0-2.208-.549,3.616,3.616,0,0,0-2.095.807c-.433.372-.568.7-.481.779" transform="translate(-98.542 -13.023)" fill="#263238"/>
            <path id="Trazado_913998" data-name="Trazado 913998" d="M295.158,53.227a9.728,9.728,0,0,0-2.416-.3c-.378-.018-.739-.072-.816-.326a1.925,1.925,0,0,1,.189-1.129q.455-1.394.954-2.926c1.318-4.164,2.25-7.579,2.082-7.63s-1.373,3.281-2.691,7.445q-.474,1.539-.906,2.94a2.184,2.184,0,0,0-.113,1.487.944.944,0,0,0,.649.516,2.553,2.553,0,0,0,.644.053,9.621,9.621,0,0,0,2.425-.131" transform="translate(-94.451 -13.264)" fill="#263238"/>
            <path id="Trazado_913999" data-name="Trazado 913999" d="M302.591,35.486c.2.376,1.632-.028,3.374-.076,1.742-.083,3.2.214,3.371-.176.076-.186-.22-.523-.835-.824a5.87,5.87,0,0,0-5.139.192c-.591.346-.861.7-.771.884" transform="translate(-98.092 -10.992)" fill="#263238"/>
            <path id="Trazado_914000" data-name="Trazado 914000" d="M282.107,37.141c.326.3,1.406-.18,2.754-.356,1.341-.219,2.518-.072,2.74-.451.095-.183-.124-.5-.661-.751a4.4,4.4,0,0,0-4.427.651c-.436.4-.551.76-.406.907" transform="translate(-91.437 -11.428)" fill="#263238"/>
            <path id="Trazado_914001" data-name="Trazado 914001" d="M326.556,50.791a2.6,2.6,0,0,1,2.67-2.663c1.8.07,3.843.975,3.93,4.675.154,6.565-6.469,5.366-6.484,5.178-.011-.128-.075-4.443-.116-7.191" transform="translate(-105.866 -15.601)" fill="#ae7461"/>
            <path id="Trazado_914002" data-name="Trazado 914002" d="M328.752,56.5c.028-.022.116.078.312.162a1.143,1.143,0,0,0,.856,0,2.831,2.831,0,0,0,1.25-2.569,3.776,3.776,0,0,0-.359-1.63,1.319,1.319,0,0,0-.881-.857.583.583,0,0,0-.668.329c-.084.186-.039.316-.074.328-.018.017-.143-.107-.1-.379a.728.728,0,0,1,.249-.417.86.86,0,0,1,.629-.182,1.609,1.609,0,0,1,1.219.99,3.88,3.88,0,0,1,.439,1.82,2.969,2.969,0,0,1-1.6,2.874,1.223,1.223,0,0,1-1.05-.149c-.207-.157-.245-.3-.223-.316" transform="translate(-106.577 -16.622)" fill="#6f4439"/>
            <path id="Trazado_914003" data-name="Trazado 914003" d="M293.22,27.436c-.016,0-.03.007-.046.008-.039.005-.079.007-.118.014Z" transform="translate(-95.006 -8.894)" fill="#ff725e"/>
            <path id="Trazado_914004" data-name="Trazado 914004" d="M316.354,23.09a2.239,2.239,0,0,0-1.078-1.353,3.012,3.012,0,0,0,.62-1.223,3.179,3.179,0,0,0-1.427-3.359,4.383,4.383,0,0,0-2.48-7.332,5.656,5.656,0,0,0-8.527-4.832,6.291,6.291,0,0,0-8.713-2.38c-2.017-1.277-4.175-2.6-6.563-2.611s-4.948,1.878-4.71,4.254a10.406,10.406,0,0,0-5.233.039,5.486,5.486,0,0,0-3.7,3.48,3.768,3.768,0,0,0,1.89,4.453,4.429,4.429,0,0,0,.218,5.829,4.014,4.014,0,0,0,1.567.935,9.54,9.54,0,0,0,.051,1.258s.159-.443.441-1.11a4.383,4.383,0,0,0,3.772-.9,4.667,4.667,0,0,0,7.915-3.032,3.968,3.968,0,0,0,6.353-1.788,5.508,5.508,0,0,0,5.911,1.187,4.633,4.633,0,0,0,1.813,3.208,27.142,27.142,0,0,0,.042,3.887c1.892,17.19,5.312,21.891,5.757,13.72.048-.871,2.342-1.7,2.613-5.223a3.848,3.848,0,0,0,1.045-.389,2.913,2.913,0,0,0,1.435-1.81,2.192,2.192,0,0,0-.66-2.159,2.332,2.332,0,0,0,1.651-2.745" transform="translate(-88.955 0.001)" fill="#263238"/>
            <path id="Trazado_914005" data-name="Trazado 914005" d="M316.75,22.218c-.024.007-.005.205.138.539a3.206,3.206,0,0,0,.955,1.213,3.27,3.27,0,0,0,2.234.707,3.523,3.523,0,0,0,2.586-1.387h-.38a4.051,4.051,0,0,0,1.322,1.162,4.192,4.192,0,0,0,3.51.262,3.979,3.979,0,0,0,2.088-1.982,3.906,3.906,0,0,0,.4-1.894,1.378,1.378,0,0,0-.157-.689,5.131,5.131,0,0,1-.539,2.428,3.748,3.748,0,0,1-1.946,1.727,3.833,3.833,0,0,1-3.123-.27,3.664,3.664,0,0,1-1.17-1.017l-.192-.259-.187.257a3.168,3.168,0,0,1-2.239,1.254,3.042,3.042,0,0,1-2.02-.543,4.706,4.706,0,0,1-1.275-1.506" transform="translate(-102.684 -6.531)" fill="#455a64"/>
            <path id="Trazado_914006" data-name="Trazado 914006" d="M296.518,65.01a16.492,16.492,0,0,0,4.7-.768,9.112,9.112,0,0,0-4.7.768" transform="translate(-96.128 -20.795)" fill="#263238"/>
            <path id="Trazado_914007" data-name="Trazado 914007" d="M256.166,98.8s-2.086.128-6.385,3.346-14,16.409-14,16.409c4.322,9.079,7.482,14.167,15.313,19.551l9.077-9.283s5.254-25.294,4.631-25.208-8.633-4.815-8.633-4.815" transform="translate(-76.437 -32.029)" fill="#ee4f47"/>
            <path id="Trazado_914008" data-name="Trazado 914008" d="M327.139,91.465c-6.088-2.7-21.906-4.4-21.906-4.4s-3.287,8.475-12.84,8.924c-5.879.276-10.162-5.874-10.162-5.874s-15.719,3.849-19.006,5.194c-2.551,18.131-3.138,22.447-.814,40.877A53.185,53.185,0,0,0,287.037,145c17.037,1.467,35.114-5.081,46.366-19.207Z" transform="translate(-84.599 -28.226)" fill="#ee4f47"/>
            <path id="Trazado_914009" data-name="Trazado 914009" d="M258.427,115.861a7.47,7.47,0,0,1,.13,1.168c.062.811.145,1.886.246,3.188.207,2.692.52,6.407.955,10.5s.914,7.794,1.279,10.469l.431,3.168a7.544,7.544,0,0,1,.119,1.168,7.365,7.365,0,0,1-.254-1.147c-.143-.742-.328-1.819-.542-3.153-.428-2.668-.945-6.367-1.383-10.468s-.71-7.824-.853-10.522c-.072-1.349-.118-2.442-.135-3.2a7.442,7.442,0,0,1,.007-1.175" transform="translate(-83.773 -37.56)" fill="#263238"/>
            <path id="Trazado_914010" data-name="Trazado 914010" d="M294.127,95.794a73.518,73.518,0,0,1,.431-8.73c.551-3.425,6.432-11.695,6.432-11.695s-.135-3.124-3.509-.985c-3.995,2.534-5.631,6.03-6.807,5.545s-8.93-6.313-10.73-5.82a1.951,1.951,0,0,0-1.158,3.09c.655.774,1.542,1.9,1.542,1.9s-3.924-.685-2.529,3.451c0,0-4.836-2.092-3.527,3.665a2.411,2.411,0,0,0-.775,3.151,50.213,50.213,0,0,0,4.231,5.815c1.214,1.471,3.423,6.844,3.423,6.844l2.219,9.048,14.747-5.424Z" transform="translate(-88.559 -23.871)" fill="#ae7461"/>
            <path id="Trazado_914011" data-name="Trazado 914011" d="M283.652,81.718a22.151,22.151,0,0,0,2.14,1.467,22.252,22.252,0,0,0,2.177,1.412,16.582,16.582,0,0,0-4.316-2.88" transform="translate(-91.957 -26.49)" fill="#6f4439"/>
            <path id="Trazado_914012" data-name="Trazado 914012" d="M279.72,86.44a6.441,6.441,0,0,0,2.853,2.719c.037-.059-.695-.558-1.477-1.307s-1.319-1.452-1.376-1.412" transform="translate(-90.681 -28.022)" fill="#6f4439"/>
            <path id="Trazado_914013" data-name="Trazado 914013" d="M274.489,91.915a10.473,10.473,0,0,0,2.194,2.241,10.431,10.431,0,0,0-2.194-2.241" transform="translate(-88.986 -29.796)" fill="#6f4439"/>
            <path id="Trazado_914014" data-name="Trazado 914014" d="M326.8,120.074l-15.841,15.915-13.241-28.971-12.742,5.825s9.572,40.729,14.318,46.585,7.435,6.021,13.829,3.074,26.11-26.671,26.11-26.671Z" transform="translate(-92.387 -34.694)" fill="#ae7461"/>
            <path id="Trazado_914015" data-name="Trazado 914015" d="M351.162,138.569s7.586-14.335,8.185-27.27A19.611,19.611,0,0,0,353.4,96.037a10.589,10.589,0,0,0-4.978-2.889,36.611,36.611,0,0,1-4.7,9.373c-3.132,4.32-14.974,22.8-14.974,22.8Z" transform="translate(-106.576 -30.197)" fill="#ee4f47"/>
            <path id="Trazado_914016" data-name="Trazado 914016" d="M281.085,101.969a2.023,2.023,0,0,1-.149-.3l-.4-.887c-.355-.777-.869-1.923-1.6-3.35a14.676,14.676,0,0,0-1.364-2.259q-.935-1.121-1.965-2.467c-.68-.9-1.4-1.865-2.072-2.955a2.532,2.532,0,0,1,.59-3.712l-.059.151a9.846,9.846,0,0,1-.223-1.671,5.392,5.392,0,0,1,.06-.884,2.591,2.591,0,0,1,.352-.86,1.955,1.955,0,0,1,1.675-.806,5.03,5.03,0,0,1,1.867.376l-.216.2-.185-.658c-.055-.223-.074-.458-.113-.689a2.518,2.518,0,0,1,.281-1.429,1.952,1.952,0,0,1,1.239-.834,3.978,3.978,0,0,1,1.489-.059l-.157.277-.887-1.088-.449-.551a2.646,2.646,0,0,1-.423-.615,2.239,2.239,0,0,1-.154-1.528,2.01,2.01,0,0,1,.972-1.224,2.7,2.7,0,0,1,.749-.276,2.011,2.011,0,0,1,.809.08,8.252,8.252,0,0,1,1.431.562c.918.446,1.8.963,2.685,1.5,1.625,1,3.175,2.054,4.708,3.051a7.607,7.607,0,0,0,1.14.658c.313.092.706-.2,1.017-.487.643-.594,1.225-1.273,1.839-1.9a19.538,19.538,0,0,1,3.955-3.255,4.563,4.563,0,0,1,1.153-.51,1.982,1.982,0,0,1,1.274.014,1.785,1.785,0,0,1,.922.855,3.225,3.225,0,0,1,.351,1.158l.007.055-.037.05a72.413,72.413,0,0,0-4.962,7.462,16.223,16.223,0,0,0-1.521,3.388,17.51,17.51,0,0,0-.362,3.14c-.1,1.92-.116,3.434-.16,4.467-.021.516-.041.912-.069,1.179a2.6,2.6,0,0,1-.06.4,3.865,3.865,0,0,1,.011-.4c.006-.288.013-.679.023-1.178.013-1.032,0-2.546.074-4.473A17.378,17.378,0,0,1,294.5,86.5a16.272,16.272,0,0,1,1.511-3.455,70.826,70.826,0,0,1,4.937-7.526l-.03.1a2.056,2.056,0,0,0-1.081-1.742,2.676,2.676,0,0,0-2.149.48,19.324,19.324,0,0,0-3.875,3.21c-.61.622-1.18,1.295-1.854,1.919a3.641,3.641,0,0,1-.565.429,1,1,0,0,1-.783.132,7.473,7.473,0,0,1-1.228-.7c-1.542-1-3.086-2.054-4.7-3.045-.875-.535-1.754-1.048-2.653-1.485a7.969,7.969,0,0,0-1.368-.539,1.705,1.705,0,0,0-.664-.074,2.417,2.417,0,0,0-.635.235,1.658,1.658,0,0,0-.808,1.01,1.9,1.9,0,0,0,.13,1.29,2.414,2.414,0,0,0,.386.556l.444.547.875,1.079.271.335-.428-.057a2.406,2.406,0,0,0-2.388.735,3.187,3.187,0,0,0,.041,2.5l.107.329-.323-.13a4.74,4.74,0,0,0-1.734-.358,1.643,1.643,0,0,0-1.428.667,2.294,2.294,0,0,0-.307.744,5.142,5.142,0,0,0-.059.82,9.642,9.642,0,0,0,.206,1.611l.017.095-.076.057a2.526,2.526,0,0,0-1.019,1.587,2.555,2.555,0,0,0,.491,1.751c.653,1.077,1.363,2.046,2.033,2.949s1.322,1.728,1.933,2.48a14.442,14.442,0,0,1,1.356,2.313c.71,1.444,1.2,2.6,1.53,3.39l.364.9a1.907,1.907,0,0,1,.108.316" transform="translate(-88.494 -23.819)" fill="#6f4439"/>
            <path id="Trazado_914017" data-name="Trazado 914017" d="M327.853,158.415c-.1.041-1.048-2.057-2.431-4.531s-2.659-4.392-2.573-4.452a5.851,5.851,0,0,1,.947,1.182,36.748,36.748,0,0,1,3.551,6.373,5.85,5.85,0,0,1,.507,1.428" transform="translate(-104.663 -48.444)" fill="#6f4439"/>
            <path id="Trazado_914018" data-name="Trazado 914018" d="M339.3,117.2a1.633,1.633,0,0,1-.177.333l-.562.922-2.136,3.391-7.306,11.374-.055-.244,2.671,1.627c5.2,3.2,9.906,6.1,13.359,8.112l4.1,2.364,1.119.637a2.2,2.2,0,0,1,.38.243,2.126,2.126,0,0,1-.413-.18l-1.152-.58c-.993-.516-2.42-1.283-4.162-2.269-3.489-1.963-8.218-4.831-13.419-8.028l-2.669-1.629-.154-.094.1-.15,7.4-11.31,2.225-3.332.613-.89a1.633,1.633,0,0,1,.231-.3" transform="translate(-106.572 -37.994)" fill="#263238"/>
            <path id="Trazado_914019" data-name="Trazado 914019" d="M340.751,109.6a11.767,11.767,0,0,1-.791,1.581,37.755,37.755,0,0,0-3.072,7.9,11.657,11.657,0,0,1-.485,1.7,7.1,7.1,0,0,1,.243-1.758,26.708,26.708,0,0,1,3.1-7.958,7.12,7.12,0,0,1,1.008-1.46" transform="translate(-109.055 -35.532)" fill="#263238"/>
          </g>
        </g>
        <g id="Grupo_1103693" data-name="Grupo 1103693" transform="translate(0 -0.001)">
          <g id="Grupo_1103692" data-name="Grupo 1103692" clip-path="url(#clip-path-2)">
            <path id="Trazado_914020" data-name="Trazado 914020" d="M114.3,313.383c.209,31.894-25.222,57.6-57.013,57.012C25.8,369.809.273,344.87.273,313.383a57.012,57.012,0,1,1,114.025,0" transform="translate(-0.089 -83.112)" fill="#f5f5f5"/>
            <path id="Trazado_914021" data-name="Trazado 914021" d="M21.572,315a6.347,6.347,0,0,1,.6-12.1,6.973,6.973,0,0,1,3.109-12.657,6.147,6.147,0,0,1-2.467-6.294,9.336,9.336,0,0,1,4.04-5.72,13.119,13.119,0,0,1,17.422,3.053l7.632,52.17c-1.883,2.522-6.265,6.086-9.4,5.844a9.559,9.559,0,0,1-7.567-4.96,18.555,18.555,0,0,1-5.834-.31,6.274,6.274,0,0,1-4.366-3.582c-.678-1.835.13-4.238,1.975-4.886-2.306-.95-4.739-2-6.159-4.051s-1.226-5.412,1.015-6.505" transform="translate(-5.647 -89.531)" fill="#263238"/>
            <path id="Trazado_914022" data-name="Trazado 914022" d="M39.3,296.835a6.426,6.426,0,0,1-.63-8.214c-1.377-1.289-1.289-3.6-.321-5.22a12.569,12.569,0,0,1,4.18-3.736,8.649,8.649,0,0,1,9.055-7.714c1.735-3.579,6.377-4.782,10.317-4.236a10.191,10.191,0,0,0,2.9.2,16.556,16.556,0,0,0,2.05-.6c3.768-1.081,7.981,1.064,10,4.421a7.188,7.188,0,0,0,1.061,1.545,9.742,9.742,0,0,0,2.122,1.239,6.2,6.2,0,0,1,3.018,4.193c.282,1.483.039,3.138.867,4.4.415.633,1.065,1.1,1.414,1.77,1.012,1.946-.954,4.377-.22,6.444.149.422.4.8.588,1.206a3.826,3.826,0,0,1,.158,2.682,5.485,5.485,0,0,0-.554,2.026,6.2,6.2,0,0,0,.539,1.507c.447,1.233-1.577,6.537-2.573,7.39L50.5,311.256a6.2,6.2,0,0,1-5.521-4.584,2.269,2.269,0,0,0-.483-1.162,2.65,2.65,0,0,0-.981-.451c-2.28-.824-2.961-3.689-3.09-6.109a2.926,2.926,0,0,0-.166-1,3.7,3.7,0,0,0-.955-1.116" transform="translate(-12.15 -86.57)" fill="#263238"/>
            <path id="Trazado_914023" data-name="Trazado 914023" d="M41.066,287.662A25.675,25.675,0,0,1,58.422,273.8c4.4-1.023,6.425-.5,9.79-.326a14.257,14.257,0,0,1,9.078,3.545c2.942,2.713,5.605,5.886,6.869,9.684a34.327,34.327,0,0,1,1.768,11.259,45.213,45.213,0,0,1-3.136,14.428l-6.6,2.283c-5.59,1.4-11.259,2.818-17.022,2.715s-11.729-1.907-15.7-6.082c-5.52-5.8-6.054-16.517-2.4-23.643" transform="translate(-12.559 -88.563)" fill="#263238"/>
            <path id="Trazado_914024" data-name="Trazado 914024" d="M54.209,287.337l12.429-8.33,3.64-.352c8-1.692,15.4,5.934,16.85,12.394,1.606,7.177,3.284,16,3.283,21.547,0,11.15-8.906,14-8.906,14l1.191,6.43c-.85,6.036-12.521,8.947-18.906,3.639L51.4,291.761a3.874,3.874,0,0,1,2.807-4.423" transform="translate(-16.644 -90.259)" fill="#ae7461"/>
            <path id="Trazado_914025" data-name="Trazado 914025" d="M84.7,329.193a2.318,2.318,0,0,1,.483-1.569,2.371,2.371,0,0,1,2.778-.766,3.178,3.178,0,0,1,1.807,2.661A2.887,2.887,0,0,1,88,331.126a3.61,3.61,0,0,1-.376.094,2.593,2.593,0,0,1-1.854-.309,2.31,2.31,0,0,1-1.069-1.719" transform="translate(-27.458 -105.907)" fill="#6f4439"/>
            <path id="Trazado_914026" data-name="Trazado 914026" d="M101.257,309.759a1.412,1.412,0,0,1-1.122,1.621A1.351,1.351,0,0,1,98.5,310.35a1.413,1.413,0,0,1,1.12-1.621,1.352,1.352,0,0,1,1.639,1.03" transform="translate(-31.924 -100.076)" fill="#263238"/>
            <path id="Trazado_914027" data-name="Trazado 914027" d="M99.185,302.684c-.144.21-1.325-.4-2.826-.163-1.5.22-2.482,1.167-2.674,1.009-.093-.069.032-.425.455-.851a3.88,3.88,0,0,1,2.1-1.033,3.725,3.725,0,0,1,2.285.357c.518.28.726.585.654.68" transform="translate(-30.363 -97.776)" fill="#263238"/>
            <path id="Trazado_914028" data-name="Trazado 914028" d="M90.152,317.509a10.06,10.06,0,0,1,2.367-.826c.377-.1.728-.234.751-.505a1.968,1.968,0,0,0-.436-1.1l-1.6-2.739c-2.232-3.906-3.914-7.143-3.756-7.231s2.1,3.005,4.329,6.911q.812,1.448,1.552,2.764a2.244,2.244,0,0,1,.437,1.473.975.975,0,0,1-.541.661,2.643,2.643,0,0,1-.637.193,9.887,9.887,0,0,1-2.47.4" transform="translate(-28.358 -98.913)" fill="#263238"/>
            <path id="Trazado_914029" data-name="Trazado 914029" d="M88.715,348.924a28.015,28.015,0,0,1-15.183-1.576s4.979,7.23,15.7,4.487Z" transform="translate(-23.838 -112.606)" fill="#6f4439"/>
            <path id="Trazado_914030" data-name="Trazado 914030" d="M85.075,326.028c.241-.053.5,1.576,2.081,2.511s3.283.481,3.332.707c.039.1-.337.378-1.066.514a4.1,4.1,0,0,1-2.767-.5,3.577,3.577,0,0,1-1.641-2.122c-.17-.671-.052-1.1.061-1.112" transform="translate(-27.533 -105.694)" fill="#263238"/>
            <path id="Trazado_914031" data-name="Trazado 914031" d="M96.791,295.22c-.194.408-1.383.345-2.708.669-1.335.282-2.382.854-2.729.571-.157-.14-.067-.52.34-.963a4.321,4.321,0,0,1,4.381-1c.555.223.8.527.716.722" transform="translate(-29.593 -95.398)" fill="#263238"/>
            <path id="Trazado_914032" data-name="Trazado 914032" d="M78.421,313.852a1.412,1.412,0,0,0,1.612,1.135,1.351,1.351,0,0,0,1.182-1.531,1.412,1.412,0,0,0-1.61-1.135,1.351,1.351,0,0,0-1.183,1.531" transform="translate(-25.418 -101.246)" fill="#263238"/>
            <path id="Trazado_914033" data-name="Trazado 914033" d="M71.929,307.761c.207.147,1.1-.837,2.6-1.127,1.486-.311,2.732.241,2.857.026.064-.1-.176-.388-.72-.641a3.882,3.882,0,0,0-2.332-.244,3.73,3.73,0,0,0-2.022,1.122c-.389.443-.48.8-.379.864" transform="translate(-23.306 -99.103)" fill="#263238"/>
            <path id="Trazado_914034" data-name="Trazado 914034" d="M71.717,300.373c.36.28,1.441-.3,2.821-.587,1.371-.333,2.6-.276,2.8-.684.084-.2-.166-.5-.742-.718a4.344,4.344,0,0,0-2.407-.1,4.287,4.287,0,0,0-2.121,1.125c-.421.444-.513.824-.35.964" transform="translate(-23.225 -96.661)" fill="#263238"/>
            <path id="Trazado_914035" data-name="Trazado 914035" d="M89.168,290.894a4.4,4.4,0,0,1-2.934-3.69c-.962.437-2.158-.717-2.862-1.506s-1.481-1.129-1.579-2.181a1.184,1.184,0,0,0-.158-.6,1.279,1.279,0,0,0-.883-.366,5.067,5.067,0,0,1-3.782-3.036,10.7,10.7,0,0,1-5.018,1.549,4.095,4.095,0,0,1-6.907.639,3.667,3.667,0,0,1-2.19,2.127,10.861,10.861,0,0,1-3.084.594,4.336,4.336,0,0,1-2.163,5.252c-.255.118-.552.241-.641.508s.089.562.23.819a3.414,3.414,0,0,1-1.677,4.615,2.545,2.545,0,0,1,.312,3.982c-.249.2-.578.449-.493.758a.723.723,0,0,0,.208.3,4.958,4.958,0,0,1,1.52,2.314,1.828,1.828,0,0,1-1.21,2.207,2.42,2.42,0,0,1,1.176,1.51c.1.649-.468,1.4-1.107,1.251a43.2,43.2,0,0,1-4.3-.489c-2.513-2.588-.281-6.131-.559-9.728s-2.063-7.508-.7-10.849c.57-1.4,3.808-2.484,4.726-3.687a22.814,22.814,0,0,1,3.7-3.6,20.837,20.837,0,0,1,5.618-3.686c3.912-1.506,8.313-.612,12.322.615a17.8,17.8,0,0,1,4.4,1.843,16.106,16.106,0,0,1,4.041,4.009,20.038,20.038,0,0,1,3.76,7.3" transform="translate(-16.164 -89.189)" fill="#263238"/>
            <path id="Trazado_914036" data-name="Trazado 914036" d="M85.3,284.842a2.9,2.9,0,0,0-.514-.748c-.193-.228-.457-.487-.72-.829a3.509,3.509,0,0,1-.612-1.341,11.062,11.062,0,0,1-.223-1.857,8.3,8.3,0,0,0-.365-2.216,6.312,6.312,0,0,0-1.31-2.223,6.176,6.176,0,0,0-1.068-.933,9.223,9.223,0,0,0-1.3-.717,4.686,4.686,0,0,1-1.273-.825,6.1,6.1,0,0,1-.9-1.312,10.146,10.146,0,0,0-5.429-4.477,8.963,8.963,0,0,0-1.9-.429,8.13,8.13,0,0,0-2,.049,9.275,9.275,0,0,0-1,.22c-.328.1-.648.214-.971.319a4.874,4.874,0,0,1-2,.278c-.689-.04-1.379-.191-2.1-.268a13.3,13.3,0,0,0-4.373.2,11.492,11.492,0,0,0-2.141.708,7.454,7.454,0,0,0-3.427,3.009l-.226.408.113-.064a8.773,8.773,0,0,0-9.174,7.82l.049-.083A24.048,24.048,0,0,0,40,281.277a7.981,7.981,0,0,0-1.878,2.213,5.186,5.186,0,0,0-.617,2.72,3.568,3.568,0,0,0,1.066,2.433l-.011-.126a6.258,6.258,0,0,0-1.193,4.083,6.417,6.417,0,0,0,1.293,3.614,6.168,6.168,0,0,0,.6.672,8.111,8.111,0,0,1,.608.6,1.619,1.619,0,0,1,.368.7,4.653,4.653,0,0,1,.087.781,12.407,12.407,0,0,0,.472,2.832,6,6,0,0,0,1.037,2.061,3.7,3.7,0,0,0,1.333,1.054c.422.2.778.253.987.366a1.762,1.762,0,0,1,.3.189.876.876,0,0,0-.291-.214c-.209-.123-.566-.185-.975-.391A3.7,3.7,0,0,1,41.9,303.8a5.961,5.961,0,0,1-1-2.04,12.365,12.365,0,0,1-.445-2.808,4.743,4.743,0,0,0-.084-.8,1.756,1.756,0,0,0-.393-.758,8.21,8.21,0,0,0-.616-.612,6.041,6.041,0,0,1-.58-.658,6.267,6.267,0,0,1-1.243-3.529,6.09,6.09,0,0,1,1.171-3.961l.052-.068-.063-.058a3.381,3.381,0,0,1-1-2.307,4.986,4.986,0,0,1,.6-2.611,7.794,7.794,0,0,1,1.835-2.15,23.983,23.983,0,0,1,2.416-1.728l.045-.03,0-.054a8.558,8.558,0,0,1,8.937-7.608l.074.007.039-.07.22-.393a7.232,7.232,0,0,1,3.324-2.916,11.3,11.3,0,0,1,2.1-.694,13.058,13.058,0,0,1,4.3-.2c.7.074,1.4.224,2.109.265a5.183,5.183,0,0,0,1.064-.037,6.238,6.238,0,0,0,1.017-.255c.328-.107.646-.223.966-.32a9.213,9.213,0,0,1,.969-.215,7.932,7.932,0,0,1,1.946-.052,8.81,8.81,0,0,1,1.853.414,9.977,9.977,0,0,1,5.342,4.377,6.268,6.268,0,0,0,.937,1.343,4.836,4.836,0,0,0,1.321.85,9.062,9.062,0,0,1,1.289.7,6.063,6.063,0,0,1,1.047.9,6.166,6.166,0,0,1,1.3,2.167,8.216,8.216,0,0,1,.378,2.182,10.977,10.977,0,0,0,.245,1.871,3.57,3.57,0,0,0,.645,1.361c.273.344.542.6.739.818a4.409,4.409,0,0,1,.422.525c.085.126.121.2.126.193" transform="translate(-12.111 -86.524)" fill="#455a64"/>
            <path id="Trazado_914037" data-name="Trazado 914037" d="M63.221,270.47c.014.015.182-.141.521-.37a5.07,5.07,0,0,1,1.567-.7,4.778,4.778,0,0,1,2.511.017,4.931,4.931,0,0,1,2.522,1.718,4.192,4.192,0,0,1,.49.8.943.943,0,0,1,.055.8l-.147.28.291-.128a3.126,3.126,0,0,1,2.354-.045,3.011,3.011,0,0,1,1.462,1.21,3.3,3.3,0,0,1,.464,1.193c.052.3.051.467.068.466s.013-.041.018-.122a2.11,2.11,0,0,0-.01-.355,3.158,3.158,0,0,0-1.931-2.571,3.293,3.293,0,0,0-2.514.022l.143.153a1.154,1.154,0,0,0-.044-.989,4.322,4.322,0,0,0-.516-.844,5.065,5.065,0,0,0-2.646-1.781,4.821,4.821,0,0,0-2.611.03,4.721,4.721,0,0,0-1.575.786,3.352,3.352,0,0,0-.362.314c-.076.078-.114.122-.108.128" transform="translate(-20.495 -87.222)" fill="#455a64"/>
            <path id="Trazado_914038" data-name="Trazado 914038" d="M42.575,296.761c-.007,0,.005.049.037.135a1.283,1.283,0,0,0,.218.339,2.014,2.014,0,0,0,1.318.635,3.847,3.847,0,0,0,2.107-.529,12.364,12.364,0,0,0,1.118-.63,2.071,2.071,0,0,0,.9-1.087l.03-.126-.169.078a8.656,8.656,0,0,0,2.407,1.026,3.9,3.9,0,0,0,2.134-.075,2.808,2.808,0,0,0,1.214-.769,1.718,1.718,0,0,0,.232-.315c.044-.078.064-.12.057-.124s-.115.149-.352.378a2.933,2.933,0,0,1-1.2.678,3.849,3.849,0,0,1-2.038.024,8.87,8.87,0,0,1-2.339-1.019l-.132-.077-.037.155c-.007.034-.016.07-.025.106a1.871,1.871,0,0,1-.81.963c-.355.239-.735.438-1.087.628a3.807,3.807,0,0,1-2,.556,2.006,2.006,0,0,1-1.268-.535,3.271,3.271,0,0,1-.319-.414" transform="translate(-13.802 -95.733)" fill="#455a64"/>
            <path id="Trazado_914039" data-name="Trazado 914039" d="M56.325,323.071c-.13-.81-1.369-2.571-2.189-2.569-2.189.005-6.012.787-5.188,6.218,1.127,7.423,8.348,4.761,8.328,4.546-.015-.168-.5-5.4-.952-8.2" transform="translate(-15.831 -103.903)" fill="#ae7461"/>
            <path id="Trazado_914040" data-name="Trazado 914040" d="M55.871,330.155c-.036-.019-.116.11-.319.243a1.307,1.307,0,0,1-.964.167,3.237,3.237,0,0,1-1.917-2.646,4.322,4.322,0,0,1,.081-1.906,1.509,1.509,0,0,1,.822-1.14.666.666,0,0,1,.817.238c.131.193.107.349.147.355.024.016.141-.148.034-.445a.83.83,0,0,0-.363-.422.988.988,0,0,0-.744-.08,1.838,1.838,0,0,0-1.176,1.356,4.45,4.45,0,0,0-.134,2.138c.274,1.489,1.252,2.772,2.373,2.919a1.4,1.4,0,0,0,1.152-.376c.2-.218.216-.39.189-.4" transform="translate(-16.885 -105.193)" fill="#6f4439"/>
            <g id="Grupo_1103688" data-name="Grupo 1103688" transform="translate(46.622 204.993)" opacity="0.3">
              <g id="Grupo_1103687" data-name="Grupo 1103687">
                <g id="Grupo_1103686" data-name="Grupo 1103686" clip-path="url(#clip-path-6)">
                  <path id="Trazado_914041" data-name="Trazado 914041" d="M81.607,308.761a6.343,6.343,0,1,1-7.189-5.365,6.342,6.342,0,0,1,7.189,5.365" transform="translate(-68.987 -303.329)" fill="#fff"/>
                </g>
              </g>
            </g>
            <g id="Grupo_1103691" data-name="Grupo 1103691" transform="translate(62.086 202.997)" opacity="0.3">
              <g id="Grupo_1103690" data-name="Grupo 1103690">
                <g id="Grupo_1103689" data-name="Grupo 1103689" clip-path="url(#clip-path-7)">
                  <path id="Trazado_914042" data-name="Trazado 914042" d="M104.489,305.806a6.343,6.343,0,1,1-7.189-5.365,6.342,6.342,0,0,1,7.189,5.365" transform="translate(-91.87 -300.375)" fill="#fff"/>
                </g>
              </g>
            </g>
            <path id="Trazado_914043" data-name="Trazado 914043" d="M90.313,309.613a5.225,5.225,0,0,0-1.255-.032,5.21,5.21,0,0,0-1.148.511c-.029-.022.03-.172.212-.351a1.815,1.815,0,0,1,1.86-.37c.237.1.349.212.33.243" transform="translate(-28.498 -100.258)" fill="#455a64"/>
            <path id="Trazado_914044" data-name="Trazado 914044" d="M65.686,313.58a6.722,6.722,0,0,1-1.185.771c-.75.444-1.8,1.039-2.96,1.681s-2.227,1.208-3,1.606a4.263,4.263,0,0,1-.963.405c-.245.056-.386.039-.387.022s.131-.045.353-.13a6.108,6.108,0,0,0,.9-.478c.75-.443,1.8-1.039,2.961-1.681s2.226-1.208,3-1.605a6.75,6.75,0,0,1,1.285-.59" transform="translate(-18.54 -101.658)" fill="#455a64"/>
            <path id="Trazado_914045" data-name="Trazado 914045" d="M40.187,395.122s9.846,8.159,30.457,8.041a51.46,51.46,0,0,0,31.348-10.551c4.1-8.627-.566-14.556-2.751-25.648,0,0-6.458-10.036-8.462-10.12-4.449-.188-12.557,1.246-13.007.781-2.922,5.021-6.724,10.18-20.471.3l-16.192,4.2c-2.347.988-6.025,3.529-5.79,6.065Z" transform="translate(-11.447 -115.679)" fill="#ffbd45"/>
            <path id="Trazado_914046" data-name="Trazado 914046" d="M24.341,388.8s2.793-17.619,11.066-22.567c6.843-4.093,15.757,24.37,15.757,24.37l-7.471,11.325c-7.936-3.539-11.939-6.036-19.352-13.128" transform="translate(-7.891 -118.598)" fill="#ffbd45"/>
            <path id="Trazado_914047" data-name="Trazado 914047" d="M146.261,338.654,136.292,342l8.126,27.477-13.219-12.3-9.356,18.7s19.273,13.479,26.935,14.528,13.749-2.552,12.054-11.414c-.676-3.541-14.571-40.339-14.571-40.339" transform="translate(-39.5 -109.788)" fill="#ae7461"/>
            <path id="Trazado_914048" data-name="Trazado 914048" d="M137.579,316.751s-2.7-3.009-4.042-2.324-2.945,2.458-2.881,3.684.652,2.194,1.181,2.013a9.128,9.128,0,0,0,1.835-1.632l2.49,2.1.026,3.455-1.65,1.469-1.68-1.986-.137-1.7a1.218,1.218,0,0,0-1.685-1.05,1.485,1.485,0,0,0-.747,1.354c-.191,2.238.522,6.341,3.045,7.592a63.193,63.193,0,0,0,7.053,2.669l9.127-3.205-.6-11.568s2.748-4.752,2.588-6.357-1.179-6.392-1.179-6.392a1.159,1.159,0,0,0-1.642.931,29.625,29.625,0,0,0,.054,5.452l-2.433,3.22-1.875-12.392a.946.946,0,0,0-1.177-.776c-.744.2-1.608.831-1.6,2.672.014,3.225,1.077,10.157.7,10.254s-.518-.108-1.048-1.7c-.416-1.253-2.419-7.434-3.143-9.667a.731.731,0,0,0-1.16-.335,3.029,3.029,0,0,0-1.02,2.67c.13,2.621,2.164,9.142,2.273,9.751s-.671,1.8-.671,1.8" transform="translate(-42.229 -97.669)" fill="#ae7461"/>
            <path id="Trazado_914049" data-name="Trazado 914049" d="M146.22,338.68c-.065.037-.3-.317-.774-.787a6.368,6.368,0,0,0-4.683-1.846c-.666.021-1.081.12-1.1.048-.018-.048.372-.263,1.075-.373a5.5,5.5,0,0,1,4.954,1.952c.439.56.578.983.531,1.006" transform="translate(-45.276 -108.821)" fill="#6f4439"/>
            <path id="Trazado_914050" data-name="Trazado 914050" d="M127.92,392.777,138.07,374.5a164.962,164.962,0,0,0-13.235-13.646c-6.688-5.854-12.969-5.185-21.962-3.259,0,0,4.633,21.31,13.617,27.557,1.668,1.16,11.431,7.625,11.431,7.625" transform="translate(-33.35 -115.483)" fill="#ffbd45"/>
            <path id="Trazado_914051" data-name="Trazado 914051" d="M54.91,410.462a2.244,2.244,0,0,1-.252-.685,16.576,16.576,0,0,1-.356-1.953c-.223-1.66-.4-3.96-.612-6.5s-.426-4.829-.616-6.484a26.76,26.76,0,0,1-.278-2.687,2.862,2.862,0,0,1,.182.7c.1.457.214,1.123.343,1.949.253,1.652.515,3.948.72,6.488s.349,4.839.508,6.5c.08.828.162,1.5.243,1.952a4.1,4.1,0,0,1,.118.715" transform="translate(-17.112 -127.133)" fill="#263238"/>
            <path id="Trazado_914052" data-name="Trazado 914052" d="M118.165,374.294a6.269,6.269,0,0,1,.857.672c.535.451,1.3,1.113,2.221,1.967a26.3,26.3,0,0,1,6.03,7.693,17.613,17.613,0,0,1,1.507,5.2,31.1,31.1,0,0,1,.27,4.4c0,1.254-.055,2.267-.095,2.965a6.334,6.334,0,0,1-.1,1.084,6.6,6.6,0,0,1-.035-1.088c0-.7.01-1.711-.017-2.959a34.246,34.246,0,0,0-.342-4.358,17.887,17.887,0,0,0-1.5-5.094,27.8,27.8,0,0,0-5.884-7.664l-2.14-2.044a6.594,6.594,0,0,1-.766-.774" transform="translate(-38.308 -121.341)" fill="#263238"/>
            <path id="Trazado_914053" data-name="Trazado 914053" d="M156.907,392.9a4.3,4.3,0,0,1-.593-1.194,20.573,20.573,0,0,1-1.391-6.255,4.317,4.317,0,0,1,.031-1.333c.107,0,.218,2.017.763,4.439s1.289,4.3,1.19,4.343" transform="translate(-50.217 -124.525)" fill="#263238"/>
          </g>
        </g>
        <g id="Grupo_1103695" data-name="Grupo 1103695" transform="translate(0 -0.001)">
          <g id="Grupo_1103694" data-name="Grupo 1103694" clip-path="url(#clip-path-2)">
            <path id="Trazado_914054" data-name="Trazado 914054" d="M120.173,75.679A55.335,55.335,0,1,1,64.837,20.344a55.335,55.335,0,0,1,55.335,55.335" transform="translate(-3.08 -6.595)" fill="#f5f5f5"/>
            <path id="Trazado_914055" data-name="Trazado 914055" d="M100.681,17.066a7.374,7.374,0,0,0-13.363-1.985,8.147,8.147,0,0,0,.205,8.574,18.027,18.027,0,0,0,7.162,6.205l2.729-.3a11.974,11.974,0,0,0,3.268-12.5" transform="translate(-27.943 -3.789)" fill="#263238"/>
            <path id="Trazado_914056" data-name="Trazado 914056" d="M120.979,46.463,81.536,37.507A61.759,61.759,0,0,0,66.3,71.284c14.907,8.027,36.217,14.1,53.06,15.823,3.62-12.924.816-27.246,1.618-40.645" transform="translate(-21.494 -12.159)" fill="#263238"/>
            <path id="Trazado_914057" data-name="Trazado 914057" d="M89.231,31.545a23.768,23.768,0,0,1,19.511-6.478c4.15.52,5.742,1.623,8.609,2.85A13.2,13.2,0,0,1,124.1,33.9a22.114,22.114,0,0,1,2.872,10.6,61.939,61.939,0,0,1-1.057,11.342A20.757,20.757,0,0,1,120.9,65.929l-9.795.3c-5.306-.57-10.683-1.157-15.656-3.09s-9.58-5.409-11.7-10.3c-2.941-6.8.022-16.275,5.473-21.291" transform="translate(-26.778 -8.063)" fill="#263238"/>
            <path id="Trazado_914058" data-name="Trazado 914058" d="M117.027,31.99l-3.275-.86L100.29,34.383a3.584,3.584,0,0,0-3.854,2.941L92.348,77.967l17.218,7.8,1.886-8.577s8.644.38,12.211-9.3c1.774-4.812,3.138-13.011,4.038-19.755.81-6.07-3.188-15.06-10.675-16.15" transform="translate(-29.938 -10.091)" fill="#ffc09d"/>
            <path id="Trazado_914059" data-name="Trazado 914059" d="M116.915,78.328a2.146,2.146,0,0,1,.921-1.207,2.2,2.2,0,0,1,2.658.224,2.939,2.939,0,0,1,.719,2.888,2.67,2.67,0,0,1-2.05.829,3.16,3.16,0,0,1-.357-.039,2.4,2.4,0,0,1-1.512-.861,2.138,2.138,0,0,1-.379-1.834" transform="translate(-37.88 -24.889)" fill="#ff9b6c"/>
            <path id="Trazado_914060" data-name="Trazado 914060" d="M136.558,67.024a1.307,1.307,0,0,1-1.493,1.048,1.251,1.251,0,0,1-1.093-1.418,1.308,1.308,0,0,1,1.492-1.049,1.251,1.251,0,0,1,1.095,1.419" transform="translate(-43.427 -21.263)" fill="#263238"/>
            <path id="Trazado_914061" data-name="Trazado 914061" d="M138.1,60.032c-.192.136-1.021-.776-2.4-1.046-1.375-.289-2.529.22-2.645.021-.059-.09.164-.359.668-.593a3.6,3.6,0,0,1,2.159-.223,3.452,3.452,0,0,1,1.871,1.041c.36.41.444.74.351.8" transform="translate(-43.131 -18.841)" fill="#263238"/>
            <path id="Trazado_914062" data-name="Trazado 914062" d="M125.013,69.631a9.321,9.321,0,0,1,2.321.041c.36.033.708.03.814-.2a1.833,1.833,0,0,0-.028-1.091q-.244-1.377-.511-2.888c-.691-4.1-1.117-7.452-.952-7.478s.86,3.28,1.552,7.385q.242,1.515.464,2.9a2.077,2.077,0,0,1-.091,1.419.9.9,0,0,1-.681.4,2.416,2.416,0,0,1-.615-.036,9.18,9.18,0,0,1-2.273-.447" transform="translate(-40.528 -18.807)" fill="#263238"/>
            <path id="Trazado_914063" data-name="Trazado 914063" d="M114.5,96.437a25.956,25.956,0,0,1-12.686-6.226s1.748,8.073,11.943,9.123Z" transform="translate(-33.008 -29.245)" fill="#ff9b6c"/>
            <path id="Trazado_914064" data-name="Trazado 914064" d="M118.52,75.421c.227.032-.067,1.529,1.006,2.846s2.7,1.469,2.669,1.68c0,.1-.414.22-1.091.1a3.8,3.8,0,0,1-2.245-1.318,3.308,3.308,0,0,1-.747-2.367c.067-.637.307-.975.408-.946" transform="translate(-38.286 -24.45)" fill="#263238"/>
            <path id="Trazado_914065" data-name="Trazado 914065" d="M138.377,52.815c-.3.291-1.311-.144-2.566-.287-1.25-.182-2.342-.02-2.554-.377-.092-.172.108-.474.6-.728a4,4,0,0,1,4.125.535c.412.371.524.713.391.856" transform="translate(-43.193 -16.558)" fill="#263238"/>
            <path id="Trazado_914066" data-name="Trazado 914066" d="M116.01,63.508a1.306,1.306,0,0,0,1.037,1.5,1.249,1.249,0,0,0,1.517-.95,1.307,1.307,0,0,0-1.036-1.5,1.25,1.25,0,0,0-1.517.951" transform="translate(-37.602 -20.27)" fill="#263238"/>
            <path id="Trazado_914067" data-name="Trazado 914067" d="M112.777,55.721c.132.194,1.226-.373,2.615-.148,1.39.205,2.3,1.083,2.474.937.086-.063-.029-.393-.422-.787a3.594,3.594,0,0,0-1.947-.958,3.449,3.449,0,0,0-2.115.328c-.48.26-.673.54-.606.629" transform="translate(-36.557 -17.74)" fill="#263238"/>
            <path id="Trazado_914068" data-name="Trazado 914068" d="M114.942,49.277c.223.359,1.348.2,2.639.393,1.3.15,2.346.592,2.651.3.136-.143.014-.486-.416-.861a4.029,4.029,0,0,0-2.059-.858,3.976,3.976,0,0,0-2.2.3c-.507.251-.708.552-.612.725" transform="translate(-37.256 -15.63)" fill="#263238"/>
            <path id="Trazado_914069" data-name="Trazado 914069" d="M94.417,51.035l1.489,2.057c8.558-6.139,25.844-22.1,24.869-21.139a22.178,22.178,0,0,0-10.6-2.7c-5.74.158-16.766,1.452-17.539,8.08s1.782,13.7,1.782,13.7" transform="translate(-29.984 -9.482)" fill="#263238"/>
            <path id="Trazado_914070" data-name="Trazado 914070" d="M93.638,64.231c.146-.744-.368-2.669-1.081-2.93-1.9-.7-5.475-1.24-6.5,3.737-1.394,6.8,5.73,6.8,5.782,6.611.041-.151,1.291-4.848,1.794-7.418" transform="translate(-27.842 -19.728)" fill="#ffc09d"/>
            <path id="Trazado_914071" data-name="Trazado 914071" d="M91.43,69.859c-.026-.028-.136.059-.355.109a1.213,1.213,0,0,1-.891-.164,2.991,2.991,0,0,1-.818-2.91,4,4,0,0,1,.679-1.629,1.4,1.4,0,0,1,1.079-.727.617.617,0,0,1,.633.468c.053.21-.019.337.015.355.016.021.17-.084.172-.376a.77.77,0,0,0-.18-.481.919.919,0,0,0-.621-.308,1.7,1.7,0,0,0-1.455.8,4.1,4.1,0,0,0-.8,1.813c-.238,1.38.2,2.807,1.128,3.293a1.3,1.3,0,0,0,1.122.043c.245-.124.312-.27.291-.287" transform="translate(-28.796 -20.808)" fill="#ff9b6c"/>
            <path id="Trazado_914072" data-name="Trazado 914072" d="M79.742,34.139a4.6,4.6,0,0,0,4.356,2.1,9.211,9.211,0,0,1-6.641,1.388,8.235,8.235,0,0,0,9.259,1.281l2.838-6.851a9.892,9.892,0,0,1-9.812,2.079" transform="translate(-25.111 -10.393)" fill="#263238"/>
            <path id="Trazado_914073" data-name="Trazado 914073" d="M108.92,104.413,91.039,97.925h-4.8l11.909,13.159,5.05,4.415,6.139-.334,2.644-2.961Z" transform="translate(-27.958 -31.746)" fill="#ffc09d"/>
            <path id="Trazado_914074" data-name="Trazado 914074" d="M117.933,117.855c-1.474-4.888-7.966-8.584-7.966-8.584l-10.762-5.436s-.8,4.074-7.745,2.776a14.764,14.764,0,0,1-11.234-9.426s-16.413-.1-19.441.376l-6.287,59.1,46.381.684,3.812-5.216a33.537,33.537,0,0,0,5.039-9.957c.72-2.357,1.1-4.181,1.1-4.181s8.753-.7,11.66-4.63c0,0-3.692-12.639-4.557-15.507" transform="translate(-17.668 -31.502)" fill="#455a64"/>
            <path id="Trazado_914075" data-name="Trazado 914075" d="M136.334,127.934c-.069.019.24,1.228.6,3.2a51.329,51.329,0,0,1,.493,15.618c-.24,2-.471,3.221-.4,3.236a3.378,3.378,0,0,0,.251-.843c.139-.548.3-1.352.456-2.35a42.68,42.68,0,0,0-.5-15.722c-.222-.987-.43-1.778-.6-2.317a3.388,3.388,0,0,0-.3-.826" transform="translate(-44.195 -41.474)" fill="#263238"/>
            <path id="Trazado_914076" data-name="Trazado 914076" d="M93.5,165.926a2.6,2.6,0,0,0,.768-.086,5.888,5.888,0,0,0,.883-.2,9.853,9.853,0,0,0,1.145-.366,14.739,14.739,0,0,0,2.8-1.4,15.8,15.8,0,0,0,5.235-5.536,14.7,14.7,0,0,0,1.241-2.876,9.706,9.706,0,0,0,.3-1.163,5.823,5.823,0,0,0,.151-.893,2.585,2.585,0,0,0,.043-.771c-.085-.013-.208,1.081-.79,2.73a16.3,16.3,0,0,1-1.3,2.771,16.638,16.638,0,0,1-5.108,5.4,16.3,16.3,0,0,1-2.7,1.449c-1.614.672-2.7.856-2.682.941" transform="translate(-30.311 -49.482)" fill="#263238"/>
            <path id="Trazado_914077" data-name="Trazado 914077" d="M59.3,97.274l-7.648.2a12.816,12.816,0,0,0-3.856.7L28.96,104.7l10.712,10.806L54.1,118.89Z" transform="translate(-9.389 -31.535)" fill="#455a64"/>
            <path id="Trazado_914078" data-name="Trazado 914078" d="M61.724,111.109c.072,0,.232,2.945.359,6.584s.172,6.59.1,6.593-.232-2.945-.359-6.584-.172-6.59-.1-6.593" transform="translate(-19.999 -36.02)" fill="#263238"/>
            <path id="Trazado_914079" data-name="Trazado 914079" d="M112.455,171.4H15.715A15.457,15.457,0,0,1,.258,155.939V154.85a15.457,15.457,0,0,1,15.457-15.457h96.74a15.457,15.457,0,0,1,15.457,15.457v1.089A15.457,15.457,0,0,1,112.455,171.4" transform="translate(-0.084 -45.189)" fill="#fff"/>
            <path id="Trazado_914080" data-name="Trazado 914080" d="M112.372,171.311s.255-.025.754-.056c.249-.02.56-.024.927-.066l1.268-.2c.477-.093,1-.253,1.58-.4.285-.094.577-.211.885-.322a7.249,7.249,0,0,0,.945-.393,14.9,14.9,0,0,0,4.056-2.713,15.52,15.52,0,0,0,3.565-4.937,15.018,15.018,0,0,0,.625-1.6c.182-.554.308-1.139.457-1.727.074-.6.22-1.209.239-1.84s.072-1.27.057-1.93-.053-1.318-.092-1.993a16.783,16.783,0,0,0-.371-2.025,15.241,15.241,0,0,0-4.437-7.543,14.48,14.48,0,0,0-3.967-2.678,15.455,15.455,0,0,0-4.829-1.358c-1.707-.144-3.49-.073-5.294-.088l-11.268.01-24.863.016-56.969.014a15.734,15.734,0,0,0-7.158,1.78,15.7,15.7,0,0,0-5.436,4.843,15.4,15.4,0,0,0-2.557,6.7,21.52,21.52,0,0,0-.112,3.585l.045.889c.018.3.082.586.12.879s.078.587.144.874l.22.856a15.356,15.356,0,0,0,8.841,10.072,16.356,16.356,0,0,0,6.58,1.181l6.647,0,46.529.038,31.368.056,8.528.033,2.218.017c.5.006.756.018.756.018s-.256.012-.756.018l-2.218.018-8.528.032-31.368.056-46.529.038-6.647,0a16.714,16.714,0,0,1-6.71-1.2A15.7,15.7,0,0,1,.571,159.983l-.225-.876c-.067-.294-.1-.6-.147-.893s-.105-.6-.124-.9l-.045-.909a21.618,21.618,0,0,1,.114-3.641,15.725,15.725,0,0,1,2.613-6.857,16.032,16.032,0,0,1,5.559-4.954,16.085,16.085,0,0,1,7.323-1.822l56.969.014,24.863.016,11.268.01c1.808.019,3.573-.049,5.322.1a15.716,15.716,0,0,1,4.907,1.391,14.718,14.718,0,0,1,4.023,2.73,15.449,15.449,0,0,1,4.48,7.666,16.828,16.828,0,0,1,.37,2.053c.038.682.088,1.358.086,2.015s-.032,1.307-.065,1.944-.172,1.253-.249,1.863c-.153.594-.282,1.185-.47,1.745a15.13,15.13,0,0,1-.639,1.612,15.622,15.622,0,0,1-3.625,4.969,14.924,14.924,0,0,1-4.1,2.708,7.158,7.158,0,0,1-.954.387c-.312.11-.606.225-.893.317-.587.14-1.112.3-1.593.384l-1.277.186c-.368.036-.681.034-.931.049-.5.02-.756.02-.756.02" transform="translate(0 -45.105)" fill="#263238"/>
            <path id="Trazado_914081" data-name="Trazado 914081" d="M26.623,150.041l1.86,3.769a1,1,0,0,0,.754.547l4.159.6a1,1,0,0,1,.554,1.706L30.941,159.6a1,1,0,0,0-.288.885l.711,4.142a1,1,0,0,1-1.452,1.055l-3.72-1.956a1,1,0,0,0-.931,0l-3.72,1.956a1,1,0,0,1-1.452-1.055l.71-4.142a1,1,0,0,0-.287-.885l-3.01-2.934a1,1,0,0,1,.555-1.706l4.159-.6a1,1,0,0,0,.753-.547l1.861-3.769a1,1,0,0,1,1.794,0" transform="translate(-5.576 -48.46)" fill="#ffbd45"/>
            <path id="Trazado_914082" data-name="Trazado 914082" d="M59.7,150.041l1.86,3.769a1,1,0,0,0,.754.547l4.159.6a1,1,0,0,1,.554,1.706L64.017,159.6a1,1,0,0,0-.288.885l.711,4.142a1,1,0,0,1-1.452,1.055l-3.72-1.956a1,1,0,0,0-.931,0l-3.72,1.956a1,1,0,0,1-1.451-1.055l.71-4.142a1,1,0,0,0-.287-.885l-3.01-2.934a1,1,0,0,1,.555-1.706l4.159-.6a1,1,0,0,0,.753-.547l1.86-3.769a1,1,0,0,1,1.794,0" transform="translate(-16.299 -48.46)" fill="#ffbd45"/>
            <path id="Trazado_914083" data-name="Trazado 914083" d="M93.01,150.041l1.86,3.769a1,1,0,0,0,.754.547l4.159.6a1,1,0,0,1,.554,1.706L97.328,159.6a1,1,0,0,0-.288.885l.711,4.142a1,1,0,0,1-1.452,1.055l-3.72-1.956a1,1,0,0,0-.931,0l-3.72,1.956a1,1,0,0,1-1.452-1.055l.71-4.142a1,1,0,0,0-.287-.885l-3.01-2.934a1,1,0,0,1,.555-1.706l4.159-.6a1,1,0,0,0,.753-.547l1.861-3.769a1,1,0,0,1,1.794,0" transform="translate(-27.098 -48.46)" fill="#ffbd45"/>
            <path id="Trazado_914084" data-name="Trazado 914084" d="M123.409,150.041l1.86,3.769a1,1,0,0,0,.754.547l4.159.6a1,1,0,0,1,.554,1.706l-3.009,2.934a1,1,0,0,0-.288.885l.71,4.142a1,1,0,0,1-1.451,1.055l-3.72-1.956a1,1,0,0,0-.931,0l-3.72,1.956a1,1,0,0,1-1.451-1.055l.71-4.142a1,1,0,0,0-.287-.885l-3.01-2.934a1,1,0,0,1,.555-1.706l4.159-.6a1,1,0,0,0,.753-.547l1.861-3.769a1,1,0,0,1,1.794,0" transform="translate(-36.953 -48.46)" fill="#ffbd45"/>
            <path id="Trazado_914085" data-name="Trazado 914085" d="M156.121,150.962l1.86,3.769a1,1,0,0,0,.754.547l4.159.6a1,1,0,0,1,.554,1.706l-3.009,2.934a1,1,0,0,0-.288.885l.711,4.142a1,1,0,0,1-1.452,1.055l-3.72-1.956a1,1,0,0,0-.931,0l-3.72,1.956a1,1,0,0,1-1.452-1.055l.71-4.142a1,1,0,0,0-.287-.885L147,157.588a1,1,0,0,1,.555-1.706l4.159-.6a1,1,0,0,0,.753-.547l1.86-3.769a1,1,0,0,1,1.794,0" transform="translate(-47.558 -48.759)" fill="#e0e0e0"/>
            <path id="Trazado_914086" data-name="Trazado 914086" d="M62.44,134l2.355-10.05-32.107-5.565-9.5-9.057s-7.833,2.884-11.431,6.954c-5.221,5.907-.772,12.836,2.876,13.809S62.44,134,62.44,134" transform="translate(-3.038 -35.442)" fill="#ffc09d"/>
            <path id="Trazado_914087" data-name="Trazado 914087" d="M25.285,120.425a2,2,0,0,1,.512-.057c.33-.021.808-.035,1.4-.036a39.834,39.834,0,0,1,4.612.264,34.045,34.045,0,0,1,4.546.831c.572.149,1.032.285,1.344.393a1.978,1.978,0,0,1,.479.191c-.012.039-.716-.154-1.866-.405s-2.75-.545-4.533-.753-3.409-.3-4.585-.337a18.733,18.733,0,0,1-1.908-.089" transform="translate(-8.197 -39.009)" fill="#ff9b6c"/>
            <path id="Trazado_914088" data-name="Trazado 914088" d="M81.143,129.963a34.784,34.784,0,0,1,9.8,1.7c3.931,1.528,5.593,3.233,8.56,3.689s6.474-.051,6.39,1.571-6.557,2.463-6.557,2.463,7.876,9.122,6.892,10.432a1.829,1.829,0,0,1-2.569-.212c-2.1-2.169-4.965-5.166-4.965-5.166s.4,7.23-1.037,8.67a1.97,1.97,0,0,1-2.742.328,2.1,2.1,0,0,1-2.335.847c-.968-.272-1.3-1.616-1.3-1.616a1.919,1.919,0,0,1-2.229-1.635c-.537-1.909-1.413-7.868-1.413-7.868s-4.791-2.644-4.99-2.425l-5.985-.558-.732-8.875Z" transform="translate(-24.614 -42.126)" fill="#ffc09d"/>
            <path id="Trazado_914089" data-name="Trazado 914089" d="M104.52,149.934a6.763,6.763,0,0,1,.191,1.46,30.249,30.249,0,0,1,.03,3.554,29.553,29.553,0,0,1-.375,3.534,6.672,6.672,0,0,1-.335,1.434,10.974,10.974,0,0,1,.154-1.46c.109-.9.23-2.142.3-3.521s.066-2.628.045-3.532a10.822,10.822,0,0,1-.008-1.469" transform="translate(-33.723 -48.606)" fill="#ff9b6c"/>
            <path id="Trazado_914090" data-name="Trazado 914090" d="M98.447,150.117a5.609,5.609,0,0,1,.336,1.323,19.752,19.752,0,0,1,.063,6.565,5.611,5.611,0,0,1-.31,1.329,9.813,9.813,0,0,1,.129-1.353,26.973,26.973,0,0,0-.062-6.513,9.791,9.791,0,0,1-.155-1.35" transform="translate(-31.912 -48.666)" fill="#ff9b6c"/>
            <path id="Trazado_914091" data-name="Trazado 914091" d="M107.4,139.969a9.236,9.236,0,0,1,2.49,3.076,44.561,44.561,0,0,1-2.49-3.076" transform="translate(-34.816 -45.375)" fill="#ff9b6c"/>
            <path id="Trazado_914092" data-name="Trazado 914092" d="M164.374,143.568a4.665,4.665,0,0,0,.472-1.975,23.211,23.211,0,0,1,.276-2.626l.189-4.356a1.95,1.95,0,0,0-3.591-.21c-.237-.61-.178-.975-.7-1.365a2.083,2.083,0,0,0-1.854-.365,1.491,1.491,0,0,0-1.035,1.492,2.424,2.424,0,0,0-4.076.127,2.54,2.54,0,0,0-.33.839,1.008,1.008,0,0,0-.043.341.41.41,0,0,0,.061.145c.127.211.287.394.4.615.043.083.082.168.119.254a4.6,4.6,0,0,1,.318,1.232,4.006,4.006,0,0,0,.059.6,2.261,2.261,0,0,0,.184.345,6.041,6.041,0,0,1,.349,2.468,4.751,4.751,0,0,0,.6,2.632,1.754,1.754,0,0,0,2.371.6,1.2,1.2,0,0,0,.961,1.256,1.727,1.727,0,0,0,1.564-.576,3.211,3.211,0,0,0,.717-1.565,1.32,1.32,0,0,0,1.379,1.206,2.033,2.033,0,0,0,1.614-1.11" transform="translate(-49.819 -42.982)" fill="#ffc09d"/>
            <path id="Trazado_914093" data-name="Trazado 914093" d="M149.276,135.748a1.961,1.961,0,0,0-1.523.6,3.212,3.212,0,0,0-.372,2.173c.787.106,1.192.115,1.979.221.166.022.3-.026.442.064.373.237.36,1.1.526,1.508a1.5,1.5,0,0,0,1.936.71,2.012,2.012,0,0,0,1.12-1.855,3.11,3.11,0,0,0-.9-2.054,4.35,4.35,0,0,0-3.208-1.362" transform="translate(-47.768 -44.007)" fill="#ffc09d"/>
            <path id="Trazado_914094" data-name="Trazado 914094" d="M160.138,134.585a25.812,25.812,0,0,1,.271,5.208,25.834,25.834,0,0,1-.258,5.209,25.835,25.835,0,0,1-.272-5.208,25.8,25.8,0,0,1,.259-5.209" transform="translate(-51.831 -43.63)" fill="#ff9b6c"/>
            <path id="Trazado_914095" data-name="Trazado 914095" d="M165.421,135.039a14.7,14.7,0,0,1,.349,4.722,14.7,14.7,0,0,1-.665,4.688,38.463,38.463,0,0,1,.135-4.706,38.5,38.5,0,0,1,.181-4.7" transform="translate(-53.508 -43.778)" fill="#ff9b6c"/>
            <path id="Trazado_914096" data-name="Trazado 914096" d="M151.893,136.161c-.007-.063.366-.166.918.052a2.932,2.932,0,0,1,1.521,1.6,5.885,5.885,0,0,1,.468,2.127c-.03.649-.489.861-.5.778-.044-.057.2-.293.13-.77a10.612,10.612,0,0,0-.578-1.922,3.184,3.184,0,0,0-1.2-1.479c-.42-.264-.753-.305-.749-.387" transform="translate(-49.242 -44.116)" fill="#ff9b6c"/>
          </g>
        </g>
        <g id="Grupo_1103697" data-name="Grupo 1103697" transform="translate(0 -0.001)">
          <g id="Grupo_1103696" data-name="Grupo 1103696" clip-path="url(#clip-path-2)">
            <path id="Trazado_914097" data-name="Trazado 914097" d="M392.611,230.263l4.035.894a15.761,15.761,0,1,0-2.526-5.051l0-.007Z" transform="translate(-127.281 -66.772)" fill="#fff"/>
            <path id="Trazado_914098" data-name="Trazado 914098" d="M392.611,230.2s.024-.086.084-.264l.272-.8c.253-.724.619-1.772,1.091-3.125a.061.061,0,0,1,.077-.037.067.067,0,0,1,.032.026l0,.007-.111.049a15.676,15.676,0,0,1-.349-7.6,16.2,16.2,0,0,1,1.767-4.712,15.823,15.823,0,0,1,3.7-4.365,16.162,16.162,0,0,1,5.6-2.942,15.508,15.508,0,0,1,6.818-.491,16.207,16.207,0,0,1,6.751,2.7,15.535,15.535,0,0,1,5,5.748,16.309,16.309,0,0,1,1.362,3.676c.118.637.247,1.272.315,1.908l.064.958.03.476-.018.476A16.166,16.166,0,0,1,423.276,229a15.466,15.466,0,0,1-4.479,5.246,16.192,16.192,0,0,1-5.744,2.756,15.878,15.878,0,0,1-5.746.361l-1.319-.226c-.43-.085-.841-.221-1.25-.326a14.214,14.214,0,0,1-2.279-.866,15.666,15.666,0,0,1-5.861-4.82l.034.022-3.005-.7-.766-.184a2.187,2.187,0,0,1-.251-.067s.1.015.277.051l.787.16,2.984.626a.06.06,0,0,1,.034.022,15.705,15.705,0,0,0,5.848,4.717,14.179,14.179,0,0,0,2.256.841c.4.1.81.234,1.235.314l1.3.216a15.716,15.716,0,0,0,5.658-.381,15.972,15.972,0,0,0,5.643-2.731,15.228,15.228,0,0,0,4.388-5.163,15.914,15.914,0,0,0,1.773-6.988l.017-.467-.03-.468-.064-.94c-.067-.625-.193-1.248-.31-1.873a16.029,16.029,0,0,0-1.336-3.607,15.277,15.277,0,0,0-4.9-5.642,15.964,15.964,0,0,0-6.624-2.657,15.265,15.265,0,0,0-6.7.468,15.949,15.949,0,0,0-5.513,2.876,15.644,15.644,0,0,0-3.661,4.283,16.072,16.072,0,0,0-1.772,4.64,15.714,15.714,0,0,0,.276,7.529.06.06,0,0,1-.041.076.062.062,0,0,1-.07-.027l0-.007.11-.011c-.5,1.327-.881,2.355-1.146,3.065l-.3.8c-.07.181-.112.278-.112.278" transform="translate(-127.281 -66.706)" fill="#263238"/>
            <path id="Trazado_914099" data-name="Trazado 914099" d="M408.579,228.292a2,2,0,1,1-2-2,2,2,0,0,1,2,2" transform="translate(-131.159 -73.36)" fill="#263238"/>
            <path id="Trazado_914100" data-name="Trazado 914100" d="M418.553,228.292a2,2,0,1,1-2-2,2,2,0,0,1,2,2" transform="translate(-134.392 -73.36)" fill="#263238"/>
            <path id="Trazado_914101" data-name="Trazado 914101" d="M428.527,228.292a2,2,0,1,1-2-2,2,2,0,0,1,2,2" transform="translate(-137.626 -73.36)" fill="#263238"/>
          </g>
        </g>
        <rect id="Rectángulo_404348" data-name="Rectángulo 404348" width="62.719" height="53.143" transform="translate(115.834 140.021)" fill="#fff"/>
        <rect id="Rectángulo_404349" data-name="Rectángulo 404349" width="62.719" height="5.84" transform="translate(115.834 140.022)" fill="#e0e0e0"/>
        <g id="Grupo_1103699" data-name="Grupo 1103699" transform="translate(0 -0.001)">
          <g id="Grupo_1103698" data-name="Grupo 1103698" clip-path="url(#clip-path-2)">
            <path id="Trazado_914102" data-name="Trazado 914102" d="M177.061,211.046a1.284,1.284,0,1,1-1.284-1.284,1.284,1.284,0,0,1,1.284,1.284" transform="translate(-56.569 -68.002)" fill="#fff"/>
            <path id="Trazado_914103" data-name="Trazado 914103" d="M182.172,211.046a1.284,1.284,0,1,1-1.284-1.284,1.284,1.284,0,0,1,1.284,1.284" transform="translate(-58.226 -68.002)" fill="#fff"/>
            <path id="Trazado_914104" data-name="Trazado 914104" d="M187.283,211.046A1.284,1.284,0,1,1,186,209.762a1.284,1.284,0,0,1,1.284,1.284" transform="translate(-59.883 -68.002)" fill="#fff"/>
            <rect id="Rectángulo_404350" data-name="Rectángulo 404350" width="62.719" height="18.247" transform="translate(115.834 150.195)" fill="#ca7441"/>
            <rect id="Rectángulo_404351" data-name="Rectángulo 404351" width="9.616" height="9.616" transform="translate(120.76 175.041)" fill="#455a64"/>
            <path id="Trazado_914105" data-name="Trazado 914105" d="M201.469,260.712h-5.185a.852.852,0,1,1,0-1.7h5.185a.852.852,0,1,1,0,1.7" transform="translate(-63.357 -83.968)" fill="#e0e0e0"/>
            <path id="Trazado_914106" data-name="Trazado 914106" d="M199.828,270.866h-2.74a.852.852,0,0,1,0-1.7h2.74a.852.852,0,0,1,0,1.7" transform="translate(-63.618 -87.259)" fill="#ff725e"/>
            <path id="Trazado_914107" data-name="Trazado 914107" d="M207.234,265.306H196.441a.852.852,0,1,1,0-1.7h10.793a.852.852,0,1,1,0,1.7" transform="translate(-63.408 -85.457)" fill="#e0e0e0"/>
            <rect id="Rectángulo_404352" data-name="Rectángulo 404352" width="9.615" height="9.616" transform="translate(150.593 175.041)" fill="#455a64"/>
            <path id="Trazado_914108" data-name="Trazado 914108" d="M245.611,260.712h-5.185a.852.852,0,1,1,0-1.7h5.185a.852.852,0,1,1,0,1.7" transform="translate(-77.668 -83.968)" fill="#e0e0e0"/>
            <path id="Trazado_914109" data-name="Trazado 914109" d="M243.97,270.866h-2.74a.852.852,0,0,1,0-1.7h2.74a.852.852,0,0,1,0,1.7" transform="translate(-77.929 -87.259)" fill="#ff725e"/>
            <path id="Trazado_914110" data-name="Trazado 914110" d="M251.376,265.306H240.583a.852.852,0,0,1,0-1.7h10.793a.852.852,0,0,1,0,1.7" transform="translate(-77.719 -85.457)" fill="#e0e0e0"/>
            <rect id="Rectángulo_404353" data-name="Rectángulo 404353" width="62.719" height="2.571" transform="translate(115.834 190.594)" fill="#e0e0e0"/>
            <path id="Trazado_914111" data-name="Trazado 914111" d="M206.5,231.791H181.51a1.1,1.1,0,0,1,0-2.209H206.5a1.1,1.1,0,0,1,0,2.209" transform="translate(-58.486 -74.428)" fill="#fff"/>
            <path id="Trazado_914112" data-name="Trazado 914112" d="M188.275,237.893h-6.232a1.1,1.1,0,1,1,0-2.209h6.232a1.1,1.1,0,1,1,0,2.209" transform="translate(-58.658 -76.406)" fill="#fff"/>
            <path id="Trazado_914113" data-name="Trazado 914113" d="M258.934,228.169h-.665a1.1,1.1,0,0,1,0-2.209h.665a1.1,1.1,0,1,1,0,2.209" transform="translate(-83.37 -73.253)" fill="#fff"/>
            <path id="Trazado_914114" data-name="Trazado 914114" d="M252.553,228.169h-.664a1.1,1.1,0,1,1,0-2.209h.664a1.1,1.1,0,1,1,0,2.209" transform="translate(-81.302 -73.253)" fill="#fff"/>
            <path id="Trazado_914115" data-name="Trazado 914115" d="M234.036,260.25s-.011-.341-.016-.986-.009-1.605-.017-2.845c-.009-2.494-.022-6.137-.038-10.78-.018-9.281-.045-22.546-.076-38.533l.148.148-62.714.028h-.005l.176-.176c-.007,19.267-.013,37.434-.02,53.143l-.156-.156,45.328.078,12.815.041,3.4.018.877.009c.2,0,.3.009.3.009s-.093.006-.284.009l-.86.009-3.366.019-12.78.041-45.429.078h-.156v-.156c-.006-15.709-.013-33.876-.02-53.143v-.176h.182l62.714.028h.148v.148c-.032,16.025-.058,29.323-.076,38.626-.017,4.628-.03,8.26-.039,10.747-.007,1.227-.013,2.17-.017,2.816s-.016.954-.016.954" transform="translate(-55.482 -67.084)" fill="#263238"/>
          </g>
        </g>
      </g>
    </g>
  </g>
</svg>
