<svg xmlns="http://www.w3.org/2000/svg" xmlns:xlink="http://www.w3.org/1999/xlink" width="301.219" height="301.154" viewBox="0 0 301.219 301.154">
  <defs>
    <clipPath id="clip-path">
      <rect id="Rectángulo_404236" data-name="Rectángulo 404236" width="301.218" height="301.154" fill="none"/>
    </clipPath>
  </defs>
  <g id="Grupo_1103824" data-name="Grupo 1103824" transform="translate(-231.442 -456.423)">
    <g id="Grupo_1103487" data-name="Grupo 1103487" transform="translate(231.442 456.423)">
      <g id="Grupo_1103486" data-name="Grupo 1103486" clip-path="url(#clip-path)">
        <path id="Trazado_913775" data-name="Trazado 913775" d="M107.544,19.834l12.648,12.648a49.831,49.831,0,0,1,70.471,0l12.648-12.648a67.718,67.718,0,0,0-95.767,0" transform="translate(-4.533 0)" fill="#ffbd45"/>
        <path id="Trazado_913776" data-name="Trazado 913776" d="M203.032,119.852,190.384,107.2a49.831,49.831,0,0,1-70.471,0l-12.648,12.648a67.718,67.718,0,0,0,95.767,0" transform="translate(-4.522 -4.519)" fill="#ca7441"/>
        <path id="Trazado_913777" data-name="Trazado 913777" d="M194.066,106.356,206.714,119a49.831,49.831,0,0,1,70.471,0l12.648-12.648a67.718,67.718,0,0,0-95.767,0" transform="translate(-8.181 -3.647)" fill="#ca7441"/>
        <path id="Trazado_913778" data-name="Trazado 913778" d="M293.211,202.716l-12.648-12.648a49.831,49.831,0,0,0,0-70.471l12.648-12.648a67.718,67.718,0,0,1,0,95.767" transform="translate(-11.827 -4.508)" fill="#ee4f47"/>
        <path id="Trazado_913779" data-name="Trazado 913779" d="M289.553,206.374,276.9,193.726a49.831,49.831,0,0,1-70.471,0l-12.648,12.648a67.718,67.718,0,0,0,95.767,0" transform="translate(-8.169 -8.166)" fill="#ffbd45"/>
        <path id="Trazado_913780" data-name="Trazado 913780" d="M206.69,116.194l-12.648-12.648a49.831,49.831,0,0,0,0-70.47L206.69,20.427a67.72,67.72,0,0,1,0,95.767" transform="translate(-8.18 -0.861)" fill="#ee4f47"/>
        <path id="Trazado_913781" data-name="Trazado 913781" d="M20.741,106.638l12.648,12.648a49.831,49.831,0,0,1,70.471,0l12.648-12.648a67.718,67.718,0,0,0-95.767,0" transform="translate(-0.874 -3.659)" fill="#ffbd45"/>
        <path id="Trazado_913782" data-name="Trazado 913782" d="M19.834,107.477l12.648,12.648a49.831,49.831,0,0,0,0,70.471L19.834,203.244a67.718,67.718,0,0,1,0-95.767" transform="translate(0 -4.531)" fill="#ca7441"/>
        <path id="Trazado_913783" data-name="Trazado 913783" d="M116.194,206.622l-12.648-12.648a49.831,49.831,0,0,1-70.471,0L20.427,206.622a67.718,67.718,0,0,0,95.767,0" transform="translate(-0.861 -8.177)" fill="#ee4f47"/>
        <path id="Trazado_913784" data-name="Trazado 913784" d="M107.229,193.126l12.648,12.648a49.831,49.831,0,0,1,70.471,0L203,193.126a67.718,67.718,0,0,0-95.767,0" transform="translate(-4.52 -7.305)" fill="#ca7441"/>
        <path id="Trazado_913785" data-name="Trazado 913785" d="M106.356,194,119,206.647a49.831,49.831,0,0,0,0,70.471l-12.648,12.648a67.718,67.718,0,0,1,0-95.767" transform="translate(-3.647 -8.178)" fill="#ffbd45"/>
        <path id="Trazado_913786" data-name="Trazado 913786" d="M202.716,293.144,190.068,280.5a49.831,49.831,0,0,1-70.471,0l-12.648,12.648a67.718,67.718,0,0,0,95.767,0" transform="translate(-4.508 -11.824)" fill="#ee4f47"/>
        <path id="Trazado_913787" data-name="Trazado 913787" d="M119.852,202.964,107.2,190.316a49.831,49.831,0,0,0,0-70.471L119.852,107.2a67.718,67.718,0,0,1,0,95.767" transform="translate(-4.519 -4.519)" fill="#ffbd45"/>
        <path id="Trazado_913788" data-name="Trazado 913788" d="M206.408,289.52,193.76,276.872a49.831,49.831,0,0,0,0-70.471l12.648-12.648a67.718,67.718,0,0,1,0,95.767" transform="translate(-8.168 -8.168)" fill="#ca7441"/>
        <path id="Trazado_913789" data-name="Trazado 913789" d="M193.193,107.229l12.648,12.648a49.831,49.831,0,0,0,0,70.471L193.193,203a67.718,67.718,0,0,1,0-95.767" transform="translate(-7.308 -4.52)" fill="#ffbd45"/>
        <path id="Trazado_913790" data-name="Trazado 913790" d="M106.671,20.707l12.648,12.648a49.831,49.831,0,0,0,0,70.471l-12.648,12.648a67.718,67.718,0,0,1,0-95.767" transform="translate(-3.661 -0.873)" fill="#ee4f47"/>
      </g>
    </g>
    <path id="Trazado_914530" data-name="Trazado 914530" d="M-20.289-11.375l2.922,8.25,2.906-8.25h3.078V0h-2.352V-3.109l.234-5.367L-16.57,0H-18.18l-3.062-8.469.234,5.359V0h-2.344V-11.375ZM-7.1,0H-9.367V-8.453H-7.1ZM-9.5-10.641a1.112,1.112,0,0,1,.34-.836,1.277,1.277,0,0,1,.926-.328,1.28,1.28,0,0,1,.922.328,1.105,1.105,0,0,1,.344.836,1.108,1.108,0,0,1-.348.844,1.283,1.283,0,0,1-.918.328A1.283,1.283,0,0,1-9.152-9.8,1.108,1.108,0,0,1-9.5-10.641Zm8.836,8.3a.727.727,0,0,0-.41-.652,4.659,4.659,0,0,0-1.316-.426q-3.016-.633-3.016-2.562a2.323,2.323,0,0,1,.934-1.879,3.766,3.766,0,0,1,2.441-.754,4.053,4.053,0,0,1,2.574.758,2.388,2.388,0,0,1,.965,1.969H-.75a1.092,1.092,0,0,0-.312-.8A1.322,1.322,0,0,0-2.039-7a1.351,1.351,0,0,0-.883.258.814.814,0,0,0-.312.656.7.7,0,0,0,.355.605,3.657,3.657,0,0,0,1.2.4A9.8,9.8,0,0,1-.258-4.7,2.336,2.336,0,0,1,1.531-2.43,2.2,2.2,0,0,1,.539-.559,4.28,4.28,0,0,1-2.023.156,4.47,4.47,0,0,1-3.91-.223,3.166,3.166,0,0,1-5.2-1.262a2.414,2.414,0,0,1-.469-1.426h2.141a1.179,1.179,0,0,0,.445.922,1.766,1.766,0,0,0,1.109.32A1.635,1.635,0,0,0-1-1.691.766.766,0,0,0-.664-2.336ZM5.367,0H3.1V-8.453H5.367Zm-2.4-10.641a1.112,1.112,0,0,1,.34-.836,1.277,1.277,0,0,1,.926-.328,1.28,1.28,0,0,1,.922.328,1.105,1.105,0,0,1,.344.836,1.108,1.108,0,0,1-.348.844,1.283,1.283,0,0,1-.918.328A1.283,1.283,0,0,1,3.316-9.8,1.108,1.108,0,0,1,2.969-10.641ZM6.875-4.3a5.013,5.013,0,0,1,.484-2.242A3.546,3.546,0,0,1,8.754-8.07a4.069,4.069,0,0,1,2.113-.539A3.849,3.849,0,0,1,13.66-7.562a4.2,4.2,0,0,1,1.207,2.844l.016.578A4.418,4.418,0,0,1,13.8-1.02,3.775,3.775,0,0,1,10.883.156,3.793,3.793,0,0,1,7.965-1.016,4.5,4.5,0,0,1,6.875-4.2Zm2.258.164A3.151,3.151,0,0,0,9.586-2.3a1.5,1.5,0,0,0,1.3.637,1.5,1.5,0,0,0,1.281-.629A3.448,3.448,0,0,0,12.625-4.3a3.12,3.12,0,0,0-.461-1.828,1.5,1.5,0,0,0-1.3-.648,1.475,1.475,0,0,0-1.281.645A3.506,3.506,0,0,0,9.133-4.141ZM11.313-12h2.461L11.609-9.578H9.773Zm7.039,3.547.07.977a2.951,2.951,0,0,1,2.43-1.133,2.453,2.453,0,0,1,2,.789,3.682,3.682,0,0,1,.672,2.359V0H21.266V-5.406a1.465,1.465,0,0,0-.312-1.043,1.4,1.4,0,0,0-1.039-.324,1.553,1.553,0,0,0-1.43.813V0H16.227V-8.453Z" transform="translate(380.492 525.227)" fill="#12263f"/>
    <path id="Trazado_914531" data-name="Trazado 914531" d="M-17.371-2.82l2.578-8.555h2.609L-16.145,0H-18.59l-3.945-11.375h2.6ZM-8.879,0h-2.266V-8.453h2.266Zm-2.4-10.641a1.112,1.112,0,0,1,.34-.836,1.277,1.277,0,0,1,.926-.328,1.28,1.28,0,0,1,.922.328,1.105,1.105,0,0,1,.344.836,1.108,1.108,0,0,1-.348.844,1.283,1.283,0,0,1-.918.328A1.283,1.283,0,0,1-10.93-9.8,1.108,1.108,0,0,1-11.277-10.641Zm8.836,8.3a.727.727,0,0,0-.41-.652,4.659,4.659,0,0,0-1.316-.426q-3.016-.633-3.016-2.562A2.323,2.323,0,0,1-6.25-7.855a3.766,3.766,0,0,1,2.441-.754,4.053,4.053,0,0,1,2.574.758A2.388,2.388,0,0,1-.27-5.883H-2.527a1.092,1.092,0,0,0-.312-.8A1.322,1.322,0,0,0-3.816-7a1.351,1.351,0,0,0-.883.258.814.814,0,0,0-.312.656.7.7,0,0,0,.355.605,3.657,3.657,0,0,0,1.2.4A9.8,9.8,0,0,1-2.035-4.7,2.336,2.336,0,0,1-.246-2.43,2.2,2.2,0,0,1-1.238-.559,4.28,4.28,0,0,1-3.8.156,4.47,4.47,0,0,1-5.687-.223,3.166,3.166,0,0,1-6.98-1.262a2.414,2.414,0,0,1-.469-1.426h2.141a1.179,1.179,0,0,0,.445.922,1.766,1.766,0,0,0,1.109.32,1.635,1.635,0,0,0,.98-.246A.766.766,0,0,0-2.441-2.336ZM3.59,0H1.324V-8.453H3.59Zm-2.4-10.641a1.112,1.112,0,0,1,.34-.836,1.277,1.277,0,0,1,.926-.328,1.28,1.28,0,0,1,.922.328,1.105,1.105,0,0,1,.344.836,1.108,1.108,0,0,1-.348.844,1.283,1.283,0,0,1-.918.328A1.283,1.283,0,0,1,1.539-9.8,1.108,1.108,0,0,1,1.191-10.641ZM5.1-4.3a5.013,5.013,0,0,1,.484-2.242A3.546,3.546,0,0,1,6.977-8.07,4.069,4.069,0,0,1,9.09-8.609a3.849,3.849,0,0,1,2.793,1.047A4.2,4.2,0,0,1,13.09-4.719l.016.578A4.418,4.418,0,0,1,12.02-1.02,3.775,3.775,0,0,1,9.105.156,3.793,3.793,0,0,1,6.188-1.016,4.5,4.5,0,0,1,5.1-4.2Zm2.258.164A3.151,3.151,0,0,0,7.809-2.3a1.5,1.5,0,0,0,1.3.637,1.5,1.5,0,0,0,1.281-.629A3.448,3.448,0,0,0,10.848-4.3a3.12,3.12,0,0,0-.461-1.828,1.5,1.5,0,0,0-1.3-.648,1.475,1.475,0,0,0-1.281.645A3.506,3.506,0,0,0,7.355-4.141ZM9.535-12H12L9.832-9.578H8Zm7.039,3.547.07.977a2.951,2.951,0,0,1,2.43-1.133,2.453,2.453,0,0,1,2,.789,3.682,3.682,0,0,1,.672,2.359V0H19.488V-5.406a1.465,1.465,0,0,0-.312-1.043,1.4,1.4,0,0,0-1.039-.324,1.553,1.553,0,0,0-1.43.813V0H14.449V-8.453Z" transform="translate(465.492 613.227)" fill="#12263f"/>
    <path id="Trazado_914532" data-name="Trazado 914532" d="M-22.121-2.82l2.578-8.555h2.609L-20.895,0H-23.34l-3.945-11.375h2.6ZM-11.473,0A2.507,2.507,0,0,1-11.7-.758a2.732,2.732,0,0,1-2.133.914,3,3,0,0,1-2.059-.719,2.312,2.312,0,0,1-.816-1.812,2.389,2.389,0,0,1,1-2.062,4.915,4.915,0,0,1,2.879-.727h1.039v-.484a1.393,1.393,0,0,0-.3-.937,1.183,1.183,0,0,0-.949-.352,1.345,1.345,0,0,0-.895.273.929.929,0,0,0-.324.75H-16.52a2.268,2.268,0,0,1,.453-1.359,3,3,0,0,1,1.281-.98,4.669,4.669,0,0,1,1.859-.355,3.689,3.689,0,0,1,2.48.785,2.747,2.747,0,0,1,.918,2.207v3.664a4.041,4.041,0,0,0,.336,1.82V0ZM-13.34-1.57a1.945,1.945,0,0,0,.922-.223,1.462,1.462,0,0,0,.625-.6V-3.844h-.844q-1.7,0-1.8,1.172l-.008.133a.9.9,0,0,0,.3.7A1.153,1.153,0,0,0-13.34-1.57ZM-5.41,0H-7.676V-12H-5.41ZM-3.9-4.3a5.013,5.013,0,0,1,.484-2.242A3.546,3.546,0,0,1-2.023-8.07,4.069,4.069,0,0,1,.09-8.609,3.849,3.849,0,0,1,2.883-7.562,4.2,4.2,0,0,1,4.09-4.719l.016.578A4.418,4.418,0,0,1,3.02-1.02,3.775,3.775,0,0,1,.105.156,3.793,3.793,0,0,1-2.812-1.016,4.5,4.5,0,0,1-3.9-4.2Zm2.258.164A3.151,3.151,0,0,0-1.191-2.3a1.5,1.5,0,0,0,1.3.637,1.5,1.5,0,0,0,1.281-.629A3.448,3.448,0,0,0,1.848-4.3a3.12,3.12,0,0,0-.461-1.828,1.5,1.5,0,0,0-1.3-.648,1.475,1.475,0,0,0-1.281.645A3.506,3.506,0,0,0-1.645-4.141Zm11.891-2.2A6.134,6.134,0,0,0,9.434-6.4a1.654,1.654,0,0,0-1.68.867V0H5.5V-8.453H7.629l.063,1.008A2.092,2.092,0,0,1,9.574-8.609a2.366,2.366,0,0,1,.7.1ZM15.223.156A4.15,4.15,0,0,1,12.2-.984a4.054,4.054,0,0,1-1.168-3.039v-.219A5.106,5.106,0,0,1,11.52-6.52a3.612,3.612,0,0,1,1.395-1.547,3.914,3.914,0,0,1,2.059-.543A3.508,3.508,0,0,1,17.7-7.516a4.444,4.444,0,0,1,1,3.1v.922H13.316a2.1,2.1,0,0,0,.66,1.328,2,2,0,0,0,1.395.5,2.437,2.437,0,0,0,2.039-.945L18.52-1.367A3.389,3.389,0,0,1,17.145-.246,4.511,4.511,0,0,1,15.223.156Zm-.258-6.937a1.414,1.414,0,0,0-1.09.453,2.341,2.341,0,0,0-.535,1.3H16.48v-.18a1.669,1.669,0,0,0-.406-1.16A1.459,1.459,0,0,0,14.965-6.781Zm9.594,4.445a.727.727,0,0,0-.41-.652,4.659,4.659,0,0,0-1.316-.426q-3.016-.633-3.016-2.562a2.323,2.323,0,0,1,.934-1.879,3.766,3.766,0,0,1,2.441-.754,4.053,4.053,0,0,1,2.574.758,2.388,2.388,0,0,1,.965,1.969H24.473a1.092,1.092,0,0,0-.312-.8A1.322,1.322,0,0,0,23.184-7a1.351,1.351,0,0,0-.883.258.814.814,0,0,0-.312.656.7.7,0,0,0,.355.605,3.657,3.657,0,0,0,1.2.4,9.8,9.8,0,0,1,1.422.379A2.336,2.336,0,0,1,26.754-2.43a2.2,2.2,0,0,1-.992,1.871A4.28,4.28,0,0,1,23.2.156a4.47,4.47,0,0,1-1.887-.379A3.166,3.166,0,0,1,20.02-1.262a2.414,2.414,0,0,1-.469-1.426h2.141a1.179,1.179,0,0,0,.445.922,1.766,1.766,0,0,0,1.109.32,1.635,1.635,0,0,0,.98-.246A.766.766,0,0,0,24.559-2.336Z" transform="translate(381.492 696.227)" fill="#12263f"/>
    <path id="Trazado_914533" data-name="Trazado 914533" d="M-23.516-5.43a6.867,6.867,0,0,1-.594,2.945,4.472,4.472,0,0,1-1.7,1.953,4.7,4.7,0,0,1-2.535.688,4.732,4.732,0,0,1-2.523-.68,4.515,4.515,0,0,1-1.719-1.941,6.67,6.67,0,0,1-.617-2.9V-5.93A6.831,6.831,0,0,1-32.6-8.887a4.508,4.508,0,0,1,1.711-1.961,4.706,4.706,0,0,1,2.527-.684,4.706,4.706,0,0,1,2.527.684,4.508,4.508,0,0,1,1.711,1.961,6.811,6.811,0,0,1,.605,2.949Zm-2.375-.516a4.787,4.787,0,0,0-.641-2.719,2.088,2.088,0,0,0-1.828-.93,2.088,2.088,0,0,0-1.82.918,4.732,4.732,0,0,0-.648,2.691v.555a4.847,4.847,0,0,0,.641,2.7,2.082,2.082,0,0,0,1.844.961,2.064,2.064,0,0,0,1.813-.926,4.819,4.819,0,0,0,.641-2.7Zm11.547,1.8A5.119,5.119,0,0,1-15.211-.98,2.872,2.872,0,0,1-17.633.156,2.639,2.639,0,0,1-19.828-.9l-.1.9h-2.031V-12H-19.7v4.3a2.571,2.571,0,0,1,2.055-.914,2.9,2.9,0,0,1,2.426,1.137,5.126,5.126,0,0,1,.879,3.2ZM-16.6-4.312a3.363,3.363,0,0,0-.406-1.871,1.374,1.374,0,0,0-1.211-.59,1.489,1.489,0,0,0-1.484.883v3.336a1.509,1.509,0,0,0,1.5.891,1.394,1.394,0,0,0,1.438-1.078A5.562,5.562,0,0,0-16.6-4.312Zm6.039-4.141V.461A3.024,3.024,0,0,1-11.3,2.637a2.821,2.821,0,0,1-2.141.777,4.591,4.591,0,0,1-1.117-.133V1.492a4.238,4.238,0,0,0,.711.07q1.023,0,1.023-1.086v-8.93Zm-2.445-2.187a1.112,1.112,0,0,1,.34-.836,1.277,1.277,0,0,1,.926-.328,1.277,1.277,0,0,1,.926.328,1.112,1.112,0,0,1,.34.836,1.108,1.108,0,0,1-.348.844,1.283,1.283,0,0,1-.918.328A1.283,1.283,0,0,1-12.66-9.8,1.108,1.108,0,0,1-13.008-10.641Zm8.1,10.8A4.15,4.15,0,0,1-7.934-.984,4.054,4.054,0,0,1-9.1-4.023v-.219A5.106,5.106,0,0,1-8.609-6.52,3.612,3.612,0,0,1-7.215-8.066a3.914,3.914,0,0,1,2.059-.543,3.508,3.508,0,0,1,2.73,1.094,4.444,4.444,0,0,1,1,3.1v.922H-6.812a2.1,2.1,0,0,0,.66,1.328,2,2,0,0,0,1.395.5,2.437,2.437,0,0,0,2.039-.945l1.109,1.242A3.389,3.389,0,0,1-2.984-.246,4.511,4.511,0,0,1-4.906.156Zm-.258-6.937a1.414,1.414,0,0,0-1.09.453,2.341,2.341,0,0,0-.535,1.3h3.141v-.18a1.669,1.669,0,0,0-.406-1.16A1.459,1.459,0,0,0-5.164-6.781Zm7.719-3.75v2.078H4V-6.8H2.555v4.219a1.007,1.007,0,0,0,.18.672.9.9,0,0,0,.688.2,3.6,3.6,0,0,0,.664-.055V-.047a4.648,4.648,0,0,1-1.367.2A2.156,2.156,0,0,1,.3-2.242V-6.8H-.937V-8.453H.3v-2.078ZM7.641,0H5.375V-8.453H7.641Zm-2.4-10.641a1.112,1.112,0,0,1,.34-.836,1.277,1.277,0,0,1,.926-.328,1.28,1.28,0,0,1,.922.328,1.105,1.105,0,0,1,.344.836,1.108,1.108,0,0,1-.348.844,1.283,1.283,0,0,1-.918.328A1.283,1.283,0,0,1,5.59-9.8,1.108,1.108,0,0,1,5.242-10.641Zm7.422,7.883,1.57-5.7h2.359L13.742,0H11.586L8.734-8.453h2.359ZM17.117-4.3A5.013,5.013,0,0,1,17.6-6.547,3.546,3.546,0,0,1,19-8.07a4.069,4.069,0,0,1,2.113-.539A3.849,3.849,0,0,1,23.9-7.562a4.2,4.2,0,0,1,1.207,2.844l.016.578A4.418,4.418,0,0,1,24.039-1.02,3.775,3.775,0,0,1,21.125.156a3.793,3.793,0,0,1-2.918-1.172A4.5,4.5,0,0,1,17.117-4.2Zm2.258.164a3.151,3.151,0,0,0,.453,1.84,1.5,1.5,0,0,0,1.3.637,1.5,1.5,0,0,0,1.281-.629A3.448,3.448,0,0,0,22.867-4.3a3.12,3.12,0,0,0-.461-1.828,1.5,1.5,0,0,0-1.3-.648,1.475,1.475,0,0,0-1.281.645A3.506,3.506,0,0,0,19.375-4.141Zm11.719,1.8a.727.727,0,0,0-.41-.652,4.659,4.659,0,0,0-1.316-.426q-3.016-.633-3.016-2.562a2.323,2.323,0,0,1,.934-1.879,3.766,3.766,0,0,1,2.441-.754,4.053,4.053,0,0,1,2.574.758,2.388,2.388,0,0,1,.965,1.969H31.008a1.092,1.092,0,0,0-.312-.8A1.322,1.322,0,0,0,29.719-7a1.351,1.351,0,0,0-.883.258.814.814,0,0,0-.312.656.7.7,0,0,0,.355.605,3.657,3.657,0,0,0,1.2.4A9.8,9.8,0,0,1,31.5-4.7,2.336,2.336,0,0,1,33.289-2.43,2.2,2.2,0,0,1,32.3-.559a4.28,4.28,0,0,1-2.562.715,4.47,4.47,0,0,1-1.887-.379,3.166,3.166,0,0,1-1.293-1.039,2.414,2.414,0,0,1-.469-1.426h2.141a1.179,1.179,0,0,0,.445.922,1.766,1.766,0,0,0,1.109.32,1.635,1.635,0,0,0,.98-.246A.766.766,0,0,0,31.094-2.336Z" transform="translate(297.492 613.227)" fill="#12263f"/>
  </g>
</svg>
