<svg xmlns="http://www.w3.org/2000/svg" xmlns:xlink="http://www.w3.org/1999/xlink" width="368.949" height="368.949" viewBox="0 0 368.949 368.949">
  <defs>
    <clipPath id="clip-path">
      <rect id="Rectángulo_404210" data-name="Rectángulo 404210" width="368.949" height="368.949" fill="none"/>
    </clipPath>
  </defs>
  <g id="Grupo_1103816" data-name="Grupo 1103816" transform="translate(-1038.051 -414.229)">
    <g id="Grupo_1103285" data-name="Grupo 1103285" transform="translate(1038.051 414.229)">
      <g id="Grupo_1103284" data-name="Grupo 1103284" clip-path="url(#clip-path)">
        <path id="Trazado_913214" data-name="Trazado 913214" d="M168.259,64.443A103.815,103.815,0,1,1,64.444,168.258,103.814,103.814,0,0,1,168.259,64.443" transform="translate(16.217 16.217)" fill="#fff" fill-rule="evenodd" opacity="0.36"/>
        <path id="Trazado_913215" data-name="Trazado 913215" d="M256.453,147.385h30.924a6.127,6.127,0,0,1,.618,2.69c0,3.551-4.4,5.62-4.4,11.33a10.885,10.885,0,1,0,21.77,0c0-6.288-4.425-6.988-4.425-11.33a6.123,6.123,0,0,1,.618-2.69h35.552a183.752,183.752,0,0,1-45.3,121.077,6.121,6.121,0,0,0,1.785,3.913c2.511,2.512,7.082.864,11.12,4.9a10.884,10.884,0,1,1-15.393,15.393c-4.447-4.445-1.812-8.069-4.883-11.138a6.112,6.112,0,0,0-3.388-1.725A183.846,183.846,0,0,1,152.64,331.86V297.571a6.122,6.122,0,0,0-3.915-1.408c-3.551,0-5.62,4.4-11.33,4.4a10.885,10.885,0,0,1,0-21.77c6.288,0,6.988,4.426,11.33,4.426a6.117,6.117,0,0,0,3.915-1.408V251.2A103.443,103.443,0,0,0,223.2,223.525a6.112,6.112,0,0,0-1.613-2.84c-2.511-2.512-7.086-.865-11.123-4.9a10.885,10.885,0,0,1,15.394-15.393c4.446,4.446,1.814,8.071,4.881,11.14A6.1,6.1,0,0,0,233.09,213a103.364,103.364,0,0,0,23.363-65.611" transform="translate(31.836 37.089)" fill="#ee4f47" fill-rule="evenodd"/>
        <path id="Trazado_913216" data-name="Trazado 913216" d="M184.475,256.349v30.609a6.117,6.117,0,0,1-3.915,1.408c-4.341,0-5.04-4.425-11.329-4.425a10.885,10.885,0,1,0,0,21.77c5.71,0,7.779-4.4,11.329-4.4a6.12,6.12,0,0,1,3.915,1.408v34.288A183.847,183.847,0,0,1,56.235,285.13a6.116,6.116,0,0,0-2.6,1.548c-3.07,3.07-.436,6.694-4.883,11.14a10.884,10.884,0,1,1-15.393-15.393c4.037-4.039,8.61-2.389,11.121-4.9a6.1,6.1,0,0,0,1.646-2.979A183.762,183.762,0,0,1,0,152.535H34.18A6.117,6.117,0,0,0,35.2,149.14c0-3.551-4.4-5.619-4.4-11.33a10.885,10.885,0,0,1,21.77,0c0,6.287-4.426,6.988-4.426,11.33a6.114,6.114,0,0,0,1.023,3.394H80.66a103.368,103.368,0,0,0,23.356,65.6,6.113,6.113,0,0,0,2.314-1.456c3.07-3.069.437-6.694,4.884-11.141a10.885,10.885,0,1,1,15.393,15.394c-4.038,4.038-8.61,2.389-11.122,4.9a6.109,6.109,0,0,0-1.6,2.809,103.436,103.436,0,0,0,70.6,27.706" transform="translate(0 31.941)" fill="#12263f" fill-rule="evenodd"/>
        <path id="Trazado_913217" data-name="Trazado 913217" d="M147.386,80.659V47.727a6.114,6.114,0,0,1,4.093-1.565c3.551,0,5.62,4.4,11.33,4.4a10.885,10.885,0,1,0,0-21.77c-6.287,0-6.989,4.425-11.33,4.425a6.119,6.119,0,0,1-4.093-1.563V0A183.855,183.855,0,0,1,275.575,51.828a6.107,6.107,0,0,0,3.618-1.756c3.07-3.07.434-6.694,4.881-11.141a10.885,10.885,0,0,1,15.394,15.394c-4.039,4.039-8.61,2.391-11.121,4.9a6.124,6.124,0,0,0-1.8,4.155A183.762,183.762,0,0,1,331.86,184.474H296.307a6.123,6.123,0,0,0-.618,2.69c0,4.342,4.425,5.042,4.425,11.33a10.884,10.884,0,1,1-21.769,0c0-5.711,4.4-7.779,4.4-11.33a6.111,6.111,0,0,0-.62-2.69H251.2a103.382,103.382,0,0,0-23.7-66.029,6.115,6.115,0,0,0-2.041,1.353c-3.07,3.07-.436,6.694-4.883,11.14a10.884,10.884,0,1,1-15.393-15.393c4.038-4.038,8.61-2.391,11.121-4.9a6.079,6.079,0,0,0,1.5-2.442,103.437,103.437,0,0,0-70.418-27.542" transform="translate(37.089 0)" fill="#ca7441" fill-rule="evenodd"/>
        <path id="Trazado_913218" data-name="Trazado 913218" d="M46.168,62.415a6.114,6.114,0,0,0-1.69-3.187c-2.511-2.512-7.084-.864-11.121-4.9A10.885,10.885,0,0,1,48.75,38.932C53.2,43.38,50.563,47,53.633,50.073a6.128,6.128,0,0,0,2.807,1.6A183.84,183.84,0,0,1,184.475,0V31.654a6.119,6.119,0,0,0,4.093,1.563c4.341,0,5.043-4.425,11.33-4.425a10.884,10.884,0,1,1,0,21.769c-5.71,0-7.779-4.4-11.33-4.4a6.114,6.114,0,0,0-4.093,1.565V80.66a103.445,103.445,0,0,0-70.451,27.571,6.1,6.1,0,0,0,1.489,2.413c2.511,2.511,7.084.864,11.121,4.9a10.884,10.884,0,0,1-15.393,15.393c-4.446-4.446-1.812-8.071-4.883-11.14a6.127,6.127,0,0,0-2.009-1.341,103.384,103.384,0,0,0-23.69,66.017H49.171a6.114,6.114,0,0,1-1.023-3.394c0-4.342,4.426-5.043,4.426-11.33a10.885,10.885,0,0,0-21.77,0c0,5.71,4.4,7.779,4.4,11.33a6.117,6.117,0,0,1-1.023,3.394H0A183.761,183.761,0,0,1,46.168,62.415" fill="#ffbd45" fill-rule="evenodd"/>
      </g>
    </g>
    <path id="Trazado_914522" data-name="Trazado 914522" d="M3.156-4.008,2.453,0H.164L2.141-11.375l3.984.008a3.986,3.986,0,0,1,2.9,1.023,3.174,3.174,0,0,1,.922,2.672A3.592,3.592,0,0,1,8.551-5,5.075,5.075,0,0,1,5.313-4Zm.32-1.9,1.906.016a2.41,2.41,0,0,0,1.531-.477,1.918,1.918,0,0,0,.727-1.289,1.646,1.646,0,0,0-.262-1.3,1.418,1.418,0,0,0-1.121-.516L4.1-9.477ZM15.9-6.336a4.548,4.548,0,0,0-.742-.078,2.136,2.136,0,0,0-1.867.883L12.313,0h-2.2l1.469-8.453,2.07-.008-.2,1.031a2.325,2.325,0,0,1,1.969-1.2,3.214,3.214,0,0,1,.766.109Zm4.508-2.273a3.39,3.39,0,0,1,1.926.574A3.234,3.234,0,0,1,23.52-6.5a4.762,4.762,0,0,1,.27,2.176,5.143,5.143,0,0,1-1.4,3.262A3.96,3.96,0,0,1,19.367.156,3.38,3.38,0,0,1,17.461-.41a3.222,3.222,0,0,1-1.187-1.527A4.657,4.657,0,0,1,16-4.094a5.3,5.3,0,0,1,1.422-3.328A3.878,3.878,0,0,1,20.406-8.609ZM18.18-3.289a1.956,1.956,0,0,0,.352,1.184,1.168,1.168,0,0,0,.945.449A1.712,1.712,0,0,0,21.07-2.59a4.659,4.659,0,0,0,.539-2.535,2.127,2.127,0,0,0-.363-1.2,1.148,1.148,0,0,0-.949-.465,1.714,1.714,0,0,0-1.574.926A4.611,4.611,0,0,0,18.18-3.289ZM28.617-8.617a2.4,2.4,0,0,1,1.906.945L31.352-12h2.211L31.484,0H29.516l.125-.906a2.736,2.736,0,0,1-2.2,1.07A2.433,2.433,0,0,1,26.055-.25a2.607,2.607,0,0,1-.918-1.168,4.7,4.7,0,0,1-.355-1.7A6.4,6.4,0,0,1,24.8-4.07l.047-.352A6.767,6.767,0,0,1,25.574-6.7a3.766,3.766,0,0,1,1.313-1.461A3.094,3.094,0,0,1,28.617-8.617Zm-1.6,4.547a6.327,6.327,0,0,0-.039,1q.078,1.375,1.109,1.4A1.885,1.885,0,0,0,29.7-2.547l.6-3.359a1.248,1.248,0,0,0-1.219-.875,1.606,1.606,0,0,0-1.34.621A4.176,4.176,0,0,0,27.016-4.07Zm11.461,3.2A2.919,2.919,0,0,1,36.148.156,2.172,2.172,0,0,1,34.3-.719a3.2,3.2,0,0,1-.484-2.266l.914-5.469h2.2l-.93,5.492A2.17,2.17,0,0,0,36-2.477a.8.8,0,0,0,.867.8,2.014,2.014,0,0,0,1.7-.789l1.055-5.992h2.219L40.367,0H38.313Zm7.234-.781a1.447,1.447,0,0,0,1.016-.332,1.632,1.632,0,0,0,.531-.926l2.07-.008a3.037,3.037,0,0,1-.559,1.6A3.394,3.394,0,0,1,47.426-.211a3.847,3.847,0,0,1-1.77.375A3.123,3.123,0,0,1,43.219-.9a3.965,3.965,0,0,1-.867-2.766l.023-.43.008-.086a5.284,5.284,0,0,1,1.391-3.27,3.761,3.761,0,0,1,2.914-1.16,3.047,3.047,0,0,1,2.27.934A3.3,3.3,0,0,1,49.781-5.3H47.727a1.73,1.73,0,0,0-.3-1.07,1.128,1.128,0,0,0-.891-.422q-1.578-.047-1.914,2.3a7.782,7.782,0,0,0-.086,1.438Q44.617-1.68,45.711-1.656Zm8.938-8.875-.367,2.078h1.406L55.4-6.8H53.992l-.719,4.234a1.077,1.077,0,0,0,.063.609q.109.211.531.227.125.008.672-.039L54.383-.039a3.706,3.706,0,0,1-1.266.18A1.985,1.985,0,0,1,51.5-.539a2.456,2.456,0,0,1-.437-1.8L51.789-6.8h-1.2l.289-1.656h1.2l.359-2.078Z" transform="translate(1117.83 536.064) rotate(-49)" fill="#12263f"/>
    <path id="Trazado_914518" data-name="Trazado 914518" d="M3.156-4.008,2.453,0H.164L2.141-11.375l3.984.008a3.986,3.986,0,0,1,2.9,1.023,3.174,3.174,0,0,1,.922,2.672A3.592,3.592,0,0,1,8.551-5,5.075,5.075,0,0,1,5.313-4Zm.32-1.9,1.906.016a2.41,2.41,0,0,0,1.531-.477,1.918,1.918,0,0,0,.727-1.289,1.646,1.646,0,0,0-.262-1.3,1.418,1.418,0,0,0-1.121-.516L4.1-9.477ZM12.438,0H10.219L12.3-12h2.211ZM19.2,0a2.281,2.281,0,0,1-.086-.766,2.863,2.863,0,0,1-2.156.922,2.594,2.594,0,0,1-1.84-.723,2.186,2.186,0,0,1-.684-1.746,2.527,2.527,0,0,1,1.16-2.121,5.266,5.266,0,0,1,2.965-.738l1.031.016.109-.508a1.764,1.764,0,0,0,.023-.492.846.846,0,0,0-.277-.574.955.955,0,0,0-.629-.215,1.345,1.345,0,0,0-.875.254,1.231,1.231,0,0,0-.461.777l-2.211.008a2.457,2.457,0,0,1,1.113-1.965,4.312,4.312,0,0,1,2.613-.738,3.117,3.117,0,0,1,2.25.855,2.5,2.5,0,0,1,.68,2.121l-.648,4.047-.039.5a2.412,2.412,0,0,0,.133.938L21.359,0ZM17.5-1.555a2.017,2.017,0,0,0,1.664-.828l.273-1.461-.766-.008a2.139,2.139,0,0,0-1.758.742,1.292,1.292,0,0,0-.242.633.75.75,0,0,0,.176.668A.891.891,0,0,0,17.5-1.555Zm8.906-.1a1.447,1.447,0,0,0,1.016-.332,1.632,1.632,0,0,0,.531-.926l2.07-.008a3.037,3.037,0,0,1-.559,1.6A3.394,3.394,0,0,1,28.121-.211a3.847,3.847,0,0,1-1.77.375A3.123,3.123,0,0,1,23.914-.9a3.965,3.965,0,0,1-.867-2.766l.023-.43.008-.086a5.284,5.284,0,0,1,1.391-3.27,3.761,3.761,0,0,1,2.914-1.16,3.047,3.047,0,0,1,2.27.934A3.3,3.3,0,0,1,30.477-5.3H28.422a1.73,1.73,0,0,0-.3-1.07,1.128,1.128,0,0,0-.891-.422q-1.578-.047-1.914,2.3a7.782,7.782,0,0,0-.086,1.438Q25.313-1.68,26.406-1.656ZM34.891.156a3.677,3.677,0,0,1-1.965-.543,3.292,3.292,0,0,1-1.277-1.469,4.093,4.093,0,0,1-.328-2.059l.023-.312a5.465,5.465,0,0,1,.719-2.266,4.341,4.341,0,0,1,1.547-1.59A3.827,3.827,0,0,1,35.7-8.609a2.926,2.926,0,0,1,2.473,1.2,4.105,4.105,0,0,1,.637,2.957l-.125.961h-5.18a1.814,1.814,0,0,0,.4,1.313,1.521,1.521,0,0,0,1.172.508,2.712,2.712,0,0,0,2.109-.93L38.2-1.352A3.135,3.135,0,0,1,36.82-.23,4.5,4.5,0,0,1,34.891.156Zm.7-6.945a1.565,1.565,0,0,0-1.082.383,3.363,3.363,0,0,0-.848,1.383H36.7l.047-.2a2.071,2.071,0,0,0,.008-.594,1.134,1.134,0,0,0-.383-.707A1.2,1.2,0,0,0,35.594-6.789Zm7.266-1.672-.18.961a3.112,3.112,0,0,1,2.477-1.109,2.379,2.379,0,0,1,1.3.359,1.679,1.679,0,0,1,.7.93,3.255,3.255,0,0,1,2.625-1.289,2.126,2.126,0,0,1,1.754.8,3.271,3.271,0,0,1,.5,2.234l-.016.2L51.109,0H48.9l.9-5.4a3.9,3.9,0,0,0,.023-.539.837.837,0,0,0-.937-.844,1.86,1.86,0,0,0-1.555.969l-.023.18L46.32,0h-2.2l.9-5.383a3.9,3.9,0,0,0,.023-.539.836.836,0,0,0-.93-.852,1.867,1.867,0,0,0-1.508.789L41.547,0h-2.2L40.8-8.453ZM56.875.156A3.677,3.677,0,0,1,54.91-.387a3.292,3.292,0,0,1-1.277-1.469A4.093,4.093,0,0,1,53.3-3.914l.023-.312a5.465,5.465,0,0,1,.719-2.266,4.341,4.341,0,0,1,1.547-1.59,3.827,3.827,0,0,1,2.094-.527,2.926,2.926,0,0,1,2.473,1.2A4.105,4.105,0,0,1,60.8-4.453l-.125.961h-5.18a1.814,1.814,0,0,0,.4,1.313,1.521,1.521,0,0,0,1.172.508,2.712,2.712,0,0,0,2.109-.93l1.008,1.25A3.135,3.135,0,0,1,58.8-.23,4.5,4.5,0,0,1,56.875.156Zm.7-6.945a1.565,1.565,0,0,0-1.082.383,3.363,3.363,0,0,0-.848,1.383H58.68l.047-.2a2.071,2.071,0,0,0,.008-.594,1.134,1.134,0,0,0-.383-.707A1.2,1.2,0,0,0,57.578-6.789Zm7.234-1.672-.187,1a3.042,3.042,0,0,1,2.461-1.148,2.028,2.028,0,0,1,1.766.875,3.526,3.526,0,0,1,.414,2.359L68.375,0h-2.2l.906-5.4a2.528,2.528,0,0,0,.016-.555.9.9,0,0,0-1-.82,1.9,1.9,0,0,0-1.555.8L63.484,0h-2.2L62.75-8.453Zm9.758-2.07L74.2-8.453h1.406L75.32-6.8H73.914L73.2-2.562a1.077,1.077,0,0,0,.063.609q.109.211.531.227.125.008.672-.039L74.3-.039a3.706,3.706,0,0,1-1.266.18,1.985,1.985,0,0,1-1.617-.68,2.456,2.456,0,0,1-.437-1.8L71.711-6.8h-1.2L70.8-8.453H72l.359-2.078Z" transform="translate(1336.252 655.311) rotate(138)" fill="#12263f"/>
    <path id="Trazado_914521" data-name="Trazado 914521" d="M3.156-4.008,2.453,0H.164L2.141-11.375l3.984.008a3.986,3.986,0,0,1,2.9,1.023,3.174,3.174,0,0,1,.922,2.672A3.592,3.592,0,0,1,8.551-5,5.075,5.075,0,0,1,5.313-4Zm.32-1.9,1.906.016a2.41,2.41,0,0,0,1.531-.477,1.918,1.918,0,0,0,.727-1.289,1.646,1.646,0,0,0-.262-1.3,1.418,1.418,0,0,0-1.121-.516L4.1-9.477ZM15.9-6.336a4.548,4.548,0,0,0-.742-.078,2.136,2.136,0,0,0-1.867.883L12.313,0h-2.2l1.469-8.453,2.07-.008-.2,1.031a2.325,2.325,0,0,1,1.969-1.2,3.214,3.214,0,0,1,.766.109ZM18.18,0H15.961L17.43-8.453h2.219Zm-.492-10.6a1.1,1.1,0,0,1,.344-.867,1.209,1.209,0,0,1,.867-.344,1.215,1.215,0,0,1,.867.3,1.1,1.1,0,0,1,.383.828,1.132,1.132,0,0,1-.324.844,1.215,1.215,0,0,1-.887.375,1.235,1.235,0,0,1-.863-.3A1.091,1.091,0,0,1,17.688-10.6ZM23.75-1.656a1.447,1.447,0,0,0,1.016-.332,1.632,1.632,0,0,0,.531-.926l2.07-.008a3.037,3.037,0,0,1-.559,1.6A3.394,3.394,0,0,1,25.465-.211,3.847,3.847,0,0,1,23.7.164,3.123,3.123,0,0,1,21.258-.9a3.965,3.965,0,0,1-.867-2.766l.023-.43.008-.086a5.284,5.284,0,0,1,1.391-3.27,3.761,3.761,0,0,1,2.914-1.16A3.047,3.047,0,0,1,27-7.676,3.3,3.3,0,0,1,27.82-5.3H25.766a1.73,1.73,0,0,0-.3-1.07,1.128,1.128,0,0,0-.891-.422Q23-6.836,22.664-4.484a7.782,7.782,0,0,0-.086,1.438Q22.656-1.68,23.75-1.656ZM32.234.156A3.677,3.677,0,0,1,30.27-.387a3.292,3.292,0,0,1-1.277-1.469,4.093,4.093,0,0,1-.328-2.059l.023-.312a5.465,5.465,0,0,1,.719-2.266,4.341,4.341,0,0,1,1.547-1.59,3.827,3.827,0,0,1,2.094-.527,2.926,2.926,0,0,1,2.473,1.2,4.105,4.105,0,0,1,.637,2.957l-.125.961h-5.18a1.814,1.814,0,0,0,.4,1.313,1.521,1.521,0,0,0,1.172.508,2.712,2.712,0,0,0,2.109-.93l1.008,1.25A3.135,3.135,0,0,1,34.164-.23,4.5,4.5,0,0,1,32.234.156Zm.7-6.945a1.565,1.565,0,0,0-1.082.383,3.363,3.363,0,0,0-.848,1.383h3.031l.047-.2a2.071,2.071,0,0,0,.008-.594,1.134,1.134,0,0,0-.383-.707A1.2,1.2,0,0,0,32.938-6.789Z" transform="translate(1297.896 500.593) rotate(49)" fill="#fff1f0"/>
    <path id="Trazado_914520" data-name="Trazado 914520" d="M3.156-4.008,2.453,0H.164L2.141-11.375l3.984.008a3.986,3.986,0,0,1,2.9,1.023,3.174,3.174,0,0,1,.922,2.672A3.592,3.592,0,0,1,8.551-5,5.075,5.075,0,0,1,5.313-4Zm.32-1.9,1.906.016a2.41,2.41,0,0,0,1.531-.477,1.918,1.918,0,0,0,.727-1.289,1.646,1.646,0,0,0-.262-1.3,1.418,1.418,0,0,0-1.121-.516L4.1-9.477ZM15.9-6.336a4.548,4.548,0,0,0-.742-.078,2.136,2.136,0,0,0-1.867.883L12.313,0h-2.2l1.469-8.453,2.07-.008-.2,1.031a2.325,2.325,0,0,1,1.969-1.2,3.214,3.214,0,0,1,.766.109Zm4.508-2.273a3.39,3.39,0,0,1,1.926.574A3.234,3.234,0,0,1,23.52-6.5a4.762,4.762,0,0,1,.27,2.176,5.143,5.143,0,0,1-1.4,3.262A3.96,3.96,0,0,1,19.367.156,3.38,3.38,0,0,1,17.461-.41a3.222,3.222,0,0,1-1.187-1.527A4.657,4.657,0,0,1,16-4.094a5.3,5.3,0,0,1,1.422-3.328A3.878,3.878,0,0,1,20.406-8.609ZM18.18-3.289a1.956,1.956,0,0,0,.352,1.184,1.168,1.168,0,0,0,.945.449A1.712,1.712,0,0,0,21.07-2.59a4.659,4.659,0,0,0,.539-2.535,2.127,2.127,0,0,0-.363-1.2,1.148,1.148,0,0,0-.949-.465,1.714,1.714,0,0,0-1.574.926A4.611,4.611,0,0,0,18.18-3.289Zm9.758-5.172-.18.961a3.112,3.112,0,0,1,2.477-1.109,2.379,2.379,0,0,1,1.3.359,1.679,1.679,0,0,1,.7.93,3.255,3.255,0,0,1,2.625-1.289,2.126,2.126,0,0,1,1.754.8,3.271,3.271,0,0,1,.5,2.234l-.016.2L36.188,0H33.977l.9-5.4a3.9,3.9,0,0,0,.023-.539.837.837,0,0,0-.937-.844,1.86,1.86,0,0,0-1.555.969l-.023.18L31.4,0H29.2l.9-5.383a3.9,3.9,0,0,0,.023-.539.836.836,0,0,0-.93-.852,1.867,1.867,0,0,0-1.508.789L26.625,0h-2.2l1.461-8.453Zm14.836-.148a3.39,3.39,0,0,1,1.926.574A3.234,3.234,0,0,1,45.887-6.5a4.762,4.762,0,0,1,.27,2.176,5.143,5.143,0,0,1-1.4,3.262A3.96,3.96,0,0,1,41.734.156,3.38,3.38,0,0,1,39.828-.41a3.222,3.222,0,0,1-1.187-1.527,4.657,4.657,0,0,1-.273-2.156,5.3,5.3,0,0,1,1.422-3.328A3.878,3.878,0,0,1,42.773-8.609Zm-2.227,5.32A1.956,1.956,0,0,0,40.9-2.105a1.168,1.168,0,0,0,.945.449,1.712,1.712,0,0,0,1.594-.934,4.659,4.659,0,0,0,.539-2.535,2.127,2.127,0,0,0-.363-1.2,1.148,1.148,0,0,0-.949-.465,1.714,1.714,0,0,0-1.574.926A4.611,4.611,0,0,0,40.547-3.289Zm10.711-7.242-.367,2.078H52.3L52.008-6.8H50.6l-.719,4.234a1.077,1.077,0,0,0,.063.609q.109.211.531.227.125.008.672-.039L50.992-.039a3.706,3.706,0,0,1-1.266.18,1.985,1.985,0,0,1-1.617-.68,2.456,2.456,0,0,1-.437-1.8L48.4-6.8H47.2l.289-1.656h1.2l.359-2.078ZM54.438,0H52.219l1.469-8.453h2.219Zm-.492-10.6a1.1,1.1,0,0,1,.344-.867,1.209,1.209,0,0,1,.867-.344,1.215,1.215,0,0,1,.867.3,1.1,1.1,0,0,1,.383.828,1.132,1.132,0,0,1-.324.844,1.215,1.215,0,0,1-.887.375,1.235,1.235,0,0,1-.863-.3A1.091,1.091,0,0,1,53.945-10.6Zm7.2,1.992a3.39,3.39,0,0,1,1.926.574A3.234,3.234,0,0,1,64.254-6.5a4.762,4.762,0,0,1,.27,2.176,5.143,5.143,0,0,1-1.4,3.262A3.96,3.96,0,0,1,60.1.156,3.38,3.38,0,0,1,58.2-.41a3.222,3.222,0,0,1-1.187-1.527,4.657,4.657,0,0,1-.273-2.156,5.3,5.3,0,0,1,1.422-3.328A3.878,3.878,0,0,1,61.141-8.609Zm-2.227,5.32a1.956,1.956,0,0,0,.352,1.184,1.168,1.168,0,0,0,.945.449A1.712,1.712,0,0,0,61.8-2.59a4.659,4.659,0,0,0,.539-2.535,2.127,2.127,0,0,0-.363-1.2,1.148,1.148,0,0,0-.949-.465,1.714,1.714,0,0,0-1.574.926A4.611,4.611,0,0,0,58.914-3.289Zm9.727-5.172-.187,1a3.042,3.042,0,0,1,2.461-1.148,2.028,2.028,0,0,1,1.766.875,3.526,3.526,0,0,1,.414,2.359L72.2,0H70l.906-5.4a2.528,2.528,0,0,0,.016-.555.9.9,0,0,0-1-.82,1.9,1.9,0,0,0-1.555.8L67.313,0h-2.2l1.469-8.453Z" transform="translate(1156.375 706.406) rotate(-130)" fill="#ffdfde"/>
    <path id="Trazado_914519" data-name="Trazado 914519" d="M6.141,5.625l1.4,8.227,4.242-8.227h3.047L12.852,17h-2.3l.563-3.242L12.227,8.7,7.867,17H6.3L4.773,8.406l-.734,5.6L3.516,17H1.227L3.2,5.625ZM19.648,17a2.281,2.281,0,0,1-.086-.766,2.863,2.863,0,0,1-2.156.922,2.594,2.594,0,0,1-1.84-.723,2.186,2.186,0,0,1-.684-1.746,2.527,2.527,0,0,1,1.16-2.121,5.266,5.266,0,0,1,2.965-.738l1.031.016.109-.508a1.764,1.764,0,0,0,.023-.492.846.846,0,0,0-.277-.574.955.955,0,0,0-.629-.215,1.345,1.345,0,0,0-.875.254,1.231,1.231,0,0,0-.461.777l-2.211.008a2.457,2.457,0,0,1,1.113-1.965,4.312,4.312,0,0,1,2.613-.738,3.117,3.117,0,0,1,2.25.855,2.5,2.5,0,0,1,.68,2.121l-.648,4.047-.039.5a2.412,2.412,0,0,0,.133.938L21.813,17Zm-1.7-1.555a2.017,2.017,0,0,0,1.664-.828l.273-1.461-.766-.008a2.139,2.139,0,0,0-1.758.742,1.292,1.292,0,0,0-.242.633.75.75,0,0,0,.176.668A.891.891,0,0,0,17.953,15.445Zm10.992-4.781a4.548,4.548,0,0,0-.742-.078,2.136,2.136,0,0,0-1.867.883L25.359,17h-2.2l1.469-8.453,2.07-.008-.2,1.031a2.325,2.325,0,0,1,1.969-1.2,3.214,3.214,0,0,1,.766.109Zm3.609,2.969-1.023.891L31.1,17H28.9L30.977,5h2.211l-1.141,6.516.43-.461,2.508-2.508h2.828l-3.7,3.633L36.469,17H34.055Zm8.727,3.523a3.677,3.677,0,0,1-1.965-.543,3.292,3.292,0,0,1-1.277-1.469,4.093,4.093,0,0,1-.328-2.059l.023-.312a5.465,5.465,0,0,1,.719-2.266A4.341,4.341,0,0,1,40,8.918a3.827,3.827,0,0,1,2.094-.527,2.926,2.926,0,0,1,2.473,1.2,4.105,4.105,0,0,1,.637,2.957l-.125.961H39.9a1.814,1.814,0,0,0,.4,1.313,1.521,1.521,0,0,0,1.172.508,2.712,2.712,0,0,0,2.109-.93l1.008,1.25a3.135,3.135,0,0,1-1.375,1.121A4.5,4.5,0,0,1,41.281,17.156Zm.7-6.945a1.565,1.565,0,0,0-1.082.383,3.363,3.363,0,0,0-.848,1.383h3.031l.047-.2a2.071,2.071,0,0,0,.008-.594,1.134,1.134,0,0,0-.383-.707A1.2,1.2,0,0,0,41.984,10.211ZM50.2,6.469l-.367,2.078h1.406L50.953,10.2H49.547l-.719,4.234a1.077,1.077,0,0,0,.063.609q.109.211.531.227.125.008.672-.039l-.156,1.727a3.706,3.706,0,0,1-1.266.18,1.985,1.985,0,0,1-1.617-.68,2.456,2.456,0,0,1-.437-1.8l.727-4.461h-1.2l.289-1.656h1.2l.359-2.078ZM53.383,17H51.164l1.469-8.453h2.219ZM52.891,6.4a1.1,1.1,0,0,1,.344-.867,1.323,1.323,0,0,1,1.734-.039,1.1,1.1,0,0,1,.383.828,1.132,1.132,0,0,1-.324.844,1.215,1.215,0,0,1-.887.375,1.235,1.235,0,0,1-.863-.3A1.091,1.091,0,0,1,52.891,6.4Zm5.844,2.141-.187,1a3.042,3.042,0,0,1,2.461-1.148,2.028,2.028,0,0,1,1.766.875,3.526,3.526,0,0,1,.414,2.359L62.3,17h-2.2L61,11.6a2.528,2.528,0,0,0,.016-.555.9.9,0,0,0-1-.82,1.9,1.9,0,0,0-1.555.8L57.406,17H55.2l1.469-8.453Zm5.711,4.227a5.849,5.849,0,0,1,1.277-3.184,3.242,3.242,0,0,1,2.629-1.2,2.37,2.37,0,0,1,2.016.977l.289-.82,2.023.008L71.3,16.711a3.983,3.983,0,0,1-1.437,2.672,4.471,4.471,0,0,1-3,.953,4.168,4.168,0,0,1-1.672-.379,3.575,3.575,0,0,1-1.312-1l1.094-1.344a2.349,2.349,0,0,0,1.844.961,2.166,2.166,0,0,0,1.469-.449,2.4,2.4,0,0,0,.828-1.355l.125-.508a2.749,2.749,0,0,1-2.07.891,2.428,2.428,0,0,1-1.961-.918,3.947,3.947,0,0,1-.8-2.348A7.89,7.89,0,0,1,64.445,12.766Zm2.164.922a2.015,2.015,0,0,0,.309,1.176,1.08,1.08,0,0,0,.895.465,1.973,1.973,0,0,0,1.594-.766l.656-3.578a1.3,1.3,0,0,0-1.242-.766,1.729,1.729,0,0,0-1.43.68,3.552,3.552,0,0,0-.734,1.867A8.189,8.189,0,0,0,66.609,13.688ZM29.156,22.625l1.4,8.227L34.8,22.625h3.047L35.867,34h-2.3l.563-3.242L35.242,25.7,30.883,34h-1.57l-1.523-8.594-.734,5.6L26.531,34H24.242l1.977-11.375ZM40.1,34H37.883l1.469-8.453H41.57Zm-.492-10.6a1.1,1.1,0,0,1,.344-.867,1.323,1.323,0,0,1,1.734-.039,1.1,1.1,0,0,1,.383.828,1.132,1.132,0,0,1-.324.844,1.215,1.215,0,0,1-.887.375,1.235,1.235,0,0,1-.863-.3A1.091,1.091,0,0,1,39.609,23.4Zm6.43,4.656,1.773-2.508h2.477L47.227,29.8,48.938,34H46.7l-1.039-2.641L43.8,34H41.3l3.188-4.422-1.633-4.031h2.234Z" transform="translate(1185.051 613)" fill="#12263f"/>
    <g id="Grupo_1103286" data-name="Grupo 1103286" transform="translate(1087.375 496.203) rotate(-48)">
      <path id="Trazado_913223" data-name="Trazado 913223" d="M30.656,25.274a.487.487,0,0,0,.486-.486V2.486A.487.487,0,0,0,30.656,2H8.354a.484.484,0,0,0-.486.486V15.339c-.024.01-.049.019-.068.029l-.9-.9a.492.492,0,0,0-.69,0L3.571,17.106a.47.47,0,0,0-.141.34.481.481,0,0,0,.141.345l.9.9a7.383,7.383,0,0,0-.456,1.1H2.746a.487.487,0,0,0-.486.486v3.729a.484.484,0,0,0,.486.486H4.018a7.437,7.437,0,0,0,.456,1.1l-.9.9a.489.489,0,0,0-.141.345.481.481,0,0,0,.141.345l2.642,2.637a.489.489,0,0,0,.69,0l.9-.9a8.3,8.3,0,0,0,1.1.456v1.272a.487.487,0,0,0,.486.486h3.734a.487.487,0,0,0,.486-.486V29.377a7.257,7.257,0,0,0,1.1-.456l.9.9a.489.489,0,0,0,.69,0l2.637-2.637a.481.481,0,0,0,.141-.345.489.489,0,0,0-.141-.345l-.9-.9c.053-.107.1-.214.146-.32Zm-15.9-3.132a3.508,3.508,0,1,1-3.506-3.506A3.512,3.512,0,0,1,14.759,22.142ZM8.84,2.971h7.206V9.793a.487.487,0,0,0,.486.486h5.948a.487.487,0,0,0,.486-.486V2.971h7.206V24.3H20.144c.015-.019.024-.049.039-.073a.152.152,0,0,0,.024-.049.419.419,0,0,0,.039-.175V20.277a.487.487,0,0,0-.486-.486H18.483a7.258,7.258,0,0,0-.456-1.1l.9-.9a.484.484,0,0,0,0-.685l-2.637-2.642a.489.489,0,0,0-.69,0l-.9.9a7.528,7.528,0,0,0-1.1-.456V13.639a.484.484,0,0,0-.486-.486H9.383a.484.484,0,0,0-.486.486v1.272c-.019,0-.039.015-.058.019V2.971Z" fill="#12263f"/>
      <path id="Trazado_913224" data-name="Trazado 913224" d="M44.884,42.976a.485.485,0,0,0,.486-.486v-2.58a.486.486,0,0,0-.971,0v2.58A.485.485,0,0,0,44.884,42.976Z" transform="translate(-21.677 -19.252)" fill="#12263f"/>
      <path id="Trazado_913225" data-name="Trazado 913225" d="M47.643,42.976a.485.485,0,0,0,.486-.486v-2.58a.486.486,0,0,0-.971,0v2.58A.485.485,0,0,0,47.643,42.976Z" transform="translate(-23.096 -19.252)" fill="#12263f"/>
      <path id="Trazado_913226" data-name="Trazado 913226" d="M50.4,42.976a.485.485,0,0,0,.486-.486v-2.58a.486.486,0,0,0-.971,0v2.58A.485.485,0,0,0,50.4,42.976Z" transform="translate(-24.516 -19.252)" fill="#12263f"/>
      <path id="Trazado_913227" data-name="Trazado 913227" d="M53.162,42.976a.485.485,0,0,0,.486-.486v-2.58a.486.486,0,0,0-.971,0v2.58A.485.485,0,0,0,53.162,42.976Z" transform="translate(-25.935 -19.252)" fill="#12263f"/>
      <path id="Trazado_913228" data-name="Trazado 913228" d="M55.921,42.976a.485.485,0,0,0,.486-.486v-2.58a.486.486,0,1,0-.971,0v2.58A.485.485,0,0,0,55.921,42.976Z" transform="translate(-27.355 -19.252)" fill="#12263f"/>
    </g>
    <g id="Grupo_1103287" data-name="Grupo 1103287" transform="translate(1314.993 490.207) rotate(-39)">
      <path id="Trazado_913229" data-name="Trazado 913229" d="M25.839,4.958a14.336,14.336,0,0,1-1.784,6.9.767.767,0,0,1-1.311-.8,13,13,0,0,0,1.561-6.1,3.153,3.153,0,0,0-3.068-3.424A3.071,3.071,0,0,0,18.169,4.6a24.263,24.263,0,0,0,.483,3.2.767.767,0,0,1-1.5.314A25.219,25.219,0,0,1,16.633,4.6a4.609,4.609,0,0,1,4.6-4.6A4.685,4.685,0,0,1,25.839,4.958ZM21.367,6.165c.305,2.549.747,7.516.239,8.022L10.46,25.334a1.755,1.755,0,0,1-2.484,0L.523,17.881a1.756,1.756,0,0,1,0-2.484L11.67,4.251a16.61,16.61,0,0,1,4.273-.072c-.012.143-.043.278-.043.424a15.184,15.184,0,0,0,.252,2.176,2.109,2.109,0,1,0,2.95-.55A12.857,12.857,0,0,1,18.9,4.6c0-.068.014-.131.02-.2.267.028.53.057.779.088C21.172,4.674,21.187,4.671,21.367,6.165Zm-5.941,8.342a4.805,4.805,0,0,0-1.086-1.722l.846-.847L14.244,11l-.913.914A2.494,2.494,0,0,0,9.994,12c-.932.932-.712,2.115-.028,3.49.47.952.556,1.5.191,1.865s-.98.212-1.529-.336A4.8,4.8,0,0,1,7.456,15l-1.414.838a5.51,5.51,0,0,0,1.23,2.037l-.922.923.941.942.991-.99a2.584,2.584,0,0,0,3.48-.057c.875-.877.952-1.857.2-3.414-.52-1.116-.645-1.664-.337-1.971.27-.27.75-.347,1.375.278A4.227,4.227,0,0,1,14.05,15.3Z" fill="#fff1f0"/>
    </g>
    <g id="Grupo_1103289" data-name="Grupo 1103289" transform="translate(1117.854 671.748) rotate(90)">
      <g id="Grupo_1103288" data-name="Grupo 1103288" transform="translate(10.11 -0.001)">
        <path id="Trazado_913233" data-name="Trazado 913233" d="M34.4,10.984l-.939,1.443a.782.782,0,0,0,0,.853l.94,1.444a2.46,2.46,0,0,1-1.183,3.639l-1.608.616a.784.784,0,0,0-.5.69l-.088,1.719a2.461,2.461,0,0,1-3.1,2.25l-1.662-.447a.784.784,0,0,0-.812.264L24.37,24.794a2.46,2.46,0,0,1-3.827,0L19.46,23.455a.782.782,0,0,0-.811-.264l-1.662.447a2.461,2.461,0,0,1-3.1-2.249l-.088-1.72a.782.782,0,0,0-.5-.69l-1.608-.615a2.46,2.46,0,0,1-1.183-3.64l.938-1.442a.784.784,0,0,0,0-.854l-.939-1.443a2.46,2.46,0,0,1,1.183-3.64L13.3,6.728a.783.783,0,0,0,.5-.69l.088-1.72a2.461,2.461,0,0,1,3.1-2.249l1.662.447a.784.784,0,0,0,.812-.264L20.543.913a2.461,2.461,0,0,1,3.828,0l1.082,1.339a.784.784,0,0,0,.811.264l1.664-.448a2.461,2.461,0,0,1,3.1,2.25l.088,1.719a.784.784,0,0,0,.5.691l1.608.615A2.461,2.461,0,0,1,34.4,10.984ZM19.063,17.375A1.678,1.678,0,1,0,17.385,15.7,1.68,1.68,0,0,0,19.063,17.375Zm6.153-9.509a1.678,1.678,0,1,0,1.678,1.678A1.68,1.68,0,0,0,25.216,7.866Zm1.432,8.077L18.817,8.112A.839.839,0,0,0,17.631,9.3l7.831,7.831a.839.839,0,0,0,1.187-1.186Z" transform="translate(-10.11 0.001)" fill="#ffdfde"/>
      </g>
    </g>
    <path id="Trazado_913234" data-name="Trazado 913234" d="M19.771,52.392l2.754,3.579a.784.784,0,0,1-.1,1.06l-.947.86a.788.788,0,0,1-1.155-.1l-3.053-3.953Zm15.108-9.186h2.805a.813.813,0,0,0,0-1.626H34.875a.813.813,0,0,0,0,1.626ZM31.549,35.82l1.4-2.429a.813.813,0,0,0-1.406-.816L30.144,35a.813.813,0,0,0,1.406.816Zm3.245,2.91,2.3-1.33a.817.817,0,1,0-.817-1.416l-2.3,1.33a.817.817,0,1,0,.817,1.416Zm-3.622,3.658,2.716,4.7a1.854,1.854,0,0,1-3.1,2.024h0A21.97,21.97,0,0,0,19.97,50.669l-3.744-6.485a21.923,21.923,0,0,0,6.762-8.573h0a1.854,1.854,0,0,1,3.294-1.694L29,38.622a2.194,2.194,0,1,1,2.175,3.766ZM19.029,51.355,15.106,44.56l-3.119,1.8A3.99,3.99,0,0,0,10.531,51.8h0a3.99,3.99,0,0,0,5.435,1.456l3.119-1.8Z" transform="translate(1345 751.637) rotate(180)" fill="#12263f" fill-rule="evenodd"/>
    <g id="XMLID_1228_" transform="translate(1192.901 543.728)">
      <g id="XMLID_1749_" transform="translate(0.991 1.625)">
        <g id="XMLID_1548_" transform="translate(3.467 17.783)">
          <path id="XMLID_1681_" d="M38.239,462.083a4.929,4.929,0,0,0,4.882,4.3H79.276a4.929,4.929,0,0,0,4.882-4.3Zm25.029,2.8H59.252a.618.618,0,0,1,0-1.235h4.016a.618.618,0,0,1,0,1.235Z" transform="translate(-38.239 -426.729)" fill="#12263f"/>
          <g id="XMLID_1949_" transform="translate(10.75 0)">
            <g id="XMLID_1220_" transform="translate(13.437)">
              <path id="XMLID_1419_" d="M272.758,249.223a1.422,1.422,0,0,0-.048-1.1,1.44,1.44,0,0,0-1.911-.694l-1.107.515.346.741.37-.172a.618.618,0,0,1,.521,1.12l-.369.172.346.741c.672-.313,1.573-.561,1.852-1.327Z" transform="translate(-266.892 -236.988)" fill="#12263f"/>
              <path id="XMLID_1466_" d="M249.174,161.133c-1.647-1.762-2.723-2.26-3.117-2.26-.156,0-.208.116-.255.247-.428,1.177.231,4.8,2.192,9.576l1.069-.5a2.67,2.67,0,1,1,2.258,4.84l-1.067.5a37.881,37.881,0,0,0,3.431,5.475c1.747,2.246,2.632,2.457,2.774,2.392.013-.006.128-.067.248-.4.671-1.843-.107-7.047-2.532-12.241a30.083,30.083,0,0,0-5-7.632Z" transform="translate(-245.677 -158.873)" fill="#12263f"/>
            </g>
            <g id="XMLID_1428_" transform="translate(0 3.739)">
              <path id="XMLID_1611_" d="M159.009,279.161c-.566.305-1.158.562-1.74.834a13.582,13.582,0,0,0,2.6,5.576,22.7,22.7,0,0,1,2.594-1.1,14.776,14.776,0,0,1-2.689-5.759c-.25.156-.508.306-.768.446h0C158.444,279.467,159.062,279.133,159.009,279.161Zm2.4,4.428a.618.618,0,0,1-.3.821l-.663.309a.618.618,0,0,1-.521-1.12l.663-.309a.618.618,0,0,1,.82.3Zm-.986-1.675a.618.618,0,0,1-.3.821l-.663.309a.618.618,0,0,1-.521-1.12l.663-.309a.617.617,0,0,1,.82.3Zm-1-.888-.663.309a.618.618,0,0,1-.521-1.12l.663-.309a.618.618,0,0,1,.521,1.12Z" transform="translate(-154.14 -268.48)" fill="#12263f"/>
              <path id="XMLID_1623_" d="M132.42,294.265l-.211.1a3.077,3.077,0,1,0,2.605,5.575l.21-.1A14.817,14.817,0,0,1,132.42,294.265Z" transform="translate(-130.437 -282.217)" fill="#12263f"/>
              <path id="XMLID_1624_" d="M197.232,199.991a43.167,43.167,0,0,1-3.2-9.052l-.993,3.307a13.261,13.261,0,0,1-4.777,6.164,13.54,13.54,0,0,0,2.88,6.168,13.292,13.292,0,0,1,7.8.308l3.173,1.365a43.192,43.192,0,0,1-4.888-8.26Z" transform="translate(-181.524 -190.939)" fill="#12263f"/>
            </g>
          </g>
        </g>
        <path id="XMLID_1429_" d="M411.834,320.461a4.524,4.524,0,1,0,4.516,4.524A4.525,4.525,0,0,0,411.834,320.461Zm.34,6.69v.753h-.756v-.711a1.811,1.811,0,0,1-1.023-.385l.272-.757a1.843,1.843,0,0,0,1.042.374c.376,0,.629-.2.629-.487,0-.2-.077-.408-.649-.639-.622-.243-1.2-.569-1.2-1.3a1.256,1.256,0,0,1,1.01-1.2v-.7h.756v.655a1.873,1.873,0,0,1,.875.314l-.283.745a1.806,1.806,0,0,0-.923-.3c-.4,0-.542.211-.542.408,0,.213.1.35.724.606a1.479,1.479,0,0,1,1.123,1.365A1.271,1.271,0,0,1,412.173,327.151Z" transform="translate(-360.816 -283.837)" fill="#12263f"/>
        <path id="XMLID_1956_" d="M203.228,6.363a5.142,5.142,0,1,0,5.133,5.142A5.143,5.143,0,0,0,203.228,6.363Zm.34,7.307v.753h-.756v-.711a1.888,1.888,0,0,1-1.023-.385l.272-.757a1.847,1.847,0,0,0,1.042.374c.376,0,.629-.2.629-.487,0-.2-.077-.408-.649-.639-.622-.243-1.2-.57-1.2-1.3a1.256,1.256,0,0,1,1.01-1.2v-.7h.756v.655a1.97,1.97,0,0,1,.875.314l-.283.744a1.808,1.808,0,0,0-.923-.3c-.4,0-.542.211-.542.408,0,.212.1.35.724.606a1.479,1.479,0,0,1,1.123,1.365,1.27,1.27,0,0,1-1.059,1.26Z" transform="translate(-175.989 -6.363)" fill="#12263f"/>
        <g id="XMLID_367_" transform="translate(6.11 25.776)">
          <g id="XMLID_1498_" transform="translate(3.426 3.54)">
            <path id="XMLID_1605_" d="M194.073,344.944l-5.5-8.2a18.04,18.04,0,0,0-2.828,1.119l4.905,8.68ZM191.3,343.3a.737.737,0,1,1-.357.979A.738.738,0,0,1,191.3,343.3Z" transform="translate(-174.612 -327.535)" fill="#12263f"/>
            <path id="XMLID_1628_" d="M118.944,257.792a28.328,28.328,0,0,1,1.883,7.519,8.168,8.168,0,0,1-.313,3.695l0,.006c-.054.12-.441,1.456-2.2.827l-6.415-2.76a11.676,11.676,0,0,0-6.369-.376l5.642,8.41a.624.624,0,0,1-.252.9l-4.6,2.141a.624.624,0,0,1-.8-.256l-5.234-9.262-.427.2a4.312,4.312,0,1,1-3.648-7.815l2.5-1.164a13.5,13.5,0,0,0,3.1-2.067H93.073a6.828,6.828,0,0,1-2.79,5.518l.023,17.067h33.768V257.792Z" transform="translate(-90.283 -257.792)" fill="#12263f"/>
          </g>
          <path id="XMLID_1141_" d="M116.469,229.736a11.464,11.464,0,0,0,1.668-2.3h-12.7a6.734,6.734,0,0,1,.9,2.3Z" transform="translate(-100.24 -227.431)" fill="#12263f"/>
          <path id="XMLID_1445_" d="M63.1,311.23a6.731,6.731,0,0,1-2.19.563v15.792h2.214Z" transform="translate(-60.904 -301.459)" fill="#12263f"/>
          <path id="XMLID_1497_" d="M332.478,228.524a1.094,1.094,0,0,0-1.094-1.093h-9.058c.237.454.464.914.679,1.375.145.311.284.621.417.93h6.256a.617.617,0,0,1,.617.618v23.2h2.181V246.65a5.754,5.754,0,0,1,0-7.7Z" transform="translate(-291.844 -227.431)" fill="#12263f"/>
        </g>
        <g id="XMLID_1229_" transform="translate(0 23.816)">
          <path id="XMLID_1413_" d="M71.688,258.983c-.354,0-.516.545-.516,1.052,0,.315.06,1.043.516,1.043s.507-.741.507-1.06S72.146,258.983,71.688,258.983Z" transform="translate(-63.865 -253.344)" fill="#12263f"/>
          <path id="XMLID_1418_" d="M32.758,239.039c-.4,0-.507.661-.507,1.051-.007.314.046,1.043.507,1.043s.507-.741.507-1.06C33.264,239.687,33.2,239.039,32.758,239.039Z" transform="translate(-29.481 -235.725)" fill="#12263f"/>
          <path id="XMLID_1755_" d="M14.048,210.618a5.541,5.541,0,1,0,5.545,5.541A5.55,5.55,0,0,0,14.048,210.618Zm-3.821,4.393c0-1.164.649-1.976,1.578-1.976s1.526.727,1.526,1.9c0,1.376-.788,1.992-1.569,1.992C11.006,216.923,10.238,216.332,10.227,215.011Zm2.534,4.272h-.99l3.555-6.248h.99Zm3.547-.034c-.756,0-1.524-.589-1.534-1.9,0-1.371.792-1.985,1.578-1.985.936,0,1.517.727,1.517,1.9C17.869,218.633,17.085,219.249,16.309,219.249Z" transform="translate(-8.503 -210.618)" fill="#12263f"/>
        </g>
        <g id="XMLID_1750_" transform="translate(38.402 0.916)">
          <g id="XMLID_485_">
            <path id="XMLID_1227_" d="M406.979,42.416l-3.248,1.718,3.248,1.718Z" transform="translate(-396.049 -39.128)" fill="#12263f"/>
            <path id="XMLID_1469_" d="M356.775,24.258V14.221h-18.9l-.005,10.037h18.9Zm-12.3-5.861,4.182-2.211a.946.946,0,0,1,1.375.829v4.423a.946.946,0,0,1-1.375.829l-4.182-2.211a.947.947,0,0,1,0-1.659Z" transform="translate(-337.869 -14.221)" fill="#12263f"/>
            <path id="XMLID_1752_" d="M337.852,110.895l0,3.718h18.907v-3.718Zm2.822,2.464h-1.253a.618.618,0,0,1,0-1.235h1.253a.618.618,0,0,1,0,1.235Zm11.051,0h-5.132a1.08,1.08,0,0,1-1.774,0h-1.962a.618.618,0,0,1,0-1.235h1.962a1.08,1.08,0,0,1,1.774,0h5.132a.618.618,0,0,1,0,1.235Zm3.489,0h-.01v.01a.617.617,0,1,1-1.235,0v-.01h-.01a.618.618,0,0,1,0-1.235h.01v-.01a.617.617,0,1,1,1.235,0v.01h.01a.618.618,0,0,1,0,1.235Z" transform="translate(-337.85 -99.623)" fill="#12263f"/>
          </g>
        </g>
      </g>
      <g id="XMLID_1223_" transform="translate(0 1)">
        <path id="XMLID_2140_" d="M39.324,19.727a8.85,8.85,0,0,0,3.435.688h7.71a1.027,1.027,0,1,0-.009-2.055H48.712a.48.48,0,0,1,0-.96h2.6a1.027,1.027,0,1,0-.01-2.055h-2.07a.482.482,0,0,1-.005-.96h2.93a1.027,1.027,0,1,0-.009-2.055H49.417a.475.475,0,0,1-.475-.475.484.484,0,0,1,.475-.485H53a1.024,1.024,0,0,0,1.023-1.023A1.037,1.037,0,0,0,53,9.315L45.236,9.3A.919.919,0,0,1,44.4,8.07a19.078,19.078,0,0,0,.73-2.2A5.79,5.79,0,0,0,43.722,1a23.019,23.019,0,0,1-2.2,5.887,8.958,8.958,0,0,1-2.193,2.52v10.32Z" transform="translate(-34.739 -1)" fill="#12263f"/>
        <path id="XMLID_2144_" d="M0,71.309v10.9H3.631v-10.9Zm1.815,9.16a.844.844,0,1,1,.844-.844A.844.844,0,0,1,1.815,80.469Z" transform="translate(0 -63.111)" fill="#12263f"/>
      </g>
    </g>
  </g>
</svg>
