<svg xmlns="http://www.w3.org/2000/svg" xmlns:xlink="http://www.w3.org/1999/xlink" width="398.196" height="397.5" viewBox="0 0 398.196 397.5">
  <defs>
    <clipPath id="clip-path">
      <rect id="Rectángulo_404231" data-name="Rectángulo 404231" width="398.196" height="397.5" fill="none"/>
    </clipPath>
    <clipPath id="clip-path-2">
      <rect id="Rectángulo_404228" data-name="Rectángulo 404228" width="398.197" height="397.5" fill="none"/>
    </clipPath>
    <clipPath id="clip-path-3">
      <rect id="Rectángulo_404221" data-name="Rectángulo 404221" width="305.218" height="305.218" fill="none"/>
    </clipPath>
    <clipPath id="clip-path-4">
      <path id="Trazado_913648" data-name="Trazado 913648" d="M305.219,152.609A152.609,152.609,0,1,1,152.609,0a152.609,152.609,0,0,1,152.61,152.609" fill="none"/>
    </clipPath>
    <radialGradient id="radial-gradient" cx="-0.148" cy="1.157" r="0.001" gradientTransform="translate(0)" gradientUnits="objectBoundingBox">
      <stop offset="0"/>
      <stop offset="0.169" stop-color="#383838"/>
      <stop offset="0.396" stop-color="#7e7e7e"/>
      <stop offset="0.601" stop-color="#b5b5b5"/>
      <stop offset="0.776" stop-color="#ddd"/>
      <stop offset="0.915" stop-color="#f5f5f5"/>
      <stop offset="1" stop-color="#fff"/>
    </radialGradient>
    <clipPath id="clip-path-6">
      <rect id="Rectángulo_404222" data-name="Rectángulo 404222" width="155.519" height="204.594" fill="none"/>
    </clipPath>
    <clipPath id="clip-path-7">
      <rect id="Rectángulo_404223" data-name="Rectángulo 404223" width="176.766" height="171.161" fill="none"/>
    </clipPath>
    <clipPath id="clip-path-10">
      <rect id="Rectángulo_404226" data-name="Rectángulo 404226" width="214.209" height="144.312" fill="none"/>
    </clipPath>
    <clipPath id="clip-path-11">
      <path id="Trazado_913739" data-name="Trazado 913739" d="M0,53.012A53.012,53.012,0,1,0,53.012,0,53.012,53.012,0,0,0,0,53.012" fill="#fff9f5"/>
    </clipPath>
  </defs>
  <g id="Grupo_1103817" data-name="Grupo 1103817" transform="translate(-233.453 -401.75)">
    <g id="Grupo_1103477" data-name="Grupo 1103477" transform="translate(631.649 799.25) rotate(180)">
      <g id="Grupo_1103476" data-name="Grupo 1103476" clip-path="url(#clip-path)">
        <g id="Grupo_1103471" data-name="Grupo 1103471" transform="translate(0 0)">
          <g id="Grupo_1103470" data-name="Grupo 1103470" clip-path="url(#clip-path-2)">
            <g id="Grupo_1103451" data-name="Grupo 1103451" transform="translate(45.205 44.508)" style="mix-blend-mode: multiply;isolation: isolate">
              <g id="Grupo_1103450" data-name="Grupo 1103450">
                <g id="Grupo_1103449" data-name="Grupo 1103449" clip-path="url(#clip-path-3)">
                  <g id="Grupo_1103448" data-name="Grupo 1103448" transform="translate(0 0)">
                    <g id="Grupo_1103447" data-name="Grupo 1103447" clip-path="url(#clip-path-4)">
                      <rect id="Rectángulo_404220" data-name="Rectángulo 404220" width="305.219" height="305.219" transform="translate(0 0)" fill="url(#radial-gradient)"/>
                    </g>
                  </g>
                </g>
              </g>
            </g>
            <path id="Trazado_913649" data-name="Trazado 913649" d="M125.063,0V86.676a44.8,44.8,0,0,0-42.6,30.943L0,90.827A131.52,131.52,0,0,1,125.063,0" transform="translate(68.133 61.036)" fill="#f6ccb3"/>
            <path id="Trazado_913650" data-name="Trazado 913650" d="M125.063,90.827,42.6,117.62A44.8,44.8,0,0,0,0,86.676V0A131.52,131.52,0,0,1,125.063,90.827" transform="translate(193.195 61.036)" fill="#ee4f47"/>
            <path id="Trazado_913651" data-name="Trazado 913651" d="M105.139,76.869,54.186,147A131.654,131.654,0,0,1,6.4,0L88.861,26.793a44.824,44.824,0,0,0,16.278,50.075" transform="translate(61.733 151.863)" fill="#ca7441"/>
            <path id="Trazado_913652" data-name="Trazado 913652" d="M105.139,40.636A131.285,131.285,0,0,1,50.953,147L0,76.869A44.725,44.725,0,0,0,18.462,40.636a44.722,44.722,0,0,0-2.185-13.843L98.739,0a131.353,131.353,0,0,1,6.4,40.636" transform="translate(219.519 151.863)" fill="#ff7d30"/>
            <path id="Trazado_913653" data-name="Trazado 913653" d="M154.554,70.13a130.865,130.865,0,0,1-77.277,25.1A130.865,130.865,0,0,1,0,70.13L50.953,0A44.584,44.584,0,0,0,77.277,8.553,44.584,44.584,0,0,0,103.6,0Z" transform="translate(115.918 228.731)" fill="#ffbd45"/>
            <g id="Grupo_1103469" data-name="Grupo 1103469" transform="translate(0 0)" opacity="0.5">
              <g id="Grupo_1103468" data-name="Grupo 1103468">
                <g id="Grupo_1103467" data-name="Grupo 1103467" clip-path="url(#clip-path)">
                  <g id="Grupo_1103454" data-name="Grupo 1103454" transform="translate(0 146.416)" opacity="0.5" style="mix-blend-mode: multiply;isolation: isolate">
                    <g id="Grupo_1103453" data-name="Grupo 1103453">
                      <g id="Grupo_1103452" data-name="Grupo 1103452" clip-path="url(#clip-path-6)">
                        <path id="Trazado_913654" data-name="Trazado 913654" d="M143.119,92.46a3.108,3.108,0,0,0-.144-3.837,65.552,65.552,0,0,1-15.6-42.54q0-2.468.182-4.89a3.113,3.113,0,0,0-2.139-3.2L8.952.153a3.114,3.114,0,0,0-3.995,2.27,193.5,193.5,0,0,0,61.656,189.61,3.107,3.107,0,0,0,4.546-.529Z" transform="translate(11.806 11.806)" fill="#fff"/>
                        <path id="Trazado_913655" data-name="Trazado 913655" d="M143.119,92.46a3.107,3.107,0,0,0-.144-3.837,65.553,65.553,0,0,1-15.6-42.54q0-2.468.182-4.89a3.113,3.113,0,0,0-2.139-3.2L8.952.153A3.114,3.114,0,0,0,4.957,2.423a193.5,193.5,0,0,0,61.656,189.61,3.107,3.107,0,0,0,4.546-.529Z" transform="translate(11.068 11.068)" fill="#fafafa"/>
                        <path id="Trazado_913656" data-name="Trazado 913656" d="M143.119,92.46a3.107,3.107,0,0,0-.144-3.837,65.553,65.553,0,0,1-15.6-42.54q0-2.468.182-4.89a3.113,3.113,0,0,0-2.139-3.2L8.952.153a3.114,3.114,0,0,0-3.995,2.27,193.5,193.5,0,0,0,61.656,189.61,3.107,3.107,0,0,0,4.546-.529Z" transform="translate(10.33 10.33)" fill="#f4f4f4"/>
                        <path id="Trazado_913657" data-name="Trazado 913657" d="M143.119,92.46a3.107,3.107,0,0,0-.144-3.837,65.552,65.552,0,0,1-15.6-42.54q0-2.468.182-4.89a3.113,3.113,0,0,0-2.139-3.2L8.952.153a3.114,3.114,0,0,0-3.995,2.27,193.5,193.5,0,0,0,61.656,189.61,3.107,3.107,0,0,0,4.546-.529Z" transform="translate(9.592 9.592)" fill="#efefef"/>
                        <path id="Trazado_913658" data-name="Trazado 913658" d="M143.119,92.46a3.108,3.108,0,0,0-.144-3.837,65.552,65.552,0,0,1-15.6-42.54q0-2.468.182-4.89a3.113,3.113,0,0,0-2.139-3.2L8.952.153a3.114,3.114,0,0,0-3.995,2.27,193.5,193.5,0,0,0,61.656,189.61,3.107,3.107,0,0,0,4.546-.529Z" transform="translate(8.855 8.854)" fill="#e9e9e9"/>
                        <path id="Trazado_913659" data-name="Trazado 913659" d="M143.119,92.46a3.108,3.108,0,0,0-.144-3.837,65.551,65.551,0,0,1-15.6-42.54q0-2.468.182-4.89a3.113,3.113,0,0,0-2.139-3.2L8.952.153a3.115,3.115,0,0,0-3.995,2.27A193.5,193.5,0,0,0,66.614,192.033a3.107,3.107,0,0,0,4.546-.529Z" transform="translate(8.117 8.116)" fill="#e4e4e4"/>
                        <path id="Trazado_913660" data-name="Trazado 913660" d="M143.119,92.459a3.108,3.108,0,0,0-.144-3.837,65.551,65.551,0,0,1-15.6-42.54q0-2.468.182-4.89a3.112,3.112,0,0,0-2.139-3.2L8.952.153A3.114,3.114,0,0,0,4.957,2.423a193.5,193.5,0,0,0,61.656,189.61,3.107,3.107,0,0,0,4.546-.529Z" transform="translate(7.379 7.378)" fill="#dedede"/>
                        <path id="Trazado_913661" data-name="Trazado 913661" d="M143.119,92.46a3.108,3.108,0,0,0-.144-3.837,65.551,65.551,0,0,1-15.6-42.54q0-2.468.182-4.89a3.113,3.113,0,0,0-2.139-3.2L8.952.153a3.115,3.115,0,0,0-3.995,2.27,193.5,193.5,0,0,0,61.656,189.61,3.107,3.107,0,0,0,4.546-.529Z" transform="translate(6.641 6.64)" fill="#d9d9d9"/>
                        <path id="Trazado_913662" data-name="Trazado 913662" d="M143.119,92.46a3.107,3.107,0,0,0-.144-3.837,65.553,65.553,0,0,1-15.6-42.54q0-2.468.182-4.89a3.113,3.113,0,0,0-2.139-3.2L8.952.153a3.114,3.114,0,0,0-3.995,2.27,193.5,193.5,0,0,0,61.656,189.61,3.107,3.107,0,0,0,4.546-.529Z" transform="translate(5.903 5.903)" fill="#d3d3d3"/>
                        <path id="Trazado_913663" data-name="Trazado 913663" d="M143.119,92.46a3.107,3.107,0,0,0-.144-3.837,65.552,65.552,0,0,1-15.6-42.54q0-2.468.182-4.89a3.113,3.113,0,0,0-2.139-3.2L8.952.153a3.114,3.114,0,0,0-3.995,2.27,193.5,193.5,0,0,0,61.656,189.61,3.107,3.107,0,0,0,4.546-.529Z" transform="translate(5.165 5.164)" fill="#cecece"/>
                        <path id="Trazado_913664" data-name="Trazado 913664" d="M143.119,92.46a3.108,3.108,0,0,0-.144-3.837,65.551,65.551,0,0,1-15.6-42.54q0-2.468.182-4.89a3.113,3.113,0,0,0-2.139-3.2L8.952.153a3.115,3.115,0,0,0-3.995,2.27,193.5,193.5,0,0,0,61.656,189.61,3.107,3.107,0,0,0,4.546-.529Z" transform="translate(4.427 4.427)" fill="#c9c9c9"/>
                        <path id="Trazado_913665" data-name="Trazado 913665" d="M143.119,92.46a3.108,3.108,0,0,0-.144-3.837,65.551,65.551,0,0,1-15.6-42.54q0-2.468.182-4.89a3.113,3.113,0,0,0-2.139-3.2L8.952.153a3.114,3.114,0,0,0-3.995,2.27,193.5,193.5,0,0,0,61.656,189.61,3.107,3.107,0,0,0,4.546-.529Z" transform="translate(3.689 3.689)" fill="#c3c3c3"/>
                        <path id="Trazado_913666" data-name="Trazado 913666" d="M143.119,92.46a3.108,3.108,0,0,0-.144-3.837,65.552,65.552,0,0,1-15.6-42.54q0-2.468.182-4.89a3.113,3.113,0,0,0-2.139-3.2L8.952.153a3.114,3.114,0,0,0-3.995,2.27,193.5,193.5,0,0,0,61.656,189.61,3.107,3.107,0,0,0,4.546-.529Z" transform="translate(2.952 2.951)" fill="#bebebe"/>
                        <path id="Trazado_913667" data-name="Trazado 913667" d="M143.119,92.46a3.108,3.108,0,0,0-.144-3.837,65.552,65.552,0,0,1-15.6-42.54q0-2.468.182-4.89a3.113,3.113,0,0,0-2.139-3.2L8.952.153a3.114,3.114,0,0,0-3.995,2.27,193.5,193.5,0,0,0,61.656,189.61,3.107,3.107,0,0,0,4.546-.529Z" transform="translate(2.214 2.213)" fill="#b8b8b8"/>
                        <path id="Trazado_913668" data-name="Trazado 913668" d="M143.119,92.459a3.107,3.107,0,0,0-.144-3.837,65.552,65.552,0,0,1-15.6-42.54q0-2.467.182-4.89a3.113,3.113,0,0,0-2.139-3.2L8.952.153a3.114,3.114,0,0,0-3.995,2.27A193.5,193.5,0,0,0,66.614,192.032a3.107,3.107,0,0,0,4.546-.529Z" transform="translate(1.476 1.475)" fill="#b3b3b3"/>
                        <path id="Trazado_913669" data-name="Trazado 913669" d="M143.119,92.46a3.108,3.108,0,0,0-.144-3.837,65.551,65.551,0,0,1-15.6-42.54q0-2.468.182-4.89a3.113,3.113,0,0,0-2.139-3.2L8.952.153a3.114,3.114,0,0,0-3.995,2.27,193.5,193.5,0,0,0,61.656,189.61,3.107,3.107,0,0,0,4.546-.529Z" transform="translate(0.738 0.737)" fill="#adadad"/>
                        <path id="Trazado_913670" data-name="Trazado 913670" d="M143.119,92.46a3.108,3.108,0,0,0-.144-3.837,65.552,65.552,0,0,1-15.6-42.54q0-2.468.182-4.89a3.113,3.113,0,0,0-2.139-3.2L8.952.153a3.115,3.115,0,0,0-3.995,2.27,193.5,193.5,0,0,0,61.656,189.61,3.107,3.107,0,0,0,4.546-.529Z" transform="translate(0 -0.001)" fill="#a8a8a8"/>
                      </g>
                    </g>
                  </g>
                  <g id="Grupo_1103457" data-name="Grupo 1103457" transform="translate(14.982)" opacity="0.5" style="mix-blend-mode: multiply;isolation: isolate">
                    <g id="Grupo_1103456" data-name="Grupo 1103456">
                      <g id="Grupo_1103455" data-name="Grupo 1103455" clip-path="url(#clip-path-7)">
                        <path id="Trazado_913671" data-name="Trazado 913671" d="M122.227,157.884a65.921,65.921,0,0,1,40.364-29.336,3.106,3.106,0,0,0,2.369-3.019V3.112A3.108,3.108,0,0,0,161.6.011,193.328,193.328,0,0,0,.245,117.2a3.106,3.106,0,0,0,1.908,4.159L118.625,159.2a3.107,3.107,0,0,0,3.6-1.318" transform="translate(11.806 11.806)" fill="#fff"/>
                        <path id="Trazado_913672" data-name="Trazado 913672" d="M122.227,157.884a65.921,65.921,0,0,1,40.364-29.336,3.106,3.106,0,0,0,2.369-3.019V3.112A3.107,3.107,0,0,0,161.6.011,193.328,193.328,0,0,0,.245,117.2a3.106,3.106,0,0,0,1.908,4.159L118.625,159.2a3.107,3.107,0,0,0,3.6-1.318" transform="translate(11.068 11.068)" fill="#fafafa"/>
                        <path id="Trazado_913673" data-name="Trazado 913673" d="M122.227,157.884a65.922,65.922,0,0,1,40.364-29.336,3.105,3.105,0,0,0,2.369-3.019V3.112A3.108,3.108,0,0,0,161.6.011,193.328,193.328,0,0,0,.245,117.2a3.106,3.106,0,0,0,1.908,4.159L118.625,159.2a3.108,3.108,0,0,0,3.6-1.319" transform="translate(10.33 10.33)" fill="#f4f4f4"/>
                        <path id="Trazado_913674" data-name="Trazado 913674" d="M122.227,157.884a65.921,65.921,0,0,1,40.364-29.336,3.106,3.106,0,0,0,2.369-3.019V3.112A3.107,3.107,0,0,0,161.6.011,193.328,193.328,0,0,0,.245,117.2a3.106,3.106,0,0,0,1.908,4.159L118.625,159.2a3.107,3.107,0,0,0,3.6-1.318" transform="translate(9.593 9.592)" fill="#efefef"/>
                        <path id="Trazado_913675" data-name="Trazado 913675" d="M122.227,157.884a65.921,65.921,0,0,1,40.364-29.336,3.106,3.106,0,0,0,2.369-3.019V3.112A3.107,3.107,0,0,0,161.6.011,193.328,193.328,0,0,0,.245,117.2a3.106,3.106,0,0,0,1.908,4.159L118.625,159.2a3.107,3.107,0,0,0,3.6-1.318" transform="translate(8.855 8.854)" fill="#e9e9e9"/>
                        <path id="Trazado_913676" data-name="Trazado 913676" d="M122.227,157.884a65.921,65.921,0,0,1,40.364-29.336,3.106,3.106,0,0,0,2.369-3.019V3.112A3.108,3.108,0,0,0,161.6.011,193.328,193.328,0,0,0,.245,117.2a3.106,3.106,0,0,0,1.908,4.159L118.625,159.2a3.107,3.107,0,0,0,3.6-1.318" transform="translate(8.117 8.116)" fill="#e4e4e4"/>
                        <path id="Trazado_913677" data-name="Trazado 913677" d="M122.227,157.884a65.921,65.921,0,0,1,40.364-29.336,3.106,3.106,0,0,0,2.369-3.019V3.112A3.108,3.108,0,0,0,161.6.011,193.328,193.328,0,0,0,.245,117.2a3.106,3.106,0,0,0,1.908,4.159L118.625,159.2a3.107,3.107,0,0,0,3.6-1.318" transform="translate(7.379 7.379)" fill="#dedede"/>
                        <path id="Trazado_913678" data-name="Trazado 913678" d="M122.227,157.884a65.921,65.921,0,0,1,40.364-29.336,3.106,3.106,0,0,0,2.369-3.019V3.112A3.107,3.107,0,0,0,161.6.011,193.328,193.328,0,0,0,.245,117.2a3.106,3.106,0,0,0,1.908,4.159L118.625,159.2a3.107,3.107,0,0,0,3.6-1.318" transform="translate(6.641 6.641)" fill="#d9d9d9"/>
                        <path id="Trazado_913679" data-name="Trazado 913679" d="M122.227,157.884a65.921,65.921,0,0,1,40.364-29.336,3.105,3.105,0,0,0,2.369-3.019V3.112A3.108,3.108,0,0,0,161.6.011,193.328,193.328,0,0,0,.245,117.2a3.106,3.106,0,0,0,1.908,4.159L118.625,159.2a3.107,3.107,0,0,0,3.6-1.318" transform="translate(5.903 5.903)" fill="#d3d3d3"/>
                        <path id="Trazado_913680" data-name="Trazado 913680" d="M122.227,157.884a65.921,65.921,0,0,1,40.364-29.336,3.106,3.106,0,0,0,2.369-3.019V3.112A3.107,3.107,0,0,0,161.6.011,193.328,193.328,0,0,0,.245,117.2a3.106,3.106,0,0,0,1.908,4.159L118.625,159.2a3.107,3.107,0,0,0,3.6-1.318" transform="translate(5.165 5.165)" fill="#cecece"/>
                        <path id="Trazado_913681" data-name="Trazado 913681" d="M122.227,157.884a65.921,65.921,0,0,1,40.364-29.336,3.105,3.105,0,0,0,2.369-3.019V3.112A3.108,3.108,0,0,0,161.6.011,193.329,193.329,0,0,0,.245,117.2a3.106,3.106,0,0,0,1.908,4.159L118.625,159.2a3.107,3.107,0,0,0,3.6-1.319" transform="translate(4.427 4.427)" fill="#c9c9c9"/>
                        <path id="Trazado_913682" data-name="Trazado 913682" d="M122.227,157.884a65.921,65.921,0,0,1,40.364-29.336,3.106,3.106,0,0,0,2.369-3.019V3.112A3.108,3.108,0,0,0,161.6.011,193.328,193.328,0,0,0,.245,117.2a3.106,3.106,0,0,0,1.908,4.159L118.625,159.2a3.107,3.107,0,0,0,3.6-1.318" transform="translate(3.69 3.689)" fill="#c3c3c3"/>
                        <path id="Trazado_913683" data-name="Trazado 913683" d="M122.227,157.884a65.921,65.921,0,0,1,40.364-29.336,3.106,3.106,0,0,0,2.369-3.019V3.112A3.108,3.108,0,0,0,161.6.011,193.328,193.328,0,0,0,.245,117.2a3.106,3.106,0,0,0,1.908,4.159L118.625,159.2a3.107,3.107,0,0,0,3.6-1.318" transform="translate(2.952 2.951)" fill="#bebebe"/>
                        <path id="Trazado_913684" data-name="Trazado 913684" d="M122.227,157.884a65.921,65.921,0,0,1,40.364-29.336,3.106,3.106,0,0,0,2.369-3.019V3.112A3.107,3.107,0,0,0,161.6.011,193.328,193.328,0,0,0,.245,117.2a3.106,3.106,0,0,0,1.908,4.159L118.625,159.2a3.107,3.107,0,0,0,3.6-1.318" transform="translate(2.214 2.213)" fill="#b8b8b8"/>
                        <path id="Trazado_913685" data-name="Trazado 913685" d="M122.227,157.884a65.921,65.921,0,0,1,40.364-29.336,3.105,3.105,0,0,0,2.369-3.019V3.112A3.108,3.108,0,0,0,161.6.011,193.328,193.328,0,0,0,.245,117.2a3.106,3.106,0,0,0,1.908,4.159L118.625,159.2a3.107,3.107,0,0,0,3.6-1.318" transform="translate(1.476 1.476)" fill="#b3b3b3"/>
                        <path id="Trazado_913686" data-name="Trazado 913686" d="M122.227,157.884a65.921,65.921,0,0,1,40.364-29.336,3.106,3.106,0,0,0,2.369-3.019V3.112A3.108,3.108,0,0,0,161.6.011,193.329,193.329,0,0,0,.245,117.2a3.106,3.106,0,0,0,1.908,4.159L118.625,159.2a3.107,3.107,0,0,0,3.6-1.318" transform="translate(0.738 0.738)" fill="#adadad"/>
                        <path id="Trazado_913687" data-name="Trazado 913687" d="M122.227,157.884a65.921,65.921,0,0,1,40.364-29.336,3.106,3.106,0,0,0,2.369-3.019V3.112A3.108,3.108,0,0,0,161.6.011,193.328,193.328,0,0,0,.245,117.2a3.106,3.106,0,0,0,1.908,4.159L118.625,159.2a3.107,3.107,0,0,0,3.6-1.318" transform="translate(0 0)" fill="#a8a8a8"/>
                      </g>
                    </g>
                  </g>
                  <g id="Grupo_1103460" data-name="Grupo 1103460" transform="translate(206.448)" opacity="0.5" style="mix-blend-mode: multiply;isolation: isolate">
                    <g id="Grupo_1103459" data-name="Grupo 1103459">
                      <g id="Grupo_1103458" data-name="Grupo 1103458" clip-path="url(#clip-path-7)">
                        <path id="Trazado_913688" data-name="Trazado 913688" d="M2.369,128.548a65.922,65.922,0,0,1,40.364,29.337,3.107,3.107,0,0,0,3.6,1.318l116.471-37.844a3.106,3.106,0,0,0,1.908-4.159A193.328,193.328,0,0,0,3.363.011,3.107,3.107,0,0,0,0,3.112V125.529a3.105,3.105,0,0,0,2.369,3.019" transform="translate(11.806 11.806)" fill="#fff"/>
                        <path id="Trazado_913689" data-name="Trazado 913689" d="M2.369,128.548a65.921,65.921,0,0,1,40.364,29.336,3.107,3.107,0,0,0,3.6,1.318l116.471-37.844a3.107,3.107,0,0,0,1.908-4.159A193.329,193.329,0,0,0,3.363.011,3.108,3.108,0,0,0,0,3.112V125.529a3.106,3.106,0,0,0,2.369,3.019" transform="translate(11.068 11.068)" fill="#fafafa"/>
                        <path id="Trazado_913690" data-name="Trazado 913690" d="M2.369,128.548a65.921,65.921,0,0,1,40.364,29.336,3.107,3.107,0,0,0,3.6,1.318l116.471-37.844a3.106,3.106,0,0,0,1.908-4.159A193.329,193.329,0,0,0,3.363.011,3.107,3.107,0,0,0,0,3.112V125.529a3.105,3.105,0,0,0,2.369,3.019" transform="translate(10.33 10.33)" fill="#f4f4f4"/>
                        <path id="Trazado_913691" data-name="Trazado 913691" d="M2.369,128.548a65.921,65.921,0,0,1,40.364,29.337,3.108,3.108,0,0,0,3.6,1.318l116.471-37.844a3.106,3.106,0,0,0,1.908-4.159A193.328,193.328,0,0,0,3.363.011,3.107,3.107,0,0,0,0,3.112V125.529a3.106,3.106,0,0,0,2.369,3.019" transform="translate(9.593 9.592)" fill="#efefef"/>
                        <path id="Trazado_913692" data-name="Trazado 913692" d="M2.369,128.548a65.921,65.921,0,0,1,40.364,29.336,3.107,3.107,0,0,0,3.6,1.318l116.472-37.844a3.106,3.106,0,0,0,1.908-4.159A193.329,193.329,0,0,0,3.363.011,3.108,3.108,0,0,0,0,3.112V125.529a3.106,3.106,0,0,0,2.369,3.019" transform="translate(8.854 8.854)" fill="#e9e9e9"/>
                        <path id="Trazado_913693" data-name="Trazado 913693" d="M2.369,128.548a65.921,65.921,0,0,1,40.364,29.336,3.107,3.107,0,0,0,3.6,1.318l116.472-37.844a3.107,3.107,0,0,0,1.908-4.159A193.329,193.329,0,0,0,3.363.011,3.108,3.108,0,0,0,0,3.112V125.529a3.106,3.106,0,0,0,2.369,3.019" transform="translate(8.117 8.117)" fill="#e4e4e4"/>
                        <path id="Trazado_913694" data-name="Trazado 913694" d="M2.369,128.548a65.921,65.921,0,0,1,40.364,29.336,3.107,3.107,0,0,0,3.6,1.318l116.471-37.844a3.106,3.106,0,0,0,1.908-4.159A193.328,193.328,0,0,0,3.363.011,3.107,3.107,0,0,0,0,3.112V125.529a3.106,3.106,0,0,0,2.369,3.019" transform="translate(7.379 7.379)" fill="#dedede"/>
                        <path id="Trazado_913695" data-name="Trazado 913695" d="M2.369,128.548a65.921,65.921,0,0,1,40.364,29.336,3.107,3.107,0,0,0,3.6,1.318l116.472-37.844a3.106,3.106,0,0,0,1.908-4.159A193.328,193.328,0,0,0,3.363.011,3.108,3.108,0,0,0,0,3.112V125.529a3.106,3.106,0,0,0,2.369,3.019" transform="translate(6.641 6.641)" fill="#d9d9d9"/>
                        <path id="Trazado_913696" data-name="Trazado 913696" d="M2.369,128.548a65.921,65.921,0,0,1,40.364,29.337,3.108,3.108,0,0,0,3.6,1.318l116.471-37.844a3.106,3.106,0,0,0,1.908-4.159A193.328,193.328,0,0,0,3.363.011,3.107,3.107,0,0,0,0,3.112V125.529a3.106,3.106,0,0,0,2.369,3.019" transform="translate(5.903 5.903)" fill="#d3d3d3"/>
                        <path id="Trazado_913697" data-name="Trazado 913697" d="M2.369,128.548a65.92,65.92,0,0,1,40.364,29.336,3.107,3.107,0,0,0,3.6,1.318l116.471-37.844a3.106,3.106,0,0,0,1.908-4.159A193.328,193.328,0,0,0,3.363.011,3.107,3.107,0,0,0,0,3.112V125.529a3.106,3.106,0,0,0,2.369,3.019" transform="translate(5.165 5.165)" fill="#cecece"/>
                        <path id="Trazado_913698" data-name="Trazado 913698" d="M2.369,128.548a65.92,65.92,0,0,1,40.364,29.336,3.107,3.107,0,0,0,3.6,1.318l116.471-37.844a3.106,3.106,0,0,0,1.908-4.159A193.328,193.328,0,0,0,3.363.011,3.108,3.108,0,0,0,0,3.112V125.529a3.106,3.106,0,0,0,2.369,3.019" transform="translate(4.427 4.427)" fill="#c9c9c9"/>
                        <path id="Trazado_913699" data-name="Trazado 913699" d="M2.369,128.548a65.921,65.921,0,0,1,40.364,29.336,3.107,3.107,0,0,0,3.6,1.318l116.471-37.844a3.107,3.107,0,0,0,1.908-4.159A193.328,193.328,0,0,0,3.363.011,3.108,3.108,0,0,0,0,3.112V125.529a3.106,3.106,0,0,0,2.369,3.019" transform="translate(3.689 3.689)" fill="#c3c3c3"/>
                        <path id="Trazado_913700" data-name="Trazado 913700" d="M2.369,128.548a65.921,65.921,0,0,1,40.364,29.336,3.107,3.107,0,0,0,3.6,1.318l116.472-37.844a3.106,3.106,0,0,0,1.908-4.159A193.328,193.328,0,0,0,3.363.011,3.107,3.107,0,0,0,0,3.112V125.529a3.106,3.106,0,0,0,2.369,3.019" transform="translate(2.951 2.951)" fill="#bebebe"/>
                        <path id="Trazado_913701" data-name="Trazado 913701" d="M2.369,128.548a65.921,65.921,0,0,1,40.364,29.337,3.108,3.108,0,0,0,3.6,1.318l116.471-37.844a3.106,3.106,0,0,0,1.908-4.159A193.328,193.328,0,0,0,3.363.011,3.107,3.107,0,0,0,0,3.112V125.529a3.105,3.105,0,0,0,2.369,3.019" transform="translate(2.214 2.214)" fill="#b8b8b8"/>
                        <path id="Trazado_913702" data-name="Trazado 913702" d="M2.369,128.548a65.92,65.92,0,0,1,40.364,29.336,3.107,3.107,0,0,0,3.6,1.318l116.471-37.844a3.106,3.106,0,0,0,1.908-4.159A193.328,193.328,0,0,0,3.363.011,3.108,3.108,0,0,0,0,3.112V125.529a3.106,3.106,0,0,0,2.369,3.019" transform="translate(1.476 1.476)" fill="#b3b3b3"/>
                        <path id="Trazado_913703" data-name="Trazado 913703" d="M2.369,128.548a65.921,65.921,0,0,1,40.364,29.336,3.107,3.107,0,0,0,3.6,1.318l116.472-37.844a3.106,3.106,0,0,0,1.908-4.159A193.328,193.328,0,0,0,3.363.011,3.107,3.107,0,0,0,0,3.112V125.529a3.106,3.106,0,0,0,2.369,3.019" transform="translate(0.738 0.738)" fill="#adadad"/>
                        <path id="Trazado_913704" data-name="Trazado 913704" d="M2.369,128.548a65.921,65.921,0,0,1,40.364,29.336,3.107,3.107,0,0,0,3.6,1.318l116.471-37.844a3.106,3.106,0,0,0,1.908-4.159A193.328,193.328,0,0,0,3.363.011,3.107,3.107,0,0,0,0,3.112V125.529a3.106,3.106,0,0,0,2.369,3.019" transform="translate(0 0)" fill="#a8a8a8"/>
                      </g>
                    </g>
                  </g>
                  <g id="Grupo_1103463" data-name="Grupo 1103463" transform="translate(242.677 146.416)" opacity="0.5" style="mix-blend-mode: multiply;isolation: isolate">
                    <g id="Grupo_1103462" data-name="Grupo 1103462">
                      <g id="Grupo_1103461" data-name="Grupo 1103461" clip-path="url(#clip-path-6)">
                        <path id="Trazado_913705" data-name="Trazado 913705" d="M18.29,38a3.113,3.113,0,0,0-2.139,3.2q.18,2.422.182,4.89a65.55,65.55,0,0,1-15.6,42.54A3.108,3.108,0,0,0,.594,92.46L72.553,191.5a3.107,3.107,0,0,0,4.546.529,192.744,192.744,0,0,0,66.613-145.95,193.749,193.749,0,0,0-4.957-43.66,3.114,3.114,0,0,0-3.995-2.27Z" transform="translate(11.807 11.805)" fill="#fff"/>
                        <path id="Trazado_913706" data-name="Trazado 913706" d="M18.29,38a3.113,3.113,0,0,0-2.139,3.2q.18,2.422.183,4.89a65.551,65.551,0,0,1-15.6,42.54A3.108,3.108,0,0,0,.594,92.46L72.553,191.5a3.107,3.107,0,0,0,4.546.529,192.746,192.746,0,0,0,66.614-145.95,193.749,193.749,0,0,0-4.958-43.66A3.114,3.114,0,0,0,134.76.153Z" transform="translate(11.069 11.068)" fill="#fafafa"/>
                        <path id="Trazado_913707" data-name="Trazado 913707" d="M18.29,38a3.113,3.113,0,0,0-2.139,3.2q.18,2.422.182,4.89a65.552,65.552,0,0,1-15.6,42.54A3.107,3.107,0,0,0,.594,92.46L72.553,191.5a3.107,3.107,0,0,0,4.546.529,192.745,192.745,0,0,0,66.613-145.95,193.751,193.751,0,0,0-4.958-43.66A3.115,3.115,0,0,0,134.76.153Z" transform="translate(10.331 10.33)" fill="#f4f4f4"/>
                        <path id="Trazado_913708" data-name="Trazado 913708" d="M18.29,38a3.113,3.113,0,0,0-2.139,3.2q.18,2.422.183,4.89a65.551,65.551,0,0,1-15.6,42.54A3.108,3.108,0,0,0,.594,92.46L72.553,191.5a3.107,3.107,0,0,0,4.546.529,192.744,192.744,0,0,0,66.614-145.95,193.742,193.742,0,0,0-4.958-43.66A3.114,3.114,0,0,0,134.76.153Z" transform="translate(9.593 9.592)" fill="#efefef"/>
                        <path id="Trazado_913709" data-name="Trazado 913709" d="M18.29,38a3.113,3.113,0,0,0-2.139,3.2q.18,2.421.182,4.89a65.551,65.551,0,0,1-15.6,42.54A3.108,3.108,0,0,0,.594,92.46L72.553,191.5a3.107,3.107,0,0,0,4.546.529,192.744,192.744,0,0,0,66.613-145.95,193.749,193.749,0,0,0-4.957-43.66A3.115,3.115,0,0,0,134.76.153Z" transform="translate(8.856 8.854)" fill="#e9e9e9"/>
                        <path id="Trazado_913710" data-name="Trazado 913710" d="M18.29,38a3.113,3.113,0,0,0-2.139,3.2q.18,2.422.183,4.89a65.552,65.552,0,0,1-15.6,42.54A3.108,3.108,0,0,0,.594,92.46L72.553,191.5a3.107,3.107,0,0,0,4.546.529,192.744,192.744,0,0,0,66.613-145.95,193.742,193.742,0,0,0-4.957-43.659A3.114,3.114,0,0,0,134.76.153Z" transform="translate(8.117 8.116)" fill="#e4e4e4"/>
                        <path id="Trazado_913711" data-name="Trazado 913711" d="M18.29,38a3.113,3.113,0,0,0-2.139,3.2q.18,2.422.182,4.89a65.551,65.551,0,0,1-15.6,42.54A3.108,3.108,0,0,0,.594,92.46L72.553,191.5a3.107,3.107,0,0,0,4.546.529,192.745,192.745,0,0,0,66.614-145.95,193.748,193.748,0,0,0-4.958-43.659A3.114,3.114,0,0,0,134.76.153Z" transform="translate(7.38 7.378)" fill="#dedede"/>
                        <path id="Trazado_913712" data-name="Trazado 913712" d="M18.29,38a3.113,3.113,0,0,0-2.139,3.2q.18,2.422.182,4.89a65.551,65.551,0,0,1-15.6,42.54A3.108,3.108,0,0,0,.594,92.46L72.553,191.5a3.107,3.107,0,0,0,4.546.529,192.744,192.744,0,0,0,66.614-145.95,193.742,193.742,0,0,0-4.958-43.66,3.114,3.114,0,0,0-3.995-2.27Z" transform="translate(6.642 6.64)" fill="#d9d9d9"/>
                        <path id="Trazado_913713" data-name="Trazado 913713" d="M18.29,38a3.113,3.113,0,0,0-2.139,3.2q.18,2.422.182,4.89a65.551,65.551,0,0,1-15.6,42.54A3.108,3.108,0,0,0,.594,92.46L72.553,191.5a3.107,3.107,0,0,0,4.546.529,192.745,192.745,0,0,0,66.614-145.95,193.755,193.755,0,0,0-4.958-43.66A3.115,3.115,0,0,0,134.76.153Z" transform="translate(5.904 5.902)" fill="#d3d3d3"/>
                        <path id="Trazado_913714" data-name="Trazado 913714" d="M18.29,38a3.113,3.113,0,0,0-2.139,3.2q.18,2.421.182,4.89a65.551,65.551,0,0,1-15.6,42.54A3.107,3.107,0,0,0,.594,92.46L72.553,191.5a3.107,3.107,0,0,0,4.546.529,192.745,192.745,0,0,0,66.613-145.95,193.743,193.743,0,0,0-4.958-43.66A3.114,3.114,0,0,0,134.76.153Z" transform="translate(5.166 5.165)" fill="#cecece"/>
                        <path id="Trazado_913715" data-name="Trazado 913715" d="M18.29,38a3.112,3.112,0,0,0-2.139,3.2q.18,2.422.182,4.89a65.55,65.55,0,0,1-15.6,42.54A3.108,3.108,0,0,0,.594,92.46L72.553,191.5a3.107,3.107,0,0,0,4.546.529,192.745,192.745,0,0,0,66.613-145.95,193.758,193.758,0,0,0-4.957-43.66,3.114,3.114,0,0,0-3.995-2.27Z" transform="translate(4.428 4.427)" fill="#c9c9c9"/>
                        <path id="Trazado_913716" data-name="Trazado 913716" d="M18.29,38a3.112,3.112,0,0,0-2.139,3.2q.18,2.422.182,4.89a65.55,65.55,0,0,1-15.6,42.54A3.108,3.108,0,0,0,.594,92.46L72.553,191.5a3.107,3.107,0,0,0,4.546.529,192.744,192.744,0,0,0,66.613-145.95,193.761,193.761,0,0,0-4.957-43.66,3.114,3.114,0,0,0-3.995-2.27Z" transform="translate(3.69 3.689)" fill="#c3c3c3"/>
                        <path id="Trazado_913717" data-name="Trazado 913717" d="M18.29,38a3.112,3.112,0,0,0-2.139,3.2q.18,2.422.183,4.89a65.551,65.551,0,0,1-15.6,42.54A3.108,3.108,0,0,0,.594,92.46L72.553,191.5a3.107,3.107,0,0,0,4.546.529,192.744,192.744,0,0,0,66.614-145.95,193.742,193.742,0,0,0-4.958-43.659A3.114,3.114,0,0,0,134.76.153Z" transform="translate(2.952 2.951)" fill="#bebebe"/>
                        <path id="Trazado_913718" data-name="Trazado 913718" d="M18.29,38a3.112,3.112,0,0,0-2.139,3.2q.18,2.422.182,4.89a65.55,65.55,0,0,1-15.6,42.54A3.108,3.108,0,0,0,.594,92.46L72.553,191.5a3.107,3.107,0,0,0,4.546.529,192.745,192.745,0,0,0,66.614-145.95,193.75,193.75,0,0,0-4.957-43.659A3.114,3.114,0,0,0,134.76.153Z" transform="translate(2.214 2.213)" fill="#b8b8b8"/>
                        <path id="Trazado_913719" data-name="Trazado 913719" d="M18.29,38a3.112,3.112,0,0,0-2.139,3.2q.18,2.422.182,4.89a65.55,65.55,0,0,1-15.6,42.54A3.108,3.108,0,0,0,.594,92.46L72.553,191.5a3.107,3.107,0,0,0,4.546.529,192.744,192.744,0,0,0,66.614-145.95,193.744,193.744,0,0,0-4.957-43.66A3.114,3.114,0,0,0,134.76.153Z" transform="translate(1.477 1.475)" fill="#b3b3b3"/>
                        <path id="Trazado_913720" data-name="Trazado 913720" d="M18.29,38a3.112,3.112,0,0,0-2.139,3.2q.18,2.422.182,4.89a65.551,65.551,0,0,1-15.6,42.54A3.108,3.108,0,0,0,.594,92.46L72.553,191.5a3.107,3.107,0,0,0,4.546.529,192.745,192.745,0,0,0,66.614-145.95,193.75,193.75,0,0,0-4.958-43.66,3.115,3.115,0,0,0-3.995-2.27Z" transform="translate(0.739 0.737)" fill="#adadad"/>
                        <path id="Trazado_913721" data-name="Trazado 913721" d="M18.29,38a3.113,3.113,0,0,0-2.139,3.2q.18,2.422.182,4.89a65.552,65.552,0,0,1-15.6,42.54A3.108,3.108,0,0,0,.593,92.46L72.553,191.5a3.107,3.107,0,0,0,4.546.529,192.744,192.744,0,0,0,66.614-145.95,193.736,193.736,0,0,0-4.958-43.66A3.114,3.114,0,0,0,134.76.153Z" transform="translate(0.001 -0.001)" fill="#a8a8a8"/>
                      </g>
                    </g>
                  </g>
                  <g id="Grupo_1103466" data-name="Grupo 1103466" transform="translate(91.994 253.188)" opacity="0.5" style="mix-blend-mode: multiply;isolation: isolate">
                    <g id="Grupo_1103465" data-name="Grupo 1103465">
                      <g id="Grupo_1103464" data-name="Grupo 1103464" clip-path="url(#clip-path-10)">
                        <path id="Trazado_913722" data-name="Trazado 913722" d="M129.844,1.281a3.108,3.108,0,0,0-3.7-1.048A65.624,65.624,0,0,1,101.2,5.127,65.625,65.625,0,0,1,76.254.233a3.108,3.108,0,0,0-3.695,1.048L.594,100.333a3.115,3.115,0,0,0,.919,4.5A192.292,192.292,0,0,0,101.2,132.506a192.29,192.29,0,0,0,99.689-27.676,3.114,3.114,0,0,0,.919-4.5Z" transform="translate(11.806 11.806)" fill="#fff"/>
                        <path id="Trazado_913723" data-name="Trazado 913723" d="M129.844,1.281a3.109,3.109,0,0,0-3.7-1.048A65.624,65.624,0,0,1,101.2,5.127,65.626,65.626,0,0,1,76.254.233a3.109,3.109,0,0,0-3.7,1.048L.594,100.333a3.114,3.114,0,0,0,.919,4.5A192.291,192.291,0,0,0,101.2,132.506a192.29,192.29,0,0,0,99.689-27.676,3.114,3.114,0,0,0,.919-4.5Z" transform="translate(11.068 11.068)" fill="#fafafa"/>
                        <path id="Trazado_913724" data-name="Trazado 913724" d="M129.845,1.281a3.109,3.109,0,0,0-3.7-1.048A65.616,65.616,0,0,1,101.2,5.127,65.617,65.617,0,0,1,76.254.233a3.109,3.109,0,0,0-3.7,1.048L.594,100.333a3.114,3.114,0,0,0,.919,4.5A192.29,192.29,0,0,0,101.2,132.506a192.29,192.29,0,0,0,99.689-27.676,3.114,3.114,0,0,0,.919-4.5Z" transform="translate(10.33 10.33)" fill="#f4f4f4"/>
                        <path id="Trazado_913725" data-name="Trazado 913725" d="M129.844,1.281a3.109,3.109,0,0,0-3.7-1.048A65.622,65.622,0,0,1,101.2,5.127,65.623,65.623,0,0,1,76.254.233a3.108,3.108,0,0,0-3.7,1.048L.594,100.333a3.114,3.114,0,0,0,.919,4.5A192.289,192.289,0,0,0,101.2,132.506a192.289,192.289,0,0,0,99.689-27.676,3.115,3.115,0,0,0,.919-4.5Z" transform="translate(9.592 9.592)" fill="#efefef"/>
                        <path id="Trazado_913726" data-name="Trazado 913726" d="M129.844,1.281a3.108,3.108,0,0,0-3.7-1.048A65.623,65.623,0,0,1,101.2,5.127,65.623,65.623,0,0,1,76.254.233a3.108,3.108,0,0,0-3.695,1.048L.594,100.333a3.114,3.114,0,0,0,.919,4.5A192.292,192.292,0,0,0,101.2,132.506a192.291,192.291,0,0,0,99.689-27.676,3.114,3.114,0,0,0,.919-4.5Z" transform="translate(8.854 8.855)" fill="#e9e9e9"/>
                        <path id="Trazado_913727" data-name="Trazado 913727" d="M129.844,1.281a3.108,3.108,0,0,0-3.7-1.048A65.621,65.621,0,0,1,101.2,5.127,65.622,65.622,0,0,1,76.254.233a3.108,3.108,0,0,0-3.695,1.048L.594,100.333a3.115,3.115,0,0,0,.919,4.5A192.292,192.292,0,0,0,101.2,132.506a192.29,192.29,0,0,0,99.689-27.676,3.115,3.115,0,0,0,.919-4.5Z" transform="translate(8.117 8.117)" fill="#e4e4e4"/>
                        <path id="Trazado_913728" data-name="Trazado 913728" d="M129.844,1.281a3.108,3.108,0,0,0-3.7-1.048A65.621,65.621,0,0,1,101.2,5.127,65.621,65.621,0,0,1,76.254.233a3.108,3.108,0,0,0-3.7,1.048L.594,100.333a3.115,3.115,0,0,0,.919,4.5A192.29,192.29,0,0,0,101.2,132.506a192.289,192.289,0,0,0,99.689-27.676,3.114,3.114,0,0,0,.919-4.5Z" transform="translate(7.379 7.379)" fill="#dedede"/>
                        <path id="Trazado_913729" data-name="Trazado 913729" d="M129.844,1.281a3.108,3.108,0,0,0-3.7-1.048A65.621,65.621,0,0,1,101.2,5.127,65.622,65.622,0,0,1,76.254.233a3.108,3.108,0,0,0-3.7,1.048L.594,100.333a3.114,3.114,0,0,0,.919,4.5A192.294,192.294,0,0,0,101.2,132.506a192.293,192.293,0,0,0,99.689-27.676,3.114,3.114,0,0,0,.919-4.5Z" transform="translate(6.641 6.641)" fill="#d9d9d9"/>
                        <path id="Trazado_913730" data-name="Trazado 913730" d="M129.844,1.281a3.109,3.109,0,0,0-3.7-1.048A65.619,65.619,0,0,1,101.2,5.127,65.62,65.62,0,0,1,76.254.233a3.108,3.108,0,0,0-3.7,1.048L.594,100.333a3.115,3.115,0,0,0,.919,4.5A192.291,192.291,0,0,0,101.2,132.506a192.292,192.292,0,0,0,99.689-27.676,3.115,3.115,0,0,0,.919-4.5Z" transform="translate(5.903 5.903)" fill="#d3d3d3"/>
                        <path id="Trazado_913731" data-name="Trazado 913731" d="M129.844,1.281a3.109,3.109,0,0,0-3.7-1.048A65.616,65.616,0,0,1,101.2,5.127,65.615,65.615,0,0,1,76.254.233a3.109,3.109,0,0,0-3.7,1.048L.594,100.333a3.114,3.114,0,0,0,.919,4.5A192.291,192.291,0,0,0,101.2,132.506a192.289,192.289,0,0,0,99.689-27.676,3.114,3.114,0,0,0,.919-4.5Z" transform="translate(5.165 5.165)" fill="#cecece"/>
                        <path id="Trazado_913732" data-name="Trazado 913732" d="M129.844,1.281A3.108,3.108,0,0,0,126.149.233,65.621,65.621,0,0,1,101.2,5.127,65.621,65.621,0,0,1,76.254.233a3.108,3.108,0,0,0-3.695,1.048L.594,100.333a3.115,3.115,0,0,0,.919,4.5A192.291,192.291,0,0,0,101.2,132.506a192.289,192.289,0,0,0,99.689-27.676,3.114,3.114,0,0,0,.919-4.5Z" transform="translate(4.427 4.427)" fill="#c9c9c9"/>
                        <path id="Trazado_913733" data-name="Trazado 913733" d="M129.844,1.281a3.109,3.109,0,0,0-3.7-1.048A65.619,65.619,0,0,1,101.2,5.127,65.62,65.62,0,0,1,76.254.233a3.108,3.108,0,0,0-3.695,1.048L.594,100.333a3.115,3.115,0,0,0,.919,4.5A192.29,192.29,0,0,0,101.2,132.506a192.288,192.288,0,0,0,99.689-27.676,3.114,3.114,0,0,0,.919-4.5Z" transform="translate(3.689 3.69)" fill="#c3c3c3"/>
                        <path id="Trazado_913734" data-name="Trazado 913734" d="M129.844,1.281a3.108,3.108,0,0,0-3.7-1.048A65.623,65.623,0,0,1,101.2,5.127,65.624,65.624,0,0,1,76.254.233a3.108,3.108,0,0,0-3.7,1.048L.594,100.333a3.114,3.114,0,0,0,.919,4.5A192.292,192.292,0,0,0,101.2,132.506a192.291,192.291,0,0,0,99.689-27.676,3.114,3.114,0,0,0,.919-4.5Z" transform="translate(2.951 2.952)" fill="#bebebe"/>
                        <path id="Trazado_913735" data-name="Trazado 913735" d="M129.844,1.281A3.108,3.108,0,0,0,126.149.233,65.621,65.621,0,0,1,101.2,5.127,65.622,65.622,0,0,1,76.254.233a3.108,3.108,0,0,0-3.7,1.048L.594,100.333a3.115,3.115,0,0,0,.919,4.5A192.292,192.292,0,0,0,101.2,132.506a192.291,192.291,0,0,0,99.689-27.676,3.114,3.114,0,0,0,.919-4.5Z" transform="translate(2.214 2.214)" fill="#b8b8b8"/>
                        <path id="Trazado_913736" data-name="Trazado 913736" d="M129.844,1.281a3.108,3.108,0,0,0-3.7-1.048A65.624,65.624,0,0,1,101.2,5.127,65.627,65.627,0,0,1,76.254.233a3.108,3.108,0,0,0-3.7,1.048L.594,100.333a3.114,3.114,0,0,0,.919,4.5A192.291,192.291,0,0,0,101.2,132.506a192.29,192.29,0,0,0,99.689-27.676,3.114,3.114,0,0,0,.919-4.5Z" transform="translate(1.476 1.476)" fill="#b3b3b3"/>
                        <path id="Trazado_913737" data-name="Trazado 913737" d="M129.844,1.281a3.109,3.109,0,0,0-3.7-1.048A65.621,65.621,0,0,1,101.2,5.127,65.622,65.622,0,0,1,76.254.233a3.108,3.108,0,0,0-3.695,1.048L.594,100.333a3.115,3.115,0,0,0,.919,4.5A192.291,192.291,0,0,0,101.2,132.506a192.289,192.289,0,0,0,99.689-27.676,3.115,3.115,0,0,0,.919-4.5Z" transform="translate(0.738 0.738)" fill="#adadad"/>
                        <path id="Trazado_913738" data-name="Trazado 913738" d="M129.844,1.281a3.108,3.108,0,0,0-3.7-1.048A65.618,65.618,0,0,1,101.2,5.127,65.618,65.618,0,0,1,76.254.233a3.108,3.108,0,0,0-3.7,1.048L.594,100.333a3.114,3.114,0,0,0,.919,4.5A192.29,192.29,0,0,0,101.2,132.506a192.288,192.288,0,0,0,99.689-27.676,3.114,3.114,0,0,0,.919-4.5Z" transform="translate(0 0)" fill="#a8a8a8"/>
                      </g>
                    </g>
                  </g>
                </g>
              </g>
            </g>
          </g>
        </g>
        <g id="Grupo_1103473" data-name="Grupo 1103473" transform="translate(140.183 139.486)">
          <g id="Grupo_1103472" data-name="Grupo 1103472" clip-path="url(#clip-path-11)">
            <rect id="Rectángulo_404229" data-name="Rectángulo 404229" width="149.942" height="149.942" transform="translate(-53.012 53.012) rotate(-45)" fill="#fff9f5"/>
          </g>
        </g>
        <g id="Grupo_1103475" data-name="Grupo 1103475" transform="translate(0 0)">
          <g id="Grupo_1103474" data-name="Grupo 1103474" clip-path="url(#clip-path-2)">
            <path id="Trazado_913740" data-name="Trazado 913740" d="M143.119,92.46a3.108,3.108,0,0,0-.144-3.837,65.552,65.552,0,0,1-15.6-42.54q0-2.468.182-4.89a3.113,3.113,0,0,0-2.139-3.2L8.952.153a3.115,3.115,0,0,0-3.995,2.27,193.5,193.5,0,0,0,61.656,189.61,3.107,3.107,0,0,0,4.546-.529Z" transform="translate(0 146.416)" fill="#fff9f5"/>
            <path id="Trazado_913741" data-name="Trazado 913741" d="M122.227,157.884a65.921,65.921,0,0,1,40.364-29.336,3.106,3.106,0,0,0,2.369-3.019V3.112A3.108,3.108,0,0,0,161.6.011,193.328,193.328,0,0,0,.245,117.2a3.106,3.106,0,0,0,1.908,4.159L118.625,159.2a3.107,3.107,0,0,0,3.6-1.318" transform="translate(14.983 0)" fill="#fff9f5"/>
            <path id="Trazado_913742" data-name="Trazado 913742" d="M2.369,128.548a65.921,65.921,0,0,1,40.364,29.336,3.107,3.107,0,0,0,3.6,1.318l116.471-37.844a3.106,3.106,0,0,0,1.908-4.159A193.328,193.328,0,0,0,3.363.011,3.107,3.107,0,0,0,0,3.112V125.529a3.106,3.106,0,0,0,2.369,3.019" transform="translate(206.448 0)" fill="#fff9f5"/>
            <path id="Trazado_913743" data-name="Trazado 913743" d="M18.29,38a3.113,3.113,0,0,0-2.139,3.2q.18,2.422.182,4.89a65.552,65.552,0,0,1-15.6,42.54A3.108,3.108,0,0,0,.593,92.46L72.553,191.5a3.107,3.107,0,0,0,4.546.529,192.744,192.744,0,0,0,66.614-145.95,193.736,193.736,0,0,0-4.958-43.66A3.114,3.114,0,0,0,134.76.153Z" transform="translate(242.678 146.416)" fill="#fff9f5"/>
            <path id="Trazado_913744" data-name="Trazado 913744" d="M129.844,1.281a3.108,3.108,0,0,0-3.7-1.048A65.618,65.618,0,0,1,101.2,5.127,65.618,65.618,0,0,1,76.254.233a3.108,3.108,0,0,0-3.7,1.048L.594,100.333a3.114,3.114,0,0,0,.919,4.5A192.29,192.29,0,0,0,101.2,132.506a192.288,192.288,0,0,0,99.689-27.676,3.114,3.114,0,0,0,.919-4.5Z" transform="translate(91.994 253.188)" fill="#fff9f5"/>
          </g>
        </g>
      </g>
    </g>
    <text id="Fabricante" transform="translate(402.807 505.618)" fill="#12263f" font-size="14" font-family="Roboto-Bold, Roboto" font-weight="700"><tspan x="0" y="0">Fabricante</tspan></text>
    <text id="Comercio" transform="translate(531.591 595.377)" fill="#12263f" font-size="14" font-family="Roboto-Bold, Roboto" font-weight="700"><tspan x="0" y="0">Comercio</tspan></text>
    <text id="Distribuidor" transform="translate(269.146 595.377)" fill="#12263f" font-size="14" font-family="Roboto-Bold, Roboto" font-weight="700"><tspan x="0" y="0">Distribuidor</tspan></text>
    <text id="Logística" transform="translate(491.59 741.722)" fill="#12263f" font-size="14" font-family="Roboto-Bold, Roboto" font-weight="700"><tspan x="0" y="0">Logística</tspan></text>
    <text id="Flujo_Materiales_Datos" data-name="Flujo
Materiales
Datos" transform="translate(437.759 595.377)" fill="#12263f" font-size="14" font-family="Roboto-Bold, Roboto" font-weight="700"><tspan x="-15.384" y="0">Flujo</tspan><tspan x="-33.435" y="16">Materiales</tspan><tspan x="-18.122" y="32">Datos</tspan></text>
    <text id="Materia_prima" data-name="Materia
prima" transform="translate(356.562 737.819)" fill="#12263f" font-size="14" font-family="Roboto-Bold, Roboto" font-weight="700"><tspan x="-24.196" y="0">Materia</tspan><tspan x="-18.163" y="14">prima</tspan></text>
    <g id="Grupo_1103480" data-name="Grupo 1103480" transform="translate(418.52 437.648)">
      <g id="Grupo_1103479" data-name="Grupo 1103479" transform="translate(0 0)">
        <g id="Grupo_1103478" data-name="Grupo 1103478">
          <path id="Trazado_913745" data-name="Trazado 913745" d="M119.7,214.577l-4.411,2.646H119.7Z" transform="translate(-104.972 -195.615)" fill="#12263f"/>
          <rect id="Rectángulo_404232" data-name="Rectángulo 404232" width="4.091" height="3.273" transform="translate(12.274 33.064)" fill="#12263f"/>
          <path id="Trazado_913746" data-name="Trazado 913746" d="M211.131,217.223v-2.646l-4.411,2.646Z" transform="translate(-188.219 -195.615)" fill="#12263f"/>
          <rect id="Rectángulo_404233" data-name="Rectángulo 404233" width="4.091" height="3.273" transform="translate(3.273 33.064)" fill="#12263f"/>
          <path id="Trazado_913747" data-name="Trazado 913747" d="M28.274,214.577l-4.411,2.646h4.411Z" transform="translate(-21.727 -195.615)" fill="#12263f"/>
          <rect id="Rectángulo_404234" data-name="Rectángulo 404234" width="3.273" height="1.637" transform="translate(37.641 7.697)" fill="#12263f"/>
          <path id="Trazado_913748" data-name="Trazado 913748" d="M302.56,217.223v-2.646l-4.411,2.646Z" transform="translate(-271.465 -195.615)" fill="#12263f"/>
          <path id="Trazado_913749" data-name="Trazado 913749" d="M195.816,10.409a.818.818,0,0,1,0,1.637c-.12,0-.245-.014-.372-.02.359.851,1.379,2.1,4.2,2.4a5.208,5.208,0,0,1-.311-1.562.818.818,0,1,1,1.637,0,3.625,3.625,0,0,0,.7,1.926,4.031,4.031,0,0,0,3.392,1.347h5.274l.454-3.328V9.591a.818.818,0,0,1,.818-.818h2.455V6.318a3.7,3.7,0,0,0-1.346-2.653,5.36,5.36,0,0,0-4.539-.77,7.716,7.716,0,0,0-1.1.333,4.985,4.985,0,0,1,1.255,3.066.818.818,0,0,1-.794.842h-.024a.818.818,0,0,1-.818-.795,3.579,3.579,0,0,0-1.5-2.652c-1.66-1.252-3.979-1.033-5.206-.791-.171.034-.336.082-.5.128.082.04.155.07.236.114a.818.818,0,0,1-.768,1.445,10.3,10.3,0,0,0-1.686-.73,4.43,4.43,0,0,0-3.669.3,3.74,3.74,0,0,0-1.473,4.165C192.6,9.863,194.411,10.409,195.816,10.409Z" transform="translate(-174.786 -2.712)" fill="#12263f"/>
          <path id="Trazado_913750" data-name="Trazado 913750" d="M394.478,141.654h7.944l-2.232-16.366h-3.481Z" transform="translate(-359.172 -114.317)" fill="#12263f"/>
          <path id="Trazado_913751" data-name="Trazado 913751" d="M36.823,491H0v1.637H45.824V491h-9Z" transform="translate(0 -447.301)" fill="#12263f"/>
          <rect id="Rectángulo_404235" data-name="Rectángulo 404235" width="3.273" height="4.091" transform="translate(37.641 37.974)" fill="#12263f"/>
          <path id="Trazado_913752" data-name="Trazado 913752" d="M241.806,354.536h-4.091v1.637h6.546V344.717h-6.546v1.637h4.091a.818.818,0,1,1,0,1.637h-4.091v1.637h4.091a.818.818,0,1,1,0,1.637h-4.091V352.9h4.091a.818.818,0,1,1,0,1.636Z" transform="translate(-216.439 -314.107)" fill="#12263f"/>
          <path id="Trazado_913753" data-name="Trazado 913753" d="M365.714,326.431v2.455h3.273a.818.818,0,1,1,0,1.637h-3.273v9h3.273v-4.091a1.637,1.637,0,0,1,1.637-1.637H373.9a1.637,1.637,0,0,1,1.637,1.637v4.091h3.273V326.431Zm10.638,4.091H372.26a.818.818,0,1,1,0-1.637h4.091a.818.818,0,0,1,0,1.637Z" transform="translate(-332.983 -297.458)" fill="#12263f"/>
          <path id="Trazado_913754" data-name="Trazado 913754" d="M19.639,269.8a1.637,1.637,0,0,1,1.637-1.637h6.546a1.637,1.637,0,0,1,1.637,1.637v11.456H31.1V262.431H0v2.455H5.728a.818.818,0,1,1,0,1.637H0v14.729H19.639ZM9,275.524a1.637,1.637,0,0,1-1.637,1.637H3.273a1.637,1.637,0,0,1-1.637-1.637v-3.273a1.637,1.637,0,0,1,1.637-1.637H7.365A1.637,1.637,0,0,1,9,272.251Zm9,0a1.637,1.637,0,0,1-1.637,1.637H12.274a1.637,1.637,0,0,1-1.637-1.637v-3.273a1.637,1.637,0,0,1,1.637-1.637h4.091A1.637,1.637,0,0,1,18,272.251Zm0-9H9a.818.818,0,0,1,0-1.637h9a.818.818,0,0,1,0,1.637Z" transform="translate(0 -239.186)" fill="#12263f"/>
        </g>
      </g>
    </g>
    <g id="_02-shop" data-name="02-shop" transform="translate(542.94 527.448)">
      <g id="Glyph" transform="translate(0 0)">
        <path id="Trazado_913755" data-name="Trazado 913755" d="M40.343,32H0v1.681a3.363,3.363,0,0,0,3.363,3.363H8.406a3.363,3.363,0,0,0,3.363-3.363,3.363,3.363,0,0,0,3.363,3.363H25.219a3.363,3.363,0,0,0,3.363-3.363,3.363,3.363,0,0,0,3.363,3.363h5.044a3.363,3.363,0,0,0,3.363-3.363V32Z" transform="translate(0 -18.55)" fill="#12263f"/>
        <path id="Trazado_913756" data-name="Trazado 913756" d="M78.01,11.769,75,1.219A1.681,1.681,0,0,0,73.38,0h-7.7l2.354,11.769Z" transform="translate(-38.073 0)" fill="#12263f"/>
        <path id="Trazado_913757" data-name="Trazado 913757" d="M13.314,0h-7.7A1.681,1.681,0,0,0,4,1.219L.983,11.769H10.96Z" transform="translate(-0.57 0)" fill="#12263f"/>
        <path id="Trazado_913758" data-name="Trazado 913758" d="M43.236,0h-8L32.879,11.769H45.59Z" transform="translate(-19.059 0)" fill="#12263f"/>
        <path id="Trazado_913759" data-name="Trazado 913759" d="M34.263,46.224A5.024,5.024,0,0,1,30.9,44.937a5.024,5.024,0,0,1-3.363,1.287H17.45a5.024,5.024,0,0,1-3.363-1.287,5.024,5.024,0,0,1-3.363,1.287H5.681A5.011,5.011,0,0,1,4,45.93V64.718A1.681,1.681,0,0,0,5.681,66.4H9.044V51.268a1.681,1.681,0,0,1,1.681-1.681h8.406a1.681,1.681,0,0,1,1.681,1.681V66.4H39.307a1.681,1.681,0,0,0,1.681-1.681V45.93a5.011,5.011,0,0,1-1.681.294Zm1.681,10.088a1.681,1.681,0,0,1-1.681,1.681H25.856a1.681,1.681,0,0,1-1.681-1.681V51.268a1.681,1.681,0,0,1,1.681-1.681h8.406a1.681,1.681,0,0,1,1.681,1.681Z" transform="translate(-2.319 -26.049)" fill="#12263f"/>
      </g>
    </g>
    <g id="Grupo_1103481" data-name="Grupo 1103481" transform="translate(494.673 676.979)">
      <path id="Trazado_913760" data-name="Trazado 913760" d="M132.915,400a4.915,4.915,0,1,0,4.915,4.915A4.921,4.921,0,0,0,132.915,400Zm0,7.022a2.107,2.107,0,1,1,2.107-2.107A2.109,2.109,0,0,1,132.915,407.022Z" transform="translate(-116.765 -364.89)" fill="#12263f"/>
      <path id="Trazado_913761" data-name="Trazado 913761" d="M356.915,400a4.915,4.915,0,1,0,4.915,4.915A4.921,4.921,0,0,0,356.915,400Zm0,7.022a2.107,2.107,0,1,1,2.107-2.107A2.109,2.109,0,0,1,356.915,407.022Z" transform="translate(-321.103 -364.89)" fill="#12263f"/>
      <path id="Trazado_913762" data-name="Trazado 913762" d="M84.693,400H80.7a.7.7,0,0,0-.7.7v2.809a2.107,2.107,0,0,0,2.107,2.107h.548a.176.176,0,0,0,.175-.193,6.305,6.305,0,0,1,1.984-5.122A.175.175,0,0,0,84.693,400Z" transform="translate(-72.978 -364.89)" fill="#12263f"/>
      <path id="Trazado_913763" data-name="Trazado 913763" d="M243.5,400h-10.79a.175.175,0,0,0-.12.3,6.3,6.3,0,0,1,1.984,5.122.176.176,0,0,0,.175.193h6.714a.176.176,0,0,0,.175-.193,6.305,6.305,0,0,1,1.984-5.122A.175.175,0,0,0,243.5,400Z" transform="translate(-212.12 -364.89)" fill="#12263f"/>
      <path id="Trazado_913764" data-name="Trazado 913764" d="M459.293,400h-2.586a.175.175,0,0,0-.12.3,6.3,6.3,0,0,1,1.984,5.122.176.176,0,0,0,.175.193h.548a2.107,2.107,0,0,0,2.107-2.107v-1.4A2.107,2.107,0,0,0,459.293,400Z" transform="translate(-416.459 -364.89)" fill="#12263f"/>
      <path id="Trazado_913765" data-name="Trazado 913765" d="M7.285,7.724h3.687a.263.263,0,0,0,.263-.263V4.213A4.213,4.213,0,0,0,7.022,0H2.154A2.146,2.146,0,0,0,0,2.142,2.109,2.109,0,0,0,2.106,4.213H6.5a.527.527,0,0,1,.527.527V7.461A.263.263,0,0,0,7.285,7.724Z" transform="translate(0)" fill="#12263f"/>
      <path id="Trazado_913766" data-name="Trazado 913766" d="M80.263,128.577H83.95a.263.263,0,0,0,.263-.263v-24.05A.263.263,0,0,0,83.95,104H80.263a.263.263,0,0,0-.263.263v24.05A.263.263,0,0,0,80.263,128.577Z" transform="translate(-72.978 -94.871)" fill="#12263f"/>
      <path id="Trazado_913767" data-name="Trazado 913767" d="M306.545,32h-2.282a.263.263,0,0,0-.263.263V35.95a.263.263,0,0,0,.263.263h2.282a.263.263,0,0,0,.263-.263V32.263A.263.263,0,0,0,306.545,32Z" transform="translate(-277.317 -29.191)" fill="#12263f"/>
      <path id="Trazado_913768" data-name="Trazado 913768" d="M242.107,46.746h9.831c1.161,0,2.107-.243,2.107-1.4V34.107A2.107,2.107,0,0,0,251.937,32h-1.843a.263.263,0,0,0-.263.263v4.652a.7.7,0,0,1-.7.7h-4.213a.7.7,0,0,1-.7-.7V32.263A.263.263,0,0,0,243.95,32h-1.843A2.107,2.107,0,0,0,240,34.107V45.342C240,46.5,240.945,46.746,242.107,46.746Zm7.724-3.511h1.4a.7.7,0,1,1,0,1.4h-1.4a.7.7,0,1,1,0-1.4Z" transform="translate(-218.934 -29.191)" fill="#12263f"/>
      <path id="Trazado_913769" data-name="Trazado 913769" d="M218.545,216h-2.282a.263.263,0,0,0-.263.263v3.687a.263.263,0,0,0,.263.263h2.282a.263.263,0,0,0,.263-.263v-3.687A.263.263,0,0,0,218.545,216Z" transform="translate(-197.041 -197.041)" fill="#12263f"/>
      <path id="Trazado_913770" data-name="Trazado 913770" d="M154.107,230.746h9.831c1.161,0,2.107-.243,2.107-1.4V218.107A2.107,2.107,0,0,0,163.937,216h-1.843a.263.263,0,0,0-.263.263v4.652a.7.7,0,0,1-.7.7h-4.213a.7.7,0,0,1-.7-.7v-4.652a.263.263,0,0,0-.263-.263h-1.843A2.107,2.107,0,0,0,152,218.107v11.235C152,230.5,152.945,230.746,154.107,230.746Zm7.724-3.511h1.4a.7.7,0,0,1,0,1.4h-1.4a.7.7,0,0,1,0-1.4Z" transform="translate(-138.658 -197.041)" fill="#12263f"/>
      <path id="Trazado_913771" data-name="Trazado 913771" d="M392.263,220.213h2.282a.263.263,0,0,0,.263-.263v-3.687a.263.263,0,0,0-.263-.263h-2.282a.263.263,0,0,0-.263.263v3.687A.263.263,0,0,0,392.263,220.213Z" transform="translate(-357.592 -197.041)" fill="#12263f"/>
      <path id="Trazado_913772" data-name="Trazado 913772" d="M332.213,220.915v-4.652a.263.263,0,0,0-.263-.263h-1.843A2.107,2.107,0,0,0,328,218.107v11.235c0,1.161.945,1.4,2.107,1.4h9.831c1.161,0,2.107-.243,2.107-1.4V218.107A2.107,2.107,0,0,0,339.937,216h-1.843a.263.263,0,0,0-.263.263v4.652a.7.7,0,0,1-.7.7h-4.213A.7.7,0,0,1,332.213,220.915Zm5.618,6.32h1.4a.7.7,0,0,1,0,1.4h-1.4a.7.7,0,0,1,0-1.4Z" transform="translate(-299.21 -197.041)" fill="#12263f"/>
    </g>
    <path id="Trazado_913773" data-name="Trazado 913773" d="M27.951,58.486h6.636a.665.665,0,0,1,.663.663v4.709H27.288V59.148a.665.665,0,0,1,.663-.663Zm34.589,4.2a1.216,1.216,0,0,1,1.129,1.662l-1.055,3.421a47.655,47.655,0,0,1,0,20.735l1.055,3.422a1.216,1.216,0,0,1-1.129,1.662H41.085a1.216,1.216,0,0,1-1.129-1.662L41.011,88.5a47.658,47.658,0,0,1,0-20.735l-1.055-3.421a1.216,1.216,0,0,1,1.129-1.662ZM45.846,89.3H57.778a.8.8,0,1,0,0-1.592H45.846a.8.8,0,1,0,0,1.592Zm9.943-5.522H47.836a.8.8,0,1,0,0,1.592h7.953a.8.8,0,1,0,0-1.592ZM45.846,68.56H57.778a.8.8,0,1,0,0-1.592H45.846a.8.8,0,1,0,0,1.592ZM55.788,70.9H47.836a.8.8,0,1,0,0,1.592h7.953a.8.8,0,1,0,0-1.592ZM28.374,84.831A4.376,4.376,0,1,1,24,89.208,4.376,4.376,0,0,1,28.374,84.831Zm0,2.594a1.782,1.782,0,1,0,1.782,1.782A1.782,1.782,0,0,0,28.374,87.426Zm10.753,1.782.238-.772a48.129,48.129,0,0,1-1.087-10.3,49.222,49.222,0,0,1,.588-7.65H17.756L22.1,84.573a6.666,6.666,0,0,0,.953,1.925,5.969,5.969,0,0,1,11.286,2.71ZM16.6,65.449H38.631l.734,2.38q-.116.529-.22,1.062H16.6a.6.6,0,0,1-.6-.6V66.046A.6.6,0,0,1,16.6,65.449Zm20.244-4.861v3.27h1.436a2.814,2.814,0,0,1,2.807-2.768H42.4a.665.665,0,0,0-.643-.5Zm-18.519-.147,5.747-3.318a.665.665,0,0,1,.905.243l.768,1.33a2.241,2.241,0,0,0-.046.453v4.709H19.53l-1.45-2.511A.665.665,0,0,1,18.322,60.441Zm12.364-3.547h3.9A2.262,2.262,0,0,1,36.836,59h1.812V53.9a.665.665,0,0,0-.663-.663H31.349a.665.665,0,0,0-.663.663v2.992Z" transform="translate(315.242 622.225)" fill="#12263f" fill-rule="evenodd"/>
    <g id="Grupo_1103483" data-name="Grupo 1103483" transform="translate(272.516 540.471)">
      <g id="Grupo_1103482" data-name="Grupo 1103482" transform="translate(0 0)">
        <path id="Trazado_913774" data-name="Trazado 913774" d="M59.441,129.7l-5.6-9.329a1.862,1.862,0,0,0-1.6-.907H41.048v-5.6A1.866,1.866,0,0,0,39.182,112H13.061a1.866,1.866,0,0,0-1.866,1.866v1.866H1.866a1.866,1.866,0,1,0,0,3.732h9.329v3.732H5.6a1.866,1.866,0,1,0,0,3.732h5.6v3.732H9.329a1.866,1.866,0,1,0,0,3.732h1.866v5.6a1.866,1.866,0,0,0,1.866,1.866H19a5.565,5.565,0,0,0,10.508,0H45.123a5.565,5.565,0,0,0,10.508,0H57.84a1.866,1.866,0,0,0,1.866-1.866v-9.329A1.838,1.838,0,0,0,59.441,129.7ZM24.255,141.853a1.866,1.866,0,1,1,1.866-1.866A1.869,1.869,0,0,1,24.255,141.853Zm26.121,0a1.866,1.866,0,1,1,1.866-1.866A1.871,1.871,0,0,1,50.377,141.853Zm-5.6-11.195v-7.463h6.407l4.478,7.463Z" transform="translate(0 -112)" fill="#12263f"/>
      </g>
    </g>
  </g>
</svg>
