<svg xmlns="http://www.w3.org/2000/svg" width="85" height="77.088" viewBox="0 0 85 77.088">
  <g id="Grupo_1103422" data-name="Grupo 1103422" transform="translate(0 -23.829)">
    <path id="Trazado_913514" data-name="Trazado 913514" d="M50.051,158.085H2.635A2.645,2.645,0,0,0,0,160.724v37.743a2.645,2.645,0,0,0,2.635,2.639h8.653v10.415c0,1.451.839,1.8,1.864.773l11.174-11.188h36.3a2.646,2.646,0,0,0,2.636-2.639V170.878A17.736,17.736,0,0,1,50.051,158.085Z" transform="translate(0 -111.967)" fill="#ffbd45"/>
    <path id="Trazado_913515" data-name="Trazado 913515" d="M5.387,198.467V160.724a2.645,2.645,0,0,1,2.635-2.639H2.635A2.645,2.645,0,0,0,0,160.724v37.743a2.645,2.645,0,0,0,2.635,2.639H8.023A2.645,2.645,0,0,1,5.387,198.467Z" transform="translate(0 -111.967)" fill="#fa8701"/>
    <g id="Grupo_1103421" data-name="Grupo 1103421" transform="translate(12.055 58.753)">
      <path id="Trazado_913516" data-name="Trazado 913516" d="M110.518,236.682H73.859a1.245,1.245,0,1,1,0-2.49h36.659a1.245,1.245,0,0,1,0,2.49Z" transform="translate(-72.614 -234.192)" fill="#a64b30"/>
      <path id="Trazado_913517" data-name="Trazado 913517" d="M110.518,283.229H73.859a1.245,1.245,0,0,1,0-2.49h36.659a1.245,1.245,0,0,1,0,2.49Z" transform="translate(-72.614 -273.011)" fill="#a64b30"/>
      <path id="Trazado_913518" data-name="Trazado 913518" d="M93.209,329.781H73.859a1.245,1.245,0,1,1,0-2.49h19.35a1.245,1.245,0,1,1,0,2.49Z" transform="translate(-72.614 -311.835)" fill="#a64b30"/>
    </g>
    <path id="Trazado_913519" data-name="Trazado 913519" d="M0,52.565a.858.858,0,0,0,.855.855H34.744a.858.858,0,0,0,.855-.855V42.4a.858.858,0,0,0-.855-.855H.855A.858.858,0,0,0,0,42.4Z" transform="translate(0 -14.773)" fill="#ca7441"/>
    <path id="Trazado_913520" data-name="Trazado 913520" d="M5.362,52.565V48.558a1.243,1.243,0,0,1,0-2.153V42.4a.858.858,0,0,1,.855-.855H.855A.858.858,0,0,0,0,42.4V52.565a.858.858,0,0,0,.855.855H6.217A.857.857,0,0,1,5.362,52.565Z" transform="translate(0 -14.773)" fill="#ca7441"/>
    <path id="Trazado_913521" data-name="Trazado 913521" d="M52.335,72.3H29.8a1.245,1.245,0,1,1,0-2.49H52.335a1.245,1.245,0,1,1,0,2.49Z" transform="translate(-23.814 -38.351)" fill="#f6ccb3"/>
    <circle id="Elipse_11547" data-name="Elipse 11547" cx="17.841" cy="17.841" r="17.841" transform="translate(49.318 23.829)" fill="#ee4f47"/>
    <path id="Trazado_913522" data-name="Trazado 913522" d="M302.394,41.671a17.845,17.845,0,0,1,15.179-17.643,17.841,17.841,0,1,0,0,35.286A17.845,17.845,0,0,1,302.394,41.671Z" transform="translate(-247.751 -0.001)" fill="#ee4f47"/>
    <path id="Trazado_913523" data-name="Trazado 913523" d="M373.941,158.8a1.241,1.241,0,0,1-.877-.361,7.369,7.369,0,0,0-10.345,0,1.245,1.245,0,1,1-1.753-1.768,9.867,9.867,0,0,1,13.852,0,1.245,1.245,0,0,1-.877,2.129Z" transform="translate(-300.732 -108.419)" fill="#a62b2b"/>
    <path id="Trazado_913524" data-name="Trazado 913524" d="M338.655,102.115a4.29,4.29,0,0,1-4.306-4.265,1.245,1.245,0,0,1,2.49,0,1.816,1.816,0,0,0,3.631,0,1.245,1.245,0,0,1,2.49,0A4.29,4.29,0,0,1,338.655,102.115Z" transform="translate(-278.842 -60.694)" fill="#a62b2b"/>
    <path id="Trazado_913525" data-name="Trazado 913525" d="M427.15,102.115a4.29,4.29,0,0,1-4.306-4.265,1.245,1.245,0,0,1,2.49,0,1.816,1.816,0,0,0,3.632,0,1.245,1.245,0,0,1,2.49,0A4.29,4.29,0,0,1,427.15,102.115Z" transform="translate(-352.645 -60.694)" fill="#a62b2b"/>
  </g>
</svg>
