<svg xmlns="http://www.w3.org/2000/svg" width="85.226" height="117.256" viewBox="0 0 85.226 117.256">
  <g id="Grupo_1103817" data-name="Grupo 1103817" transform="translate(-685 -1186.518)">
    <g id="Grupo_1103302" data-name="Grupo 1103302" transform="translate(615.07 1186.518)">
      <g id="Grupo_1103293" data-name="Grupo 1103293" transform="translate(72.369 76.491)">
        <path id="Trazado_913235" data-name="Trazado 913235" d="M120.457,346.047,107.931,372.93a3.181,3.181,0,0,1-2.879,1.833c-.066,0-.131,0-.2-.006a3.174,3.174,0,0,1-2.824-2.2l-4.237-13.206L84.957,364.6a3.174,3.174,0,0,1-4.081-4.278l11.411-24.492a3.176,3.176,0,0,1,3.89-1.67l22.413,7.531a3.18,3.18,0,0,1,1.867,4.352Z" transform="translate(-80.579 -333.998)" fill="#ee4f47"/>
      </g>
      <g id="Grupo_1103294" data-name="Grupo 1103294" transform="translate(112.543 76.491)">
        <path id="Trazado_913236" data-name="Trazado 913236" d="M256.3,346.047l12.526,26.883a3.181,3.181,0,0,0,2.879,1.833c.065,0,.131,0,.2-.006a3.174,3.174,0,0,0,2.824-2.2l4.237-13.206L291.8,364.6a3.174,3.174,0,0,0,4.081-4.278l-11.411-24.492a3.176,3.176,0,0,0-3.89-1.67l-22.413,7.531a3.18,3.18,0,0,0-1.867,4.352Z" transform="translate(-256 -333.998)" fill="#ee4f47"/>
      </g>
      <g id="Grupo_1103295" data-name="Grupo 1103295" transform="translate(69.93 0)">
        <path id="Trazado_913237" data-name="Trazado 913237" d="M112.543,0,127.2,24.5,112.543,88.171a13.807,13.807,0,0,1-9.735-3.985,7.051,7.051,0,0,0-5.959-1.935A13.887,13.887,0,0,1,81.094,70.8a7.046,7.046,0,0,0-3.68-5.068A13.884,13.884,0,0,1,71.4,47.218a7.058,7.058,0,0,0,0-6.266,13.884,13.884,0,0,1,6.019-18.518,7.046,7.046,0,0,0,3.68-5.068A13.887,13.887,0,0,1,96.848,5.92a7.051,7.051,0,0,0,5.959-1.935A13.807,13.807,0,0,1,112.543,0Z" transform="translate(-69.93 0)" fill="#ffe14d"/>
      </g>
      <path id="Trazado_913238" data-name="Trazado 913238" d="M297.147,47.218a13.884,13.884,0,0,1-6.019,18.518,7.046,7.046,0,0,0-3.68,5.068,13.887,13.887,0,0,1-15.754,11.446,7.051,7.051,0,0,0-5.959,1.935A13.807,13.807,0,0,1,256,88.171V0a13.807,13.807,0,0,1,9.735,3.985A7.056,7.056,0,0,0,270.666,6a7.062,7.062,0,0,0,1.028-.076,13.887,13.887,0,0,1,15.754,11.446,7.046,7.046,0,0,0,3.68,5.068,13.884,13.884,0,0,1,6.019,18.518A7.058,7.058,0,0,0,297.147,47.218Z" transform="translate(-143.457 0)" fill="#ffc34d"/>
      <g id="Grupo_1103297" data-name="Grupo 1103297" transform="translate(88.61 20.153)">
        <g id="Grupo_1103296" data-name="Grupo 1103296" transform="translate(0)">
          <path id="Trazado_913239" data-name="Trazado 913239" d="M175.432,88v47.864a23.932,23.932,0,1,1,0-47.864Z" transform="translate(-151.5 -88)" fill="#ca7441"/>
        </g>
      </g>
      <path id="Trazado_913240" data-name="Trazado 913240" d="M279.932,111.932A23.96,23.96,0,0,1,256,135.864V88A23.96,23.96,0,0,1,279.932,111.932Z" transform="translate(-143.457 -67.847)" fill="#ca7441"/>
      <g id="Grupo_1103299" data-name="Grupo 1103299" transform="translate(101.771 41.093)">
        <g id="Grupo_1103298" data-name="Grupo 1103298">
          <path id="Trazado_913241" data-name="Trazado 913241" d="M219.737,181.126l4.58,3.247-4.58,6.431a3.434,3.434,0,0,1-4.539-.279l-5.226-5.226a3.435,3.435,0,0,1,4.857-4.857l2.8,2.8Z" transform="translate(-208.965 -179.435)" fill="#fff"/>
        </g>
      </g>
      <path id="Trazado_913242" data-name="Trazado 913242" d="M265.261,169.067l-8.943,8.943a3.054,3.054,0,0,1-.318.279v-9.678l4.4-4.4a3.436,3.436,0,1,1,4.857,4.86Z" transform="translate(-143.457 -125.827)" fill="#fff"/>
      <g id="Grupo_1103301" data-name="Grupo 1103301" transform="translate(86.435 17.978)">
        <g id="Grupo_1103300" data-name="Grupo 1103300">
          <path id="Trazado_913243" data-name="Trazado 913243" d="M168.108,85.37l2.748-3.321-2.748-3.55a26.108,26.108,0,0,0,0,52.216l3.435-3.55-3.435-3.321a19.237,19.237,0,1,1,0-38.475Z" transform="translate(-142 -78.5)" fill="#fff"/>
        </g>
      </g>
      <path id="Trazado_913244" data-name="Trazado 913244" d="M282.108,104.608A26.137,26.137,0,0,1,256,130.716v-6.87a19.237,19.237,0,1,0,0-38.475V78.5A26.137,26.137,0,0,1,282.108,104.608Z" transform="translate(-143.457 -60.522)" fill="#fff"/>
    </g>
  </g>
</svg>
