<svg xmlns="http://www.w3.org/2000/svg" width="86.329" height="91.216" viewBox="0 0 86.329 91.216">
  <g id="Grupo_1103439" data-name="Grupo 1103439" transform="translate(-28.859 -16.001)">
    <g id="Grupo_1103436" data-name="Grupo 1103436" transform="translate(28.859 16.001)">
      <path id="Trazado_913586" data-name="Trazado 913586" d="M30.561,16H82.743a1.644,1.644,0,0,1,1.2.5L93.5,26.057a1.644,1.644,0,0,1,.5,1.2V98.729a1.706,1.706,0,0,1-1.7,1.7H30.561a1.706,1.706,0,0,1-1.7-1.7V17.7a1.706,1.706,0,0,1,1.7-1.7Z" transform="translate(-28.859 -16.001)" fill="#eceff1" fill-rule="evenodd"/>
      <path id="Trazado_913587" data-name="Trazado 913587" d="M30.561,16h3.114v84.431H30.561a1.706,1.706,0,0,1-1.7-1.7V17.7a1.706,1.706,0,0,1,1.7-1.7Z" transform="translate(-28.859 -16.001)" fill="#d1d1d6" fill-rule="evenodd"/>
      <path id="Trazado_913588" data-name="Trazado 913588" d="M316.114,16.778a1.705,1.705,0,0,1,.5.351l9.557,9.557a1.7,1.7,0,0,1,.351.5h-9.556a.853.853,0,0,1-.851-.851Z" transform="translate(-261.525 -16.63)" fill="#a79ba7" fill-rule="evenodd"/>
    </g>
    <path id="Trazado_913589" data-name="Trazado 913589" d="M66.584,254.123a1.52,1.52,0,1,1,0-3.041h48.342a1.52,1.52,0,1,1,0,3.041Zm0,29.69a1.52,1.52,0,1,1,0-3.041h48.342a1.52,1.52,0,1,1,0,3.041Zm0-7.422a1.52,1.52,0,1,1,0-3.041h48.342a1.52,1.52,0,1,1,0,3.041Zm0-7.423a1.52,1.52,0,1,1,0-3.041h48.342a1.52,1.52,0,1,1,0,3.041Zm0-7.422a1.52,1.52,0,0,1,0-3.041h48.342a1.52,1.52,0,0,1,0,3.041Z" transform="translate(-29.325 -190.407)" fill="#a79ba7" fill-rule="evenodd"/>
    <g id="Grupo_1103437" data-name="Grupo 1103437" transform="translate(39.193 20.069)">
      <path id="Trazado_913590" data-name="Trazado 913590" d="M178.673,148.844l-6.757,5.6,3.624,8.413a.364.364,0,0,0,.643.048l2.339-3.769,4.346.89a.363.363,0,0,0,.407-.5Z" transform="translate(-155.064 -127.667)" fill="#fe646f" fill-rule="evenodd"/>
      <path id="Trazado_913591" data-name="Trazado 913591" d="M193.176,148.844l-.893.741,4.283,9.944a.359.359,0,0,1-.021.331l.827.169a.363.363,0,0,0,.407-.5Zm-3.354,13.5,2.128-3.428,1.076.22-2.339,3.769a.364.364,0,0,1-.643-.048Z" transform="translate(-169.567 -127.667)" fill="#fd4755" fill-rule="evenodd"/>
      <path id="Trazado_913592" data-name="Trazado 913592" d="M101.618,161.378,96.76,171.813a.364.364,0,0,1-.644.029l-2.229-3.835-4.37.764a.363.363,0,0,1-.392-.512l4.805-10.321Z" transform="translate(-87.978 -135.033)" fill="#fe646f" fill-rule="evenodd"/>
      <path id="Trazado_913593" data-name="Trazado 913593" d="M101.619,174.3l-4.858,10.435a.364.364,0,0,1-.644.029l-2.229-3.835-4.37.764a.363.363,0,0,1-.392-.512l.3-.635,3.853-.673,2.229,3.835a.364.364,0,0,0,.644-.029l4.557-9.788Z" transform="translate(-87.978 -147.952)" fill="#fd4755" fill-rule="evenodd"/>
      <path id="Trazado_913594" data-name="Trazado 913594" d="M99.761,38.035c2.9,2.174,2.246,1.935,5.869,2.136a3.055,3.055,0,0,1,2.84,2.383c.3,1.282.447,2.9,1.426,3.816l1.7,1.593a3.055,3.055,0,0,1,.644,3.651c-1.637,3.238-1.515,2.548-1.085,6.151a3.055,3.055,0,0,1-1.854,3.21c-3.336,1.428-2.8.978-4.785,4.015a3.056,3.056,0,0,1-3.483,1.268c-3.473-1.05-2.772-1.05-6.246,0A3.055,3.055,0,0,1,91.3,64.99c-1.986-3.037-1.449-2.586-4.785-4.015a3.055,3.055,0,0,1-1.853-3.21c.431-3.6.552-2.912-1.085-6.151a3.055,3.055,0,0,1,.644-3.651c2.646-2.483,2.3-1.876,3.123-5.409a3.056,3.056,0,0,1,2.84-2.383c3.623-.2,2.964.038,5.869-2.136a3.055,3.055,0,0,1,3.707,0Z" transform="translate(-83.238 -37.409)" fill="#ffbd45" fill-rule="evenodd"/>
      <path id="Trazado_913595" data-name="Trazado 913595" d="M141.7,38.036c2.9,2.174,2.246,1.935,5.869,2.136a3.055,3.055,0,0,1,2.84,2.383c.3,1.282.447,2.9,1.426,3.816l1.7,1.593a3.055,3.055,0,0,1,.644,3.651c-1.637,3.238-1.515,2.548-1.085,6.151a3.055,3.055,0,0,1-1.854,3.21c-3.335,1.428-2.8.978-4.785,4.015a3.053,3.053,0,0,1-3.365,1.3,3.073,3.073,0,0,0,1.777-1.3c1.986-3.037,1.449-2.586,4.785-4.015a3.055,3.055,0,0,0,1.853-3.21c-.431-3.6-.552-2.912,1.085-6.151a3.055,3.055,0,0,0-.644-3.651l-1.7-1.593c-.979-.918-1.125-2.535-1.426-3.816a3.056,3.056,0,0,0-2.84-2.383c-3.623-.2-2.964.038-5.869-2.136a3.141,3.141,0,0,0-1.059-.52A3.056,3.056,0,0,1,141.7,38.036Zm-2.648,27.537c-1.124-.256-1.558-.027-3.917.686l-.118.033a3.1,3.1,0,0,0,1.707-.033C137.839,65.922,138.523,65.693,139.054,65.573Z" transform="translate(-125.179 -37.409)" fill="#ffd064" fill-rule="evenodd"/>
      <circle id="Elipse_11548" data-name="Elipse 11548" cx="8.657" cy="8.657" r="8.657" transform="translate(4.254 8.048) rotate(-13.3)" fill="#eceff1"/>
      <path id="Trazado_913596" data-name="Trazado 913596" d="M123.536,68.121q.349,0,.692.028a8.657,8.657,0,0,0,0,17.258q-.342.027-.692.028a8.657,8.657,0,1,1,0-17.313Z" transform="translate(-108.866 -62.285)" fill="#d1d1d6" fill-rule="evenodd"/>
      <path id="Trazado_913597" data-name="Trazado 913597" d="M130.378,96.822a1.52,1.52,0,1,1,2.15-2.15L134,96.144l4.983-4.522a1.518,1.518,0,0,1,2.043,2.245l-6,5.441-.008.009a1.52,1.52,0,0,1-2.15,0Z" transform="translate(-121.059 -80.999)" fill="#4045ab" fill-rule="evenodd"/>
    </g>
    <g id="Grupo_1103438" data-name="Grupo 1103438" transform="translate(72.93 56.739)">
      <path id="Trazado_913598" data-name="Trazado 913598" d="M281.9,230.37l21.129,9.055V256.51c0,12.54-8.979,22.221-21.129,24.339-12.15-2.118-21.129-11.8-21.129-24.339V239.425Z" transform="translate(-260.768 -230.37)" fill="#12263f" fill-rule="evenodd"/>
      <path id="Trazado_913599" data-name="Trazado 913599" d="M364.572,230.37l21.129,9.055V256.51c0,12.54-8.979,22.221-21.129,24.339q-.308-.054-.614-.114c11.081-2.806,19.05-12.08,19.05-23.894V239.755l-20.168-8.643Z" transform="translate(-343.443 -230.37)" fill="#12263f" fill-rule="evenodd"/>
      <circle id="Elipse_11549" data-name="Elipse 11549" cx="13.779" cy="13.779" r="13.779" transform="translate(6.997 39.138) rotate(-88.625)" fill="#eceff1"/>
      <path id="Trazado_913600" data-name="Trazado 913600" d="M312.923,293.071c.421,0,.837.02,1.248.057a13.779,13.779,0,0,0,0,27.445c-.411.037-.827.057-1.248.057a13.779,13.779,0,1,1,0-27.559Z" transform="translate(-291.851 -281.156)" fill="#d1d1d6" fill-rule="evenodd"/>
      <path id="Trazado_913601" data-name="Trazado 913601" d="M334.137,340.566l6.7-6.767a2.04,2.04,0,1,1,2.894,2.875c-2.717,2.742-5.416,5.5-8.145,8.232a2.044,2.044,0,0,1-2.89,0l-4.529-4.529a2.044,2.044,0,0,1,2.89-2.89Z" transform="translate(-314.874 -313.656)" fill="#ee4f47" fill-rule="evenodd"/>
    </g>
  </g>
</svg>
