<svg xmlns="http://www.w3.org/2000/svg" width="468.914" height="59.689" viewBox="0 0 468.914 59.689">
  <g id="Grupo_1103351" data-name="Grupo 1103351" transform="translate(-179.999 -615.424)">
    <g id="Grupo_1102920" data-name="Grupo 1102920" transform="translate(-0.052 -802.576)">
      <path id="Unión_7" data-name="Unión 7" d="M19.326,56.957,17.474,31H11A11,11,0,0,1,0,20V11A11,11,0,0,1,11,0H457.913a11,11,0,0,1,11,11v9a11,11,0,0,1-11,11H63.862L30.439,56.957a6.633,6.633,0,0,1-5.557,2.73A6.633,6.633,0,0,1,19.326,56.957Z" transform="translate(180.052 1418.001)" fill="#ffbd45"/>
      <path id="Trazado_911295" data-name="Trazado 911295" d="M-8453.8-10064.8l21.8-22.4h181.6" transform="translate(8654.051 11533)" fill="none" stroke="#ca7441" stroke-linecap="round" stroke-width="1"/>
      <path id="Trazado_911296" data-name="Trazado 911296" d="M-8242.2-10087.2h13.2" transform="translate(8654.051 11533)" fill="none" stroke="#ca7441" stroke-linecap="round" stroke-width="1"/>
      <path id="Trazado_911297" data-name="Trazado 911297" d="M-8207.8-10087.2h52.8s11-1.8,10.6-9,0-4.6,0-4.6" transform="translate(8787.852 11533)" fill="none" stroke="#ca7441" stroke-linecap="round" stroke-width="1"/>
    </g>
  </g>
</svg>
