<svg xmlns="http://www.w3.org/2000/svg" width="125.582" height="120.625" viewBox="0 0 125.582 120.625">
  <g id="Grupo_1103353" data-name="Grupo 1103353" transform="translate(-15.999 -25.473)">
    <g id="Grupo_1103331" data-name="Grupo 1103331" transform="translate(38.421 25.473)">
      <g id="Grupo_1103303" data-name="Grupo 1103303" transform="translate(36.22 0)">
        <path id="Trazado_913245" data-name="Trazado 913245" d="M240.144,27.566a2.093,2.093,0,0,1,4.186,0V32.8a2.093,2.093,0,0,1-4.186,0Z" transform="translate(-240.144 -25.473)" fill="#8d9ca8" fill-rule="evenodd"/>
      </g>
      <g id="Grupo_1103306" data-name="Grupo 1103306" transform="translate(51.78 28.233)">
        <g id="Grupo_1103304" data-name="Grupo 1103304">
          <path id="Trazado_913246" data-name="Trazado 913246" d="M330.5,133.384H299.617v66.129h32.974V135.477a2.1,2.1,0,0,0-2.093-2.093Z" transform="translate(-299.617 -133.384)" fill="#8192a5" fill-rule="evenodd"/>
        </g>
        <g id="Grupo_1103305" data-name="Grupo 1103305" transform="translate(0 0)">
          <path id="Trazado_913247" data-name="Trazado 913247" d="M299.617,133.384h5.406v66.129h-5.406Z" transform="translate(-299.617 -133.384)" fill="#65788e" fill-rule="evenodd"/>
        </g>
      </g>
      <g id="Grupo_1103309" data-name="Grupo 1103309" transform="translate(0 28.232)">
        <g id="Grupo_1103307" data-name="Grupo 1103307">
          <path id="Trazado_913248" data-name="Trazado 913248" d="M103.8,133.382l22.042.557v66.13l-24.135-.557V135.475A2.079,2.079,0,0,1,103.8,133.382Z" transform="translate(-101.702 -133.382)" fill="#8192a5" fill-rule="evenodd"/>
        </g>
        <g id="Grupo_1103308" data-name="Grupo 1103308" transform="translate(19.441 0.439)">
          <path id="Trazado_913249" data-name="Trazado 913249" d="M176.01,135.058h4.506v66.129H176.01Z" transform="translate(-176.01 -135.058)" fill="#65788e" fill-rule="evenodd"/>
        </g>
      </g>
      <g id="Grupo_1103310" data-name="Grupo 1103310" transform="translate(4.912 31.451)">
        <path id="Trazado_913250" data-name="Trazado 913250" d="M124.664,203.285a2.093,2.093,0,0,1-4.186,0V147.779a2.093,2.093,0,0,1,4.186,0Zm8.047,0a2.093,2.093,0,0,1-4.186,0V147.779a2.093,2.093,0,0,1,4.186,0Z" transform="translate(-120.478 -145.686)" fill="#eceff1" fill-rule="evenodd"/>
      </g>
      <g id="Grupo_1103313" data-name="Grupo 1103313" transform="translate(60.146 34.454)">
        <g id="Grupo_1103311" data-name="Grupo 1103311">
          <path id="Trazado_913251" data-name="Trazado 913251" d="M349.317,157.162H332.9a1.311,1.311,0,0,0-1.308,1.308v4.654a1.311,1.311,0,0,0,1.308,1.308h16.415a1.311,1.311,0,0,0,1.308-1.308V158.47A1.311,1.311,0,0,0,349.317,157.162Z" transform="translate(-331.594 -157.162)" fill="#d8ecfe" fill-rule="evenodd"/>
        </g>
        <g id="Grupo_1103312" data-name="Grupo 1103312" transform="translate(15.107)">
          <path id="Trazado_913252" data-name="Trazado 913252" d="M391.951,157.162h-2.616a1.311,1.311,0,0,1,1.308,1.308v4.654a1.311,1.311,0,0,1-1.308,1.308h2.616a1.311,1.311,0,0,0,1.308-1.308V158.47A1.311,1.311,0,0,0,391.951,157.162Z" transform="translate(-389.335 -157.162)" fill="#c4e2ff" fill-rule="evenodd"/>
        </g>
      </g>
      <g id="Grupo_1103316" data-name="Grupo 1103316" transform="translate(28.492 7.324)">
        <g id="Grupo_1103314" data-name="Grupo 1103314">
          <path id="Trazado_913253" data-name="Trazado 913253" d="M211.911,53.466h17.027a1.311,1.311,0,0,1,1.308,1.308v7.072H210.6V54.774A1.311,1.311,0,0,1,211.911,53.466Z" transform="translate(-210.603 -53.466)" fill="#9facba" fill-rule="evenodd"/>
        </g>
        <g id="Grupo_1103315" data-name="Grupo 1103315" transform="translate(15.719)">
          <path id="Trazado_913254" data-name="Trazado 913254" d="M270.684,53.466H273.3a1.311,1.311,0,0,1,1.308,1.308v7.072h-2.616V54.774A1.311,1.311,0,0,0,270.684,53.466Z" transform="translate(-270.684 -53.466)" fill="#8d9ca8" fill-rule="evenodd"/>
        </g>
      </g>
      <g id="Grupo_1103317" data-name="Grupo 1103317" transform="translate(22.058 14.4)">
        <path id="Trazado_913255" data-name="Trazado 913255" d="M188.1,80.514H216.43a2.1,2.1,0,0,1,2.093,2.093v77.869H186.011V82.607a2.1,2.1,0,0,1,2.093-2.093Z" transform="translate(-186.011 -80.514)" fill="#8192a5" fill-rule="evenodd"/>
      </g>
      <g id="Grupo_1103330" data-name="Grupo 1103330" transform="translate(28.413 21.988)">
        <g id="Grupo_1103318" data-name="Grupo 1103318">
          <path id="Trazado_913256" data-name="Trazado 913256" d="M211.61,109.517H228.8a1.311,1.311,0,0,1,1.308,1.308v4.654a1.311,1.311,0,0,1-1.308,1.308H211.61a1.311,1.311,0,0,1-1.308-1.308v-4.654A1.311,1.311,0,0,1,211.61,109.517Z" transform="translate(-210.302 -109.517)" fill="#d8ecfe" fill-rule="evenodd"/>
        </g>
        <g id="Grupo_1103319" data-name="Grupo 1103319" transform="translate(0 16.666)">
          <path id="Trazado_913257" data-name="Trazado 913257" d="M211.61,173.219h4.935a1.311,1.311,0,0,1,1.308,1.308v4.935a1.311,1.311,0,0,1-1.308,1.308H211.61a1.311,1.311,0,0,1-1.308-1.308v-4.935A1.311,1.311,0,0,1,211.61,173.219Z" transform="translate(-210.302 -173.219)" fill="#d8ecfe" fill-rule="evenodd"/>
        </g>
        <g id="Grupo_1103320" data-name="Grupo 1103320" transform="translate(12.25 16.666)">
          <path id="Trazado_913258" data-name="Trazado 913258" d="M258.431,173.219h4.935a1.311,1.311,0,0,1,1.308,1.308v4.935a1.311,1.311,0,0,1-1.308,1.308h-4.935a1.311,1.311,0,0,1-1.308-1.308v-4.935A1.311,1.311,0,0,1,258.431,173.219Z" transform="translate(-257.123 -173.219)" fill="#d8ecfe" fill-rule="evenodd"/>
        </g>
        <g id="Grupo_1103321" data-name="Grupo 1103321" transform="translate(15.877)">
          <path id="Trazado_913259" data-name="Trazado 913259" d="M270.986,109.517H273.6a1.311,1.311,0,0,1,1.308,1.308v4.654a1.311,1.311,0,0,1-1.308,1.308h-2.616a1.311,1.311,0,0,0,1.308-1.308v-4.654A1.311,1.311,0,0,0,270.986,109.517Z" transform="translate(-270.986 -109.517)" fill="#c4e2ff" fill-rule="evenodd"/>
        </g>
        <g id="Grupo_1103322" data-name="Grupo 1103322" transform="translate(3.627 16.666)">
          <path id="Trazado_913260" data-name="Trazado 913260" d="M224.165,173.219h2.616a1.311,1.311,0,0,1,1.308,1.308v4.935a1.311,1.311,0,0,1-1.308,1.308h-2.616a1.311,1.311,0,0,0,1.308-1.308v-4.935A1.311,1.311,0,0,0,224.165,173.219Z" transform="translate(-224.165 -173.219)" fill="#c4e2ff" fill-rule="evenodd"/>
        </g>
        <g id="Grupo_1103323" data-name="Grupo 1103323" transform="translate(15.877 16.666)">
          <path id="Trazado_913261" data-name="Trazado 913261" d="M270.986,173.219H273.6a1.311,1.311,0,0,1,1.308,1.308v4.935a1.311,1.311,0,0,1-1.308,1.308h-2.616a1.311,1.311,0,0,0,1.308-1.308v-4.935A1.311,1.311,0,0,0,270.986,173.219Z" transform="translate(-270.986 -173.219)" fill="#c4e2ff" fill-rule="evenodd"/>
        </g>
        <g id="Grupo_1103326" data-name="Grupo 1103326" transform="translate(0 28.916)">
          <g id="Grupo_1103324" data-name="Grupo 1103324">
            <path id="Trazado_913262" data-name="Trazado 913262" d="M211.61,220.041h4.935a1.311,1.311,0,0,1,1.308,1.308v4.935a1.311,1.311,0,0,1-1.308,1.308H211.61a1.311,1.311,0,0,1-1.308-1.308v-4.935A1.311,1.311,0,0,1,211.61,220.041Z" transform="translate(-210.302 -220.041)" fill="#d8ecfe" fill-rule="evenodd"/>
          </g>
          <g id="Grupo_1103325" data-name="Grupo 1103325" transform="translate(3.627)">
            <path id="Trazado_913263" data-name="Trazado 913263" d="M224.165,220.041h2.616a1.311,1.311,0,0,1,1.308,1.308v4.935a1.311,1.311,0,0,1-1.308,1.308h-2.616a1.311,1.311,0,0,0,1.308-1.308v-4.935A1.311,1.311,0,0,0,224.165,220.041Z" transform="translate(-224.165 -220.041)" fill="#c4e2ff" fill-rule="evenodd"/>
          </g>
        </g>
        <g id="Grupo_1103329" data-name="Grupo 1103329" transform="translate(12.25 28.916)">
          <g id="Grupo_1103327" data-name="Grupo 1103327">
            <path id="Trazado_913264" data-name="Trazado 913264" d="M258.431,220.041h4.935a1.311,1.311,0,0,1,1.308,1.308v4.935a1.311,1.311,0,0,1-1.308,1.308h-4.935a1.311,1.311,0,0,1-1.308-1.308v-4.935A1.311,1.311,0,0,1,258.431,220.041Z" transform="translate(-257.123 -220.041)" fill="#d8ecfe" fill-rule="evenodd"/>
          </g>
          <g id="Grupo_1103328" data-name="Grupo 1103328" transform="translate(3.627)">
            <path id="Trazado_913265" data-name="Trazado 913265" d="M270.986,220.041H273.6a1.311,1.311,0,0,1,1.308,1.308v4.935a1.311,1.311,0,0,1-1.308,1.308h-2.616a1.311,1.311,0,0,0,1.308-1.308v-4.935A1.311,1.311,0,0,0,270.986,220.041Z" transform="translate(-270.986 -220.041)" fill="#c4e2ff" fill-rule="evenodd"/>
          </g>
        </g>
      </g>
    </g>
    <g id="Grupo_1103341" data-name="Grupo 1103341" transform="translate(88.39 82.637)">
      <g id="Grupo_1103332" data-name="Grupo 1103332" transform="translate(0 23.41)">
        <path id="Trazado_913266" data-name="Trazado 913266" d="M303.919,333.443q.029,29.179,0,29.133h-9.7a1.534,1.534,0,0,1-1.531-1.531V334.974a1.534,1.534,0,0,1,1.531-1.531Z" transform="translate(-292.691 -333.443)" fill="#ca7441" fill-rule="evenodd"/>
      </g>
      <g id="Grupo_1103333" data-name="Grupo 1103333" transform="translate(0 23.41)">
        <path id="Trazado_913267" data-name="Trazado 913267" d="M292.691,361.045a1.534,1.534,0,0,0,1.531,1.531h9.707V333.443H302.4v27.6Z" transform="translate(-292.691 -333.443)" fill="#ca7441" fill-rule="evenodd"/>
      </g>
      <g id="Grupo_1103334" data-name="Grupo 1103334" transform="translate(10.998 0)">
        <path id="Trazado_913268" data-name="Trazado 913268" d="M359.148,299.429c-11.291,1.944-17.856,3.365-24.419-2.922V267.375c5.173-3.886,12.006-7.215,12.006-14.566v-8.844a10.638,10.638,0,0,1,10.608,10.606v6.86a10.2,10.2,0,0,1-2.942,5.4C370.826,271.056,363.834,299.63,359.148,299.429Z" transform="translate(-334.729 -243.965)" fill="#f6dccd" fill-rule="evenodd"/>
      </g>
      <g id="Grupo_1103335" data-name="Grupo 1103335" transform="translate(10.998)">
        <path id="Trazado_913269" data-name="Trazado 913269" d="M337.306,298.588a18.482,18.482,0,0,1-2.577-2.08V267.375c5.173-3.886,12.006-7.215,12.006-14.566v-8.844A10.572,10.572,0,0,1,354.145,247a10.521,10.521,0,0,0-5.429-1.505v8.844c0,7.35-6.832,10.68-12.006,14.566v29.133Q337.008,298.324,337.306,298.588Z" transform="translate(-334.729 -243.965)" fill="#f1cbbc" fill-rule="evenodd"/>
      </g>
      <g id="Grupo_1103336" data-name="Grupo 1103336" transform="translate(30.711 21.948)">
        <path id="Trazado_913270" data-name="Trazado 913270" d="M416.065,361.572h6.8a4.215,4.215,0,0,0,0-8.429h2.514a4.215,4.215,0,0,0,0-8.429h2.958a4.215,4.215,0,1,0,0-8.429h-1.775a4.215,4.215,0,0,0,0-8.429h-10.5a4.215,4.215,0,1,0,0,8.429H414.29a4.215,4.215,0,1,0,0,8.429h1.775a4.215,4.215,0,1,0,0,8.429,4.215,4.215,0,1,0,0,8.429Z" transform="translate(-410.075 -327.855)" fill="#f6dccd" fill-rule="evenodd"/>
      </g>
      <g id="Grupo_1103337" data-name="Grupo 1103337" transform="translate(32.487 51.451)">
        <path id="Trazado_913271" data-name="Trazado 913271" d="M421.077,444.836h6.8a4.227,4.227,0,0,0,4.215-4.214H416.862A4.227,4.227,0,0,0,421.077,444.836Z" transform="translate(-416.862 -440.622)" fill="#f1cbbc" fill-rule="evenodd"/>
      </g>
      <g id="Grupo_1103338" data-name="Grupo 1103338" transform="translate(32.486 43.021)">
        <path id="Trazado_913272" data-name="Trazado 913272" d="M427.88,412.616h2.514a4.227,4.227,0,0,0,4.215-4.215H416.861a4.227,4.227,0,0,0,4.215,4.215Z" transform="translate(-416.861 -408.401)" fill="#f1cbbc" fill-rule="evenodd"/>
      </g>
      <g id="Grupo_1103339" data-name="Grupo 1103339" transform="translate(30.711 34.592)">
        <path id="Trazado_913273" data-name="Trazado 913273" d="M425.384,380.4h2.957a4.227,4.227,0,0,0,4.215-4.215h-22.48a4.227,4.227,0,0,0,4.215,4.215h11.093Z" transform="translate(-410.076 -376.184)" fill="#f1cbbc" fill-rule="evenodd"/>
      </g>
      <g id="Grupo_1103340" data-name="Grupo 1103340" transform="translate(32.487 26.163)">
        <path id="Trazado_913274" data-name="Trazado 913274" d="M431.577,348.18a4.227,4.227,0,0,0,4.215-4.215H416.863a4.227,4.227,0,0,0,4.215,4.215Z" transform="translate(-416.863 -343.965)" fill="#f1cbbc" fill-rule="evenodd"/>
      </g>
    </g>
    <g id="Grupo_1103352" data-name="Grupo 1103352" transform="translate(15.999 84.495)">
      <g id="Grupo_1103342" data-name="Grupo 1103342" transform="translate(17.402 41.043)">
        <path id="Trazado_913275" data-name="Trazado 913275" d="M99.657,425.909,89.284,407.943l-6.772,3.91,7.942,13.756a5.8,5.8,0,0,0,7.912,2.12l.949-.548a.933.933,0,0,0,.341-1.272Z" transform="translate(-82.512 -407.943)" fill="#ffbd45" fill-rule="evenodd"/>
      </g>
      <g id="Grupo_1103343" data-name="Grupo 1103343" transform="translate(17.402 41.043)">
        <path id="Trazado_913276" data-name="Trazado 913276" d="M99.657,425.909,89.284,407.943l-6.772,3.91,5.823-3.362,10.373,17.966a.933.933,0,0,1-.341,1.272l.949-.548a.933.933,0,0,0,.341-1.272Z" transform="translate(-82.512 -407.943)" fill="#ffd064" fill-rule="evenodd"/>
      </g>
      <g id="Grupo_1103344" data-name="Grupo 1103344" transform="translate(43.012 12.428)">
        <path id="Trazado_913277" data-name="Trazado 913277" d="M189.809,301.684a6.228,6.228,0,0,0-8.508-2.28c-.088.051-.815.473-.9.528l6.221,10.775c.09-.046.819-.464.907-.515A6.228,6.228,0,0,0,189.809,301.684Z" transform="translate(-180.401 -298.568)" fill="#ffbd45" fill-rule="evenodd"/>
      </g>
      <g id="Grupo_1103345" data-name="Grupo 1103345" transform="translate(43.012 12.428)">
        <path id="Trazado_913278" data-name="Trazado 913278" d="M189.808,301.684a6.228,6.228,0,0,0-8.508-2.28c-.088.051-.815.473-.9.528l.717,1.242c.085-.055.811-.477.9-.528a6.229,6.229,0,0,1,8.114,1.679A6.239,6.239,0,0,0,189.808,301.684Z" transform="translate(-180.4 -298.568)" fill="#ffd064" fill-rule="evenodd"/>
      </g>
      <g id="Grupo_1103346" data-name="Grupo 1103346" transform="translate(0 0)">
        <path id="Trazado_913279" data-name="Trazado 913279" d="M41.394,294.226,31.8,299.763a10.54,10.54,0,1,1-10.54-18.256l9.592-5.538c7.181-6.382,12.017-15.857,16.448-23.333a3.2,3.2,0,0,1,5.525.032l19.526,33.82a3.2,3.2,0,0,1-2.9,4.8c-9.187-.378-18.829-.5-28.056,2.939Z" transform="translate(-16 -251.068)" fill="#ffbd45" fill-rule="evenodd"/>
      </g>
      <g id="Grupo_1103347" data-name="Grupo 1103347" transform="translate(0 0)">
        <path id="Trazado_913280" data-name="Trazado 913280" d="M18.322,297.245a10.538,10.538,0,0,1,2.939-15.738l9.592-5.538c7.181-6.382,12.017-15.857,16.448-23.333a3.2,3.2,0,0,1,5.525.031l19.526,33.82,0,.005-17.91-31.02a3.2,3.2,0,0,0-5.525-.032c-4.43,7.476-9.266,16.95-16.448,23.333l-9.592,5.538a10.58,10.58,0,0,0-4.559,12.933Z" transform="translate(-16 -251.068)" fill="#ffd064" fill-rule="evenodd"/>
      </g>
      <g id="Grupo_1103348" data-name="Grupo 1103348" transform="translate(29.078 0)">
        <path id="Trazado_913281" data-name="Trazado 913281" d="M141.716,264.489l-6.825-11.821a3.2,3.2,0,0,0-5.525-.031c-.727,1.228-1.466,2.509-2.224,3.822l20.024,34.682c1.458.034,2.909.087,4.348.146a3.2,3.2,0,0,0,2.9-4.8l-6.48-11.224Z" transform="translate(-127.142 -251.068)" fill="#ee4f47" fill-rule="evenodd"/>
      </g>
      <g id="Grupo_1103349" data-name="Grupo 1103349" transform="translate(29.078)">
        <path id="Trazado_913282" data-name="Trazado 913282" d="M136.51,255.471l-1.619-2.8a3.2,3.2,0,0,0-5.525-.031c-.728,1.227-1.466,2.509-2.224,3.822l1.62,2.806c.758-1.313,1.5-2.594,2.224-3.822a3.2,3.2,0,0,1,5.524.029Z" transform="translate(-127.143 -251.067)" fill="#fd4755" fill-rule="evenodd"/>
      </g>
      <g id="Grupo_1103350" data-name="Grupo 1103350" transform="translate(0 24.902)">
        <path id="Trazado_913283" data-name="Trazado 913283" d="M40.173,362.388l-9.319-16.142-9.592,5.538A10.54,10.54,0,1,0,31.8,370.04l2.82-1.628,6.772-3.91Z" transform="translate(-15.999 -346.246)" fill="#ee4f47" fill-rule="evenodd"/>
      </g>
      <g id="Grupo_1103351" data-name="Grupo 1103351" transform="translate(0 24.902)">
        <path id="Trazado_913284" data-name="Trazado 913284" d="M32.474,349.052l-1.62-2.806-9.592,5.538a10.539,10.539,0,0,0-2.94,15.738,10.579,10.579,0,0,1,4.559-12.933Z" transform="translate(-16 -346.246)" fill="#fd4755" fill-rule="evenodd"/>
      </g>
    </g>
  </g>
</svg>
