<svg xmlns="http://www.w3.org/2000/svg" width="106.247" height="106.247" viewBox="0 0 106.247 106.247">
  <g id="Grupo_1103440" data-name="Grupo 1103440" transform="translate(84.663 84.607)">
    <circle id="Elipse_11550" data-name="Elipse 11550" cx="37.57" cy="37.57" r="37.57" transform="translate(-84.663 -31.483) rotate(-45)" fill="#ff6c6c"/>
    <path id="Trazado_913602" data-name="Trazado 913602" d="M264.465,17.6V92.737a37.57,37.57,0,1,0,0-75.139Z" transform="translate(-295.996 -86.651)" fill="#e63950"/>
    <ellipse id="Elipse_11551" data-name="Elipse 11551" cx="24.967" cy="24.967" rx="24.967" ry="24.967" transform="translate(-60.289 -51.981) rotate(-9.5)" fill="#f0f7ff"/>
    <path id="Trazado_913603" data-name="Trazado 913603" d="M264.465,100.407v49.934a24.967,24.967,0,1,0,0-49.934Z" transform="translate(-295.996 -156.857)" fill="#dfe7f4"/>
    <circle id="Elipse_11552" data-name="Elipse 11552" cx="12.365" cy="12.365" r="12.365" transform="matrix(0.454, -0.891, 0.891, 0.454, -48.157, -26.066)" fill="#ff6c6c"/>
    <path id="Trazado_913604" data-name="Trazado 913604" d="M264.465,183.218v24.729a12.365,12.365,0,1,0,0-24.729Z" transform="translate(-295.996 -227.066)" fill="#e63950"/>
    <path id="Trazado_913605" data-name="Trazado 913605" d="M27.828,11.708,16.789.668a2.283,2.283,0,0,0-3.753.817L10.776,7.547l.645,3.874-3.874-.645L1.486,13.035a2.283,2.283,0,0,0-.817,3.753L11.708,27.828a2.283,2.283,0,0,0,2.021.632l10.913-1.978a2.283,2.283,0,0,0,1.839-1.839L28.46,13.729a2.283,2.283,0,0,0-.632-2.021Z" transform="translate(-71.778 -71.73)" fill="#29376d"/>
    <path id="Trazado_913606" data-name="Trazado 913606" d="M83.91,80.683,52.824,49.6l-.876,2.352-2.352.876L80.682,83.911a2.283,2.283,0,0,0,3.228-3.228Z" transform="translate(-113.827 -113.78)" fill="#47568c"/>
  </g>
</svg>
