<svg xmlns="http://www.w3.org/2000/svg" width="77.029" height="77.029" viewBox="0 0 77.029 77.029">
  <g id="Grupo_1103423" data-name="Grupo 1103423" transform="translate(0 0)">
    <path id="Trazado_913526" data-name="Trazado 913526" d="M117.418,9.027c-15.165,0-21.439-5.958-27.08-9.027a47.4,47.4,0,0,1-27.08,9.027H61V30.8A50.857,50.857,0,0,0,89.344,76.532l.993.5,1.038-.5a50.816,50.816,0,0,0,28.3-45.736V9.027Zm0,0" transform="translate(-51.823 0)" fill="#12263f"/>
    <path id="Trazado_913527" data-name="Trazado 913527" d="M285.337,9.027V30.8a50.816,50.816,0,0,1-28.3,45.736l-1.038.5V0c5.642,3.069,11.915,9.027,27.08,9.027Zm0,0" transform="translate(-217.485 0)" fill="#12263f"/>
    <path id="Trazado_913528" data-name="Trazado 913528" d="M159.726,75.95a51.691,51.691,0,0,1-17.287-6.274L141.311,69l-1.128.677A51.691,51.691,0,0,1,122.9,75.95l-1.9.316V89.415a42.265,42.265,0,0,0,19.091,35.491l1.219.767,1.264-.767a42.391,42.391,0,0,0,19.046-35.491V76.267Zm0,0" transform="translate(-102.796 -58.619)" fill="#eaeaf9"/>
    <path id="Trazado_913529" data-name="Trazado 913529" d="M276.31,76.267V89.416a42.392,42.392,0,0,1-19.046,35.491l-1.264.767V69l1.128.677a51.692,51.692,0,0,0,17.287,6.274Zm0,0" transform="translate(-217.485 -58.619)" fill="#d8d8fc"/>
    <path id="Trazado_913530" data-name="Trazado 913530" d="M206.713,173.057l-10.607,10.652-2.257,2.257-8.35-8.4,3.159-3.159,5.19,5.145,2.257-2.257,7.447-7.4Zm0,0" transform="translate(-157.592 -144.338)" fill="#ee4f47"/>
    <path id="Trazado_913531" data-name="Trazado 913531" d="M0,422l4.513,6.77L0,435.54H22.717L16.794,425.1,9.177,422Zm0,0" transform="translate(0 -358.512)" fill="#ffbd45"/>
    <path id="Trazado_913532" data-name="Trazado 913532" d="M61,396.513l13.54,13.54v-13.54L69.839,392Zm0,0" transform="translate(-51.823 -333.025)" fill="#ca7441"/>
    <path id="Trazado_913533" data-name="Trazado 913533" d="M383.717,422l-4.513,6.77,4.513,6.77H361l6.864-11.378L374.54,422Zm0,0" transform="translate(-306.689 -358.512)" fill="#ffbd45"/>
    <path id="Trazado_913534" data-name="Trazado 913534" d="M374.54,396.513,361,410.054v-13.54L367.018,392Zm0,0" transform="translate(-306.689 -333.025)" fill="#ca7441"/>
    <path id="Trazado_913535" data-name="Trazado 913535" d="M266.607,173.057,256,183.709V177.3l7.447-7.4Zm0,0" transform="translate(-217.486 -144.338)" fill="#ee4f47"/>
    <path id="Trazado_913536" data-name="Trazado 913536" d="M61,332h58.674v13.54H61Zm0,0" transform="translate(-51.823 -282.052)" fill="#ffbd45"/>
    <path id="Trazado_913537" data-name="Trazado 913537" d="M256,332h29.337v13.54H256Zm0,0" transform="translate(-217.486 -282.052)" fill="#ffbd45"/>
  </g>
</svg>
