<svg xmlns="http://www.w3.org/2000/svg" width="505.001" height="124.688" viewBox="0 0 505.001 124.688">
  <g id="Grupo_1103351" data-name="Grupo 1103351" transform="translate(-180 -593.021)">
    <rect id="Rectángulo_402869" data-name="Rectángulo 402869" width="505.001" height="95.519" rx="11" transform="translate(180 593.021)" fill="#ffbd45"/>
    <path id="Trazado_911294" data-name="Trazado 911294" d="M39.147,2.776c2.652-3.7,9.317-3.7,11.969,0L53.233,30.8c2.641,3.686-.68,8.281-5.984,8.281H6.911c-5.3,0-8.625-4.6-5.984-8.281Z" transform="translate(251.929 717.709) rotate(180)" fill="#ffbd45"/>
    <path id="Trazado_911295" data-name="Trazado 911295" d="M-8453.8-10064.8l21.8-22.4h181.6" transform="translate(8654 10773.021)" fill="none" stroke="#ca7441" stroke-linecap="round" stroke-width="1"/>
    <path id="Trazado_911296" data-name="Trazado 911296" d="M-8242.2-10087.2h13.2" transform="translate(8654 10773.021)" fill="none" stroke="#ca7441" stroke-linecap="round" stroke-width="1"/>
    <path id="Trazado_911297" data-name="Trazado 911297" d="M-8207.8-10087.2h52.8s11-1.8,10.6-9,0-4.6,0-4.6" transform="translate(8823.801 10773.021)" fill="none" stroke="#ca7441" stroke-linecap="round" stroke-width="1"/>
  </g>
</svg>
