<svg xmlns="http://www.w3.org/2000/svg" width="89.539" height="89.539" viewBox="0 0 89.539 89.539">
  <g id="Grupo_1103381" data-name="Grupo 1103381" transform="translate(0 0)">
    <g id="Grupo_1103380" data-name="Grupo 1103380" transform="translate(25.208 25.617)">
      <path id="Trazado_913302" data-name="Trazado 913302" d="M153.716,252.548l-3.974-5.563h-1.123l-4.471,7.271L145.6,257l4.14-.285a.734.734,0,0,1,.716-.575h1.409A2.273,2.273,0,0,0,153.716,252.548Z" transform="translate(-144.148 -229.41)" fill="#ffbd45"/>
      <path id="Trazado_913303" data-name="Trazado 913303" d="M242.832,196.735l-4.7,6.3,2.492,3.742,3.582-.305a.734.734,0,0,1,.716-.575h1.409a2.274,2.274,0,0,0,1.85-3.6l-3.974-5.563h-1.379Z" transform="translate(-221.7 -187.947)" fill="#ffbd45"/>
      <path id="Trazado_913304" data-name="Trazado 913304" d="M342.377,146.486h-1.4l-4.369,6.605L338.5,156.6l3.879-.385a.734.734,0,0,1,.716-.574H344.5a2.274,2.274,0,0,0,1.85-3.6Z" transform="translate(-302.949 -146.486)" fill="#ffbd45"/>
    </g>
    <path id="Trazado_913305" data-name="Trazado 913305" d="M320.281,143.886h-1.409a2.273,2.273,0,0,1-1.85-3.6L321,134.727l-1.1-1.54a2.274,2.274,0,0,0-3.7,0l-5.075,7.1a2.274,2.274,0,0,0,1.85,3.6h1.409a.734.734,0,0,1,.734.734V170.9a1.017,1.017,0,0,0,1.017,1.017h3.829a1.017,1.017,0,0,0,1.017-1.017V144.62a.727.727,0,0,1,.019-.159A.734.734,0,0,0,320.281,143.886Z" transform="translate(-256.36 -109.11)" fill="#ffbd45"/>
    <path id="Trazado_913306" data-name="Trazado 913306" d="M126.812,244.386H125.4a2.273,2.273,0,0,1-1.85-3.6l3.974-5.563-1.1-1.54a2.274,2.274,0,0,0-3.7,0l-5.075,7.1a2.274,2.274,0,0,0,1.85,3.6h1.409a.734.734,0,0,1,.734.734v8.708a1.017,1.017,0,0,0,1.017,1.017h3.829a1.017,1.017,0,0,0,1.017-1.017V245.12a.726.726,0,0,1,.019-.159A.734.734,0,0,0,126.812,244.386Z" transform="translate(-96.725 -192.035)" fill="#ffbd45"/>
    <path id="Trazado_913307" data-name="Trazado 913307" d="M223.547,194.136h-1.409a2.274,2.274,0,0,1-1.85-3.6l3.974-5.563-1.1-1.54a2.274,2.274,0,0,0-3.7,0l-5.075,7.1a2.274,2.274,0,0,0,1.85,3.6h1.409a.734.734,0,0,1,.734.734v17.5a1.017,1.017,0,0,0,1.017,1.017h3.829a1.017,1.017,0,0,0,1.017-1.017v-17.5a.726.726,0,0,1,.019-.159A.734.734,0,0,0,223.547,194.136Z" transform="translate(-176.543 -150.573)" fill="#ffbd45"/>
    <path id="Trazado_913308" data-name="Trazado 913308" d="M388.315,103.131l-1.472-2.732L387,94.611l1.678-1.581a.909.909,0,0,1-.974-.846,41.749,41.749,0,0,0-14.961-29.429,2.95,2.95,0,0,0-4.3.535l-.052.072a2.953,2.953,0,0,0,.536,3.992,35.6,35.6,0,0,1,12.8,25.289.912.912,0,0,1-.841.967l-2.8.209a2.058,2.058,0,0,0-1.414,3.386l7.028,8.259a2.058,2.058,0,0,0,3.315-.247Z" transform="translate(-303.521 -51.209)" fill="#ee4f47"/>
    <path id="Trazado_913309" data-name="Trazado 913309" d="M465.26,248.454l4.43-7.123a2.058,2.058,0,0,0-1.9-3.139l-2.166.161S455.7,240.87,465.26,248.454Z" transform="translate(-380.466 -196.532)" fill="#ee4f47"/>
    <path id="Trazado_913310" data-name="Trazado 913310" d="M24.127,236.453a35.6,35.6,0,0,1-12.8-25.289.912.912,0,0,1,.841-.967l-.863-1.822-2.162-1.441,1.524-4.639v-2.413l-1.309-1.538a2.058,2.058,0,0,0-3.315.247L.314,207.8a2.058,2.058,0,0,0,1.9,3.139l2.166-.161a.909.909,0,0,1,.974.846,41.75,41.75,0,0,0,14.961,29.429,2.95,2.95,0,0,0,4.3-.535l.052-.072A2.953,2.953,0,0,0,24.127,236.453Z" transform="translate(0 -163.06)" fill="#ee4f47"/>
    <path id="Trazado_913311" data-name="Trazado 913311" d="M47.915,220.874l2.8-.209a2.058,2.058,0,0,0,1.414-3.386l-5.719-6.721C45.092,212.219,39.4,219.994,47.915,220.874Z" transform="translate(-35.749 -173.737)" fill="#ee4f47"/>
    <path id="Trazado_913312" data-name="Trazado 913312" d="M103.81,25.834l1.407.875a2.058,2.058,0,0,1,.247,3.315L97.2,37.052a2.058,2.058,0,0,1-3.386-1.414l-.209-2.8a.912.912,0,0,0-.967-.842,35.6,35.6,0,0,0-25.289,12.8,2.953,2.953,0,0,1-3.991.536l-.072-.052a2.95,2.95,0,0,1-.535-4.3A41.749,41.749,0,0,1,92.184,26.022a.909.909,0,0,0,.846-.974l3.037.9Z" transform="translate(-51.209 -20.668)" fill="#ee4f47"/>
    <path id="Trazado_913313" data-name="Trazado 913313" d="M249.133,5.166l-7.8-4.852a2.058,2.058,0,0,0-3.139,1.9l.161,2.166S240.2,13.471,249.133,5.166Z" transform="translate(-196.532 0)" fill="#ee4f47"/>
    <path id="Trazado_913314" data-name="Trazado 913314" d="M240.519,368.451l-.072-.052a2.953,2.953,0,0,0-3.992.536,35.6,35.6,0,0,1-25.289,12.8.912.912,0,0,1-.967-.841l-3,.118-1.081,2.661-3.813-1.7-2.256.283-1.7,1.449a2.058,2.058,0,0,0,.247,3.315l9.209,5.727a2.058,2.058,0,0,0,3.139-1.9l-.161-2.166a.909.909,0,0,1,.846-.974,41.749,41.749,0,0,0,29.429-14.961A2.95,2.95,0,0,0,240.519,368.451Z" transform="translate(-163.062 -303.523)" fill="#ee4f47"/>
    <path id="Trazado_913315" data-name="Trazado 913315" d="M221.651,420.2l-.209-2.8a2.058,2.058,0,0,0-3.386-1.414l-6.556,5.579C213.341,423.273,219.584,428.309,221.651,420.2Z" transform="translate(-174.513 -342.83)" fill="#ee4f47"/>
  </g>
</svg>
