<svg xmlns="http://www.w3.org/2000/svg" width="87.812" height="87.842" viewBox="0 0 87.812 87.842">
  <g id="Grupo_1103444" data-name="Grupo 1103444" transform="translate(-1 -0.995)">
    <path id="Trazado_913617" data-name="Trazado 913617" d="M61.559,28.755v-16.7A6.056,6.056,0,0,0,55.5,6H7.056A6.056,6.056,0,0,0,1,12.056V75.643A6.056,6.056,0,0,0,7.056,81.7h37.5Z" transform="translate(0 2.572)" fill="#12263f"/>
    <path id="Trazado_913618" data-name="Trazado 913618" d="M53.447,27.017v-15.5A1.514,1.514,0,0,0,51.933,10H6.514A1.514,1.514,0,0,0,5,11.514V72.073a1.514,1.514,0,0,0,1.514,1.514H35.7Z" transform="translate(2.056 4.628)" fill="#fff"/>
    <path id="Trazado_913619" data-name="Trazado 913619" d="M37.224,8.572v6.056a1.514,1.514,0,0,1-1.514,1.514h-21.2A1.514,1.514,0,0,1,13,14.628V8.572a1.514,1.514,0,0,1,1.514-1.514h3.179a7.57,7.57,0,0,1,14.837,0H35.71A1.514,1.514,0,0,1,37.224,8.572Z" transform="translate(6.168 0)" fill="#d2ecf8"/>
    <g id="Grupo_1103443" data-name="Grupo 1103443" transform="translate(28.252 25.226)">
      <path id="Trazado_913620" data-name="Trazado 913620" d="M40.2,20.028H20.514a1.514,1.514,0,0,1,0-3.028H40.2a1.514,1.514,0,0,1,0,3.028Z" transform="translate(-19 -17)" fill="#9bc1ce"/>
      <path id="Trazado_913621" data-name="Trazado 913621" d="M29.6,24.028H20.514a1.514,1.514,0,0,1,0-3.028H29.6a1.514,1.514,0,0,1,0,3.028Z" transform="translate(-19 -14.944)" fill="#9bc1ce"/>
      <path id="Trazado_913622" data-name="Trazado 913622" d="M29.6,31.028H20.514a1.514,1.514,0,0,1,0-3.028H29.6a1.514,1.514,0,0,1,0,3.028Z" transform="translate(-19 -11.346)" fill="#9bc1ce"/>
      <path id="Trazado_913623" data-name="Trazado 913623" d="M26.3,35.028H20.514a1.514,1.514,0,0,1,0-3.028H26.3a1.514,1.514,0,0,1,0,3.028Z" transform="translate(-19 -9.29)" fill="#9bc1ce"/>
      <path id="Trazado_913624" data-name="Trazado 913624" d="M24.269,42.028H20.514a1.514,1.514,0,1,1,0-3.028h3.755a1.514,1.514,0,1,1,0,3.028Z" transform="translate(-19 -5.693)" fill="#9bc1ce"/>
      <path id="Trazado_913625" data-name="Trazado 913625" d="M24.92,46.028H20.514a1.514,1.514,0,1,1,0-3.028H24.92a1.514,1.514,0,1,1,0,3.028Z" transform="translate(-19 -3.637)" fill="#9bc1ce"/>
    </g>
    <path id="Trazado_913626" data-name="Trazado 913626" d="M13.542,30.14a1.514,1.514,0,0,1-1.07-.443L9.444,26.669a1.514,1.514,0,1,1,2.141-2.141l1.543,1.543,5.116-10.233a1.515,1.515,0,0,1,2.71,1.353L14.9,29.3a1.514,1.514,0,0,1-1.113.818,1.452,1.452,0,0,1-.242.02Z" transform="translate(4.112 7.198)" fill="#ffbd45"/>
    <path id="Trazado_913627" data-name="Trazado 913627" d="M13.542,41.14a1.514,1.514,0,0,1-1.07-.443L9.444,37.669a1.514,1.514,0,1,1,2.141-2.141l1.543,1.543,5.116-10.233a1.515,1.515,0,1,1,2.71,1.353L14.9,40.3a1.514,1.514,0,0,1-1.113.818,1.452,1.452,0,0,1-.242.02Z" transform="translate(4.112 12.852)" fill="#ffbd45"/>
    <path id="Trazado_913628" data-name="Trazado 913628" d="M13.542,52.14a1.514,1.514,0,0,1-1.07-.443L9.444,48.669a1.514,1.514,0,1,1,2.141-2.141l1.543,1.543,5.116-10.233a1.515,1.515,0,0,1,2.71,1.353L14.9,51.3a1.514,1.514,0,0,1-1.113.818,1.452,1.452,0,0,1-.242.02Z" transform="translate(4.112 18.505)" fill="#ffbd45"/>
    <path id="Trazado_913629" data-name="Trazado 913629" d="M74.376,34.869a28.778,28.778,0,1,1-9.7-9.7Z" transform="translate(10.271 10.281)" fill="#ee4f47"/>
    <path id="Trazado_913630" data-name="Trazado 913630" d="M60.959,35.646a17.945,17.945,0,0,1,3.376,10.522A18.168,18.168,0,1,1,46.168,28,17.945,17.945,0,0,1,56.69,31.376Z" transform="translate(13.877 13.88)" fill="#e8f5f9"/>
    <path id="Trazado_913631" data-name="Trazado 913631" d="M49.61,39.8a7.4,7.4,0,0,1,.53,2.771A7.57,7.57,0,1,1,42.57,35a7.4,7.4,0,0,1,2.771.53Z" transform="translate(17.475 17.478)" fill="#ee4f47"/>
    <path id="Trazado_913632" data-name="Trazado 913632" d="M54.137,28.18,39.89,42.426A3.019,3.019,0,0,0,44.16,46.7L58.406,32.449Z" transform="translate(19.534 13.972)" fill="#12263f"/>
    <path id="Trazado_913633" data-name="Trazado 913633" d="M52.59,26.432l4.542-4.542A3.019,3.019,0,0,1,61.4,26.16L56.859,30.7Z" transform="translate(26.516 10.285)" fill="#12263f"/>
    <path id="Trazado_913634" data-name="Trazado 913634" d="M56.373,22.161l.781,4.684a1.382,1.382,0,0,0,1.139,1.139l4.684.781a1.385,1.385,0,0,1,.757,2.347l-4.619,4.621a1.385,1.385,0,0,1-.986.406H50.387A1.387,1.387,0,0,1,49,34.751V27.009a1.385,1.385,0,0,1,.406-.98l4.621-4.619a1.385,1.385,0,0,1,2.347.751Z" transform="translate(24.671 10.284)" fill="#ffbd45"/>
  </g>
</svg>
