<svg id="Outline_00000087406118712682306200000006429406981682288575_" xmlns="http://www.w3.org/2000/svg" width="50.609" height="50.609" viewBox="0 0 50.609 50.609">
  <path id="Trazado_913558" data-name="Trazado 913558" d="M27.236,18.817V0H0V50.609H50.609V18.817ZM12.875,49.123H7.923V41.7h4.952ZM6.438,40.21V38.724H20.8V40.21Zm12.875,8.914H14.361V41.7h4.952Zm6.438,0H20.8V41.7h1.486V37.239H4.952V41.7H6.438v7.428H1.486V1.486H25.75Zm11.687,0H34.961V42.686h2.476Zm3.962,0H38.922V42.686H41.4Zm7.725,0H42.884V41.2H33.475v7.923H27.236V20.3H49.123Z" fill="#ee4f47"/>
  <path id="Trazado_913559" data-name="Trazado 913559" d="M305.428,240H298v5.447h7.428Zm-4.457,3.962h-1.486v-2.476h1.486Zm2.971,0h-1.486v-2.476h1.486Z" transform="translate(-268.486 -216.231)" fill="#ee4f47"/>
  <path id="Trazado_913560" data-name="Trazado 913560" d="M405.428,240H398v5.447h7.428Zm-4.457,3.962h-1.486v-2.476h1.486Zm2.971,0h-1.486v-2.476h1.486Z" transform="translate(-358.582 -216.231)" fill="#ee4f47"/>
  <path id="Trazado_913561" data-name="Trazado 913561" d="M305.428,330H298v5.447h7.428Zm-4.457,3.962h-1.486v-2.476h1.486Zm2.971,0h-1.486v-2.476h1.486Z" transform="translate(-268.486 -297.317)" fill="#ee4f47"/>
  <path id="Trazado_913562" data-name="Trazado 913562" d="M405.428,330H398v5.447h7.428Zm-4.457,3.962h-1.486v-2.476h1.486Zm2.971,0h-1.486v-2.476h1.486Z" transform="translate(-358.582 -297.317)" fill="#ee4f47"/>
  <path id="Trazado_913563" data-name="Trazado 913563" d="M35.447,48H30v5.447h5.447Zm-1.486,3.962H31.486V49.486h2.476Z" transform="translate(-27.029 -43.246)" fill="#ee4f47"/>
  <path id="Trazado_913564" data-name="Trazado 913564" d="M195.447,48H190v5.447h5.447Zm-1.486,3.962h-2.476V49.486h2.476Z" transform="translate(-171.183 -43.246)" fill="#ee4f47"/>
  <path id="Trazado_913565" data-name="Trazado 913565" d="M115.447,48H110v5.447h5.447Zm-1.486,3.962h-2.476V49.486h2.476Z" transform="translate(-99.106 -43.246)" fill="#ee4f47"/>
  <path id="Trazado_913566" data-name="Trazado 913566" d="M35.447,128H30v5.447h5.447Zm-1.486,3.962H31.486v-2.476h2.476Z" transform="translate(-27.029 -115.323)" fill="#ee4f47"/>
  <path id="Trazado_913567" data-name="Trazado 913567" d="M195.447,128H190v5.447h5.447Zm-1.486,3.962h-2.476v-2.476h2.476Z" transform="translate(-171.183 -115.323)" fill="#ee4f47"/>
  <path id="Trazado_913568" data-name="Trazado 913568" d="M115.447,128H110v5.447h5.447Zm-1.486,3.962h-2.476v-2.476h2.476Z" transform="translate(-99.106 -115.323)" fill="#ee4f47"/>
  <path id="Trazado_913569" data-name="Trazado 913569" d="M35.447,208H30v5.447h5.447Zm-1.486,3.962H31.486v-2.476h2.476Z" transform="translate(-27.029 -187.4)" fill="#ee4f47"/>
  <path id="Trazado_913570" data-name="Trazado 913570" d="M195.447,208H190v5.447h5.447Zm-1.486,3.962h-2.476v-2.476h2.476Z" transform="translate(-171.183 -187.4)" fill="#ee4f47"/>
  <path id="Trazado_913571" data-name="Trazado 913571" d="M115.447,208H110v5.447h5.447Zm-1.486,3.962h-2.476v-2.476h2.476Z" transform="translate(-99.106 -187.4)" fill="#ee4f47"/>
  <path id="Trazado_913572" data-name="Trazado 913572" d="M35.447,288H30v5.447h5.447Zm-1.486,3.962H31.486v-2.476h2.476Z" transform="translate(-27.029 -259.477)" fill="#ee4f47"/>
  <path id="Trazado_913573" data-name="Trazado 913573" d="M195.447,288H190v5.447h5.447Zm-1.486,3.962h-2.476v-2.476h2.476Z" transform="translate(-171.183 -259.477)" fill="#ee4f47"/>
  <path id="Trazado_913574" data-name="Trazado 913574" d="M115.447,288H110v5.447h5.447Zm-1.486,3.962h-2.476v-2.476h2.476Z" transform="translate(-99.106 -259.477)" fill="#ee4f47"/>
</svg>
